%TF.GenerationSoftware,KiCad,Pcbnew,(5.1.4)-1*%
%TF.CreationDate,2020-11-17T11:02:07+02:00*%
%TF.ProjectId,possu2,706f7373-7532-42e6-9b69-6361645f7063,rev?*%
%TF.SameCoordinates,Original*%
%TF.FileFunction,Soldermask,Top*%
%TF.FilePolarity,Negative*%
%FSLAX46Y46*%
G04 Gerber Fmt 4.6, Leading zero omitted, Abs format (unit mm)*
G04 Created by KiCad (PCBNEW (5.1.4)-1) date 2020-11-17 11:02:07*
%MOMM*%
%LPD*%
G04 APERTURE LIST*
%ADD10R,2.540000X2.540000*%
%ADD11R,1.800000X1.800000*%
%ADD12C,1.800000*%
%ADD13C,0.150000*%
%ADD14C,2.250000*%
%ADD15R,1.700000X1.700000*%
%ADD16O,1.700000X1.700000*%
%ADD17C,1.200000*%
%ADD18C,1.300000*%
%ADD19R,1.524000X1.524000*%
%ADD20R,1.750000X0.600000*%
G04 APERTURE END LIST*
D10*
%TO.C,SW1*%
X122936000Y-38354000D03*
X122936000Y-51054000D03*
X117856000Y-38354000D03*
X117856000Y-51054000D03*
%TD*%
D11*
%TO.C,D5*%
X98806000Y-48400000D03*
D12*
X101346000Y-48400000D03*
%TD*%
D11*
%TO.C,D25*%
X110490000Y-62100000D03*
D12*
X113030000Y-62100000D03*
%TD*%
D13*
%TO.C,C1*%
G36*
X88960505Y-42828204D02*
G01*
X88984773Y-42831804D01*
X89008572Y-42837765D01*
X89031671Y-42846030D01*
X89053850Y-42856520D01*
X89074893Y-42869132D01*
X89094599Y-42883747D01*
X89112777Y-42900223D01*
X89129253Y-42918401D01*
X89143868Y-42938107D01*
X89156480Y-42959150D01*
X89166970Y-42981329D01*
X89175235Y-43004428D01*
X89181196Y-43028227D01*
X89184796Y-43052495D01*
X89186000Y-43076999D01*
X89186000Y-44827001D01*
X89184796Y-44851505D01*
X89181196Y-44875773D01*
X89175235Y-44899572D01*
X89166970Y-44922671D01*
X89156480Y-44944850D01*
X89143868Y-44965893D01*
X89129253Y-44985599D01*
X89112777Y-45003777D01*
X89094599Y-45020253D01*
X89074893Y-45034868D01*
X89053850Y-45047480D01*
X89031671Y-45057970D01*
X89008572Y-45066235D01*
X88984773Y-45072196D01*
X88960505Y-45075796D01*
X88936001Y-45077000D01*
X87085999Y-45077000D01*
X87061495Y-45075796D01*
X87037227Y-45072196D01*
X87013428Y-45066235D01*
X86990329Y-45057970D01*
X86968150Y-45047480D01*
X86947107Y-45034868D01*
X86927401Y-45020253D01*
X86909223Y-45003777D01*
X86892747Y-44985599D01*
X86878132Y-44965893D01*
X86865520Y-44944850D01*
X86855030Y-44922671D01*
X86846765Y-44899572D01*
X86840804Y-44875773D01*
X86837204Y-44851505D01*
X86836000Y-44827001D01*
X86836000Y-43076999D01*
X86837204Y-43052495D01*
X86840804Y-43028227D01*
X86846765Y-43004428D01*
X86855030Y-42981329D01*
X86865520Y-42959150D01*
X86878132Y-42938107D01*
X86892747Y-42918401D01*
X86909223Y-42900223D01*
X86927401Y-42883747D01*
X86947107Y-42869132D01*
X86968150Y-42856520D01*
X86990329Y-42846030D01*
X87013428Y-42837765D01*
X87037227Y-42831804D01*
X87061495Y-42828204D01*
X87085999Y-42827000D01*
X88936001Y-42827000D01*
X88960505Y-42828204D01*
X88960505Y-42828204D01*
G37*
D14*
X88011000Y-43952000D03*
D13*
G36*
X88960505Y-37728204D02*
G01*
X88984773Y-37731804D01*
X89008572Y-37737765D01*
X89031671Y-37746030D01*
X89053850Y-37756520D01*
X89074893Y-37769132D01*
X89094599Y-37783747D01*
X89112777Y-37800223D01*
X89129253Y-37818401D01*
X89143868Y-37838107D01*
X89156480Y-37859150D01*
X89166970Y-37881329D01*
X89175235Y-37904428D01*
X89181196Y-37928227D01*
X89184796Y-37952495D01*
X89186000Y-37976999D01*
X89186000Y-39727001D01*
X89184796Y-39751505D01*
X89181196Y-39775773D01*
X89175235Y-39799572D01*
X89166970Y-39822671D01*
X89156480Y-39844850D01*
X89143868Y-39865893D01*
X89129253Y-39885599D01*
X89112777Y-39903777D01*
X89094599Y-39920253D01*
X89074893Y-39934868D01*
X89053850Y-39947480D01*
X89031671Y-39957970D01*
X89008572Y-39966235D01*
X88984773Y-39972196D01*
X88960505Y-39975796D01*
X88936001Y-39977000D01*
X87085999Y-39977000D01*
X87061495Y-39975796D01*
X87037227Y-39972196D01*
X87013428Y-39966235D01*
X86990329Y-39957970D01*
X86968150Y-39947480D01*
X86947107Y-39934868D01*
X86927401Y-39920253D01*
X86909223Y-39903777D01*
X86892747Y-39885599D01*
X86878132Y-39865893D01*
X86865520Y-39844850D01*
X86855030Y-39822671D01*
X86846765Y-39799572D01*
X86840804Y-39775773D01*
X86837204Y-39751505D01*
X86836000Y-39727001D01*
X86836000Y-37976999D01*
X86837204Y-37952495D01*
X86840804Y-37928227D01*
X86846765Y-37904428D01*
X86855030Y-37881329D01*
X86865520Y-37859150D01*
X86878132Y-37838107D01*
X86892747Y-37818401D01*
X86909223Y-37800223D01*
X86927401Y-37783747D01*
X86947107Y-37769132D01*
X86968150Y-37756520D01*
X86990329Y-37746030D01*
X87013428Y-37737765D01*
X87037227Y-37731804D01*
X87061495Y-37728204D01*
X87085999Y-37727000D01*
X88936001Y-37727000D01*
X88960505Y-37728204D01*
X88960505Y-37728204D01*
G37*
D14*
X88011000Y-38852000D03*
%TD*%
D15*
%TO.C,P2*%
X78613000Y-43815000D03*
D16*
X81153000Y-43815000D03*
%TD*%
D13*
%TO.C,F1*%
G36*
X81627505Y-47645204D02*
G01*
X81651773Y-47648804D01*
X81675572Y-47654765D01*
X81698671Y-47663030D01*
X81720850Y-47673520D01*
X81741893Y-47686132D01*
X81761599Y-47700747D01*
X81779777Y-47717223D01*
X81796253Y-47735401D01*
X81810868Y-47755107D01*
X81823480Y-47776150D01*
X81833970Y-47798329D01*
X81842235Y-47821428D01*
X81848196Y-47845227D01*
X81851796Y-47869495D01*
X81853000Y-47893999D01*
X81853000Y-48594001D01*
X81851796Y-48618505D01*
X81848196Y-48642773D01*
X81842235Y-48666572D01*
X81833970Y-48689671D01*
X81823480Y-48711850D01*
X81810868Y-48732893D01*
X81796253Y-48752599D01*
X81779777Y-48770777D01*
X81761599Y-48787253D01*
X81741893Y-48801868D01*
X81720850Y-48814480D01*
X81698671Y-48824970D01*
X81675572Y-48833235D01*
X81651773Y-48839196D01*
X81627505Y-48842796D01*
X81603001Y-48844000D01*
X80702999Y-48844000D01*
X80678495Y-48842796D01*
X80654227Y-48839196D01*
X80630428Y-48833235D01*
X80607329Y-48824970D01*
X80585150Y-48814480D01*
X80564107Y-48801868D01*
X80544401Y-48787253D01*
X80526223Y-48770777D01*
X80509747Y-48752599D01*
X80495132Y-48732893D01*
X80482520Y-48711850D01*
X80472030Y-48689671D01*
X80463765Y-48666572D01*
X80457804Y-48642773D01*
X80454204Y-48618505D01*
X80453000Y-48594001D01*
X80453000Y-47893999D01*
X80454204Y-47869495D01*
X80457804Y-47845227D01*
X80463765Y-47821428D01*
X80472030Y-47798329D01*
X80482520Y-47776150D01*
X80495132Y-47755107D01*
X80509747Y-47735401D01*
X80526223Y-47717223D01*
X80544401Y-47700747D01*
X80564107Y-47686132D01*
X80585150Y-47673520D01*
X80607329Y-47663030D01*
X80630428Y-47654765D01*
X80654227Y-47648804D01*
X80678495Y-47645204D01*
X80702999Y-47644000D01*
X81603001Y-47644000D01*
X81627505Y-47645204D01*
X81627505Y-47645204D01*
G37*
D17*
X81153000Y-48244000D03*
D13*
G36*
X81627505Y-45645204D02*
G01*
X81651773Y-45648804D01*
X81675572Y-45654765D01*
X81698671Y-45663030D01*
X81720850Y-45673520D01*
X81741893Y-45686132D01*
X81761599Y-45700747D01*
X81779777Y-45717223D01*
X81796253Y-45735401D01*
X81810868Y-45755107D01*
X81823480Y-45776150D01*
X81833970Y-45798329D01*
X81842235Y-45821428D01*
X81848196Y-45845227D01*
X81851796Y-45869495D01*
X81853000Y-45893999D01*
X81853000Y-46594001D01*
X81851796Y-46618505D01*
X81848196Y-46642773D01*
X81842235Y-46666572D01*
X81833970Y-46689671D01*
X81823480Y-46711850D01*
X81810868Y-46732893D01*
X81796253Y-46752599D01*
X81779777Y-46770777D01*
X81761599Y-46787253D01*
X81741893Y-46801868D01*
X81720850Y-46814480D01*
X81698671Y-46824970D01*
X81675572Y-46833235D01*
X81651773Y-46839196D01*
X81627505Y-46842796D01*
X81603001Y-46844000D01*
X80702999Y-46844000D01*
X80678495Y-46842796D01*
X80654227Y-46839196D01*
X80630428Y-46833235D01*
X80607329Y-46824970D01*
X80585150Y-46814480D01*
X80564107Y-46801868D01*
X80544401Y-46787253D01*
X80526223Y-46770777D01*
X80509747Y-46752599D01*
X80495132Y-46732893D01*
X80482520Y-46711850D01*
X80472030Y-46689671D01*
X80463765Y-46666572D01*
X80457804Y-46642773D01*
X80454204Y-46618505D01*
X80453000Y-46594001D01*
X80453000Y-45893999D01*
X80454204Y-45869495D01*
X80457804Y-45845227D01*
X80463765Y-45821428D01*
X80472030Y-45798329D01*
X80482520Y-45776150D01*
X80495132Y-45755107D01*
X80509747Y-45735401D01*
X80526223Y-45717223D01*
X80544401Y-45700747D01*
X80564107Y-45686132D01*
X80585150Y-45673520D01*
X80607329Y-45663030D01*
X80630428Y-45654765D01*
X80654227Y-45648804D01*
X80678495Y-45645204D01*
X80702999Y-45644000D01*
X81603001Y-45644000D01*
X81627505Y-45645204D01*
X81627505Y-45645204D01*
G37*
D17*
X81153000Y-46244000D03*
%TD*%
D12*
%TO.C,D1*%
X98679000Y-30000000D03*
D11*
X101219000Y-30000000D03*
%TD*%
%TO.C,D2*%
X99822000Y-35941000D03*
D12*
X99822000Y-33401000D03*
%TD*%
D11*
%TO.C,D3*%
X98806000Y-39200000D03*
D12*
X101346000Y-39200000D03*
%TD*%
%TO.C,D4*%
X101346000Y-43800000D03*
D11*
X98806000Y-43800000D03*
%TD*%
D12*
%TO.C,D6*%
X101346000Y-53000000D03*
D11*
X98806000Y-53000000D03*
%TD*%
%TO.C,D7*%
X98806000Y-57658000D03*
D12*
X101346000Y-57658000D03*
%TD*%
%TO.C,D8*%
X101346000Y-62103000D03*
D11*
X98806000Y-62103000D03*
%TD*%
D12*
%TO.C,D9*%
X101346000Y-66900000D03*
D11*
X98806000Y-66900000D03*
%TD*%
%TO.C,D10*%
X98806000Y-71500000D03*
D12*
X101346000Y-71500000D03*
%TD*%
D11*
%TO.C,D11*%
X98806000Y-76100000D03*
D12*
X101346000Y-76100000D03*
%TD*%
%TO.C,D12*%
X101346000Y-80800000D03*
D11*
X98806000Y-80800000D03*
%TD*%
%TO.C,D13*%
X98933000Y-85400000D03*
D12*
X101473000Y-85400000D03*
%TD*%
%TO.C,D14*%
X101473000Y-89662000D03*
D11*
X98933000Y-89662000D03*
%TD*%
%TO.C,D15*%
X96774000Y-84201000D03*
D12*
X96774000Y-86741000D03*
%TD*%
%TO.C,D16*%
X96139000Y-80600000D03*
D11*
X93599000Y-80600000D03*
%TD*%
%TO.C,D17*%
X91186000Y-75800000D03*
D12*
X93726000Y-75800000D03*
%TD*%
%TO.C,D18*%
X91059000Y-71100000D03*
D11*
X88519000Y-71100000D03*
%TD*%
D12*
%TO.C,D19*%
X88392000Y-66400000D03*
D11*
X85852000Y-66400000D03*
%TD*%
D12*
%TO.C,D20*%
X85979000Y-61595000D03*
D11*
X83439000Y-61595000D03*
%TD*%
%TO.C,D21*%
X81026000Y-56900000D03*
D12*
X83566000Y-56900000D03*
%TD*%
D11*
%TO.C,D22*%
X86868000Y-57900000D03*
D12*
X89408000Y-57900000D03*
%TD*%
%TO.C,D23*%
X95504000Y-59000000D03*
D11*
X92964000Y-59000000D03*
%TD*%
%TO.C,D24*%
X104521000Y-60960000D03*
D12*
X107061000Y-60960000D03*
%TD*%
%TO.C,D26*%
X118999000Y-63100000D03*
D11*
X116459000Y-63100000D03*
%TD*%
D12*
%TO.C,D27*%
X116840000Y-58400000D03*
D11*
X114300000Y-58400000D03*
%TD*%
%TO.C,D28*%
X111506000Y-53594000D03*
D12*
X114046000Y-53594000D03*
%TD*%
%TO.C,D29*%
X111506000Y-48895000D03*
D11*
X108966000Y-48895000D03*
%TD*%
%TO.C,D30*%
X106426000Y-44196000D03*
D12*
X108966000Y-44196000D03*
%TD*%
%TO.C,D31*%
X106299000Y-39497000D03*
D11*
X103759000Y-39497000D03*
%TD*%
%TO.C,D32*%
X102870000Y-35941000D03*
D12*
X102870000Y-33401000D03*
%TD*%
D13*
%TO.C,R1*%
G36*
X108273504Y-88211204D02*
G01*
X108297773Y-88214804D01*
X108321571Y-88220765D01*
X108344671Y-88229030D01*
X108366849Y-88239520D01*
X108387893Y-88252133D01*
X108407598Y-88266747D01*
X108425777Y-88283223D01*
X108442253Y-88301402D01*
X108456867Y-88321107D01*
X108469480Y-88342151D01*
X108479970Y-88364329D01*
X108488235Y-88387429D01*
X108494196Y-88411227D01*
X108497796Y-88435496D01*
X108499000Y-88460000D01*
X108499000Y-90610000D01*
X108497796Y-90634504D01*
X108494196Y-90658773D01*
X108488235Y-90682571D01*
X108479970Y-90705671D01*
X108469480Y-90727849D01*
X108456867Y-90748893D01*
X108442253Y-90768598D01*
X108425777Y-90786777D01*
X108407598Y-90803253D01*
X108387893Y-90817867D01*
X108366849Y-90830480D01*
X108344671Y-90840970D01*
X108321571Y-90849235D01*
X108297773Y-90855196D01*
X108273504Y-90858796D01*
X108249000Y-90860000D01*
X107449000Y-90860000D01*
X107424496Y-90858796D01*
X107400227Y-90855196D01*
X107376429Y-90849235D01*
X107353329Y-90840970D01*
X107331151Y-90830480D01*
X107310107Y-90817867D01*
X107290402Y-90803253D01*
X107272223Y-90786777D01*
X107255747Y-90768598D01*
X107241133Y-90748893D01*
X107228520Y-90727849D01*
X107218030Y-90705671D01*
X107209765Y-90682571D01*
X107203804Y-90658773D01*
X107200204Y-90634504D01*
X107199000Y-90610000D01*
X107199000Y-88460000D01*
X107200204Y-88435496D01*
X107203804Y-88411227D01*
X107209765Y-88387429D01*
X107218030Y-88364329D01*
X107228520Y-88342151D01*
X107241133Y-88321107D01*
X107255747Y-88301402D01*
X107272223Y-88283223D01*
X107290402Y-88266747D01*
X107310107Y-88252133D01*
X107331151Y-88239520D01*
X107353329Y-88229030D01*
X107376429Y-88220765D01*
X107400227Y-88214804D01*
X107424496Y-88211204D01*
X107449000Y-88210000D01*
X108249000Y-88210000D01*
X108273504Y-88211204D01*
X108273504Y-88211204D01*
G37*
D18*
X107849000Y-89535000D03*
D13*
G36*
X105173504Y-88211204D02*
G01*
X105197773Y-88214804D01*
X105221571Y-88220765D01*
X105244671Y-88229030D01*
X105266849Y-88239520D01*
X105287893Y-88252133D01*
X105307598Y-88266747D01*
X105325777Y-88283223D01*
X105342253Y-88301402D01*
X105356867Y-88321107D01*
X105369480Y-88342151D01*
X105379970Y-88364329D01*
X105388235Y-88387429D01*
X105394196Y-88411227D01*
X105397796Y-88435496D01*
X105399000Y-88460000D01*
X105399000Y-90610000D01*
X105397796Y-90634504D01*
X105394196Y-90658773D01*
X105388235Y-90682571D01*
X105379970Y-90705671D01*
X105369480Y-90727849D01*
X105356867Y-90748893D01*
X105342253Y-90768598D01*
X105325777Y-90786777D01*
X105307598Y-90803253D01*
X105287893Y-90817867D01*
X105266849Y-90830480D01*
X105244671Y-90840970D01*
X105221571Y-90849235D01*
X105197773Y-90855196D01*
X105173504Y-90858796D01*
X105149000Y-90860000D01*
X104349000Y-90860000D01*
X104324496Y-90858796D01*
X104300227Y-90855196D01*
X104276429Y-90849235D01*
X104253329Y-90840970D01*
X104231151Y-90830480D01*
X104210107Y-90817867D01*
X104190402Y-90803253D01*
X104172223Y-90786777D01*
X104155747Y-90768598D01*
X104141133Y-90748893D01*
X104128520Y-90727849D01*
X104118030Y-90705671D01*
X104109765Y-90682571D01*
X104103804Y-90658773D01*
X104100204Y-90634504D01*
X104099000Y-90610000D01*
X104099000Y-88460000D01*
X104100204Y-88435496D01*
X104103804Y-88411227D01*
X104109765Y-88387429D01*
X104118030Y-88364329D01*
X104128520Y-88342151D01*
X104141133Y-88321107D01*
X104155747Y-88301402D01*
X104172223Y-88283223D01*
X104190402Y-88266747D01*
X104210107Y-88252133D01*
X104231151Y-88239520D01*
X104253329Y-88229030D01*
X104276429Y-88220765D01*
X104300227Y-88214804D01*
X104324496Y-88211204D01*
X104349000Y-88210000D01*
X105149000Y-88210000D01*
X105173504Y-88211204D01*
X105173504Y-88211204D01*
G37*
D18*
X104749000Y-89535000D03*
%TD*%
D13*
%TO.C,R2*%
G36*
X103942304Y-83641704D02*
G01*
X103966573Y-83645304D01*
X103990371Y-83651265D01*
X104013471Y-83659530D01*
X104035649Y-83670020D01*
X104056693Y-83682633D01*
X104076398Y-83697247D01*
X104094577Y-83713723D01*
X104111053Y-83731902D01*
X104125667Y-83751607D01*
X104138280Y-83772651D01*
X104148770Y-83794829D01*
X104157035Y-83817929D01*
X104162996Y-83841727D01*
X104166596Y-83865996D01*
X104167800Y-83890500D01*
X104167800Y-86040500D01*
X104166596Y-86065004D01*
X104162996Y-86089273D01*
X104157035Y-86113071D01*
X104148770Y-86136171D01*
X104138280Y-86158349D01*
X104125667Y-86179393D01*
X104111053Y-86199098D01*
X104094577Y-86217277D01*
X104076398Y-86233753D01*
X104056693Y-86248367D01*
X104035649Y-86260980D01*
X104013471Y-86271470D01*
X103990371Y-86279735D01*
X103966573Y-86285696D01*
X103942304Y-86289296D01*
X103917800Y-86290500D01*
X103117800Y-86290500D01*
X103093296Y-86289296D01*
X103069027Y-86285696D01*
X103045229Y-86279735D01*
X103022129Y-86271470D01*
X102999951Y-86260980D01*
X102978907Y-86248367D01*
X102959202Y-86233753D01*
X102941023Y-86217277D01*
X102924547Y-86199098D01*
X102909933Y-86179393D01*
X102897320Y-86158349D01*
X102886830Y-86136171D01*
X102878565Y-86113071D01*
X102872604Y-86089273D01*
X102869004Y-86065004D01*
X102867800Y-86040500D01*
X102867800Y-83890500D01*
X102869004Y-83865996D01*
X102872604Y-83841727D01*
X102878565Y-83817929D01*
X102886830Y-83794829D01*
X102897320Y-83772651D01*
X102909933Y-83751607D01*
X102924547Y-83731902D01*
X102941023Y-83713723D01*
X102959202Y-83697247D01*
X102978907Y-83682633D01*
X102999951Y-83670020D01*
X103022129Y-83659530D01*
X103045229Y-83651265D01*
X103069027Y-83645304D01*
X103093296Y-83641704D01*
X103117800Y-83640500D01*
X103917800Y-83640500D01*
X103942304Y-83641704D01*
X103942304Y-83641704D01*
G37*
D18*
X103517800Y-84965500D03*
D13*
G36*
X107042304Y-83641704D02*
G01*
X107066573Y-83645304D01*
X107090371Y-83651265D01*
X107113471Y-83659530D01*
X107135649Y-83670020D01*
X107156693Y-83682633D01*
X107176398Y-83697247D01*
X107194577Y-83713723D01*
X107211053Y-83731902D01*
X107225667Y-83751607D01*
X107238280Y-83772651D01*
X107248770Y-83794829D01*
X107257035Y-83817929D01*
X107262996Y-83841727D01*
X107266596Y-83865996D01*
X107267800Y-83890500D01*
X107267800Y-86040500D01*
X107266596Y-86065004D01*
X107262996Y-86089273D01*
X107257035Y-86113071D01*
X107248770Y-86136171D01*
X107238280Y-86158349D01*
X107225667Y-86179393D01*
X107211053Y-86199098D01*
X107194577Y-86217277D01*
X107176398Y-86233753D01*
X107156693Y-86248367D01*
X107135649Y-86260980D01*
X107113471Y-86271470D01*
X107090371Y-86279735D01*
X107066573Y-86285696D01*
X107042304Y-86289296D01*
X107017800Y-86290500D01*
X106217800Y-86290500D01*
X106193296Y-86289296D01*
X106169027Y-86285696D01*
X106145229Y-86279735D01*
X106122129Y-86271470D01*
X106099951Y-86260980D01*
X106078907Y-86248367D01*
X106059202Y-86233753D01*
X106041023Y-86217277D01*
X106024547Y-86199098D01*
X106009933Y-86179393D01*
X105997320Y-86158349D01*
X105986830Y-86136171D01*
X105978565Y-86113071D01*
X105972604Y-86089273D01*
X105969004Y-86065004D01*
X105967800Y-86040500D01*
X105967800Y-83890500D01*
X105969004Y-83865996D01*
X105972604Y-83841727D01*
X105978565Y-83817929D01*
X105986830Y-83794829D01*
X105997320Y-83772651D01*
X106009933Y-83751607D01*
X106024547Y-83731902D01*
X106041023Y-83713723D01*
X106059202Y-83697247D01*
X106078907Y-83682633D01*
X106099951Y-83670020D01*
X106122129Y-83659530D01*
X106145229Y-83651265D01*
X106169027Y-83645304D01*
X106193296Y-83641704D01*
X106217800Y-83640500D01*
X107017800Y-83640500D01*
X107042304Y-83641704D01*
X107042304Y-83641704D01*
G37*
D18*
X106617800Y-84965500D03*
%TD*%
D13*
%TO.C,R3*%
G36*
X106186604Y-66433204D02*
G01*
X106210873Y-66436804D01*
X106234671Y-66442765D01*
X106257771Y-66451030D01*
X106279949Y-66461520D01*
X106300993Y-66474133D01*
X106320698Y-66488747D01*
X106338877Y-66505223D01*
X106355353Y-66523402D01*
X106369967Y-66543107D01*
X106382580Y-66564151D01*
X106393070Y-66586329D01*
X106401335Y-66609429D01*
X106407296Y-66633227D01*
X106410896Y-66657496D01*
X106412100Y-66682000D01*
X106412100Y-67482000D01*
X106410896Y-67506504D01*
X106407296Y-67530773D01*
X106401335Y-67554571D01*
X106393070Y-67577671D01*
X106382580Y-67599849D01*
X106369967Y-67620893D01*
X106355353Y-67640598D01*
X106338877Y-67658777D01*
X106320698Y-67675253D01*
X106300993Y-67689867D01*
X106279949Y-67702480D01*
X106257771Y-67712970D01*
X106234671Y-67721235D01*
X106210873Y-67727196D01*
X106186604Y-67730796D01*
X106162100Y-67732000D01*
X104012100Y-67732000D01*
X103987596Y-67730796D01*
X103963327Y-67727196D01*
X103939529Y-67721235D01*
X103916429Y-67712970D01*
X103894251Y-67702480D01*
X103873207Y-67689867D01*
X103853502Y-67675253D01*
X103835323Y-67658777D01*
X103818847Y-67640598D01*
X103804233Y-67620893D01*
X103791620Y-67599849D01*
X103781130Y-67577671D01*
X103772865Y-67554571D01*
X103766904Y-67530773D01*
X103763304Y-67506504D01*
X103762100Y-67482000D01*
X103762100Y-66682000D01*
X103763304Y-66657496D01*
X103766904Y-66633227D01*
X103772865Y-66609429D01*
X103781130Y-66586329D01*
X103791620Y-66564151D01*
X103804233Y-66543107D01*
X103818847Y-66523402D01*
X103835323Y-66505223D01*
X103853502Y-66488747D01*
X103873207Y-66474133D01*
X103894251Y-66461520D01*
X103916429Y-66451030D01*
X103939529Y-66442765D01*
X103963327Y-66436804D01*
X103987596Y-66433204D01*
X104012100Y-66432000D01*
X106162100Y-66432000D01*
X106186604Y-66433204D01*
X106186604Y-66433204D01*
G37*
D18*
X105087100Y-67082000D03*
D13*
G36*
X106186604Y-63333204D02*
G01*
X106210873Y-63336804D01*
X106234671Y-63342765D01*
X106257771Y-63351030D01*
X106279949Y-63361520D01*
X106300993Y-63374133D01*
X106320698Y-63388747D01*
X106338877Y-63405223D01*
X106355353Y-63423402D01*
X106369967Y-63443107D01*
X106382580Y-63464151D01*
X106393070Y-63486329D01*
X106401335Y-63509429D01*
X106407296Y-63533227D01*
X106410896Y-63557496D01*
X106412100Y-63582000D01*
X106412100Y-64382000D01*
X106410896Y-64406504D01*
X106407296Y-64430773D01*
X106401335Y-64454571D01*
X106393070Y-64477671D01*
X106382580Y-64499849D01*
X106369967Y-64520893D01*
X106355353Y-64540598D01*
X106338877Y-64558777D01*
X106320698Y-64575253D01*
X106300993Y-64589867D01*
X106279949Y-64602480D01*
X106257771Y-64612970D01*
X106234671Y-64621235D01*
X106210873Y-64627196D01*
X106186604Y-64630796D01*
X106162100Y-64632000D01*
X104012100Y-64632000D01*
X103987596Y-64630796D01*
X103963327Y-64627196D01*
X103939529Y-64621235D01*
X103916429Y-64612970D01*
X103894251Y-64602480D01*
X103873207Y-64589867D01*
X103853502Y-64575253D01*
X103835323Y-64558777D01*
X103818847Y-64540598D01*
X103804233Y-64520893D01*
X103791620Y-64499849D01*
X103781130Y-64477671D01*
X103772865Y-64454571D01*
X103766904Y-64430773D01*
X103763304Y-64406504D01*
X103762100Y-64382000D01*
X103762100Y-63582000D01*
X103763304Y-63557496D01*
X103766904Y-63533227D01*
X103772865Y-63509429D01*
X103781130Y-63486329D01*
X103791620Y-63464151D01*
X103804233Y-63443107D01*
X103818847Y-63423402D01*
X103835323Y-63405223D01*
X103853502Y-63388747D01*
X103873207Y-63374133D01*
X103894251Y-63361520D01*
X103916429Y-63351030D01*
X103939529Y-63342765D01*
X103963327Y-63336804D01*
X103987596Y-63333204D01*
X104012100Y-63332000D01*
X106162100Y-63332000D01*
X106186604Y-63333204D01*
X106186604Y-63333204D01*
G37*
D18*
X105087100Y-63982000D03*
%TD*%
D13*
%TO.C,R4*%
G36*
X113621504Y-63544904D02*
G01*
X113645773Y-63548504D01*
X113669571Y-63554465D01*
X113692671Y-63562730D01*
X113714849Y-63573220D01*
X113735893Y-63585833D01*
X113755598Y-63600447D01*
X113773777Y-63616923D01*
X113790253Y-63635102D01*
X113804867Y-63654807D01*
X113817480Y-63675851D01*
X113827970Y-63698029D01*
X113836235Y-63721129D01*
X113842196Y-63744927D01*
X113845796Y-63769196D01*
X113847000Y-63793700D01*
X113847000Y-64593700D01*
X113845796Y-64618204D01*
X113842196Y-64642473D01*
X113836235Y-64666271D01*
X113827970Y-64689371D01*
X113817480Y-64711549D01*
X113804867Y-64732593D01*
X113790253Y-64752298D01*
X113773777Y-64770477D01*
X113755598Y-64786953D01*
X113735893Y-64801567D01*
X113714849Y-64814180D01*
X113692671Y-64824670D01*
X113669571Y-64832935D01*
X113645773Y-64838896D01*
X113621504Y-64842496D01*
X113597000Y-64843700D01*
X111447000Y-64843700D01*
X111422496Y-64842496D01*
X111398227Y-64838896D01*
X111374429Y-64832935D01*
X111351329Y-64824670D01*
X111329151Y-64814180D01*
X111308107Y-64801567D01*
X111288402Y-64786953D01*
X111270223Y-64770477D01*
X111253747Y-64752298D01*
X111239133Y-64732593D01*
X111226520Y-64711549D01*
X111216030Y-64689371D01*
X111207765Y-64666271D01*
X111201804Y-64642473D01*
X111198204Y-64618204D01*
X111197000Y-64593700D01*
X111197000Y-63793700D01*
X111198204Y-63769196D01*
X111201804Y-63744927D01*
X111207765Y-63721129D01*
X111216030Y-63698029D01*
X111226520Y-63675851D01*
X111239133Y-63654807D01*
X111253747Y-63635102D01*
X111270223Y-63616923D01*
X111288402Y-63600447D01*
X111308107Y-63585833D01*
X111329151Y-63573220D01*
X111351329Y-63562730D01*
X111374429Y-63554465D01*
X111398227Y-63548504D01*
X111422496Y-63544904D01*
X111447000Y-63543700D01*
X113597000Y-63543700D01*
X113621504Y-63544904D01*
X113621504Y-63544904D01*
G37*
D18*
X112522000Y-64193700D03*
D13*
G36*
X113621504Y-66644904D02*
G01*
X113645773Y-66648504D01*
X113669571Y-66654465D01*
X113692671Y-66662730D01*
X113714849Y-66673220D01*
X113735893Y-66685833D01*
X113755598Y-66700447D01*
X113773777Y-66716923D01*
X113790253Y-66735102D01*
X113804867Y-66754807D01*
X113817480Y-66775851D01*
X113827970Y-66798029D01*
X113836235Y-66821129D01*
X113842196Y-66844927D01*
X113845796Y-66869196D01*
X113847000Y-66893700D01*
X113847000Y-67693700D01*
X113845796Y-67718204D01*
X113842196Y-67742473D01*
X113836235Y-67766271D01*
X113827970Y-67789371D01*
X113817480Y-67811549D01*
X113804867Y-67832593D01*
X113790253Y-67852298D01*
X113773777Y-67870477D01*
X113755598Y-67886953D01*
X113735893Y-67901567D01*
X113714849Y-67914180D01*
X113692671Y-67924670D01*
X113669571Y-67932935D01*
X113645773Y-67938896D01*
X113621504Y-67942496D01*
X113597000Y-67943700D01*
X111447000Y-67943700D01*
X111422496Y-67942496D01*
X111398227Y-67938896D01*
X111374429Y-67932935D01*
X111351329Y-67924670D01*
X111329151Y-67914180D01*
X111308107Y-67901567D01*
X111288402Y-67886953D01*
X111270223Y-67870477D01*
X111253747Y-67852298D01*
X111239133Y-67832593D01*
X111226520Y-67811549D01*
X111216030Y-67789371D01*
X111207765Y-67766271D01*
X111201804Y-67742473D01*
X111198204Y-67718204D01*
X111197000Y-67693700D01*
X111197000Y-66893700D01*
X111198204Y-66869196D01*
X111201804Y-66844927D01*
X111207765Y-66821129D01*
X111216030Y-66798029D01*
X111226520Y-66775851D01*
X111239133Y-66754807D01*
X111253747Y-66735102D01*
X111270223Y-66716923D01*
X111288402Y-66700447D01*
X111308107Y-66685833D01*
X111329151Y-66673220D01*
X111351329Y-66662730D01*
X111374429Y-66654465D01*
X111398227Y-66648504D01*
X111422496Y-66644904D01*
X111447000Y-66643700D01*
X113597000Y-66643700D01*
X113621504Y-66644904D01*
X113621504Y-66644904D01*
G37*
D18*
X112522000Y-67293700D03*
%TD*%
D15*
%TO.C,P3*%
X88392000Y-34417000D03*
D16*
X90932000Y-34417000D03*
%TD*%
D19*
%TO.C,P1*%
X123317000Y-74168000D03*
X123317000Y-76708000D03*
X123317000Y-79248000D03*
X123317000Y-81788000D03*
X123317000Y-84328000D03*
X123317000Y-86868000D03*
%TD*%
D20*
%TO.C,IC1*%
X109806000Y-86868000D03*
X109806000Y-85598000D03*
X109806000Y-84328000D03*
X109806000Y-83058000D03*
X109806000Y-81788000D03*
X109806000Y-80518000D03*
X109806000Y-79248000D03*
X109806000Y-77978000D03*
X109806000Y-76708000D03*
X109806000Y-75438000D03*
X119556000Y-75438000D03*
X119556000Y-76708000D03*
X119556000Y-77978000D03*
X119556000Y-79248000D03*
X119556000Y-86868000D03*
X119556000Y-85598000D03*
X119556000Y-84328000D03*
X119556000Y-83058000D03*
X119556000Y-81788000D03*
X119556000Y-80518000D03*
%TD*%
M02*
