%TF.GenerationSoftware,KiCad,Pcbnew,(5.1.4)-1*%
%TF.CreationDate,2020-11-17T11:02:07+02:00*%
%TF.ProjectId,possu2,706f7373-7532-42e6-9b69-6361645f7063,rev?*%
%TF.SameCoordinates,Original*%
%TF.FileFunction,Copper,L2,Bot*%
%TF.FilePolarity,Positive*%
%FSLAX46Y46*%
G04 Gerber Fmt 4.6, Leading zero omitted, Abs format (unit mm)*
G04 Created by KiCad (PCBNEW (5.1.4)-1) date 2020-11-17 11:02:07*
%MOMM*%
%LPD*%
G04 APERTURE LIST*
%TA.AperFunction,ComponentPad*%
%ADD10R,1.800000X1.800000*%
%TD*%
%TA.AperFunction,ComponentPad*%
%ADD11C,1.800000*%
%TD*%
%TA.AperFunction,ComponentPad*%
%ADD12R,1.700000X1.700000*%
%TD*%
%TA.AperFunction,ComponentPad*%
%ADD13O,1.700000X1.700000*%
%TD*%
%TA.AperFunction,ViaPad*%
%ADD14C,1.400000*%
%TD*%
%TA.AperFunction,Conductor*%
%ADD15C,0.400000*%
%TD*%
%TA.AperFunction,Conductor*%
%ADD16C,0.254000*%
%TD*%
G04 APERTURE END LIST*
D10*
%TO.P,D5,1*%
%TO.N,Net-(D13-Pad1)*%
X98806000Y-48400000D03*
D11*
%TO.P,D5,2*%
%TO.N,Net-(D1-Pad2)*%
X101346000Y-48400000D03*
%TD*%
D10*
%TO.P,D25,1*%
%TO.N,Net-(D1-Pad1)*%
X110490000Y-62100000D03*
D11*
%TO.P,D25,2*%
%TO.N,Net-(D25-Pad2)*%
X113030000Y-62100000D03*
%TD*%
D12*
%TO.P,P2,1*%
%TO.N,GND*%
X78613000Y-43815000D03*
D13*
%TO.P,P2,2*%
%TO.N,Net-(F1-Pad2)*%
X81153000Y-43815000D03*
%TD*%
D11*
%TO.P,D1,2*%
%TO.N,Net-(D1-Pad2)*%
X98679000Y-30000000D03*
D10*
%TO.P,D1,1*%
%TO.N,Net-(D1-Pad1)*%
X101219000Y-30000000D03*
%TD*%
%TO.P,D2,1*%
%TO.N,Net-(D10-Pad1)*%
X99822000Y-35941000D03*
D11*
%TO.P,D2,2*%
%TO.N,Net-(D1-Pad2)*%
X99822000Y-33401000D03*
%TD*%
D10*
%TO.P,D3,1*%
%TO.N,Net-(D11-Pad1)*%
X98806000Y-39200000D03*
D11*
%TO.P,D3,2*%
%TO.N,Net-(D1-Pad2)*%
X101346000Y-39200000D03*
%TD*%
%TO.P,D4,2*%
%TO.N,Net-(D1-Pad2)*%
X101346000Y-43800000D03*
D10*
%TO.P,D4,1*%
%TO.N,Net-(D12-Pad1)*%
X98806000Y-43800000D03*
%TD*%
D11*
%TO.P,D6,2*%
%TO.N,Net-(D1-Pad2)*%
X101346000Y-53000000D03*
D10*
%TO.P,D6,1*%
%TO.N,Net-(D14-Pad1)*%
X98806000Y-53000000D03*
%TD*%
%TO.P,D7,1*%
%TO.N,Net-(D15-Pad1)*%
X98806000Y-57658000D03*
D11*
%TO.P,D7,2*%
%TO.N,Net-(D1-Pad2)*%
X101346000Y-57658000D03*
%TD*%
%TO.P,D8,2*%
%TO.N,Net-(D1-Pad2)*%
X101346000Y-62103000D03*
D10*
%TO.P,D8,1*%
%TO.N,Net-(D16-Pad1)*%
X98806000Y-62103000D03*
%TD*%
D11*
%TO.P,D9,2*%
%TO.N,Net-(D10-Pad2)*%
X101346000Y-66900000D03*
D10*
%TO.P,D9,1*%
%TO.N,Net-(D1-Pad1)*%
X98806000Y-66900000D03*
%TD*%
%TO.P,D10,1*%
%TO.N,Net-(D10-Pad1)*%
X98806000Y-71500000D03*
D11*
%TO.P,D10,2*%
%TO.N,Net-(D10-Pad2)*%
X101346000Y-71500000D03*
%TD*%
D10*
%TO.P,D11,1*%
%TO.N,Net-(D11-Pad1)*%
X98806000Y-76100000D03*
D11*
%TO.P,D11,2*%
%TO.N,Net-(D10-Pad2)*%
X101346000Y-76100000D03*
%TD*%
%TO.P,D12,2*%
%TO.N,Net-(D10-Pad2)*%
X101346000Y-80800000D03*
D10*
%TO.P,D12,1*%
%TO.N,Net-(D12-Pad1)*%
X98806000Y-80800000D03*
%TD*%
%TO.P,D13,1*%
%TO.N,Net-(D13-Pad1)*%
X98933000Y-85400000D03*
D11*
%TO.P,D13,2*%
%TO.N,Net-(D10-Pad2)*%
X101473000Y-85400000D03*
%TD*%
%TO.P,D14,2*%
%TO.N,Net-(D10-Pad2)*%
X101473000Y-89662000D03*
D10*
%TO.P,D14,1*%
%TO.N,Net-(D14-Pad1)*%
X98933000Y-89662000D03*
%TD*%
%TO.P,D15,1*%
%TO.N,Net-(D15-Pad1)*%
X96774000Y-84201000D03*
D11*
%TO.P,D15,2*%
%TO.N,Net-(D10-Pad2)*%
X96774000Y-86741000D03*
%TD*%
%TO.P,D16,2*%
%TO.N,Net-(D10-Pad2)*%
X96139000Y-80600000D03*
D10*
%TO.P,D16,1*%
%TO.N,Net-(D16-Pad1)*%
X93599000Y-80600000D03*
%TD*%
%TO.P,D17,1*%
%TO.N,Net-(D1-Pad1)*%
X91186000Y-75800000D03*
D11*
%TO.P,D17,2*%
%TO.N,Net-(D17-Pad2)*%
X93726000Y-75800000D03*
%TD*%
%TO.P,D18,2*%
%TO.N,Net-(D17-Pad2)*%
X91059000Y-71100000D03*
D10*
%TO.P,D18,1*%
%TO.N,Net-(D10-Pad1)*%
X88519000Y-71100000D03*
%TD*%
D11*
%TO.P,D19,2*%
%TO.N,Net-(D17-Pad2)*%
X88392000Y-66400000D03*
D10*
%TO.P,D19,1*%
%TO.N,Net-(D11-Pad1)*%
X85852000Y-66400000D03*
%TD*%
D11*
%TO.P,D20,2*%
%TO.N,Net-(D17-Pad2)*%
X85979000Y-61595000D03*
D10*
%TO.P,D20,1*%
%TO.N,Net-(D12-Pad1)*%
X83439000Y-61595000D03*
%TD*%
%TO.P,D21,1*%
%TO.N,Net-(D13-Pad1)*%
X81026000Y-56900000D03*
D11*
%TO.P,D21,2*%
%TO.N,Net-(D17-Pad2)*%
X83566000Y-56900000D03*
%TD*%
D10*
%TO.P,D22,1*%
%TO.N,Net-(D14-Pad1)*%
X86868000Y-57900000D03*
D11*
%TO.P,D22,2*%
%TO.N,Net-(D17-Pad2)*%
X89408000Y-57900000D03*
%TD*%
%TO.P,D23,2*%
%TO.N,Net-(D17-Pad2)*%
X95504000Y-59000000D03*
D10*
%TO.P,D23,1*%
%TO.N,Net-(D15-Pad1)*%
X92964000Y-59000000D03*
%TD*%
%TO.P,D24,1*%
%TO.N,Net-(D16-Pad1)*%
X104521000Y-60960000D03*
D11*
%TO.P,D24,2*%
%TO.N,Net-(D17-Pad2)*%
X107061000Y-60960000D03*
%TD*%
%TO.P,D26,2*%
%TO.N,Net-(D25-Pad2)*%
X118999000Y-63100000D03*
D10*
%TO.P,D26,1*%
%TO.N,Net-(D10-Pad1)*%
X116459000Y-63100000D03*
%TD*%
D11*
%TO.P,D27,2*%
%TO.N,Net-(D25-Pad2)*%
X116840000Y-58400000D03*
D10*
%TO.P,D27,1*%
%TO.N,Net-(D11-Pad1)*%
X114300000Y-58400000D03*
%TD*%
%TO.P,D28,1*%
%TO.N,Net-(D12-Pad1)*%
X111506000Y-53594000D03*
D11*
%TO.P,D28,2*%
%TO.N,Net-(D25-Pad2)*%
X114046000Y-53594000D03*
%TD*%
%TO.P,D29,2*%
%TO.N,Net-(D25-Pad2)*%
X111506000Y-48895000D03*
D10*
%TO.P,D29,1*%
%TO.N,Net-(D13-Pad1)*%
X108966000Y-48895000D03*
%TD*%
%TO.P,D30,1*%
%TO.N,Net-(D14-Pad1)*%
X106426000Y-44196000D03*
D11*
%TO.P,D30,2*%
%TO.N,Net-(D25-Pad2)*%
X108966000Y-44196000D03*
%TD*%
%TO.P,D31,2*%
%TO.N,Net-(D25-Pad2)*%
X106299000Y-39497000D03*
D10*
%TO.P,D31,1*%
%TO.N,Net-(D15-Pad1)*%
X103759000Y-39497000D03*
%TD*%
%TO.P,D32,1*%
%TO.N,Net-(D16-Pad1)*%
X102870000Y-35941000D03*
D11*
%TO.P,D32,2*%
%TO.N,Net-(D25-Pad2)*%
X102870000Y-33401000D03*
%TD*%
D12*
%TO.P,P3,1*%
%TO.N,GND*%
X88392000Y-34417000D03*
D13*
%TO.P,P3,2*%
%TO.N,VCC*%
X90932000Y-34417000D03*
%TD*%
D14*
%TO.N,Net-(D11-Pad1)*%
X109948950Y-72448950D03*
X95900000Y-43300000D03*
%TO.N,Net-(D12-Pad1)*%
X102800000Y-73600000D03*
X108296800Y-64071900D03*
X116065000Y-65328800D03*
%TO.N,Net-(D13-Pad1)*%
X94800000Y-87200000D03*
X113500000Y-90200000D03*
X102600000Y-45700000D03*
%TO.N,Net-(D14-Pad1)*%
X115443000Y-74676000D03*
X104400000Y-80000000D03*
%TO.N,Net-(D15-Pad1)*%
X121300000Y-69600000D03*
%TO.N,Net-(D16-Pad1)*%
X116400000Y-89800000D03*
%TD*%
D15*
%TO.N,Net-(D1-Pad1)*%
X91186000Y-74520000D02*
X98806000Y-66900000D01*
X91186000Y-75800000D02*
X91186000Y-74520000D01*
%TO.N,Net-(D10-Pad1)*%
X116459000Y-62484000D02*
X116459000Y-63100000D01*
X108900000Y-60400000D02*
X114375000Y-60400000D01*
X108800000Y-60500000D02*
X108900000Y-60400000D01*
X108800000Y-61600000D02*
X108800000Y-60500000D01*
X106700000Y-65385000D02*
X106700000Y-63700000D01*
X114375000Y-60400000D02*
X116459000Y-62484000D01*
X102362000Y-69723000D02*
X106700000Y-65385000D01*
X106700000Y-63700000D02*
X108800000Y-61600000D01*
X100076000Y-69723000D02*
X102362000Y-69723000D01*
X98806000Y-70993000D02*
X100076000Y-69723000D01*
X98806000Y-71500000D02*
X98806000Y-70993000D01*
%TO.N,Net-(D11-Pad1)*%
X98806000Y-77470000D02*
X98806000Y-76100000D01*
X99436000Y-78100000D02*
X98806000Y-77470000D01*
X102224000Y-78100000D02*
X99436000Y-78100000D01*
X103624000Y-76700000D02*
X102224000Y-78100000D01*
X105697900Y-76700000D02*
X103624000Y-76700000D01*
X109948950Y-72448950D02*
X105697900Y-76700000D01*
X84200000Y-66400000D02*
X85852000Y-66400000D01*
X78870000Y-61070000D02*
X84200000Y-66400000D01*
X78870000Y-53230000D02*
X78870000Y-61070000D01*
X79500000Y-52600000D02*
X78870000Y-53230000D01*
X86600000Y-52600000D02*
X79500000Y-52600000D01*
X95900000Y-43300000D02*
X86600000Y-52600000D01*
%TO.N,Net-(D12-Pad1)*%
X109225900Y-68096800D02*
X102800000Y-73600000D01*
X109225900Y-65328800D02*
X109225900Y-68096800D01*
X116065000Y-65328800D02*
X109225900Y-65328800D01*
X108296800Y-64399700D02*
X108296800Y-64071900D01*
X109225900Y-65328800D02*
X108296800Y-64399700D01*
%TO.N,Net-(D13-Pad1)*%
X94800000Y-87200000D02*
X96400000Y-88700000D01*
X96400000Y-88700000D02*
X96400000Y-90900000D01*
X99199998Y-93699998D02*
X96400000Y-90900000D01*
X109600000Y-93699998D02*
X99199998Y-93699998D01*
X113500000Y-90200000D02*
X111550000Y-92150000D01*
X111550000Y-92150000D02*
X111500000Y-92200000D01*
X102600000Y-45700000D02*
X101800000Y-46500000D01*
X110000002Y-93699998D02*
X109600000Y-93699998D01*
X113500000Y-90200000D02*
X110000002Y-93699998D01*
X98933000Y-86700000D02*
X98933000Y-85400000D01*
X96933000Y-88700000D02*
X98933000Y-86700000D01*
X96400000Y-88700000D02*
X96933000Y-88700000D01*
X99931000Y-46500000D02*
X99423000Y-46500000D01*
X101800000Y-46500000D02*
X99931000Y-46500000D01*
X98806000Y-47117000D02*
X98806000Y-48400000D01*
X99423000Y-46500000D02*
X98806000Y-47117000D01*
%TO.N,Net-(D14-Pad1)*%
X96706000Y-55100000D02*
X98806000Y-53000000D01*
X95900000Y-55100000D02*
X96706000Y-55100000D01*
X95900000Y-55100000D02*
X88537000Y-55100000D01*
X86868000Y-56769000D02*
X86868000Y-57900000D01*
X88537000Y-55100000D02*
X86868000Y-56769000D01*
X98806000Y-53000000D02*
X98806000Y-52324000D01*
X98806000Y-52324000D02*
X100457000Y-50673000D01*
X100457000Y-50673000D02*
X102489000Y-50673000D01*
X106426000Y-46736000D02*
X106426000Y-44196000D01*
X102489000Y-50673000D02*
X106426000Y-46736000D01*
X110119000Y-80000000D02*
X115443000Y-74676000D01*
X104400000Y-80000000D02*
X110119000Y-80000000D01*
X103328500Y-78928500D02*
X104400000Y-80000000D01*
X97728500Y-78928500D02*
X103328500Y-78928500D01*
X97155000Y-78355000D02*
X97728500Y-78928500D01*
X101727000Y-68961000D02*
X98171000Y-68961000D01*
X103886000Y-66802000D02*
X101727000Y-68961000D01*
X103886000Y-65786000D02*
X103886000Y-66802000D01*
X102362000Y-64262000D02*
X103886000Y-65786000D01*
X97155000Y-69977000D02*
X97155000Y-78355000D01*
X98171000Y-68961000D02*
X97155000Y-69977000D01*
X97155000Y-64262000D02*
X102362000Y-64262000D01*
X97155000Y-55549000D02*
X97155000Y-64262000D01*
X96706000Y-55100000D02*
X97155000Y-55549000D01*
%TO.N,Net-(D15-Pad1)*%
X92800000Y-86100000D02*
X92900000Y-86100000D01*
X83500000Y-68900000D02*
X89100000Y-68900000D01*
X89100000Y-68900000D02*
X90372549Y-67627451D01*
X90372549Y-61591451D02*
X92964000Y-59000000D01*
X90372549Y-67627451D02*
X90372549Y-61591451D01*
X102156000Y-41100000D02*
X103759000Y-39497000D01*
X95933000Y-41100000D02*
X102156000Y-41100000D01*
X95933000Y-41100000D02*
X89700000Y-41100000D01*
X92900000Y-86100000D02*
X94008500Y-84991500D01*
X94799000Y-84201000D02*
X94008500Y-84991500D01*
X96774000Y-84201000D02*
X94799000Y-84201000D01*
X121300000Y-87100000D02*
X121300000Y-69600000D01*
X121300000Y-88100000D02*
X121300000Y-87100000D01*
X92900000Y-88800000D02*
X98500000Y-94400000D01*
X92900000Y-86100000D02*
X92900000Y-88800000D01*
X98500000Y-94400000D02*
X114540000Y-94400000D01*
X114540000Y-94400000D02*
X114560000Y-94380000D01*
X114560000Y-94380000D02*
X115020000Y-94380000D01*
X115020000Y-94380000D02*
X121300000Y-88100000D01*
X78065000Y-61254962D02*
X78065000Y-63465000D01*
X78065000Y-52735000D02*
X78065000Y-61254962D01*
X78065000Y-63465000D02*
X83500000Y-68900000D01*
X89700000Y-41100000D02*
X78065000Y-52735000D01*
X78065000Y-71365000D02*
X78880000Y-72180000D01*
X78065000Y-63465000D02*
X78065000Y-71365000D01*
X92800000Y-86100000D02*
X78880000Y-72180000D01*
%TO.N,Net-(D16-Pad1)*%
X117500000Y-82200000D02*
X117500000Y-88700000D01*
X116000000Y-80700000D02*
X117500000Y-82200000D01*
X117500000Y-88700000D02*
X116400000Y-89800000D01*
X106900000Y-37100000D02*
X113600000Y-43800000D01*
X113600000Y-49500000D02*
X113450000Y-49650000D01*
X113450000Y-49650000D02*
X111700000Y-51400000D01*
X111700000Y-51400000D02*
X110500000Y-51400000D01*
X110500000Y-51400000D02*
X104400000Y-57500000D01*
X104400000Y-60839000D02*
X104521000Y-60960000D01*
X104400000Y-57500000D02*
X104400000Y-60839000D01*
X104029000Y-37100000D02*
X102870000Y-35941000D01*
X106900000Y-37100000D02*
X104029000Y-37100000D01*
X114000000Y-82700000D02*
X116000000Y-80700000D01*
X94765000Y-82700000D02*
X114000000Y-82700000D01*
X93599000Y-81534000D02*
X94765000Y-82700000D01*
X93599000Y-80600000D02*
X93599000Y-81534000D01*
X121300000Y-54498000D02*
X121300000Y-58054000D01*
X115951000Y-49149000D02*
X121300000Y-54498000D01*
X121300000Y-58054000D02*
X121300000Y-57500000D01*
X115951000Y-49131000D02*
X113600000Y-46780000D01*
X115951000Y-49149000D02*
X115951000Y-49131000D01*
X113600000Y-43800000D02*
X113600000Y-46780000D01*
X113600000Y-46780000D02*
X113600000Y-49500000D01*
X121300000Y-64200000D02*
X121300000Y-58054000D01*
X118205000Y-67295000D02*
X121300000Y-64200000D01*
X118205000Y-74695000D02*
X118205000Y-67295000D01*
X116000000Y-76900000D02*
X118205000Y-74695000D01*
X116000000Y-80700000D02*
X116000000Y-76900000D01*
%TD*%
D16*
%TO.N,GND*%
G36*
X97951905Y-28639701D02*
G01*
X97700495Y-28807688D01*
X97486688Y-29021495D01*
X97318701Y-29272905D01*
X97202989Y-29552257D01*
X97144000Y-29848816D01*
X97144000Y-30151184D01*
X97202989Y-30447743D01*
X97318701Y-30727095D01*
X97486688Y-30978505D01*
X97700495Y-31192312D01*
X97951905Y-31360299D01*
X98231257Y-31476011D01*
X98527816Y-31535000D01*
X98830184Y-31535000D01*
X99126743Y-31476011D01*
X99406095Y-31360299D01*
X99657505Y-31192312D01*
X99723944Y-31125873D01*
X99729498Y-31144180D01*
X99788463Y-31254494D01*
X99867815Y-31351185D01*
X99964506Y-31430537D01*
X100074820Y-31489502D01*
X100194518Y-31525812D01*
X100319000Y-31538072D01*
X102119000Y-31538072D01*
X102243482Y-31525812D01*
X102363180Y-31489502D01*
X102473494Y-31430537D01*
X102570185Y-31351185D01*
X102649537Y-31254494D01*
X102708502Y-31144180D01*
X102744812Y-31024482D01*
X102757072Y-30900000D01*
X102757072Y-29100000D01*
X102744812Y-28975518D01*
X102708502Y-28855820D01*
X102649537Y-28745506D01*
X102570185Y-28648815D01*
X102541166Y-28625000D01*
X102586264Y-28625000D01*
X108711846Y-34750583D01*
X108733289Y-34776711D01*
X108759417Y-34798154D01*
X108759423Y-34798160D01*
X108792021Y-34824912D01*
X108837593Y-34862312D01*
X108956594Y-34925919D01*
X109046547Y-34953206D01*
X109085716Y-34965088D01*
X109098766Y-34966373D01*
X109186353Y-34975000D01*
X109186360Y-34975000D01*
X109219999Y-34978313D01*
X109253639Y-34975000D01*
X122922051Y-34975000D01*
X123815000Y-35799785D01*
X123815001Y-40565000D01*
X117033647Y-40565000D01*
X117000000Y-40561686D01*
X116966353Y-40565000D01*
X116865717Y-40574912D01*
X116736594Y-40614081D01*
X116617593Y-40677688D01*
X116513289Y-40763289D01*
X116427688Y-40867593D01*
X116364081Y-40986594D01*
X116324912Y-41115717D01*
X116311686Y-41250000D01*
X116315001Y-41283657D01*
X116315000Y-47466353D01*
X116311686Y-47500000D01*
X116324912Y-47634283D01*
X116364081Y-47763406D01*
X116427688Y-47882407D01*
X116513289Y-47986711D01*
X116545817Y-48013406D01*
X116617593Y-48072312D01*
X116736594Y-48135919D01*
X116865717Y-48175088D01*
X117000000Y-48188314D01*
X117033647Y-48185000D01*
X123814571Y-48185000D01*
X123775281Y-87980983D01*
X117191264Y-94565000D01*
X116015867Y-94565000D01*
X121861428Y-88719440D01*
X121893291Y-88693291D01*
X121997636Y-88566146D01*
X122075172Y-88421087D01*
X122122918Y-88263689D01*
X122135000Y-88141019D01*
X122135000Y-88141018D01*
X122139040Y-88100001D01*
X122135000Y-88058982D01*
X122135000Y-70647661D01*
X122151013Y-70636962D01*
X122336962Y-70451013D01*
X122483061Y-70232359D01*
X122583696Y-69989405D01*
X122635000Y-69731486D01*
X122635000Y-69468514D01*
X122583696Y-69210595D01*
X122483061Y-68967641D01*
X122336962Y-68748987D01*
X122151013Y-68563038D01*
X121932359Y-68416939D01*
X121689405Y-68316304D01*
X121431486Y-68265000D01*
X121168514Y-68265000D01*
X120910595Y-68316304D01*
X120667641Y-68416939D01*
X120448987Y-68563038D01*
X120263038Y-68748987D01*
X120116939Y-68967641D01*
X120016304Y-69210595D01*
X119965000Y-69468514D01*
X119965000Y-69731486D01*
X120016304Y-69989405D01*
X120116939Y-70232359D01*
X120263038Y-70451013D01*
X120448987Y-70636962D01*
X120465001Y-70647662D01*
X120465000Y-87141018D01*
X120465001Y-87141027D01*
X120465000Y-87754132D01*
X114674133Y-93545000D01*
X114601007Y-93545000D01*
X114559999Y-93540961D01*
X114518991Y-93545000D01*
X114518981Y-93545000D01*
X114396311Y-93557082D01*
X114370209Y-93565000D01*
X111315867Y-93565000D01*
X113349626Y-91531243D01*
X113368514Y-91535000D01*
X113631486Y-91535000D01*
X113889405Y-91483696D01*
X114132359Y-91383061D01*
X114351013Y-91236962D01*
X114536962Y-91051013D01*
X114683061Y-90832359D01*
X114783696Y-90589405D01*
X114835000Y-90331486D01*
X114835000Y-90068514D01*
X114783696Y-89810595D01*
X114683061Y-89567641D01*
X114536962Y-89348987D01*
X114351013Y-89163038D01*
X114132359Y-89016939D01*
X113889405Y-88916304D01*
X113631486Y-88865000D01*
X113368514Y-88865000D01*
X113110595Y-88916304D01*
X112867641Y-89016939D01*
X112648987Y-89163038D01*
X112463038Y-89348987D01*
X112316939Y-89567641D01*
X112216304Y-89810595D01*
X112165000Y-90068514D01*
X112165000Y-90331486D01*
X112168757Y-90350374D01*
X109654135Y-92864998D01*
X99545866Y-92864998D01*
X97851332Y-91170465D01*
X97908518Y-91187812D01*
X98033000Y-91200072D01*
X99833000Y-91200072D01*
X99957482Y-91187812D01*
X100077180Y-91151502D01*
X100187494Y-91092537D01*
X100284185Y-91013185D01*
X100363537Y-90916494D01*
X100422502Y-90806180D01*
X100428056Y-90787873D01*
X100494495Y-90854312D01*
X100745905Y-91022299D01*
X101025257Y-91138011D01*
X101321816Y-91197000D01*
X101624184Y-91197000D01*
X101920743Y-91138011D01*
X102200095Y-91022299D01*
X102451505Y-90854312D01*
X102665312Y-90640505D01*
X102833299Y-90389095D01*
X102949011Y-90109743D01*
X103008000Y-89813184D01*
X103008000Y-89510816D01*
X102949011Y-89214257D01*
X102833299Y-88934905D01*
X102665312Y-88683495D01*
X102451505Y-88469688D01*
X102200095Y-88301701D01*
X101920743Y-88185989D01*
X101624184Y-88127000D01*
X101321816Y-88127000D01*
X101025257Y-88185989D01*
X100745905Y-88301701D01*
X100494495Y-88469688D01*
X100428056Y-88536127D01*
X100422502Y-88517820D01*
X100363537Y-88407506D01*
X100284185Y-88310815D01*
X100187494Y-88231463D01*
X100077180Y-88172498D01*
X99957482Y-88136188D01*
X99833000Y-88123928D01*
X98689940Y-88123928D01*
X99494428Y-87319440D01*
X99526291Y-87293291D01*
X99630636Y-87166146D01*
X99708172Y-87021087D01*
X99733354Y-86938072D01*
X99833000Y-86938072D01*
X99957482Y-86925812D01*
X100077180Y-86889502D01*
X100187494Y-86830537D01*
X100284185Y-86751185D01*
X100363537Y-86654494D01*
X100422502Y-86544180D01*
X100428056Y-86525873D01*
X100494495Y-86592312D01*
X100745905Y-86760299D01*
X101025257Y-86876011D01*
X101321816Y-86935000D01*
X101624184Y-86935000D01*
X101920743Y-86876011D01*
X102200095Y-86760299D01*
X102451505Y-86592312D01*
X102665312Y-86378505D01*
X102833299Y-86127095D01*
X102949011Y-85847743D01*
X103008000Y-85551184D01*
X103008000Y-85248816D01*
X102949011Y-84952257D01*
X102833299Y-84672905D01*
X102665312Y-84421495D01*
X102451505Y-84207688D01*
X102200095Y-84039701D01*
X101920743Y-83923989D01*
X101624184Y-83865000D01*
X101321816Y-83865000D01*
X101025257Y-83923989D01*
X100745905Y-84039701D01*
X100494495Y-84207688D01*
X100428056Y-84274127D01*
X100422502Y-84255820D01*
X100363537Y-84145506D01*
X100284185Y-84048815D01*
X100187494Y-83969463D01*
X100077180Y-83910498D01*
X99957482Y-83874188D01*
X99833000Y-83861928D01*
X98312072Y-83861928D01*
X98312072Y-83535000D01*
X113958982Y-83535000D01*
X114000000Y-83539040D01*
X114041018Y-83535000D01*
X114041019Y-83535000D01*
X114163689Y-83522918D01*
X114321087Y-83475172D01*
X114466146Y-83397636D01*
X114593291Y-83293291D01*
X114619446Y-83261421D01*
X116000000Y-81880868D01*
X116665000Y-82545868D01*
X116665001Y-88354131D01*
X116550374Y-88468757D01*
X116531486Y-88465000D01*
X116268514Y-88465000D01*
X116010595Y-88516304D01*
X115767641Y-88616939D01*
X115548987Y-88763038D01*
X115363038Y-88948987D01*
X115216939Y-89167641D01*
X115116304Y-89410595D01*
X115065000Y-89668514D01*
X115065000Y-89931486D01*
X115116304Y-90189405D01*
X115216939Y-90432359D01*
X115363038Y-90651013D01*
X115548987Y-90836962D01*
X115767641Y-90983061D01*
X116010595Y-91083696D01*
X116268514Y-91135000D01*
X116531486Y-91135000D01*
X116789405Y-91083696D01*
X117032359Y-90983061D01*
X117251013Y-90836962D01*
X117436962Y-90651013D01*
X117583061Y-90432359D01*
X117683696Y-90189405D01*
X117735000Y-89931486D01*
X117735000Y-89668514D01*
X117731243Y-89649626D01*
X118061432Y-89319437D01*
X118093291Y-89293291D01*
X118138199Y-89238571D01*
X118197636Y-89166146D01*
X118275172Y-89021087D01*
X118322918Y-88863689D01*
X118339040Y-88700000D01*
X118335000Y-88658981D01*
X118335000Y-82241007D01*
X118339039Y-82199999D01*
X118335000Y-82158991D01*
X118335000Y-82158981D01*
X118322918Y-82036311D01*
X118275172Y-81878913D01*
X118197636Y-81733854D01*
X118093291Y-81606709D01*
X118061428Y-81580560D01*
X116835000Y-80354133D01*
X116835000Y-77245867D01*
X118766433Y-75314436D01*
X118798291Y-75288291D01*
X118840032Y-75237430D01*
X118902636Y-75161146D01*
X118980172Y-75016087D01*
X119027918Y-74858689D01*
X119044040Y-74695000D01*
X119040000Y-74653982D01*
X119040000Y-67640867D01*
X121861428Y-64819440D01*
X121893291Y-64793291D01*
X121997636Y-64666146D01*
X122075172Y-64521087D01*
X122122918Y-64363689D01*
X122135000Y-64241019D01*
X122135000Y-64241018D01*
X122139040Y-64200000D01*
X122135000Y-64158982D01*
X122135000Y-54539007D01*
X122139039Y-54497999D01*
X122135000Y-54456991D01*
X122135000Y-54456981D01*
X122122918Y-54334311D01*
X122075172Y-54176913D01*
X121997636Y-54031854D01*
X121893291Y-53904709D01*
X121861428Y-53878560D01*
X116649687Y-48666820D01*
X116648636Y-48664854D01*
X116570438Y-48569570D01*
X116544291Y-48537709D01*
X116512427Y-48511559D01*
X114435000Y-46434133D01*
X114435000Y-43841018D01*
X114439040Y-43800000D01*
X114422918Y-43636311D01*
X114375172Y-43478913D01*
X114297636Y-43333854D01*
X114219439Y-43238570D01*
X114219437Y-43238568D01*
X114193291Y-43206709D01*
X114161433Y-43180564D01*
X107519446Y-36538579D01*
X107493291Y-36506709D01*
X107366146Y-36402364D01*
X107221087Y-36324828D01*
X107063689Y-36277082D01*
X106941019Y-36265000D01*
X106941018Y-36265000D01*
X106900000Y-36260960D01*
X106858982Y-36265000D01*
X104408072Y-36265000D01*
X104408072Y-35041000D01*
X104395812Y-34916518D01*
X104359502Y-34796820D01*
X104300537Y-34686506D01*
X104221185Y-34589815D01*
X104124494Y-34510463D01*
X104014180Y-34451498D01*
X103995873Y-34445944D01*
X104062312Y-34379505D01*
X104230299Y-34128095D01*
X104346011Y-33848743D01*
X104405000Y-33552184D01*
X104405000Y-33249816D01*
X104346011Y-32953257D01*
X104230299Y-32673905D01*
X104062312Y-32422495D01*
X103848505Y-32208688D01*
X103597095Y-32040701D01*
X103317743Y-31924989D01*
X103021184Y-31866000D01*
X102718816Y-31866000D01*
X102422257Y-31924989D01*
X102142905Y-32040701D01*
X101891495Y-32208688D01*
X101677688Y-32422495D01*
X101509701Y-32673905D01*
X101393989Y-32953257D01*
X101346000Y-33194515D01*
X101298011Y-32953257D01*
X101182299Y-32673905D01*
X101014312Y-32422495D01*
X100800505Y-32208688D01*
X100549095Y-32040701D01*
X100269743Y-31924989D01*
X99973184Y-31866000D01*
X99670816Y-31866000D01*
X99374257Y-31924989D01*
X99094905Y-32040701D01*
X98843495Y-32208688D01*
X98629688Y-32422495D01*
X98461701Y-32673905D01*
X98345989Y-32953257D01*
X98287000Y-33249816D01*
X98287000Y-33552184D01*
X98345989Y-33848743D01*
X98461701Y-34128095D01*
X98629688Y-34379505D01*
X98696127Y-34445944D01*
X98677820Y-34451498D01*
X98567506Y-34510463D01*
X98470815Y-34589815D01*
X98391463Y-34686506D01*
X98332498Y-34796820D01*
X98296188Y-34916518D01*
X98283928Y-35041000D01*
X98283928Y-36841000D01*
X98296188Y-36965482D01*
X98332498Y-37085180D01*
X98391463Y-37195494D01*
X98470815Y-37292185D01*
X98567506Y-37371537D01*
X98677820Y-37430502D01*
X98797518Y-37466812D01*
X98922000Y-37479072D01*
X100722000Y-37479072D01*
X100846482Y-37466812D01*
X100966180Y-37430502D01*
X101076494Y-37371537D01*
X101173185Y-37292185D01*
X101252537Y-37195494D01*
X101311502Y-37085180D01*
X101346000Y-36971455D01*
X101380498Y-37085180D01*
X101439463Y-37195494D01*
X101518815Y-37292185D01*
X101615506Y-37371537D01*
X101725820Y-37430502D01*
X101845518Y-37466812D01*
X101970000Y-37479072D01*
X103227203Y-37479072D01*
X103409563Y-37661432D01*
X103435709Y-37693291D01*
X103467568Y-37719437D01*
X103467570Y-37719439D01*
X103499023Y-37745251D01*
X103562854Y-37797636D01*
X103707913Y-37875172D01*
X103865311Y-37922918D01*
X103987981Y-37935000D01*
X103987982Y-37935000D01*
X104029000Y-37939040D01*
X104070018Y-37935000D01*
X106554133Y-37935000D01*
X106613648Y-37994515D01*
X106450184Y-37962000D01*
X106147816Y-37962000D01*
X105851257Y-38020989D01*
X105571905Y-38136701D01*
X105320495Y-38304688D01*
X105254056Y-38371127D01*
X105248502Y-38352820D01*
X105189537Y-38242506D01*
X105110185Y-38145815D01*
X105013494Y-38066463D01*
X104903180Y-38007498D01*
X104783482Y-37971188D01*
X104659000Y-37958928D01*
X102859000Y-37958928D01*
X102734518Y-37971188D01*
X102614820Y-38007498D01*
X102504506Y-38066463D01*
X102437923Y-38121106D01*
X102324505Y-38007688D01*
X102073095Y-37839701D01*
X101793743Y-37723989D01*
X101497184Y-37665000D01*
X101194816Y-37665000D01*
X100898257Y-37723989D01*
X100618905Y-37839701D01*
X100367495Y-38007688D01*
X100301056Y-38074127D01*
X100295502Y-38055820D01*
X100236537Y-37945506D01*
X100157185Y-37848815D01*
X100060494Y-37769463D01*
X99950180Y-37710498D01*
X99830482Y-37674188D01*
X99706000Y-37661928D01*
X97906000Y-37661928D01*
X97781518Y-37674188D01*
X97661820Y-37710498D01*
X97551506Y-37769463D01*
X97454815Y-37848815D01*
X97375463Y-37945506D01*
X97316498Y-38055820D01*
X97280188Y-38175518D01*
X97267928Y-38300000D01*
X97267928Y-40100000D01*
X97280188Y-40224482D01*
X97292479Y-40265000D01*
X89741018Y-40265000D01*
X89700000Y-40260960D01*
X89658981Y-40265000D01*
X89536311Y-40277082D01*
X89378913Y-40324828D01*
X89233854Y-40402364D01*
X89106709Y-40506709D01*
X89080563Y-40538568D01*
X77503579Y-52115554D01*
X77471709Y-52141709D01*
X77367365Y-52268854D01*
X77367364Y-52268855D01*
X77289828Y-52413914D01*
X77242082Y-52571312D01*
X77225960Y-52735000D01*
X77230000Y-52776019D01*
X77230001Y-61213934D01*
X77230000Y-61213944D01*
X77230001Y-63423972D01*
X77225960Y-63465000D01*
X77230000Y-63506019D01*
X77230001Y-71323971D01*
X77225960Y-71365000D01*
X77242082Y-71528688D01*
X77289828Y-71686086D01*
X77366491Y-71829511D01*
X77367365Y-71831146D01*
X77471710Y-71958291D01*
X77503574Y-71984441D01*
X78318570Y-72799438D01*
X78318576Y-72799443D01*
X92065000Y-86545869D01*
X92065001Y-88556265D01*
X76250000Y-72741264D01*
X76250000Y-44665000D01*
X77124928Y-44665000D01*
X77137188Y-44789482D01*
X77173498Y-44909180D01*
X77232463Y-45019494D01*
X77311815Y-45116185D01*
X77408506Y-45195537D01*
X77518820Y-45254502D01*
X77638518Y-45290812D01*
X77763000Y-45303072D01*
X78327250Y-45300000D01*
X78486000Y-45141250D01*
X78486000Y-43942000D01*
X77286750Y-43942000D01*
X77128000Y-44100750D01*
X77124928Y-44665000D01*
X76250000Y-44665000D01*
X76250000Y-42965000D01*
X77124928Y-42965000D01*
X77128000Y-43529250D01*
X77286750Y-43688000D01*
X78486000Y-43688000D01*
X78486000Y-42488750D01*
X78740000Y-42488750D01*
X78740000Y-43688000D01*
X78760000Y-43688000D01*
X78760000Y-43942000D01*
X78740000Y-43942000D01*
X78740000Y-45141250D01*
X78898750Y-45300000D01*
X79463000Y-45303072D01*
X79587482Y-45290812D01*
X79707180Y-45254502D01*
X79817494Y-45195537D01*
X79914185Y-45116185D01*
X79993537Y-45019494D01*
X80052502Y-44909180D01*
X80073393Y-44840313D01*
X80097866Y-44870134D01*
X80323986Y-45055706D01*
X80581966Y-45193599D01*
X80861889Y-45278513D01*
X81080050Y-45300000D01*
X81225950Y-45300000D01*
X81444111Y-45278513D01*
X81724034Y-45193599D01*
X81982014Y-45055706D01*
X82208134Y-44870134D01*
X82393706Y-44644014D01*
X82531599Y-44386034D01*
X82616513Y-44106111D01*
X82645185Y-43815000D01*
X82616513Y-43523889D01*
X82531599Y-43243966D01*
X82393706Y-42985986D01*
X82208134Y-42759866D01*
X81982014Y-42574294D01*
X81724034Y-42436401D01*
X81444111Y-42351487D01*
X81225950Y-42330000D01*
X81080050Y-42330000D01*
X80861889Y-42351487D01*
X80581966Y-42436401D01*
X80323986Y-42574294D01*
X80097866Y-42759866D01*
X80073393Y-42789687D01*
X80052502Y-42720820D01*
X79993537Y-42610506D01*
X79914185Y-42513815D01*
X79817494Y-42434463D01*
X79707180Y-42375498D01*
X79587482Y-42339188D01*
X79463000Y-42326928D01*
X78898750Y-42330000D01*
X78740000Y-42488750D01*
X78486000Y-42488750D01*
X78327250Y-42330000D01*
X77763000Y-42326928D01*
X77638518Y-42339188D01*
X77518820Y-42375498D01*
X77408506Y-42434463D01*
X77311815Y-42513815D01*
X77232463Y-42610506D01*
X77173498Y-42720820D01*
X77137188Y-42840518D01*
X77124928Y-42965000D01*
X76250000Y-42965000D01*
X76250000Y-41558736D01*
X82541736Y-35267000D01*
X86903928Y-35267000D01*
X86916188Y-35391482D01*
X86952498Y-35511180D01*
X87011463Y-35621494D01*
X87090815Y-35718185D01*
X87187506Y-35797537D01*
X87297820Y-35856502D01*
X87417518Y-35892812D01*
X87542000Y-35905072D01*
X88106250Y-35902000D01*
X88265000Y-35743250D01*
X88265000Y-34544000D01*
X87065750Y-34544000D01*
X86907000Y-34702750D01*
X86903928Y-35267000D01*
X82541736Y-35267000D01*
X84241736Y-33567000D01*
X86903928Y-33567000D01*
X86907000Y-34131250D01*
X87065750Y-34290000D01*
X88265000Y-34290000D01*
X88265000Y-33090750D01*
X88519000Y-33090750D01*
X88519000Y-34290000D01*
X88539000Y-34290000D01*
X88539000Y-34544000D01*
X88519000Y-34544000D01*
X88519000Y-35743250D01*
X88677750Y-35902000D01*
X89242000Y-35905072D01*
X89366482Y-35892812D01*
X89486180Y-35856502D01*
X89596494Y-35797537D01*
X89693185Y-35718185D01*
X89772537Y-35621494D01*
X89831502Y-35511180D01*
X89852393Y-35442313D01*
X89876866Y-35472134D01*
X90102986Y-35657706D01*
X90360966Y-35795599D01*
X90640889Y-35880513D01*
X90859050Y-35902000D01*
X91004950Y-35902000D01*
X91223111Y-35880513D01*
X91503034Y-35795599D01*
X91761014Y-35657706D01*
X91987134Y-35472134D01*
X92172706Y-35246014D01*
X92310599Y-34988034D01*
X92395513Y-34708111D01*
X92424185Y-34417000D01*
X92395513Y-34125889D01*
X92310599Y-33845966D01*
X92172706Y-33587986D01*
X91987134Y-33361866D01*
X91761014Y-33176294D01*
X91503034Y-33038401D01*
X91223111Y-32953487D01*
X91004950Y-32932000D01*
X90859050Y-32932000D01*
X90640889Y-32953487D01*
X90360966Y-33038401D01*
X90102986Y-33176294D01*
X89876866Y-33361866D01*
X89852393Y-33391687D01*
X89831502Y-33322820D01*
X89772537Y-33212506D01*
X89693185Y-33115815D01*
X89596494Y-33036463D01*
X89486180Y-32977498D01*
X89366482Y-32941188D01*
X89242000Y-32928928D01*
X88677750Y-32932000D01*
X88519000Y-33090750D01*
X88265000Y-33090750D01*
X88106250Y-32932000D01*
X87542000Y-32928928D01*
X87417518Y-32941188D01*
X87297820Y-32977498D01*
X87187506Y-33036463D01*
X87090815Y-33115815D01*
X87011463Y-33212506D01*
X86952498Y-33322820D01*
X86916188Y-33442518D01*
X86903928Y-33567000D01*
X84241736Y-33567000D01*
X89183736Y-28625000D01*
X97987396Y-28625000D01*
X97951905Y-28639701D01*
X97951905Y-28639701D01*
G37*
X97951905Y-28639701D02*
X97700495Y-28807688D01*
X97486688Y-29021495D01*
X97318701Y-29272905D01*
X97202989Y-29552257D01*
X97144000Y-29848816D01*
X97144000Y-30151184D01*
X97202989Y-30447743D01*
X97318701Y-30727095D01*
X97486688Y-30978505D01*
X97700495Y-31192312D01*
X97951905Y-31360299D01*
X98231257Y-31476011D01*
X98527816Y-31535000D01*
X98830184Y-31535000D01*
X99126743Y-31476011D01*
X99406095Y-31360299D01*
X99657505Y-31192312D01*
X99723944Y-31125873D01*
X99729498Y-31144180D01*
X99788463Y-31254494D01*
X99867815Y-31351185D01*
X99964506Y-31430537D01*
X100074820Y-31489502D01*
X100194518Y-31525812D01*
X100319000Y-31538072D01*
X102119000Y-31538072D01*
X102243482Y-31525812D01*
X102363180Y-31489502D01*
X102473494Y-31430537D01*
X102570185Y-31351185D01*
X102649537Y-31254494D01*
X102708502Y-31144180D01*
X102744812Y-31024482D01*
X102757072Y-30900000D01*
X102757072Y-29100000D01*
X102744812Y-28975518D01*
X102708502Y-28855820D01*
X102649537Y-28745506D01*
X102570185Y-28648815D01*
X102541166Y-28625000D01*
X102586264Y-28625000D01*
X108711846Y-34750583D01*
X108733289Y-34776711D01*
X108759417Y-34798154D01*
X108759423Y-34798160D01*
X108792021Y-34824912D01*
X108837593Y-34862312D01*
X108956594Y-34925919D01*
X109046547Y-34953206D01*
X109085716Y-34965088D01*
X109098766Y-34966373D01*
X109186353Y-34975000D01*
X109186360Y-34975000D01*
X109219999Y-34978313D01*
X109253639Y-34975000D01*
X122922051Y-34975000D01*
X123815000Y-35799785D01*
X123815001Y-40565000D01*
X117033647Y-40565000D01*
X117000000Y-40561686D01*
X116966353Y-40565000D01*
X116865717Y-40574912D01*
X116736594Y-40614081D01*
X116617593Y-40677688D01*
X116513289Y-40763289D01*
X116427688Y-40867593D01*
X116364081Y-40986594D01*
X116324912Y-41115717D01*
X116311686Y-41250000D01*
X116315001Y-41283657D01*
X116315000Y-47466353D01*
X116311686Y-47500000D01*
X116324912Y-47634283D01*
X116364081Y-47763406D01*
X116427688Y-47882407D01*
X116513289Y-47986711D01*
X116545817Y-48013406D01*
X116617593Y-48072312D01*
X116736594Y-48135919D01*
X116865717Y-48175088D01*
X117000000Y-48188314D01*
X117033647Y-48185000D01*
X123814571Y-48185000D01*
X123775281Y-87980983D01*
X117191264Y-94565000D01*
X116015867Y-94565000D01*
X121861428Y-88719440D01*
X121893291Y-88693291D01*
X121997636Y-88566146D01*
X122075172Y-88421087D01*
X122122918Y-88263689D01*
X122135000Y-88141019D01*
X122135000Y-88141018D01*
X122139040Y-88100001D01*
X122135000Y-88058982D01*
X122135000Y-70647661D01*
X122151013Y-70636962D01*
X122336962Y-70451013D01*
X122483061Y-70232359D01*
X122583696Y-69989405D01*
X122635000Y-69731486D01*
X122635000Y-69468514D01*
X122583696Y-69210595D01*
X122483061Y-68967641D01*
X122336962Y-68748987D01*
X122151013Y-68563038D01*
X121932359Y-68416939D01*
X121689405Y-68316304D01*
X121431486Y-68265000D01*
X121168514Y-68265000D01*
X120910595Y-68316304D01*
X120667641Y-68416939D01*
X120448987Y-68563038D01*
X120263038Y-68748987D01*
X120116939Y-68967641D01*
X120016304Y-69210595D01*
X119965000Y-69468514D01*
X119965000Y-69731486D01*
X120016304Y-69989405D01*
X120116939Y-70232359D01*
X120263038Y-70451013D01*
X120448987Y-70636962D01*
X120465001Y-70647662D01*
X120465000Y-87141018D01*
X120465001Y-87141027D01*
X120465000Y-87754132D01*
X114674133Y-93545000D01*
X114601007Y-93545000D01*
X114559999Y-93540961D01*
X114518991Y-93545000D01*
X114518981Y-93545000D01*
X114396311Y-93557082D01*
X114370209Y-93565000D01*
X111315867Y-93565000D01*
X113349626Y-91531243D01*
X113368514Y-91535000D01*
X113631486Y-91535000D01*
X113889405Y-91483696D01*
X114132359Y-91383061D01*
X114351013Y-91236962D01*
X114536962Y-91051013D01*
X114683061Y-90832359D01*
X114783696Y-90589405D01*
X114835000Y-90331486D01*
X114835000Y-90068514D01*
X114783696Y-89810595D01*
X114683061Y-89567641D01*
X114536962Y-89348987D01*
X114351013Y-89163038D01*
X114132359Y-89016939D01*
X113889405Y-88916304D01*
X113631486Y-88865000D01*
X113368514Y-88865000D01*
X113110595Y-88916304D01*
X112867641Y-89016939D01*
X112648987Y-89163038D01*
X112463038Y-89348987D01*
X112316939Y-89567641D01*
X112216304Y-89810595D01*
X112165000Y-90068514D01*
X112165000Y-90331486D01*
X112168757Y-90350374D01*
X109654135Y-92864998D01*
X99545866Y-92864998D01*
X97851332Y-91170465D01*
X97908518Y-91187812D01*
X98033000Y-91200072D01*
X99833000Y-91200072D01*
X99957482Y-91187812D01*
X100077180Y-91151502D01*
X100187494Y-91092537D01*
X100284185Y-91013185D01*
X100363537Y-90916494D01*
X100422502Y-90806180D01*
X100428056Y-90787873D01*
X100494495Y-90854312D01*
X100745905Y-91022299D01*
X101025257Y-91138011D01*
X101321816Y-91197000D01*
X101624184Y-91197000D01*
X101920743Y-91138011D01*
X102200095Y-91022299D01*
X102451505Y-90854312D01*
X102665312Y-90640505D01*
X102833299Y-90389095D01*
X102949011Y-90109743D01*
X103008000Y-89813184D01*
X103008000Y-89510816D01*
X102949011Y-89214257D01*
X102833299Y-88934905D01*
X102665312Y-88683495D01*
X102451505Y-88469688D01*
X102200095Y-88301701D01*
X101920743Y-88185989D01*
X101624184Y-88127000D01*
X101321816Y-88127000D01*
X101025257Y-88185989D01*
X100745905Y-88301701D01*
X100494495Y-88469688D01*
X100428056Y-88536127D01*
X100422502Y-88517820D01*
X100363537Y-88407506D01*
X100284185Y-88310815D01*
X100187494Y-88231463D01*
X100077180Y-88172498D01*
X99957482Y-88136188D01*
X99833000Y-88123928D01*
X98689940Y-88123928D01*
X99494428Y-87319440D01*
X99526291Y-87293291D01*
X99630636Y-87166146D01*
X99708172Y-87021087D01*
X99733354Y-86938072D01*
X99833000Y-86938072D01*
X99957482Y-86925812D01*
X100077180Y-86889502D01*
X100187494Y-86830537D01*
X100284185Y-86751185D01*
X100363537Y-86654494D01*
X100422502Y-86544180D01*
X100428056Y-86525873D01*
X100494495Y-86592312D01*
X100745905Y-86760299D01*
X101025257Y-86876011D01*
X101321816Y-86935000D01*
X101624184Y-86935000D01*
X101920743Y-86876011D01*
X102200095Y-86760299D01*
X102451505Y-86592312D01*
X102665312Y-86378505D01*
X102833299Y-86127095D01*
X102949011Y-85847743D01*
X103008000Y-85551184D01*
X103008000Y-85248816D01*
X102949011Y-84952257D01*
X102833299Y-84672905D01*
X102665312Y-84421495D01*
X102451505Y-84207688D01*
X102200095Y-84039701D01*
X101920743Y-83923989D01*
X101624184Y-83865000D01*
X101321816Y-83865000D01*
X101025257Y-83923989D01*
X100745905Y-84039701D01*
X100494495Y-84207688D01*
X100428056Y-84274127D01*
X100422502Y-84255820D01*
X100363537Y-84145506D01*
X100284185Y-84048815D01*
X100187494Y-83969463D01*
X100077180Y-83910498D01*
X99957482Y-83874188D01*
X99833000Y-83861928D01*
X98312072Y-83861928D01*
X98312072Y-83535000D01*
X113958982Y-83535000D01*
X114000000Y-83539040D01*
X114041018Y-83535000D01*
X114041019Y-83535000D01*
X114163689Y-83522918D01*
X114321087Y-83475172D01*
X114466146Y-83397636D01*
X114593291Y-83293291D01*
X114619446Y-83261421D01*
X116000000Y-81880868D01*
X116665000Y-82545868D01*
X116665001Y-88354131D01*
X116550374Y-88468757D01*
X116531486Y-88465000D01*
X116268514Y-88465000D01*
X116010595Y-88516304D01*
X115767641Y-88616939D01*
X115548987Y-88763038D01*
X115363038Y-88948987D01*
X115216939Y-89167641D01*
X115116304Y-89410595D01*
X115065000Y-89668514D01*
X115065000Y-89931486D01*
X115116304Y-90189405D01*
X115216939Y-90432359D01*
X115363038Y-90651013D01*
X115548987Y-90836962D01*
X115767641Y-90983061D01*
X116010595Y-91083696D01*
X116268514Y-91135000D01*
X116531486Y-91135000D01*
X116789405Y-91083696D01*
X117032359Y-90983061D01*
X117251013Y-90836962D01*
X117436962Y-90651013D01*
X117583061Y-90432359D01*
X117683696Y-90189405D01*
X117735000Y-89931486D01*
X117735000Y-89668514D01*
X117731243Y-89649626D01*
X118061432Y-89319437D01*
X118093291Y-89293291D01*
X118138199Y-89238571D01*
X118197636Y-89166146D01*
X118275172Y-89021087D01*
X118322918Y-88863689D01*
X118339040Y-88700000D01*
X118335000Y-88658981D01*
X118335000Y-82241007D01*
X118339039Y-82199999D01*
X118335000Y-82158991D01*
X118335000Y-82158981D01*
X118322918Y-82036311D01*
X118275172Y-81878913D01*
X118197636Y-81733854D01*
X118093291Y-81606709D01*
X118061428Y-81580560D01*
X116835000Y-80354133D01*
X116835000Y-77245867D01*
X118766433Y-75314436D01*
X118798291Y-75288291D01*
X118840032Y-75237430D01*
X118902636Y-75161146D01*
X118980172Y-75016087D01*
X119027918Y-74858689D01*
X119044040Y-74695000D01*
X119040000Y-74653982D01*
X119040000Y-67640867D01*
X121861428Y-64819440D01*
X121893291Y-64793291D01*
X121997636Y-64666146D01*
X122075172Y-64521087D01*
X122122918Y-64363689D01*
X122135000Y-64241019D01*
X122135000Y-64241018D01*
X122139040Y-64200000D01*
X122135000Y-64158982D01*
X122135000Y-54539007D01*
X122139039Y-54497999D01*
X122135000Y-54456991D01*
X122135000Y-54456981D01*
X122122918Y-54334311D01*
X122075172Y-54176913D01*
X121997636Y-54031854D01*
X121893291Y-53904709D01*
X121861428Y-53878560D01*
X116649687Y-48666820D01*
X116648636Y-48664854D01*
X116570438Y-48569570D01*
X116544291Y-48537709D01*
X116512427Y-48511559D01*
X114435000Y-46434133D01*
X114435000Y-43841018D01*
X114439040Y-43800000D01*
X114422918Y-43636311D01*
X114375172Y-43478913D01*
X114297636Y-43333854D01*
X114219439Y-43238570D01*
X114219437Y-43238568D01*
X114193291Y-43206709D01*
X114161433Y-43180564D01*
X107519446Y-36538579D01*
X107493291Y-36506709D01*
X107366146Y-36402364D01*
X107221087Y-36324828D01*
X107063689Y-36277082D01*
X106941019Y-36265000D01*
X106941018Y-36265000D01*
X106900000Y-36260960D01*
X106858982Y-36265000D01*
X104408072Y-36265000D01*
X104408072Y-35041000D01*
X104395812Y-34916518D01*
X104359502Y-34796820D01*
X104300537Y-34686506D01*
X104221185Y-34589815D01*
X104124494Y-34510463D01*
X104014180Y-34451498D01*
X103995873Y-34445944D01*
X104062312Y-34379505D01*
X104230299Y-34128095D01*
X104346011Y-33848743D01*
X104405000Y-33552184D01*
X104405000Y-33249816D01*
X104346011Y-32953257D01*
X104230299Y-32673905D01*
X104062312Y-32422495D01*
X103848505Y-32208688D01*
X103597095Y-32040701D01*
X103317743Y-31924989D01*
X103021184Y-31866000D01*
X102718816Y-31866000D01*
X102422257Y-31924989D01*
X102142905Y-32040701D01*
X101891495Y-32208688D01*
X101677688Y-32422495D01*
X101509701Y-32673905D01*
X101393989Y-32953257D01*
X101346000Y-33194515D01*
X101298011Y-32953257D01*
X101182299Y-32673905D01*
X101014312Y-32422495D01*
X100800505Y-32208688D01*
X100549095Y-32040701D01*
X100269743Y-31924989D01*
X99973184Y-31866000D01*
X99670816Y-31866000D01*
X99374257Y-31924989D01*
X99094905Y-32040701D01*
X98843495Y-32208688D01*
X98629688Y-32422495D01*
X98461701Y-32673905D01*
X98345989Y-32953257D01*
X98287000Y-33249816D01*
X98287000Y-33552184D01*
X98345989Y-33848743D01*
X98461701Y-34128095D01*
X98629688Y-34379505D01*
X98696127Y-34445944D01*
X98677820Y-34451498D01*
X98567506Y-34510463D01*
X98470815Y-34589815D01*
X98391463Y-34686506D01*
X98332498Y-34796820D01*
X98296188Y-34916518D01*
X98283928Y-35041000D01*
X98283928Y-36841000D01*
X98296188Y-36965482D01*
X98332498Y-37085180D01*
X98391463Y-37195494D01*
X98470815Y-37292185D01*
X98567506Y-37371537D01*
X98677820Y-37430502D01*
X98797518Y-37466812D01*
X98922000Y-37479072D01*
X100722000Y-37479072D01*
X100846482Y-37466812D01*
X100966180Y-37430502D01*
X101076494Y-37371537D01*
X101173185Y-37292185D01*
X101252537Y-37195494D01*
X101311502Y-37085180D01*
X101346000Y-36971455D01*
X101380498Y-37085180D01*
X101439463Y-37195494D01*
X101518815Y-37292185D01*
X101615506Y-37371537D01*
X101725820Y-37430502D01*
X101845518Y-37466812D01*
X101970000Y-37479072D01*
X103227203Y-37479072D01*
X103409563Y-37661432D01*
X103435709Y-37693291D01*
X103467568Y-37719437D01*
X103467570Y-37719439D01*
X103499023Y-37745251D01*
X103562854Y-37797636D01*
X103707913Y-37875172D01*
X103865311Y-37922918D01*
X103987981Y-37935000D01*
X103987982Y-37935000D01*
X104029000Y-37939040D01*
X104070018Y-37935000D01*
X106554133Y-37935000D01*
X106613648Y-37994515D01*
X106450184Y-37962000D01*
X106147816Y-37962000D01*
X105851257Y-38020989D01*
X105571905Y-38136701D01*
X105320495Y-38304688D01*
X105254056Y-38371127D01*
X105248502Y-38352820D01*
X105189537Y-38242506D01*
X105110185Y-38145815D01*
X105013494Y-38066463D01*
X104903180Y-38007498D01*
X104783482Y-37971188D01*
X104659000Y-37958928D01*
X102859000Y-37958928D01*
X102734518Y-37971188D01*
X102614820Y-38007498D01*
X102504506Y-38066463D01*
X102437923Y-38121106D01*
X102324505Y-38007688D01*
X102073095Y-37839701D01*
X101793743Y-37723989D01*
X101497184Y-37665000D01*
X101194816Y-37665000D01*
X100898257Y-37723989D01*
X100618905Y-37839701D01*
X100367495Y-38007688D01*
X100301056Y-38074127D01*
X100295502Y-38055820D01*
X100236537Y-37945506D01*
X100157185Y-37848815D01*
X100060494Y-37769463D01*
X99950180Y-37710498D01*
X99830482Y-37674188D01*
X99706000Y-37661928D01*
X97906000Y-37661928D01*
X97781518Y-37674188D01*
X97661820Y-37710498D01*
X97551506Y-37769463D01*
X97454815Y-37848815D01*
X97375463Y-37945506D01*
X97316498Y-38055820D01*
X97280188Y-38175518D01*
X97267928Y-38300000D01*
X97267928Y-40100000D01*
X97280188Y-40224482D01*
X97292479Y-40265000D01*
X89741018Y-40265000D01*
X89700000Y-40260960D01*
X89658981Y-40265000D01*
X89536311Y-40277082D01*
X89378913Y-40324828D01*
X89233854Y-40402364D01*
X89106709Y-40506709D01*
X89080563Y-40538568D01*
X77503579Y-52115554D01*
X77471709Y-52141709D01*
X77367365Y-52268854D01*
X77367364Y-52268855D01*
X77289828Y-52413914D01*
X77242082Y-52571312D01*
X77225960Y-52735000D01*
X77230000Y-52776019D01*
X77230001Y-61213934D01*
X77230000Y-61213944D01*
X77230001Y-63423972D01*
X77225960Y-63465000D01*
X77230000Y-63506019D01*
X77230001Y-71323971D01*
X77225960Y-71365000D01*
X77242082Y-71528688D01*
X77289828Y-71686086D01*
X77366491Y-71829511D01*
X77367365Y-71831146D01*
X77471710Y-71958291D01*
X77503574Y-71984441D01*
X78318570Y-72799438D01*
X78318576Y-72799443D01*
X92065000Y-86545869D01*
X92065001Y-88556265D01*
X76250000Y-72741264D01*
X76250000Y-44665000D01*
X77124928Y-44665000D01*
X77137188Y-44789482D01*
X77173498Y-44909180D01*
X77232463Y-45019494D01*
X77311815Y-45116185D01*
X77408506Y-45195537D01*
X77518820Y-45254502D01*
X77638518Y-45290812D01*
X77763000Y-45303072D01*
X78327250Y-45300000D01*
X78486000Y-45141250D01*
X78486000Y-43942000D01*
X77286750Y-43942000D01*
X77128000Y-44100750D01*
X77124928Y-44665000D01*
X76250000Y-44665000D01*
X76250000Y-42965000D01*
X77124928Y-42965000D01*
X77128000Y-43529250D01*
X77286750Y-43688000D01*
X78486000Y-43688000D01*
X78486000Y-42488750D01*
X78740000Y-42488750D01*
X78740000Y-43688000D01*
X78760000Y-43688000D01*
X78760000Y-43942000D01*
X78740000Y-43942000D01*
X78740000Y-45141250D01*
X78898750Y-45300000D01*
X79463000Y-45303072D01*
X79587482Y-45290812D01*
X79707180Y-45254502D01*
X79817494Y-45195537D01*
X79914185Y-45116185D01*
X79993537Y-45019494D01*
X80052502Y-44909180D01*
X80073393Y-44840313D01*
X80097866Y-44870134D01*
X80323986Y-45055706D01*
X80581966Y-45193599D01*
X80861889Y-45278513D01*
X81080050Y-45300000D01*
X81225950Y-45300000D01*
X81444111Y-45278513D01*
X81724034Y-45193599D01*
X81982014Y-45055706D01*
X82208134Y-44870134D01*
X82393706Y-44644014D01*
X82531599Y-44386034D01*
X82616513Y-44106111D01*
X82645185Y-43815000D01*
X82616513Y-43523889D01*
X82531599Y-43243966D01*
X82393706Y-42985986D01*
X82208134Y-42759866D01*
X81982014Y-42574294D01*
X81724034Y-42436401D01*
X81444111Y-42351487D01*
X81225950Y-42330000D01*
X81080050Y-42330000D01*
X80861889Y-42351487D01*
X80581966Y-42436401D01*
X80323986Y-42574294D01*
X80097866Y-42759866D01*
X80073393Y-42789687D01*
X80052502Y-42720820D01*
X79993537Y-42610506D01*
X79914185Y-42513815D01*
X79817494Y-42434463D01*
X79707180Y-42375498D01*
X79587482Y-42339188D01*
X79463000Y-42326928D01*
X78898750Y-42330000D01*
X78740000Y-42488750D01*
X78486000Y-42488750D01*
X78327250Y-42330000D01*
X77763000Y-42326928D01*
X77638518Y-42339188D01*
X77518820Y-42375498D01*
X77408506Y-42434463D01*
X77311815Y-42513815D01*
X77232463Y-42610506D01*
X77173498Y-42720820D01*
X77137188Y-42840518D01*
X77124928Y-42965000D01*
X76250000Y-42965000D01*
X76250000Y-41558736D01*
X82541736Y-35267000D01*
X86903928Y-35267000D01*
X86916188Y-35391482D01*
X86952498Y-35511180D01*
X87011463Y-35621494D01*
X87090815Y-35718185D01*
X87187506Y-35797537D01*
X87297820Y-35856502D01*
X87417518Y-35892812D01*
X87542000Y-35905072D01*
X88106250Y-35902000D01*
X88265000Y-35743250D01*
X88265000Y-34544000D01*
X87065750Y-34544000D01*
X86907000Y-34702750D01*
X86903928Y-35267000D01*
X82541736Y-35267000D01*
X84241736Y-33567000D01*
X86903928Y-33567000D01*
X86907000Y-34131250D01*
X87065750Y-34290000D01*
X88265000Y-34290000D01*
X88265000Y-33090750D01*
X88519000Y-33090750D01*
X88519000Y-34290000D01*
X88539000Y-34290000D01*
X88539000Y-34544000D01*
X88519000Y-34544000D01*
X88519000Y-35743250D01*
X88677750Y-35902000D01*
X89242000Y-35905072D01*
X89366482Y-35892812D01*
X89486180Y-35856502D01*
X89596494Y-35797537D01*
X89693185Y-35718185D01*
X89772537Y-35621494D01*
X89831502Y-35511180D01*
X89852393Y-35442313D01*
X89876866Y-35472134D01*
X90102986Y-35657706D01*
X90360966Y-35795599D01*
X90640889Y-35880513D01*
X90859050Y-35902000D01*
X91004950Y-35902000D01*
X91223111Y-35880513D01*
X91503034Y-35795599D01*
X91761014Y-35657706D01*
X91987134Y-35472134D01*
X92172706Y-35246014D01*
X92310599Y-34988034D01*
X92395513Y-34708111D01*
X92424185Y-34417000D01*
X92395513Y-34125889D01*
X92310599Y-33845966D01*
X92172706Y-33587986D01*
X91987134Y-33361866D01*
X91761014Y-33176294D01*
X91503034Y-33038401D01*
X91223111Y-32953487D01*
X91004950Y-32932000D01*
X90859050Y-32932000D01*
X90640889Y-32953487D01*
X90360966Y-33038401D01*
X90102986Y-33176294D01*
X89876866Y-33361866D01*
X89852393Y-33391687D01*
X89831502Y-33322820D01*
X89772537Y-33212506D01*
X89693185Y-33115815D01*
X89596494Y-33036463D01*
X89486180Y-32977498D01*
X89366482Y-32941188D01*
X89242000Y-32928928D01*
X88677750Y-32932000D01*
X88519000Y-33090750D01*
X88265000Y-33090750D01*
X88106250Y-32932000D01*
X87542000Y-32928928D01*
X87417518Y-32941188D01*
X87297820Y-32977498D01*
X87187506Y-33036463D01*
X87090815Y-33115815D01*
X87011463Y-33212506D01*
X86952498Y-33322820D01*
X86916188Y-33442518D01*
X86903928Y-33567000D01*
X84241736Y-33567000D01*
X89183736Y-28625000D01*
X97987396Y-28625000D01*
X97951905Y-28639701D01*
%TD*%
M02*
