%TF.GenerationSoftware,KiCad,Pcbnew,(5.1.4)-1*%
%TF.CreationDate,2021-08-29T10:15:52+03:00*%
%TF.ProjectId,kone,6b6f6e65-2e6b-4696-9361-645f70636258,rev?*%
%TF.SameCoordinates,Original*%
%TF.FileFunction,Soldermask,Top*%
%TF.FilePolarity,Negative*%
%FSLAX46Y46*%
G04 Gerber Fmt 4.6, Leading zero omitted, Abs format (unit mm)*
G04 Created by KiCad (PCBNEW (5.1.4)-1) date 2021-08-29 10:15:52*
%MOMM*%
%LPD*%
G04 APERTURE LIST*
%ADD10R,0.600000X1.750000*%
%ADD11R,1.700000X1.700000*%
%ADD12O,1.700000X1.700000*%
%ADD13C,1.524000*%
%ADD14C,0.150000*%
%ADD15R,1.800000X1.800000*%
%ADD16C,1.800000*%
%ADD17C,2.250000*%
%ADD18C,1.200000*%
%ADD19C,1.300000*%
G04 APERTURE END LIST*
D10*
%TO.C,IC1*%
X264033000Y-117397000D03*
X262763000Y-117397000D03*
X261493000Y-117397000D03*
X260223000Y-117397000D03*
X258953000Y-117397000D03*
X257683000Y-117397000D03*
X256413000Y-117397000D03*
X255143000Y-117397000D03*
X253873000Y-117397000D03*
X252603000Y-117397000D03*
X252603000Y-107647000D03*
X253873000Y-107647000D03*
X255143000Y-107647000D03*
X256413000Y-107647000D03*
X264033000Y-107647000D03*
X262763000Y-107647000D03*
X261493000Y-107647000D03*
X260223000Y-107647000D03*
X258953000Y-107647000D03*
X257683000Y-107647000D03*
%TD*%
D11*
%TO.C,P3*%
X233710000Y-156250000D03*
D12*
X236250000Y-156250000D03*
%TD*%
D13*
%TO.C,P1*%
X236555872Y-116250128D03*
D14*
G36*
X236555872Y-115172497D02*
G01*
X237633503Y-116250128D01*
X236555872Y-117327759D01*
X235478241Y-116250128D01*
X236555872Y-115172497D01*
X236555872Y-115172497D01*
G37*
D13*
X238351923Y-114454077D03*
D14*
G36*
X238351923Y-113376446D02*
G01*
X239429554Y-114454077D01*
X238351923Y-115531708D01*
X237274292Y-114454077D01*
X238351923Y-113376446D01*
X238351923Y-113376446D01*
G37*
D13*
X240147974Y-112658026D03*
D14*
G36*
X240147974Y-111580395D02*
G01*
X241225605Y-112658026D01*
X240147974Y-113735657D01*
X239070343Y-112658026D01*
X240147974Y-111580395D01*
X240147974Y-111580395D01*
G37*
D13*
X241944026Y-110861974D03*
D14*
G36*
X241944026Y-109784343D02*
G01*
X243021657Y-110861974D01*
X241944026Y-111939605D01*
X240866395Y-110861974D01*
X241944026Y-109784343D01*
X241944026Y-109784343D01*
G37*
D13*
X243740077Y-109065923D03*
D14*
G36*
X243740077Y-107988292D02*
G01*
X244817708Y-109065923D01*
X243740077Y-110143554D01*
X242662446Y-109065923D01*
X243740077Y-107988292D01*
X243740077Y-107988292D01*
G37*
D13*
X245536128Y-107269872D03*
D14*
G36*
X245536128Y-106192241D02*
G01*
X246613759Y-107269872D01*
X245536128Y-108347503D01*
X244458497Y-107269872D01*
X245536128Y-106192241D01*
X245536128Y-106192241D01*
G37*
%TD*%
D15*
%TO.C,D29*%
X268940000Y-120380000D03*
D16*
X266400000Y-120380000D03*
%TD*%
%TO.C,D9*%
X264910000Y-155170000D03*
D14*
G36*
X266182792Y-155170000D02*
G01*
X264910000Y-156442792D01*
X263637208Y-155170000D01*
X264910000Y-153897208D01*
X266182792Y-155170000D01*
X266182792Y-155170000D01*
G37*
D16*
X263113949Y-153373949D03*
%TD*%
%TO.C,D11*%
X255920000Y-153900000D03*
D15*
X255920000Y-156440000D03*
%TD*%
%TO.C,D12*%
X252030000Y-156230000D03*
D16*
X252030000Y-153690000D03*
%TD*%
%TO.C,D13*%
X249046051Y-153383949D03*
X247250000Y-155180000D03*
D14*
G36*
X247250000Y-156452792D02*
G01*
X245977208Y-155180000D01*
X247250000Y-153907208D01*
X248522792Y-155180000D01*
X247250000Y-156452792D01*
X247250000Y-156452792D01*
G37*
%TD*%
D16*
%TO.C,D16*%
X244540000Y-142980000D03*
D15*
X247080000Y-142980000D03*
%TD*%
%TO.C,D7*%
X265860000Y-146660000D03*
D16*
X263320000Y-146660000D03*
%TD*%
%TO.C,D6*%
X264570000Y-142970000D03*
D15*
X267110000Y-142970000D03*
%TD*%
D16*
%TO.C,D1*%
X271640000Y-126760000D03*
D15*
X274180000Y-126760000D03*
%TD*%
%TO.C,D3*%
X276400000Y-134630000D03*
D16*
X273860000Y-134630000D03*
%TD*%
%TO.C,D4*%
X270280000Y-136910000D03*
D15*
X272820000Y-136910000D03*
%TD*%
%TO.C,D2*%
X275830000Y-130570000D03*
D16*
X273290000Y-130570000D03*
%TD*%
D15*
%TO.C,D5*%
X269710000Y-139580000D03*
D16*
X267170000Y-139580000D03*
%TD*%
D15*
%TO.C,D14*%
X248630000Y-150360000D03*
D16*
X246090000Y-150360000D03*
%TD*%
D11*
%TO.C,P2*%
X239700000Y-156350000D03*
D12*
X242240000Y-156350000D03*
%TD*%
D14*
%TO.C,C1*%
G36*
X235409505Y-145416204D02*
G01*
X235433773Y-145419804D01*
X235457572Y-145425765D01*
X235480671Y-145434030D01*
X235502850Y-145444520D01*
X235523893Y-145457132D01*
X235543599Y-145471747D01*
X235561777Y-145488223D01*
X235578253Y-145506401D01*
X235592868Y-145526107D01*
X235605480Y-145547150D01*
X235615970Y-145569329D01*
X235624235Y-145592428D01*
X235630196Y-145616227D01*
X235633796Y-145640495D01*
X235635000Y-145664999D01*
X235635000Y-147415001D01*
X235633796Y-147439505D01*
X235630196Y-147463773D01*
X235624235Y-147487572D01*
X235615970Y-147510671D01*
X235605480Y-147532850D01*
X235592868Y-147553893D01*
X235578253Y-147573599D01*
X235561777Y-147591777D01*
X235543599Y-147608253D01*
X235523893Y-147622868D01*
X235502850Y-147635480D01*
X235480671Y-147645970D01*
X235457572Y-147654235D01*
X235433773Y-147660196D01*
X235409505Y-147663796D01*
X235385001Y-147665000D01*
X233534999Y-147665000D01*
X233510495Y-147663796D01*
X233486227Y-147660196D01*
X233462428Y-147654235D01*
X233439329Y-147645970D01*
X233417150Y-147635480D01*
X233396107Y-147622868D01*
X233376401Y-147608253D01*
X233358223Y-147591777D01*
X233341747Y-147573599D01*
X233327132Y-147553893D01*
X233314520Y-147532850D01*
X233304030Y-147510671D01*
X233295765Y-147487572D01*
X233289804Y-147463773D01*
X233286204Y-147439505D01*
X233285000Y-147415001D01*
X233285000Y-145664999D01*
X233286204Y-145640495D01*
X233289804Y-145616227D01*
X233295765Y-145592428D01*
X233304030Y-145569329D01*
X233314520Y-145547150D01*
X233327132Y-145526107D01*
X233341747Y-145506401D01*
X233358223Y-145488223D01*
X233376401Y-145471747D01*
X233396107Y-145457132D01*
X233417150Y-145444520D01*
X233439329Y-145434030D01*
X233462428Y-145425765D01*
X233486227Y-145419804D01*
X233510495Y-145416204D01*
X233534999Y-145415000D01*
X235385001Y-145415000D01*
X235409505Y-145416204D01*
X235409505Y-145416204D01*
G37*
D17*
X234460000Y-146540000D03*
D14*
G36*
X235409505Y-150516204D02*
G01*
X235433773Y-150519804D01*
X235457572Y-150525765D01*
X235480671Y-150534030D01*
X235502850Y-150544520D01*
X235523893Y-150557132D01*
X235543599Y-150571747D01*
X235561777Y-150588223D01*
X235578253Y-150606401D01*
X235592868Y-150626107D01*
X235605480Y-150647150D01*
X235615970Y-150669329D01*
X235624235Y-150692428D01*
X235630196Y-150716227D01*
X235633796Y-150740495D01*
X235635000Y-150764999D01*
X235635000Y-152515001D01*
X235633796Y-152539505D01*
X235630196Y-152563773D01*
X235624235Y-152587572D01*
X235615970Y-152610671D01*
X235605480Y-152632850D01*
X235592868Y-152653893D01*
X235578253Y-152673599D01*
X235561777Y-152691777D01*
X235543599Y-152708253D01*
X235523893Y-152722868D01*
X235502850Y-152735480D01*
X235480671Y-152745970D01*
X235457572Y-152754235D01*
X235433773Y-152760196D01*
X235409505Y-152763796D01*
X235385001Y-152765000D01*
X233534999Y-152765000D01*
X233510495Y-152763796D01*
X233486227Y-152760196D01*
X233462428Y-152754235D01*
X233439329Y-152745970D01*
X233417150Y-152735480D01*
X233396107Y-152722868D01*
X233376401Y-152708253D01*
X233358223Y-152691777D01*
X233341747Y-152673599D01*
X233327132Y-152653893D01*
X233314520Y-152632850D01*
X233304030Y-152610671D01*
X233295765Y-152587572D01*
X233289804Y-152563773D01*
X233286204Y-152539505D01*
X233285000Y-152515001D01*
X233285000Y-150764999D01*
X233286204Y-150740495D01*
X233289804Y-150716227D01*
X233295765Y-150692428D01*
X233304030Y-150669329D01*
X233314520Y-150647150D01*
X233327132Y-150626107D01*
X233341747Y-150606401D01*
X233358223Y-150588223D01*
X233376401Y-150571747D01*
X233396107Y-150557132D01*
X233417150Y-150544520D01*
X233439329Y-150534030D01*
X233462428Y-150525765D01*
X233486227Y-150519804D01*
X233510495Y-150516204D01*
X233534999Y-150515000D01*
X235385001Y-150515000D01*
X235409505Y-150516204D01*
X235409505Y-150516204D01*
G37*
D17*
X234460000Y-151640000D03*
%TD*%
D14*
%TO.C,F1*%
G36*
X238534505Y-153121204D02*
G01*
X238558773Y-153124804D01*
X238582572Y-153130765D01*
X238605671Y-153139030D01*
X238627850Y-153149520D01*
X238648893Y-153162132D01*
X238668599Y-153176747D01*
X238686777Y-153193223D01*
X238703253Y-153211401D01*
X238717868Y-153231107D01*
X238730480Y-153252150D01*
X238740970Y-153274329D01*
X238749235Y-153297428D01*
X238755196Y-153321227D01*
X238758796Y-153345495D01*
X238760000Y-153369999D01*
X238760000Y-154270001D01*
X238758796Y-154294505D01*
X238755196Y-154318773D01*
X238749235Y-154342572D01*
X238740970Y-154365671D01*
X238730480Y-154387850D01*
X238717868Y-154408893D01*
X238703253Y-154428599D01*
X238686777Y-154446777D01*
X238668599Y-154463253D01*
X238648893Y-154477868D01*
X238627850Y-154490480D01*
X238605671Y-154500970D01*
X238582572Y-154509235D01*
X238558773Y-154515196D01*
X238534505Y-154518796D01*
X238510001Y-154520000D01*
X237809999Y-154520000D01*
X237785495Y-154518796D01*
X237761227Y-154515196D01*
X237737428Y-154509235D01*
X237714329Y-154500970D01*
X237692150Y-154490480D01*
X237671107Y-154477868D01*
X237651401Y-154463253D01*
X237633223Y-154446777D01*
X237616747Y-154428599D01*
X237602132Y-154408893D01*
X237589520Y-154387850D01*
X237579030Y-154365671D01*
X237570765Y-154342572D01*
X237564804Y-154318773D01*
X237561204Y-154294505D01*
X237560000Y-154270001D01*
X237560000Y-153369999D01*
X237561204Y-153345495D01*
X237564804Y-153321227D01*
X237570765Y-153297428D01*
X237579030Y-153274329D01*
X237589520Y-153252150D01*
X237602132Y-153231107D01*
X237616747Y-153211401D01*
X237633223Y-153193223D01*
X237651401Y-153176747D01*
X237671107Y-153162132D01*
X237692150Y-153149520D01*
X237714329Y-153139030D01*
X237737428Y-153130765D01*
X237761227Y-153124804D01*
X237785495Y-153121204D01*
X237809999Y-153120000D01*
X238510001Y-153120000D01*
X238534505Y-153121204D01*
X238534505Y-153121204D01*
G37*
D18*
X238160000Y-153820000D03*
D14*
G36*
X240534505Y-153121204D02*
G01*
X240558773Y-153124804D01*
X240582572Y-153130765D01*
X240605671Y-153139030D01*
X240627850Y-153149520D01*
X240648893Y-153162132D01*
X240668599Y-153176747D01*
X240686777Y-153193223D01*
X240703253Y-153211401D01*
X240717868Y-153231107D01*
X240730480Y-153252150D01*
X240740970Y-153274329D01*
X240749235Y-153297428D01*
X240755196Y-153321227D01*
X240758796Y-153345495D01*
X240760000Y-153369999D01*
X240760000Y-154270001D01*
X240758796Y-154294505D01*
X240755196Y-154318773D01*
X240749235Y-154342572D01*
X240740970Y-154365671D01*
X240730480Y-154387850D01*
X240717868Y-154408893D01*
X240703253Y-154428599D01*
X240686777Y-154446777D01*
X240668599Y-154463253D01*
X240648893Y-154477868D01*
X240627850Y-154490480D01*
X240605671Y-154500970D01*
X240582572Y-154509235D01*
X240558773Y-154515196D01*
X240534505Y-154518796D01*
X240510001Y-154520000D01*
X239809999Y-154520000D01*
X239785495Y-154518796D01*
X239761227Y-154515196D01*
X239737428Y-154509235D01*
X239714329Y-154500970D01*
X239692150Y-154490480D01*
X239671107Y-154477868D01*
X239651401Y-154463253D01*
X239633223Y-154446777D01*
X239616747Y-154428599D01*
X239602132Y-154408893D01*
X239589520Y-154387850D01*
X239579030Y-154365671D01*
X239570765Y-154342572D01*
X239564804Y-154318773D01*
X239561204Y-154294505D01*
X239560000Y-154270001D01*
X239560000Y-153369999D01*
X239561204Y-153345495D01*
X239564804Y-153321227D01*
X239570765Y-153297428D01*
X239579030Y-153274329D01*
X239589520Y-153252150D01*
X239602132Y-153231107D01*
X239616747Y-153211401D01*
X239633223Y-153193223D01*
X239651401Y-153176747D01*
X239671107Y-153162132D01*
X239692150Y-153149520D01*
X239714329Y-153139030D01*
X239737428Y-153130765D01*
X239761227Y-153124804D01*
X239785495Y-153121204D01*
X239809999Y-153120000D01*
X240510001Y-153120000D01*
X240534505Y-153121204D01*
X240534505Y-153121204D01*
G37*
D18*
X240160000Y-153820000D03*
%TD*%
D14*
%TO.C,R1*%
G36*
X275624504Y-143316204D02*
G01*
X275648773Y-143319804D01*
X275672571Y-143325765D01*
X275695671Y-143334030D01*
X275717849Y-143344520D01*
X275738893Y-143357133D01*
X275758598Y-143371747D01*
X275776777Y-143388223D01*
X275793253Y-143406402D01*
X275807867Y-143426107D01*
X275820480Y-143447151D01*
X275830970Y-143469329D01*
X275839235Y-143492429D01*
X275845196Y-143516227D01*
X275848796Y-143540496D01*
X275850000Y-143565000D01*
X275850000Y-145715000D01*
X275848796Y-145739504D01*
X275845196Y-145763773D01*
X275839235Y-145787571D01*
X275830970Y-145810671D01*
X275820480Y-145832849D01*
X275807867Y-145853893D01*
X275793253Y-145873598D01*
X275776777Y-145891777D01*
X275758598Y-145908253D01*
X275738893Y-145922867D01*
X275717849Y-145935480D01*
X275695671Y-145945970D01*
X275672571Y-145954235D01*
X275648773Y-145960196D01*
X275624504Y-145963796D01*
X275600000Y-145965000D01*
X274800000Y-145965000D01*
X274775496Y-145963796D01*
X274751227Y-145960196D01*
X274727429Y-145954235D01*
X274704329Y-145945970D01*
X274682151Y-145935480D01*
X274661107Y-145922867D01*
X274641402Y-145908253D01*
X274623223Y-145891777D01*
X274606747Y-145873598D01*
X274592133Y-145853893D01*
X274579520Y-145832849D01*
X274569030Y-145810671D01*
X274560765Y-145787571D01*
X274554804Y-145763773D01*
X274551204Y-145739504D01*
X274550000Y-145715000D01*
X274550000Y-143565000D01*
X274551204Y-143540496D01*
X274554804Y-143516227D01*
X274560765Y-143492429D01*
X274569030Y-143469329D01*
X274579520Y-143447151D01*
X274592133Y-143426107D01*
X274606747Y-143406402D01*
X274623223Y-143388223D01*
X274641402Y-143371747D01*
X274661107Y-143357133D01*
X274682151Y-143344520D01*
X274704329Y-143334030D01*
X274727429Y-143325765D01*
X274751227Y-143319804D01*
X274775496Y-143316204D01*
X274800000Y-143315000D01*
X275600000Y-143315000D01*
X275624504Y-143316204D01*
X275624504Y-143316204D01*
G37*
D19*
X275200000Y-144640000D03*
D14*
G36*
X272524504Y-143316204D02*
G01*
X272548773Y-143319804D01*
X272572571Y-143325765D01*
X272595671Y-143334030D01*
X272617849Y-143344520D01*
X272638893Y-143357133D01*
X272658598Y-143371747D01*
X272676777Y-143388223D01*
X272693253Y-143406402D01*
X272707867Y-143426107D01*
X272720480Y-143447151D01*
X272730970Y-143469329D01*
X272739235Y-143492429D01*
X272745196Y-143516227D01*
X272748796Y-143540496D01*
X272750000Y-143565000D01*
X272750000Y-145715000D01*
X272748796Y-145739504D01*
X272745196Y-145763773D01*
X272739235Y-145787571D01*
X272730970Y-145810671D01*
X272720480Y-145832849D01*
X272707867Y-145853893D01*
X272693253Y-145873598D01*
X272676777Y-145891777D01*
X272658598Y-145908253D01*
X272638893Y-145922867D01*
X272617849Y-145935480D01*
X272595671Y-145945970D01*
X272572571Y-145954235D01*
X272548773Y-145960196D01*
X272524504Y-145963796D01*
X272500000Y-145965000D01*
X271700000Y-145965000D01*
X271675496Y-145963796D01*
X271651227Y-145960196D01*
X271627429Y-145954235D01*
X271604329Y-145945970D01*
X271582151Y-145935480D01*
X271561107Y-145922867D01*
X271541402Y-145908253D01*
X271523223Y-145891777D01*
X271506747Y-145873598D01*
X271492133Y-145853893D01*
X271479520Y-145832849D01*
X271469030Y-145810671D01*
X271460765Y-145787571D01*
X271454804Y-145763773D01*
X271451204Y-145739504D01*
X271450000Y-145715000D01*
X271450000Y-143565000D01*
X271451204Y-143540496D01*
X271454804Y-143516227D01*
X271460765Y-143492429D01*
X271469030Y-143469329D01*
X271479520Y-143447151D01*
X271492133Y-143426107D01*
X271506747Y-143406402D01*
X271523223Y-143388223D01*
X271541402Y-143371747D01*
X271561107Y-143357133D01*
X271582151Y-143344520D01*
X271604329Y-143334030D01*
X271627429Y-143325765D01*
X271651227Y-143319804D01*
X271675496Y-143316204D01*
X271700000Y-143315000D01*
X272500000Y-143315000D01*
X272524504Y-143316204D01*
X272524504Y-143316204D01*
G37*
D19*
X272100000Y-144640000D03*
%TD*%
D14*
%TO.C,R2*%
G36*
X244214504Y-148626204D02*
G01*
X244238773Y-148629804D01*
X244262571Y-148635765D01*
X244285671Y-148644030D01*
X244307849Y-148654520D01*
X244328893Y-148667133D01*
X244348598Y-148681747D01*
X244366777Y-148698223D01*
X244383253Y-148716402D01*
X244397867Y-148736107D01*
X244410480Y-148757151D01*
X244420970Y-148779329D01*
X244429235Y-148802429D01*
X244435196Y-148826227D01*
X244438796Y-148850496D01*
X244440000Y-148875000D01*
X244440000Y-151025000D01*
X244438796Y-151049504D01*
X244435196Y-151073773D01*
X244429235Y-151097571D01*
X244420970Y-151120671D01*
X244410480Y-151142849D01*
X244397867Y-151163893D01*
X244383253Y-151183598D01*
X244366777Y-151201777D01*
X244348598Y-151218253D01*
X244328893Y-151232867D01*
X244307849Y-151245480D01*
X244285671Y-151255970D01*
X244262571Y-151264235D01*
X244238773Y-151270196D01*
X244214504Y-151273796D01*
X244190000Y-151275000D01*
X243390000Y-151275000D01*
X243365496Y-151273796D01*
X243341227Y-151270196D01*
X243317429Y-151264235D01*
X243294329Y-151255970D01*
X243272151Y-151245480D01*
X243251107Y-151232867D01*
X243231402Y-151218253D01*
X243213223Y-151201777D01*
X243196747Y-151183598D01*
X243182133Y-151163893D01*
X243169520Y-151142849D01*
X243159030Y-151120671D01*
X243150765Y-151097571D01*
X243144804Y-151073773D01*
X243141204Y-151049504D01*
X243140000Y-151025000D01*
X243140000Y-148875000D01*
X243141204Y-148850496D01*
X243144804Y-148826227D01*
X243150765Y-148802429D01*
X243159030Y-148779329D01*
X243169520Y-148757151D01*
X243182133Y-148736107D01*
X243196747Y-148716402D01*
X243213223Y-148698223D01*
X243231402Y-148681747D01*
X243251107Y-148667133D01*
X243272151Y-148654520D01*
X243294329Y-148644030D01*
X243317429Y-148635765D01*
X243341227Y-148629804D01*
X243365496Y-148626204D01*
X243390000Y-148625000D01*
X244190000Y-148625000D01*
X244214504Y-148626204D01*
X244214504Y-148626204D01*
G37*
D19*
X243790000Y-149950000D03*
D14*
G36*
X241114504Y-148626204D02*
G01*
X241138773Y-148629804D01*
X241162571Y-148635765D01*
X241185671Y-148644030D01*
X241207849Y-148654520D01*
X241228893Y-148667133D01*
X241248598Y-148681747D01*
X241266777Y-148698223D01*
X241283253Y-148716402D01*
X241297867Y-148736107D01*
X241310480Y-148757151D01*
X241320970Y-148779329D01*
X241329235Y-148802429D01*
X241335196Y-148826227D01*
X241338796Y-148850496D01*
X241340000Y-148875000D01*
X241340000Y-151025000D01*
X241338796Y-151049504D01*
X241335196Y-151073773D01*
X241329235Y-151097571D01*
X241320970Y-151120671D01*
X241310480Y-151142849D01*
X241297867Y-151163893D01*
X241283253Y-151183598D01*
X241266777Y-151201777D01*
X241248598Y-151218253D01*
X241228893Y-151232867D01*
X241207849Y-151245480D01*
X241185671Y-151255970D01*
X241162571Y-151264235D01*
X241138773Y-151270196D01*
X241114504Y-151273796D01*
X241090000Y-151275000D01*
X240290000Y-151275000D01*
X240265496Y-151273796D01*
X240241227Y-151270196D01*
X240217429Y-151264235D01*
X240194329Y-151255970D01*
X240172151Y-151245480D01*
X240151107Y-151232867D01*
X240131402Y-151218253D01*
X240113223Y-151201777D01*
X240096747Y-151183598D01*
X240082133Y-151163893D01*
X240069520Y-151142849D01*
X240059030Y-151120671D01*
X240050765Y-151097571D01*
X240044804Y-151073773D01*
X240041204Y-151049504D01*
X240040000Y-151025000D01*
X240040000Y-148875000D01*
X240041204Y-148850496D01*
X240044804Y-148826227D01*
X240050765Y-148802429D01*
X240059030Y-148779329D01*
X240069520Y-148757151D01*
X240082133Y-148736107D01*
X240096747Y-148716402D01*
X240113223Y-148698223D01*
X240131402Y-148681747D01*
X240151107Y-148667133D01*
X240172151Y-148654520D01*
X240194329Y-148644030D01*
X240217429Y-148635765D01*
X240241227Y-148629804D01*
X240265496Y-148626204D01*
X240290000Y-148625000D01*
X241090000Y-148625000D01*
X241114504Y-148626204D01*
X241114504Y-148626204D01*
G37*
D19*
X240690000Y-149950000D03*
%TD*%
D14*
%TO.C,R3*%
G36*
X237219504Y-119921204D02*
G01*
X237243773Y-119924804D01*
X237267571Y-119930765D01*
X237290671Y-119939030D01*
X237312849Y-119949520D01*
X237333893Y-119962133D01*
X237353598Y-119976747D01*
X237371777Y-119993223D01*
X237388253Y-120011402D01*
X237402867Y-120031107D01*
X237415480Y-120052151D01*
X237425970Y-120074329D01*
X237434235Y-120097429D01*
X237440196Y-120121227D01*
X237443796Y-120145496D01*
X237445000Y-120170000D01*
X237445000Y-120970000D01*
X237443796Y-120994504D01*
X237440196Y-121018773D01*
X237434235Y-121042571D01*
X237425970Y-121065671D01*
X237415480Y-121087849D01*
X237402867Y-121108893D01*
X237388253Y-121128598D01*
X237371777Y-121146777D01*
X237353598Y-121163253D01*
X237333893Y-121177867D01*
X237312849Y-121190480D01*
X237290671Y-121200970D01*
X237267571Y-121209235D01*
X237243773Y-121215196D01*
X237219504Y-121218796D01*
X237195000Y-121220000D01*
X235045000Y-121220000D01*
X235020496Y-121218796D01*
X234996227Y-121215196D01*
X234972429Y-121209235D01*
X234949329Y-121200970D01*
X234927151Y-121190480D01*
X234906107Y-121177867D01*
X234886402Y-121163253D01*
X234868223Y-121146777D01*
X234851747Y-121128598D01*
X234837133Y-121108893D01*
X234824520Y-121087849D01*
X234814030Y-121065671D01*
X234805765Y-121042571D01*
X234799804Y-121018773D01*
X234796204Y-120994504D01*
X234795000Y-120970000D01*
X234795000Y-120170000D01*
X234796204Y-120145496D01*
X234799804Y-120121227D01*
X234805765Y-120097429D01*
X234814030Y-120074329D01*
X234824520Y-120052151D01*
X234837133Y-120031107D01*
X234851747Y-120011402D01*
X234868223Y-119993223D01*
X234886402Y-119976747D01*
X234906107Y-119962133D01*
X234927151Y-119949520D01*
X234949329Y-119939030D01*
X234972429Y-119930765D01*
X234996227Y-119924804D01*
X235020496Y-119921204D01*
X235045000Y-119920000D01*
X237195000Y-119920000D01*
X237219504Y-119921204D01*
X237219504Y-119921204D01*
G37*
D19*
X236120000Y-120570000D03*
D14*
G36*
X237219504Y-123021204D02*
G01*
X237243773Y-123024804D01*
X237267571Y-123030765D01*
X237290671Y-123039030D01*
X237312849Y-123049520D01*
X237333893Y-123062133D01*
X237353598Y-123076747D01*
X237371777Y-123093223D01*
X237388253Y-123111402D01*
X237402867Y-123131107D01*
X237415480Y-123152151D01*
X237425970Y-123174329D01*
X237434235Y-123197429D01*
X237440196Y-123221227D01*
X237443796Y-123245496D01*
X237445000Y-123270000D01*
X237445000Y-124070000D01*
X237443796Y-124094504D01*
X237440196Y-124118773D01*
X237434235Y-124142571D01*
X237425970Y-124165671D01*
X237415480Y-124187849D01*
X237402867Y-124208893D01*
X237388253Y-124228598D01*
X237371777Y-124246777D01*
X237353598Y-124263253D01*
X237333893Y-124277867D01*
X237312849Y-124290480D01*
X237290671Y-124300970D01*
X237267571Y-124309235D01*
X237243773Y-124315196D01*
X237219504Y-124318796D01*
X237195000Y-124320000D01*
X235045000Y-124320000D01*
X235020496Y-124318796D01*
X234996227Y-124315196D01*
X234972429Y-124309235D01*
X234949329Y-124300970D01*
X234927151Y-124290480D01*
X234906107Y-124277867D01*
X234886402Y-124263253D01*
X234868223Y-124246777D01*
X234851747Y-124228598D01*
X234837133Y-124208893D01*
X234824520Y-124187849D01*
X234814030Y-124165671D01*
X234805765Y-124142571D01*
X234799804Y-124118773D01*
X234796204Y-124094504D01*
X234795000Y-124070000D01*
X234795000Y-123270000D01*
X234796204Y-123245496D01*
X234799804Y-123221227D01*
X234805765Y-123197429D01*
X234814030Y-123174329D01*
X234824520Y-123152151D01*
X234837133Y-123131107D01*
X234851747Y-123111402D01*
X234868223Y-123093223D01*
X234886402Y-123076747D01*
X234906107Y-123062133D01*
X234927151Y-123049520D01*
X234949329Y-123039030D01*
X234972429Y-123030765D01*
X234996227Y-123024804D01*
X235020496Y-123021204D01*
X235045000Y-123020000D01*
X237195000Y-123020000D01*
X237219504Y-123021204D01*
X237219504Y-123021204D01*
G37*
D19*
X236120000Y-123670000D03*
%TD*%
D14*
%TO.C,R4*%
G36*
X273514504Y-118630204D02*
G01*
X273538773Y-118633804D01*
X273562571Y-118639765D01*
X273585671Y-118648030D01*
X273607849Y-118658520D01*
X273628893Y-118671133D01*
X273648598Y-118685747D01*
X273666777Y-118702223D01*
X273683253Y-118720402D01*
X273697867Y-118740107D01*
X273710480Y-118761151D01*
X273720970Y-118783329D01*
X273729235Y-118806429D01*
X273735196Y-118830227D01*
X273738796Y-118854496D01*
X273740000Y-118879000D01*
X273740000Y-119679000D01*
X273738796Y-119703504D01*
X273735196Y-119727773D01*
X273729235Y-119751571D01*
X273720970Y-119774671D01*
X273710480Y-119796849D01*
X273697867Y-119817893D01*
X273683253Y-119837598D01*
X273666777Y-119855777D01*
X273648598Y-119872253D01*
X273628893Y-119886867D01*
X273607849Y-119899480D01*
X273585671Y-119909970D01*
X273562571Y-119918235D01*
X273538773Y-119924196D01*
X273514504Y-119927796D01*
X273490000Y-119929000D01*
X271340000Y-119929000D01*
X271315496Y-119927796D01*
X271291227Y-119924196D01*
X271267429Y-119918235D01*
X271244329Y-119909970D01*
X271222151Y-119899480D01*
X271201107Y-119886867D01*
X271181402Y-119872253D01*
X271163223Y-119855777D01*
X271146747Y-119837598D01*
X271132133Y-119817893D01*
X271119520Y-119796849D01*
X271109030Y-119774671D01*
X271100765Y-119751571D01*
X271094804Y-119727773D01*
X271091204Y-119703504D01*
X271090000Y-119679000D01*
X271090000Y-118879000D01*
X271091204Y-118854496D01*
X271094804Y-118830227D01*
X271100765Y-118806429D01*
X271109030Y-118783329D01*
X271119520Y-118761151D01*
X271132133Y-118740107D01*
X271146747Y-118720402D01*
X271163223Y-118702223D01*
X271181402Y-118685747D01*
X271201107Y-118671133D01*
X271222151Y-118658520D01*
X271244329Y-118648030D01*
X271267429Y-118639765D01*
X271291227Y-118633804D01*
X271315496Y-118630204D01*
X271340000Y-118629000D01*
X273490000Y-118629000D01*
X273514504Y-118630204D01*
X273514504Y-118630204D01*
G37*
D19*
X272415000Y-119279000D03*
D14*
G36*
X273514504Y-115530204D02*
G01*
X273538773Y-115533804D01*
X273562571Y-115539765D01*
X273585671Y-115548030D01*
X273607849Y-115558520D01*
X273628893Y-115571133D01*
X273648598Y-115585747D01*
X273666777Y-115602223D01*
X273683253Y-115620402D01*
X273697867Y-115640107D01*
X273710480Y-115661151D01*
X273720970Y-115683329D01*
X273729235Y-115706429D01*
X273735196Y-115730227D01*
X273738796Y-115754496D01*
X273740000Y-115779000D01*
X273740000Y-116579000D01*
X273738796Y-116603504D01*
X273735196Y-116627773D01*
X273729235Y-116651571D01*
X273720970Y-116674671D01*
X273710480Y-116696849D01*
X273697867Y-116717893D01*
X273683253Y-116737598D01*
X273666777Y-116755777D01*
X273648598Y-116772253D01*
X273628893Y-116786867D01*
X273607849Y-116799480D01*
X273585671Y-116809970D01*
X273562571Y-116818235D01*
X273538773Y-116824196D01*
X273514504Y-116827796D01*
X273490000Y-116829000D01*
X271340000Y-116829000D01*
X271315496Y-116827796D01*
X271291227Y-116824196D01*
X271267429Y-116818235D01*
X271244329Y-116809970D01*
X271222151Y-116799480D01*
X271201107Y-116786867D01*
X271181402Y-116772253D01*
X271163223Y-116755777D01*
X271146747Y-116737598D01*
X271132133Y-116717893D01*
X271119520Y-116696849D01*
X271109030Y-116674671D01*
X271100765Y-116651571D01*
X271094804Y-116627773D01*
X271091204Y-116603504D01*
X271090000Y-116579000D01*
X271090000Y-115779000D01*
X271091204Y-115754496D01*
X271094804Y-115730227D01*
X271100765Y-115706429D01*
X271109030Y-115683329D01*
X271119520Y-115661151D01*
X271132133Y-115640107D01*
X271146747Y-115620402D01*
X271163223Y-115602223D01*
X271181402Y-115585747D01*
X271201107Y-115571133D01*
X271222151Y-115558520D01*
X271244329Y-115548030D01*
X271267429Y-115539765D01*
X271291227Y-115533804D01*
X271315496Y-115530204D01*
X271340000Y-115529000D01*
X273490000Y-115529000D01*
X273514504Y-115530204D01*
X273514504Y-115530204D01*
G37*
D19*
X272415000Y-116179000D03*
%TD*%
D15*
%TO.C,D15*%
X248290000Y-146640000D03*
D16*
X245750000Y-146640000D03*
%TD*%
%TO.C,D17*%
X241940000Y-139590000D03*
D15*
X244480000Y-139590000D03*
%TD*%
%TO.C,D18*%
X241380000Y-136920000D03*
D16*
X238840000Y-136920000D03*
%TD*%
D15*
%TO.C,D19*%
X237790000Y-134640000D03*
D16*
X235250000Y-134640000D03*
%TD*%
D15*
%TO.C,D20*%
X238360000Y-130580000D03*
D16*
X235820000Y-130580000D03*
%TD*%
%TO.C,D21*%
X237470000Y-126770000D03*
D15*
X240010000Y-126770000D03*
%TD*%
D16*
%TO.C,D22*%
X240060000Y-123650000D03*
D15*
X242600000Y-123650000D03*
%TD*%
%TO.C,D23*%
X245270000Y-120510000D03*
D16*
X242730000Y-120510000D03*
%TD*%
%TO.C,D24*%
X248378731Y-120773181D03*
X247510000Y-123160000D03*
D14*
G36*
X248047905Y-124313541D02*
G01*
X246356459Y-123697905D01*
X246972095Y-122006459D01*
X248663541Y-122622095D01*
X248047905Y-124313541D01*
X248047905Y-124313541D01*
G37*
%TD*%
D16*
%TO.C,D25*%
X252151066Y-122108588D03*
X251710000Y-124610000D03*
D14*
G36*
X252440044Y-125652610D02*
G01*
X250667390Y-125340044D01*
X250979956Y-123567390D01*
X252752610Y-123879956D01*
X252440044Y-125652610D01*
X252440044Y-125652610D01*
G37*
%TD*%
D15*
%TO.C,D26*%
X256070000Y-125080000D03*
D16*
X256070000Y-122540000D03*
%TD*%
%TO.C,D27*%
X260440000Y-124430000D03*
D14*
G36*
X261593541Y-124967905D02*
G01*
X259902095Y-125583541D01*
X259286459Y-123892095D01*
X260977905Y-123276459D01*
X261593541Y-124967905D01*
X261593541Y-124967905D01*
G37*
D16*
X259571269Y-122043181D03*
%TD*%
%TO.C,D30*%
X269020000Y-123610000D03*
D15*
X271560000Y-123610000D03*
%TD*%
%TO.C,D31*%
X269780000Y-129290000D03*
D16*
X267240000Y-129290000D03*
%TD*%
%TO.C,D8*%
X263010000Y-150450000D03*
D15*
X265550000Y-150450000D03*
%TD*%
%TO.C,D10*%
X260020000Y-156260000D03*
D16*
X260020000Y-153720000D03*
%TD*%
%TO.C,D28*%
X264450000Y-122980000D03*
D14*
G36*
X265679423Y-123309423D02*
G01*
X264120577Y-124209423D01*
X263220577Y-122650577D01*
X264779423Y-121750577D01*
X265679423Y-123309423D01*
X265679423Y-123309423D01*
G37*
D16*
X263180000Y-120780295D03*
%TD*%
M02*
