M48
; DRILL file {KiCad (5.1.7)-1} date 11/20/20 15:05:30
; FORMAT={-:-/ absolute / inch / decimal}
; #@! TF.CreationDate,2020-11-20T15:05:30+02:00
; #@! TF.GenerationSoftware,Kicad,Pcbnew,(5.1.7)-1
; #@! TF.FileFunction,Plated,1,2,PTH
FMAT,2
INCH
T1C0.0276
T2C0.0354
T3C0.0394
%
G90
G05
T1
X2.4209Y-5.5693
X2.5035Y-5.7331
X2.6524Y-5.5728
X2.7063Y-4.9835
X2.7319Y-5.061
X2.8012Y-5.3587
X2.8551Y-6.1929
X2.9945Y-5.2641
X3.142Y-5.2062
X3.1457Y-5.1394
X3.2071Y-6.1024
X3.2803Y-5.0748
X3.3583Y-5.565
X3.3823Y-6.2535
X3.5907Y-5.5783
X3.6476Y-6.4138
X3.6638Y-4.885
X3.8549Y-6.1896
X3.8677Y-5.3827
X4.0209Y-4.8665
X4.0591Y-5.0177
X4.0717Y-4.7657
X4.0748Y-5.8701
X4.1382Y-5.587
X4.1591Y-5.3909
X4.2488Y-5.5245
X4.2941Y-4.9362
X4.3035Y-5.1256
X4.3614Y-4.9449
X4.3681Y-5.1472
X4.4114Y-5.2421
X4.4732Y-5.0248
T2
X3.3193Y-5.8402
X3.4193Y-5.8402
X3.1248Y-6.2504
X3.2248Y-6.2504
X3.3201Y-6.135
X3.4201Y-6.135
X3.7228Y-5.6303
X3.7228Y-5.7303
X3.5402Y-5.2449
X3.6402Y-5.2449
X3.2752Y-4.885
X3.3752Y-4.885
X3.4902Y-5.6323
X3.4902Y-5.7323
X4.0846Y-5.6803
X4.1846Y-5.6803
X3.7106Y-5.9051
X3.8106Y-5.9051
X2.885Y-5.1197
X2.985Y-5.1197
X3.3193Y-5.2992
X3.4193Y-5.2992
X3.0799Y-5.2957
X3.1799Y-5.2957
X2.7248Y-5.6799
X2.8248Y-5.6799
X3.2Y-5.4551
X3.3Y-5.4551
X3.8969Y-5.8016
X3.9969Y-5.8016
X3.4047Y-5.0602
X3.5047Y-5.0602
X3.4866Y-5.4063
X3.4866Y-5.5063
X3.0748Y-5.8406
X3.1748Y-5.8406
X3.6748Y-5.4547
X3.7748Y-5.4547
X2.315Y-5.4551
X2.415Y-5.4551
X2.9398Y-5.4547
X3.0398Y-5.4547
X2.7276Y-5.4547
X2.8276Y-5.4547
X3.515Y-6.015
X3.615Y-6.015
X3.2Y-5.6803
X3.3Y-5.6803
X2.6902Y-5.2303
X2.7902Y-5.2303
X2.5102Y-5.4551
X2.6102Y-5.4551
X2.95Y-5.6803
X3.05Y-5.6803
X2.8598Y-5.889
X2.9598Y-5.889
X3.8902Y-5.6803
X3.9902Y-5.6803
X2.9953Y-6.0752
X3.0953Y-6.0752
X3.0799Y-5.0
X3.1799Y-5.0
X2.5051Y-5.3402
X2.6051Y-5.3402
T3
X4.5114Y-6.0394
X4.6114Y-6.0394
X4.7236Y-5.6354
X4.7236Y-5.7354
T0
M30
