%TF.GenerationSoftware,KiCad,Pcbnew,(5.1.4)-1*%
%TF.CreationDate,2020-11-17T10:49:43+02:00*%
%TF.ProjectId,prose,70726f73-652e-46b6-9963-61645f706362,rev?*%
%TF.SameCoordinates,Original*%
%TF.FileFunction,Copper,L1,Top*%
%TF.FilePolarity,Positive*%
%FSLAX46Y46*%
G04 Gerber Fmt 4.6, Leading zero omitted, Abs format (unit mm)*
G04 Created by KiCad (PCBNEW (5.1.4)-1) date 2020-11-17 10:49:43*
%MOMM*%
%LPD*%
G04 APERTURE LIST*
%TA.AperFunction,NonConductor*%
%ADD10C,0.300000*%
%TD*%
%TA.AperFunction,Conductor*%
%ADD11C,0.150000*%
%TD*%
%TA.AperFunction,SMDPad,CuDef*%
%ADD12C,1.300000*%
%TD*%
%TA.AperFunction,ComponentPad*%
%ADD13R,1.800000X1.800000*%
%TD*%
%TA.AperFunction,ComponentPad*%
%ADD14C,1.800000*%
%TD*%
%TA.AperFunction,SMDPad,CuDef*%
%ADD15R,1.750000X0.600000*%
%TD*%
%TA.AperFunction,ComponentPad*%
%ADD16R,1.700000X1.700000*%
%TD*%
%TA.AperFunction,ComponentPad*%
%ADD17O,1.700000X1.700000*%
%TD*%
%TA.AperFunction,SMDPad,CuDef*%
%ADD18C,2.250000*%
%TD*%
%TA.AperFunction,SMDPad,CuDef*%
%ADD19C,1.200000*%
%TD*%
%TA.AperFunction,SMDPad,CuDef*%
%ADD20R,1.524000X1.524000*%
%TD*%
%TA.AperFunction,ViaPad*%
%ADD21C,1.400000*%
%TD*%
%TA.AperFunction,Conductor*%
%ADD22C,0.400000*%
%TD*%
%TA.AperFunction,Conductor*%
%ADD23C,0.254000*%
%TD*%
G04 APERTURE END LIST*
D10*
X80178571Y-53527142D02*
X81321428Y-53527142D01*
X80750000Y-54098571D02*
X80750000Y-52955714D01*
X84018571Y-53937142D02*
X85161428Y-53937142D01*
D11*
%TO.N,Net-(IC1-Pad18)*%
%TO.C,R3*%
G36*
X91309504Y-77251204D02*
G01*
X91333773Y-77254804D01*
X91357571Y-77260765D01*
X91380671Y-77269030D01*
X91402849Y-77279520D01*
X91423893Y-77292133D01*
X91443598Y-77306747D01*
X91461777Y-77323223D01*
X91478253Y-77341402D01*
X91492867Y-77361107D01*
X91505480Y-77382151D01*
X91515970Y-77404329D01*
X91524235Y-77427429D01*
X91530196Y-77451227D01*
X91533796Y-77475496D01*
X91535000Y-77500000D01*
X91535000Y-78300000D01*
X91533796Y-78324504D01*
X91530196Y-78348773D01*
X91524235Y-78372571D01*
X91515970Y-78395671D01*
X91505480Y-78417849D01*
X91492867Y-78438893D01*
X91478253Y-78458598D01*
X91461777Y-78476777D01*
X91443598Y-78493253D01*
X91423893Y-78507867D01*
X91402849Y-78520480D01*
X91380671Y-78530970D01*
X91357571Y-78539235D01*
X91333773Y-78545196D01*
X91309504Y-78548796D01*
X91285000Y-78550000D01*
X89135000Y-78550000D01*
X89110496Y-78548796D01*
X89086227Y-78545196D01*
X89062429Y-78539235D01*
X89039329Y-78530970D01*
X89017151Y-78520480D01*
X88996107Y-78507867D01*
X88976402Y-78493253D01*
X88958223Y-78476777D01*
X88941747Y-78458598D01*
X88927133Y-78438893D01*
X88914520Y-78417849D01*
X88904030Y-78395671D01*
X88895765Y-78372571D01*
X88889804Y-78348773D01*
X88886204Y-78324504D01*
X88885000Y-78300000D01*
X88885000Y-77500000D01*
X88886204Y-77475496D01*
X88889804Y-77451227D01*
X88895765Y-77427429D01*
X88904030Y-77404329D01*
X88914520Y-77382151D01*
X88927133Y-77361107D01*
X88941747Y-77341402D01*
X88958223Y-77323223D01*
X88976402Y-77306747D01*
X88996107Y-77292133D01*
X89017151Y-77279520D01*
X89039329Y-77269030D01*
X89062429Y-77260765D01*
X89086227Y-77254804D01*
X89110496Y-77251204D01*
X89135000Y-77250000D01*
X91285000Y-77250000D01*
X91309504Y-77251204D01*
X91309504Y-77251204D01*
G37*
D12*
%TD*%
%TO.P,R3,1*%
%TO.N,Net-(IC1-Pad18)*%
X90210000Y-77900000D03*
D11*
%TO.N,Net-(D17-Pad2)*%
%TO.C,R3*%
G36*
X91309504Y-80351204D02*
G01*
X91333773Y-80354804D01*
X91357571Y-80360765D01*
X91380671Y-80369030D01*
X91402849Y-80379520D01*
X91423893Y-80392133D01*
X91443598Y-80406747D01*
X91461777Y-80423223D01*
X91478253Y-80441402D01*
X91492867Y-80461107D01*
X91505480Y-80482151D01*
X91515970Y-80504329D01*
X91524235Y-80527429D01*
X91530196Y-80551227D01*
X91533796Y-80575496D01*
X91535000Y-80600000D01*
X91535000Y-81400000D01*
X91533796Y-81424504D01*
X91530196Y-81448773D01*
X91524235Y-81472571D01*
X91515970Y-81495671D01*
X91505480Y-81517849D01*
X91492867Y-81538893D01*
X91478253Y-81558598D01*
X91461777Y-81576777D01*
X91443598Y-81593253D01*
X91423893Y-81607867D01*
X91402849Y-81620480D01*
X91380671Y-81630970D01*
X91357571Y-81639235D01*
X91333773Y-81645196D01*
X91309504Y-81648796D01*
X91285000Y-81650000D01*
X89135000Y-81650000D01*
X89110496Y-81648796D01*
X89086227Y-81645196D01*
X89062429Y-81639235D01*
X89039329Y-81630970D01*
X89017151Y-81620480D01*
X88996107Y-81607867D01*
X88976402Y-81593253D01*
X88958223Y-81576777D01*
X88941747Y-81558598D01*
X88927133Y-81538893D01*
X88914520Y-81517849D01*
X88904030Y-81495671D01*
X88895765Y-81472571D01*
X88889804Y-81448773D01*
X88886204Y-81424504D01*
X88885000Y-81400000D01*
X88885000Y-80600000D01*
X88886204Y-80575496D01*
X88889804Y-80551227D01*
X88895765Y-80527429D01*
X88904030Y-80504329D01*
X88914520Y-80482151D01*
X88927133Y-80461107D01*
X88941747Y-80441402D01*
X88958223Y-80423223D01*
X88976402Y-80406747D01*
X88996107Y-80392133D01*
X89017151Y-80379520D01*
X89039329Y-80369030D01*
X89062429Y-80360765D01*
X89086227Y-80354804D01*
X89110496Y-80351204D01*
X89135000Y-80350000D01*
X91285000Y-80350000D01*
X91309504Y-80351204D01*
X91309504Y-80351204D01*
G37*
D12*
%TD*%
%TO.P,R3,2*%
%TO.N,Net-(D17-Pad2)*%
X90210000Y-81000000D03*
D13*
%TO.P,D21,1*%
%TO.N,Net-(D13-Pad1)*%
X88390000Y-63070000D03*
D14*
%TO.P,D21,2*%
%TO.N,Net-(D17-Pad2)*%
X85850000Y-63070000D03*
%TD*%
%TO.P,D18,2*%
%TO.N,Net-(D17-Pad2)*%
X83040000Y-78180000D03*
D13*
%TO.P,D18,1*%
%TO.N,Net-(D10-Pad1)*%
X85580000Y-78180000D03*
%TD*%
D15*
%TO.P,IC1,20*%
%TO.N,Net-(IC1-Pad20)*%
X75295000Y-101505000D03*
%TO.P,IC1,19*%
%TO.N,Net-(IC1-Pad19)*%
X75295000Y-100235000D03*
%TO.P,IC1,18*%
%TO.N,Net-(IC1-Pad18)*%
X75295000Y-98965000D03*
%TO.P,IC1,17*%
%TO.N,Net-(IC1-Pad17)*%
X75295000Y-97695000D03*
%TO.P,IC1,16*%
%TO.N,GND*%
X75295000Y-96425000D03*
%TO.P,IC1,15*%
%TO.N,VCC*%
X75295000Y-95155000D03*
%TO.P,IC1,14*%
%TO.N,Net-(D1-Pad1)*%
X75295000Y-93885000D03*
%TO.P,IC1,13*%
%TO.N,Net-(D10-Pad1)*%
X75295000Y-92615000D03*
%TO.P,IC1,12*%
%TO.N,Net-(D11-Pad1)*%
X75295000Y-91345000D03*
%TO.P,IC1,11*%
%TO.N,Net-(D12-Pad1)*%
X75295000Y-90075000D03*
%TO.P,IC1,10*%
%TO.N,Net-(IC1-Pad10)*%
X85045000Y-90075000D03*
%TO.P,IC1,9*%
%TO.N,Net-(IC1-Pad9)*%
X85045000Y-91345000D03*
%TO.P,IC1,8*%
%TO.N,Net-(D15-Pad1)*%
X85045000Y-92615000D03*
%TO.P,IC1,7*%
%TO.N,Net-(D14-Pad1)*%
X85045000Y-93885000D03*
%TO.P,IC1,1*%
%TO.N,Net-(IC1-Pad1)*%
X85045000Y-101505000D03*
%TO.P,IC1,2*%
%TO.N,Net-(IC1-Pad2)*%
X85045000Y-100235000D03*
%TO.P,IC1,3*%
%TO.N,Net-(D16-Pad1)*%
X85045000Y-98965000D03*
%TO.P,IC1,4*%
%TO.N,Net-(D13-Pad1)*%
X85045000Y-97695000D03*
%TO.P,IC1,5*%
%TO.N,VCC*%
X85045000Y-96425000D03*
%TO.P,IC1,6*%
%TO.N,GND*%
X85045000Y-95155000D03*
%TD*%
D16*
%TO.P,P2,1*%
%TO.N,GND*%
X75960000Y-52160000D03*
D17*
%TO.P,P2,2*%
%TO.N,Net-(F1-Pad2)*%
X73420000Y-52160000D03*
%TD*%
D13*
%TO.P,D5,1*%
%TO.N,Net-(D13-Pad1)*%
X49784000Y-73406000D03*
D14*
%TO.P,D5,2*%
%TO.N,Net-(D1-Pad2)*%
X47244000Y-73406000D03*
%TD*%
D11*
%TO.N,VCC*%
%TO.C,C1*%
G36*
X92349505Y-67276204D02*
G01*
X92373773Y-67279804D01*
X92397572Y-67285765D01*
X92420671Y-67294030D01*
X92442850Y-67304520D01*
X92463893Y-67317132D01*
X92483599Y-67331747D01*
X92501777Y-67348223D01*
X92518253Y-67366401D01*
X92532868Y-67386107D01*
X92545480Y-67407150D01*
X92555970Y-67429329D01*
X92564235Y-67452428D01*
X92570196Y-67476227D01*
X92573796Y-67500495D01*
X92575000Y-67524999D01*
X92575000Y-69275001D01*
X92573796Y-69299505D01*
X92570196Y-69323773D01*
X92564235Y-69347572D01*
X92555970Y-69370671D01*
X92545480Y-69392850D01*
X92532868Y-69413893D01*
X92518253Y-69433599D01*
X92501777Y-69451777D01*
X92483599Y-69468253D01*
X92463893Y-69482868D01*
X92442850Y-69495480D01*
X92420671Y-69505970D01*
X92397572Y-69514235D01*
X92373773Y-69520196D01*
X92349505Y-69523796D01*
X92325001Y-69525000D01*
X90474999Y-69525000D01*
X90450495Y-69523796D01*
X90426227Y-69520196D01*
X90402428Y-69514235D01*
X90379329Y-69505970D01*
X90357150Y-69495480D01*
X90336107Y-69482868D01*
X90316401Y-69468253D01*
X90298223Y-69451777D01*
X90281747Y-69433599D01*
X90267132Y-69413893D01*
X90254520Y-69392850D01*
X90244030Y-69370671D01*
X90235765Y-69347572D01*
X90229804Y-69323773D01*
X90226204Y-69299505D01*
X90225000Y-69275001D01*
X90225000Y-67524999D01*
X90226204Y-67500495D01*
X90229804Y-67476227D01*
X90235765Y-67452428D01*
X90244030Y-67429329D01*
X90254520Y-67407150D01*
X90267132Y-67386107D01*
X90281747Y-67366401D01*
X90298223Y-67348223D01*
X90316401Y-67331747D01*
X90336107Y-67317132D01*
X90357150Y-67304520D01*
X90379329Y-67294030D01*
X90402428Y-67285765D01*
X90426227Y-67279804D01*
X90450495Y-67276204D01*
X90474999Y-67275000D01*
X92325001Y-67275000D01*
X92349505Y-67276204D01*
X92349505Y-67276204D01*
G37*
D18*
%TD*%
%TO.P,C1,1*%
%TO.N,VCC*%
X91400000Y-68400000D03*
D11*
%TO.N,GND*%
%TO.C,C1*%
G36*
X92349505Y-72376204D02*
G01*
X92373773Y-72379804D01*
X92397572Y-72385765D01*
X92420671Y-72394030D01*
X92442850Y-72404520D01*
X92463893Y-72417132D01*
X92483599Y-72431747D01*
X92501777Y-72448223D01*
X92518253Y-72466401D01*
X92532868Y-72486107D01*
X92545480Y-72507150D01*
X92555970Y-72529329D01*
X92564235Y-72552428D01*
X92570196Y-72576227D01*
X92573796Y-72600495D01*
X92575000Y-72624999D01*
X92575000Y-74375001D01*
X92573796Y-74399505D01*
X92570196Y-74423773D01*
X92564235Y-74447572D01*
X92555970Y-74470671D01*
X92545480Y-74492850D01*
X92532868Y-74513893D01*
X92518253Y-74533599D01*
X92501777Y-74551777D01*
X92483599Y-74568253D01*
X92463893Y-74582868D01*
X92442850Y-74595480D01*
X92420671Y-74605970D01*
X92397572Y-74614235D01*
X92373773Y-74620196D01*
X92349505Y-74623796D01*
X92325001Y-74625000D01*
X90474999Y-74625000D01*
X90450495Y-74623796D01*
X90426227Y-74620196D01*
X90402428Y-74614235D01*
X90379329Y-74605970D01*
X90357150Y-74595480D01*
X90336107Y-74582868D01*
X90316401Y-74568253D01*
X90298223Y-74551777D01*
X90281747Y-74533599D01*
X90267132Y-74513893D01*
X90254520Y-74492850D01*
X90244030Y-74470671D01*
X90235765Y-74447572D01*
X90229804Y-74423773D01*
X90226204Y-74399505D01*
X90225000Y-74375001D01*
X90225000Y-72624999D01*
X90226204Y-72600495D01*
X90229804Y-72576227D01*
X90235765Y-72552428D01*
X90244030Y-72529329D01*
X90254520Y-72507150D01*
X90267132Y-72486107D01*
X90281747Y-72466401D01*
X90298223Y-72448223D01*
X90316401Y-72431747D01*
X90336107Y-72417132D01*
X90357150Y-72404520D01*
X90379329Y-72394030D01*
X90402428Y-72385765D01*
X90426227Y-72379804D01*
X90450495Y-72376204D01*
X90474999Y-72375000D01*
X92325001Y-72375000D01*
X92349505Y-72376204D01*
X92349505Y-72376204D01*
G37*
D18*
%TD*%
%TO.P,C1,2*%
%TO.N,GND*%
X91400000Y-73500000D03*
D11*
%TO.N,VCC*%
%TO.C,F1*%
G36*
X80254505Y-55831204D02*
G01*
X80278773Y-55834804D01*
X80302572Y-55840765D01*
X80325671Y-55849030D01*
X80347850Y-55859520D01*
X80368893Y-55872132D01*
X80388599Y-55886747D01*
X80406777Y-55903223D01*
X80423253Y-55921401D01*
X80437868Y-55941107D01*
X80450480Y-55962150D01*
X80460970Y-55984329D01*
X80469235Y-56007428D01*
X80475196Y-56031227D01*
X80478796Y-56055495D01*
X80480000Y-56079999D01*
X80480000Y-56980001D01*
X80478796Y-57004505D01*
X80475196Y-57028773D01*
X80469235Y-57052572D01*
X80460970Y-57075671D01*
X80450480Y-57097850D01*
X80437868Y-57118893D01*
X80423253Y-57138599D01*
X80406777Y-57156777D01*
X80388599Y-57173253D01*
X80368893Y-57187868D01*
X80347850Y-57200480D01*
X80325671Y-57210970D01*
X80302572Y-57219235D01*
X80278773Y-57225196D01*
X80254505Y-57228796D01*
X80230001Y-57230000D01*
X79529999Y-57230000D01*
X79505495Y-57228796D01*
X79481227Y-57225196D01*
X79457428Y-57219235D01*
X79434329Y-57210970D01*
X79412150Y-57200480D01*
X79391107Y-57187868D01*
X79371401Y-57173253D01*
X79353223Y-57156777D01*
X79336747Y-57138599D01*
X79322132Y-57118893D01*
X79309520Y-57097850D01*
X79299030Y-57075671D01*
X79290765Y-57052572D01*
X79284804Y-57028773D01*
X79281204Y-57004505D01*
X79280000Y-56980001D01*
X79280000Y-56079999D01*
X79281204Y-56055495D01*
X79284804Y-56031227D01*
X79290765Y-56007428D01*
X79299030Y-55984329D01*
X79309520Y-55962150D01*
X79322132Y-55941107D01*
X79336747Y-55921401D01*
X79353223Y-55903223D01*
X79371401Y-55886747D01*
X79391107Y-55872132D01*
X79412150Y-55859520D01*
X79434329Y-55849030D01*
X79457428Y-55840765D01*
X79481227Y-55834804D01*
X79505495Y-55831204D01*
X79529999Y-55830000D01*
X80230001Y-55830000D01*
X80254505Y-55831204D01*
X80254505Y-55831204D01*
G37*
D19*
%TD*%
%TO.P,F1,1*%
%TO.N,VCC*%
X79880000Y-56530000D03*
D11*
%TO.N,Net-(F1-Pad2)*%
%TO.C,F1*%
G36*
X78254505Y-55831204D02*
G01*
X78278773Y-55834804D01*
X78302572Y-55840765D01*
X78325671Y-55849030D01*
X78347850Y-55859520D01*
X78368893Y-55872132D01*
X78388599Y-55886747D01*
X78406777Y-55903223D01*
X78423253Y-55921401D01*
X78437868Y-55941107D01*
X78450480Y-55962150D01*
X78460970Y-55984329D01*
X78469235Y-56007428D01*
X78475196Y-56031227D01*
X78478796Y-56055495D01*
X78480000Y-56079999D01*
X78480000Y-56980001D01*
X78478796Y-57004505D01*
X78475196Y-57028773D01*
X78469235Y-57052572D01*
X78460970Y-57075671D01*
X78450480Y-57097850D01*
X78437868Y-57118893D01*
X78423253Y-57138599D01*
X78406777Y-57156777D01*
X78388599Y-57173253D01*
X78368893Y-57187868D01*
X78347850Y-57200480D01*
X78325671Y-57210970D01*
X78302572Y-57219235D01*
X78278773Y-57225196D01*
X78254505Y-57228796D01*
X78230001Y-57230000D01*
X77529999Y-57230000D01*
X77505495Y-57228796D01*
X77481227Y-57225196D01*
X77457428Y-57219235D01*
X77434329Y-57210970D01*
X77412150Y-57200480D01*
X77391107Y-57187868D01*
X77371401Y-57173253D01*
X77353223Y-57156777D01*
X77336747Y-57138599D01*
X77322132Y-57118893D01*
X77309520Y-57097850D01*
X77299030Y-57075671D01*
X77290765Y-57052572D01*
X77284804Y-57028773D01*
X77281204Y-57004505D01*
X77280000Y-56980001D01*
X77280000Y-56079999D01*
X77281204Y-56055495D01*
X77284804Y-56031227D01*
X77290765Y-56007428D01*
X77299030Y-55984329D01*
X77309520Y-55962150D01*
X77322132Y-55941107D01*
X77336747Y-55921401D01*
X77353223Y-55903223D01*
X77371401Y-55886747D01*
X77391107Y-55872132D01*
X77412150Y-55859520D01*
X77434329Y-55849030D01*
X77457428Y-55840765D01*
X77481227Y-55834804D01*
X77505495Y-55831204D01*
X77529999Y-55830000D01*
X78230001Y-55830000D01*
X78254505Y-55831204D01*
X78254505Y-55831204D01*
G37*
D19*
%TD*%
%TO.P,F1,2*%
%TO.N,Net-(F1-Pad2)*%
X77880000Y-56530000D03*
D14*
%TO.P,D6,2*%
%TO.N,Net-(D1-Pad2)*%
X49920000Y-78870000D03*
D13*
%TO.P,D6,1*%
%TO.N,Net-(D14-Pad1)*%
X52460000Y-78870000D03*
%TD*%
%TO.P,D7,1*%
%TO.N,Net-(D15-Pad1)*%
X55980000Y-83950000D03*
D14*
%TO.P,D7,2*%
%TO.N,Net-(D1-Pad2)*%
X53440000Y-83950000D03*
%TD*%
%TO.P,D8,2*%
%TO.N,Net-(D1-Pad2)*%
X56730000Y-88990000D03*
D13*
%TO.P,D8,1*%
%TO.N,Net-(D16-Pad1)*%
X59270000Y-88990000D03*
%TD*%
D14*
%TO.P,D9,2*%
%TO.N,Net-(D10-Pad2)*%
X59780000Y-93740000D03*
D13*
%TO.P,D9,1*%
%TO.N,Net-(D1-Pad1)*%
X62320000Y-93740000D03*
%TD*%
%TO.P,D10,1*%
%TO.N,Net-(D10-Pad1)*%
X65580000Y-94940000D03*
D14*
%TO.P,D10,2*%
%TO.N,Net-(D10-Pad2)*%
X65580000Y-92400000D03*
%TD*%
D13*
%TO.P,D11,1*%
%TO.N,Net-(D11-Pad1)*%
X64280000Y-88820000D03*
D14*
%TO.P,D11,2*%
%TO.N,Net-(D10-Pad2)*%
X61740000Y-88820000D03*
%TD*%
%TO.P,D12,2*%
%TO.N,Net-(D10-Pad2)*%
X59610000Y-83410000D03*
D13*
%TO.P,D12,1*%
%TO.N,Net-(D12-Pad1)*%
X62150000Y-83410000D03*
%TD*%
%TO.P,D13,1*%
%TO.N,Net-(D13-Pad1)*%
X67780000Y-83410000D03*
D14*
%TO.P,D13,2*%
%TO.N,Net-(D10-Pad2)*%
X65240000Y-83410000D03*
%TD*%
%TO.P,D14,2*%
%TO.N,Net-(D10-Pad2)*%
X70660000Y-83460000D03*
D13*
%TO.P,D14,1*%
%TO.N,Net-(D14-Pad1)*%
X73200000Y-83460000D03*
%TD*%
%TO.P,D15,1*%
%TO.N,Net-(D15-Pad1)*%
X78360000Y-83410000D03*
D14*
%TO.P,D15,2*%
%TO.N,Net-(D10-Pad2)*%
X75820000Y-83410000D03*
%TD*%
%TO.P,D16,2*%
%TO.N,Net-(D10-Pad2)*%
X80720000Y-83510000D03*
D13*
%TO.P,D16,1*%
%TO.N,Net-(D16-Pad1)*%
X83260000Y-83510000D03*
%TD*%
%TO.P,D17,1*%
%TO.N,Net-(D1-Pad1)*%
X88140000Y-83400000D03*
D14*
%TO.P,D17,2*%
%TO.N,Net-(D17-Pad2)*%
X85600000Y-83400000D03*
%TD*%
%TO.P,D19,2*%
%TO.N,Net-(D17-Pad2)*%
X80650000Y-73490000D03*
D13*
%TO.P,D19,1*%
%TO.N,Net-(D11-Pad1)*%
X83190000Y-73490000D03*
%TD*%
D14*
%TO.P,D29,2*%
%TO.N,Net-(D25-Pad2)*%
X74110000Y-73360000D03*
D13*
%TO.P,D29,1*%
%TO.N,Net-(D13-Pad1)*%
X76650000Y-73360000D03*
%TD*%
%TO.P,D30,1*%
%TO.N,Net-(D14-Pad1)*%
X70060000Y-73390000D03*
D14*
%TO.P,D30,2*%
%TO.N,Net-(D25-Pad2)*%
X67520000Y-73390000D03*
%TD*%
%TO.P,D31,2*%
%TO.N,Net-(D25-Pad2)*%
X60610000Y-73390000D03*
D13*
%TO.P,D31,1*%
%TO.N,Net-(D15-Pad1)*%
X63150000Y-73390000D03*
%TD*%
%TO.P,D32,1*%
%TO.N,Net-(D16-Pad1)*%
X56310000Y-73360000D03*
D14*
%TO.P,D32,2*%
%TO.N,Net-(D25-Pad2)*%
X53770000Y-73360000D03*
%TD*%
D11*
%TO.N,Net-(IC1-Pad20)*%
%TO.C,R1*%
G36*
X50319504Y-84111204D02*
G01*
X50343773Y-84114804D01*
X50367571Y-84120765D01*
X50390671Y-84129030D01*
X50412849Y-84139520D01*
X50433893Y-84152133D01*
X50453598Y-84166747D01*
X50471777Y-84183223D01*
X50488253Y-84201402D01*
X50502867Y-84221107D01*
X50515480Y-84242151D01*
X50525970Y-84264329D01*
X50534235Y-84287429D01*
X50540196Y-84311227D01*
X50543796Y-84335496D01*
X50545000Y-84360000D01*
X50545000Y-85160000D01*
X50543796Y-85184504D01*
X50540196Y-85208773D01*
X50534235Y-85232571D01*
X50525970Y-85255671D01*
X50515480Y-85277849D01*
X50502867Y-85298893D01*
X50488253Y-85318598D01*
X50471777Y-85336777D01*
X50453598Y-85353253D01*
X50433893Y-85367867D01*
X50412849Y-85380480D01*
X50390671Y-85390970D01*
X50367571Y-85399235D01*
X50343773Y-85405196D01*
X50319504Y-85408796D01*
X50295000Y-85410000D01*
X48145000Y-85410000D01*
X48120496Y-85408796D01*
X48096227Y-85405196D01*
X48072429Y-85399235D01*
X48049329Y-85390970D01*
X48027151Y-85380480D01*
X48006107Y-85367867D01*
X47986402Y-85353253D01*
X47968223Y-85336777D01*
X47951747Y-85318598D01*
X47937133Y-85298893D01*
X47924520Y-85277849D01*
X47914030Y-85255671D01*
X47905765Y-85232571D01*
X47899804Y-85208773D01*
X47896204Y-85184504D01*
X47895000Y-85160000D01*
X47895000Y-84360000D01*
X47896204Y-84335496D01*
X47899804Y-84311227D01*
X47905765Y-84287429D01*
X47914030Y-84264329D01*
X47924520Y-84242151D01*
X47937133Y-84221107D01*
X47951747Y-84201402D01*
X47968223Y-84183223D01*
X47986402Y-84166747D01*
X48006107Y-84152133D01*
X48027151Y-84139520D01*
X48049329Y-84129030D01*
X48072429Y-84120765D01*
X48096227Y-84114804D01*
X48120496Y-84111204D01*
X48145000Y-84110000D01*
X50295000Y-84110000D01*
X50319504Y-84111204D01*
X50319504Y-84111204D01*
G37*
D12*
%TD*%
%TO.P,R1,1*%
%TO.N,Net-(IC1-Pad20)*%
X49220000Y-84760000D03*
D11*
%TO.N,Net-(D1-Pad2)*%
%TO.C,R1*%
G36*
X50319504Y-81011204D02*
G01*
X50343773Y-81014804D01*
X50367571Y-81020765D01*
X50390671Y-81029030D01*
X50412849Y-81039520D01*
X50433893Y-81052133D01*
X50453598Y-81066747D01*
X50471777Y-81083223D01*
X50488253Y-81101402D01*
X50502867Y-81121107D01*
X50515480Y-81142151D01*
X50525970Y-81164329D01*
X50534235Y-81187429D01*
X50540196Y-81211227D01*
X50543796Y-81235496D01*
X50545000Y-81260000D01*
X50545000Y-82060000D01*
X50543796Y-82084504D01*
X50540196Y-82108773D01*
X50534235Y-82132571D01*
X50525970Y-82155671D01*
X50515480Y-82177849D01*
X50502867Y-82198893D01*
X50488253Y-82218598D01*
X50471777Y-82236777D01*
X50453598Y-82253253D01*
X50433893Y-82267867D01*
X50412849Y-82280480D01*
X50390671Y-82290970D01*
X50367571Y-82299235D01*
X50343773Y-82305196D01*
X50319504Y-82308796D01*
X50295000Y-82310000D01*
X48145000Y-82310000D01*
X48120496Y-82308796D01*
X48096227Y-82305196D01*
X48072429Y-82299235D01*
X48049329Y-82290970D01*
X48027151Y-82280480D01*
X48006107Y-82267867D01*
X47986402Y-82253253D01*
X47968223Y-82236777D01*
X47951747Y-82218598D01*
X47937133Y-82198893D01*
X47924520Y-82177849D01*
X47914030Y-82155671D01*
X47905765Y-82132571D01*
X47899804Y-82108773D01*
X47896204Y-82084504D01*
X47895000Y-82060000D01*
X47895000Y-81260000D01*
X47896204Y-81235496D01*
X47899804Y-81211227D01*
X47905765Y-81187429D01*
X47914030Y-81164329D01*
X47924520Y-81142151D01*
X47937133Y-81121107D01*
X47951747Y-81101402D01*
X47968223Y-81083223D01*
X47986402Y-81066747D01*
X48006107Y-81052133D01*
X48027151Y-81039520D01*
X48049329Y-81029030D01*
X48072429Y-81020765D01*
X48096227Y-81014804D01*
X48120496Y-81011204D01*
X48145000Y-81010000D01*
X50295000Y-81010000D01*
X50319504Y-81011204D01*
X50319504Y-81011204D01*
G37*
D12*
%TD*%
%TO.P,R1,2*%
%TO.N,Net-(D1-Pad2)*%
X49220000Y-81660000D03*
D11*
%TO.N,Net-(D10-Pad2)*%
%TO.C,R2*%
G36*
X71299504Y-87231204D02*
G01*
X71323773Y-87234804D01*
X71347571Y-87240765D01*
X71370671Y-87249030D01*
X71392849Y-87259520D01*
X71413893Y-87272133D01*
X71433598Y-87286747D01*
X71451777Y-87303223D01*
X71468253Y-87321402D01*
X71482867Y-87341107D01*
X71495480Y-87362151D01*
X71505970Y-87384329D01*
X71514235Y-87407429D01*
X71520196Y-87431227D01*
X71523796Y-87455496D01*
X71525000Y-87480000D01*
X71525000Y-88280000D01*
X71523796Y-88304504D01*
X71520196Y-88328773D01*
X71514235Y-88352571D01*
X71505970Y-88375671D01*
X71495480Y-88397849D01*
X71482867Y-88418893D01*
X71468253Y-88438598D01*
X71451777Y-88456777D01*
X71433598Y-88473253D01*
X71413893Y-88487867D01*
X71392849Y-88500480D01*
X71370671Y-88510970D01*
X71347571Y-88519235D01*
X71323773Y-88525196D01*
X71299504Y-88528796D01*
X71275000Y-88530000D01*
X69125000Y-88530000D01*
X69100496Y-88528796D01*
X69076227Y-88525196D01*
X69052429Y-88519235D01*
X69029329Y-88510970D01*
X69007151Y-88500480D01*
X68986107Y-88487867D01*
X68966402Y-88473253D01*
X68948223Y-88456777D01*
X68931747Y-88438598D01*
X68917133Y-88418893D01*
X68904520Y-88397849D01*
X68894030Y-88375671D01*
X68885765Y-88352571D01*
X68879804Y-88328773D01*
X68876204Y-88304504D01*
X68875000Y-88280000D01*
X68875000Y-87480000D01*
X68876204Y-87455496D01*
X68879804Y-87431227D01*
X68885765Y-87407429D01*
X68894030Y-87384329D01*
X68904520Y-87362151D01*
X68917133Y-87341107D01*
X68931747Y-87321402D01*
X68948223Y-87303223D01*
X68966402Y-87286747D01*
X68986107Y-87272133D01*
X69007151Y-87259520D01*
X69029329Y-87249030D01*
X69052429Y-87240765D01*
X69076227Y-87234804D01*
X69100496Y-87231204D01*
X69125000Y-87230000D01*
X71275000Y-87230000D01*
X71299504Y-87231204D01*
X71299504Y-87231204D01*
G37*
D12*
%TD*%
%TO.P,R2,2*%
%TO.N,Net-(D10-Pad2)*%
X70200000Y-87880000D03*
D11*
%TO.N,Net-(IC1-Pad19)*%
%TO.C,R2*%
G36*
X71299504Y-90331204D02*
G01*
X71323773Y-90334804D01*
X71347571Y-90340765D01*
X71370671Y-90349030D01*
X71392849Y-90359520D01*
X71413893Y-90372133D01*
X71433598Y-90386747D01*
X71451777Y-90403223D01*
X71468253Y-90421402D01*
X71482867Y-90441107D01*
X71495480Y-90462151D01*
X71505970Y-90484329D01*
X71514235Y-90507429D01*
X71520196Y-90531227D01*
X71523796Y-90555496D01*
X71525000Y-90580000D01*
X71525000Y-91380000D01*
X71523796Y-91404504D01*
X71520196Y-91428773D01*
X71514235Y-91452571D01*
X71505970Y-91475671D01*
X71495480Y-91497849D01*
X71482867Y-91518893D01*
X71468253Y-91538598D01*
X71451777Y-91556777D01*
X71433598Y-91573253D01*
X71413893Y-91587867D01*
X71392849Y-91600480D01*
X71370671Y-91610970D01*
X71347571Y-91619235D01*
X71323773Y-91625196D01*
X71299504Y-91628796D01*
X71275000Y-91630000D01*
X69125000Y-91630000D01*
X69100496Y-91628796D01*
X69076227Y-91625196D01*
X69052429Y-91619235D01*
X69029329Y-91610970D01*
X69007151Y-91600480D01*
X68986107Y-91587867D01*
X68966402Y-91573253D01*
X68948223Y-91556777D01*
X68931747Y-91538598D01*
X68917133Y-91518893D01*
X68904520Y-91497849D01*
X68894030Y-91475671D01*
X68885765Y-91452571D01*
X68879804Y-91428773D01*
X68876204Y-91404504D01*
X68875000Y-91380000D01*
X68875000Y-90580000D01*
X68876204Y-90555496D01*
X68879804Y-90531227D01*
X68885765Y-90507429D01*
X68894030Y-90484329D01*
X68904520Y-90462151D01*
X68917133Y-90441107D01*
X68931747Y-90421402D01*
X68948223Y-90403223D01*
X68966402Y-90386747D01*
X68986107Y-90372133D01*
X69007151Y-90359520D01*
X69029329Y-90349030D01*
X69052429Y-90340765D01*
X69076227Y-90334804D01*
X69100496Y-90331204D01*
X69125000Y-90330000D01*
X71275000Y-90330000D01*
X71299504Y-90331204D01*
X71299504Y-90331204D01*
G37*
D12*
%TD*%
%TO.P,R2,1*%
%TO.N,Net-(IC1-Pad19)*%
X70200000Y-90980000D03*
D11*
%TO.N,Net-(D25-Pad2)*%
%TO.C,R4*%
G36*
X71544504Y-55666204D02*
G01*
X71568773Y-55669804D01*
X71592571Y-55675765D01*
X71615671Y-55684030D01*
X71637849Y-55694520D01*
X71658893Y-55707133D01*
X71678598Y-55721747D01*
X71696777Y-55738223D01*
X71713253Y-55756402D01*
X71727867Y-55776107D01*
X71740480Y-55797151D01*
X71750970Y-55819329D01*
X71759235Y-55842429D01*
X71765196Y-55866227D01*
X71768796Y-55890496D01*
X71770000Y-55915000D01*
X71770000Y-58065000D01*
X71768796Y-58089504D01*
X71765196Y-58113773D01*
X71759235Y-58137571D01*
X71750970Y-58160671D01*
X71740480Y-58182849D01*
X71727867Y-58203893D01*
X71713253Y-58223598D01*
X71696777Y-58241777D01*
X71678598Y-58258253D01*
X71658893Y-58272867D01*
X71637849Y-58285480D01*
X71615671Y-58295970D01*
X71592571Y-58304235D01*
X71568773Y-58310196D01*
X71544504Y-58313796D01*
X71520000Y-58315000D01*
X70720000Y-58315000D01*
X70695496Y-58313796D01*
X70671227Y-58310196D01*
X70647429Y-58304235D01*
X70624329Y-58295970D01*
X70602151Y-58285480D01*
X70581107Y-58272867D01*
X70561402Y-58258253D01*
X70543223Y-58241777D01*
X70526747Y-58223598D01*
X70512133Y-58203893D01*
X70499520Y-58182849D01*
X70489030Y-58160671D01*
X70480765Y-58137571D01*
X70474804Y-58113773D01*
X70471204Y-58089504D01*
X70470000Y-58065000D01*
X70470000Y-55915000D01*
X70471204Y-55890496D01*
X70474804Y-55866227D01*
X70480765Y-55842429D01*
X70489030Y-55819329D01*
X70499520Y-55797151D01*
X70512133Y-55776107D01*
X70526747Y-55756402D01*
X70543223Y-55738223D01*
X70561402Y-55721747D01*
X70581107Y-55707133D01*
X70602151Y-55694520D01*
X70624329Y-55684030D01*
X70647429Y-55675765D01*
X70671227Y-55669804D01*
X70695496Y-55666204D01*
X70720000Y-55665000D01*
X71520000Y-55665000D01*
X71544504Y-55666204D01*
X71544504Y-55666204D01*
G37*
D12*
%TD*%
%TO.P,R4,2*%
%TO.N,Net-(D25-Pad2)*%
X71120000Y-56990000D03*
D11*
%TO.N,Net-(IC1-Pad17)*%
%TO.C,R4*%
G36*
X74644504Y-55666204D02*
G01*
X74668773Y-55669804D01*
X74692571Y-55675765D01*
X74715671Y-55684030D01*
X74737849Y-55694520D01*
X74758893Y-55707133D01*
X74778598Y-55721747D01*
X74796777Y-55738223D01*
X74813253Y-55756402D01*
X74827867Y-55776107D01*
X74840480Y-55797151D01*
X74850970Y-55819329D01*
X74859235Y-55842429D01*
X74865196Y-55866227D01*
X74868796Y-55890496D01*
X74870000Y-55915000D01*
X74870000Y-58065000D01*
X74868796Y-58089504D01*
X74865196Y-58113773D01*
X74859235Y-58137571D01*
X74850970Y-58160671D01*
X74840480Y-58182849D01*
X74827867Y-58203893D01*
X74813253Y-58223598D01*
X74796777Y-58241777D01*
X74778598Y-58258253D01*
X74758893Y-58272867D01*
X74737849Y-58285480D01*
X74715671Y-58295970D01*
X74692571Y-58304235D01*
X74668773Y-58310196D01*
X74644504Y-58313796D01*
X74620000Y-58315000D01*
X73820000Y-58315000D01*
X73795496Y-58313796D01*
X73771227Y-58310196D01*
X73747429Y-58304235D01*
X73724329Y-58295970D01*
X73702151Y-58285480D01*
X73681107Y-58272867D01*
X73661402Y-58258253D01*
X73643223Y-58241777D01*
X73626747Y-58223598D01*
X73612133Y-58203893D01*
X73599520Y-58182849D01*
X73589030Y-58160671D01*
X73580765Y-58137571D01*
X73574804Y-58113773D01*
X73571204Y-58089504D01*
X73570000Y-58065000D01*
X73570000Y-55915000D01*
X73571204Y-55890496D01*
X73574804Y-55866227D01*
X73580765Y-55842429D01*
X73589030Y-55819329D01*
X73599520Y-55797151D01*
X73612133Y-55776107D01*
X73626747Y-55756402D01*
X73643223Y-55738223D01*
X73661402Y-55721747D01*
X73681107Y-55707133D01*
X73702151Y-55694520D01*
X73724329Y-55684030D01*
X73747429Y-55675765D01*
X73771227Y-55669804D01*
X73795496Y-55666204D01*
X73820000Y-55665000D01*
X74620000Y-55665000D01*
X74644504Y-55666204D01*
X74644504Y-55666204D01*
G37*
D12*
%TD*%
%TO.P,R4,1*%
%TO.N,Net-(IC1-Pad17)*%
X74220000Y-56990000D03*
D16*
%TO.P,P3,1*%
%TO.N,GND*%
X84950000Y-52160000D03*
D17*
%TO.P,P3,2*%
%TO.N,VCC*%
X82410000Y-52160000D03*
%TD*%
D20*
%TO.P,P1,6*%
%TO.N,Net-(IC1-Pad10)*%
X89400000Y-89120000D03*
%TO.P,P1,5*%
%TO.N,GND*%
X89400000Y-91660000D03*
%TO.P,P1,4*%
%TO.N,VCC*%
X89400000Y-94200000D03*
%TO.P,P1,3*%
%TO.N,Net-(D16-Pad1)*%
X89400000Y-96740000D03*
%TO.P,P1,2*%
%TO.N,Net-(IC1-Pad2)*%
X89400000Y-99280000D03*
%TO.P,P1,1*%
%TO.N,Net-(IC1-Pad1)*%
X89400000Y-101820000D03*
%TD*%
D14*
%TO.P,D1,2*%
%TO.N,Net-(D1-Pad2)*%
X60030000Y-52730000D03*
D13*
%TO.P,D1,1*%
%TO.N,Net-(D1-Pad1)*%
X62570000Y-52730000D03*
%TD*%
%TO.P,D2,1*%
%TO.N,Net-(D10-Pad1)*%
X59510000Y-57480000D03*
D14*
%TO.P,D2,2*%
%TO.N,Net-(D1-Pad2)*%
X56970000Y-57480000D03*
%TD*%
%TO.P,D3,2*%
%TO.N,Net-(D1-Pad2)*%
X53690000Y-62520000D03*
D13*
%TO.P,D3,1*%
%TO.N,Net-(D11-Pad1)*%
X56230000Y-62520000D03*
%TD*%
%TO.P,D4,1*%
%TO.N,Net-(D12-Pad1)*%
X52710000Y-67600000D03*
D14*
%TO.P,D4,2*%
%TO.N,Net-(D1-Pad2)*%
X50170000Y-67600000D03*
%TD*%
%TO.P,D20,2*%
%TO.N,Net-(D17-Pad2)*%
X83280000Y-68280000D03*
D13*
%TO.P,D20,1*%
%TO.N,Net-(D12-Pad1)*%
X85820000Y-68280000D03*
%TD*%
D14*
%TO.P,D22,2*%
%TO.N,Net-(D17-Pad2)*%
X80970000Y-62960000D03*
D13*
%TO.P,D22,1*%
%TO.N,Net-(D14-Pad1)*%
X83510000Y-62960000D03*
%TD*%
%TO.P,D23,1*%
%TO.N,Net-(D15-Pad1)*%
X78610000Y-63060000D03*
D14*
%TO.P,D23,2*%
%TO.N,Net-(D17-Pad2)*%
X76070000Y-63060000D03*
%TD*%
D13*
%TO.P,D24,1*%
%TO.N,Net-(D16-Pad1)*%
X73440000Y-63010000D03*
D14*
%TO.P,D24,2*%
%TO.N,Net-(D17-Pad2)*%
X70900000Y-63010000D03*
%TD*%
%TO.P,D25,2*%
%TO.N,Net-(D25-Pad2)*%
X65480000Y-63070000D03*
D13*
%TO.P,D25,1*%
%TO.N,Net-(D1-Pad1)*%
X68020000Y-63070000D03*
%TD*%
%TO.P,D26,1*%
%TO.N,Net-(D10-Pad1)*%
X62400000Y-63060000D03*
D14*
%TO.P,D26,2*%
%TO.N,Net-(D25-Pad2)*%
X59860000Y-63060000D03*
%TD*%
%TO.P,D27,2*%
%TO.N,Net-(D25-Pad2)*%
X61980000Y-57660000D03*
D13*
%TO.P,D27,1*%
%TO.N,Net-(D11-Pad1)*%
X64520000Y-57660000D03*
%TD*%
%TO.P,D28,1*%
%TO.N,Net-(D12-Pad1)*%
X66220000Y-51340000D03*
D14*
%TO.P,D28,2*%
%TO.N,Net-(D25-Pad2)*%
X66220000Y-53880000D03*
%TD*%
D21*
%TO.N,Net-(D10-Pad1)*%
X73380000Y-76270000D03*
%TO.N,Net-(D11-Pad1)*%
X65050000Y-66830000D03*
X60050000Y-66800000D03*
%TO.N,Net-(D12-Pad1)*%
X55830000Y-80010000D03*
%TO.N,Net-(D13-Pad1)*%
X62000000Y-76920000D03*
X67640000Y-76860000D03*
X86770000Y-75080000D03*
X82140000Y-97780000D03*
%TO.N,Net-(D15-Pad1)*%
X59320000Y-81210000D03*
%TO.N,Net-(D16-Pad1)*%
X72160000Y-69340000D03*
%TO.N,Net-(IC1-Pad18)*%
X72240000Y-99450000D03*
X92400000Y-79440000D03*
%TO.N,Net-(IC1-Pad19)*%
X68510000Y-100560000D03*
X73420000Y-88670000D03*
%TO.N,GND*%
X79050000Y-93360000D03*
X78240000Y-96910000D03*
%TD*%
D22*
%TO.N,Net-(D1-Pad1)*%
X68020000Y-61770000D02*
X68020000Y-63070000D01*
X70300000Y-59490000D02*
X68020000Y-61770000D01*
X70300000Y-59490000D02*
X70050000Y-59490000D01*
X70050000Y-59490000D02*
X66180000Y-55620000D01*
X62570000Y-54030000D02*
X62570000Y-52730000D01*
X64160000Y-55620000D02*
X62570000Y-54030000D01*
X66180000Y-55620000D02*
X64160000Y-55620000D01*
X62320000Y-95040000D02*
X62320000Y-93740000D01*
X63910000Y-96630000D02*
X62320000Y-95040000D01*
X71275000Y-96630000D02*
X63910000Y-96630000D01*
X75295000Y-93885000D02*
X74020000Y-93885000D01*
X74020000Y-93885000D02*
X71275000Y-96630000D01*
X88140000Y-68230000D02*
X88140000Y-83400000D01*
X90170000Y-66200000D02*
X88140000Y-68230000D01*
X87710000Y-59490000D02*
X86150000Y-59490000D01*
X90170000Y-61950000D02*
X87710000Y-59490000D01*
X70300000Y-59490000D02*
X86150000Y-59490000D01*
X90170000Y-61950000D02*
X90170000Y-66200000D01*
%TO.N,Net-(D1-Pad2)*%
X49220000Y-79570000D02*
X49920000Y-78870000D01*
X49220000Y-81660000D02*
X49220000Y-79570000D01*
%TO.N,Net-(D10-Pad1)*%
X84970000Y-76270000D02*
X73380000Y-76270000D01*
X85580000Y-78180000D02*
X85580000Y-76880000D01*
X85580000Y-76880000D02*
X84970000Y-76270000D01*
X59510000Y-57480000D02*
X59510000Y-60790000D01*
X60260000Y-61540000D02*
X60880000Y-61540000D01*
X59510000Y-60790000D02*
X60260000Y-61540000D01*
X60880000Y-61540000D02*
X62400000Y-63060000D01*
X66880000Y-94940000D02*
X65580000Y-94940000D01*
X71695000Y-94940000D02*
X66880000Y-94940000D01*
X74020000Y-92615000D02*
X71695000Y-94940000D01*
X75295000Y-92615000D02*
X74020000Y-92615000D01*
%TO.N,Net-(D11-Pad1)*%
X64520000Y-57660000D02*
X64520000Y-57450000D01*
X64520000Y-57450000D02*
X62420000Y-55350000D01*
X62420000Y-55350000D02*
X56490000Y-55350000D01*
X56490000Y-55350000D02*
X54770000Y-57070000D01*
X56230000Y-61220000D02*
X56230000Y-62520000D01*
X54770000Y-59760000D02*
X56230000Y-61220000D01*
X54770000Y-57070000D02*
X54770000Y-59760000D01*
X73705000Y-91345000D02*
X75295000Y-91345000D01*
X65050000Y-66830000D02*
X60080000Y-66830000D01*
X60080000Y-66830000D02*
X60050000Y-66800000D01*
X64280000Y-88820000D02*
X64280000Y-90120000D01*
X73705000Y-91345000D02*
X73705000Y-91435000D01*
X73705000Y-91435000D02*
X71370000Y-93770000D01*
X71370000Y-93770000D02*
X68720000Y-93770000D01*
X67240000Y-92290000D02*
X67240000Y-91460000D01*
X68720000Y-93770000D02*
X67240000Y-92290000D01*
X56230000Y-66972829D02*
X56230000Y-62520000D01*
X53202829Y-70000000D02*
X56230000Y-66972829D01*
X47850000Y-83150000D02*
X45470000Y-80770000D01*
X64280000Y-90120000D02*
X63180000Y-91220000D01*
X55970000Y-91220000D02*
X51380000Y-86630000D01*
X63180000Y-91220000D02*
X55970000Y-91220000D01*
X51380000Y-86630000D02*
X51380000Y-84110000D01*
X51380000Y-84110000D02*
X50420000Y-83150000D01*
X50420000Y-83150000D02*
X47850000Y-83150000D01*
X67240000Y-91460000D02*
X67240000Y-90180000D01*
X65880000Y-88820000D02*
X64280000Y-88820000D01*
X67240000Y-90180000D02*
X65880000Y-88820000D01*
X47860000Y-70010000D02*
X45470000Y-72400000D01*
X47860000Y-70000000D02*
X47860000Y-70010000D01*
X45470000Y-80770000D02*
X45470000Y-72400000D01*
X47860000Y-70000000D02*
X53202829Y-70000000D01*
%TO.N,Net-(D12-Pad1)*%
X52710000Y-66300000D02*
X52710000Y-67600000D01*
X51070000Y-64660000D02*
X52710000Y-66300000D01*
X51070000Y-58240000D02*
X51070000Y-64660000D01*
X62150000Y-83410000D02*
X62150000Y-81280000D01*
X62150000Y-81280000D02*
X60880000Y-80010000D01*
X60880000Y-80010000D02*
X55830000Y-80010000D01*
X64605000Y-51025000D02*
X58285000Y-51025000D01*
X64920000Y-51340000D02*
X64605000Y-51025000D01*
X66220000Y-51340000D02*
X64920000Y-51340000D01*
X58285000Y-51025000D02*
X51070000Y-58240000D01*
X62150000Y-84710000D02*
X62150000Y-83410000D01*
X64880000Y-85860000D02*
X63300000Y-85860000D01*
X73985037Y-90075000D02*
X71360037Y-92700000D01*
X63300000Y-85860000D02*
X62150000Y-84710000D01*
X75295000Y-90075000D02*
X73985037Y-90075000D01*
X71360037Y-92700000D02*
X69090000Y-92700000D01*
X69090000Y-92700000D02*
X67940010Y-91550010D01*
X67940010Y-91550010D02*
X67940010Y-88920010D01*
X67940010Y-88920010D02*
X64880000Y-85860000D01*
%TO.N,Net-(D13-Pad1)*%
X55257998Y-76920000D02*
X62000000Y-76920000D01*
X54598000Y-76920000D02*
X55257998Y-76920000D01*
X49784000Y-73406000D02*
X51084000Y-73406000D01*
X51084000Y-73406000D02*
X54598000Y-76920000D01*
X62060000Y-76860000D02*
X62000000Y-76920000D01*
X67640000Y-76860000D02*
X62060000Y-76860000D01*
X76650000Y-72060000D02*
X81920000Y-66790000D01*
X76650000Y-73360000D02*
X76650000Y-72060000D01*
X88390000Y-64370000D02*
X88390000Y-63070000D01*
X85970000Y-66790000D02*
X88390000Y-64370000D01*
X81920000Y-66790000D02*
X85970000Y-66790000D01*
X86770000Y-74369998D02*
X86770000Y-75080000D01*
X84490001Y-72089999D02*
X86770000Y-74369998D01*
X79220001Y-72089999D02*
X84490001Y-72089999D01*
X76650000Y-73360000D02*
X77950000Y-73360000D01*
X77950000Y-73360000D02*
X79220001Y-72089999D01*
X82225000Y-97695000D02*
X82140000Y-97780000D01*
X85045000Y-97695000D02*
X82225000Y-97695000D01*
%TO.N,Net-(D14-Pad1)*%
X53760000Y-78870000D02*
X53820000Y-78810000D01*
X52460000Y-78870000D02*
X53760000Y-78870000D01*
X53820000Y-78810000D02*
X65940000Y-78810000D01*
X65940000Y-78810000D02*
X70360000Y-78810000D01*
X73200000Y-81650000D02*
X73200000Y-83460000D01*
X70360000Y-78810000D02*
X73200000Y-81650000D01*
X70060000Y-78510000D02*
X70060000Y-73390000D01*
X70360000Y-78810000D02*
X70060000Y-78510000D01*
X70060000Y-68130000D02*
X70060000Y-73390000D01*
X72100000Y-66090000D02*
X70060000Y-68130000D01*
X81680000Y-66090000D02*
X72100000Y-66090000D01*
X83510000Y-62960000D02*
X83510000Y-64260000D01*
X83510000Y-64260000D02*
X81680000Y-66090000D01*
X84050038Y-93885000D02*
X75355038Y-85190000D01*
X85045000Y-93885000D02*
X84050038Y-93885000D01*
X73200000Y-84760000D02*
X73200000Y-83460000D01*
X73630000Y-85190000D02*
X73200000Y-84760000D01*
X75355038Y-85190000D02*
X73630000Y-85190000D01*
%TO.N,Net-(D15-Pad1)*%
X55980000Y-82650000D02*
X55980000Y-83950000D01*
X57420000Y-81210000D02*
X55980000Y-82650000D01*
X59320000Y-81210000D02*
X57420000Y-81210000D01*
X78360000Y-84710000D02*
X78360000Y-83410000D01*
X78360000Y-87205000D02*
X78360000Y-84710000D01*
X83770000Y-92615000D02*
X78360000Y-87205000D01*
X85045000Y-92615000D02*
X83770000Y-92615000D01*
X78610000Y-64360000D02*
X78610000Y-63060000D01*
X77980000Y-64990000D02*
X78610000Y-64360000D01*
X71981964Y-64990000D02*
X77980000Y-64990000D01*
X63581964Y-73390000D02*
X71981964Y-64990000D01*
X63150000Y-73390000D02*
X63581964Y-73390000D01*
%TO.N,Net-(D16-Pad1)*%
X72972002Y-63010000D02*
X73440000Y-63010000D01*
X64532002Y-71450000D02*
X72972002Y-63010000D01*
X59520000Y-71450000D02*
X64532002Y-71450000D01*
X57610000Y-73360000D02*
X59520000Y-71450000D01*
X56310000Y-73360000D02*
X57610000Y-73360000D01*
X83260000Y-82210000D02*
X79490000Y-78440000D01*
X83260000Y-83510000D02*
X83260000Y-82210000D01*
X79490000Y-78440000D02*
X73490000Y-78440000D01*
X73490000Y-78440000D02*
X72160000Y-77110000D01*
X72160000Y-77110000D02*
X72160000Y-69340000D01*
X83260000Y-84810000D02*
X86080000Y-87630000D01*
X83260000Y-83510000D02*
X83260000Y-84810000D01*
X86080000Y-87630000D02*
X90480000Y-87630000D01*
X90562000Y-96740000D02*
X89400000Y-96740000D01*
X88238000Y-96740000D02*
X87320000Y-97658000D01*
X89400000Y-96740000D02*
X88238000Y-96740000D01*
X86320000Y-98965000D02*
X85045000Y-98965000D01*
X87320000Y-97965000D02*
X86320000Y-98965000D01*
X87320000Y-97658000D02*
X87320000Y-97965000D01*
X90976000Y-88126000D02*
X90480000Y-87630000D01*
X90976000Y-96326000D02*
X90976000Y-88126000D01*
X90976000Y-96326000D02*
X90562000Y-96740000D01*
%TO.N,Net-(D10-Pad2)*%
X70660000Y-87420000D02*
X70200000Y-87880000D01*
X70660000Y-83460000D02*
X70660000Y-87420000D01*
%TO.N,Net-(D17-Pad2)*%
X90210000Y-81000000D02*
X90210000Y-81750000D01*
X90210000Y-81750000D02*
X90800000Y-82340000D01*
X90800000Y-82340000D02*
X90800000Y-84550000D01*
X90800000Y-84550000D02*
X89280000Y-86070000D01*
X89280000Y-86070000D02*
X86997208Y-86070000D01*
X85600000Y-84672792D02*
X85600000Y-83400000D01*
X86997208Y-86070000D02*
X85600000Y-84672792D01*
%TO.N,Net-(D25-Pad2)*%
X68010000Y-53880000D02*
X66220000Y-53880000D01*
X71120000Y-56990000D02*
X68010000Y-53880000D01*
X59710001Y-74289999D02*
X59710001Y-74299999D01*
X60610000Y-73390000D02*
X59710001Y-74289999D01*
X59710001Y-74299999D02*
X58640000Y-75370000D01*
X55619998Y-75370000D02*
X58640000Y-75370000D01*
X54669999Y-74420001D02*
X55619998Y-75370000D01*
X54669999Y-74259999D02*
X54669999Y-74420001D01*
X53770000Y-73360000D02*
X54669999Y-74259999D01*
X61509999Y-74450001D02*
X62199998Y-75140000D01*
X60610000Y-73390000D02*
X61509999Y-74289999D01*
X61509999Y-74289999D02*
X61509999Y-74450001D01*
X65770000Y-75140000D02*
X67520000Y-73390000D01*
X62199998Y-75140000D02*
X65770000Y-75140000D01*
X53770000Y-71210000D02*
X53770000Y-73360000D01*
X59860000Y-63060000D02*
X59860000Y-65120000D01*
X59860000Y-65120000D02*
X53770000Y-71210000D01*
%TO.N,Net-(F1-Pad2)*%
X73420000Y-53362081D02*
X74107919Y-54050000D01*
X73420000Y-52160000D02*
X73420000Y-53362081D01*
X74107919Y-54050000D02*
X77120000Y-54050000D01*
X77880000Y-54810000D02*
X77880000Y-56530000D01*
X77120000Y-54050000D02*
X77880000Y-54810000D01*
%TO.N,Net-(IC1-Pad17)*%
X67830000Y-50600000D02*
X74220000Y-56990000D01*
X67830000Y-49910000D02*
X67830000Y-50600000D01*
X58410038Y-49910000D02*
X67830000Y-49910000D01*
X44660000Y-83330000D02*
X44660000Y-63660038D01*
X75295000Y-97695000D02*
X76570000Y-97695000D01*
X44660000Y-63660038D02*
X58410038Y-49910000D01*
X76570000Y-97695000D02*
X77130000Y-98255000D01*
X77130000Y-101745002D02*
X75295002Y-103580000D01*
X77130000Y-98255000D02*
X77130000Y-101745002D01*
X75295002Y-103580000D02*
X64910000Y-103580000D01*
X64910000Y-103580000D02*
X44660000Y-83330000D01*
%TO.N,Net-(IC1-Pad18)*%
X72725000Y-98965000D02*
X75295000Y-98965000D01*
X72240000Y-99450000D02*
X72725000Y-98965000D01*
X91750000Y-79440000D02*
X90210000Y-77900000D01*
X92400000Y-79440000D02*
X91750000Y-79440000D01*
%TO.N,Net-(IC1-Pad19)*%
X74020000Y-100235000D02*
X73445000Y-100810000D01*
X75295000Y-100235000D02*
X74020000Y-100235000D01*
X73445000Y-100810000D02*
X68760000Y-100810000D01*
X68760000Y-100810000D02*
X68510000Y-100560000D01*
X71110000Y-90980000D02*
X70200000Y-90980000D01*
X73420000Y-88670000D02*
X71110000Y-90980000D01*
%TO.N,Net-(IC1-Pad20)*%
X75295000Y-102205000D02*
X75295000Y-101505000D01*
X74950000Y-102550000D02*
X75295000Y-102205000D01*
X65630037Y-102550000D02*
X74950000Y-102550000D01*
X49220000Y-86139963D02*
X65630037Y-102550000D01*
X49220000Y-84760000D02*
X49220000Y-86139963D01*
%TO.N,Net-(IC1-Pad1)*%
X85360000Y-101820000D02*
X85045000Y-101505000D01*
X89400000Y-101820000D02*
X85360000Y-101820000D01*
%TO.N,Net-(IC1-Pad2)*%
X88445000Y-100235000D02*
X89400000Y-99280000D01*
X85045000Y-100235000D02*
X88445000Y-100235000D01*
%TO.N,Net-(IC1-Pad10)*%
X85045000Y-89375000D02*
X85045000Y-90075000D01*
X85300000Y-89120000D02*
X85045000Y-89375000D01*
X89400000Y-89120000D02*
X85300000Y-89120000D01*
%TO.N,VCC*%
X82410000Y-54000000D02*
X79880000Y-56530000D01*
X82410000Y-52160000D02*
X82410000Y-54000000D01*
X80580000Y-56530000D02*
X81600000Y-57550000D01*
X79880000Y-56530000D02*
X80580000Y-56530000D01*
X81600000Y-57550000D02*
X88450000Y-57550000D01*
X75295000Y-95155000D02*
X78865000Y-95155000D01*
X80135000Y-96425000D02*
X85045000Y-96425000D01*
X78865000Y-95155000D02*
X80135000Y-96425000D01*
X86320000Y-96425000D02*
X85045000Y-96425000D01*
X87770000Y-94975000D02*
X86320000Y-96425000D01*
X89400000Y-94200000D02*
X89400000Y-94580000D01*
X89005000Y-94975000D02*
X87770000Y-94975000D01*
X89400000Y-94580000D02*
X89005000Y-94975000D01*
X88450000Y-57550000D02*
X90845000Y-59945000D01*
X91400000Y-67175000D02*
X91360000Y-67135000D01*
X91400000Y-68400000D02*
X91400000Y-67175000D01*
X91360000Y-60460000D02*
X90845000Y-59945000D01*
X91360000Y-67135000D02*
X91360000Y-60460000D01*
X90125000Y-68400000D02*
X91400000Y-68400000D01*
X89290000Y-69235000D02*
X90125000Y-68400000D01*
X90550000Y-76300000D02*
X89290000Y-75040000D01*
X93820000Y-77160000D02*
X92960000Y-76300000D01*
X93820000Y-83290000D02*
X93820000Y-77160000D01*
X89290000Y-75040000D02*
X89290000Y-69235000D01*
X80135000Y-96425000D02*
X80135000Y-102815000D01*
X92960000Y-76300000D02*
X90550000Y-76300000D01*
X80135000Y-102815000D02*
X80805000Y-103485000D01*
X80805000Y-103485000D02*
X90495000Y-103485000D01*
X90495000Y-103485000D02*
X91870000Y-102110000D01*
X91870000Y-102110000D02*
X91870000Y-85240000D01*
X91870000Y-85240000D02*
X93820000Y-83290000D01*
%TO.N,GND*%
X85045000Y-95155000D02*
X80845000Y-95155000D01*
X80845000Y-95155000D02*
X79050000Y-93360000D01*
X77755000Y-96425000D02*
X75295000Y-96425000D01*
X78240000Y-96910000D02*
X77755000Y-96425000D01*
X86320000Y-95155000D02*
X86990000Y-94485000D01*
X85045000Y-95155000D02*
X86320000Y-95155000D01*
X88238000Y-91660000D02*
X89400000Y-91660000D01*
X86990000Y-92908000D02*
X88238000Y-91660000D01*
X86990000Y-94485000D02*
X86990000Y-92908000D01*
%TD*%
D23*
%TO.N,GND*%
G36*
X87385000Y-54285064D02*
G01*
X87381692Y-54317400D01*
X87385000Y-54352340D01*
X87385000Y-54353646D01*
X87388191Y-54386040D01*
X87394410Y-54451731D01*
X87394784Y-54452980D01*
X87394912Y-54454282D01*
X87414153Y-54517711D01*
X87433091Y-54581001D01*
X87433701Y-54582153D01*
X87434081Y-54583405D01*
X87465335Y-54641877D01*
X87496248Y-54700241D01*
X87497071Y-54701251D01*
X87497688Y-54702406D01*
X87539700Y-54753597D01*
X87560104Y-54778652D01*
X87561018Y-54779573D01*
X87583289Y-54806710D01*
X87608422Y-54827337D01*
X95294874Y-62572094D01*
X95285124Y-84253605D01*
X93404609Y-86205761D01*
X93383594Y-86222985D01*
X93357926Y-86254222D01*
X93353322Y-86259001D01*
X93336547Y-86280239D01*
X93297928Y-86327236D01*
X93294779Y-86333118D01*
X93290642Y-86338356D01*
X93262962Y-86392554D01*
X93234246Y-86446197D01*
X93232305Y-86452581D01*
X93229270Y-86458524D01*
X93212696Y-86517079D01*
X93194997Y-86575295D01*
X93194339Y-86581935D01*
X93192521Y-86588357D01*
X93187689Y-86649023D01*
X93185022Y-86675925D01*
X93185018Y-86682553D01*
X93181807Y-86722863D01*
X93184976Y-86749854D01*
X93175164Y-102429852D01*
X90811793Y-105095114D01*
X64302166Y-105104900D01*
X43065000Y-85054662D01*
X43065000Y-63660038D01*
X43820960Y-63660038D01*
X43825001Y-63701067D01*
X43825000Y-83288982D01*
X43820960Y-83330000D01*
X43825000Y-83371018D01*
X43837082Y-83493688D01*
X43884828Y-83651086D01*
X43962364Y-83796145D01*
X44066709Y-83923291D01*
X44098579Y-83949446D01*
X64290563Y-104141432D01*
X64316709Y-104173291D01*
X64443854Y-104277636D01*
X64588913Y-104355172D01*
X64746311Y-104402918D01*
X64868981Y-104415000D01*
X64868982Y-104415000D01*
X64910000Y-104419040D01*
X64951018Y-104415000D01*
X75253984Y-104415000D01*
X75295002Y-104419040D01*
X75336020Y-104415000D01*
X75336021Y-104415000D01*
X75458691Y-104402918D01*
X75616089Y-104355172D01*
X75761148Y-104277636D01*
X75888293Y-104173291D01*
X75914448Y-104141421D01*
X77691427Y-102364443D01*
X77723291Y-102338293D01*
X77827636Y-102211148D01*
X77905172Y-102066089D01*
X77952918Y-101908691D01*
X77958466Y-101852364D01*
X77969040Y-101745003D01*
X77965000Y-101703984D01*
X77965000Y-98296018D01*
X77969040Y-98255000D01*
X77959796Y-98161145D01*
X77952918Y-98091311D01*
X77905172Y-97933913D01*
X77827636Y-97788854D01*
X77723291Y-97661709D01*
X77691427Y-97635559D01*
X77189445Y-97133578D01*
X77163291Y-97101709D01*
X77036146Y-96997364D01*
X76891087Y-96919828D01*
X76784299Y-96887434D01*
X76795812Y-96849482D01*
X76808072Y-96725000D01*
X76805000Y-96710750D01*
X76646250Y-96552000D01*
X75422000Y-96552000D01*
X75422000Y-96572000D01*
X75168000Y-96572000D01*
X75168000Y-96552000D01*
X73943750Y-96552000D01*
X73785000Y-96710750D01*
X73781928Y-96725000D01*
X73794188Y-96849482D01*
X73830498Y-96969180D01*
X73879043Y-97060000D01*
X73830498Y-97150820D01*
X73794188Y-97270518D01*
X73781928Y-97395000D01*
X73781928Y-97995000D01*
X73794188Y-98119482D01*
X73797379Y-98130000D01*
X72766018Y-98130000D01*
X72725000Y-98125960D01*
X72683982Y-98130000D01*
X72683981Y-98130000D01*
X72561311Y-98142082D01*
X72540053Y-98148531D01*
X72371486Y-98115000D01*
X72108514Y-98115000D01*
X71850595Y-98166304D01*
X71607641Y-98266939D01*
X71388987Y-98413038D01*
X71203038Y-98598987D01*
X71056939Y-98817641D01*
X70956304Y-99060595D01*
X70905000Y-99318514D01*
X70905000Y-99581486D01*
X70956304Y-99839405D01*
X71012469Y-99975000D01*
X69712678Y-99975000D01*
X69693061Y-99927641D01*
X69546962Y-99708987D01*
X69361013Y-99523038D01*
X69142359Y-99376939D01*
X68899405Y-99276304D01*
X68641486Y-99225000D01*
X68378514Y-99225000D01*
X68120595Y-99276304D01*
X67877641Y-99376939D01*
X67658987Y-99523038D01*
X67473038Y-99708987D01*
X67326939Y-99927641D01*
X67226304Y-100170595D01*
X67175000Y-100428514D01*
X67175000Y-100691486D01*
X67226304Y-100949405D01*
X67326939Y-101192359D01*
X67473038Y-101411013D01*
X67658987Y-101596962D01*
X67835644Y-101715000D01*
X65975906Y-101715000D01*
X59512835Y-95251930D01*
X59628816Y-95275000D01*
X59931184Y-95275000D01*
X60227743Y-95216011D01*
X60507095Y-95100299D01*
X60758505Y-94932312D01*
X60824944Y-94865873D01*
X60830498Y-94884180D01*
X60889463Y-94994494D01*
X60968815Y-95091185D01*
X61065506Y-95170537D01*
X61175820Y-95229502D01*
X61295518Y-95265812D01*
X61420000Y-95278072D01*
X61519646Y-95278072D01*
X61544828Y-95361086D01*
X61622364Y-95506145D01*
X61726709Y-95633291D01*
X61758579Y-95659446D01*
X63290563Y-97191432D01*
X63316709Y-97223291D01*
X63443854Y-97327636D01*
X63588913Y-97405172D01*
X63746311Y-97452918D01*
X63868981Y-97465000D01*
X63868982Y-97465000D01*
X63910000Y-97469040D01*
X63951018Y-97465000D01*
X71233982Y-97465000D01*
X71275000Y-97469040D01*
X71316018Y-97465000D01*
X71316019Y-97465000D01*
X71438689Y-97452918D01*
X71596087Y-97405172D01*
X71741146Y-97327636D01*
X71868291Y-97223291D01*
X71894446Y-97191421D01*
X73781928Y-95303940D01*
X73781928Y-95455000D01*
X73794188Y-95579482D01*
X73830498Y-95699180D01*
X73879043Y-95790000D01*
X73830498Y-95880820D01*
X73794188Y-96000518D01*
X73781928Y-96125000D01*
X73785000Y-96139250D01*
X73943750Y-96298000D01*
X75168000Y-96298000D01*
X75168000Y-96278000D01*
X75422000Y-96278000D01*
X75422000Y-96298000D01*
X76646250Y-96298000D01*
X76805000Y-96139250D01*
X76808072Y-96125000D01*
X76795812Y-96000518D01*
X76792621Y-95990000D01*
X78519133Y-95990000D01*
X79300000Y-96770868D01*
X79300001Y-102773972D01*
X79295960Y-102815000D01*
X79312082Y-102978688D01*
X79359828Y-103136086D01*
X79437364Y-103281145D01*
X79437365Y-103281146D01*
X79541710Y-103408291D01*
X79573574Y-103434441D01*
X80185558Y-104046426D01*
X80211709Y-104078291D01*
X80327466Y-104173290D01*
X80338854Y-104182636D01*
X80483913Y-104260172D01*
X80641311Y-104307918D01*
X80804999Y-104324040D01*
X80846018Y-104320000D01*
X90453982Y-104320000D01*
X90495000Y-104324040D01*
X90536018Y-104320000D01*
X90536019Y-104320000D01*
X90658689Y-104307918D01*
X90816087Y-104260172D01*
X90961146Y-104182636D01*
X91088291Y-104078291D01*
X91114446Y-104046422D01*
X92431433Y-102729436D01*
X92463291Y-102703291D01*
X92489673Y-102671145D01*
X92567636Y-102576146D01*
X92645172Y-102431087D01*
X92670117Y-102348855D01*
X92692918Y-102273689D01*
X92705000Y-102151019D01*
X92705000Y-102151018D01*
X92709040Y-102110000D01*
X92705000Y-102068982D01*
X92705000Y-85585867D01*
X94381428Y-83909440D01*
X94413291Y-83883291D01*
X94517636Y-83756146D01*
X94595172Y-83611087D01*
X94642918Y-83453689D01*
X94655000Y-83331019D01*
X94655000Y-83331009D01*
X94659039Y-83290001D01*
X94655000Y-83248993D01*
X94655000Y-77201018D01*
X94659040Y-77160000D01*
X94646809Y-77035820D01*
X94642918Y-76996311D01*
X94595172Y-76838913D01*
X94517636Y-76693854D01*
X94505879Y-76679528D01*
X94439439Y-76598570D01*
X94439437Y-76598568D01*
X94413291Y-76566709D01*
X94381432Y-76540563D01*
X93579445Y-75738578D01*
X93553291Y-75706709D01*
X93426146Y-75602364D01*
X93281087Y-75524828D01*
X93123689Y-75477082D01*
X93001019Y-75465000D01*
X93001018Y-75465000D01*
X92960000Y-75460960D01*
X92918982Y-75465000D01*
X90895868Y-75465000D01*
X90692325Y-75261458D01*
X91114250Y-75260000D01*
X91273000Y-75101250D01*
X91273000Y-73627000D01*
X91527000Y-73627000D01*
X91527000Y-75101250D01*
X91685750Y-75260000D01*
X92575000Y-75263072D01*
X92699482Y-75250812D01*
X92819180Y-75214502D01*
X92929494Y-75155537D01*
X93026185Y-75076185D01*
X93105537Y-74979494D01*
X93164502Y-74869180D01*
X93200812Y-74749482D01*
X93213072Y-74625000D01*
X93210000Y-73785750D01*
X93051250Y-73627000D01*
X91527000Y-73627000D01*
X91273000Y-73627000D01*
X91253000Y-73627000D01*
X91253000Y-73373000D01*
X91273000Y-73373000D01*
X91273000Y-71898750D01*
X91527000Y-71898750D01*
X91527000Y-73373000D01*
X93051250Y-73373000D01*
X93210000Y-73214250D01*
X93213072Y-72375000D01*
X93200812Y-72250518D01*
X93164502Y-72130820D01*
X93105537Y-72020506D01*
X93026185Y-71923815D01*
X92929494Y-71844463D01*
X92819180Y-71785498D01*
X92699482Y-71749188D01*
X92575000Y-71736928D01*
X91685750Y-71740000D01*
X91527000Y-71898750D01*
X91273000Y-71898750D01*
X91114250Y-71740000D01*
X90225000Y-71736928D01*
X90125000Y-71746777D01*
X90125000Y-70090047D01*
X90135149Y-70095472D01*
X90301745Y-70146008D01*
X90474999Y-70163072D01*
X92325001Y-70163072D01*
X92498255Y-70146008D01*
X92664851Y-70095472D01*
X92818387Y-70013405D01*
X92952962Y-69902962D01*
X93063405Y-69768387D01*
X93145472Y-69614851D01*
X93196008Y-69448255D01*
X93213072Y-69275001D01*
X93213072Y-67524999D01*
X93196008Y-67351745D01*
X93145472Y-67185149D01*
X93063405Y-67031613D01*
X92952962Y-66897038D01*
X92818387Y-66786595D01*
X92664851Y-66704528D01*
X92498255Y-66653992D01*
X92325001Y-66636928D01*
X92195000Y-66636928D01*
X92195000Y-60501018D01*
X92199040Y-60460000D01*
X92182918Y-60296311D01*
X92135172Y-60138913D01*
X92057636Y-59993854D01*
X91953291Y-59866709D01*
X91921421Y-59840554D01*
X91464443Y-59383576D01*
X91464438Y-59383570D01*
X89069446Y-56988579D01*
X89043291Y-56956709D01*
X88916146Y-56852364D01*
X88771087Y-56774828D01*
X88613689Y-56727082D01*
X88491019Y-56715000D01*
X88491018Y-56715000D01*
X88450000Y-56710960D01*
X88408982Y-56715000D01*
X81945868Y-56715000D01*
X81410867Y-56180000D01*
X82140868Y-55450000D01*
X82463572Y-55450000D01*
X82463572Y-55127296D01*
X82876429Y-54714439D01*
X82876429Y-55860000D01*
X86303572Y-55860000D01*
X86303572Y-53397351D01*
X86330537Y-53364494D01*
X86389502Y-53254180D01*
X86425812Y-53134482D01*
X86438072Y-53010000D01*
X86435000Y-52445750D01*
X86303572Y-52314322D01*
X86303572Y-52040000D01*
X84803000Y-52040000D01*
X84803000Y-52033000D01*
X84823000Y-52033000D01*
X84823000Y-50833750D01*
X85077000Y-50833750D01*
X85077000Y-52033000D01*
X86276250Y-52033000D01*
X86435000Y-51874250D01*
X86438072Y-51310000D01*
X86425812Y-51185518D01*
X86389502Y-51065820D01*
X86330537Y-50955506D01*
X86251185Y-50858815D01*
X86154494Y-50779463D01*
X86044180Y-50720498D01*
X85924482Y-50684188D01*
X85800000Y-50671928D01*
X85235750Y-50675000D01*
X85077000Y-50833750D01*
X84823000Y-50833750D01*
X84664250Y-50675000D01*
X84100000Y-50671928D01*
X83975518Y-50684188D01*
X83855820Y-50720498D01*
X83745506Y-50779463D01*
X83648815Y-50858815D01*
X83569463Y-50955506D01*
X83510498Y-51065820D01*
X83489607Y-51134687D01*
X83465134Y-51104866D01*
X83239014Y-50919294D01*
X82981034Y-50781401D01*
X82701111Y-50696487D01*
X82482950Y-50675000D01*
X82337050Y-50675000D01*
X82118889Y-50696487D01*
X81838966Y-50781401D01*
X81580986Y-50919294D01*
X81354866Y-51104866D01*
X81169294Y-51330986D01*
X81031401Y-51588966D01*
X81018953Y-51630000D01*
X79036429Y-51630000D01*
X79036429Y-55341746D01*
X78902038Y-55452038D01*
X78880000Y-55478891D01*
X78857962Y-55452038D01*
X78723387Y-55341595D01*
X78715000Y-55337112D01*
X78715000Y-54851007D01*
X78719039Y-54809999D01*
X78715000Y-54768991D01*
X78715000Y-54768981D01*
X78702918Y-54646311D01*
X78655172Y-54488913D01*
X78577636Y-54343854D01*
X78473291Y-54216709D01*
X78441427Y-54190560D01*
X77739446Y-53488579D01*
X77713291Y-53456709D01*
X77586146Y-53352364D01*
X77441087Y-53274828D01*
X77395807Y-53261093D01*
X77399502Y-53254180D01*
X77435812Y-53134482D01*
X77448072Y-53010000D01*
X77445000Y-52445750D01*
X77286250Y-52287000D01*
X76087000Y-52287000D01*
X76087000Y-52307000D01*
X75833000Y-52307000D01*
X75833000Y-52287000D01*
X75813000Y-52287000D01*
X75813000Y-52033000D01*
X75833000Y-52033000D01*
X75833000Y-50833750D01*
X76087000Y-50833750D01*
X76087000Y-52033000D01*
X77286250Y-52033000D01*
X77445000Y-51874250D01*
X77448072Y-51310000D01*
X77435812Y-51185518D01*
X77399502Y-51065820D01*
X77340537Y-50955506D01*
X77261185Y-50858815D01*
X77164494Y-50779463D01*
X77054180Y-50720498D01*
X76934482Y-50684188D01*
X76810000Y-50671928D01*
X76245750Y-50675000D01*
X76087000Y-50833750D01*
X75833000Y-50833750D01*
X75674250Y-50675000D01*
X75110000Y-50671928D01*
X74985518Y-50684188D01*
X74865820Y-50720498D01*
X74755506Y-50779463D01*
X74658815Y-50858815D01*
X74579463Y-50955506D01*
X74520498Y-51065820D01*
X74499607Y-51134687D01*
X74475134Y-51104866D01*
X74249014Y-50919294D01*
X73991034Y-50781401D01*
X73711111Y-50696487D01*
X73492950Y-50675000D01*
X73347050Y-50675000D01*
X73128889Y-50696487D01*
X72848966Y-50781401D01*
X72590986Y-50919294D01*
X72364866Y-51104866D01*
X72179294Y-51330986D01*
X72041401Y-51588966D01*
X71956487Y-51868889D01*
X71927815Y-52160000D01*
X71956487Y-52451111D01*
X72041401Y-52731034D01*
X72179294Y-52989014D01*
X72364866Y-53215134D01*
X72584217Y-53395151D01*
X72597082Y-53525769D01*
X72644828Y-53683167D01*
X72682947Y-53754482D01*
X72722365Y-53828227D01*
X72826710Y-53955372D01*
X72858574Y-53981522D01*
X73488477Y-54611426D01*
X73514628Y-54643291D01*
X73641773Y-54747636D01*
X73786832Y-54825172D01*
X73944230Y-54872918D01*
X74066900Y-54885000D01*
X74066910Y-54885000D01*
X74107918Y-54889039D01*
X74148926Y-54885000D01*
X76774133Y-54885000D01*
X77045000Y-55155868D01*
X77045000Y-55337112D01*
X77036613Y-55341595D01*
X76902038Y-55452038D01*
X76791595Y-55586613D01*
X76709528Y-55740149D01*
X76658992Y-55906745D01*
X76641928Y-56079999D01*
X76641928Y-56980001D01*
X76658992Y-57153255D01*
X76709528Y-57319851D01*
X76791595Y-57473387D01*
X76902038Y-57607962D01*
X77036613Y-57718405D01*
X77190149Y-57800472D01*
X77356745Y-57851008D01*
X77529999Y-57868072D01*
X78230001Y-57868072D01*
X78403255Y-57851008D01*
X78569851Y-57800472D01*
X78723387Y-57718405D01*
X78857962Y-57607962D01*
X78880000Y-57581109D01*
X78902038Y-57607962D01*
X79036613Y-57718405D01*
X79190149Y-57800472D01*
X79356745Y-57851008D01*
X79529999Y-57868072D01*
X80230001Y-57868072D01*
X80403255Y-57851008D01*
X80569851Y-57800472D01*
X80634857Y-57765725D01*
X80980563Y-58111432D01*
X81006709Y-58143291D01*
X81038568Y-58169437D01*
X81038570Y-58169439D01*
X81106480Y-58225171D01*
X81133854Y-58247636D01*
X81278913Y-58325172D01*
X81436311Y-58372918D01*
X81508216Y-58380000D01*
X81600000Y-58389040D01*
X81641018Y-58385000D01*
X88104133Y-58385000D01*
X90283570Y-60564438D01*
X90283576Y-60564443D01*
X90525001Y-60805868D01*
X90525001Y-61124133D01*
X88329446Y-58928579D01*
X88303291Y-58896709D01*
X88176146Y-58792364D01*
X88031087Y-58714828D01*
X87873689Y-58667082D01*
X87751019Y-58655000D01*
X87751018Y-58655000D01*
X87710000Y-58650960D01*
X87668982Y-58655000D01*
X75279116Y-58655000D01*
X75358405Y-58558386D01*
X75440472Y-58404850D01*
X75491008Y-58238254D01*
X75508072Y-58065000D01*
X75508072Y-55915000D01*
X75491008Y-55741746D01*
X75440472Y-55575150D01*
X75358405Y-55421614D01*
X75247962Y-55287038D01*
X75113386Y-55176595D01*
X74959850Y-55094528D01*
X74793254Y-55043992D01*
X74620000Y-55026928D01*
X73820000Y-55026928D01*
X73646746Y-55043992D01*
X73499521Y-55088652D01*
X68665000Y-50254133D01*
X68665000Y-49951019D01*
X68669040Y-49910000D01*
X68652918Y-49746311D01*
X68605172Y-49588913D01*
X68527636Y-49443854D01*
X68423291Y-49316709D01*
X68296146Y-49212364D01*
X68151087Y-49134828D01*
X67993689Y-49087082D01*
X67871019Y-49075000D01*
X67871018Y-49075000D01*
X67830000Y-49070960D01*
X67788981Y-49075000D01*
X58451053Y-49075000D01*
X58410037Y-49070960D01*
X58369021Y-49075000D01*
X58369019Y-49075000D01*
X58246349Y-49087082D01*
X58088951Y-49134828D01*
X57943892Y-49212364D01*
X57816747Y-49316709D01*
X57790597Y-49348573D01*
X44098574Y-63040597D01*
X44066710Y-63066747D01*
X43989208Y-63161184D01*
X43962364Y-63193893D01*
X43884828Y-63338952D01*
X43837082Y-63496350D01*
X43820960Y-63660038D01*
X43065000Y-63660038D01*
X43065000Y-62266485D01*
X56640995Y-48875000D01*
X87385001Y-48875000D01*
X87385000Y-54285064D01*
X87385000Y-54285064D01*
G37*
X87385000Y-54285064D02*
X87381692Y-54317400D01*
X87385000Y-54352340D01*
X87385000Y-54353646D01*
X87388191Y-54386040D01*
X87394410Y-54451731D01*
X87394784Y-54452980D01*
X87394912Y-54454282D01*
X87414153Y-54517711D01*
X87433091Y-54581001D01*
X87433701Y-54582153D01*
X87434081Y-54583405D01*
X87465335Y-54641877D01*
X87496248Y-54700241D01*
X87497071Y-54701251D01*
X87497688Y-54702406D01*
X87539700Y-54753597D01*
X87560104Y-54778652D01*
X87561018Y-54779573D01*
X87583289Y-54806710D01*
X87608422Y-54827337D01*
X95294874Y-62572094D01*
X95285124Y-84253605D01*
X93404609Y-86205761D01*
X93383594Y-86222985D01*
X93357926Y-86254222D01*
X93353322Y-86259001D01*
X93336547Y-86280239D01*
X93297928Y-86327236D01*
X93294779Y-86333118D01*
X93290642Y-86338356D01*
X93262962Y-86392554D01*
X93234246Y-86446197D01*
X93232305Y-86452581D01*
X93229270Y-86458524D01*
X93212696Y-86517079D01*
X93194997Y-86575295D01*
X93194339Y-86581935D01*
X93192521Y-86588357D01*
X93187689Y-86649023D01*
X93185022Y-86675925D01*
X93185018Y-86682553D01*
X93181807Y-86722863D01*
X93184976Y-86749854D01*
X93175164Y-102429852D01*
X90811793Y-105095114D01*
X64302166Y-105104900D01*
X43065000Y-85054662D01*
X43065000Y-63660038D01*
X43820960Y-63660038D01*
X43825001Y-63701067D01*
X43825000Y-83288982D01*
X43820960Y-83330000D01*
X43825000Y-83371018D01*
X43837082Y-83493688D01*
X43884828Y-83651086D01*
X43962364Y-83796145D01*
X44066709Y-83923291D01*
X44098579Y-83949446D01*
X64290563Y-104141432D01*
X64316709Y-104173291D01*
X64443854Y-104277636D01*
X64588913Y-104355172D01*
X64746311Y-104402918D01*
X64868981Y-104415000D01*
X64868982Y-104415000D01*
X64910000Y-104419040D01*
X64951018Y-104415000D01*
X75253984Y-104415000D01*
X75295002Y-104419040D01*
X75336020Y-104415000D01*
X75336021Y-104415000D01*
X75458691Y-104402918D01*
X75616089Y-104355172D01*
X75761148Y-104277636D01*
X75888293Y-104173291D01*
X75914448Y-104141421D01*
X77691427Y-102364443D01*
X77723291Y-102338293D01*
X77827636Y-102211148D01*
X77905172Y-102066089D01*
X77952918Y-101908691D01*
X77958466Y-101852364D01*
X77969040Y-101745003D01*
X77965000Y-101703984D01*
X77965000Y-98296018D01*
X77969040Y-98255000D01*
X77959796Y-98161145D01*
X77952918Y-98091311D01*
X77905172Y-97933913D01*
X77827636Y-97788854D01*
X77723291Y-97661709D01*
X77691427Y-97635559D01*
X77189445Y-97133578D01*
X77163291Y-97101709D01*
X77036146Y-96997364D01*
X76891087Y-96919828D01*
X76784299Y-96887434D01*
X76795812Y-96849482D01*
X76808072Y-96725000D01*
X76805000Y-96710750D01*
X76646250Y-96552000D01*
X75422000Y-96552000D01*
X75422000Y-96572000D01*
X75168000Y-96572000D01*
X75168000Y-96552000D01*
X73943750Y-96552000D01*
X73785000Y-96710750D01*
X73781928Y-96725000D01*
X73794188Y-96849482D01*
X73830498Y-96969180D01*
X73879043Y-97060000D01*
X73830498Y-97150820D01*
X73794188Y-97270518D01*
X73781928Y-97395000D01*
X73781928Y-97995000D01*
X73794188Y-98119482D01*
X73797379Y-98130000D01*
X72766018Y-98130000D01*
X72725000Y-98125960D01*
X72683982Y-98130000D01*
X72683981Y-98130000D01*
X72561311Y-98142082D01*
X72540053Y-98148531D01*
X72371486Y-98115000D01*
X72108514Y-98115000D01*
X71850595Y-98166304D01*
X71607641Y-98266939D01*
X71388987Y-98413038D01*
X71203038Y-98598987D01*
X71056939Y-98817641D01*
X70956304Y-99060595D01*
X70905000Y-99318514D01*
X70905000Y-99581486D01*
X70956304Y-99839405D01*
X71012469Y-99975000D01*
X69712678Y-99975000D01*
X69693061Y-99927641D01*
X69546962Y-99708987D01*
X69361013Y-99523038D01*
X69142359Y-99376939D01*
X68899405Y-99276304D01*
X68641486Y-99225000D01*
X68378514Y-99225000D01*
X68120595Y-99276304D01*
X67877641Y-99376939D01*
X67658987Y-99523038D01*
X67473038Y-99708987D01*
X67326939Y-99927641D01*
X67226304Y-100170595D01*
X67175000Y-100428514D01*
X67175000Y-100691486D01*
X67226304Y-100949405D01*
X67326939Y-101192359D01*
X67473038Y-101411013D01*
X67658987Y-101596962D01*
X67835644Y-101715000D01*
X65975906Y-101715000D01*
X59512835Y-95251930D01*
X59628816Y-95275000D01*
X59931184Y-95275000D01*
X60227743Y-95216011D01*
X60507095Y-95100299D01*
X60758505Y-94932312D01*
X60824944Y-94865873D01*
X60830498Y-94884180D01*
X60889463Y-94994494D01*
X60968815Y-95091185D01*
X61065506Y-95170537D01*
X61175820Y-95229502D01*
X61295518Y-95265812D01*
X61420000Y-95278072D01*
X61519646Y-95278072D01*
X61544828Y-95361086D01*
X61622364Y-95506145D01*
X61726709Y-95633291D01*
X61758579Y-95659446D01*
X63290563Y-97191432D01*
X63316709Y-97223291D01*
X63443854Y-97327636D01*
X63588913Y-97405172D01*
X63746311Y-97452918D01*
X63868981Y-97465000D01*
X63868982Y-97465000D01*
X63910000Y-97469040D01*
X63951018Y-97465000D01*
X71233982Y-97465000D01*
X71275000Y-97469040D01*
X71316018Y-97465000D01*
X71316019Y-97465000D01*
X71438689Y-97452918D01*
X71596087Y-97405172D01*
X71741146Y-97327636D01*
X71868291Y-97223291D01*
X71894446Y-97191421D01*
X73781928Y-95303940D01*
X73781928Y-95455000D01*
X73794188Y-95579482D01*
X73830498Y-95699180D01*
X73879043Y-95790000D01*
X73830498Y-95880820D01*
X73794188Y-96000518D01*
X73781928Y-96125000D01*
X73785000Y-96139250D01*
X73943750Y-96298000D01*
X75168000Y-96298000D01*
X75168000Y-96278000D01*
X75422000Y-96278000D01*
X75422000Y-96298000D01*
X76646250Y-96298000D01*
X76805000Y-96139250D01*
X76808072Y-96125000D01*
X76795812Y-96000518D01*
X76792621Y-95990000D01*
X78519133Y-95990000D01*
X79300000Y-96770868D01*
X79300001Y-102773972D01*
X79295960Y-102815000D01*
X79312082Y-102978688D01*
X79359828Y-103136086D01*
X79437364Y-103281145D01*
X79437365Y-103281146D01*
X79541710Y-103408291D01*
X79573574Y-103434441D01*
X80185558Y-104046426D01*
X80211709Y-104078291D01*
X80327466Y-104173290D01*
X80338854Y-104182636D01*
X80483913Y-104260172D01*
X80641311Y-104307918D01*
X80804999Y-104324040D01*
X80846018Y-104320000D01*
X90453982Y-104320000D01*
X90495000Y-104324040D01*
X90536018Y-104320000D01*
X90536019Y-104320000D01*
X90658689Y-104307918D01*
X90816087Y-104260172D01*
X90961146Y-104182636D01*
X91088291Y-104078291D01*
X91114446Y-104046422D01*
X92431433Y-102729436D01*
X92463291Y-102703291D01*
X92489673Y-102671145D01*
X92567636Y-102576146D01*
X92645172Y-102431087D01*
X92670117Y-102348855D01*
X92692918Y-102273689D01*
X92705000Y-102151019D01*
X92705000Y-102151018D01*
X92709040Y-102110000D01*
X92705000Y-102068982D01*
X92705000Y-85585867D01*
X94381428Y-83909440D01*
X94413291Y-83883291D01*
X94517636Y-83756146D01*
X94595172Y-83611087D01*
X94642918Y-83453689D01*
X94655000Y-83331019D01*
X94655000Y-83331009D01*
X94659039Y-83290001D01*
X94655000Y-83248993D01*
X94655000Y-77201018D01*
X94659040Y-77160000D01*
X94646809Y-77035820D01*
X94642918Y-76996311D01*
X94595172Y-76838913D01*
X94517636Y-76693854D01*
X94505879Y-76679528D01*
X94439439Y-76598570D01*
X94439437Y-76598568D01*
X94413291Y-76566709D01*
X94381432Y-76540563D01*
X93579445Y-75738578D01*
X93553291Y-75706709D01*
X93426146Y-75602364D01*
X93281087Y-75524828D01*
X93123689Y-75477082D01*
X93001019Y-75465000D01*
X93001018Y-75465000D01*
X92960000Y-75460960D01*
X92918982Y-75465000D01*
X90895868Y-75465000D01*
X90692325Y-75261458D01*
X91114250Y-75260000D01*
X91273000Y-75101250D01*
X91273000Y-73627000D01*
X91527000Y-73627000D01*
X91527000Y-75101250D01*
X91685750Y-75260000D01*
X92575000Y-75263072D01*
X92699482Y-75250812D01*
X92819180Y-75214502D01*
X92929494Y-75155537D01*
X93026185Y-75076185D01*
X93105537Y-74979494D01*
X93164502Y-74869180D01*
X93200812Y-74749482D01*
X93213072Y-74625000D01*
X93210000Y-73785750D01*
X93051250Y-73627000D01*
X91527000Y-73627000D01*
X91273000Y-73627000D01*
X91253000Y-73627000D01*
X91253000Y-73373000D01*
X91273000Y-73373000D01*
X91273000Y-71898750D01*
X91527000Y-71898750D01*
X91527000Y-73373000D01*
X93051250Y-73373000D01*
X93210000Y-73214250D01*
X93213072Y-72375000D01*
X93200812Y-72250518D01*
X93164502Y-72130820D01*
X93105537Y-72020506D01*
X93026185Y-71923815D01*
X92929494Y-71844463D01*
X92819180Y-71785498D01*
X92699482Y-71749188D01*
X92575000Y-71736928D01*
X91685750Y-71740000D01*
X91527000Y-71898750D01*
X91273000Y-71898750D01*
X91114250Y-71740000D01*
X90225000Y-71736928D01*
X90125000Y-71746777D01*
X90125000Y-70090047D01*
X90135149Y-70095472D01*
X90301745Y-70146008D01*
X90474999Y-70163072D01*
X92325001Y-70163072D01*
X92498255Y-70146008D01*
X92664851Y-70095472D01*
X92818387Y-70013405D01*
X92952962Y-69902962D01*
X93063405Y-69768387D01*
X93145472Y-69614851D01*
X93196008Y-69448255D01*
X93213072Y-69275001D01*
X93213072Y-67524999D01*
X93196008Y-67351745D01*
X93145472Y-67185149D01*
X93063405Y-67031613D01*
X92952962Y-66897038D01*
X92818387Y-66786595D01*
X92664851Y-66704528D01*
X92498255Y-66653992D01*
X92325001Y-66636928D01*
X92195000Y-66636928D01*
X92195000Y-60501018D01*
X92199040Y-60460000D01*
X92182918Y-60296311D01*
X92135172Y-60138913D01*
X92057636Y-59993854D01*
X91953291Y-59866709D01*
X91921421Y-59840554D01*
X91464443Y-59383576D01*
X91464438Y-59383570D01*
X89069446Y-56988579D01*
X89043291Y-56956709D01*
X88916146Y-56852364D01*
X88771087Y-56774828D01*
X88613689Y-56727082D01*
X88491019Y-56715000D01*
X88491018Y-56715000D01*
X88450000Y-56710960D01*
X88408982Y-56715000D01*
X81945868Y-56715000D01*
X81410867Y-56180000D01*
X82140868Y-55450000D01*
X82463572Y-55450000D01*
X82463572Y-55127296D01*
X82876429Y-54714439D01*
X82876429Y-55860000D01*
X86303572Y-55860000D01*
X86303572Y-53397351D01*
X86330537Y-53364494D01*
X86389502Y-53254180D01*
X86425812Y-53134482D01*
X86438072Y-53010000D01*
X86435000Y-52445750D01*
X86303572Y-52314322D01*
X86303572Y-52040000D01*
X84803000Y-52040000D01*
X84803000Y-52033000D01*
X84823000Y-52033000D01*
X84823000Y-50833750D01*
X85077000Y-50833750D01*
X85077000Y-52033000D01*
X86276250Y-52033000D01*
X86435000Y-51874250D01*
X86438072Y-51310000D01*
X86425812Y-51185518D01*
X86389502Y-51065820D01*
X86330537Y-50955506D01*
X86251185Y-50858815D01*
X86154494Y-50779463D01*
X86044180Y-50720498D01*
X85924482Y-50684188D01*
X85800000Y-50671928D01*
X85235750Y-50675000D01*
X85077000Y-50833750D01*
X84823000Y-50833750D01*
X84664250Y-50675000D01*
X84100000Y-50671928D01*
X83975518Y-50684188D01*
X83855820Y-50720498D01*
X83745506Y-50779463D01*
X83648815Y-50858815D01*
X83569463Y-50955506D01*
X83510498Y-51065820D01*
X83489607Y-51134687D01*
X83465134Y-51104866D01*
X83239014Y-50919294D01*
X82981034Y-50781401D01*
X82701111Y-50696487D01*
X82482950Y-50675000D01*
X82337050Y-50675000D01*
X82118889Y-50696487D01*
X81838966Y-50781401D01*
X81580986Y-50919294D01*
X81354866Y-51104866D01*
X81169294Y-51330986D01*
X81031401Y-51588966D01*
X81018953Y-51630000D01*
X79036429Y-51630000D01*
X79036429Y-55341746D01*
X78902038Y-55452038D01*
X78880000Y-55478891D01*
X78857962Y-55452038D01*
X78723387Y-55341595D01*
X78715000Y-55337112D01*
X78715000Y-54851007D01*
X78719039Y-54809999D01*
X78715000Y-54768991D01*
X78715000Y-54768981D01*
X78702918Y-54646311D01*
X78655172Y-54488913D01*
X78577636Y-54343854D01*
X78473291Y-54216709D01*
X78441427Y-54190560D01*
X77739446Y-53488579D01*
X77713291Y-53456709D01*
X77586146Y-53352364D01*
X77441087Y-53274828D01*
X77395807Y-53261093D01*
X77399502Y-53254180D01*
X77435812Y-53134482D01*
X77448072Y-53010000D01*
X77445000Y-52445750D01*
X77286250Y-52287000D01*
X76087000Y-52287000D01*
X76087000Y-52307000D01*
X75833000Y-52307000D01*
X75833000Y-52287000D01*
X75813000Y-52287000D01*
X75813000Y-52033000D01*
X75833000Y-52033000D01*
X75833000Y-50833750D01*
X76087000Y-50833750D01*
X76087000Y-52033000D01*
X77286250Y-52033000D01*
X77445000Y-51874250D01*
X77448072Y-51310000D01*
X77435812Y-51185518D01*
X77399502Y-51065820D01*
X77340537Y-50955506D01*
X77261185Y-50858815D01*
X77164494Y-50779463D01*
X77054180Y-50720498D01*
X76934482Y-50684188D01*
X76810000Y-50671928D01*
X76245750Y-50675000D01*
X76087000Y-50833750D01*
X75833000Y-50833750D01*
X75674250Y-50675000D01*
X75110000Y-50671928D01*
X74985518Y-50684188D01*
X74865820Y-50720498D01*
X74755506Y-50779463D01*
X74658815Y-50858815D01*
X74579463Y-50955506D01*
X74520498Y-51065820D01*
X74499607Y-51134687D01*
X74475134Y-51104866D01*
X74249014Y-50919294D01*
X73991034Y-50781401D01*
X73711111Y-50696487D01*
X73492950Y-50675000D01*
X73347050Y-50675000D01*
X73128889Y-50696487D01*
X72848966Y-50781401D01*
X72590986Y-50919294D01*
X72364866Y-51104866D01*
X72179294Y-51330986D01*
X72041401Y-51588966D01*
X71956487Y-51868889D01*
X71927815Y-52160000D01*
X71956487Y-52451111D01*
X72041401Y-52731034D01*
X72179294Y-52989014D01*
X72364866Y-53215134D01*
X72584217Y-53395151D01*
X72597082Y-53525769D01*
X72644828Y-53683167D01*
X72682947Y-53754482D01*
X72722365Y-53828227D01*
X72826710Y-53955372D01*
X72858574Y-53981522D01*
X73488477Y-54611426D01*
X73514628Y-54643291D01*
X73641773Y-54747636D01*
X73786832Y-54825172D01*
X73944230Y-54872918D01*
X74066900Y-54885000D01*
X74066910Y-54885000D01*
X74107918Y-54889039D01*
X74148926Y-54885000D01*
X76774133Y-54885000D01*
X77045000Y-55155868D01*
X77045000Y-55337112D01*
X77036613Y-55341595D01*
X76902038Y-55452038D01*
X76791595Y-55586613D01*
X76709528Y-55740149D01*
X76658992Y-55906745D01*
X76641928Y-56079999D01*
X76641928Y-56980001D01*
X76658992Y-57153255D01*
X76709528Y-57319851D01*
X76791595Y-57473387D01*
X76902038Y-57607962D01*
X77036613Y-57718405D01*
X77190149Y-57800472D01*
X77356745Y-57851008D01*
X77529999Y-57868072D01*
X78230001Y-57868072D01*
X78403255Y-57851008D01*
X78569851Y-57800472D01*
X78723387Y-57718405D01*
X78857962Y-57607962D01*
X78880000Y-57581109D01*
X78902038Y-57607962D01*
X79036613Y-57718405D01*
X79190149Y-57800472D01*
X79356745Y-57851008D01*
X79529999Y-57868072D01*
X80230001Y-57868072D01*
X80403255Y-57851008D01*
X80569851Y-57800472D01*
X80634857Y-57765725D01*
X80980563Y-58111432D01*
X81006709Y-58143291D01*
X81038568Y-58169437D01*
X81038570Y-58169439D01*
X81106480Y-58225171D01*
X81133854Y-58247636D01*
X81278913Y-58325172D01*
X81436311Y-58372918D01*
X81508216Y-58380000D01*
X81600000Y-58389040D01*
X81641018Y-58385000D01*
X88104133Y-58385000D01*
X90283570Y-60564438D01*
X90283576Y-60564443D01*
X90525001Y-60805868D01*
X90525001Y-61124133D01*
X88329446Y-58928579D01*
X88303291Y-58896709D01*
X88176146Y-58792364D01*
X88031087Y-58714828D01*
X87873689Y-58667082D01*
X87751019Y-58655000D01*
X87751018Y-58655000D01*
X87710000Y-58650960D01*
X87668982Y-58655000D01*
X75279116Y-58655000D01*
X75358405Y-58558386D01*
X75440472Y-58404850D01*
X75491008Y-58238254D01*
X75508072Y-58065000D01*
X75508072Y-55915000D01*
X75491008Y-55741746D01*
X75440472Y-55575150D01*
X75358405Y-55421614D01*
X75247962Y-55287038D01*
X75113386Y-55176595D01*
X74959850Y-55094528D01*
X74793254Y-55043992D01*
X74620000Y-55026928D01*
X73820000Y-55026928D01*
X73646746Y-55043992D01*
X73499521Y-55088652D01*
X68665000Y-50254133D01*
X68665000Y-49951019D01*
X68669040Y-49910000D01*
X68652918Y-49746311D01*
X68605172Y-49588913D01*
X68527636Y-49443854D01*
X68423291Y-49316709D01*
X68296146Y-49212364D01*
X68151087Y-49134828D01*
X67993689Y-49087082D01*
X67871019Y-49075000D01*
X67871018Y-49075000D01*
X67830000Y-49070960D01*
X67788981Y-49075000D01*
X58451053Y-49075000D01*
X58410037Y-49070960D01*
X58369021Y-49075000D01*
X58369019Y-49075000D01*
X58246349Y-49087082D01*
X58088951Y-49134828D01*
X57943892Y-49212364D01*
X57816747Y-49316709D01*
X57790597Y-49348573D01*
X44098574Y-63040597D01*
X44066710Y-63066747D01*
X43989208Y-63161184D01*
X43962364Y-63193893D01*
X43884828Y-63338952D01*
X43837082Y-63496350D01*
X43820960Y-63660038D01*
X43065000Y-63660038D01*
X43065000Y-62266485D01*
X56640995Y-48875000D01*
X87385001Y-48875000D01*
X87385000Y-54285064D01*
G36*
X71710498Y-84604180D02*
G01*
X71769463Y-84714494D01*
X71848815Y-84811185D01*
X71945506Y-84890537D01*
X72055820Y-84949502D01*
X72175518Y-84985812D01*
X72300000Y-84998072D01*
X72399646Y-84998072D01*
X72424828Y-85081086D01*
X72502364Y-85226145D01*
X72606709Y-85353291D01*
X72638578Y-85379445D01*
X73010558Y-85751426D01*
X73036709Y-85783291D01*
X73163854Y-85887636D01*
X73308913Y-85965172D01*
X73466311Y-86012918D01*
X73575671Y-86023689D01*
X73630000Y-86029040D01*
X73671018Y-86025000D01*
X75009171Y-86025000D01*
X83430599Y-94446430D01*
X83456747Y-94478291D01*
X83488606Y-94504437D01*
X83488608Y-94504439D01*
X83583892Y-94582636D01*
X83592969Y-94587488D01*
X83580498Y-94610820D01*
X83544188Y-94730518D01*
X83531928Y-94855000D01*
X83535000Y-94869250D01*
X83693750Y-95028000D01*
X84918000Y-95028000D01*
X84918000Y-95008000D01*
X85172000Y-95008000D01*
X85172000Y-95028000D01*
X85192000Y-95028000D01*
X85192000Y-95282000D01*
X85172000Y-95282000D01*
X85172000Y-95302000D01*
X84918000Y-95302000D01*
X84918000Y-95282000D01*
X83693750Y-95282000D01*
X83535000Y-95440750D01*
X83531928Y-95455000D01*
X83544188Y-95579482D01*
X83547379Y-95590000D01*
X80480868Y-95590000D01*
X79484446Y-94593579D01*
X79458291Y-94561709D01*
X79331146Y-94457364D01*
X79186087Y-94379828D01*
X79028689Y-94332082D01*
X78906019Y-94320000D01*
X78906018Y-94320000D01*
X78865000Y-94315960D01*
X78823982Y-94320000D01*
X76792621Y-94320000D01*
X76795812Y-94309482D01*
X76808072Y-94185000D01*
X76808072Y-93585000D01*
X76795812Y-93460518D01*
X76759502Y-93340820D01*
X76710957Y-93250000D01*
X76759502Y-93159180D01*
X76795812Y-93039482D01*
X76808072Y-92915000D01*
X76808072Y-92315000D01*
X76795812Y-92190518D01*
X76759502Y-92070820D01*
X76710957Y-91980000D01*
X76759502Y-91889180D01*
X76795812Y-91769482D01*
X76808072Y-91645000D01*
X76808072Y-91045000D01*
X76795812Y-90920518D01*
X76759502Y-90800820D01*
X76710957Y-90710000D01*
X76759502Y-90619180D01*
X76795812Y-90499482D01*
X76808072Y-90375000D01*
X76808072Y-89775000D01*
X76795812Y-89650518D01*
X76759502Y-89530820D01*
X76700537Y-89420506D01*
X76621185Y-89323815D01*
X76524494Y-89244463D01*
X76414180Y-89185498D01*
X76294482Y-89149188D01*
X76170000Y-89136928D01*
X74671585Y-89136928D01*
X74703696Y-89059405D01*
X74755000Y-88801486D01*
X74755000Y-88538514D01*
X74703696Y-88280595D01*
X74603061Y-88037641D01*
X74456962Y-87818987D01*
X74271013Y-87633038D01*
X74052359Y-87486939D01*
X73809405Y-87386304D01*
X73551486Y-87335000D01*
X73288514Y-87335000D01*
X73030595Y-87386304D01*
X72787641Y-87486939D01*
X72568987Y-87633038D01*
X72383038Y-87818987D01*
X72236939Y-88037641D01*
X72163072Y-88215971D01*
X72163072Y-87480000D01*
X72146008Y-87306746D01*
X72095472Y-87140150D01*
X72013405Y-86986614D01*
X71902962Y-86852038D01*
X71768386Y-86741595D01*
X71614850Y-86659528D01*
X71495000Y-86623172D01*
X71495000Y-84748199D01*
X71638505Y-84652312D01*
X71704944Y-84585873D01*
X71710498Y-84604180D01*
X71710498Y-84604180D01*
G37*
X71710498Y-84604180D02*
X71769463Y-84714494D01*
X71848815Y-84811185D01*
X71945506Y-84890537D01*
X72055820Y-84949502D01*
X72175518Y-84985812D01*
X72300000Y-84998072D01*
X72399646Y-84998072D01*
X72424828Y-85081086D01*
X72502364Y-85226145D01*
X72606709Y-85353291D01*
X72638578Y-85379445D01*
X73010558Y-85751426D01*
X73036709Y-85783291D01*
X73163854Y-85887636D01*
X73308913Y-85965172D01*
X73466311Y-86012918D01*
X73575671Y-86023689D01*
X73630000Y-86029040D01*
X73671018Y-86025000D01*
X75009171Y-86025000D01*
X83430599Y-94446430D01*
X83456747Y-94478291D01*
X83488606Y-94504437D01*
X83488608Y-94504439D01*
X83583892Y-94582636D01*
X83592969Y-94587488D01*
X83580498Y-94610820D01*
X83544188Y-94730518D01*
X83531928Y-94855000D01*
X83535000Y-94869250D01*
X83693750Y-95028000D01*
X84918000Y-95028000D01*
X84918000Y-95008000D01*
X85172000Y-95008000D01*
X85172000Y-95028000D01*
X85192000Y-95028000D01*
X85192000Y-95282000D01*
X85172000Y-95282000D01*
X85172000Y-95302000D01*
X84918000Y-95302000D01*
X84918000Y-95282000D01*
X83693750Y-95282000D01*
X83535000Y-95440750D01*
X83531928Y-95455000D01*
X83544188Y-95579482D01*
X83547379Y-95590000D01*
X80480868Y-95590000D01*
X79484446Y-94593579D01*
X79458291Y-94561709D01*
X79331146Y-94457364D01*
X79186087Y-94379828D01*
X79028689Y-94332082D01*
X78906019Y-94320000D01*
X78906018Y-94320000D01*
X78865000Y-94315960D01*
X78823982Y-94320000D01*
X76792621Y-94320000D01*
X76795812Y-94309482D01*
X76808072Y-94185000D01*
X76808072Y-93585000D01*
X76795812Y-93460518D01*
X76759502Y-93340820D01*
X76710957Y-93250000D01*
X76759502Y-93159180D01*
X76795812Y-93039482D01*
X76808072Y-92915000D01*
X76808072Y-92315000D01*
X76795812Y-92190518D01*
X76759502Y-92070820D01*
X76710957Y-91980000D01*
X76759502Y-91889180D01*
X76795812Y-91769482D01*
X76808072Y-91645000D01*
X76808072Y-91045000D01*
X76795812Y-90920518D01*
X76759502Y-90800820D01*
X76710957Y-90710000D01*
X76759502Y-90619180D01*
X76795812Y-90499482D01*
X76808072Y-90375000D01*
X76808072Y-89775000D01*
X76795812Y-89650518D01*
X76759502Y-89530820D01*
X76700537Y-89420506D01*
X76621185Y-89323815D01*
X76524494Y-89244463D01*
X76414180Y-89185498D01*
X76294482Y-89149188D01*
X76170000Y-89136928D01*
X74671585Y-89136928D01*
X74703696Y-89059405D01*
X74755000Y-88801486D01*
X74755000Y-88538514D01*
X74703696Y-88280595D01*
X74603061Y-88037641D01*
X74456962Y-87818987D01*
X74271013Y-87633038D01*
X74052359Y-87486939D01*
X73809405Y-87386304D01*
X73551486Y-87335000D01*
X73288514Y-87335000D01*
X73030595Y-87386304D01*
X72787641Y-87486939D01*
X72568987Y-87633038D01*
X72383038Y-87818987D01*
X72236939Y-88037641D01*
X72163072Y-88215971D01*
X72163072Y-87480000D01*
X72146008Y-87306746D01*
X72095472Y-87140150D01*
X72013405Y-86986614D01*
X71902962Y-86852038D01*
X71768386Y-86741595D01*
X71614850Y-86659528D01*
X71495000Y-86623172D01*
X71495000Y-84748199D01*
X71638505Y-84652312D01*
X71704944Y-84585873D01*
X71710498Y-84604180D01*
G36*
X88012188Y-90006482D02*
G01*
X88048498Y-90126180D01*
X88107463Y-90236494D01*
X88186815Y-90333185D01*
X88256044Y-90390000D01*
X88186815Y-90446815D01*
X88107463Y-90543506D01*
X88048498Y-90653820D01*
X88012188Y-90773518D01*
X87999928Y-90898000D01*
X88003000Y-91374250D01*
X88161750Y-91533000D01*
X89273000Y-91533000D01*
X89273000Y-91513000D01*
X89527000Y-91513000D01*
X89527000Y-91533000D01*
X89547000Y-91533000D01*
X89547000Y-91787000D01*
X89527000Y-91787000D01*
X89527000Y-91807000D01*
X89273000Y-91807000D01*
X89273000Y-91787000D01*
X88161750Y-91787000D01*
X88003000Y-91945750D01*
X87999928Y-92422000D01*
X88012188Y-92546482D01*
X88048498Y-92666180D01*
X88107463Y-92776494D01*
X88186815Y-92873185D01*
X88256044Y-92930000D01*
X88186815Y-92986815D01*
X88107463Y-93083506D01*
X88048498Y-93193820D01*
X88012188Y-93313518D01*
X87999928Y-93438000D01*
X87999928Y-94140000D01*
X87811018Y-94140000D01*
X87770000Y-94135960D01*
X87728982Y-94140000D01*
X87728981Y-94140000D01*
X87606311Y-94152082D01*
X87497795Y-94185000D01*
X87448913Y-94199828D01*
X87303854Y-94277364D01*
X87219357Y-94346709D01*
X87176709Y-94381709D01*
X87150563Y-94413568D01*
X86536134Y-95027998D01*
X86396252Y-95027998D01*
X86555000Y-94869250D01*
X86558072Y-94855000D01*
X86545812Y-94730518D01*
X86509502Y-94610820D01*
X86460957Y-94520000D01*
X86509502Y-94429180D01*
X86545812Y-94309482D01*
X86558072Y-94185000D01*
X86558072Y-93585000D01*
X86545812Y-93460518D01*
X86509502Y-93340820D01*
X86460957Y-93250000D01*
X86509502Y-93159180D01*
X86545812Y-93039482D01*
X86558072Y-92915000D01*
X86558072Y-92315000D01*
X86545812Y-92190518D01*
X86509502Y-92070820D01*
X86460957Y-91980000D01*
X86509502Y-91889180D01*
X86545812Y-91769482D01*
X86558072Y-91645000D01*
X86558072Y-91045000D01*
X86545812Y-90920518D01*
X86509502Y-90800820D01*
X86460957Y-90710000D01*
X86509502Y-90619180D01*
X86545812Y-90499482D01*
X86558072Y-90375000D01*
X86558072Y-89955000D01*
X88007118Y-89955000D01*
X88012188Y-90006482D01*
X88012188Y-90006482D01*
G37*
X88012188Y-90006482D02*
X88048498Y-90126180D01*
X88107463Y-90236494D01*
X88186815Y-90333185D01*
X88256044Y-90390000D01*
X88186815Y-90446815D01*
X88107463Y-90543506D01*
X88048498Y-90653820D01*
X88012188Y-90773518D01*
X87999928Y-90898000D01*
X88003000Y-91374250D01*
X88161750Y-91533000D01*
X89273000Y-91533000D01*
X89273000Y-91513000D01*
X89527000Y-91513000D01*
X89527000Y-91533000D01*
X89547000Y-91533000D01*
X89547000Y-91787000D01*
X89527000Y-91787000D01*
X89527000Y-91807000D01*
X89273000Y-91807000D01*
X89273000Y-91787000D01*
X88161750Y-91787000D01*
X88003000Y-91945750D01*
X87999928Y-92422000D01*
X88012188Y-92546482D01*
X88048498Y-92666180D01*
X88107463Y-92776494D01*
X88186815Y-92873185D01*
X88256044Y-92930000D01*
X88186815Y-92986815D01*
X88107463Y-93083506D01*
X88048498Y-93193820D01*
X88012188Y-93313518D01*
X87999928Y-93438000D01*
X87999928Y-94140000D01*
X87811018Y-94140000D01*
X87770000Y-94135960D01*
X87728982Y-94140000D01*
X87728981Y-94140000D01*
X87606311Y-94152082D01*
X87497795Y-94185000D01*
X87448913Y-94199828D01*
X87303854Y-94277364D01*
X87219357Y-94346709D01*
X87176709Y-94381709D01*
X87150563Y-94413568D01*
X86536134Y-95027998D01*
X86396252Y-95027998D01*
X86555000Y-94869250D01*
X86558072Y-94855000D01*
X86545812Y-94730518D01*
X86509502Y-94610820D01*
X86460957Y-94520000D01*
X86509502Y-94429180D01*
X86545812Y-94309482D01*
X86558072Y-94185000D01*
X86558072Y-93585000D01*
X86545812Y-93460518D01*
X86509502Y-93340820D01*
X86460957Y-93250000D01*
X86509502Y-93159180D01*
X86545812Y-93039482D01*
X86558072Y-92915000D01*
X86558072Y-92315000D01*
X86545812Y-92190518D01*
X86509502Y-92070820D01*
X86460957Y-91980000D01*
X86509502Y-91889180D01*
X86545812Y-91769482D01*
X86558072Y-91645000D01*
X86558072Y-91045000D01*
X86545812Y-90920518D01*
X86509502Y-90800820D01*
X86460957Y-90710000D01*
X86509502Y-90619180D01*
X86545812Y-90499482D01*
X86558072Y-90375000D01*
X86558072Y-89955000D01*
X88007118Y-89955000D01*
X88012188Y-90006482D01*
%TD*%
M02*
