%TF.GenerationSoftware,KiCad,Pcbnew,(5.1.4)-1*%
%TF.CreationDate,2020-11-17T10:49:43+02:00*%
%TF.ProjectId,prose,70726f73-652e-46b6-9963-61645f706362,rev?*%
%TF.SameCoordinates,Original*%
%TF.FileFunction,Soldermask,Bot*%
%TF.FilePolarity,Negative*%
%FSLAX46Y46*%
G04 Gerber Fmt 4.6, Leading zero omitted, Abs format (unit mm)*
G04 Created by KiCad (PCBNEW (5.1.4)-1) date 2020-11-17 10:49:43*
%MOMM*%
%LPD*%
G04 APERTURE LIST*
%ADD10R,1.800000X1.800000*%
%ADD11C,1.800000*%
%ADD12R,1.700000X1.700000*%
%ADD13O,1.700000X1.700000*%
G04 APERTURE END LIST*
D10*
%TO.C,D21*%
X88390000Y-63070000D03*
D11*
X85850000Y-63070000D03*
%TD*%
%TO.C,D18*%
X83040000Y-78180000D03*
D10*
X85580000Y-78180000D03*
%TD*%
D12*
%TO.C,P2*%
X75960000Y-52160000D03*
D13*
X73420000Y-52160000D03*
%TD*%
D10*
%TO.C,D5*%
X49784000Y-73406000D03*
D11*
X47244000Y-73406000D03*
%TD*%
%TO.C,D6*%
X49920000Y-78870000D03*
D10*
X52460000Y-78870000D03*
%TD*%
%TO.C,D7*%
X55980000Y-83950000D03*
D11*
X53440000Y-83950000D03*
%TD*%
%TO.C,D8*%
X56730000Y-88990000D03*
D10*
X59270000Y-88990000D03*
%TD*%
D11*
%TO.C,D9*%
X59780000Y-93740000D03*
D10*
X62320000Y-93740000D03*
%TD*%
%TO.C,D10*%
X65580000Y-94940000D03*
D11*
X65580000Y-92400000D03*
%TD*%
D10*
%TO.C,D11*%
X64280000Y-88820000D03*
D11*
X61740000Y-88820000D03*
%TD*%
%TO.C,D12*%
X59610000Y-83410000D03*
D10*
X62150000Y-83410000D03*
%TD*%
%TO.C,D13*%
X67780000Y-83410000D03*
D11*
X65240000Y-83410000D03*
%TD*%
%TO.C,D14*%
X70660000Y-83460000D03*
D10*
X73200000Y-83460000D03*
%TD*%
%TO.C,D15*%
X78360000Y-83410000D03*
D11*
X75820000Y-83410000D03*
%TD*%
%TO.C,D16*%
X80720000Y-83510000D03*
D10*
X83260000Y-83510000D03*
%TD*%
%TO.C,D17*%
X88140000Y-83400000D03*
D11*
X85600000Y-83400000D03*
%TD*%
%TO.C,D19*%
X80650000Y-73490000D03*
D10*
X83190000Y-73490000D03*
%TD*%
D11*
%TO.C,D29*%
X74110000Y-73360000D03*
D10*
X76650000Y-73360000D03*
%TD*%
%TO.C,D30*%
X70060000Y-73390000D03*
D11*
X67520000Y-73390000D03*
%TD*%
%TO.C,D31*%
X60610000Y-73390000D03*
D10*
X63150000Y-73390000D03*
%TD*%
%TO.C,D32*%
X56310000Y-73360000D03*
D11*
X53770000Y-73360000D03*
%TD*%
D12*
%TO.C,P3*%
X84950000Y-52160000D03*
D13*
X82410000Y-52160000D03*
%TD*%
D11*
%TO.C,D1*%
X60030000Y-52730000D03*
D10*
X62570000Y-52730000D03*
%TD*%
%TO.C,D2*%
X59510000Y-57480000D03*
D11*
X56970000Y-57480000D03*
%TD*%
%TO.C,D3*%
X53690000Y-62520000D03*
D10*
X56230000Y-62520000D03*
%TD*%
%TO.C,D4*%
X52710000Y-67600000D03*
D11*
X50170000Y-67600000D03*
%TD*%
%TO.C,D20*%
X83280000Y-68280000D03*
D10*
X85820000Y-68280000D03*
%TD*%
D11*
%TO.C,D22*%
X80970000Y-62960000D03*
D10*
X83510000Y-62960000D03*
%TD*%
%TO.C,D23*%
X78610000Y-63060000D03*
D11*
X76070000Y-63060000D03*
%TD*%
D10*
%TO.C,D24*%
X73440000Y-63010000D03*
D11*
X70900000Y-63010000D03*
%TD*%
%TO.C,D25*%
X65480000Y-63070000D03*
D10*
X68020000Y-63070000D03*
%TD*%
%TO.C,D26*%
X62400000Y-63060000D03*
D11*
X59860000Y-63060000D03*
%TD*%
%TO.C,D27*%
X61980000Y-57660000D03*
D10*
X64520000Y-57660000D03*
%TD*%
%TO.C,D28*%
X66220000Y-51340000D03*
D11*
X66220000Y-53880000D03*
%TD*%
M02*
