%TF.GenerationSoftware,KiCad,Pcbnew,(5.1.4)-1*%
%TF.CreationDate,2020-11-17T10:49:43+02:00*%
%TF.ProjectId,prose,70726f73-652e-46b6-9963-61645f706362,rev?*%
%TF.SameCoordinates,Original*%
%TF.FileFunction,Copper,L2,Bot*%
%TF.FilePolarity,Positive*%
%FSLAX46Y46*%
G04 Gerber Fmt 4.6, Leading zero omitted, Abs format (unit mm)*
G04 Created by KiCad (PCBNEW (5.1.4)-1) date 2020-11-17 10:49:43*
%MOMM*%
%LPD*%
G04 APERTURE LIST*
%TA.AperFunction,ComponentPad*%
%ADD10R,1.800000X1.800000*%
%TD*%
%TA.AperFunction,ComponentPad*%
%ADD11C,1.800000*%
%TD*%
%TA.AperFunction,ComponentPad*%
%ADD12R,1.700000X1.700000*%
%TD*%
%TA.AperFunction,ComponentPad*%
%ADD13O,1.700000X1.700000*%
%TD*%
%TA.AperFunction,ViaPad*%
%ADD14C,1.400000*%
%TD*%
%TA.AperFunction,Conductor*%
%ADD15C,0.400000*%
%TD*%
%TA.AperFunction,Conductor*%
%ADD16C,0.254000*%
%TD*%
G04 APERTURE END LIST*
D10*
%TO.P,D21,1*%
%TO.N,Net-(D13-Pad1)*%
X88390000Y-63070000D03*
D11*
%TO.P,D21,2*%
%TO.N,Net-(D17-Pad2)*%
X85850000Y-63070000D03*
%TD*%
%TO.P,D18,2*%
%TO.N,Net-(D17-Pad2)*%
X83040000Y-78180000D03*
D10*
%TO.P,D18,1*%
%TO.N,Net-(D10-Pad1)*%
X85580000Y-78180000D03*
%TD*%
D12*
%TO.P,P2,1*%
%TO.N,GND*%
X75960000Y-52160000D03*
D13*
%TO.P,P2,2*%
%TO.N,Net-(F1-Pad2)*%
X73420000Y-52160000D03*
%TD*%
D10*
%TO.P,D5,1*%
%TO.N,Net-(D13-Pad1)*%
X49784000Y-73406000D03*
D11*
%TO.P,D5,2*%
%TO.N,Net-(D1-Pad2)*%
X47244000Y-73406000D03*
%TD*%
%TO.P,D6,2*%
%TO.N,Net-(D1-Pad2)*%
X49920000Y-78870000D03*
D10*
%TO.P,D6,1*%
%TO.N,Net-(D14-Pad1)*%
X52460000Y-78870000D03*
%TD*%
%TO.P,D7,1*%
%TO.N,Net-(D15-Pad1)*%
X55980000Y-83950000D03*
D11*
%TO.P,D7,2*%
%TO.N,Net-(D1-Pad2)*%
X53440000Y-83950000D03*
%TD*%
%TO.P,D8,2*%
%TO.N,Net-(D1-Pad2)*%
X56730000Y-88990000D03*
D10*
%TO.P,D8,1*%
%TO.N,Net-(D16-Pad1)*%
X59270000Y-88990000D03*
%TD*%
D11*
%TO.P,D9,2*%
%TO.N,Net-(D10-Pad2)*%
X59780000Y-93740000D03*
D10*
%TO.P,D9,1*%
%TO.N,Net-(D1-Pad1)*%
X62320000Y-93740000D03*
%TD*%
%TO.P,D10,1*%
%TO.N,Net-(D10-Pad1)*%
X65580000Y-94940000D03*
D11*
%TO.P,D10,2*%
%TO.N,Net-(D10-Pad2)*%
X65580000Y-92400000D03*
%TD*%
D10*
%TO.P,D11,1*%
%TO.N,Net-(D11-Pad1)*%
X64280000Y-88820000D03*
D11*
%TO.P,D11,2*%
%TO.N,Net-(D10-Pad2)*%
X61740000Y-88820000D03*
%TD*%
%TO.P,D12,2*%
%TO.N,Net-(D10-Pad2)*%
X59610000Y-83410000D03*
D10*
%TO.P,D12,1*%
%TO.N,Net-(D12-Pad1)*%
X62150000Y-83410000D03*
%TD*%
%TO.P,D13,1*%
%TO.N,Net-(D13-Pad1)*%
X67780000Y-83410000D03*
D11*
%TO.P,D13,2*%
%TO.N,Net-(D10-Pad2)*%
X65240000Y-83410000D03*
%TD*%
%TO.P,D14,2*%
%TO.N,Net-(D10-Pad2)*%
X70660000Y-83460000D03*
D10*
%TO.P,D14,1*%
%TO.N,Net-(D14-Pad1)*%
X73200000Y-83460000D03*
%TD*%
%TO.P,D15,1*%
%TO.N,Net-(D15-Pad1)*%
X78360000Y-83410000D03*
D11*
%TO.P,D15,2*%
%TO.N,Net-(D10-Pad2)*%
X75820000Y-83410000D03*
%TD*%
%TO.P,D16,2*%
%TO.N,Net-(D10-Pad2)*%
X80720000Y-83510000D03*
D10*
%TO.P,D16,1*%
%TO.N,Net-(D16-Pad1)*%
X83260000Y-83510000D03*
%TD*%
%TO.P,D17,1*%
%TO.N,Net-(D1-Pad1)*%
X88140000Y-83400000D03*
D11*
%TO.P,D17,2*%
%TO.N,Net-(D17-Pad2)*%
X85600000Y-83400000D03*
%TD*%
%TO.P,D19,2*%
%TO.N,Net-(D17-Pad2)*%
X80650000Y-73490000D03*
D10*
%TO.P,D19,1*%
%TO.N,Net-(D11-Pad1)*%
X83190000Y-73490000D03*
%TD*%
D11*
%TO.P,D29,2*%
%TO.N,Net-(D25-Pad2)*%
X74110000Y-73360000D03*
D10*
%TO.P,D29,1*%
%TO.N,Net-(D13-Pad1)*%
X76650000Y-73360000D03*
%TD*%
%TO.P,D30,1*%
%TO.N,Net-(D14-Pad1)*%
X70060000Y-73390000D03*
D11*
%TO.P,D30,2*%
%TO.N,Net-(D25-Pad2)*%
X67520000Y-73390000D03*
%TD*%
%TO.P,D31,2*%
%TO.N,Net-(D25-Pad2)*%
X60610000Y-73390000D03*
D10*
%TO.P,D31,1*%
%TO.N,Net-(D15-Pad1)*%
X63150000Y-73390000D03*
%TD*%
%TO.P,D32,1*%
%TO.N,Net-(D16-Pad1)*%
X56310000Y-73360000D03*
D11*
%TO.P,D32,2*%
%TO.N,Net-(D25-Pad2)*%
X53770000Y-73360000D03*
%TD*%
D12*
%TO.P,P3,1*%
%TO.N,GND*%
X84950000Y-52160000D03*
D13*
%TO.P,P3,2*%
%TO.N,VCC*%
X82410000Y-52160000D03*
%TD*%
D11*
%TO.P,D1,2*%
%TO.N,Net-(D1-Pad2)*%
X60030000Y-52730000D03*
D10*
%TO.P,D1,1*%
%TO.N,Net-(D1-Pad1)*%
X62570000Y-52730000D03*
%TD*%
%TO.P,D2,1*%
%TO.N,Net-(D10-Pad1)*%
X59510000Y-57480000D03*
D11*
%TO.P,D2,2*%
%TO.N,Net-(D1-Pad2)*%
X56970000Y-57480000D03*
%TD*%
%TO.P,D3,2*%
%TO.N,Net-(D1-Pad2)*%
X53690000Y-62520000D03*
D10*
%TO.P,D3,1*%
%TO.N,Net-(D11-Pad1)*%
X56230000Y-62520000D03*
%TD*%
%TO.P,D4,1*%
%TO.N,Net-(D12-Pad1)*%
X52710000Y-67600000D03*
D11*
%TO.P,D4,2*%
%TO.N,Net-(D1-Pad2)*%
X50170000Y-67600000D03*
%TD*%
%TO.P,D20,2*%
%TO.N,Net-(D17-Pad2)*%
X83280000Y-68280000D03*
D10*
%TO.P,D20,1*%
%TO.N,Net-(D12-Pad1)*%
X85820000Y-68280000D03*
%TD*%
D11*
%TO.P,D22,2*%
%TO.N,Net-(D17-Pad2)*%
X80970000Y-62960000D03*
D10*
%TO.P,D22,1*%
%TO.N,Net-(D14-Pad1)*%
X83510000Y-62960000D03*
%TD*%
%TO.P,D23,1*%
%TO.N,Net-(D15-Pad1)*%
X78610000Y-63060000D03*
D11*
%TO.P,D23,2*%
%TO.N,Net-(D17-Pad2)*%
X76070000Y-63060000D03*
%TD*%
D10*
%TO.P,D24,1*%
%TO.N,Net-(D16-Pad1)*%
X73440000Y-63010000D03*
D11*
%TO.P,D24,2*%
%TO.N,Net-(D17-Pad2)*%
X70900000Y-63010000D03*
%TD*%
%TO.P,D25,2*%
%TO.N,Net-(D25-Pad2)*%
X65480000Y-63070000D03*
D10*
%TO.P,D25,1*%
%TO.N,Net-(D1-Pad1)*%
X68020000Y-63070000D03*
%TD*%
%TO.P,D26,1*%
%TO.N,Net-(D10-Pad1)*%
X62400000Y-63060000D03*
D11*
%TO.P,D26,2*%
%TO.N,Net-(D25-Pad2)*%
X59860000Y-63060000D03*
%TD*%
%TO.P,D27,2*%
%TO.N,Net-(D25-Pad2)*%
X61980000Y-57660000D03*
D10*
%TO.P,D27,1*%
%TO.N,Net-(D11-Pad1)*%
X64520000Y-57660000D03*
%TD*%
%TO.P,D28,1*%
%TO.N,Net-(D12-Pad1)*%
X66220000Y-51340000D03*
D11*
%TO.P,D28,2*%
%TO.N,Net-(D25-Pad2)*%
X66220000Y-53880000D03*
%TD*%
D14*
%TO.N,Net-(D10-Pad1)*%
X73380000Y-76270000D03*
%TO.N,Net-(D11-Pad1)*%
X65050000Y-66830000D03*
X60050000Y-66800000D03*
%TO.N,Net-(D12-Pad1)*%
X55830000Y-80010000D03*
%TO.N,Net-(D13-Pad1)*%
X62000000Y-76920000D03*
X67640000Y-76860000D03*
X86770000Y-75080000D03*
X82140000Y-97780000D03*
%TO.N,Net-(D15-Pad1)*%
X59320000Y-81210000D03*
%TO.N,Net-(D16-Pad1)*%
X72160000Y-69340000D03*
%TO.N,Net-(IC1-Pad18)*%
X72240000Y-99450000D03*
X92400000Y-79440000D03*
%TO.N,Net-(IC1-Pad19)*%
X68510000Y-100560000D03*
X73420000Y-88670000D03*
%TO.N,GND*%
X79050000Y-93360000D03*
X78240000Y-96910000D03*
%TD*%
D15*
%TO.N,Net-(D1-Pad1)*%
X45843999Y-81876001D02*
X45843999Y-62976001D01*
X59107999Y-95140001D02*
X45843999Y-81876001D01*
X60452001Y-95140001D02*
X59107999Y-95140001D01*
X62320000Y-93740000D02*
X62320000Y-93272002D01*
X62320000Y-93272002D02*
X60452001Y-95140001D01*
X45843999Y-62976001D02*
X58330000Y-50490000D01*
X62570000Y-51430000D02*
X62570000Y-52730000D01*
X61630000Y-50490000D02*
X62570000Y-51430000D01*
X58330000Y-50490000D02*
X61630000Y-50490000D01*
%TO.N,Net-(D1-Pad2)*%
X59130001Y-53629999D02*
X59090001Y-53629999D01*
X60030000Y-52730000D02*
X59130001Y-53629999D01*
X56970000Y-55790000D02*
X60030000Y-52730000D01*
X56970000Y-57480000D02*
X56970000Y-55790000D01*
X53690000Y-60760000D02*
X56970000Y-57480000D01*
X53690000Y-62520000D02*
X53690000Y-60760000D01*
X50170000Y-66040000D02*
X53690000Y-62520000D01*
X50170000Y-67600000D02*
X50170000Y-66040000D01*
X47244000Y-70526000D02*
X50170000Y-67600000D01*
X47244000Y-73406000D02*
X47244000Y-70526000D01*
X47244000Y-76194000D02*
X49920000Y-78870000D01*
X47244000Y-73406000D02*
X47244000Y-76194000D01*
X49920000Y-80430000D02*
X53440000Y-83950000D01*
X49920000Y-78870000D02*
X49920000Y-80430000D01*
X53440000Y-85700000D02*
X56730000Y-88990000D01*
X53440000Y-83950000D02*
X53440000Y-85700000D01*
%TO.N,Net-(D10-Pad1)*%
X62400000Y-67970000D02*
X62400000Y-63060000D01*
X65750000Y-71320000D02*
X62400000Y-67970000D01*
X71130000Y-71320000D02*
X65750000Y-71320000D01*
X71910000Y-72100000D02*
X71130000Y-71320000D01*
X71910000Y-74800000D02*
X71910000Y-72100000D01*
X73380000Y-76270000D02*
X71910000Y-74800000D01*
X66880000Y-94940000D02*
X65580000Y-94940000D01*
X67560000Y-94260000D02*
X66880000Y-94940000D01*
X67560000Y-87430000D02*
X67560000Y-94260000D01*
X85580000Y-78180000D02*
X86880000Y-78180000D01*
X89870000Y-81170000D02*
X89870000Y-85360000D01*
X89870000Y-85360000D02*
X88450000Y-86780000D01*
X88450000Y-86780000D02*
X68210000Y-86780000D01*
X86880000Y-78180000D02*
X89870000Y-81170000D01*
X68210000Y-86780000D02*
X67560000Y-87430000D01*
%TO.N,Net-(D11-Pad1)*%
X56230000Y-63820000D02*
X56230000Y-62520000D01*
X56230000Y-63969949D02*
X56230000Y-63820000D01*
X59060051Y-66800000D02*
X56230000Y-63969949D01*
X60050000Y-66800000D02*
X59060051Y-66800000D01*
X83190000Y-72190000D02*
X83190000Y-73490000D01*
X81540001Y-70540001D02*
X83190000Y-72190000D01*
X68760001Y-70540001D02*
X81540001Y-70540001D01*
X65050000Y-66830000D02*
X68760001Y-70540001D01*
%TO.N,Net-(D12-Pad1)*%
X55830000Y-79020051D02*
X51820000Y-75010051D01*
X55830000Y-80010000D02*
X55830000Y-79020051D01*
X52710000Y-68900000D02*
X52710000Y-67600000D01*
X51820000Y-69790000D02*
X52710000Y-68900000D01*
X51820000Y-75010051D02*
X51820000Y-69790000D01*
X87120000Y-68280000D02*
X90070000Y-65330000D01*
X85820000Y-68280000D02*
X87120000Y-68280000D01*
X90070000Y-62049998D02*
X87360002Y-59340000D01*
X90070000Y-65330000D02*
X90070000Y-62049998D01*
X87360002Y-59340000D02*
X72800000Y-59340000D01*
X72800000Y-59340000D02*
X68510000Y-55050000D01*
X67520000Y-51340000D02*
X66220000Y-51340000D01*
X68510000Y-52330000D02*
X67520000Y-51340000D01*
X68510000Y-55050000D02*
X68510000Y-52330000D01*
%TO.N,Net-(D13-Pad1)*%
X62699999Y-77619999D02*
X63919999Y-77619999D01*
X62000000Y-76920000D02*
X62699999Y-77619999D01*
X67780000Y-81480000D02*
X67780000Y-83410000D01*
X63919999Y-77619999D02*
X67780000Y-81480000D01*
X69010010Y-78230010D02*
X67640000Y-76860000D01*
X74359953Y-78230010D02*
X69010010Y-78230010D01*
X76650000Y-73360000D02*
X76650000Y-75939963D01*
X76650000Y-75939963D02*
X74359953Y-78230010D01*
X86770000Y-75080000D02*
X87469999Y-75779999D01*
X87469999Y-75849999D02*
X90660000Y-79040000D01*
X90660000Y-79040000D02*
X90660000Y-86280000D01*
X90660000Y-86280000D02*
X82349999Y-94590001D01*
X87469999Y-75779999D02*
X87469999Y-75849999D01*
X82349999Y-96580052D02*
X82349999Y-94590001D01*
X82140000Y-96790051D02*
X82349999Y-96580052D01*
X82140000Y-97780000D02*
X82140000Y-96790051D01*
%TO.N,Net-(D15-Pad1)*%
X63150000Y-74690000D02*
X67400000Y-78940000D01*
X63150000Y-73390000D02*
X63150000Y-74690000D01*
X78360000Y-82110000D02*
X78360000Y-83410000D01*
X75190000Y-78940000D02*
X78360000Y-82110000D01*
X67400000Y-78940000D02*
X75190000Y-78940000D01*
X63150000Y-74690000D02*
X62480000Y-75360000D01*
X62480000Y-75360000D02*
X61350000Y-75360000D01*
X61350000Y-75360000D02*
X59320000Y-77390000D01*
X59320000Y-77390000D02*
X59320000Y-81210000D01*
%TO.N,Net-(D16-Pad1)*%
X56310000Y-74660000D02*
X57780000Y-76130000D01*
X56310000Y-73360000D02*
X56310000Y-74660000D01*
X59270000Y-87690000D02*
X59270000Y-88990000D01*
X57780000Y-86200000D02*
X59270000Y-87690000D01*
X57780000Y-76130000D02*
X57780000Y-86200000D01*
X73440000Y-68060000D02*
X73440000Y-63010000D01*
X72160000Y-69340000D02*
X73440000Y-68060000D01*
%TO.N,Net-(D10-Pad2)*%
X61740000Y-90507208D02*
X61740000Y-88820000D01*
X59780000Y-93740000D02*
X59780000Y-92467208D01*
X59780000Y-92467208D02*
X61740000Y-90507208D01*
X61740000Y-88820000D02*
X61740000Y-87410000D01*
X59610000Y-85280000D02*
X59610000Y-83410000D01*
X61740000Y-87410000D02*
X59610000Y-85280000D01*
X61740000Y-87410000D02*
X62360000Y-87410000D01*
X62512792Y-87410000D02*
X62360000Y-87410000D01*
X65240000Y-84682792D02*
X62512792Y-87410000D01*
X65240000Y-83410000D02*
X65240000Y-84682792D01*
X65240000Y-84682792D02*
X66027208Y-85470000D01*
X66027208Y-85470000D02*
X68650000Y-85470000D01*
X68650000Y-85470000D02*
X70660000Y-83460000D01*
X70660000Y-84732792D02*
X71357208Y-85430000D01*
X70660000Y-83460000D02*
X70660000Y-84732792D01*
X75072792Y-85430000D02*
X71357208Y-85430000D01*
X75820000Y-84682792D02*
X75072792Y-85430000D01*
X75820000Y-83410000D02*
X75820000Y-84682792D01*
X76427208Y-85290000D02*
X75820000Y-84682792D01*
X80212792Y-85290000D02*
X76427208Y-85290000D01*
X80720000Y-84782792D02*
X80212792Y-85290000D01*
X80720000Y-83510000D02*
X80720000Y-84782792D01*
X62732793Y-91500001D02*
X61740000Y-90507208D01*
X64680001Y-91500001D02*
X62732793Y-91500001D01*
X65580000Y-92400000D02*
X64680001Y-91500001D01*
%TO.N,Net-(D17-Pad2)*%
X70900000Y-61737208D02*
X71747208Y-60890000D01*
X70900000Y-63010000D02*
X70900000Y-61737208D01*
X75172792Y-60890000D02*
X71747208Y-60890000D01*
X76070000Y-61787208D02*
X75172792Y-60890000D01*
X76070000Y-63060000D02*
X76070000Y-61787208D01*
X76070000Y-61787208D02*
X76070000Y-61700000D01*
X76070000Y-61700000D02*
X76760000Y-61010000D01*
X80970000Y-61687208D02*
X80970000Y-62960000D01*
X80292792Y-61010000D02*
X80970000Y-61687208D01*
X76760000Y-61010000D02*
X80292792Y-61010000D01*
X85850000Y-61797208D02*
X85850000Y-63070000D01*
X84962792Y-60910000D02*
X85850000Y-61797208D01*
X81747208Y-60910000D02*
X84962792Y-60910000D01*
X80970000Y-61687208D02*
X81747208Y-60910000D01*
X80970000Y-65970000D02*
X80970000Y-62960000D01*
X83280000Y-68280000D02*
X80970000Y-65970000D01*
X80650000Y-75790000D02*
X83040000Y-78180000D01*
X80650000Y-73490000D02*
X80650000Y-75790000D01*
X85600000Y-82127208D02*
X85600000Y-83400000D01*
X85600000Y-82012792D02*
X85600000Y-82127208D01*
X83040000Y-79452792D02*
X85600000Y-82012792D01*
X83040000Y-78180000D02*
X83040000Y-79452792D01*
X85510000Y-70510000D02*
X83280000Y-68280000D01*
X83040000Y-78180000D02*
X85510000Y-75710000D01*
X85510000Y-75710000D02*
X85510000Y-70510000D01*
%TO.N,Net-(D25-Pad2)*%
X61980000Y-57660000D02*
X61980000Y-56387208D01*
X61980000Y-57660000D02*
X61980000Y-59270000D01*
X61980000Y-59667208D02*
X61980000Y-59270000D01*
X61980000Y-59667208D02*
X63177208Y-59667208D01*
X63350000Y-59667208D02*
X63177208Y-59667208D01*
X65480000Y-61797208D02*
X63350000Y-59667208D01*
X65480000Y-63070000D02*
X65480000Y-61797208D01*
X59860000Y-63060000D02*
X59860000Y-62390000D01*
X61980000Y-60270000D02*
X61980000Y-59667208D01*
X59860000Y-62390000D02*
X61980000Y-60270000D01*
X67520000Y-74662792D02*
X67520000Y-73390000D01*
X70387208Y-77530000D02*
X67520000Y-74662792D01*
X74070000Y-77530000D02*
X70387208Y-77530000D01*
X75009999Y-76590001D02*
X74070000Y-77530000D01*
X74110000Y-73360000D02*
X75009999Y-74259999D01*
X75009999Y-74259999D02*
X75009999Y-76590001D01*
X61980000Y-56387208D02*
X62657208Y-55710000D01*
X64390000Y-55710000D02*
X66220000Y-53880000D01*
X62657208Y-55710000D02*
X64390000Y-55710000D01*
%TO.N,Net-(IC1-Pad18)*%
X82780000Y-101010000D02*
X73800000Y-101010000D01*
X90220000Y-88740000D02*
X90220000Y-93570000D01*
X90220000Y-93570000D02*
X82780000Y-101010000D01*
X73800000Y-101010000D02*
X72240000Y-99450000D01*
X91530000Y-80310000D02*
X91530000Y-87430000D01*
X92400000Y-79440000D02*
X91530000Y-80310000D01*
X91530000Y-87430000D02*
X90220000Y-88740000D01*
%TO.N,Net-(IC1-Pad19)*%
X68510000Y-100560000D02*
X68510000Y-93580000D01*
X68510000Y-93580000D02*
X73420000Y-88670000D01*
%TO.N,GND*%
X79050000Y-93360000D02*
X79050000Y-96100000D01*
X79050000Y-96100000D02*
X78240000Y-96910000D01*
%TD*%
D16*
%TO.N,GND*%
G36*
X87385000Y-54285064D02*
G01*
X87381692Y-54317400D01*
X87385000Y-54352340D01*
X87385000Y-54353646D01*
X87388191Y-54386040D01*
X87394410Y-54451731D01*
X87394784Y-54452980D01*
X87394912Y-54454282D01*
X87414153Y-54517711D01*
X87433091Y-54581001D01*
X87433701Y-54582153D01*
X87434081Y-54583405D01*
X87465335Y-54641877D01*
X87496248Y-54700241D01*
X87497071Y-54701251D01*
X87497688Y-54702406D01*
X87539700Y-54753597D01*
X87560104Y-54778652D01*
X87561018Y-54779573D01*
X87583289Y-54806710D01*
X87608422Y-54827337D01*
X95294874Y-62572094D01*
X95285124Y-84253605D01*
X93404609Y-86205761D01*
X93383594Y-86222985D01*
X93357926Y-86254222D01*
X93353322Y-86259001D01*
X93336547Y-86280239D01*
X93297928Y-86327236D01*
X93294779Y-86333118D01*
X93290642Y-86338356D01*
X93262962Y-86392554D01*
X93234246Y-86446197D01*
X93232305Y-86452581D01*
X93229270Y-86458524D01*
X93212696Y-86517079D01*
X93194997Y-86575295D01*
X93194339Y-86581935D01*
X93192521Y-86588357D01*
X93187689Y-86649023D01*
X93185022Y-86675925D01*
X93185018Y-86682553D01*
X93181807Y-86722863D01*
X93184976Y-86749854D01*
X93175164Y-102429852D01*
X90811793Y-105095114D01*
X64302166Y-105104900D01*
X43065000Y-85054662D01*
X43065000Y-62976001D01*
X45004959Y-62976001D01*
X45009000Y-63017030D01*
X45008999Y-81834983D01*
X45004959Y-81876001D01*
X45016474Y-81992918D01*
X45021081Y-82039689D01*
X45068827Y-82197087D01*
X45146363Y-82342146D01*
X45250708Y-82469292D01*
X45282578Y-82495447D01*
X58488562Y-95701433D01*
X58514708Y-95733292D01*
X58546567Y-95759438D01*
X58546569Y-95759440D01*
X58641853Y-95837637D01*
X58786912Y-95915173D01*
X58944310Y-95962919D01*
X59066980Y-95975001D01*
X59066981Y-95975001D01*
X59107999Y-95979041D01*
X59149017Y-95975001D01*
X60410983Y-95975001D01*
X60452001Y-95979041D01*
X60493019Y-95975001D01*
X60493020Y-95975001D01*
X60615690Y-95962919D01*
X60773088Y-95915173D01*
X60918147Y-95837637D01*
X61045292Y-95733292D01*
X61071447Y-95701422D01*
X61494797Y-95278072D01*
X63220000Y-95278072D01*
X63344482Y-95265812D01*
X63464180Y-95229502D01*
X63574494Y-95170537D01*
X63671185Y-95091185D01*
X63750537Y-94994494D01*
X63809502Y-94884180D01*
X63845812Y-94764482D01*
X63858072Y-94640000D01*
X63858072Y-92840000D01*
X63845812Y-92715518D01*
X63809502Y-92595820D01*
X63750537Y-92485506D01*
X63671185Y-92388815D01*
X63605612Y-92335001D01*
X64045000Y-92335001D01*
X64045000Y-92551184D01*
X64103989Y-92847743D01*
X64219701Y-93127095D01*
X64387688Y-93378505D01*
X64454127Y-93444944D01*
X64435820Y-93450498D01*
X64325506Y-93509463D01*
X64228815Y-93588815D01*
X64149463Y-93685506D01*
X64090498Y-93795820D01*
X64054188Y-93915518D01*
X64041928Y-94040000D01*
X64041928Y-95840000D01*
X64054188Y-95964482D01*
X64090498Y-96084180D01*
X64149463Y-96194494D01*
X64228815Y-96291185D01*
X64325506Y-96370537D01*
X64435820Y-96429502D01*
X64555518Y-96465812D01*
X64680000Y-96478072D01*
X66480000Y-96478072D01*
X66604482Y-96465812D01*
X66724180Y-96429502D01*
X66834494Y-96370537D01*
X66931185Y-96291185D01*
X67010537Y-96194494D01*
X67069502Y-96084180D01*
X67105812Y-95964482D01*
X67118072Y-95840000D01*
X67118072Y-95740354D01*
X67201087Y-95715172D01*
X67346146Y-95637636D01*
X67473291Y-95533291D01*
X67499446Y-95501422D01*
X67675001Y-95325867D01*
X67675000Y-99512338D01*
X67658987Y-99523038D01*
X67473038Y-99708987D01*
X67326939Y-99927641D01*
X67226304Y-100170595D01*
X67175000Y-100428514D01*
X67175000Y-100691486D01*
X67226304Y-100949405D01*
X67326939Y-101192359D01*
X67473038Y-101411013D01*
X67658987Y-101596962D01*
X67877641Y-101743061D01*
X68120595Y-101843696D01*
X68378514Y-101895000D01*
X68641486Y-101895000D01*
X68899405Y-101843696D01*
X69142359Y-101743061D01*
X69361013Y-101596962D01*
X69546962Y-101411013D01*
X69693061Y-101192359D01*
X69793696Y-100949405D01*
X69845000Y-100691486D01*
X69845000Y-100428514D01*
X69793696Y-100170595D01*
X69693061Y-99927641D01*
X69546962Y-99708987D01*
X69361013Y-99523038D01*
X69345000Y-99512339D01*
X69345000Y-93925867D01*
X73269626Y-90001243D01*
X73288514Y-90005000D01*
X73551486Y-90005000D01*
X73809405Y-89953696D01*
X74052359Y-89853061D01*
X74271013Y-89706962D01*
X74456962Y-89521013D01*
X74603061Y-89302359D01*
X74703696Y-89059405D01*
X74755000Y-88801486D01*
X74755000Y-88538514D01*
X74703696Y-88280595D01*
X74603061Y-88037641D01*
X74456962Y-87818987D01*
X74271013Y-87633038D01*
X74244017Y-87615000D01*
X88144132Y-87615000D01*
X81788573Y-93970560D01*
X81756709Y-93996710D01*
X81730561Y-94028572D01*
X81652363Y-94123856D01*
X81574827Y-94268915D01*
X81527081Y-94426313D01*
X81510959Y-94590001D01*
X81515000Y-94631029D01*
X81514999Y-96235400D01*
X81442364Y-96323906D01*
X81364828Y-96468965D01*
X81317082Y-96626363D01*
X81306760Y-96731162D01*
X81288987Y-96743038D01*
X81103038Y-96928987D01*
X80956939Y-97147641D01*
X80856304Y-97390595D01*
X80805000Y-97648514D01*
X80805000Y-97911486D01*
X80856304Y-98169405D01*
X80956939Y-98412359D01*
X81103038Y-98631013D01*
X81288987Y-98816962D01*
X81507641Y-98963061D01*
X81750595Y-99063696D01*
X82008514Y-99115000D01*
X82271486Y-99115000D01*
X82529405Y-99063696D01*
X82772359Y-98963061D01*
X82991013Y-98816962D01*
X83176962Y-98631013D01*
X83323061Y-98412359D01*
X83423696Y-98169405D01*
X83475000Y-97911486D01*
X83475000Y-97648514D01*
X83423696Y-97390595D01*
X83323061Y-97147641D01*
X83176962Y-96928987D01*
X83130744Y-96882769D01*
X83172917Y-96743741D01*
X83184999Y-96621071D01*
X83184999Y-96621061D01*
X83189038Y-96580053D01*
X83184999Y-96539045D01*
X83184999Y-94935868D01*
X89380970Y-88739898D01*
X89380960Y-88740000D01*
X89385000Y-88781019D01*
X89385001Y-93224130D01*
X82434133Y-100175000D01*
X74145868Y-100175000D01*
X73571243Y-99600375D01*
X73575000Y-99581486D01*
X73575000Y-99318514D01*
X73523696Y-99060595D01*
X73423061Y-98817641D01*
X73276962Y-98598987D01*
X73091013Y-98413038D01*
X72872359Y-98266939D01*
X72629405Y-98166304D01*
X72371486Y-98115000D01*
X72108514Y-98115000D01*
X71850595Y-98166304D01*
X71607641Y-98266939D01*
X71388987Y-98413038D01*
X71203038Y-98598987D01*
X71056939Y-98817641D01*
X70956304Y-99060595D01*
X70905000Y-99318514D01*
X70905000Y-99581486D01*
X70956304Y-99839405D01*
X71056939Y-100082359D01*
X71203038Y-100301013D01*
X71388987Y-100486962D01*
X71607641Y-100633061D01*
X71850595Y-100733696D01*
X72108514Y-100785000D01*
X72371486Y-100785000D01*
X72390375Y-100781243D01*
X73180559Y-101571426D01*
X73206709Y-101603291D01*
X73333854Y-101707636D01*
X73478913Y-101785172D01*
X73636311Y-101832918D01*
X73799999Y-101849040D01*
X73841018Y-101845000D01*
X82738982Y-101845000D01*
X82780000Y-101849040D01*
X82821018Y-101845000D01*
X82821019Y-101845000D01*
X82943689Y-101832918D01*
X83101087Y-101785172D01*
X83246146Y-101707636D01*
X83373291Y-101603291D01*
X83399446Y-101571421D01*
X90781432Y-94189437D01*
X90813291Y-94163291D01*
X90845655Y-94123856D01*
X90917636Y-94036146D01*
X90995172Y-93891087D01*
X91042918Y-93733689D01*
X91059040Y-93570000D01*
X91055000Y-93528982D01*
X91055000Y-89085867D01*
X92091432Y-88049437D01*
X92123291Y-88023291D01*
X92171271Y-87964828D01*
X92227636Y-87896146D01*
X92305172Y-87751087D01*
X92339229Y-87638815D01*
X92352918Y-87593689D01*
X92365000Y-87471019D01*
X92365000Y-87471018D01*
X92369040Y-87430000D01*
X92365000Y-87388981D01*
X92365000Y-80775000D01*
X92531486Y-80775000D01*
X92789405Y-80723696D01*
X93032359Y-80623061D01*
X93251013Y-80476962D01*
X93436962Y-80291013D01*
X93583061Y-80072359D01*
X93683696Y-79829405D01*
X93735000Y-79571486D01*
X93735000Y-79308514D01*
X93683696Y-79050595D01*
X93583061Y-78807641D01*
X93436962Y-78588987D01*
X93251013Y-78403038D01*
X93032359Y-78256939D01*
X92789405Y-78156304D01*
X92531486Y-78105000D01*
X92268514Y-78105000D01*
X92010595Y-78156304D01*
X91767641Y-78256939D01*
X91548987Y-78403038D01*
X91364789Y-78587236D01*
X91357636Y-78573854D01*
X91337168Y-78548914D01*
X91279439Y-78478570D01*
X91279437Y-78478568D01*
X91253291Y-78446709D01*
X91221433Y-78420564D01*
X88228397Y-75427530D01*
X88167635Y-75313853D01*
X88117933Y-75253291D01*
X88100830Y-75232451D01*
X88105000Y-75211486D01*
X88105000Y-74948514D01*
X88053696Y-74690595D01*
X87953061Y-74447641D01*
X87806962Y-74228987D01*
X87621013Y-74043038D01*
X87402359Y-73896939D01*
X87159405Y-73796304D01*
X86901486Y-73745000D01*
X86638514Y-73745000D01*
X86380595Y-73796304D01*
X86345000Y-73811048D01*
X86345000Y-70551015D01*
X86349040Y-70509999D01*
X86339135Y-70409438D01*
X86332918Y-70346311D01*
X86285172Y-70188913D01*
X86207636Y-70043854D01*
X86103291Y-69916709D01*
X86071427Y-69890559D01*
X85998940Y-69818072D01*
X86720000Y-69818072D01*
X86844482Y-69805812D01*
X86964180Y-69769502D01*
X87074494Y-69710537D01*
X87171185Y-69631185D01*
X87250537Y-69534494D01*
X87309502Y-69424180D01*
X87345812Y-69304482D01*
X87358072Y-69180000D01*
X87358072Y-69080354D01*
X87441087Y-69055172D01*
X87586146Y-68977636D01*
X87713291Y-68873291D01*
X87739446Y-68841421D01*
X90631428Y-65949440D01*
X90663291Y-65923291D01*
X90767636Y-65796146D01*
X90845172Y-65651087D01*
X90892918Y-65493689D01*
X90897545Y-65446709D01*
X90909040Y-65330001D01*
X90905000Y-65288982D01*
X90905000Y-62091016D01*
X90909040Y-62049998D01*
X90892918Y-61886309D01*
X90845172Y-61728911D01*
X90767636Y-61583852D01*
X90689439Y-61488568D01*
X90689437Y-61488566D01*
X90663291Y-61456707D01*
X90631432Y-61430561D01*
X87979448Y-58778579D01*
X87953293Y-58746709D01*
X87826148Y-58642364D01*
X87681089Y-58564828D01*
X87523691Y-58517082D01*
X87401021Y-58505000D01*
X87401020Y-58505000D01*
X87360002Y-58500960D01*
X87318984Y-58505000D01*
X73145868Y-58505000D01*
X69345000Y-54704133D01*
X69345000Y-52371007D01*
X69349039Y-52329999D01*
X69345000Y-52288991D01*
X69345000Y-52288981D01*
X69332918Y-52166311D01*
X69331004Y-52160000D01*
X71927815Y-52160000D01*
X71956487Y-52451111D01*
X72041401Y-52731034D01*
X72179294Y-52989014D01*
X72364866Y-53215134D01*
X72590986Y-53400706D01*
X72848966Y-53538599D01*
X73128889Y-53623513D01*
X73347050Y-53645000D01*
X73492950Y-53645000D01*
X73711111Y-53623513D01*
X73991034Y-53538599D01*
X74249014Y-53400706D01*
X74475134Y-53215134D01*
X74499607Y-53185313D01*
X74520498Y-53254180D01*
X74579463Y-53364494D01*
X74658815Y-53461185D01*
X74755506Y-53540537D01*
X74865820Y-53599502D01*
X74985518Y-53635812D01*
X75110000Y-53648072D01*
X75674250Y-53645000D01*
X75833000Y-53486250D01*
X75833000Y-52287000D01*
X76087000Y-52287000D01*
X76087000Y-53486250D01*
X76245750Y-53645000D01*
X76810000Y-53648072D01*
X76934482Y-53635812D01*
X77054180Y-53599502D01*
X77164494Y-53540537D01*
X77261185Y-53461185D01*
X77340537Y-53364494D01*
X77399502Y-53254180D01*
X77435812Y-53134482D01*
X77448072Y-53010000D01*
X77445000Y-52445750D01*
X77286250Y-52287000D01*
X76087000Y-52287000D01*
X75833000Y-52287000D01*
X75813000Y-52287000D01*
X75813000Y-52160000D01*
X80917815Y-52160000D01*
X80946487Y-52451111D01*
X81031401Y-52731034D01*
X81169294Y-52989014D01*
X81354866Y-53215134D01*
X81580986Y-53400706D01*
X81838966Y-53538599D01*
X82118889Y-53623513D01*
X82337050Y-53645000D01*
X82482950Y-53645000D01*
X82701111Y-53623513D01*
X82981034Y-53538599D01*
X83239014Y-53400706D01*
X83465134Y-53215134D01*
X83489607Y-53185313D01*
X83510498Y-53254180D01*
X83569463Y-53364494D01*
X83648815Y-53461185D01*
X83745506Y-53540537D01*
X83855820Y-53599502D01*
X83975518Y-53635812D01*
X84100000Y-53648072D01*
X84664250Y-53645000D01*
X84823000Y-53486250D01*
X84823000Y-52287000D01*
X85077000Y-52287000D01*
X85077000Y-53486250D01*
X85235750Y-53645000D01*
X85800000Y-53648072D01*
X85924482Y-53635812D01*
X86044180Y-53599502D01*
X86154494Y-53540537D01*
X86251185Y-53461185D01*
X86330537Y-53364494D01*
X86389502Y-53254180D01*
X86425812Y-53134482D01*
X86438072Y-53010000D01*
X86435000Y-52445750D01*
X86276250Y-52287000D01*
X85077000Y-52287000D01*
X84823000Y-52287000D01*
X84803000Y-52287000D01*
X84803000Y-52033000D01*
X84823000Y-52033000D01*
X84823000Y-50833750D01*
X85077000Y-50833750D01*
X85077000Y-52033000D01*
X86276250Y-52033000D01*
X86435000Y-51874250D01*
X86438072Y-51310000D01*
X86425812Y-51185518D01*
X86389502Y-51065820D01*
X86330537Y-50955506D01*
X86251185Y-50858815D01*
X86154494Y-50779463D01*
X86044180Y-50720498D01*
X85924482Y-50684188D01*
X85800000Y-50671928D01*
X85235750Y-50675000D01*
X85077000Y-50833750D01*
X84823000Y-50833750D01*
X84664250Y-50675000D01*
X84100000Y-50671928D01*
X83975518Y-50684188D01*
X83855820Y-50720498D01*
X83745506Y-50779463D01*
X83648815Y-50858815D01*
X83569463Y-50955506D01*
X83510498Y-51065820D01*
X83489607Y-51134687D01*
X83465134Y-51104866D01*
X83239014Y-50919294D01*
X82981034Y-50781401D01*
X82701111Y-50696487D01*
X82482950Y-50675000D01*
X82337050Y-50675000D01*
X82118889Y-50696487D01*
X81838966Y-50781401D01*
X81580986Y-50919294D01*
X81354866Y-51104866D01*
X81169294Y-51330986D01*
X81031401Y-51588966D01*
X80946487Y-51868889D01*
X80917815Y-52160000D01*
X75813000Y-52160000D01*
X75813000Y-52033000D01*
X75833000Y-52033000D01*
X75833000Y-50833750D01*
X76087000Y-50833750D01*
X76087000Y-52033000D01*
X77286250Y-52033000D01*
X77445000Y-51874250D01*
X77448072Y-51310000D01*
X77435812Y-51185518D01*
X77399502Y-51065820D01*
X77340537Y-50955506D01*
X77261185Y-50858815D01*
X77164494Y-50779463D01*
X77054180Y-50720498D01*
X76934482Y-50684188D01*
X76810000Y-50671928D01*
X76245750Y-50675000D01*
X76087000Y-50833750D01*
X75833000Y-50833750D01*
X75674250Y-50675000D01*
X75110000Y-50671928D01*
X74985518Y-50684188D01*
X74865820Y-50720498D01*
X74755506Y-50779463D01*
X74658815Y-50858815D01*
X74579463Y-50955506D01*
X74520498Y-51065820D01*
X74499607Y-51134687D01*
X74475134Y-51104866D01*
X74249014Y-50919294D01*
X73991034Y-50781401D01*
X73711111Y-50696487D01*
X73492950Y-50675000D01*
X73347050Y-50675000D01*
X73128889Y-50696487D01*
X72848966Y-50781401D01*
X72590986Y-50919294D01*
X72364866Y-51104866D01*
X72179294Y-51330986D01*
X72041401Y-51588966D01*
X71956487Y-51868889D01*
X71927815Y-52160000D01*
X69331004Y-52160000D01*
X69285172Y-52008913D01*
X69207636Y-51863854D01*
X69103291Y-51736709D01*
X69071426Y-51710558D01*
X68139446Y-50778579D01*
X68113291Y-50746709D01*
X67986146Y-50642364D01*
X67841087Y-50564828D01*
X67758072Y-50539646D01*
X67758072Y-50440000D01*
X67745812Y-50315518D01*
X67709502Y-50195820D01*
X67650537Y-50085506D01*
X67571185Y-49988815D01*
X67474494Y-49909463D01*
X67364180Y-49850498D01*
X67244482Y-49814188D01*
X67120000Y-49801928D01*
X65320000Y-49801928D01*
X65195518Y-49814188D01*
X65075820Y-49850498D01*
X64965506Y-49909463D01*
X64868815Y-49988815D01*
X64789463Y-50085506D01*
X64730498Y-50195820D01*
X64694188Y-50315518D01*
X64681928Y-50440000D01*
X64681928Y-52240000D01*
X64694188Y-52364482D01*
X64730498Y-52484180D01*
X64789463Y-52594494D01*
X64868815Y-52691185D01*
X64965506Y-52770537D01*
X65075820Y-52829502D01*
X65094127Y-52835056D01*
X65027688Y-52901495D01*
X64859701Y-53152905D01*
X64743989Y-53432257D01*
X64685000Y-53728816D01*
X64685000Y-54031184D01*
X64718671Y-54200461D01*
X64044133Y-54875000D01*
X62698226Y-54875000D01*
X62657208Y-54870960D01*
X62616190Y-54875000D01*
X62616189Y-54875000D01*
X62493519Y-54887082D01*
X62336121Y-54934828D01*
X62191062Y-55012364D01*
X62063917Y-55116709D01*
X62037771Y-55148569D01*
X61418573Y-55767767D01*
X61386710Y-55793917D01*
X61360562Y-55825779D01*
X61282364Y-55921063D01*
X61204828Y-56066122D01*
X61157082Y-56223520D01*
X61142300Y-56373605D01*
X61033098Y-56446571D01*
X60999502Y-56335820D01*
X60940537Y-56225506D01*
X60861185Y-56128815D01*
X60764494Y-56049463D01*
X60654180Y-55990498D01*
X60534482Y-55954188D01*
X60410000Y-55941928D01*
X58610000Y-55941928D01*
X58485518Y-55954188D01*
X58365820Y-55990498D01*
X58255506Y-56049463D01*
X58158815Y-56128815D01*
X58079463Y-56225506D01*
X58020498Y-56335820D01*
X58014944Y-56354127D01*
X57948505Y-56287688D01*
X57805000Y-56191801D01*
X57805000Y-56135867D01*
X59691426Y-54249442D01*
X59712725Y-54231962D01*
X59878816Y-54265000D01*
X60181184Y-54265000D01*
X60477743Y-54206011D01*
X60757095Y-54090299D01*
X61008505Y-53922312D01*
X61074944Y-53855873D01*
X61080498Y-53874180D01*
X61139463Y-53984494D01*
X61218815Y-54081185D01*
X61315506Y-54160537D01*
X61425820Y-54219502D01*
X61545518Y-54255812D01*
X61670000Y-54268072D01*
X63470000Y-54268072D01*
X63594482Y-54255812D01*
X63714180Y-54219502D01*
X63824494Y-54160537D01*
X63921185Y-54081185D01*
X64000537Y-53984494D01*
X64059502Y-53874180D01*
X64095812Y-53754482D01*
X64108072Y-53630000D01*
X64108072Y-51830000D01*
X64095812Y-51705518D01*
X64059502Y-51585820D01*
X64000537Y-51475506D01*
X63921185Y-51378815D01*
X63824494Y-51299463D01*
X63714180Y-51240498D01*
X63594482Y-51204188D01*
X63470000Y-51191928D01*
X63370354Y-51191928D01*
X63345172Y-51108913D01*
X63267636Y-50963854D01*
X63163291Y-50836709D01*
X63131433Y-50810564D01*
X62249445Y-49928578D01*
X62223291Y-49896709D01*
X62096146Y-49792364D01*
X61951087Y-49714828D01*
X61793689Y-49667082D01*
X61671019Y-49655000D01*
X61671018Y-49655000D01*
X61630000Y-49650960D01*
X61588982Y-49655000D01*
X58371018Y-49655000D01*
X58330000Y-49650960D01*
X58288981Y-49655000D01*
X58166311Y-49667082D01*
X58008913Y-49714828D01*
X57863854Y-49792364D01*
X57736709Y-49896709D01*
X57710563Y-49928568D01*
X45282573Y-62356560D01*
X45250709Y-62382710D01*
X45224561Y-62414572D01*
X45146363Y-62509856D01*
X45068827Y-62654915D01*
X45021081Y-62812313D01*
X45004959Y-62976001D01*
X43065000Y-62976001D01*
X43065000Y-62266485D01*
X56640995Y-48875000D01*
X87385001Y-48875000D01*
X87385000Y-54285064D01*
X87385000Y-54285064D01*
G37*
X87385000Y-54285064D02*
X87381692Y-54317400D01*
X87385000Y-54352340D01*
X87385000Y-54353646D01*
X87388191Y-54386040D01*
X87394410Y-54451731D01*
X87394784Y-54452980D01*
X87394912Y-54454282D01*
X87414153Y-54517711D01*
X87433091Y-54581001D01*
X87433701Y-54582153D01*
X87434081Y-54583405D01*
X87465335Y-54641877D01*
X87496248Y-54700241D01*
X87497071Y-54701251D01*
X87497688Y-54702406D01*
X87539700Y-54753597D01*
X87560104Y-54778652D01*
X87561018Y-54779573D01*
X87583289Y-54806710D01*
X87608422Y-54827337D01*
X95294874Y-62572094D01*
X95285124Y-84253605D01*
X93404609Y-86205761D01*
X93383594Y-86222985D01*
X93357926Y-86254222D01*
X93353322Y-86259001D01*
X93336547Y-86280239D01*
X93297928Y-86327236D01*
X93294779Y-86333118D01*
X93290642Y-86338356D01*
X93262962Y-86392554D01*
X93234246Y-86446197D01*
X93232305Y-86452581D01*
X93229270Y-86458524D01*
X93212696Y-86517079D01*
X93194997Y-86575295D01*
X93194339Y-86581935D01*
X93192521Y-86588357D01*
X93187689Y-86649023D01*
X93185022Y-86675925D01*
X93185018Y-86682553D01*
X93181807Y-86722863D01*
X93184976Y-86749854D01*
X93175164Y-102429852D01*
X90811793Y-105095114D01*
X64302166Y-105104900D01*
X43065000Y-85054662D01*
X43065000Y-62976001D01*
X45004959Y-62976001D01*
X45009000Y-63017030D01*
X45008999Y-81834983D01*
X45004959Y-81876001D01*
X45016474Y-81992918D01*
X45021081Y-82039689D01*
X45068827Y-82197087D01*
X45146363Y-82342146D01*
X45250708Y-82469292D01*
X45282578Y-82495447D01*
X58488562Y-95701433D01*
X58514708Y-95733292D01*
X58546567Y-95759438D01*
X58546569Y-95759440D01*
X58641853Y-95837637D01*
X58786912Y-95915173D01*
X58944310Y-95962919D01*
X59066980Y-95975001D01*
X59066981Y-95975001D01*
X59107999Y-95979041D01*
X59149017Y-95975001D01*
X60410983Y-95975001D01*
X60452001Y-95979041D01*
X60493019Y-95975001D01*
X60493020Y-95975001D01*
X60615690Y-95962919D01*
X60773088Y-95915173D01*
X60918147Y-95837637D01*
X61045292Y-95733292D01*
X61071447Y-95701422D01*
X61494797Y-95278072D01*
X63220000Y-95278072D01*
X63344482Y-95265812D01*
X63464180Y-95229502D01*
X63574494Y-95170537D01*
X63671185Y-95091185D01*
X63750537Y-94994494D01*
X63809502Y-94884180D01*
X63845812Y-94764482D01*
X63858072Y-94640000D01*
X63858072Y-92840000D01*
X63845812Y-92715518D01*
X63809502Y-92595820D01*
X63750537Y-92485506D01*
X63671185Y-92388815D01*
X63605612Y-92335001D01*
X64045000Y-92335001D01*
X64045000Y-92551184D01*
X64103989Y-92847743D01*
X64219701Y-93127095D01*
X64387688Y-93378505D01*
X64454127Y-93444944D01*
X64435820Y-93450498D01*
X64325506Y-93509463D01*
X64228815Y-93588815D01*
X64149463Y-93685506D01*
X64090498Y-93795820D01*
X64054188Y-93915518D01*
X64041928Y-94040000D01*
X64041928Y-95840000D01*
X64054188Y-95964482D01*
X64090498Y-96084180D01*
X64149463Y-96194494D01*
X64228815Y-96291185D01*
X64325506Y-96370537D01*
X64435820Y-96429502D01*
X64555518Y-96465812D01*
X64680000Y-96478072D01*
X66480000Y-96478072D01*
X66604482Y-96465812D01*
X66724180Y-96429502D01*
X66834494Y-96370537D01*
X66931185Y-96291185D01*
X67010537Y-96194494D01*
X67069502Y-96084180D01*
X67105812Y-95964482D01*
X67118072Y-95840000D01*
X67118072Y-95740354D01*
X67201087Y-95715172D01*
X67346146Y-95637636D01*
X67473291Y-95533291D01*
X67499446Y-95501422D01*
X67675001Y-95325867D01*
X67675000Y-99512338D01*
X67658987Y-99523038D01*
X67473038Y-99708987D01*
X67326939Y-99927641D01*
X67226304Y-100170595D01*
X67175000Y-100428514D01*
X67175000Y-100691486D01*
X67226304Y-100949405D01*
X67326939Y-101192359D01*
X67473038Y-101411013D01*
X67658987Y-101596962D01*
X67877641Y-101743061D01*
X68120595Y-101843696D01*
X68378514Y-101895000D01*
X68641486Y-101895000D01*
X68899405Y-101843696D01*
X69142359Y-101743061D01*
X69361013Y-101596962D01*
X69546962Y-101411013D01*
X69693061Y-101192359D01*
X69793696Y-100949405D01*
X69845000Y-100691486D01*
X69845000Y-100428514D01*
X69793696Y-100170595D01*
X69693061Y-99927641D01*
X69546962Y-99708987D01*
X69361013Y-99523038D01*
X69345000Y-99512339D01*
X69345000Y-93925867D01*
X73269626Y-90001243D01*
X73288514Y-90005000D01*
X73551486Y-90005000D01*
X73809405Y-89953696D01*
X74052359Y-89853061D01*
X74271013Y-89706962D01*
X74456962Y-89521013D01*
X74603061Y-89302359D01*
X74703696Y-89059405D01*
X74755000Y-88801486D01*
X74755000Y-88538514D01*
X74703696Y-88280595D01*
X74603061Y-88037641D01*
X74456962Y-87818987D01*
X74271013Y-87633038D01*
X74244017Y-87615000D01*
X88144132Y-87615000D01*
X81788573Y-93970560D01*
X81756709Y-93996710D01*
X81730561Y-94028572D01*
X81652363Y-94123856D01*
X81574827Y-94268915D01*
X81527081Y-94426313D01*
X81510959Y-94590001D01*
X81515000Y-94631029D01*
X81514999Y-96235400D01*
X81442364Y-96323906D01*
X81364828Y-96468965D01*
X81317082Y-96626363D01*
X81306760Y-96731162D01*
X81288987Y-96743038D01*
X81103038Y-96928987D01*
X80956939Y-97147641D01*
X80856304Y-97390595D01*
X80805000Y-97648514D01*
X80805000Y-97911486D01*
X80856304Y-98169405D01*
X80956939Y-98412359D01*
X81103038Y-98631013D01*
X81288987Y-98816962D01*
X81507641Y-98963061D01*
X81750595Y-99063696D01*
X82008514Y-99115000D01*
X82271486Y-99115000D01*
X82529405Y-99063696D01*
X82772359Y-98963061D01*
X82991013Y-98816962D01*
X83176962Y-98631013D01*
X83323061Y-98412359D01*
X83423696Y-98169405D01*
X83475000Y-97911486D01*
X83475000Y-97648514D01*
X83423696Y-97390595D01*
X83323061Y-97147641D01*
X83176962Y-96928987D01*
X83130744Y-96882769D01*
X83172917Y-96743741D01*
X83184999Y-96621071D01*
X83184999Y-96621061D01*
X83189038Y-96580053D01*
X83184999Y-96539045D01*
X83184999Y-94935868D01*
X89380970Y-88739898D01*
X89380960Y-88740000D01*
X89385000Y-88781019D01*
X89385001Y-93224130D01*
X82434133Y-100175000D01*
X74145868Y-100175000D01*
X73571243Y-99600375D01*
X73575000Y-99581486D01*
X73575000Y-99318514D01*
X73523696Y-99060595D01*
X73423061Y-98817641D01*
X73276962Y-98598987D01*
X73091013Y-98413038D01*
X72872359Y-98266939D01*
X72629405Y-98166304D01*
X72371486Y-98115000D01*
X72108514Y-98115000D01*
X71850595Y-98166304D01*
X71607641Y-98266939D01*
X71388987Y-98413038D01*
X71203038Y-98598987D01*
X71056939Y-98817641D01*
X70956304Y-99060595D01*
X70905000Y-99318514D01*
X70905000Y-99581486D01*
X70956304Y-99839405D01*
X71056939Y-100082359D01*
X71203038Y-100301013D01*
X71388987Y-100486962D01*
X71607641Y-100633061D01*
X71850595Y-100733696D01*
X72108514Y-100785000D01*
X72371486Y-100785000D01*
X72390375Y-100781243D01*
X73180559Y-101571426D01*
X73206709Y-101603291D01*
X73333854Y-101707636D01*
X73478913Y-101785172D01*
X73636311Y-101832918D01*
X73799999Y-101849040D01*
X73841018Y-101845000D01*
X82738982Y-101845000D01*
X82780000Y-101849040D01*
X82821018Y-101845000D01*
X82821019Y-101845000D01*
X82943689Y-101832918D01*
X83101087Y-101785172D01*
X83246146Y-101707636D01*
X83373291Y-101603291D01*
X83399446Y-101571421D01*
X90781432Y-94189437D01*
X90813291Y-94163291D01*
X90845655Y-94123856D01*
X90917636Y-94036146D01*
X90995172Y-93891087D01*
X91042918Y-93733689D01*
X91059040Y-93570000D01*
X91055000Y-93528982D01*
X91055000Y-89085867D01*
X92091432Y-88049437D01*
X92123291Y-88023291D01*
X92171271Y-87964828D01*
X92227636Y-87896146D01*
X92305172Y-87751087D01*
X92339229Y-87638815D01*
X92352918Y-87593689D01*
X92365000Y-87471019D01*
X92365000Y-87471018D01*
X92369040Y-87430000D01*
X92365000Y-87388981D01*
X92365000Y-80775000D01*
X92531486Y-80775000D01*
X92789405Y-80723696D01*
X93032359Y-80623061D01*
X93251013Y-80476962D01*
X93436962Y-80291013D01*
X93583061Y-80072359D01*
X93683696Y-79829405D01*
X93735000Y-79571486D01*
X93735000Y-79308514D01*
X93683696Y-79050595D01*
X93583061Y-78807641D01*
X93436962Y-78588987D01*
X93251013Y-78403038D01*
X93032359Y-78256939D01*
X92789405Y-78156304D01*
X92531486Y-78105000D01*
X92268514Y-78105000D01*
X92010595Y-78156304D01*
X91767641Y-78256939D01*
X91548987Y-78403038D01*
X91364789Y-78587236D01*
X91357636Y-78573854D01*
X91337168Y-78548914D01*
X91279439Y-78478570D01*
X91279437Y-78478568D01*
X91253291Y-78446709D01*
X91221433Y-78420564D01*
X88228397Y-75427530D01*
X88167635Y-75313853D01*
X88117933Y-75253291D01*
X88100830Y-75232451D01*
X88105000Y-75211486D01*
X88105000Y-74948514D01*
X88053696Y-74690595D01*
X87953061Y-74447641D01*
X87806962Y-74228987D01*
X87621013Y-74043038D01*
X87402359Y-73896939D01*
X87159405Y-73796304D01*
X86901486Y-73745000D01*
X86638514Y-73745000D01*
X86380595Y-73796304D01*
X86345000Y-73811048D01*
X86345000Y-70551015D01*
X86349040Y-70509999D01*
X86339135Y-70409438D01*
X86332918Y-70346311D01*
X86285172Y-70188913D01*
X86207636Y-70043854D01*
X86103291Y-69916709D01*
X86071427Y-69890559D01*
X85998940Y-69818072D01*
X86720000Y-69818072D01*
X86844482Y-69805812D01*
X86964180Y-69769502D01*
X87074494Y-69710537D01*
X87171185Y-69631185D01*
X87250537Y-69534494D01*
X87309502Y-69424180D01*
X87345812Y-69304482D01*
X87358072Y-69180000D01*
X87358072Y-69080354D01*
X87441087Y-69055172D01*
X87586146Y-68977636D01*
X87713291Y-68873291D01*
X87739446Y-68841421D01*
X90631428Y-65949440D01*
X90663291Y-65923291D01*
X90767636Y-65796146D01*
X90845172Y-65651087D01*
X90892918Y-65493689D01*
X90897545Y-65446709D01*
X90909040Y-65330001D01*
X90905000Y-65288982D01*
X90905000Y-62091016D01*
X90909040Y-62049998D01*
X90892918Y-61886309D01*
X90845172Y-61728911D01*
X90767636Y-61583852D01*
X90689439Y-61488568D01*
X90689437Y-61488566D01*
X90663291Y-61456707D01*
X90631432Y-61430561D01*
X87979448Y-58778579D01*
X87953293Y-58746709D01*
X87826148Y-58642364D01*
X87681089Y-58564828D01*
X87523691Y-58517082D01*
X87401021Y-58505000D01*
X87401020Y-58505000D01*
X87360002Y-58500960D01*
X87318984Y-58505000D01*
X73145868Y-58505000D01*
X69345000Y-54704133D01*
X69345000Y-52371007D01*
X69349039Y-52329999D01*
X69345000Y-52288991D01*
X69345000Y-52288981D01*
X69332918Y-52166311D01*
X69331004Y-52160000D01*
X71927815Y-52160000D01*
X71956487Y-52451111D01*
X72041401Y-52731034D01*
X72179294Y-52989014D01*
X72364866Y-53215134D01*
X72590986Y-53400706D01*
X72848966Y-53538599D01*
X73128889Y-53623513D01*
X73347050Y-53645000D01*
X73492950Y-53645000D01*
X73711111Y-53623513D01*
X73991034Y-53538599D01*
X74249014Y-53400706D01*
X74475134Y-53215134D01*
X74499607Y-53185313D01*
X74520498Y-53254180D01*
X74579463Y-53364494D01*
X74658815Y-53461185D01*
X74755506Y-53540537D01*
X74865820Y-53599502D01*
X74985518Y-53635812D01*
X75110000Y-53648072D01*
X75674250Y-53645000D01*
X75833000Y-53486250D01*
X75833000Y-52287000D01*
X76087000Y-52287000D01*
X76087000Y-53486250D01*
X76245750Y-53645000D01*
X76810000Y-53648072D01*
X76934482Y-53635812D01*
X77054180Y-53599502D01*
X77164494Y-53540537D01*
X77261185Y-53461185D01*
X77340537Y-53364494D01*
X77399502Y-53254180D01*
X77435812Y-53134482D01*
X77448072Y-53010000D01*
X77445000Y-52445750D01*
X77286250Y-52287000D01*
X76087000Y-52287000D01*
X75833000Y-52287000D01*
X75813000Y-52287000D01*
X75813000Y-52160000D01*
X80917815Y-52160000D01*
X80946487Y-52451111D01*
X81031401Y-52731034D01*
X81169294Y-52989014D01*
X81354866Y-53215134D01*
X81580986Y-53400706D01*
X81838966Y-53538599D01*
X82118889Y-53623513D01*
X82337050Y-53645000D01*
X82482950Y-53645000D01*
X82701111Y-53623513D01*
X82981034Y-53538599D01*
X83239014Y-53400706D01*
X83465134Y-53215134D01*
X83489607Y-53185313D01*
X83510498Y-53254180D01*
X83569463Y-53364494D01*
X83648815Y-53461185D01*
X83745506Y-53540537D01*
X83855820Y-53599502D01*
X83975518Y-53635812D01*
X84100000Y-53648072D01*
X84664250Y-53645000D01*
X84823000Y-53486250D01*
X84823000Y-52287000D01*
X85077000Y-52287000D01*
X85077000Y-53486250D01*
X85235750Y-53645000D01*
X85800000Y-53648072D01*
X85924482Y-53635812D01*
X86044180Y-53599502D01*
X86154494Y-53540537D01*
X86251185Y-53461185D01*
X86330537Y-53364494D01*
X86389502Y-53254180D01*
X86425812Y-53134482D01*
X86438072Y-53010000D01*
X86435000Y-52445750D01*
X86276250Y-52287000D01*
X85077000Y-52287000D01*
X84823000Y-52287000D01*
X84803000Y-52287000D01*
X84803000Y-52033000D01*
X84823000Y-52033000D01*
X84823000Y-50833750D01*
X85077000Y-50833750D01*
X85077000Y-52033000D01*
X86276250Y-52033000D01*
X86435000Y-51874250D01*
X86438072Y-51310000D01*
X86425812Y-51185518D01*
X86389502Y-51065820D01*
X86330537Y-50955506D01*
X86251185Y-50858815D01*
X86154494Y-50779463D01*
X86044180Y-50720498D01*
X85924482Y-50684188D01*
X85800000Y-50671928D01*
X85235750Y-50675000D01*
X85077000Y-50833750D01*
X84823000Y-50833750D01*
X84664250Y-50675000D01*
X84100000Y-50671928D01*
X83975518Y-50684188D01*
X83855820Y-50720498D01*
X83745506Y-50779463D01*
X83648815Y-50858815D01*
X83569463Y-50955506D01*
X83510498Y-51065820D01*
X83489607Y-51134687D01*
X83465134Y-51104866D01*
X83239014Y-50919294D01*
X82981034Y-50781401D01*
X82701111Y-50696487D01*
X82482950Y-50675000D01*
X82337050Y-50675000D01*
X82118889Y-50696487D01*
X81838966Y-50781401D01*
X81580986Y-50919294D01*
X81354866Y-51104866D01*
X81169294Y-51330986D01*
X81031401Y-51588966D01*
X80946487Y-51868889D01*
X80917815Y-52160000D01*
X75813000Y-52160000D01*
X75813000Y-52033000D01*
X75833000Y-52033000D01*
X75833000Y-50833750D01*
X76087000Y-50833750D01*
X76087000Y-52033000D01*
X77286250Y-52033000D01*
X77445000Y-51874250D01*
X77448072Y-51310000D01*
X77435812Y-51185518D01*
X77399502Y-51065820D01*
X77340537Y-50955506D01*
X77261185Y-50858815D01*
X77164494Y-50779463D01*
X77054180Y-50720498D01*
X76934482Y-50684188D01*
X76810000Y-50671928D01*
X76245750Y-50675000D01*
X76087000Y-50833750D01*
X75833000Y-50833750D01*
X75674250Y-50675000D01*
X75110000Y-50671928D01*
X74985518Y-50684188D01*
X74865820Y-50720498D01*
X74755506Y-50779463D01*
X74658815Y-50858815D01*
X74579463Y-50955506D01*
X74520498Y-51065820D01*
X74499607Y-51134687D01*
X74475134Y-51104866D01*
X74249014Y-50919294D01*
X73991034Y-50781401D01*
X73711111Y-50696487D01*
X73492950Y-50675000D01*
X73347050Y-50675000D01*
X73128889Y-50696487D01*
X72848966Y-50781401D01*
X72590986Y-50919294D01*
X72364866Y-51104866D01*
X72179294Y-51330986D01*
X72041401Y-51588966D01*
X71956487Y-51868889D01*
X71927815Y-52160000D01*
X69331004Y-52160000D01*
X69285172Y-52008913D01*
X69207636Y-51863854D01*
X69103291Y-51736709D01*
X69071426Y-51710558D01*
X68139446Y-50778579D01*
X68113291Y-50746709D01*
X67986146Y-50642364D01*
X67841087Y-50564828D01*
X67758072Y-50539646D01*
X67758072Y-50440000D01*
X67745812Y-50315518D01*
X67709502Y-50195820D01*
X67650537Y-50085506D01*
X67571185Y-49988815D01*
X67474494Y-49909463D01*
X67364180Y-49850498D01*
X67244482Y-49814188D01*
X67120000Y-49801928D01*
X65320000Y-49801928D01*
X65195518Y-49814188D01*
X65075820Y-49850498D01*
X64965506Y-49909463D01*
X64868815Y-49988815D01*
X64789463Y-50085506D01*
X64730498Y-50195820D01*
X64694188Y-50315518D01*
X64681928Y-50440000D01*
X64681928Y-52240000D01*
X64694188Y-52364482D01*
X64730498Y-52484180D01*
X64789463Y-52594494D01*
X64868815Y-52691185D01*
X64965506Y-52770537D01*
X65075820Y-52829502D01*
X65094127Y-52835056D01*
X65027688Y-52901495D01*
X64859701Y-53152905D01*
X64743989Y-53432257D01*
X64685000Y-53728816D01*
X64685000Y-54031184D01*
X64718671Y-54200461D01*
X64044133Y-54875000D01*
X62698226Y-54875000D01*
X62657208Y-54870960D01*
X62616190Y-54875000D01*
X62616189Y-54875000D01*
X62493519Y-54887082D01*
X62336121Y-54934828D01*
X62191062Y-55012364D01*
X62063917Y-55116709D01*
X62037771Y-55148569D01*
X61418573Y-55767767D01*
X61386710Y-55793917D01*
X61360562Y-55825779D01*
X61282364Y-55921063D01*
X61204828Y-56066122D01*
X61157082Y-56223520D01*
X61142300Y-56373605D01*
X61033098Y-56446571D01*
X60999502Y-56335820D01*
X60940537Y-56225506D01*
X60861185Y-56128815D01*
X60764494Y-56049463D01*
X60654180Y-55990498D01*
X60534482Y-55954188D01*
X60410000Y-55941928D01*
X58610000Y-55941928D01*
X58485518Y-55954188D01*
X58365820Y-55990498D01*
X58255506Y-56049463D01*
X58158815Y-56128815D01*
X58079463Y-56225506D01*
X58020498Y-56335820D01*
X58014944Y-56354127D01*
X57948505Y-56287688D01*
X57805000Y-56191801D01*
X57805000Y-56135867D01*
X59691426Y-54249442D01*
X59712725Y-54231962D01*
X59878816Y-54265000D01*
X60181184Y-54265000D01*
X60477743Y-54206011D01*
X60757095Y-54090299D01*
X61008505Y-53922312D01*
X61074944Y-53855873D01*
X61080498Y-53874180D01*
X61139463Y-53984494D01*
X61218815Y-54081185D01*
X61315506Y-54160537D01*
X61425820Y-54219502D01*
X61545518Y-54255812D01*
X61670000Y-54268072D01*
X63470000Y-54268072D01*
X63594482Y-54255812D01*
X63714180Y-54219502D01*
X63824494Y-54160537D01*
X63921185Y-54081185D01*
X64000537Y-53984494D01*
X64059502Y-53874180D01*
X64095812Y-53754482D01*
X64108072Y-53630000D01*
X64108072Y-51830000D01*
X64095812Y-51705518D01*
X64059502Y-51585820D01*
X64000537Y-51475506D01*
X63921185Y-51378815D01*
X63824494Y-51299463D01*
X63714180Y-51240498D01*
X63594482Y-51204188D01*
X63470000Y-51191928D01*
X63370354Y-51191928D01*
X63345172Y-51108913D01*
X63267636Y-50963854D01*
X63163291Y-50836709D01*
X63131433Y-50810564D01*
X62249445Y-49928578D01*
X62223291Y-49896709D01*
X62096146Y-49792364D01*
X61951087Y-49714828D01*
X61793689Y-49667082D01*
X61671019Y-49655000D01*
X61671018Y-49655000D01*
X61630000Y-49650960D01*
X61588982Y-49655000D01*
X58371018Y-49655000D01*
X58330000Y-49650960D01*
X58288981Y-49655000D01*
X58166311Y-49667082D01*
X58008913Y-49714828D01*
X57863854Y-49792364D01*
X57736709Y-49896709D01*
X57710563Y-49928568D01*
X45282573Y-62356560D01*
X45250709Y-62382710D01*
X45224561Y-62414572D01*
X45146363Y-62509856D01*
X45068827Y-62654915D01*
X45021081Y-62812313D01*
X45004959Y-62976001D01*
X43065000Y-62976001D01*
X43065000Y-62266485D01*
X56640995Y-48875000D01*
X87385001Y-48875000D01*
X87385000Y-54285064D01*
%TD*%
M02*
