M48
; DRILL file {KiCad (5.1.4)-1} date 17.11.2020 10.50.48
; FORMAT={-:-/ absolute / inch / decimal}
; #@! TF.CreationDate,2020-11-17T10:50:48+02:00
; #@! TF.GenerationSoftware,Kicad,Pcbnew,(5.1.4)-1
; #@! TF.FileFunction,Plated,1,2,PTH
FMAT,2
INCH
T1C0.0276
T2C0.0354
T3C0.0394
%
G90
G05
T1
X2.198Y-3.15
X2.3354Y-3.1972
X2.3642Y-2.6299
X2.4409Y-3.0283
X2.561Y-2.6311
X2.663Y-3.026
X2.6972Y-3.9591
X2.8409Y-2.7299
X2.8441Y-3.9154
X2.889Y-3.0028
X2.8906Y-3.4909
X3.0803Y-3.8154
X3.1122Y-3.6756
X3.2339Y-3.8496
X3.4161Y-2.9559
X3.6378Y-3.1276
T2
X2.1138Y-2.4614
X2.2138Y-2.4614
X2.9949Y-2.4827
X3.0949Y-2.4827
X1.9654Y-3.1051
X2.0654Y-3.1051
X2.4307Y-3.4969
X2.5307Y-3.4969
X2.2429Y-2.263
X2.3429Y-2.263
X2.5819Y-3.6378
X2.5819Y-3.7378
X2.6583Y-2.8894
X2.7583Y-2.8894
X3.3799Y-2.4831
X3.4799Y-2.4831
X3.3701Y-3.2835
X3.4701Y-3.2835
X2.7913Y-2.4807
X2.8913Y-2.4807
X1.9752Y-2.6614
X2.0752Y-2.6614
X3.1878Y-2.4787
X3.2878Y-2.4787
X2.3535Y-3.6906
X2.4535Y-3.6906
X3.1752Y-2.8933
X3.2752Y-2.8933
X2.985Y-3.2839
X3.085Y-3.2839
X2.3634Y-2.076
X2.4634Y-2.076
X2.3469Y-3.2839
X2.4469Y-3.2839
X1.86Y-2.89
X1.96Y-2.89
X2.9177Y-2.8882
X3.0177Y-2.8882
X3.2693Y-3.078
X3.3693Y-3.078
X2.6071Y-2.0213
X2.6071Y-2.1213
X2.578Y-2.4831
X2.678Y-2.4831
X2.1169Y-2.8882
X2.2169Y-2.8882
X2.1039Y-3.3051
X2.2039Y-3.3051
X3.2787Y-2.6882
X3.3787Y-2.6882
X3.178Y-3.2878
X3.278Y-3.2878
X2.2335Y-3.5035
X2.3335Y-3.5035
X2.3567Y-2.4827
X2.4567Y-2.4827
X2.5685Y-3.2839
X2.6685Y-3.2839
X2.7819Y-3.2858
X2.8819Y-3.2858
X2.3862Y-2.8894
X2.4862Y-2.8894
X2.4402Y-2.2701
X2.5402Y-2.2701
T3
X3.2445Y-2.0535
X3.3445Y-2.0535
X2.8906Y-2.0535
X2.9906Y-2.0535
T0
M30
