M48
; DRILL file {KiCad (5.1.4)-1} date 29.8.2021 10.15.54
; FORMAT={-:-/ absolute / inch / decimal}
; #@! TF.CreationDate,2021-08-29T10:15:54+03:00
; #@! TF.GenerationSoftware,Kicad,Pcbnew,(5.1.4)-1
; #@! TF.FileFunction,Plated,1,2,PTH
FMAT,2
INCH
T1C0.0276
T2C0.0354
T3C0.0394
%
G90
G05
T1
X9.3488Y-5.5594
X9.3906Y-4.6358
X9.45Y-4.34
X9.6232Y-4.6055
X9.63Y-5.15
X9.7335Y-4.5689
X9.83Y-5.185
X9.835Y-5.07
X9.905Y-5.56
X9.95Y-5.41
X9.9514Y-5.1586
X9.99Y-5.55
X10.1216Y-5.8984
X10.2Y-5.31
X10.22Y-4.36
X10.23Y-5.44
X10.24Y-4.46
X10.35Y-4.33
X10.375Y-5.25
X10.42Y-4.4528
X10.4291Y-4.9841
X10.431Y-4.3496
X10.48Y-4.25
X10.515Y-4.59
X10.58Y-4.38
X10.6Y-4.5
X10.835Y-4.79
X10.85Y-4.7
T2
X9.4512Y-4.8681
X9.5512Y-4.8681
X9.5252Y-5.4957
X9.6252Y-5.4957
X10.3547Y-5.9232
X10.4547Y-5.9232
X9.9224Y-6.0508
X9.9224Y-6.1508
X10.5913Y-4.8665
X10.6913Y-4.8665
X9.4031Y-5.3906
X9.5031Y-5.3906
X9.9098Y-4.9059
X9.9272Y-4.8074
X10.4161Y-5.6287
X10.5161Y-5.6287
X9.6752Y-5.7732
X9.7752Y-5.7732
X10.4882Y-4.7394
X10.5882Y-4.7394
X10.0815Y-4.8244
X10.0815Y-4.9244
X10.2193Y-4.8048
X10.2535Y-4.8988
X10.5185Y-5.4953
X10.6185Y-5.4953
X9.7343Y-6.1094
X9.805Y-6.0387
X9.2618Y-5.3008
X9.3618Y-5.3008
X9.6276Y-5.6291
X9.7276Y-5.6291
X10.3614Y-4.7551
X10.4114Y-4.8417
X9.3492Y-4.9909
X9.4492Y-4.9909
X10.7819Y-5.3004
X10.8819Y-5.3004
X10.3588Y-6.0383
X10.4295Y-6.1091
X9.2843Y-5.1409
X9.3843Y-5.1409
X9.5563Y-4.7445
X9.6563Y-4.7445
X10.5213Y-5.0902
X10.6213Y-5.0902
X10.6409Y-5.3902
X10.7409Y-5.3902
X10.7594Y-5.1406
X10.8594Y-5.1406
X10.3669Y-5.774
X10.4669Y-5.774
X10.237Y-6.052
X10.237Y-6.152
X9.6886Y-5.9197
X9.7886Y-5.9197
X10.6945Y-4.9906
X10.7945Y-4.9906
X10.0756Y-6.0591
X10.0756Y-6.1591
X9.7445Y-4.8488
X9.7787Y-4.7548
T3
X9.437Y-6.1555
X9.537Y-6.1555
X9.2012Y-6.1516
X9.3012Y-6.1516
T0
M30
