%TF.GenerationSoftware,KiCad,Pcbnew,(5.1.4)-1*%
%TF.CreationDate,2021-08-29T10:15:52+03:00*%
%TF.ProjectId,kone,6b6f6e65-2e6b-4696-9361-645f70636258,rev?*%
%TF.SameCoordinates,Original*%
%TF.FileFunction,Copper,L2,Bot*%
%TF.FilePolarity,Positive*%
%FSLAX46Y46*%
G04 Gerber Fmt 4.6, Leading zero omitted, Abs format (unit mm)*
G04 Created by KiCad (PCBNEW (5.1.4)-1) date 2021-08-29 10:15:52*
%MOMM*%
%LPD*%
G04 APERTURE LIST*
%TA.AperFunction,ComponentPad*%
%ADD10R,1.700000X1.700000*%
%TD*%
%TA.AperFunction,ComponentPad*%
%ADD11O,1.700000X1.700000*%
%TD*%
%TA.AperFunction,ComponentPad*%
%ADD12R,1.800000X1.800000*%
%TD*%
%TA.AperFunction,ComponentPad*%
%ADD13C,1.800000*%
%TD*%
%TA.AperFunction,Conductor*%
%ADD14C,0.150000*%
%TD*%
%TA.AperFunction,ViaPad*%
%ADD15C,1.400000*%
%TD*%
%TA.AperFunction,Conductor*%
%ADD16C,0.400000*%
%TD*%
%TA.AperFunction,Conductor*%
%ADD17C,0.254000*%
%TD*%
G04 APERTURE END LIST*
D10*
%TO.P,P3,1*%
%TO.N,GND*%
X233710000Y-156250000D03*
D11*
%TO.P,P3,2*%
%TO.N,VCC*%
X236250000Y-156250000D03*
%TD*%
D12*
%TO.P,D29,1*%
%TO.N,Net-(D13-Pad1)*%
X268940000Y-120380000D03*
D13*
%TO.P,D29,2*%
%TO.N,Net-(D25-Pad2)*%
X266400000Y-120380000D03*
%TD*%
%TO.P,D9,1*%
%TO.N,Net-(D1-Pad1)*%
X264910000Y-155170000D03*
D14*
%TD*%
%TO.N,Net-(D1-Pad1)*%
%TO.C,D9*%
G36*
X266182792Y-155170000D02*
G01*
X264910000Y-156442792D01*
X263637208Y-155170000D01*
X264910000Y-153897208D01*
X266182792Y-155170000D01*
X266182792Y-155170000D01*
G37*
D13*
%TO.P,D9,2*%
%TO.N,Net-(D10-Pad2)*%
X263113949Y-153373949D03*
%TD*%
%TO.P,D11,2*%
%TO.N,Net-(D10-Pad2)*%
X255920000Y-153900000D03*
D12*
%TO.P,D11,1*%
%TO.N,Net-(D11-Pad1)*%
X255920000Y-156440000D03*
%TD*%
%TO.P,D12,1*%
%TO.N,Net-(D12-Pad1)*%
X252030000Y-156230000D03*
D13*
%TO.P,D12,2*%
%TO.N,Net-(D10-Pad2)*%
X252030000Y-153690000D03*
%TD*%
%TO.P,D13,2*%
%TO.N,Net-(D10-Pad2)*%
X249046051Y-153383949D03*
%TO.P,D13,1*%
%TO.N,Net-(D13-Pad1)*%
X247250000Y-155180000D03*
D14*
%TD*%
%TO.N,Net-(D13-Pad1)*%
%TO.C,D13*%
G36*
X247250000Y-156452792D02*
G01*
X245977208Y-155180000D01*
X247250000Y-153907208D01*
X248522792Y-155180000D01*
X247250000Y-156452792D01*
X247250000Y-156452792D01*
G37*
D13*
%TO.P,D16,2*%
%TO.N,Net-(D10-Pad2)*%
X244540000Y-142980000D03*
D12*
%TO.P,D16,1*%
%TO.N,Net-(D16-Pad1)*%
X247080000Y-142980000D03*
%TD*%
%TO.P,D7,1*%
%TO.N,Net-(D15-Pad1)*%
X265860000Y-146660000D03*
D13*
%TO.P,D7,2*%
%TO.N,Net-(D1-Pad2)*%
X263320000Y-146660000D03*
%TD*%
%TO.P,D6,2*%
%TO.N,Net-(D1-Pad2)*%
X264570000Y-142970000D03*
D12*
%TO.P,D6,1*%
%TO.N,Net-(D14-Pad1)*%
X267110000Y-142970000D03*
%TD*%
D13*
%TO.P,D1,2*%
%TO.N,Net-(D1-Pad2)*%
X271640000Y-126760000D03*
D12*
%TO.P,D1,1*%
%TO.N,Net-(D1-Pad1)*%
X274180000Y-126760000D03*
%TD*%
%TO.P,D3,1*%
%TO.N,Net-(D11-Pad1)*%
X276400000Y-134630000D03*
D13*
%TO.P,D3,2*%
%TO.N,Net-(D1-Pad2)*%
X273860000Y-134630000D03*
%TD*%
%TO.P,D4,2*%
%TO.N,Net-(D1-Pad2)*%
X270280000Y-136910000D03*
D12*
%TO.P,D4,1*%
%TO.N,Net-(D12-Pad1)*%
X272820000Y-136910000D03*
%TD*%
%TO.P,D2,1*%
%TO.N,Net-(D10-Pad1)*%
X275830000Y-130570000D03*
D13*
%TO.P,D2,2*%
%TO.N,Net-(D1-Pad2)*%
X273290000Y-130570000D03*
%TD*%
D12*
%TO.P,D5,1*%
%TO.N,Net-(D13-Pad1)*%
X269710000Y-139580000D03*
D13*
%TO.P,D5,2*%
%TO.N,Net-(D1-Pad2)*%
X267170000Y-139580000D03*
%TD*%
D12*
%TO.P,D14,1*%
%TO.N,Net-(D14-Pad1)*%
X248630000Y-150360000D03*
D13*
%TO.P,D14,2*%
%TO.N,Net-(D10-Pad2)*%
X246090000Y-150360000D03*
%TD*%
D10*
%TO.P,P2,1*%
%TO.N,GND*%
X239700000Y-156350000D03*
D11*
%TO.P,P2,2*%
%TO.N,Net-(F1-Pad2)*%
X242240000Y-156350000D03*
%TD*%
D12*
%TO.P,D15,1*%
%TO.N,Net-(D15-Pad1)*%
X248290000Y-146640000D03*
D13*
%TO.P,D15,2*%
%TO.N,Net-(D10-Pad2)*%
X245750000Y-146640000D03*
%TD*%
%TO.P,D17,2*%
%TO.N,Net-(D17-Pad2)*%
X241940000Y-139590000D03*
D12*
%TO.P,D17,1*%
%TO.N,Net-(D1-Pad1)*%
X244480000Y-139590000D03*
%TD*%
%TO.P,D18,1*%
%TO.N,Net-(D10-Pad1)*%
X241380000Y-136920000D03*
D13*
%TO.P,D18,2*%
%TO.N,Net-(D17-Pad2)*%
X238840000Y-136920000D03*
%TD*%
D12*
%TO.P,D19,1*%
%TO.N,Net-(D11-Pad1)*%
X237790000Y-134640000D03*
D13*
%TO.P,D19,2*%
%TO.N,Net-(D17-Pad2)*%
X235250000Y-134640000D03*
%TD*%
D12*
%TO.P,D20,1*%
%TO.N,Net-(D12-Pad1)*%
X238360000Y-130580000D03*
D13*
%TO.P,D20,2*%
%TO.N,Net-(D17-Pad2)*%
X235820000Y-130580000D03*
%TD*%
%TO.P,D21,2*%
%TO.N,Net-(D17-Pad2)*%
X237470000Y-126770000D03*
D12*
%TO.P,D21,1*%
%TO.N,Net-(D13-Pad1)*%
X240010000Y-126770000D03*
%TD*%
D13*
%TO.P,D22,2*%
%TO.N,Net-(D17-Pad2)*%
X240060000Y-123650000D03*
D12*
%TO.P,D22,1*%
%TO.N,Net-(D14-Pad1)*%
X242600000Y-123650000D03*
%TD*%
%TO.P,D23,1*%
%TO.N,Net-(D15-Pad1)*%
X245270000Y-120510000D03*
D13*
%TO.P,D23,2*%
%TO.N,Net-(D17-Pad2)*%
X242730000Y-120510000D03*
%TD*%
%TO.P,D24,2*%
%TO.N,Net-(D17-Pad2)*%
X248378731Y-120773181D03*
%TO.P,D24,1*%
%TO.N,Net-(D16-Pad1)*%
X247510000Y-123160000D03*
D14*
%TD*%
%TO.N,Net-(D16-Pad1)*%
%TO.C,D24*%
G36*
X248047905Y-124313541D02*
G01*
X246356459Y-123697905D01*
X246972095Y-122006459D01*
X248663541Y-122622095D01*
X248047905Y-124313541D01*
X248047905Y-124313541D01*
G37*
D13*
%TO.P,D25,2*%
%TO.N,Net-(D25-Pad2)*%
X252151066Y-122108588D03*
%TO.P,D25,1*%
%TO.N,Net-(D1-Pad1)*%
X251710000Y-124610000D03*
D14*
%TD*%
%TO.N,Net-(D1-Pad1)*%
%TO.C,D25*%
G36*
X252440044Y-125652610D02*
G01*
X250667390Y-125340044D01*
X250979956Y-123567390D01*
X252752610Y-123879956D01*
X252440044Y-125652610D01*
X252440044Y-125652610D01*
G37*
D12*
%TO.P,D26,1*%
%TO.N,Net-(D10-Pad1)*%
X256070000Y-125080000D03*
D13*
%TO.P,D26,2*%
%TO.N,Net-(D25-Pad2)*%
X256070000Y-122540000D03*
%TD*%
%TO.P,D27,1*%
%TO.N,Net-(D11-Pad1)*%
X260440000Y-124430000D03*
D14*
%TD*%
%TO.N,Net-(D11-Pad1)*%
%TO.C,D27*%
G36*
X261593541Y-124967905D02*
G01*
X259902095Y-125583541D01*
X259286459Y-123892095D01*
X260977905Y-123276459D01*
X261593541Y-124967905D01*
X261593541Y-124967905D01*
G37*
D13*
%TO.P,D27,2*%
%TO.N,Net-(D25-Pad2)*%
X259571269Y-122043181D03*
%TD*%
%TO.P,D30,2*%
%TO.N,Net-(D25-Pad2)*%
X269020000Y-123610000D03*
D12*
%TO.P,D30,1*%
%TO.N,Net-(D14-Pad1)*%
X271560000Y-123610000D03*
%TD*%
%TO.P,D31,1*%
%TO.N,Net-(D15-Pad1)*%
X269780000Y-129290000D03*
D13*
%TO.P,D31,2*%
%TO.N,Net-(D25-Pad2)*%
X267240000Y-129290000D03*
%TD*%
%TO.P,D8,2*%
%TO.N,Net-(D1-Pad2)*%
X263010000Y-150450000D03*
D12*
%TO.P,D8,1*%
%TO.N,Net-(D16-Pad1)*%
X265550000Y-150450000D03*
%TD*%
%TO.P,D10,1*%
%TO.N,Net-(D10-Pad1)*%
X260020000Y-156260000D03*
D13*
%TO.P,D10,2*%
%TO.N,Net-(D10-Pad2)*%
X260020000Y-153720000D03*
%TD*%
%TO.P,D28,1*%
%TO.N,Net-(D12-Pad1)*%
X264450000Y-122980000D03*
D14*
%TD*%
%TO.N,Net-(D12-Pad1)*%
%TO.C,D28*%
G36*
X265679423Y-123309423D02*
G01*
X264120577Y-124209423D01*
X263220577Y-122650577D01*
X264779423Y-121750577D01*
X265679423Y-123309423D01*
X265679423Y-123309423D01*
G37*
D13*
%TO.P,D28,2*%
%TO.N,Net-(D25-Pad2)*%
X263180000Y-120780295D03*
%TD*%
D15*
%TO.N,Net-(D10-Pad1)*%
X257088471Y-149819529D03*
X252766054Y-131027946D03*
%TO.N,Net-(D11-Pad1)*%
X249682000Y-131699000D03*
X259080000Y-134874000D03*
%TO.N,Net-(D12-Pad1)*%
X264898971Y-126595971D03*
%TO.N,Net-(D13-Pad1)*%
X249809000Y-128778000D03*
X263525000Y-133350000D03*
X262890000Y-109982000D03*
X266192000Y-107950000D03*
%TO.N,Net-(D14-Pad1)*%
X275209000Y-121666000D03*
X247230000Y-116050000D03*
%TO.N,Net-(D15-Pad1)*%
X251587000Y-141224000D03*
X244430000Y-116980000D03*
%TO.N,Net-(D16-Pad1)*%
X240030000Y-110236000D03*
%TO.N,Net-(IC1-Pad17)*%
X268732000Y-111252000D03*
X264948155Y-110480501D03*
%TO.N,Net-(IC1-Pad18)*%
X238520000Y-117750000D03*
X264668000Y-113100000D03*
%TO.N,Net-(IC1-Pad19)*%
X237460000Y-141210000D03*
X269240000Y-114300000D03*
%TO.N,Net-(IC1-Pad20)*%
X275590000Y-119380000D03*
X267081000Y-116586000D03*
%TO.N,GND*%
X259588000Y-110744000D03*
X260096000Y-113284000D03*
X244602000Y-130810000D03*
X252730000Y-137414000D03*
X259842000Y-138176000D03*
X253746000Y-140970000D03*
%TD*%
D16*
%TO.N,Net-(D1-Pad1)*%
X250751065Y-123651065D02*
X251710000Y-124610000D01*
X250751065Y-121436587D02*
X250751065Y-123651065D01*
X253207653Y-118979999D02*
X250751065Y-121436587D01*
X270240001Y-118979999D02*
X253207653Y-118979999D01*
X274180000Y-122919998D02*
X270240001Y-118979999D01*
X274180000Y-126760000D02*
X274180000Y-122919998D01*
X244480000Y-139590000D02*
X251821998Y-139590000D01*
X263785950Y-151973948D02*
X257510948Y-151973948D01*
X264910000Y-153097998D02*
X263785950Y-151973948D01*
X264910000Y-155170000D02*
X264910000Y-153097998D01*
X251821998Y-139590000D02*
X254779000Y-139590000D01*
X257510948Y-151973948D02*
X255333500Y-149796500D01*
X255287000Y-139590000D02*
X255333500Y-139636500D01*
X254779000Y-139590000D02*
X255287000Y-139590000D01*
X255333500Y-139636500D02*
X255333500Y-149796500D01*
X255333500Y-128233500D02*
X251710000Y-124610000D01*
X255333500Y-139636500D02*
X255333500Y-128233500D01*
%TO.N,Net-(D1-Pad2)*%
X262420001Y-147559999D02*
X263320000Y-146660000D01*
X262110001Y-147869999D02*
X262420001Y-147559999D01*
X262110001Y-149550001D02*
X262110001Y-147869999D01*
X263010000Y-150450000D02*
X262110001Y-149550001D01*
X263320000Y-144220000D02*
X264570000Y-142970000D01*
X263320000Y-146660000D02*
X263320000Y-144220000D01*
X264570000Y-141697208D02*
X265310000Y-140957208D01*
X264570000Y-142970000D02*
X264570000Y-141697208D01*
X265792792Y-140957208D02*
X267170000Y-139580000D01*
X265310000Y-140957208D02*
X265792792Y-140957208D01*
X273860000Y-131140000D02*
X273290000Y-130570000D01*
X273860000Y-134630000D02*
X273860000Y-131140000D01*
X271640000Y-128920000D02*
X271640000Y-126760000D01*
X273290000Y-130570000D02*
X271640000Y-128920000D01*
%TO.N,Net-(D10-Pad1)*%
X256070000Y-148801058D02*
X257088471Y-149819529D01*
X256070000Y-125080000D02*
X256070000Y-148801058D01*
X246874000Y-136920000D02*
X247523000Y-136271000D01*
X241380000Y-136920000D02*
X246874000Y-136920000D01*
X247523000Y-136271000D02*
X250444000Y-133350000D01*
X250444000Y-133350000D02*
X252766054Y-131027946D01*
%TO.N,Net-(D11-Pad1)*%
X260440000Y-124430000D02*
X260440000Y-131990000D01*
X246741000Y-134640000D02*
X237790000Y-134640000D01*
X249682000Y-131699000D02*
X246741000Y-134640000D01*
X260440000Y-131990000D02*
X260440000Y-133768000D01*
X260440000Y-133768000D02*
X259334000Y-134874000D01*
X259334000Y-134874000D02*
X259080000Y-134874000D01*
%TO.N,Net-(D12-Pad1)*%
X264898971Y-128988971D02*
X264898971Y-126595971D01*
X272820000Y-136910000D02*
X264898971Y-128988971D01*
%TO.N,Net-(D13-Pad1)*%
X249910001Y-157840001D02*
X264219915Y-157840001D01*
X247250000Y-155180000D02*
X249910001Y-157840001D01*
X268940000Y-120755968D02*
X268940000Y-120380000D01*
X263525000Y-126170968D02*
X268940000Y-120755968D01*
X263525000Y-133350000D02*
X263525000Y-126170968D01*
X265839999Y-135664999D02*
X263525000Y-133350000D01*
X265839999Y-135709999D02*
X265839999Y-135664999D01*
X269710000Y-139580000D02*
X265839999Y-135709999D01*
X247801000Y-126770000D02*
X249809000Y-128778000D01*
X240010000Y-126770000D02*
X247801000Y-126770000D01*
X267744958Y-145395042D02*
X269710000Y-143430000D01*
X267744958Y-154314958D02*
X267744958Y-145395042D01*
X269710000Y-143430000D02*
X269710000Y-139580000D01*
X264219915Y-157840001D02*
X267744958Y-154314958D01*
X263906000Y-107950000D02*
X266192000Y-107950000D01*
X262890000Y-109982000D02*
X262890000Y-108966000D01*
X262890000Y-108966000D02*
X263906000Y-107950000D01*
%TO.N,Net-(D14-Pad1)*%
X247229999Y-148959999D02*
X248630000Y-150360000D01*
X239927244Y-142889246D02*
X245997997Y-148959999D01*
X239927244Y-141579999D02*
X239927244Y-142889246D01*
X233849999Y-135502754D02*
X239927244Y-141579999D01*
X233849999Y-127127246D02*
X233849999Y-135502754D01*
X235628246Y-125349000D02*
X233849999Y-127127246D01*
X240901000Y-125349000D02*
X235628246Y-125349000D01*
X245997997Y-148959999D02*
X247229999Y-148959999D01*
X242600000Y-123650000D02*
X240901000Y-125349000D01*
X271822989Y-118279989D02*
X275209000Y-121666000D01*
X250051055Y-123650000D02*
X250051055Y-121146634D01*
X248887504Y-124813551D02*
X250051055Y-123650000D01*
X243763551Y-124813551D02*
X248887504Y-124813551D01*
X242600000Y-123650000D02*
X243763551Y-124813551D01*
X251333000Y-116967000D02*
X252781845Y-118415845D01*
X252781845Y-118415845D02*
X252917700Y-118279989D01*
X250051055Y-121146634D02*
X252781845Y-118415845D01*
X252645989Y-118279989D02*
X251333000Y-116967000D01*
X253195011Y-118279989D02*
X252645989Y-118279989D01*
X252917700Y-118279989D02*
X253195011Y-118279989D01*
X253195011Y-118279989D02*
X271822989Y-118279989D01*
X251333000Y-116967000D02*
X248147000Y-116967000D01*
X248147000Y-116967000D02*
X247230000Y-116050000D01*
%TO.N,Net-(D15-Pad1)*%
X248290000Y-144521000D02*
X251587000Y-141224000D01*
X248290000Y-146640000D02*
X248290000Y-144521000D01*
X244430000Y-119670000D02*
X245270000Y-120510000D01*
X244430000Y-116980000D02*
X244430000Y-119670000D01*
%TO.N,Net-(D16-Pad1)*%
X234460052Y-115805948D02*
X240030000Y-110236000D01*
X240030000Y-110236000D02*
X233934000Y-116332000D01*
X233934000Y-118364000D02*
X233934000Y-116332000D01*
X247510000Y-123160000D02*
X246260001Y-121910001D01*
X246260001Y-121910001D02*
X237480001Y-121910001D01*
X237480001Y-121910001D02*
X233934000Y-118364000D01*
%TO.N,Net-(D10-Pad2)*%
X260216051Y-153373949D02*
X260030000Y-153560000D01*
X263113949Y-153373949D02*
X260216051Y-153373949D01*
X256260000Y-153560000D02*
X255920000Y-153900000D01*
X260030000Y-153560000D02*
X256260000Y-153560000D01*
X255540000Y-153520000D02*
X255920000Y-153900000D01*
X252040000Y-153520000D02*
X255540000Y-153520000D01*
X249182102Y-153520000D02*
X249046051Y-153383949D01*
X252040000Y-153520000D02*
X249182102Y-153520000D01*
X244540000Y-145430000D02*
X244540000Y-142980000D01*
X245750000Y-146640000D02*
X244540000Y-145430000D01*
X246090000Y-150360000D02*
X246090000Y-151632792D01*
X246941158Y-152483950D02*
X246090000Y-151632792D01*
X248146052Y-152483950D02*
X246941158Y-152483950D01*
X249046051Y-153383949D02*
X248146052Y-152483950D01*
%TO.N,Net-(D17-Pad2)*%
X241940000Y-139590000D02*
X240667208Y-139590000D01*
X240237208Y-139590000D02*
X240667208Y-139590000D01*
X238840000Y-138192792D02*
X240237208Y-139590000D01*
X238840000Y-136920000D02*
X238840000Y-138192792D01*
X237567208Y-136920000D02*
X238840000Y-136920000D01*
X236257208Y-136920000D02*
X237567208Y-136920000D01*
X235250000Y-135912792D02*
X236257208Y-136920000D01*
X235250000Y-134640000D02*
X235250000Y-135912792D01*
X235250000Y-131150000D02*
X235820000Y-130580000D01*
X235250000Y-134640000D02*
X235250000Y-131150000D01*
X235820000Y-128420000D02*
X237470000Y-126770000D01*
X235820000Y-130580000D02*
X235820000Y-128420000D01*
X242730000Y-120510000D02*
X242730000Y-116807000D01*
X248378731Y-119500389D02*
X248378731Y-120773181D01*
X248378731Y-119152729D02*
X248378731Y-119500389D01*
X244804502Y-115578500D02*
X248378731Y-119152729D01*
X243958500Y-115578500D02*
X244804502Y-115578500D01*
X242730000Y-116807000D02*
X243958500Y-115578500D01*
%TO.N,Net-(D25-Pad2)*%
X267240000Y-125390000D02*
X267240000Y-129290000D01*
X269020000Y-123610000D02*
X267240000Y-125390000D01*
X263580295Y-120380000D02*
X263180000Y-120780295D01*
X266400000Y-120380000D02*
X263580295Y-120380000D01*
X260834155Y-120780295D02*
X259571269Y-122043181D01*
X263180000Y-120780295D02*
X260834155Y-120780295D01*
X256566819Y-122043181D02*
X256070000Y-122540000D01*
X259571269Y-122043181D02*
X256566819Y-122043181D01*
X252582478Y-122540000D02*
X252151066Y-122108588D01*
X256070000Y-122540000D02*
X252582478Y-122540000D01*
%TO.N,Net-(IC1-Pad17)*%
X267960501Y-110480501D02*
X268732000Y-111252000D01*
X264948155Y-110480501D02*
X267960501Y-110480501D01*
%TO.N,Net-(IC1-Pad18)*%
X262452000Y-115316000D02*
X264668000Y-113100000D01*
X258318000Y-115316000D02*
X262452000Y-115316000D01*
X254508000Y-111506000D02*
X258318000Y-115316000D01*
X241808000Y-111506000D02*
X254508000Y-111506000D01*
X238520000Y-117750000D02*
X238520000Y-114794000D01*
X238520000Y-114794000D02*
X241808000Y-111506000D01*
%TO.N,Net-(IC1-Pad19)*%
X277800001Y-136329961D02*
X277800001Y-119813999D01*
X268444968Y-145684994D02*
X277800001Y-136329961D01*
X268444968Y-154604911D02*
X268444968Y-145684994D01*
X237460000Y-141210000D02*
X237460000Y-142199949D01*
X237460000Y-142199949D02*
X244308042Y-149047991D01*
X244308042Y-149047991D02*
X244308042Y-154217958D01*
X244308042Y-154217958D02*
X248630095Y-158540011D01*
X248630095Y-158540011D02*
X264509868Y-158540011D01*
X264509868Y-158540011D02*
X268444968Y-154604911D01*
X272286002Y-114300000D02*
X275335001Y-117348999D01*
X269240000Y-114300000D02*
X272286002Y-114300000D01*
X277800001Y-119813999D02*
X275335001Y-117348999D01*
%TO.N,Net-(IC1-Pad20)*%
X272796000Y-116586000D02*
X267081000Y-116586000D01*
X275590000Y-119380000D02*
X272796000Y-116586000D01*
%TD*%
D17*
%TO.N,GND*%
G36*
X280865255Y-118232400D02*
G01*
X280884799Y-142193210D01*
X266597734Y-159425460D01*
X232567309Y-159474022D01*
X232568125Y-157664008D01*
X232615820Y-157689502D01*
X232735518Y-157725812D01*
X232860000Y-157738072D01*
X233424250Y-157735000D01*
X233583000Y-157576250D01*
X233583000Y-156377000D01*
X233563000Y-156377000D01*
X233563000Y-156123000D01*
X233583000Y-156123000D01*
X233583000Y-154923750D01*
X233837000Y-154923750D01*
X233837000Y-156123000D01*
X233857000Y-156123000D01*
X233857000Y-156377000D01*
X233837000Y-156377000D01*
X233837000Y-157576250D01*
X233995750Y-157735000D01*
X234560000Y-157738072D01*
X234684482Y-157725812D01*
X234804180Y-157689502D01*
X234914494Y-157630537D01*
X235011185Y-157551185D01*
X235090537Y-157454494D01*
X235149502Y-157344180D01*
X235170393Y-157275313D01*
X235194866Y-157305134D01*
X235420986Y-157490706D01*
X235678966Y-157628599D01*
X235958889Y-157713513D01*
X236177050Y-157735000D01*
X236322950Y-157735000D01*
X236541111Y-157713513D01*
X236821034Y-157628599D01*
X237079014Y-157490706D01*
X237305134Y-157305134D01*
X237391415Y-157200000D01*
X238211928Y-157200000D01*
X238224188Y-157324482D01*
X238260498Y-157444180D01*
X238319463Y-157554494D01*
X238398815Y-157651185D01*
X238495506Y-157730537D01*
X238605820Y-157789502D01*
X238725518Y-157825812D01*
X238850000Y-157838072D01*
X239414250Y-157835000D01*
X239573000Y-157676250D01*
X239573000Y-156477000D01*
X238373750Y-156477000D01*
X238215000Y-156635750D01*
X238211928Y-157200000D01*
X237391415Y-157200000D01*
X237490706Y-157079014D01*
X237628599Y-156821034D01*
X237713513Y-156541111D01*
X237742185Y-156250000D01*
X237713513Y-155958889D01*
X237628599Y-155678966D01*
X237532940Y-155500000D01*
X238211928Y-155500000D01*
X238215000Y-156064250D01*
X238373750Y-156223000D01*
X239573000Y-156223000D01*
X239573000Y-155023750D01*
X239827000Y-155023750D01*
X239827000Y-156223000D01*
X239847000Y-156223000D01*
X239847000Y-156477000D01*
X239827000Y-156477000D01*
X239827000Y-157676250D01*
X239985750Y-157835000D01*
X240550000Y-157838072D01*
X240674482Y-157825812D01*
X240794180Y-157789502D01*
X240904494Y-157730537D01*
X241001185Y-157651185D01*
X241080537Y-157554494D01*
X241139502Y-157444180D01*
X241160393Y-157375313D01*
X241184866Y-157405134D01*
X241410986Y-157590706D01*
X241668966Y-157728599D01*
X241948889Y-157813513D01*
X242167050Y-157835000D01*
X242312950Y-157835000D01*
X242531111Y-157813513D01*
X242811034Y-157728599D01*
X243069014Y-157590706D01*
X243295134Y-157405134D01*
X243480706Y-157179014D01*
X243618599Y-156921034D01*
X243703513Y-156641111D01*
X243732185Y-156350000D01*
X243703513Y-156058889D01*
X243618599Y-155778966D01*
X243480706Y-155520986D01*
X243295134Y-155294866D01*
X243069014Y-155109294D01*
X242811034Y-154971401D01*
X242531111Y-154886487D01*
X242312950Y-154865000D01*
X242167050Y-154865000D01*
X241948889Y-154886487D01*
X241668966Y-154971401D01*
X241410986Y-155109294D01*
X241184866Y-155294866D01*
X241160393Y-155324687D01*
X241139502Y-155255820D01*
X241080537Y-155145506D01*
X241001185Y-155048815D01*
X240904494Y-154969463D01*
X240794180Y-154910498D01*
X240674482Y-154874188D01*
X240550000Y-154861928D01*
X239985750Y-154865000D01*
X239827000Y-155023750D01*
X239573000Y-155023750D01*
X239414250Y-154865000D01*
X238850000Y-154861928D01*
X238725518Y-154874188D01*
X238605820Y-154910498D01*
X238495506Y-154969463D01*
X238398815Y-155048815D01*
X238319463Y-155145506D01*
X238260498Y-155255820D01*
X238224188Y-155375518D01*
X238211928Y-155500000D01*
X237532940Y-155500000D01*
X237490706Y-155420986D01*
X237305134Y-155194866D01*
X237079014Y-155009294D01*
X236821034Y-154871401D01*
X236541111Y-154786487D01*
X236322950Y-154765000D01*
X236177050Y-154765000D01*
X235958889Y-154786487D01*
X235678966Y-154871401D01*
X235420986Y-155009294D01*
X235194866Y-155194866D01*
X235170393Y-155224687D01*
X235149502Y-155155820D01*
X235090537Y-155045506D01*
X235011185Y-154948815D01*
X234914494Y-154869463D01*
X234804180Y-154810498D01*
X234684482Y-154774188D01*
X234560000Y-154761928D01*
X233995750Y-154765000D01*
X233837000Y-154923750D01*
X233583000Y-154923750D01*
X233424250Y-154765000D01*
X232860000Y-154761928D01*
X232735518Y-154774188D01*
X232615820Y-154810498D01*
X232569401Y-154835310D01*
X232586867Y-116118967D01*
X238695000Y-110338056D01*
X238695000Y-110367486D01*
X238698757Y-110386374D01*
X233372574Y-115712559D01*
X233340710Y-115738709D01*
X233281524Y-115810828D01*
X233236364Y-115865855D01*
X233158828Y-116010914D01*
X233111082Y-116168312D01*
X233094960Y-116332000D01*
X233099001Y-116373028D01*
X233099000Y-118322981D01*
X233094960Y-118364000D01*
X233103932Y-118455093D01*
X233111082Y-118527688D01*
X233158828Y-118685086D01*
X233236364Y-118830145D01*
X233340709Y-118957291D01*
X233372579Y-118983446D01*
X236860564Y-122471433D01*
X236886710Y-122503292D01*
X236918569Y-122529438D01*
X236918571Y-122529440D01*
X236951338Y-122556331D01*
X237013855Y-122607637D01*
X237158914Y-122685173D01*
X237316312Y-122732919D01*
X237438982Y-122745001D01*
X237438983Y-122745001D01*
X237480001Y-122749041D01*
X237521019Y-122745001D01*
X238818573Y-122745001D01*
X238699701Y-122922905D01*
X238583989Y-123202257D01*
X238525000Y-123498816D01*
X238525000Y-123801184D01*
X238583989Y-124097743D01*
X238699701Y-124377095D01*
X238791178Y-124514000D01*
X235669254Y-124514000D01*
X235628246Y-124509961D01*
X235587237Y-124514000D01*
X235587227Y-124514000D01*
X235464557Y-124526082D01*
X235307159Y-124573828D01*
X235162100Y-124651364D01*
X235034955Y-124755709D01*
X235008807Y-124787571D01*
X233288578Y-126507800D01*
X233256708Y-126533955D01*
X233152364Y-126661100D01*
X233152363Y-126661101D01*
X233074827Y-126806160D01*
X233027081Y-126963558D01*
X233010959Y-127127246D01*
X233014999Y-127168264D01*
X233015000Y-135461725D01*
X233010959Y-135502754D01*
X233027081Y-135666442D01*
X233074827Y-135823840D01*
X233152363Y-135968899D01*
X233152364Y-135968900D01*
X233256709Y-136096045D01*
X233288573Y-136122195D01*
X237089017Y-139922640D01*
X237070595Y-139926304D01*
X236827641Y-140026939D01*
X236608987Y-140173038D01*
X236423038Y-140358987D01*
X236276939Y-140577641D01*
X236176304Y-140820595D01*
X236125000Y-141078514D01*
X236125000Y-141341486D01*
X236176304Y-141599405D01*
X236276939Y-141842359D01*
X236423038Y-142061013D01*
X236608987Y-142246962D01*
X236626760Y-142258838D01*
X236637082Y-142363637D01*
X236684828Y-142521035D01*
X236758526Y-142658913D01*
X236762365Y-142666095D01*
X236866710Y-142793240D01*
X236898574Y-142819390D01*
X243473042Y-149393860D01*
X243473043Y-154176930D01*
X243469002Y-154217958D01*
X243485124Y-154381646D01*
X243532870Y-154539044D01*
X243610406Y-154684103D01*
X243626889Y-154704188D01*
X243714752Y-154811249D01*
X243746616Y-154837399D01*
X248010654Y-159101438D01*
X248036804Y-159133302D01*
X248163949Y-159237647D01*
X248309008Y-159315183D01*
X248466406Y-159362929D01*
X248630095Y-159379051D01*
X248671113Y-159375011D01*
X264468850Y-159375011D01*
X264509868Y-159379051D01*
X264550886Y-159375011D01*
X264550887Y-159375011D01*
X264673557Y-159362929D01*
X264830955Y-159315183D01*
X264976014Y-159237647D01*
X265103159Y-159133302D01*
X265129314Y-159101432D01*
X269006401Y-155224347D01*
X269038259Y-155198202D01*
X269064678Y-155166011D01*
X269142604Y-155071057D01*
X269220140Y-154925998D01*
X269223296Y-154915594D01*
X269267886Y-154768600D01*
X269279968Y-154645930D01*
X269279968Y-154645929D01*
X269284008Y-154604911D01*
X269279968Y-154563893D01*
X269279968Y-146030861D01*
X278361434Y-136949397D01*
X278393292Y-136923252D01*
X278429624Y-136878982D01*
X278445252Y-136859938D01*
X278497637Y-136796107D01*
X278575173Y-136651048D01*
X278622919Y-136493650D01*
X278635001Y-136370980D01*
X278635001Y-136370979D01*
X278639041Y-136329961D01*
X278635001Y-136288943D01*
X278635001Y-119855006D01*
X278639040Y-119813998D01*
X278635001Y-119772990D01*
X278635001Y-119772980D01*
X278622919Y-119650310D01*
X278575173Y-119492912D01*
X278497637Y-119347853D01*
X278393292Y-119220708D01*
X278361428Y-119194558D01*
X275954449Y-116787580D01*
X275954440Y-116787569D01*
X272905448Y-113738579D01*
X272879293Y-113706709D01*
X272752148Y-113602364D01*
X272607089Y-113524828D01*
X272449691Y-113477082D01*
X272327021Y-113465000D01*
X272327020Y-113465000D01*
X272286002Y-113460960D01*
X272244984Y-113465000D01*
X270287661Y-113465000D01*
X270276962Y-113448987D01*
X270091013Y-113263038D01*
X269872359Y-113116939D01*
X269629405Y-113016304D01*
X269371486Y-112965000D01*
X269108514Y-112965000D01*
X268850595Y-113016304D01*
X268607641Y-113116939D01*
X268388987Y-113263038D01*
X268203038Y-113448987D01*
X268056939Y-113667641D01*
X267956304Y-113910595D01*
X267905000Y-114168514D01*
X267905000Y-114431486D01*
X267956304Y-114689405D01*
X268056939Y-114932359D01*
X268203038Y-115151013D01*
X268388987Y-115336962D01*
X268607641Y-115483061D01*
X268850595Y-115583696D01*
X269108514Y-115635000D01*
X269371486Y-115635000D01*
X269629405Y-115583696D01*
X269872359Y-115483061D01*
X270091013Y-115336962D01*
X270276962Y-115151013D01*
X270287661Y-115135000D01*
X271940135Y-115135000D01*
X272556134Y-115751000D01*
X268128661Y-115751000D01*
X268117962Y-115734987D01*
X267932013Y-115549038D01*
X267713359Y-115402939D01*
X267470405Y-115302304D01*
X267212486Y-115251000D01*
X266949514Y-115251000D01*
X266691595Y-115302304D01*
X266448641Y-115402939D01*
X266229987Y-115549038D01*
X266044038Y-115734987D01*
X265897939Y-115953641D01*
X265797304Y-116196595D01*
X265746000Y-116454514D01*
X265746000Y-116717486D01*
X265797304Y-116975405D01*
X265897939Y-117218359D01*
X266044038Y-117437013D01*
X266052014Y-117444989D01*
X252991858Y-117444989D01*
X251952446Y-116405578D01*
X251926291Y-116373709D01*
X251799146Y-116269364D01*
X251654087Y-116191828D01*
X251496689Y-116144082D01*
X251374019Y-116132000D01*
X251374018Y-116132000D01*
X251333000Y-116127960D01*
X251291982Y-116132000D01*
X248565000Y-116132000D01*
X248565000Y-115918514D01*
X248513696Y-115660595D01*
X248413061Y-115417641D01*
X248266962Y-115198987D01*
X248081013Y-115013038D01*
X247862359Y-114866939D01*
X247619405Y-114766304D01*
X247361486Y-114715000D01*
X247098514Y-114715000D01*
X246840595Y-114766304D01*
X246597641Y-114866939D01*
X246378987Y-115013038D01*
X246193038Y-115198987D01*
X246046939Y-115417641D01*
X245981791Y-115574922D01*
X245423948Y-115017079D01*
X245397793Y-114985209D01*
X245270648Y-114880864D01*
X245125589Y-114803328D01*
X244968191Y-114755582D01*
X244845521Y-114743500D01*
X244845520Y-114743500D01*
X244804502Y-114739460D01*
X244763484Y-114743500D01*
X243999507Y-114743500D01*
X243958499Y-114739461D01*
X243917491Y-114743500D01*
X243917481Y-114743500D01*
X243794811Y-114755582D01*
X243637413Y-114803328D01*
X243492354Y-114880864D01*
X243365209Y-114985209D01*
X243339058Y-115017074D01*
X242168574Y-116187559D01*
X242136710Y-116213709D01*
X242073295Y-116290981D01*
X242032364Y-116340855D01*
X241954828Y-116485914D01*
X241907082Y-116643312D01*
X241890960Y-116807000D01*
X241895001Y-116848028D01*
X241895000Y-119221801D01*
X241751495Y-119317688D01*
X241537688Y-119531495D01*
X241369701Y-119782905D01*
X241253989Y-120062257D01*
X241195000Y-120358816D01*
X241195000Y-120661184D01*
X241253989Y-120957743D01*
X241302559Y-121075001D01*
X237825870Y-121075001D01*
X234769000Y-118018133D01*
X234769000Y-116677867D01*
X239879626Y-111567243D01*
X239898514Y-111571000D01*
X240161486Y-111571000D01*
X240419405Y-111519696D01*
X240662359Y-111419061D01*
X240818200Y-111314932D01*
X237958574Y-114174559D01*
X237926710Y-114200709D01*
X237900562Y-114232571D01*
X237822364Y-114327855D01*
X237744828Y-114472914D01*
X237697082Y-114630312D01*
X237680960Y-114794000D01*
X237685001Y-114835028D01*
X237685000Y-116702338D01*
X237668987Y-116713038D01*
X237483038Y-116898987D01*
X237336939Y-117117641D01*
X237236304Y-117360595D01*
X237185000Y-117618514D01*
X237185000Y-117881486D01*
X237236304Y-118139405D01*
X237336939Y-118382359D01*
X237483038Y-118601013D01*
X237668987Y-118786962D01*
X237887641Y-118933061D01*
X238130595Y-119033696D01*
X238388514Y-119085000D01*
X238651486Y-119085000D01*
X238909405Y-119033696D01*
X239152359Y-118933061D01*
X239371013Y-118786962D01*
X239556962Y-118601013D01*
X239703061Y-118382359D01*
X239803696Y-118139405D01*
X239855000Y-117881486D01*
X239855000Y-117618514D01*
X239803696Y-117360595D01*
X239703061Y-117117641D01*
X239556962Y-116898987D01*
X239371013Y-116713038D01*
X239355000Y-116702339D01*
X239355000Y-115139867D01*
X242153868Y-112341000D01*
X254162133Y-112341000D01*
X257698563Y-115877432D01*
X257724709Y-115909291D01*
X257756568Y-115935437D01*
X257756570Y-115935439D01*
X257848536Y-116010913D01*
X257851854Y-116013636D01*
X257996913Y-116091172D01*
X258154311Y-116138918D01*
X258276981Y-116151000D01*
X258276982Y-116151000D01*
X258318000Y-116155040D01*
X258359018Y-116151000D01*
X262410982Y-116151000D01*
X262452000Y-116155040D01*
X262493018Y-116151000D01*
X262493019Y-116151000D01*
X262615689Y-116138918D01*
X262773087Y-116091172D01*
X262918146Y-116013636D01*
X263045291Y-115909291D01*
X263071446Y-115877421D01*
X264517625Y-114431243D01*
X264536514Y-114435000D01*
X264799486Y-114435000D01*
X265057405Y-114383696D01*
X265300359Y-114283061D01*
X265519013Y-114136962D01*
X265704962Y-113951013D01*
X265851061Y-113732359D01*
X265951696Y-113489405D01*
X266003000Y-113231486D01*
X266003000Y-112968514D01*
X265951696Y-112710595D01*
X265851061Y-112467641D01*
X265704962Y-112248987D01*
X265519013Y-112063038D01*
X265300359Y-111916939D01*
X265057405Y-111816304D01*
X265053368Y-111815501D01*
X265079641Y-111815501D01*
X265337560Y-111764197D01*
X265580514Y-111663562D01*
X265799168Y-111517463D01*
X265985117Y-111331514D01*
X265995816Y-111315501D01*
X267397000Y-111315501D01*
X267397000Y-111383486D01*
X267448304Y-111641405D01*
X267548939Y-111884359D01*
X267695038Y-112103013D01*
X267880987Y-112288962D01*
X268099641Y-112435061D01*
X268342595Y-112535696D01*
X268600514Y-112587000D01*
X268863486Y-112587000D01*
X269121405Y-112535696D01*
X269364359Y-112435061D01*
X269583013Y-112288962D01*
X269768962Y-112103013D01*
X269915061Y-111884359D01*
X270015696Y-111641405D01*
X270067000Y-111383486D01*
X270067000Y-111120514D01*
X270015696Y-110862595D01*
X269915061Y-110619641D01*
X269768962Y-110400987D01*
X269583013Y-110215038D01*
X269364359Y-110068939D01*
X269121405Y-109968304D01*
X268863486Y-109917000D01*
X268600514Y-109917000D01*
X268581624Y-109920757D01*
X268579947Y-109919080D01*
X268553792Y-109887210D01*
X268426647Y-109782865D01*
X268281588Y-109705329D01*
X268124190Y-109657583D01*
X268001520Y-109645501D01*
X268001519Y-109645501D01*
X267960501Y-109641461D01*
X267919483Y-109645501D01*
X265995816Y-109645501D01*
X265985117Y-109629488D01*
X265799168Y-109443539D01*
X265580514Y-109297440D01*
X265337560Y-109196805D01*
X265079641Y-109145501D01*
X264816669Y-109145501D01*
X264558750Y-109196805D01*
X264315796Y-109297440D01*
X264108744Y-109435787D01*
X264073061Y-109349641D01*
X263926962Y-109130987D01*
X263916421Y-109120446D01*
X264251868Y-108785000D01*
X265144339Y-108785000D01*
X265155038Y-108801013D01*
X265340987Y-108986962D01*
X265559641Y-109133061D01*
X265802595Y-109233696D01*
X266060514Y-109285000D01*
X266323486Y-109285000D01*
X266581405Y-109233696D01*
X266824359Y-109133061D01*
X267043013Y-108986962D01*
X267228962Y-108801013D01*
X267375061Y-108582359D01*
X267475696Y-108339405D01*
X267527000Y-108081486D01*
X267527000Y-107818514D01*
X267475696Y-107560595D01*
X267375061Y-107317641D01*
X267228962Y-107098987D01*
X267043013Y-106913038D01*
X266824359Y-106766939D01*
X266581405Y-106666304D01*
X266323486Y-106615000D01*
X266060514Y-106615000D01*
X265802595Y-106666304D01*
X265559641Y-106766939D01*
X265340987Y-106913038D01*
X265155038Y-107098987D01*
X265144339Y-107115000D01*
X263947018Y-107115000D01*
X263906000Y-107110960D01*
X263864981Y-107115000D01*
X263742311Y-107127082D01*
X263584913Y-107174828D01*
X263439854Y-107252364D01*
X263312709Y-107356709D01*
X263286558Y-107388574D01*
X262328574Y-108346559D01*
X262296710Y-108372709D01*
X262215907Y-108471168D01*
X262192364Y-108499855D01*
X262114828Y-108644914D01*
X262067082Y-108802312D01*
X262054013Y-108934998D01*
X262038987Y-108945038D01*
X261853038Y-109130987D01*
X261706939Y-109349641D01*
X261606304Y-109592595D01*
X261555000Y-109850514D01*
X261555000Y-110113486D01*
X261606304Y-110371405D01*
X261706939Y-110614359D01*
X261853038Y-110833013D01*
X262038987Y-111018962D01*
X262257641Y-111165061D01*
X262500595Y-111265696D01*
X262758514Y-111317000D01*
X263021486Y-111317000D01*
X263279405Y-111265696D01*
X263522359Y-111165061D01*
X263729411Y-111026714D01*
X263765094Y-111112860D01*
X263911193Y-111331514D01*
X264097142Y-111517463D01*
X264315796Y-111663562D01*
X264558750Y-111764197D01*
X264562787Y-111765000D01*
X264536514Y-111765000D01*
X264278595Y-111816304D01*
X264035641Y-111916939D01*
X263816987Y-112063038D01*
X263631038Y-112248987D01*
X263484939Y-112467641D01*
X263384304Y-112710595D01*
X263333000Y-112968514D01*
X263333000Y-113231486D01*
X263336757Y-113250375D01*
X262106133Y-114481000D01*
X258663869Y-114481000D01*
X255127446Y-110944579D01*
X255101291Y-110912709D01*
X254974146Y-110808364D01*
X254829087Y-110730828D01*
X254671689Y-110683082D01*
X254549019Y-110671000D01*
X254549018Y-110671000D01*
X254508000Y-110666960D01*
X254466982Y-110671000D01*
X241849018Y-110671000D01*
X241807999Y-110666960D01*
X241766981Y-110671000D01*
X241644311Y-110683082D01*
X241486913Y-110730828D01*
X241341854Y-110808364D01*
X241214709Y-110912709D01*
X241188559Y-110944573D01*
X241108932Y-111024200D01*
X241213061Y-110868359D01*
X241313696Y-110625405D01*
X241365000Y-110367486D01*
X241365000Y-110104514D01*
X241313696Y-109846595D01*
X241213061Y-109603641D01*
X241066962Y-109384987D01*
X240881013Y-109199038D01*
X240662359Y-109052939D01*
X240419405Y-108952304D01*
X240204383Y-108909533D01*
X246398757Y-103047000D01*
X263395896Y-103047000D01*
X280865255Y-118232400D01*
X280865255Y-118232400D01*
G37*
X280865255Y-118232400D02*
X280884799Y-142193210D01*
X266597734Y-159425460D01*
X232567309Y-159474022D01*
X232568125Y-157664008D01*
X232615820Y-157689502D01*
X232735518Y-157725812D01*
X232860000Y-157738072D01*
X233424250Y-157735000D01*
X233583000Y-157576250D01*
X233583000Y-156377000D01*
X233563000Y-156377000D01*
X233563000Y-156123000D01*
X233583000Y-156123000D01*
X233583000Y-154923750D01*
X233837000Y-154923750D01*
X233837000Y-156123000D01*
X233857000Y-156123000D01*
X233857000Y-156377000D01*
X233837000Y-156377000D01*
X233837000Y-157576250D01*
X233995750Y-157735000D01*
X234560000Y-157738072D01*
X234684482Y-157725812D01*
X234804180Y-157689502D01*
X234914494Y-157630537D01*
X235011185Y-157551185D01*
X235090537Y-157454494D01*
X235149502Y-157344180D01*
X235170393Y-157275313D01*
X235194866Y-157305134D01*
X235420986Y-157490706D01*
X235678966Y-157628599D01*
X235958889Y-157713513D01*
X236177050Y-157735000D01*
X236322950Y-157735000D01*
X236541111Y-157713513D01*
X236821034Y-157628599D01*
X237079014Y-157490706D01*
X237305134Y-157305134D01*
X237391415Y-157200000D01*
X238211928Y-157200000D01*
X238224188Y-157324482D01*
X238260498Y-157444180D01*
X238319463Y-157554494D01*
X238398815Y-157651185D01*
X238495506Y-157730537D01*
X238605820Y-157789502D01*
X238725518Y-157825812D01*
X238850000Y-157838072D01*
X239414250Y-157835000D01*
X239573000Y-157676250D01*
X239573000Y-156477000D01*
X238373750Y-156477000D01*
X238215000Y-156635750D01*
X238211928Y-157200000D01*
X237391415Y-157200000D01*
X237490706Y-157079014D01*
X237628599Y-156821034D01*
X237713513Y-156541111D01*
X237742185Y-156250000D01*
X237713513Y-155958889D01*
X237628599Y-155678966D01*
X237532940Y-155500000D01*
X238211928Y-155500000D01*
X238215000Y-156064250D01*
X238373750Y-156223000D01*
X239573000Y-156223000D01*
X239573000Y-155023750D01*
X239827000Y-155023750D01*
X239827000Y-156223000D01*
X239847000Y-156223000D01*
X239847000Y-156477000D01*
X239827000Y-156477000D01*
X239827000Y-157676250D01*
X239985750Y-157835000D01*
X240550000Y-157838072D01*
X240674482Y-157825812D01*
X240794180Y-157789502D01*
X240904494Y-157730537D01*
X241001185Y-157651185D01*
X241080537Y-157554494D01*
X241139502Y-157444180D01*
X241160393Y-157375313D01*
X241184866Y-157405134D01*
X241410986Y-157590706D01*
X241668966Y-157728599D01*
X241948889Y-157813513D01*
X242167050Y-157835000D01*
X242312950Y-157835000D01*
X242531111Y-157813513D01*
X242811034Y-157728599D01*
X243069014Y-157590706D01*
X243295134Y-157405134D01*
X243480706Y-157179014D01*
X243618599Y-156921034D01*
X243703513Y-156641111D01*
X243732185Y-156350000D01*
X243703513Y-156058889D01*
X243618599Y-155778966D01*
X243480706Y-155520986D01*
X243295134Y-155294866D01*
X243069014Y-155109294D01*
X242811034Y-154971401D01*
X242531111Y-154886487D01*
X242312950Y-154865000D01*
X242167050Y-154865000D01*
X241948889Y-154886487D01*
X241668966Y-154971401D01*
X241410986Y-155109294D01*
X241184866Y-155294866D01*
X241160393Y-155324687D01*
X241139502Y-155255820D01*
X241080537Y-155145506D01*
X241001185Y-155048815D01*
X240904494Y-154969463D01*
X240794180Y-154910498D01*
X240674482Y-154874188D01*
X240550000Y-154861928D01*
X239985750Y-154865000D01*
X239827000Y-155023750D01*
X239573000Y-155023750D01*
X239414250Y-154865000D01*
X238850000Y-154861928D01*
X238725518Y-154874188D01*
X238605820Y-154910498D01*
X238495506Y-154969463D01*
X238398815Y-155048815D01*
X238319463Y-155145506D01*
X238260498Y-155255820D01*
X238224188Y-155375518D01*
X238211928Y-155500000D01*
X237532940Y-155500000D01*
X237490706Y-155420986D01*
X237305134Y-155194866D01*
X237079014Y-155009294D01*
X236821034Y-154871401D01*
X236541111Y-154786487D01*
X236322950Y-154765000D01*
X236177050Y-154765000D01*
X235958889Y-154786487D01*
X235678966Y-154871401D01*
X235420986Y-155009294D01*
X235194866Y-155194866D01*
X235170393Y-155224687D01*
X235149502Y-155155820D01*
X235090537Y-155045506D01*
X235011185Y-154948815D01*
X234914494Y-154869463D01*
X234804180Y-154810498D01*
X234684482Y-154774188D01*
X234560000Y-154761928D01*
X233995750Y-154765000D01*
X233837000Y-154923750D01*
X233583000Y-154923750D01*
X233424250Y-154765000D01*
X232860000Y-154761928D01*
X232735518Y-154774188D01*
X232615820Y-154810498D01*
X232569401Y-154835310D01*
X232586867Y-116118967D01*
X238695000Y-110338056D01*
X238695000Y-110367486D01*
X238698757Y-110386374D01*
X233372574Y-115712559D01*
X233340710Y-115738709D01*
X233281524Y-115810828D01*
X233236364Y-115865855D01*
X233158828Y-116010914D01*
X233111082Y-116168312D01*
X233094960Y-116332000D01*
X233099001Y-116373028D01*
X233099000Y-118322981D01*
X233094960Y-118364000D01*
X233103932Y-118455093D01*
X233111082Y-118527688D01*
X233158828Y-118685086D01*
X233236364Y-118830145D01*
X233340709Y-118957291D01*
X233372579Y-118983446D01*
X236860564Y-122471433D01*
X236886710Y-122503292D01*
X236918569Y-122529438D01*
X236918571Y-122529440D01*
X236951338Y-122556331D01*
X237013855Y-122607637D01*
X237158914Y-122685173D01*
X237316312Y-122732919D01*
X237438982Y-122745001D01*
X237438983Y-122745001D01*
X237480001Y-122749041D01*
X237521019Y-122745001D01*
X238818573Y-122745001D01*
X238699701Y-122922905D01*
X238583989Y-123202257D01*
X238525000Y-123498816D01*
X238525000Y-123801184D01*
X238583989Y-124097743D01*
X238699701Y-124377095D01*
X238791178Y-124514000D01*
X235669254Y-124514000D01*
X235628246Y-124509961D01*
X235587237Y-124514000D01*
X235587227Y-124514000D01*
X235464557Y-124526082D01*
X235307159Y-124573828D01*
X235162100Y-124651364D01*
X235034955Y-124755709D01*
X235008807Y-124787571D01*
X233288578Y-126507800D01*
X233256708Y-126533955D01*
X233152364Y-126661100D01*
X233152363Y-126661101D01*
X233074827Y-126806160D01*
X233027081Y-126963558D01*
X233010959Y-127127246D01*
X233014999Y-127168264D01*
X233015000Y-135461725D01*
X233010959Y-135502754D01*
X233027081Y-135666442D01*
X233074827Y-135823840D01*
X233152363Y-135968899D01*
X233152364Y-135968900D01*
X233256709Y-136096045D01*
X233288573Y-136122195D01*
X237089017Y-139922640D01*
X237070595Y-139926304D01*
X236827641Y-140026939D01*
X236608987Y-140173038D01*
X236423038Y-140358987D01*
X236276939Y-140577641D01*
X236176304Y-140820595D01*
X236125000Y-141078514D01*
X236125000Y-141341486D01*
X236176304Y-141599405D01*
X236276939Y-141842359D01*
X236423038Y-142061013D01*
X236608987Y-142246962D01*
X236626760Y-142258838D01*
X236637082Y-142363637D01*
X236684828Y-142521035D01*
X236758526Y-142658913D01*
X236762365Y-142666095D01*
X236866710Y-142793240D01*
X236898574Y-142819390D01*
X243473042Y-149393860D01*
X243473043Y-154176930D01*
X243469002Y-154217958D01*
X243485124Y-154381646D01*
X243532870Y-154539044D01*
X243610406Y-154684103D01*
X243626889Y-154704188D01*
X243714752Y-154811249D01*
X243746616Y-154837399D01*
X248010654Y-159101438D01*
X248036804Y-159133302D01*
X248163949Y-159237647D01*
X248309008Y-159315183D01*
X248466406Y-159362929D01*
X248630095Y-159379051D01*
X248671113Y-159375011D01*
X264468850Y-159375011D01*
X264509868Y-159379051D01*
X264550886Y-159375011D01*
X264550887Y-159375011D01*
X264673557Y-159362929D01*
X264830955Y-159315183D01*
X264976014Y-159237647D01*
X265103159Y-159133302D01*
X265129314Y-159101432D01*
X269006401Y-155224347D01*
X269038259Y-155198202D01*
X269064678Y-155166011D01*
X269142604Y-155071057D01*
X269220140Y-154925998D01*
X269223296Y-154915594D01*
X269267886Y-154768600D01*
X269279968Y-154645930D01*
X269279968Y-154645929D01*
X269284008Y-154604911D01*
X269279968Y-154563893D01*
X269279968Y-146030861D01*
X278361434Y-136949397D01*
X278393292Y-136923252D01*
X278429624Y-136878982D01*
X278445252Y-136859938D01*
X278497637Y-136796107D01*
X278575173Y-136651048D01*
X278622919Y-136493650D01*
X278635001Y-136370980D01*
X278635001Y-136370979D01*
X278639041Y-136329961D01*
X278635001Y-136288943D01*
X278635001Y-119855006D01*
X278639040Y-119813998D01*
X278635001Y-119772990D01*
X278635001Y-119772980D01*
X278622919Y-119650310D01*
X278575173Y-119492912D01*
X278497637Y-119347853D01*
X278393292Y-119220708D01*
X278361428Y-119194558D01*
X275954449Y-116787580D01*
X275954440Y-116787569D01*
X272905448Y-113738579D01*
X272879293Y-113706709D01*
X272752148Y-113602364D01*
X272607089Y-113524828D01*
X272449691Y-113477082D01*
X272327021Y-113465000D01*
X272327020Y-113465000D01*
X272286002Y-113460960D01*
X272244984Y-113465000D01*
X270287661Y-113465000D01*
X270276962Y-113448987D01*
X270091013Y-113263038D01*
X269872359Y-113116939D01*
X269629405Y-113016304D01*
X269371486Y-112965000D01*
X269108514Y-112965000D01*
X268850595Y-113016304D01*
X268607641Y-113116939D01*
X268388987Y-113263038D01*
X268203038Y-113448987D01*
X268056939Y-113667641D01*
X267956304Y-113910595D01*
X267905000Y-114168514D01*
X267905000Y-114431486D01*
X267956304Y-114689405D01*
X268056939Y-114932359D01*
X268203038Y-115151013D01*
X268388987Y-115336962D01*
X268607641Y-115483061D01*
X268850595Y-115583696D01*
X269108514Y-115635000D01*
X269371486Y-115635000D01*
X269629405Y-115583696D01*
X269872359Y-115483061D01*
X270091013Y-115336962D01*
X270276962Y-115151013D01*
X270287661Y-115135000D01*
X271940135Y-115135000D01*
X272556134Y-115751000D01*
X268128661Y-115751000D01*
X268117962Y-115734987D01*
X267932013Y-115549038D01*
X267713359Y-115402939D01*
X267470405Y-115302304D01*
X267212486Y-115251000D01*
X266949514Y-115251000D01*
X266691595Y-115302304D01*
X266448641Y-115402939D01*
X266229987Y-115549038D01*
X266044038Y-115734987D01*
X265897939Y-115953641D01*
X265797304Y-116196595D01*
X265746000Y-116454514D01*
X265746000Y-116717486D01*
X265797304Y-116975405D01*
X265897939Y-117218359D01*
X266044038Y-117437013D01*
X266052014Y-117444989D01*
X252991858Y-117444989D01*
X251952446Y-116405578D01*
X251926291Y-116373709D01*
X251799146Y-116269364D01*
X251654087Y-116191828D01*
X251496689Y-116144082D01*
X251374019Y-116132000D01*
X251374018Y-116132000D01*
X251333000Y-116127960D01*
X251291982Y-116132000D01*
X248565000Y-116132000D01*
X248565000Y-115918514D01*
X248513696Y-115660595D01*
X248413061Y-115417641D01*
X248266962Y-115198987D01*
X248081013Y-115013038D01*
X247862359Y-114866939D01*
X247619405Y-114766304D01*
X247361486Y-114715000D01*
X247098514Y-114715000D01*
X246840595Y-114766304D01*
X246597641Y-114866939D01*
X246378987Y-115013038D01*
X246193038Y-115198987D01*
X246046939Y-115417641D01*
X245981791Y-115574922D01*
X245423948Y-115017079D01*
X245397793Y-114985209D01*
X245270648Y-114880864D01*
X245125589Y-114803328D01*
X244968191Y-114755582D01*
X244845521Y-114743500D01*
X244845520Y-114743500D01*
X244804502Y-114739460D01*
X244763484Y-114743500D01*
X243999507Y-114743500D01*
X243958499Y-114739461D01*
X243917491Y-114743500D01*
X243917481Y-114743500D01*
X243794811Y-114755582D01*
X243637413Y-114803328D01*
X243492354Y-114880864D01*
X243365209Y-114985209D01*
X243339058Y-115017074D01*
X242168574Y-116187559D01*
X242136710Y-116213709D01*
X242073295Y-116290981D01*
X242032364Y-116340855D01*
X241954828Y-116485914D01*
X241907082Y-116643312D01*
X241890960Y-116807000D01*
X241895001Y-116848028D01*
X241895000Y-119221801D01*
X241751495Y-119317688D01*
X241537688Y-119531495D01*
X241369701Y-119782905D01*
X241253989Y-120062257D01*
X241195000Y-120358816D01*
X241195000Y-120661184D01*
X241253989Y-120957743D01*
X241302559Y-121075001D01*
X237825870Y-121075001D01*
X234769000Y-118018133D01*
X234769000Y-116677867D01*
X239879626Y-111567243D01*
X239898514Y-111571000D01*
X240161486Y-111571000D01*
X240419405Y-111519696D01*
X240662359Y-111419061D01*
X240818200Y-111314932D01*
X237958574Y-114174559D01*
X237926710Y-114200709D01*
X237900562Y-114232571D01*
X237822364Y-114327855D01*
X237744828Y-114472914D01*
X237697082Y-114630312D01*
X237680960Y-114794000D01*
X237685001Y-114835028D01*
X237685000Y-116702338D01*
X237668987Y-116713038D01*
X237483038Y-116898987D01*
X237336939Y-117117641D01*
X237236304Y-117360595D01*
X237185000Y-117618514D01*
X237185000Y-117881486D01*
X237236304Y-118139405D01*
X237336939Y-118382359D01*
X237483038Y-118601013D01*
X237668987Y-118786962D01*
X237887641Y-118933061D01*
X238130595Y-119033696D01*
X238388514Y-119085000D01*
X238651486Y-119085000D01*
X238909405Y-119033696D01*
X239152359Y-118933061D01*
X239371013Y-118786962D01*
X239556962Y-118601013D01*
X239703061Y-118382359D01*
X239803696Y-118139405D01*
X239855000Y-117881486D01*
X239855000Y-117618514D01*
X239803696Y-117360595D01*
X239703061Y-117117641D01*
X239556962Y-116898987D01*
X239371013Y-116713038D01*
X239355000Y-116702339D01*
X239355000Y-115139867D01*
X242153868Y-112341000D01*
X254162133Y-112341000D01*
X257698563Y-115877432D01*
X257724709Y-115909291D01*
X257756568Y-115935437D01*
X257756570Y-115935439D01*
X257848536Y-116010913D01*
X257851854Y-116013636D01*
X257996913Y-116091172D01*
X258154311Y-116138918D01*
X258276981Y-116151000D01*
X258276982Y-116151000D01*
X258318000Y-116155040D01*
X258359018Y-116151000D01*
X262410982Y-116151000D01*
X262452000Y-116155040D01*
X262493018Y-116151000D01*
X262493019Y-116151000D01*
X262615689Y-116138918D01*
X262773087Y-116091172D01*
X262918146Y-116013636D01*
X263045291Y-115909291D01*
X263071446Y-115877421D01*
X264517625Y-114431243D01*
X264536514Y-114435000D01*
X264799486Y-114435000D01*
X265057405Y-114383696D01*
X265300359Y-114283061D01*
X265519013Y-114136962D01*
X265704962Y-113951013D01*
X265851061Y-113732359D01*
X265951696Y-113489405D01*
X266003000Y-113231486D01*
X266003000Y-112968514D01*
X265951696Y-112710595D01*
X265851061Y-112467641D01*
X265704962Y-112248987D01*
X265519013Y-112063038D01*
X265300359Y-111916939D01*
X265057405Y-111816304D01*
X265053368Y-111815501D01*
X265079641Y-111815501D01*
X265337560Y-111764197D01*
X265580514Y-111663562D01*
X265799168Y-111517463D01*
X265985117Y-111331514D01*
X265995816Y-111315501D01*
X267397000Y-111315501D01*
X267397000Y-111383486D01*
X267448304Y-111641405D01*
X267548939Y-111884359D01*
X267695038Y-112103013D01*
X267880987Y-112288962D01*
X268099641Y-112435061D01*
X268342595Y-112535696D01*
X268600514Y-112587000D01*
X268863486Y-112587000D01*
X269121405Y-112535696D01*
X269364359Y-112435061D01*
X269583013Y-112288962D01*
X269768962Y-112103013D01*
X269915061Y-111884359D01*
X270015696Y-111641405D01*
X270067000Y-111383486D01*
X270067000Y-111120514D01*
X270015696Y-110862595D01*
X269915061Y-110619641D01*
X269768962Y-110400987D01*
X269583013Y-110215038D01*
X269364359Y-110068939D01*
X269121405Y-109968304D01*
X268863486Y-109917000D01*
X268600514Y-109917000D01*
X268581624Y-109920757D01*
X268579947Y-109919080D01*
X268553792Y-109887210D01*
X268426647Y-109782865D01*
X268281588Y-109705329D01*
X268124190Y-109657583D01*
X268001520Y-109645501D01*
X268001519Y-109645501D01*
X267960501Y-109641461D01*
X267919483Y-109645501D01*
X265995816Y-109645501D01*
X265985117Y-109629488D01*
X265799168Y-109443539D01*
X265580514Y-109297440D01*
X265337560Y-109196805D01*
X265079641Y-109145501D01*
X264816669Y-109145501D01*
X264558750Y-109196805D01*
X264315796Y-109297440D01*
X264108744Y-109435787D01*
X264073061Y-109349641D01*
X263926962Y-109130987D01*
X263916421Y-109120446D01*
X264251868Y-108785000D01*
X265144339Y-108785000D01*
X265155038Y-108801013D01*
X265340987Y-108986962D01*
X265559641Y-109133061D01*
X265802595Y-109233696D01*
X266060514Y-109285000D01*
X266323486Y-109285000D01*
X266581405Y-109233696D01*
X266824359Y-109133061D01*
X267043013Y-108986962D01*
X267228962Y-108801013D01*
X267375061Y-108582359D01*
X267475696Y-108339405D01*
X267527000Y-108081486D01*
X267527000Y-107818514D01*
X267475696Y-107560595D01*
X267375061Y-107317641D01*
X267228962Y-107098987D01*
X267043013Y-106913038D01*
X266824359Y-106766939D01*
X266581405Y-106666304D01*
X266323486Y-106615000D01*
X266060514Y-106615000D01*
X265802595Y-106666304D01*
X265559641Y-106766939D01*
X265340987Y-106913038D01*
X265155038Y-107098987D01*
X265144339Y-107115000D01*
X263947018Y-107115000D01*
X263906000Y-107110960D01*
X263864981Y-107115000D01*
X263742311Y-107127082D01*
X263584913Y-107174828D01*
X263439854Y-107252364D01*
X263312709Y-107356709D01*
X263286558Y-107388574D01*
X262328574Y-108346559D01*
X262296710Y-108372709D01*
X262215907Y-108471168D01*
X262192364Y-108499855D01*
X262114828Y-108644914D01*
X262067082Y-108802312D01*
X262054013Y-108934998D01*
X262038987Y-108945038D01*
X261853038Y-109130987D01*
X261706939Y-109349641D01*
X261606304Y-109592595D01*
X261555000Y-109850514D01*
X261555000Y-110113486D01*
X261606304Y-110371405D01*
X261706939Y-110614359D01*
X261853038Y-110833013D01*
X262038987Y-111018962D01*
X262257641Y-111165061D01*
X262500595Y-111265696D01*
X262758514Y-111317000D01*
X263021486Y-111317000D01*
X263279405Y-111265696D01*
X263522359Y-111165061D01*
X263729411Y-111026714D01*
X263765094Y-111112860D01*
X263911193Y-111331514D01*
X264097142Y-111517463D01*
X264315796Y-111663562D01*
X264558750Y-111764197D01*
X264562787Y-111765000D01*
X264536514Y-111765000D01*
X264278595Y-111816304D01*
X264035641Y-111916939D01*
X263816987Y-112063038D01*
X263631038Y-112248987D01*
X263484939Y-112467641D01*
X263384304Y-112710595D01*
X263333000Y-112968514D01*
X263333000Y-113231486D01*
X263336757Y-113250375D01*
X262106133Y-114481000D01*
X258663869Y-114481000D01*
X255127446Y-110944579D01*
X255101291Y-110912709D01*
X254974146Y-110808364D01*
X254829087Y-110730828D01*
X254671689Y-110683082D01*
X254549019Y-110671000D01*
X254549018Y-110671000D01*
X254508000Y-110666960D01*
X254466982Y-110671000D01*
X241849018Y-110671000D01*
X241807999Y-110666960D01*
X241766981Y-110671000D01*
X241644311Y-110683082D01*
X241486913Y-110730828D01*
X241341854Y-110808364D01*
X241214709Y-110912709D01*
X241188559Y-110944573D01*
X241108932Y-111024200D01*
X241213061Y-110868359D01*
X241313696Y-110625405D01*
X241365000Y-110367486D01*
X241365000Y-110104514D01*
X241313696Y-109846595D01*
X241213061Y-109603641D01*
X241066962Y-109384987D01*
X240881013Y-109199038D01*
X240662359Y-109052939D01*
X240419405Y-108952304D01*
X240204383Y-108909533D01*
X246398757Y-103047000D01*
X263395896Y-103047000D01*
X280865255Y-118232400D01*
G36*
X254498501Y-149755471D02*
G01*
X254494460Y-149796500D01*
X254510582Y-149960188D01*
X254558328Y-150117586D01*
X254607092Y-150208816D01*
X254635865Y-150262646D01*
X254740210Y-150389791D01*
X254772074Y-150415941D01*
X256891507Y-152535375D01*
X256917657Y-152567239D01*
X257044802Y-152671584D01*
X257144736Y-152725000D01*
X256915817Y-152725000D01*
X256898505Y-152707688D01*
X256647095Y-152539701D01*
X256367743Y-152423989D01*
X256071184Y-152365000D01*
X255768816Y-152365000D01*
X255472257Y-152423989D01*
X255192905Y-152539701D01*
X254975450Y-152685000D01*
X253195817Y-152685000D01*
X253008505Y-152497688D01*
X252757095Y-152329701D01*
X252477743Y-152213989D01*
X252181184Y-152155000D01*
X251878816Y-152155000D01*
X251582257Y-152213989D01*
X251302905Y-152329701D01*
X251051495Y-152497688D01*
X250864183Y-152685000D01*
X250418009Y-152685000D01*
X250406350Y-152656854D01*
X250238363Y-152405444D01*
X250024556Y-152191637D01*
X249773146Y-152023650D01*
X249493794Y-151907938D01*
X249444194Y-151898072D01*
X249530000Y-151898072D01*
X249654482Y-151885812D01*
X249774180Y-151849502D01*
X249884494Y-151790537D01*
X249981185Y-151711185D01*
X250060537Y-151614494D01*
X250119502Y-151504180D01*
X250155812Y-151384482D01*
X250168072Y-151260000D01*
X250168072Y-149460000D01*
X250155812Y-149335518D01*
X250119502Y-149215820D01*
X250060537Y-149105506D01*
X249981185Y-149008815D01*
X249884494Y-148929463D01*
X249774180Y-148870498D01*
X249654482Y-148834188D01*
X249530000Y-148821928D01*
X248272795Y-148821928D01*
X247849445Y-148398578D01*
X247823290Y-148366708D01*
X247696145Y-148262363D01*
X247551086Y-148184827D01*
X247528818Y-148178072D01*
X249190000Y-148178072D01*
X249314482Y-148165812D01*
X249434180Y-148129502D01*
X249544494Y-148070537D01*
X249641185Y-147991185D01*
X249720537Y-147894494D01*
X249779502Y-147784180D01*
X249815812Y-147664482D01*
X249828072Y-147540000D01*
X249828072Y-145740000D01*
X249815812Y-145615518D01*
X249779502Y-145495820D01*
X249720537Y-145385506D01*
X249641185Y-145288815D01*
X249544494Y-145209463D01*
X249434180Y-145150498D01*
X249314482Y-145114188D01*
X249190000Y-145101928D01*
X249125000Y-145101928D01*
X249125000Y-144866867D01*
X251436625Y-142555243D01*
X251455514Y-142559000D01*
X251718486Y-142559000D01*
X251976405Y-142507696D01*
X252219359Y-142407061D01*
X252438013Y-142260962D01*
X252623962Y-142075013D01*
X252770061Y-141856359D01*
X252870696Y-141613405D01*
X252922000Y-141355486D01*
X252922000Y-141092514D01*
X252870696Y-140834595D01*
X252770061Y-140591641D01*
X252658716Y-140425000D01*
X254498500Y-140425000D01*
X254498501Y-149755471D01*
X254498501Y-149755471D01*
G37*
X254498501Y-149755471D02*
X254494460Y-149796500D01*
X254510582Y-149960188D01*
X254558328Y-150117586D01*
X254607092Y-150208816D01*
X254635865Y-150262646D01*
X254740210Y-150389791D01*
X254772074Y-150415941D01*
X256891507Y-152535375D01*
X256917657Y-152567239D01*
X257044802Y-152671584D01*
X257144736Y-152725000D01*
X256915817Y-152725000D01*
X256898505Y-152707688D01*
X256647095Y-152539701D01*
X256367743Y-152423989D01*
X256071184Y-152365000D01*
X255768816Y-152365000D01*
X255472257Y-152423989D01*
X255192905Y-152539701D01*
X254975450Y-152685000D01*
X253195817Y-152685000D01*
X253008505Y-152497688D01*
X252757095Y-152329701D01*
X252477743Y-152213989D01*
X252181184Y-152155000D01*
X251878816Y-152155000D01*
X251582257Y-152213989D01*
X251302905Y-152329701D01*
X251051495Y-152497688D01*
X250864183Y-152685000D01*
X250418009Y-152685000D01*
X250406350Y-152656854D01*
X250238363Y-152405444D01*
X250024556Y-152191637D01*
X249773146Y-152023650D01*
X249493794Y-151907938D01*
X249444194Y-151898072D01*
X249530000Y-151898072D01*
X249654482Y-151885812D01*
X249774180Y-151849502D01*
X249884494Y-151790537D01*
X249981185Y-151711185D01*
X250060537Y-151614494D01*
X250119502Y-151504180D01*
X250155812Y-151384482D01*
X250168072Y-151260000D01*
X250168072Y-149460000D01*
X250155812Y-149335518D01*
X250119502Y-149215820D01*
X250060537Y-149105506D01*
X249981185Y-149008815D01*
X249884494Y-148929463D01*
X249774180Y-148870498D01*
X249654482Y-148834188D01*
X249530000Y-148821928D01*
X248272795Y-148821928D01*
X247849445Y-148398578D01*
X247823290Y-148366708D01*
X247696145Y-148262363D01*
X247551086Y-148184827D01*
X247528818Y-148178072D01*
X249190000Y-148178072D01*
X249314482Y-148165812D01*
X249434180Y-148129502D01*
X249544494Y-148070537D01*
X249641185Y-147991185D01*
X249720537Y-147894494D01*
X249779502Y-147784180D01*
X249815812Y-147664482D01*
X249828072Y-147540000D01*
X249828072Y-145740000D01*
X249815812Y-145615518D01*
X249779502Y-145495820D01*
X249720537Y-145385506D01*
X249641185Y-145288815D01*
X249544494Y-145209463D01*
X249434180Y-145150498D01*
X249314482Y-145114188D01*
X249190000Y-145101928D01*
X249125000Y-145101928D01*
X249125000Y-144866867D01*
X251436625Y-142555243D01*
X251455514Y-142559000D01*
X251718486Y-142559000D01*
X251976405Y-142507696D01*
X252219359Y-142407061D01*
X252438013Y-142260962D01*
X252623962Y-142075013D01*
X252770061Y-141856359D01*
X252870696Y-141613405D01*
X252922000Y-141355486D01*
X252922000Y-141092514D01*
X252870696Y-140834595D01*
X252770061Y-140591641D01*
X252658716Y-140425000D01*
X254498500Y-140425000D01*
X254498501Y-149755471D01*
G36*
X261987688Y-121758800D02*
G01*
X262201495Y-121972607D01*
X262452905Y-122140594D01*
X262723301Y-122252596D01*
X262714360Y-122262143D01*
X262648308Y-122368365D01*
X262604247Y-122485432D01*
X262583871Y-122608845D01*
X262587964Y-122733862D01*
X262616367Y-122855678D01*
X262667990Y-122969613D01*
X263567990Y-124528459D01*
X263640849Y-124630133D01*
X263732143Y-124715640D01*
X263773650Y-124741450D01*
X262963574Y-125551527D01*
X262931710Y-125577677D01*
X262905562Y-125609539D01*
X262827364Y-125704823D01*
X262749828Y-125849882D01*
X262702082Y-126007280D01*
X262685960Y-126170968D01*
X262690001Y-126211996D01*
X262690000Y-132302338D01*
X262673987Y-132313038D01*
X262488038Y-132498987D01*
X262341939Y-132717641D01*
X262241304Y-132960595D01*
X262190000Y-133218514D01*
X262190000Y-133481486D01*
X262241304Y-133739405D01*
X262341939Y-133982359D01*
X262488038Y-134201013D01*
X262673987Y-134386962D01*
X262892641Y-134533061D01*
X263135595Y-134633696D01*
X263393514Y-134685000D01*
X263656486Y-134685000D01*
X263675375Y-134681243D01*
X265110311Y-136116179D01*
X265142363Y-136176144D01*
X265246708Y-136303290D01*
X265278578Y-136329445D01*
X266998227Y-138049095D01*
X266722257Y-138103989D01*
X266442905Y-138219701D01*
X266191495Y-138387688D01*
X265977688Y-138601495D01*
X265809701Y-138852905D01*
X265693989Y-139132257D01*
X265635000Y-139428816D01*
X265635000Y-139731184D01*
X265668671Y-139900461D01*
X265446925Y-140122208D01*
X265351018Y-140122208D01*
X265309999Y-140118168D01*
X265268981Y-140122208D01*
X265146311Y-140134290D01*
X264988913Y-140182036D01*
X264843854Y-140259572D01*
X264716709Y-140363917D01*
X264690561Y-140395779D01*
X264008574Y-141077767D01*
X263976710Y-141103917D01*
X263923313Y-141168982D01*
X263872364Y-141231063D01*
X263794828Y-141376122D01*
X263747082Y-141533520D01*
X263732300Y-141683605D01*
X263591495Y-141777688D01*
X263377688Y-141991495D01*
X263209701Y-142242905D01*
X263093989Y-142522257D01*
X263035000Y-142818816D01*
X263035000Y-143121184D01*
X263068671Y-143290461D01*
X262758574Y-143600559D01*
X262726710Y-143626709D01*
X262681367Y-143681960D01*
X262622364Y-143753855D01*
X262544828Y-143898914D01*
X262497082Y-144056312D01*
X262480960Y-144220000D01*
X262485001Y-144261028D01*
X262485001Y-145371801D01*
X262341495Y-145467688D01*
X262127688Y-145681495D01*
X261959701Y-145932905D01*
X261843989Y-146212257D01*
X261785000Y-146508816D01*
X261785000Y-146811184D01*
X261818671Y-146980462D01*
X261548575Y-147250558D01*
X261516711Y-147276708D01*
X261435908Y-147375167D01*
X261412365Y-147403854D01*
X261334829Y-147548913D01*
X261287083Y-147706311D01*
X261270961Y-147869999D01*
X261275002Y-147911027D01*
X261275001Y-149508982D01*
X261270961Y-149550001D01*
X261275001Y-149591019D01*
X261287083Y-149713689D01*
X261334829Y-149871087D01*
X261412365Y-150016146D01*
X261508038Y-150132724D01*
X261475000Y-150298816D01*
X261475000Y-150601184D01*
X261533989Y-150897743D01*
X261633900Y-151138948D01*
X257856816Y-151138948D01*
X257720567Y-151002699D01*
X257720830Y-151002590D01*
X257939484Y-150856491D01*
X258125433Y-150670542D01*
X258271532Y-150451888D01*
X258372167Y-150208934D01*
X258423471Y-149951015D01*
X258423471Y-149688043D01*
X258372167Y-149430124D01*
X258271532Y-149187170D01*
X258125433Y-148968516D01*
X257939484Y-148782567D01*
X257720830Y-148636468D01*
X257477876Y-148535833D01*
X257219957Y-148484529D01*
X256956985Y-148484529D01*
X256938096Y-148488286D01*
X256905000Y-148455191D01*
X256905000Y-126618072D01*
X256970000Y-126618072D01*
X257094482Y-126605812D01*
X257214180Y-126569502D01*
X257324494Y-126510537D01*
X257421185Y-126431185D01*
X257500537Y-126334494D01*
X257559502Y-126224180D01*
X257595812Y-126104482D01*
X257608072Y-125980000D01*
X257608072Y-124180000D01*
X257595812Y-124055518D01*
X257559502Y-123935820D01*
X257500537Y-123825506D01*
X257421185Y-123728815D01*
X257324494Y-123649463D01*
X257214180Y-123590498D01*
X257195873Y-123584944D01*
X257262312Y-123518505D01*
X257430299Y-123267095D01*
X257546011Y-122987743D01*
X257567804Y-122878181D01*
X258283070Y-122878181D01*
X258378957Y-123021686D01*
X258592764Y-123235493D01*
X258844174Y-123403480D01*
X258867009Y-123412939D01*
X258855384Y-123421659D01*
X258771889Y-123514797D01*
X258708169Y-123622434D01*
X258666673Y-123740434D01*
X258648994Y-123864263D01*
X258655813Y-123989161D01*
X258686867Y-124110328D01*
X259302503Y-125801774D01*
X259356600Y-125914556D01*
X259431659Y-126014616D01*
X259524797Y-126098111D01*
X259605000Y-126145590D01*
X259605001Y-131948972D01*
X259605000Y-131948982D01*
X259605001Y-133422131D01*
X259442233Y-133584899D01*
X259211486Y-133539000D01*
X258948514Y-133539000D01*
X258690595Y-133590304D01*
X258447641Y-133690939D01*
X258228987Y-133837038D01*
X258043038Y-134022987D01*
X257896939Y-134241641D01*
X257796304Y-134484595D01*
X257745000Y-134742514D01*
X257745000Y-135005486D01*
X257796304Y-135263405D01*
X257896939Y-135506359D01*
X258043038Y-135725013D01*
X258228987Y-135910962D01*
X258447641Y-136057061D01*
X258690595Y-136157696D01*
X258948514Y-136209000D01*
X259211486Y-136209000D01*
X259469405Y-136157696D01*
X259712359Y-136057061D01*
X259931013Y-135910962D01*
X260116962Y-135725013D01*
X260263061Y-135506359D01*
X260363696Y-135263405D01*
X260415000Y-135005486D01*
X260415000Y-134973867D01*
X261001426Y-134387442D01*
X261033291Y-134361291D01*
X261137636Y-134234146D01*
X261215172Y-134089087D01*
X261262918Y-133931689D01*
X261275000Y-133809019D01*
X261279040Y-133768001D01*
X261275000Y-133726982D01*
X261275000Y-125762867D01*
X261811774Y-125567497D01*
X261924556Y-125513400D01*
X262024616Y-125438341D01*
X262108111Y-125345203D01*
X262171831Y-125237566D01*
X262213327Y-125119566D01*
X262231006Y-124995737D01*
X262224187Y-124870839D01*
X262193133Y-124749672D01*
X261577497Y-123058226D01*
X261523400Y-122945444D01*
X261448341Y-122845384D01*
X261355203Y-122761889D01*
X261247566Y-122698169D01*
X261129566Y-122656673D01*
X261005737Y-122638994D01*
X260985489Y-122640099D01*
X261047280Y-122490924D01*
X261106269Y-122194365D01*
X261106269Y-121891997D01*
X261072598Y-121722720D01*
X261180024Y-121615295D01*
X261891801Y-121615295D01*
X261987688Y-121758800D01*
X261987688Y-121758800D01*
G37*
X261987688Y-121758800D02*
X262201495Y-121972607D01*
X262452905Y-122140594D01*
X262723301Y-122252596D01*
X262714360Y-122262143D01*
X262648308Y-122368365D01*
X262604247Y-122485432D01*
X262583871Y-122608845D01*
X262587964Y-122733862D01*
X262616367Y-122855678D01*
X262667990Y-122969613D01*
X263567990Y-124528459D01*
X263640849Y-124630133D01*
X263732143Y-124715640D01*
X263773650Y-124741450D01*
X262963574Y-125551527D01*
X262931710Y-125577677D01*
X262905562Y-125609539D01*
X262827364Y-125704823D01*
X262749828Y-125849882D01*
X262702082Y-126007280D01*
X262685960Y-126170968D01*
X262690001Y-126211996D01*
X262690000Y-132302338D01*
X262673987Y-132313038D01*
X262488038Y-132498987D01*
X262341939Y-132717641D01*
X262241304Y-132960595D01*
X262190000Y-133218514D01*
X262190000Y-133481486D01*
X262241304Y-133739405D01*
X262341939Y-133982359D01*
X262488038Y-134201013D01*
X262673987Y-134386962D01*
X262892641Y-134533061D01*
X263135595Y-134633696D01*
X263393514Y-134685000D01*
X263656486Y-134685000D01*
X263675375Y-134681243D01*
X265110311Y-136116179D01*
X265142363Y-136176144D01*
X265246708Y-136303290D01*
X265278578Y-136329445D01*
X266998227Y-138049095D01*
X266722257Y-138103989D01*
X266442905Y-138219701D01*
X266191495Y-138387688D01*
X265977688Y-138601495D01*
X265809701Y-138852905D01*
X265693989Y-139132257D01*
X265635000Y-139428816D01*
X265635000Y-139731184D01*
X265668671Y-139900461D01*
X265446925Y-140122208D01*
X265351018Y-140122208D01*
X265309999Y-140118168D01*
X265268981Y-140122208D01*
X265146311Y-140134290D01*
X264988913Y-140182036D01*
X264843854Y-140259572D01*
X264716709Y-140363917D01*
X264690561Y-140395779D01*
X264008574Y-141077767D01*
X263976710Y-141103917D01*
X263923313Y-141168982D01*
X263872364Y-141231063D01*
X263794828Y-141376122D01*
X263747082Y-141533520D01*
X263732300Y-141683605D01*
X263591495Y-141777688D01*
X263377688Y-141991495D01*
X263209701Y-142242905D01*
X263093989Y-142522257D01*
X263035000Y-142818816D01*
X263035000Y-143121184D01*
X263068671Y-143290461D01*
X262758574Y-143600559D01*
X262726710Y-143626709D01*
X262681367Y-143681960D01*
X262622364Y-143753855D01*
X262544828Y-143898914D01*
X262497082Y-144056312D01*
X262480960Y-144220000D01*
X262485001Y-144261028D01*
X262485001Y-145371801D01*
X262341495Y-145467688D01*
X262127688Y-145681495D01*
X261959701Y-145932905D01*
X261843989Y-146212257D01*
X261785000Y-146508816D01*
X261785000Y-146811184D01*
X261818671Y-146980462D01*
X261548575Y-147250558D01*
X261516711Y-147276708D01*
X261435908Y-147375167D01*
X261412365Y-147403854D01*
X261334829Y-147548913D01*
X261287083Y-147706311D01*
X261270961Y-147869999D01*
X261275002Y-147911027D01*
X261275001Y-149508982D01*
X261270961Y-149550001D01*
X261275001Y-149591019D01*
X261287083Y-149713689D01*
X261334829Y-149871087D01*
X261412365Y-150016146D01*
X261508038Y-150132724D01*
X261475000Y-150298816D01*
X261475000Y-150601184D01*
X261533989Y-150897743D01*
X261633900Y-151138948D01*
X257856816Y-151138948D01*
X257720567Y-151002699D01*
X257720830Y-151002590D01*
X257939484Y-150856491D01*
X258125433Y-150670542D01*
X258271532Y-150451888D01*
X258372167Y-150208934D01*
X258423471Y-149951015D01*
X258423471Y-149688043D01*
X258372167Y-149430124D01*
X258271532Y-149187170D01*
X258125433Y-148968516D01*
X257939484Y-148782567D01*
X257720830Y-148636468D01*
X257477876Y-148535833D01*
X257219957Y-148484529D01*
X256956985Y-148484529D01*
X256938096Y-148488286D01*
X256905000Y-148455191D01*
X256905000Y-126618072D01*
X256970000Y-126618072D01*
X257094482Y-126605812D01*
X257214180Y-126569502D01*
X257324494Y-126510537D01*
X257421185Y-126431185D01*
X257500537Y-126334494D01*
X257559502Y-126224180D01*
X257595812Y-126104482D01*
X257608072Y-125980000D01*
X257608072Y-124180000D01*
X257595812Y-124055518D01*
X257559502Y-123935820D01*
X257500537Y-123825506D01*
X257421185Y-123728815D01*
X257324494Y-123649463D01*
X257214180Y-123590498D01*
X257195873Y-123584944D01*
X257262312Y-123518505D01*
X257430299Y-123267095D01*
X257546011Y-122987743D01*
X257567804Y-122878181D01*
X258283070Y-122878181D01*
X258378957Y-123021686D01*
X258592764Y-123235493D01*
X258844174Y-123403480D01*
X258867009Y-123412939D01*
X258855384Y-123421659D01*
X258771889Y-123514797D01*
X258708169Y-123622434D01*
X258666673Y-123740434D01*
X258648994Y-123864263D01*
X258655813Y-123989161D01*
X258686867Y-124110328D01*
X259302503Y-125801774D01*
X259356600Y-125914556D01*
X259431659Y-126014616D01*
X259524797Y-126098111D01*
X259605000Y-126145590D01*
X259605001Y-131948972D01*
X259605000Y-131948982D01*
X259605001Y-133422131D01*
X259442233Y-133584899D01*
X259211486Y-133539000D01*
X258948514Y-133539000D01*
X258690595Y-133590304D01*
X258447641Y-133690939D01*
X258228987Y-133837038D01*
X258043038Y-134022987D01*
X257896939Y-134241641D01*
X257796304Y-134484595D01*
X257745000Y-134742514D01*
X257745000Y-135005486D01*
X257796304Y-135263405D01*
X257896939Y-135506359D01*
X258043038Y-135725013D01*
X258228987Y-135910962D01*
X258447641Y-136057061D01*
X258690595Y-136157696D01*
X258948514Y-136209000D01*
X259211486Y-136209000D01*
X259469405Y-136157696D01*
X259712359Y-136057061D01*
X259931013Y-135910962D01*
X260116962Y-135725013D01*
X260263061Y-135506359D01*
X260363696Y-135263405D01*
X260415000Y-135005486D01*
X260415000Y-134973867D01*
X261001426Y-134387442D01*
X261033291Y-134361291D01*
X261137636Y-134234146D01*
X261215172Y-134089087D01*
X261262918Y-133931689D01*
X261275000Y-133809019D01*
X261279040Y-133768001D01*
X261275000Y-133726982D01*
X261275000Y-125762867D01*
X261811774Y-125567497D01*
X261924556Y-125513400D01*
X262024616Y-125438341D01*
X262108111Y-125345203D01*
X262171831Y-125237566D01*
X262213327Y-125119566D01*
X262231006Y-124995737D01*
X262224187Y-124870839D01*
X262193133Y-124749672D01*
X261577497Y-123058226D01*
X261523400Y-122945444D01*
X261448341Y-122845384D01*
X261355203Y-122761889D01*
X261247566Y-122698169D01*
X261129566Y-122656673D01*
X261005737Y-122638994D01*
X260985489Y-122640099D01*
X261047280Y-122490924D01*
X261106269Y-122194365D01*
X261106269Y-121891997D01*
X261072598Y-121722720D01*
X261180024Y-121615295D01*
X261891801Y-121615295D01*
X261987688Y-121758800D01*
G36*
X250039012Y-125229244D02*
G01*
X250029470Y-125353964D01*
X250044443Y-125478148D01*
X250083355Y-125597026D01*
X250144712Y-125706027D01*
X250226155Y-125800964D01*
X250324554Y-125878189D01*
X250436129Y-125934732D01*
X250556590Y-125968422D01*
X252172478Y-126253346D01*
X254498501Y-128579370D01*
X254498500Y-138755000D01*
X246018072Y-138755000D01*
X246018072Y-138690000D01*
X246005812Y-138565518D01*
X245969502Y-138445820D01*
X245910537Y-138335506D01*
X245831185Y-138238815D01*
X245734494Y-138159463D01*
X245624180Y-138100498D01*
X245504482Y-138064188D01*
X245380000Y-138051928D01*
X243580000Y-138051928D01*
X243455518Y-138064188D01*
X243335820Y-138100498D01*
X243225506Y-138159463D01*
X243128815Y-138238815D01*
X243049463Y-138335506D01*
X242990498Y-138445820D01*
X242984944Y-138464127D01*
X242918505Y-138397688D01*
X242730285Y-138271923D01*
X242731185Y-138271185D01*
X242810537Y-138174494D01*
X242869502Y-138064180D01*
X242905812Y-137944482D01*
X242918072Y-137820000D01*
X242918072Y-137755000D01*
X246832982Y-137755000D01*
X246874000Y-137759040D01*
X246915018Y-137755000D01*
X246915019Y-137755000D01*
X247037689Y-137742918D01*
X247195087Y-137695172D01*
X247340146Y-137617636D01*
X247467291Y-137513291D01*
X247493445Y-137481422D01*
X248142439Y-136832430D01*
X248142448Y-136832419D01*
X251063439Y-133911430D01*
X251063448Y-133911419D01*
X252615679Y-132359189D01*
X252634568Y-132362946D01*
X252897540Y-132362946D01*
X253155459Y-132311642D01*
X253398413Y-132211007D01*
X253617067Y-132064908D01*
X253803016Y-131878959D01*
X253949115Y-131660305D01*
X254049750Y-131417351D01*
X254101054Y-131159432D01*
X254101054Y-130896460D01*
X254049750Y-130638541D01*
X253949115Y-130395587D01*
X253803016Y-130176933D01*
X253617067Y-129990984D01*
X253398413Y-129844885D01*
X253155459Y-129744250D01*
X252897540Y-129692946D01*
X252634568Y-129692946D01*
X252376649Y-129744250D01*
X252133695Y-129844885D01*
X251915041Y-129990984D01*
X251729092Y-130176933D01*
X251582993Y-130395587D01*
X251482358Y-130638541D01*
X251431054Y-130896460D01*
X251431054Y-131159432D01*
X251434811Y-131178321D01*
X251017000Y-131596132D01*
X251017000Y-131567514D01*
X250965696Y-131309595D01*
X250865061Y-131066641D01*
X250718962Y-130847987D01*
X250533013Y-130662038D01*
X250314359Y-130515939D01*
X250071405Y-130415304D01*
X249813486Y-130364000D01*
X249550514Y-130364000D01*
X249292595Y-130415304D01*
X249049641Y-130515939D01*
X248830987Y-130662038D01*
X248645038Y-130847987D01*
X248498939Y-131066641D01*
X248398304Y-131309595D01*
X248347000Y-131567514D01*
X248347000Y-131830486D01*
X248350757Y-131849375D01*
X246395133Y-133805000D01*
X239328072Y-133805000D01*
X239328072Y-133740000D01*
X239315812Y-133615518D01*
X239279502Y-133495820D01*
X239220537Y-133385506D01*
X239141185Y-133288815D01*
X239044494Y-133209463D01*
X238934180Y-133150498D01*
X238814482Y-133114188D01*
X238690000Y-133101928D01*
X236890000Y-133101928D01*
X236765518Y-133114188D01*
X236645820Y-133150498D01*
X236535506Y-133209463D01*
X236438815Y-133288815D01*
X236359463Y-133385506D01*
X236300498Y-133495820D01*
X236294944Y-133514127D01*
X236228505Y-133447688D01*
X236085000Y-133351801D01*
X236085000Y-132092361D01*
X236267743Y-132056011D01*
X236547095Y-131940299D01*
X236798505Y-131772312D01*
X236864944Y-131705873D01*
X236870498Y-131724180D01*
X236929463Y-131834494D01*
X237008815Y-131931185D01*
X237105506Y-132010537D01*
X237215820Y-132069502D01*
X237335518Y-132105812D01*
X237460000Y-132118072D01*
X239260000Y-132118072D01*
X239384482Y-132105812D01*
X239504180Y-132069502D01*
X239614494Y-132010537D01*
X239711185Y-131931185D01*
X239790537Y-131834494D01*
X239849502Y-131724180D01*
X239885812Y-131604482D01*
X239898072Y-131480000D01*
X239898072Y-129680000D01*
X239885812Y-129555518D01*
X239849502Y-129435820D01*
X239790537Y-129325506D01*
X239711185Y-129228815D01*
X239614494Y-129149463D01*
X239504180Y-129090498D01*
X239384482Y-129054188D01*
X239260000Y-129041928D01*
X237460000Y-129041928D01*
X237335518Y-129054188D01*
X237215820Y-129090498D01*
X237105506Y-129149463D01*
X237008815Y-129228815D01*
X236929463Y-129325506D01*
X236870498Y-129435820D01*
X236864944Y-129454127D01*
X236798505Y-129387688D01*
X236655000Y-129291801D01*
X236655000Y-128765867D01*
X237149539Y-128271329D01*
X237318816Y-128305000D01*
X237621184Y-128305000D01*
X237917743Y-128246011D01*
X238197095Y-128130299D01*
X238448505Y-127962312D01*
X238514944Y-127895873D01*
X238520498Y-127914180D01*
X238579463Y-128024494D01*
X238658815Y-128121185D01*
X238755506Y-128200537D01*
X238865820Y-128259502D01*
X238985518Y-128295812D01*
X239110000Y-128308072D01*
X240910000Y-128308072D01*
X241034482Y-128295812D01*
X241154180Y-128259502D01*
X241264494Y-128200537D01*
X241361185Y-128121185D01*
X241440537Y-128024494D01*
X241499502Y-127914180D01*
X241535812Y-127794482D01*
X241548072Y-127670000D01*
X241548072Y-127605000D01*
X247455133Y-127605000D01*
X248477757Y-128627625D01*
X248474000Y-128646514D01*
X248474000Y-128909486D01*
X248525304Y-129167405D01*
X248625939Y-129410359D01*
X248772038Y-129629013D01*
X248957987Y-129814962D01*
X249176641Y-129961061D01*
X249419595Y-130061696D01*
X249677514Y-130113000D01*
X249940486Y-130113000D01*
X250198405Y-130061696D01*
X250441359Y-129961061D01*
X250660013Y-129814962D01*
X250845962Y-129629013D01*
X250992061Y-129410359D01*
X251092696Y-129167405D01*
X251144000Y-128909486D01*
X251144000Y-128646514D01*
X251092696Y-128388595D01*
X250992061Y-128145641D01*
X250845962Y-127926987D01*
X250660013Y-127741038D01*
X250441359Y-127594939D01*
X250198405Y-127494304D01*
X249940486Y-127443000D01*
X249677514Y-127443000D01*
X249658625Y-127446757D01*
X248420446Y-126208579D01*
X248394291Y-126176709D01*
X248267146Y-126072364D01*
X248122087Y-125994828D01*
X247964689Y-125947082D01*
X247842019Y-125935000D01*
X247842018Y-125935000D01*
X247801000Y-125930960D01*
X247759982Y-125935000D01*
X241548072Y-125935000D01*
X241548072Y-125882795D01*
X242242796Y-125188072D01*
X242957203Y-125188072D01*
X243144114Y-125374983D01*
X243170260Y-125406842D01*
X243202119Y-125432988D01*
X243202121Y-125432990D01*
X243251278Y-125473332D01*
X243297405Y-125511187D01*
X243442464Y-125588723D01*
X243599862Y-125636469D01*
X243722532Y-125648551D01*
X243722533Y-125648551D01*
X243763551Y-125652591D01*
X243804569Y-125648551D01*
X248846486Y-125648551D01*
X248887504Y-125652591D01*
X248928522Y-125648551D01*
X248928523Y-125648551D01*
X249051193Y-125636469D01*
X249208591Y-125588723D01*
X249353650Y-125511187D01*
X249480795Y-125406842D01*
X249506949Y-125374973D01*
X250121716Y-124760208D01*
X250039012Y-125229244D01*
X250039012Y-125229244D01*
G37*
X250039012Y-125229244D02*
X250029470Y-125353964D01*
X250044443Y-125478148D01*
X250083355Y-125597026D01*
X250144712Y-125706027D01*
X250226155Y-125800964D01*
X250324554Y-125878189D01*
X250436129Y-125934732D01*
X250556590Y-125968422D01*
X252172478Y-126253346D01*
X254498501Y-128579370D01*
X254498500Y-138755000D01*
X246018072Y-138755000D01*
X246018072Y-138690000D01*
X246005812Y-138565518D01*
X245969502Y-138445820D01*
X245910537Y-138335506D01*
X245831185Y-138238815D01*
X245734494Y-138159463D01*
X245624180Y-138100498D01*
X245504482Y-138064188D01*
X245380000Y-138051928D01*
X243580000Y-138051928D01*
X243455518Y-138064188D01*
X243335820Y-138100498D01*
X243225506Y-138159463D01*
X243128815Y-138238815D01*
X243049463Y-138335506D01*
X242990498Y-138445820D01*
X242984944Y-138464127D01*
X242918505Y-138397688D01*
X242730285Y-138271923D01*
X242731185Y-138271185D01*
X242810537Y-138174494D01*
X242869502Y-138064180D01*
X242905812Y-137944482D01*
X242918072Y-137820000D01*
X242918072Y-137755000D01*
X246832982Y-137755000D01*
X246874000Y-137759040D01*
X246915018Y-137755000D01*
X246915019Y-137755000D01*
X247037689Y-137742918D01*
X247195087Y-137695172D01*
X247340146Y-137617636D01*
X247467291Y-137513291D01*
X247493445Y-137481422D01*
X248142439Y-136832430D01*
X248142448Y-136832419D01*
X251063439Y-133911430D01*
X251063448Y-133911419D01*
X252615679Y-132359189D01*
X252634568Y-132362946D01*
X252897540Y-132362946D01*
X253155459Y-132311642D01*
X253398413Y-132211007D01*
X253617067Y-132064908D01*
X253803016Y-131878959D01*
X253949115Y-131660305D01*
X254049750Y-131417351D01*
X254101054Y-131159432D01*
X254101054Y-130896460D01*
X254049750Y-130638541D01*
X253949115Y-130395587D01*
X253803016Y-130176933D01*
X253617067Y-129990984D01*
X253398413Y-129844885D01*
X253155459Y-129744250D01*
X252897540Y-129692946D01*
X252634568Y-129692946D01*
X252376649Y-129744250D01*
X252133695Y-129844885D01*
X251915041Y-129990984D01*
X251729092Y-130176933D01*
X251582993Y-130395587D01*
X251482358Y-130638541D01*
X251431054Y-130896460D01*
X251431054Y-131159432D01*
X251434811Y-131178321D01*
X251017000Y-131596132D01*
X251017000Y-131567514D01*
X250965696Y-131309595D01*
X250865061Y-131066641D01*
X250718962Y-130847987D01*
X250533013Y-130662038D01*
X250314359Y-130515939D01*
X250071405Y-130415304D01*
X249813486Y-130364000D01*
X249550514Y-130364000D01*
X249292595Y-130415304D01*
X249049641Y-130515939D01*
X248830987Y-130662038D01*
X248645038Y-130847987D01*
X248498939Y-131066641D01*
X248398304Y-131309595D01*
X248347000Y-131567514D01*
X248347000Y-131830486D01*
X248350757Y-131849375D01*
X246395133Y-133805000D01*
X239328072Y-133805000D01*
X239328072Y-133740000D01*
X239315812Y-133615518D01*
X239279502Y-133495820D01*
X239220537Y-133385506D01*
X239141185Y-133288815D01*
X239044494Y-133209463D01*
X238934180Y-133150498D01*
X238814482Y-133114188D01*
X238690000Y-133101928D01*
X236890000Y-133101928D01*
X236765518Y-133114188D01*
X236645820Y-133150498D01*
X236535506Y-133209463D01*
X236438815Y-133288815D01*
X236359463Y-133385506D01*
X236300498Y-133495820D01*
X236294944Y-133514127D01*
X236228505Y-133447688D01*
X236085000Y-133351801D01*
X236085000Y-132092361D01*
X236267743Y-132056011D01*
X236547095Y-131940299D01*
X236798505Y-131772312D01*
X236864944Y-131705873D01*
X236870498Y-131724180D01*
X236929463Y-131834494D01*
X237008815Y-131931185D01*
X237105506Y-132010537D01*
X237215820Y-132069502D01*
X237335518Y-132105812D01*
X237460000Y-132118072D01*
X239260000Y-132118072D01*
X239384482Y-132105812D01*
X239504180Y-132069502D01*
X239614494Y-132010537D01*
X239711185Y-131931185D01*
X239790537Y-131834494D01*
X239849502Y-131724180D01*
X239885812Y-131604482D01*
X239898072Y-131480000D01*
X239898072Y-129680000D01*
X239885812Y-129555518D01*
X239849502Y-129435820D01*
X239790537Y-129325506D01*
X239711185Y-129228815D01*
X239614494Y-129149463D01*
X239504180Y-129090498D01*
X239384482Y-129054188D01*
X239260000Y-129041928D01*
X237460000Y-129041928D01*
X237335518Y-129054188D01*
X237215820Y-129090498D01*
X237105506Y-129149463D01*
X237008815Y-129228815D01*
X236929463Y-129325506D01*
X236870498Y-129435820D01*
X236864944Y-129454127D01*
X236798505Y-129387688D01*
X236655000Y-129291801D01*
X236655000Y-128765867D01*
X237149539Y-128271329D01*
X237318816Y-128305000D01*
X237621184Y-128305000D01*
X237917743Y-128246011D01*
X238197095Y-128130299D01*
X238448505Y-127962312D01*
X238514944Y-127895873D01*
X238520498Y-127914180D01*
X238579463Y-128024494D01*
X238658815Y-128121185D01*
X238755506Y-128200537D01*
X238865820Y-128259502D01*
X238985518Y-128295812D01*
X239110000Y-128308072D01*
X240910000Y-128308072D01*
X241034482Y-128295812D01*
X241154180Y-128259502D01*
X241264494Y-128200537D01*
X241361185Y-128121185D01*
X241440537Y-128024494D01*
X241499502Y-127914180D01*
X241535812Y-127794482D01*
X241548072Y-127670000D01*
X241548072Y-127605000D01*
X247455133Y-127605000D01*
X248477757Y-128627625D01*
X248474000Y-128646514D01*
X248474000Y-128909486D01*
X248525304Y-129167405D01*
X248625939Y-129410359D01*
X248772038Y-129629013D01*
X248957987Y-129814962D01*
X249176641Y-129961061D01*
X249419595Y-130061696D01*
X249677514Y-130113000D01*
X249940486Y-130113000D01*
X250198405Y-130061696D01*
X250441359Y-129961061D01*
X250660013Y-129814962D01*
X250845962Y-129629013D01*
X250992061Y-129410359D01*
X251092696Y-129167405D01*
X251144000Y-128909486D01*
X251144000Y-128646514D01*
X251092696Y-128388595D01*
X250992061Y-128145641D01*
X250845962Y-127926987D01*
X250660013Y-127741038D01*
X250441359Y-127594939D01*
X250198405Y-127494304D01*
X249940486Y-127443000D01*
X249677514Y-127443000D01*
X249658625Y-127446757D01*
X248420446Y-126208579D01*
X248394291Y-126176709D01*
X248267146Y-126072364D01*
X248122087Y-125994828D01*
X247964689Y-125947082D01*
X247842019Y-125935000D01*
X247842018Y-125935000D01*
X247801000Y-125930960D01*
X247759982Y-125935000D01*
X241548072Y-125935000D01*
X241548072Y-125882795D01*
X242242796Y-125188072D01*
X242957203Y-125188072D01*
X243144114Y-125374983D01*
X243170260Y-125406842D01*
X243202119Y-125432988D01*
X243202121Y-125432990D01*
X243251278Y-125473332D01*
X243297405Y-125511187D01*
X243442464Y-125588723D01*
X243599862Y-125636469D01*
X243722532Y-125648551D01*
X243722533Y-125648551D01*
X243763551Y-125652591D01*
X243804569Y-125648551D01*
X248846486Y-125648551D01*
X248887504Y-125652591D01*
X248928522Y-125648551D01*
X248928523Y-125648551D01*
X249051193Y-125636469D01*
X249208591Y-125588723D01*
X249353650Y-125511187D01*
X249480795Y-125406842D01*
X249506949Y-125374973D01*
X250121716Y-124760208D01*
X250039012Y-125229244D01*
%TD*%
M02*
