%TF.GenerationSoftware,KiCad,Pcbnew,(5.1.4)-1*%
%TF.CreationDate,2021-08-29T10:15:52+03:00*%
%TF.ProjectId,kone,6b6f6e65-2e6b-4696-9361-645f70636258,rev?*%
%TF.SameCoordinates,Original*%
%TF.FileFunction,Soldermask,Bot*%
%TF.FilePolarity,Negative*%
%FSLAX46Y46*%
G04 Gerber Fmt 4.6, Leading zero omitted, Abs format (unit mm)*
G04 Created by KiCad (PCBNEW (5.1.4)-1) date 2021-08-29 10:15:52*
%MOMM*%
%LPD*%
G04 APERTURE LIST*
%ADD10R,1.700000X1.700000*%
%ADD11O,1.700000X1.700000*%
%ADD12R,1.800000X1.800000*%
%ADD13C,1.800000*%
%ADD14C,0.150000*%
G04 APERTURE END LIST*
D10*
%TO.C,P3*%
X233710000Y-156250000D03*
D11*
X236250000Y-156250000D03*
%TD*%
D12*
%TO.C,D29*%
X268940000Y-120380000D03*
D13*
X266400000Y-120380000D03*
%TD*%
%TO.C,D9*%
X264910000Y-155170000D03*
D14*
G36*
X266182792Y-155170000D02*
G01*
X264910000Y-156442792D01*
X263637208Y-155170000D01*
X264910000Y-153897208D01*
X266182792Y-155170000D01*
X266182792Y-155170000D01*
G37*
D13*
X263113949Y-153373949D03*
%TD*%
%TO.C,D11*%
X255920000Y-153900000D03*
D12*
X255920000Y-156440000D03*
%TD*%
%TO.C,D12*%
X252030000Y-156230000D03*
D13*
X252030000Y-153690000D03*
%TD*%
%TO.C,D13*%
X249046051Y-153383949D03*
X247250000Y-155180000D03*
D14*
G36*
X247250000Y-156452792D02*
G01*
X245977208Y-155180000D01*
X247250000Y-153907208D01*
X248522792Y-155180000D01*
X247250000Y-156452792D01*
X247250000Y-156452792D01*
G37*
%TD*%
D13*
%TO.C,D16*%
X244540000Y-142980000D03*
D12*
X247080000Y-142980000D03*
%TD*%
%TO.C,D7*%
X265860000Y-146660000D03*
D13*
X263320000Y-146660000D03*
%TD*%
%TO.C,D6*%
X264570000Y-142970000D03*
D12*
X267110000Y-142970000D03*
%TD*%
D13*
%TO.C,D1*%
X271640000Y-126760000D03*
D12*
X274180000Y-126760000D03*
%TD*%
%TO.C,D3*%
X276400000Y-134630000D03*
D13*
X273860000Y-134630000D03*
%TD*%
%TO.C,D4*%
X270280000Y-136910000D03*
D12*
X272820000Y-136910000D03*
%TD*%
%TO.C,D2*%
X275830000Y-130570000D03*
D13*
X273290000Y-130570000D03*
%TD*%
D12*
%TO.C,D5*%
X269710000Y-139580000D03*
D13*
X267170000Y-139580000D03*
%TD*%
D12*
%TO.C,D14*%
X248630000Y-150360000D03*
D13*
X246090000Y-150360000D03*
%TD*%
D10*
%TO.C,P2*%
X239700000Y-156350000D03*
D11*
X242240000Y-156350000D03*
%TD*%
D12*
%TO.C,D15*%
X248290000Y-146640000D03*
D13*
X245750000Y-146640000D03*
%TD*%
%TO.C,D17*%
X241940000Y-139590000D03*
D12*
X244480000Y-139590000D03*
%TD*%
%TO.C,D18*%
X241380000Y-136920000D03*
D13*
X238840000Y-136920000D03*
%TD*%
D12*
%TO.C,D19*%
X237790000Y-134640000D03*
D13*
X235250000Y-134640000D03*
%TD*%
D12*
%TO.C,D20*%
X238360000Y-130580000D03*
D13*
X235820000Y-130580000D03*
%TD*%
%TO.C,D21*%
X237470000Y-126770000D03*
D12*
X240010000Y-126770000D03*
%TD*%
D13*
%TO.C,D22*%
X240060000Y-123650000D03*
D12*
X242600000Y-123650000D03*
%TD*%
%TO.C,D23*%
X245270000Y-120510000D03*
D13*
X242730000Y-120510000D03*
%TD*%
%TO.C,D24*%
X248378731Y-120773181D03*
X247510000Y-123160000D03*
D14*
G36*
X248047905Y-124313541D02*
G01*
X246356459Y-123697905D01*
X246972095Y-122006459D01*
X248663541Y-122622095D01*
X248047905Y-124313541D01*
X248047905Y-124313541D01*
G37*
%TD*%
D13*
%TO.C,D25*%
X252151066Y-122108588D03*
X251710000Y-124610000D03*
D14*
G36*
X252440044Y-125652610D02*
G01*
X250667390Y-125340044D01*
X250979956Y-123567390D01*
X252752610Y-123879956D01*
X252440044Y-125652610D01*
X252440044Y-125652610D01*
G37*
%TD*%
D12*
%TO.C,D26*%
X256070000Y-125080000D03*
D13*
X256070000Y-122540000D03*
%TD*%
%TO.C,D27*%
X260440000Y-124430000D03*
D14*
G36*
X261593541Y-124967905D02*
G01*
X259902095Y-125583541D01*
X259286459Y-123892095D01*
X260977905Y-123276459D01*
X261593541Y-124967905D01*
X261593541Y-124967905D01*
G37*
D13*
X259571269Y-122043181D03*
%TD*%
%TO.C,D30*%
X269020000Y-123610000D03*
D12*
X271560000Y-123610000D03*
%TD*%
%TO.C,D31*%
X269780000Y-129290000D03*
D13*
X267240000Y-129290000D03*
%TD*%
%TO.C,D8*%
X263010000Y-150450000D03*
D12*
X265550000Y-150450000D03*
%TD*%
%TO.C,D10*%
X260020000Y-156260000D03*
D13*
X260020000Y-153720000D03*
%TD*%
%TO.C,D28*%
X264450000Y-122980000D03*
D14*
G36*
X265679423Y-123309423D02*
G01*
X264120577Y-124209423D01*
X263220577Y-122650577D01*
X264779423Y-121750577D01*
X265679423Y-123309423D01*
X265679423Y-123309423D01*
G37*
D13*
X263180000Y-120780295D03*
%TD*%
M02*
