%TF.GenerationSoftware,KiCad,Pcbnew,(5.1.4)-1*%
%TF.CreationDate,2020-11-17T10:49:43+02:00*%
%TF.ProjectId,prose,70726f73-652e-46b6-9963-61645f706362,rev?*%
%TF.SameCoordinates,Original*%
%TF.FileFunction,Soldermask,Top*%
%TF.FilePolarity,Negative*%
%FSLAX46Y46*%
G04 Gerber Fmt 4.6, Leading zero omitted, Abs format (unit mm)*
G04 Created by KiCad (PCBNEW (5.1.4)-1) date 2020-11-17 10:49:43*
%MOMM*%
%LPD*%
G04 APERTURE LIST*
%ADD10C,0.150000*%
%ADD11C,1.300000*%
%ADD12R,1.800000X1.800000*%
%ADD13C,1.800000*%
%ADD14R,1.750000X0.600000*%
%ADD15R,1.700000X1.700000*%
%ADD16O,1.700000X1.700000*%
%ADD17C,2.250000*%
%ADD18C,1.200000*%
%ADD19R,1.524000X1.524000*%
G04 APERTURE END LIST*
D10*
%TO.C,R3*%
G36*
X91309504Y-77251204D02*
G01*
X91333773Y-77254804D01*
X91357571Y-77260765D01*
X91380671Y-77269030D01*
X91402849Y-77279520D01*
X91423893Y-77292133D01*
X91443598Y-77306747D01*
X91461777Y-77323223D01*
X91478253Y-77341402D01*
X91492867Y-77361107D01*
X91505480Y-77382151D01*
X91515970Y-77404329D01*
X91524235Y-77427429D01*
X91530196Y-77451227D01*
X91533796Y-77475496D01*
X91535000Y-77500000D01*
X91535000Y-78300000D01*
X91533796Y-78324504D01*
X91530196Y-78348773D01*
X91524235Y-78372571D01*
X91515970Y-78395671D01*
X91505480Y-78417849D01*
X91492867Y-78438893D01*
X91478253Y-78458598D01*
X91461777Y-78476777D01*
X91443598Y-78493253D01*
X91423893Y-78507867D01*
X91402849Y-78520480D01*
X91380671Y-78530970D01*
X91357571Y-78539235D01*
X91333773Y-78545196D01*
X91309504Y-78548796D01*
X91285000Y-78550000D01*
X89135000Y-78550000D01*
X89110496Y-78548796D01*
X89086227Y-78545196D01*
X89062429Y-78539235D01*
X89039329Y-78530970D01*
X89017151Y-78520480D01*
X88996107Y-78507867D01*
X88976402Y-78493253D01*
X88958223Y-78476777D01*
X88941747Y-78458598D01*
X88927133Y-78438893D01*
X88914520Y-78417849D01*
X88904030Y-78395671D01*
X88895765Y-78372571D01*
X88889804Y-78348773D01*
X88886204Y-78324504D01*
X88885000Y-78300000D01*
X88885000Y-77500000D01*
X88886204Y-77475496D01*
X88889804Y-77451227D01*
X88895765Y-77427429D01*
X88904030Y-77404329D01*
X88914520Y-77382151D01*
X88927133Y-77361107D01*
X88941747Y-77341402D01*
X88958223Y-77323223D01*
X88976402Y-77306747D01*
X88996107Y-77292133D01*
X89017151Y-77279520D01*
X89039329Y-77269030D01*
X89062429Y-77260765D01*
X89086227Y-77254804D01*
X89110496Y-77251204D01*
X89135000Y-77250000D01*
X91285000Y-77250000D01*
X91309504Y-77251204D01*
X91309504Y-77251204D01*
G37*
D11*
X90210000Y-77900000D03*
D10*
G36*
X91309504Y-80351204D02*
G01*
X91333773Y-80354804D01*
X91357571Y-80360765D01*
X91380671Y-80369030D01*
X91402849Y-80379520D01*
X91423893Y-80392133D01*
X91443598Y-80406747D01*
X91461777Y-80423223D01*
X91478253Y-80441402D01*
X91492867Y-80461107D01*
X91505480Y-80482151D01*
X91515970Y-80504329D01*
X91524235Y-80527429D01*
X91530196Y-80551227D01*
X91533796Y-80575496D01*
X91535000Y-80600000D01*
X91535000Y-81400000D01*
X91533796Y-81424504D01*
X91530196Y-81448773D01*
X91524235Y-81472571D01*
X91515970Y-81495671D01*
X91505480Y-81517849D01*
X91492867Y-81538893D01*
X91478253Y-81558598D01*
X91461777Y-81576777D01*
X91443598Y-81593253D01*
X91423893Y-81607867D01*
X91402849Y-81620480D01*
X91380671Y-81630970D01*
X91357571Y-81639235D01*
X91333773Y-81645196D01*
X91309504Y-81648796D01*
X91285000Y-81650000D01*
X89135000Y-81650000D01*
X89110496Y-81648796D01*
X89086227Y-81645196D01*
X89062429Y-81639235D01*
X89039329Y-81630970D01*
X89017151Y-81620480D01*
X88996107Y-81607867D01*
X88976402Y-81593253D01*
X88958223Y-81576777D01*
X88941747Y-81558598D01*
X88927133Y-81538893D01*
X88914520Y-81517849D01*
X88904030Y-81495671D01*
X88895765Y-81472571D01*
X88889804Y-81448773D01*
X88886204Y-81424504D01*
X88885000Y-81400000D01*
X88885000Y-80600000D01*
X88886204Y-80575496D01*
X88889804Y-80551227D01*
X88895765Y-80527429D01*
X88904030Y-80504329D01*
X88914520Y-80482151D01*
X88927133Y-80461107D01*
X88941747Y-80441402D01*
X88958223Y-80423223D01*
X88976402Y-80406747D01*
X88996107Y-80392133D01*
X89017151Y-80379520D01*
X89039329Y-80369030D01*
X89062429Y-80360765D01*
X89086227Y-80354804D01*
X89110496Y-80351204D01*
X89135000Y-80350000D01*
X91285000Y-80350000D01*
X91309504Y-80351204D01*
X91309504Y-80351204D01*
G37*
D11*
X90210000Y-81000000D03*
%TD*%
D12*
%TO.C,D21*%
X88390000Y-63070000D03*
D13*
X85850000Y-63070000D03*
%TD*%
%TO.C,D18*%
X83040000Y-78180000D03*
D12*
X85580000Y-78180000D03*
%TD*%
D14*
%TO.C,IC1*%
X75295000Y-101505000D03*
X75295000Y-100235000D03*
X75295000Y-98965000D03*
X75295000Y-97695000D03*
X75295000Y-96425000D03*
X75295000Y-95155000D03*
X75295000Y-93885000D03*
X75295000Y-92615000D03*
X75295000Y-91345000D03*
X75295000Y-90075000D03*
X85045000Y-90075000D03*
X85045000Y-91345000D03*
X85045000Y-92615000D03*
X85045000Y-93885000D03*
X85045000Y-101505000D03*
X85045000Y-100235000D03*
X85045000Y-98965000D03*
X85045000Y-97695000D03*
X85045000Y-96425000D03*
X85045000Y-95155000D03*
%TD*%
D15*
%TO.C,P2*%
X75960000Y-52160000D03*
D16*
X73420000Y-52160000D03*
%TD*%
D12*
%TO.C,D5*%
X49784000Y-73406000D03*
D13*
X47244000Y-73406000D03*
%TD*%
D10*
%TO.C,C1*%
G36*
X92349505Y-67276204D02*
G01*
X92373773Y-67279804D01*
X92397572Y-67285765D01*
X92420671Y-67294030D01*
X92442850Y-67304520D01*
X92463893Y-67317132D01*
X92483599Y-67331747D01*
X92501777Y-67348223D01*
X92518253Y-67366401D01*
X92532868Y-67386107D01*
X92545480Y-67407150D01*
X92555970Y-67429329D01*
X92564235Y-67452428D01*
X92570196Y-67476227D01*
X92573796Y-67500495D01*
X92575000Y-67524999D01*
X92575000Y-69275001D01*
X92573796Y-69299505D01*
X92570196Y-69323773D01*
X92564235Y-69347572D01*
X92555970Y-69370671D01*
X92545480Y-69392850D01*
X92532868Y-69413893D01*
X92518253Y-69433599D01*
X92501777Y-69451777D01*
X92483599Y-69468253D01*
X92463893Y-69482868D01*
X92442850Y-69495480D01*
X92420671Y-69505970D01*
X92397572Y-69514235D01*
X92373773Y-69520196D01*
X92349505Y-69523796D01*
X92325001Y-69525000D01*
X90474999Y-69525000D01*
X90450495Y-69523796D01*
X90426227Y-69520196D01*
X90402428Y-69514235D01*
X90379329Y-69505970D01*
X90357150Y-69495480D01*
X90336107Y-69482868D01*
X90316401Y-69468253D01*
X90298223Y-69451777D01*
X90281747Y-69433599D01*
X90267132Y-69413893D01*
X90254520Y-69392850D01*
X90244030Y-69370671D01*
X90235765Y-69347572D01*
X90229804Y-69323773D01*
X90226204Y-69299505D01*
X90225000Y-69275001D01*
X90225000Y-67524999D01*
X90226204Y-67500495D01*
X90229804Y-67476227D01*
X90235765Y-67452428D01*
X90244030Y-67429329D01*
X90254520Y-67407150D01*
X90267132Y-67386107D01*
X90281747Y-67366401D01*
X90298223Y-67348223D01*
X90316401Y-67331747D01*
X90336107Y-67317132D01*
X90357150Y-67304520D01*
X90379329Y-67294030D01*
X90402428Y-67285765D01*
X90426227Y-67279804D01*
X90450495Y-67276204D01*
X90474999Y-67275000D01*
X92325001Y-67275000D01*
X92349505Y-67276204D01*
X92349505Y-67276204D01*
G37*
D17*
X91400000Y-68400000D03*
D10*
G36*
X92349505Y-72376204D02*
G01*
X92373773Y-72379804D01*
X92397572Y-72385765D01*
X92420671Y-72394030D01*
X92442850Y-72404520D01*
X92463893Y-72417132D01*
X92483599Y-72431747D01*
X92501777Y-72448223D01*
X92518253Y-72466401D01*
X92532868Y-72486107D01*
X92545480Y-72507150D01*
X92555970Y-72529329D01*
X92564235Y-72552428D01*
X92570196Y-72576227D01*
X92573796Y-72600495D01*
X92575000Y-72624999D01*
X92575000Y-74375001D01*
X92573796Y-74399505D01*
X92570196Y-74423773D01*
X92564235Y-74447572D01*
X92555970Y-74470671D01*
X92545480Y-74492850D01*
X92532868Y-74513893D01*
X92518253Y-74533599D01*
X92501777Y-74551777D01*
X92483599Y-74568253D01*
X92463893Y-74582868D01*
X92442850Y-74595480D01*
X92420671Y-74605970D01*
X92397572Y-74614235D01*
X92373773Y-74620196D01*
X92349505Y-74623796D01*
X92325001Y-74625000D01*
X90474999Y-74625000D01*
X90450495Y-74623796D01*
X90426227Y-74620196D01*
X90402428Y-74614235D01*
X90379329Y-74605970D01*
X90357150Y-74595480D01*
X90336107Y-74582868D01*
X90316401Y-74568253D01*
X90298223Y-74551777D01*
X90281747Y-74533599D01*
X90267132Y-74513893D01*
X90254520Y-74492850D01*
X90244030Y-74470671D01*
X90235765Y-74447572D01*
X90229804Y-74423773D01*
X90226204Y-74399505D01*
X90225000Y-74375001D01*
X90225000Y-72624999D01*
X90226204Y-72600495D01*
X90229804Y-72576227D01*
X90235765Y-72552428D01*
X90244030Y-72529329D01*
X90254520Y-72507150D01*
X90267132Y-72486107D01*
X90281747Y-72466401D01*
X90298223Y-72448223D01*
X90316401Y-72431747D01*
X90336107Y-72417132D01*
X90357150Y-72404520D01*
X90379329Y-72394030D01*
X90402428Y-72385765D01*
X90426227Y-72379804D01*
X90450495Y-72376204D01*
X90474999Y-72375000D01*
X92325001Y-72375000D01*
X92349505Y-72376204D01*
X92349505Y-72376204D01*
G37*
D17*
X91400000Y-73500000D03*
%TD*%
D10*
%TO.C,F1*%
G36*
X80254505Y-55831204D02*
G01*
X80278773Y-55834804D01*
X80302572Y-55840765D01*
X80325671Y-55849030D01*
X80347850Y-55859520D01*
X80368893Y-55872132D01*
X80388599Y-55886747D01*
X80406777Y-55903223D01*
X80423253Y-55921401D01*
X80437868Y-55941107D01*
X80450480Y-55962150D01*
X80460970Y-55984329D01*
X80469235Y-56007428D01*
X80475196Y-56031227D01*
X80478796Y-56055495D01*
X80480000Y-56079999D01*
X80480000Y-56980001D01*
X80478796Y-57004505D01*
X80475196Y-57028773D01*
X80469235Y-57052572D01*
X80460970Y-57075671D01*
X80450480Y-57097850D01*
X80437868Y-57118893D01*
X80423253Y-57138599D01*
X80406777Y-57156777D01*
X80388599Y-57173253D01*
X80368893Y-57187868D01*
X80347850Y-57200480D01*
X80325671Y-57210970D01*
X80302572Y-57219235D01*
X80278773Y-57225196D01*
X80254505Y-57228796D01*
X80230001Y-57230000D01*
X79529999Y-57230000D01*
X79505495Y-57228796D01*
X79481227Y-57225196D01*
X79457428Y-57219235D01*
X79434329Y-57210970D01*
X79412150Y-57200480D01*
X79391107Y-57187868D01*
X79371401Y-57173253D01*
X79353223Y-57156777D01*
X79336747Y-57138599D01*
X79322132Y-57118893D01*
X79309520Y-57097850D01*
X79299030Y-57075671D01*
X79290765Y-57052572D01*
X79284804Y-57028773D01*
X79281204Y-57004505D01*
X79280000Y-56980001D01*
X79280000Y-56079999D01*
X79281204Y-56055495D01*
X79284804Y-56031227D01*
X79290765Y-56007428D01*
X79299030Y-55984329D01*
X79309520Y-55962150D01*
X79322132Y-55941107D01*
X79336747Y-55921401D01*
X79353223Y-55903223D01*
X79371401Y-55886747D01*
X79391107Y-55872132D01*
X79412150Y-55859520D01*
X79434329Y-55849030D01*
X79457428Y-55840765D01*
X79481227Y-55834804D01*
X79505495Y-55831204D01*
X79529999Y-55830000D01*
X80230001Y-55830000D01*
X80254505Y-55831204D01*
X80254505Y-55831204D01*
G37*
D18*
X79880000Y-56530000D03*
D10*
G36*
X78254505Y-55831204D02*
G01*
X78278773Y-55834804D01*
X78302572Y-55840765D01*
X78325671Y-55849030D01*
X78347850Y-55859520D01*
X78368893Y-55872132D01*
X78388599Y-55886747D01*
X78406777Y-55903223D01*
X78423253Y-55921401D01*
X78437868Y-55941107D01*
X78450480Y-55962150D01*
X78460970Y-55984329D01*
X78469235Y-56007428D01*
X78475196Y-56031227D01*
X78478796Y-56055495D01*
X78480000Y-56079999D01*
X78480000Y-56980001D01*
X78478796Y-57004505D01*
X78475196Y-57028773D01*
X78469235Y-57052572D01*
X78460970Y-57075671D01*
X78450480Y-57097850D01*
X78437868Y-57118893D01*
X78423253Y-57138599D01*
X78406777Y-57156777D01*
X78388599Y-57173253D01*
X78368893Y-57187868D01*
X78347850Y-57200480D01*
X78325671Y-57210970D01*
X78302572Y-57219235D01*
X78278773Y-57225196D01*
X78254505Y-57228796D01*
X78230001Y-57230000D01*
X77529999Y-57230000D01*
X77505495Y-57228796D01*
X77481227Y-57225196D01*
X77457428Y-57219235D01*
X77434329Y-57210970D01*
X77412150Y-57200480D01*
X77391107Y-57187868D01*
X77371401Y-57173253D01*
X77353223Y-57156777D01*
X77336747Y-57138599D01*
X77322132Y-57118893D01*
X77309520Y-57097850D01*
X77299030Y-57075671D01*
X77290765Y-57052572D01*
X77284804Y-57028773D01*
X77281204Y-57004505D01*
X77280000Y-56980001D01*
X77280000Y-56079999D01*
X77281204Y-56055495D01*
X77284804Y-56031227D01*
X77290765Y-56007428D01*
X77299030Y-55984329D01*
X77309520Y-55962150D01*
X77322132Y-55941107D01*
X77336747Y-55921401D01*
X77353223Y-55903223D01*
X77371401Y-55886747D01*
X77391107Y-55872132D01*
X77412150Y-55859520D01*
X77434329Y-55849030D01*
X77457428Y-55840765D01*
X77481227Y-55834804D01*
X77505495Y-55831204D01*
X77529999Y-55830000D01*
X78230001Y-55830000D01*
X78254505Y-55831204D01*
X78254505Y-55831204D01*
G37*
D18*
X77880000Y-56530000D03*
%TD*%
D13*
%TO.C,D6*%
X49920000Y-78870000D03*
D12*
X52460000Y-78870000D03*
%TD*%
%TO.C,D7*%
X55980000Y-83950000D03*
D13*
X53440000Y-83950000D03*
%TD*%
%TO.C,D8*%
X56730000Y-88990000D03*
D12*
X59270000Y-88990000D03*
%TD*%
D13*
%TO.C,D9*%
X59780000Y-93740000D03*
D12*
X62320000Y-93740000D03*
%TD*%
%TO.C,D10*%
X65580000Y-94940000D03*
D13*
X65580000Y-92400000D03*
%TD*%
D12*
%TO.C,D11*%
X64280000Y-88820000D03*
D13*
X61740000Y-88820000D03*
%TD*%
%TO.C,D12*%
X59610000Y-83410000D03*
D12*
X62150000Y-83410000D03*
%TD*%
%TO.C,D13*%
X67780000Y-83410000D03*
D13*
X65240000Y-83410000D03*
%TD*%
%TO.C,D14*%
X70660000Y-83460000D03*
D12*
X73200000Y-83460000D03*
%TD*%
%TO.C,D15*%
X78360000Y-83410000D03*
D13*
X75820000Y-83410000D03*
%TD*%
%TO.C,D16*%
X80720000Y-83510000D03*
D12*
X83260000Y-83510000D03*
%TD*%
%TO.C,D17*%
X88140000Y-83400000D03*
D13*
X85600000Y-83400000D03*
%TD*%
%TO.C,D19*%
X80650000Y-73490000D03*
D12*
X83190000Y-73490000D03*
%TD*%
D13*
%TO.C,D29*%
X74110000Y-73360000D03*
D12*
X76650000Y-73360000D03*
%TD*%
%TO.C,D30*%
X70060000Y-73390000D03*
D13*
X67520000Y-73390000D03*
%TD*%
%TO.C,D31*%
X60610000Y-73390000D03*
D12*
X63150000Y-73390000D03*
%TD*%
%TO.C,D32*%
X56310000Y-73360000D03*
D13*
X53770000Y-73360000D03*
%TD*%
D10*
%TO.C,R1*%
G36*
X50319504Y-84111204D02*
G01*
X50343773Y-84114804D01*
X50367571Y-84120765D01*
X50390671Y-84129030D01*
X50412849Y-84139520D01*
X50433893Y-84152133D01*
X50453598Y-84166747D01*
X50471777Y-84183223D01*
X50488253Y-84201402D01*
X50502867Y-84221107D01*
X50515480Y-84242151D01*
X50525970Y-84264329D01*
X50534235Y-84287429D01*
X50540196Y-84311227D01*
X50543796Y-84335496D01*
X50545000Y-84360000D01*
X50545000Y-85160000D01*
X50543796Y-85184504D01*
X50540196Y-85208773D01*
X50534235Y-85232571D01*
X50525970Y-85255671D01*
X50515480Y-85277849D01*
X50502867Y-85298893D01*
X50488253Y-85318598D01*
X50471777Y-85336777D01*
X50453598Y-85353253D01*
X50433893Y-85367867D01*
X50412849Y-85380480D01*
X50390671Y-85390970D01*
X50367571Y-85399235D01*
X50343773Y-85405196D01*
X50319504Y-85408796D01*
X50295000Y-85410000D01*
X48145000Y-85410000D01*
X48120496Y-85408796D01*
X48096227Y-85405196D01*
X48072429Y-85399235D01*
X48049329Y-85390970D01*
X48027151Y-85380480D01*
X48006107Y-85367867D01*
X47986402Y-85353253D01*
X47968223Y-85336777D01*
X47951747Y-85318598D01*
X47937133Y-85298893D01*
X47924520Y-85277849D01*
X47914030Y-85255671D01*
X47905765Y-85232571D01*
X47899804Y-85208773D01*
X47896204Y-85184504D01*
X47895000Y-85160000D01*
X47895000Y-84360000D01*
X47896204Y-84335496D01*
X47899804Y-84311227D01*
X47905765Y-84287429D01*
X47914030Y-84264329D01*
X47924520Y-84242151D01*
X47937133Y-84221107D01*
X47951747Y-84201402D01*
X47968223Y-84183223D01*
X47986402Y-84166747D01*
X48006107Y-84152133D01*
X48027151Y-84139520D01*
X48049329Y-84129030D01*
X48072429Y-84120765D01*
X48096227Y-84114804D01*
X48120496Y-84111204D01*
X48145000Y-84110000D01*
X50295000Y-84110000D01*
X50319504Y-84111204D01*
X50319504Y-84111204D01*
G37*
D11*
X49220000Y-84760000D03*
D10*
G36*
X50319504Y-81011204D02*
G01*
X50343773Y-81014804D01*
X50367571Y-81020765D01*
X50390671Y-81029030D01*
X50412849Y-81039520D01*
X50433893Y-81052133D01*
X50453598Y-81066747D01*
X50471777Y-81083223D01*
X50488253Y-81101402D01*
X50502867Y-81121107D01*
X50515480Y-81142151D01*
X50525970Y-81164329D01*
X50534235Y-81187429D01*
X50540196Y-81211227D01*
X50543796Y-81235496D01*
X50545000Y-81260000D01*
X50545000Y-82060000D01*
X50543796Y-82084504D01*
X50540196Y-82108773D01*
X50534235Y-82132571D01*
X50525970Y-82155671D01*
X50515480Y-82177849D01*
X50502867Y-82198893D01*
X50488253Y-82218598D01*
X50471777Y-82236777D01*
X50453598Y-82253253D01*
X50433893Y-82267867D01*
X50412849Y-82280480D01*
X50390671Y-82290970D01*
X50367571Y-82299235D01*
X50343773Y-82305196D01*
X50319504Y-82308796D01*
X50295000Y-82310000D01*
X48145000Y-82310000D01*
X48120496Y-82308796D01*
X48096227Y-82305196D01*
X48072429Y-82299235D01*
X48049329Y-82290970D01*
X48027151Y-82280480D01*
X48006107Y-82267867D01*
X47986402Y-82253253D01*
X47968223Y-82236777D01*
X47951747Y-82218598D01*
X47937133Y-82198893D01*
X47924520Y-82177849D01*
X47914030Y-82155671D01*
X47905765Y-82132571D01*
X47899804Y-82108773D01*
X47896204Y-82084504D01*
X47895000Y-82060000D01*
X47895000Y-81260000D01*
X47896204Y-81235496D01*
X47899804Y-81211227D01*
X47905765Y-81187429D01*
X47914030Y-81164329D01*
X47924520Y-81142151D01*
X47937133Y-81121107D01*
X47951747Y-81101402D01*
X47968223Y-81083223D01*
X47986402Y-81066747D01*
X48006107Y-81052133D01*
X48027151Y-81039520D01*
X48049329Y-81029030D01*
X48072429Y-81020765D01*
X48096227Y-81014804D01*
X48120496Y-81011204D01*
X48145000Y-81010000D01*
X50295000Y-81010000D01*
X50319504Y-81011204D01*
X50319504Y-81011204D01*
G37*
D11*
X49220000Y-81660000D03*
%TD*%
D10*
%TO.C,R2*%
G36*
X71299504Y-87231204D02*
G01*
X71323773Y-87234804D01*
X71347571Y-87240765D01*
X71370671Y-87249030D01*
X71392849Y-87259520D01*
X71413893Y-87272133D01*
X71433598Y-87286747D01*
X71451777Y-87303223D01*
X71468253Y-87321402D01*
X71482867Y-87341107D01*
X71495480Y-87362151D01*
X71505970Y-87384329D01*
X71514235Y-87407429D01*
X71520196Y-87431227D01*
X71523796Y-87455496D01*
X71525000Y-87480000D01*
X71525000Y-88280000D01*
X71523796Y-88304504D01*
X71520196Y-88328773D01*
X71514235Y-88352571D01*
X71505970Y-88375671D01*
X71495480Y-88397849D01*
X71482867Y-88418893D01*
X71468253Y-88438598D01*
X71451777Y-88456777D01*
X71433598Y-88473253D01*
X71413893Y-88487867D01*
X71392849Y-88500480D01*
X71370671Y-88510970D01*
X71347571Y-88519235D01*
X71323773Y-88525196D01*
X71299504Y-88528796D01*
X71275000Y-88530000D01*
X69125000Y-88530000D01*
X69100496Y-88528796D01*
X69076227Y-88525196D01*
X69052429Y-88519235D01*
X69029329Y-88510970D01*
X69007151Y-88500480D01*
X68986107Y-88487867D01*
X68966402Y-88473253D01*
X68948223Y-88456777D01*
X68931747Y-88438598D01*
X68917133Y-88418893D01*
X68904520Y-88397849D01*
X68894030Y-88375671D01*
X68885765Y-88352571D01*
X68879804Y-88328773D01*
X68876204Y-88304504D01*
X68875000Y-88280000D01*
X68875000Y-87480000D01*
X68876204Y-87455496D01*
X68879804Y-87431227D01*
X68885765Y-87407429D01*
X68894030Y-87384329D01*
X68904520Y-87362151D01*
X68917133Y-87341107D01*
X68931747Y-87321402D01*
X68948223Y-87303223D01*
X68966402Y-87286747D01*
X68986107Y-87272133D01*
X69007151Y-87259520D01*
X69029329Y-87249030D01*
X69052429Y-87240765D01*
X69076227Y-87234804D01*
X69100496Y-87231204D01*
X69125000Y-87230000D01*
X71275000Y-87230000D01*
X71299504Y-87231204D01*
X71299504Y-87231204D01*
G37*
D11*
X70200000Y-87880000D03*
D10*
G36*
X71299504Y-90331204D02*
G01*
X71323773Y-90334804D01*
X71347571Y-90340765D01*
X71370671Y-90349030D01*
X71392849Y-90359520D01*
X71413893Y-90372133D01*
X71433598Y-90386747D01*
X71451777Y-90403223D01*
X71468253Y-90421402D01*
X71482867Y-90441107D01*
X71495480Y-90462151D01*
X71505970Y-90484329D01*
X71514235Y-90507429D01*
X71520196Y-90531227D01*
X71523796Y-90555496D01*
X71525000Y-90580000D01*
X71525000Y-91380000D01*
X71523796Y-91404504D01*
X71520196Y-91428773D01*
X71514235Y-91452571D01*
X71505970Y-91475671D01*
X71495480Y-91497849D01*
X71482867Y-91518893D01*
X71468253Y-91538598D01*
X71451777Y-91556777D01*
X71433598Y-91573253D01*
X71413893Y-91587867D01*
X71392849Y-91600480D01*
X71370671Y-91610970D01*
X71347571Y-91619235D01*
X71323773Y-91625196D01*
X71299504Y-91628796D01*
X71275000Y-91630000D01*
X69125000Y-91630000D01*
X69100496Y-91628796D01*
X69076227Y-91625196D01*
X69052429Y-91619235D01*
X69029329Y-91610970D01*
X69007151Y-91600480D01*
X68986107Y-91587867D01*
X68966402Y-91573253D01*
X68948223Y-91556777D01*
X68931747Y-91538598D01*
X68917133Y-91518893D01*
X68904520Y-91497849D01*
X68894030Y-91475671D01*
X68885765Y-91452571D01*
X68879804Y-91428773D01*
X68876204Y-91404504D01*
X68875000Y-91380000D01*
X68875000Y-90580000D01*
X68876204Y-90555496D01*
X68879804Y-90531227D01*
X68885765Y-90507429D01*
X68894030Y-90484329D01*
X68904520Y-90462151D01*
X68917133Y-90441107D01*
X68931747Y-90421402D01*
X68948223Y-90403223D01*
X68966402Y-90386747D01*
X68986107Y-90372133D01*
X69007151Y-90359520D01*
X69029329Y-90349030D01*
X69052429Y-90340765D01*
X69076227Y-90334804D01*
X69100496Y-90331204D01*
X69125000Y-90330000D01*
X71275000Y-90330000D01*
X71299504Y-90331204D01*
X71299504Y-90331204D01*
G37*
D11*
X70200000Y-90980000D03*
%TD*%
D10*
%TO.C,R4*%
G36*
X71544504Y-55666204D02*
G01*
X71568773Y-55669804D01*
X71592571Y-55675765D01*
X71615671Y-55684030D01*
X71637849Y-55694520D01*
X71658893Y-55707133D01*
X71678598Y-55721747D01*
X71696777Y-55738223D01*
X71713253Y-55756402D01*
X71727867Y-55776107D01*
X71740480Y-55797151D01*
X71750970Y-55819329D01*
X71759235Y-55842429D01*
X71765196Y-55866227D01*
X71768796Y-55890496D01*
X71770000Y-55915000D01*
X71770000Y-58065000D01*
X71768796Y-58089504D01*
X71765196Y-58113773D01*
X71759235Y-58137571D01*
X71750970Y-58160671D01*
X71740480Y-58182849D01*
X71727867Y-58203893D01*
X71713253Y-58223598D01*
X71696777Y-58241777D01*
X71678598Y-58258253D01*
X71658893Y-58272867D01*
X71637849Y-58285480D01*
X71615671Y-58295970D01*
X71592571Y-58304235D01*
X71568773Y-58310196D01*
X71544504Y-58313796D01*
X71520000Y-58315000D01*
X70720000Y-58315000D01*
X70695496Y-58313796D01*
X70671227Y-58310196D01*
X70647429Y-58304235D01*
X70624329Y-58295970D01*
X70602151Y-58285480D01*
X70581107Y-58272867D01*
X70561402Y-58258253D01*
X70543223Y-58241777D01*
X70526747Y-58223598D01*
X70512133Y-58203893D01*
X70499520Y-58182849D01*
X70489030Y-58160671D01*
X70480765Y-58137571D01*
X70474804Y-58113773D01*
X70471204Y-58089504D01*
X70470000Y-58065000D01*
X70470000Y-55915000D01*
X70471204Y-55890496D01*
X70474804Y-55866227D01*
X70480765Y-55842429D01*
X70489030Y-55819329D01*
X70499520Y-55797151D01*
X70512133Y-55776107D01*
X70526747Y-55756402D01*
X70543223Y-55738223D01*
X70561402Y-55721747D01*
X70581107Y-55707133D01*
X70602151Y-55694520D01*
X70624329Y-55684030D01*
X70647429Y-55675765D01*
X70671227Y-55669804D01*
X70695496Y-55666204D01*
X70720000Y-55665000D01*
X71520000Y-55665000D01*
X71544504Y-55666204D01*
X71544504Y-55666204D01*
G37*
D11*
X71120000Y-56990000D03*
D10*
G36*
X74644504Y-55666204D02*
G01*
X74668773Y-55669804D01*
X74692571Y-55675765D01*
X74715671Y-55684030D01*
X74737849Y-55694520D01*
X74758893Y-55707133D01*
X74778598Y-55721747D01*
X74796777Y-55738223D01*
X74813253Y-55756402D01*
X74827867Y-55776107D01*
X74840480Y-55797151D01*
X74850970Y-55819329D01*
X74859235Y-55842429D01*
X74865196Y-55866227D01*
X74868796Y-55890496D01*
X74870000Y-55915000D01*
X74870000Y-58065000D01*
X74868796Y-58089504D01*
X74865196Y-58113773D01*
X74859235Y-58137571D01*
X74850970Y-58160671D01*
X74840480Y-58182849D01*
X74827867Y-58203893D01*
X74813253Y-58223598D01*
X74796777Y-58241777D01*
X74778598Y-58258253D01*
X74758893Y-58272867D01*
X74737849Y-58285480D01*
X74715671Y-58295970D01*
X74692571Y-58304235D01*
X74668773Y-58310196D01*
X74644504Y-58313796D01*
X74620000Y-58315000D01*
X73820000Y-58315000D01*
X73795496Y-58313796D01*
X73771227Y-58310196D01*
X73747429Y-58304235D01*
X73724329Y-58295970D01*
X73702151Y-58285480D01*
X73681107Y-58272867D01*
X73661402Y-58258253D01*
X73643223Y-58241777D01*
X73626747Y-58223598D01*
X73612133Y-58203893D01*
X73599520Y-58182849D01*
X73589030Y-58160671D01*
X73580765Y-58137571D01*
X73574804Y-58113773D01*
X73571204Y-58089504D01*
X73570000Y-58065000D01*
X73570000Y-55915000D01*
X73571204Y-55890496D01*
X73574804Y-55866227D01*
X73580765Y-55842429D01*
X73589030Y-55819329D01*
X73599520Y-55797151D01*
X73612133Y-55776107D01*
X73626747Y-55756402D01*
X73643223Y-55738223D01*
X73661402Y-55721747D01*
X73681107Y-55707133D01*
X73702151Y-55694520D01*
X73724329Y-55684030D01*
X73747429Y-55675765D01*
X73771227Y-55669804D01*
X73795496Y-55666204D01*
X73820000Y-55665000D01*
X74620000Y-55665000D01*
X74644504Y-55666204D01*
X74644504Y-55666204D01*
G37*
D11*
X74220000Y-56990000D03*
%TD*%
D15*
%TO.C,P3*%
X84950000Y-52160000D03*
D16*
X82410000Y-52160000D03*
%TD*%
D19*
%TO.C,P1*%
X89400000Y-89120000D03*
X89400000Y-91660000D03*
X89400000Y-94200000D03*
X89400000Y-96740000D03*
X89400000Y-99280000D03*
X89400000Y-101820000D03*
%TD*%
D13*
%TO.C,D1*%
X60030000Y-52730000D03*
D12*
X62570000Y-52730000D03*
%TD*%
%TO.C,D2*%
X59510000Y-57480000D03*
D13*
X56970000Y-57480000D03*
%TD*%
%TO.C,D3*%
X53690000Y-62520000D03*
D12*
X56230000Y-62520000D03*
%TD*%
%TO.C,D4*%
X52710000Y-67600000D03*
D13*
X50170000Y-67600000D03*
%TD*%
%TO.C,D20*%
X83280000Y-68280000D03*
D12*
X85820000Y-68280000D03*
%TD*%
D13*
%TO.C,D22*%
X80970000Y-62960000D03*
D12*
X83510000Y-62960000D03*
%TD*%
%TO.C,D23*%
X78610000Y-63060000D03*
D13*
X76070000Y-63060000D03*
%TD*%
D12*
%TO.C,D24*%
X73440000Y-63010000D03*
D13*
X70900000Y-63010000D03*
%TD*%
%TO.C,D25*%
X65480000Y-63070000D03*
D12*
X68020000Y-63070000D03*
%TD*%
%TO.C,D26*%
X62400000Y-63060000D03*
D13*
X59860000Y-63060000D03*
%TD*%
%TO.C,D27*%
X61980000Y-57660000D03*
D12*
X64520000Y-57660000D03*
%TD*%
%TO.C,D28*%
X66220000Y-51340000D03*
D13*
X66220000Y-53880000D03*
%TD*%
M02*
