%TF.GenerationSoftware,KiCad,Pcbnew,(5.1.4)-1*%
%TF.CreationDate,2021-08-29T09:46:42+03:00*%
%TF.ProjectId,ark,61726b2e-6b69-4636-9164-5f7063625858,rev?*%
%TF.SameCoordinates,Original*%
%TF.FileFunction,Copper,L1,Top*%
%TF.FilePolarity,Positive*%
%FSLAX46Y46*%
G04 Gerber Fmt 4.6, Leading zero omitted, Abs format (unit mm)*
G04 Created by KiCad (PCBNEW (5.1.4)-1) date 2021-08-29 09:46:42*
%MOMM*%
%LPD*%
G04 APERTURE LIST*
%TA.AperFunction,NonConductor*%
%ADD10C,0.300000*%
%TD*%
%TA.AperFunction,SMDPad,CuDef*%
%ADD11R,1.524000X1.524000*%
%TD*%
%TA.AperFunction,ComponentPad*%
%ADD12R,1.700000X1.700000*%
%TD*%
%TA.AperFunction,ComponentPad*%
%ADD13O,1.700000X1.700000*%
%TD*%
%TA.AperFunction,SMDPad,CuDef*%
%ADD14R,1.750000X0.600000*%
%TD*%
%TA.AperFunction,ComponentPad*%
%ADD15R,1.800000X1.800000*%
%TD*%
%TA.AperFunction,ComponentPad*%
%ADD16C,1.800000*%
%TD*%
%TA.AperFunction,Conductor*%
%ADD17C,0.150000*%
%TD*%
%TA.AperFunction,SMDPad,CuDef*%
%ADD18C,2.250000*%
%TD*%
%TA.AperFunction,SMDPad,CuDef*%
%ADD19C,1.300000*%
%TD*%
%TA.AperFunction,ViaPad*%
%ADD20C,1.400000*%
%TD*%
%TA.AperFunction,Conductor*%
%ADD21C,0.400000*%
%TD*%
%TA.AperFunction,Conductor*%
%ADD22C,0.254000*%
%TD*%
G04 APERTURE END LIST*
D10*
X119983285Y-30674571D02*
X119269000Y-30674571D01*
X119197571Y-31388857D01*
X119269000Y-31317428D01*
X119411857Y-31246000D01*
X119769000Y-31246000D01*
X119911857Y-31317428D01*
X119983285Y-31388857D01*
X120054714Y-31531714D01*
X120054714Y-31888857D01*
X119983285Y-32031714D01*
X119911857Y-32103142D01*
X119769000Y-32174571D01*
X119411857Y-32174571D01*
X119269000Y-32103142D01*
X119197571Y-32031714D01*
X120483285Y-30674571D02*
X120983285Y-32174571D01*
X121483285Y-30674571D01*
D11*
%TO.P,P1,6*%
%TO.N,Net-(IC1-Pad10)*%
X250040000Y-156360000D03*
%TO.P,P1,5*%
%TO.N,GND*%
X252580000Y-156360000D03*
%TO.P,P1,4*%
%TO.N,VCC*%
X255120000Y-156360000D03*
%TO.P,P1,3*%
%TO.N,Net-(D16-Pad1)*%
X257660000Y-156360000D03*
%TO.P,P1,2*%
%TO.N,Net-(IC1-Pad2)*%
X260200000Y-156360000D03*
%TO.P,P1,1*%
%TO.N,Net-(IC1-Pad1)*%
X262740000Y-156360000D03*
%TD*%
D12*
%TO.P,P3,1*%
%TO.N,GND*%
X276830000Y-156240000D03*
D13*
%TO.P,P3,2*%
%TO.N,VCC*%
X279370000Y-156240000D03*
%TD*%
D14*
%TO.P,IC1,20*%
%TO.N,Net-(IC1-Pad20)*%
X261415000Y-138805000D03*
%TO.P,IC1,19*%
%TO.N,Net-(IC1-Pad19)*%
X261415000Y-140075000D03*
%TO.P,IC1,18*%
%TO.N,Net-(IC1-Pad18)*%
X261415000Y-141345000D03*
%TO.P,IC1,17*%
%TO.N,Net-(IC1-Pad17)*%
X261415000Y-142615000D03*
%TO.P,IC1,16*%
%TO.N,GND*%
X261415000Y-143885000D03*
%TO.P,IC1,15*%
%TO.N,VCC*%
X261415000Y-145155000D03*
%TO.P,IC1,14*%
%TO.N,Net-(D1-Pad1)*%
X261415000Y-146425000D03*
%TO.P,IC1,13*%
%TO.N,Net-(D10-Pad1)*%
X261415000Y-147695000D03*
%TO.P,IC1,12*%
%TO.N,Net-(D11-Pad1)*%
X261415000Y-148965000D03*
%TO.P,IC1,11*%
%TO.N,Net-(D12-Pad1)*%
X261415000Y-150235000D03*
%TO.P,IC1,10*%
%TO.N,Net-(IC1-Pad10)*%
X251665000Y-150235000D03*
%TO.P,IC1,9*%
%TO.N,Net-(IC1-Pad9)*%
X251665000Y-148965000D03*
%TO.P,IC1,8*%
%TO.N,Net-(D15-Pad1)*%
X251665000Y-147695000D03*
%TO.P,IC1,7*%
%TO.N,Net-(D14-Pad1)*%
X251665000Y-146425000D03*
%TO.P,IC1,1*%
%TO.N,Net-(IC1-Pad1)*%
X251665000Y-138805000D03*
%TO.P,IC1,2*%
%TO.N,Net-(IC1-Pad2)*%
X251665000Y-140075000D03*
%TO.P,IC1,3*%
%TO.N,Net-(D16-Pad1)*%
X251665000Y-141345000D03*
%TO.P,IC1,4*%
%TO.N,Net-(D13-Pad1)*%
X251665000Y-142615000D03*
%TO.P,IC1,5*%
%TO.N,VCC*%
X251665000Y-143885000D03*
%TO.P,IC1,6*%
%TO.N,GND*%
X251665000Y-145155000D03*
%TD*%
D15*
%TO.P,D29,1*%
%TO.N,Net-(D13-Pad1)*%
X237270000Y-132090000D03*
D16*
%TO.P,D29,2*%
%TO.N,Net-(D25-Pad2)*%
X234730000Y-132090000D03*
%TD*%
D15*
%TO.P,D9,1*%
%TO.N,Net-(D1-Pad1)*%
X265580000Y-109280000D03*
D16*
%TO.P,D9,2*%
%TO.N,Net-(D10-Pad2)*%
X268120000Y-109280000D03*
%TD*%
%TO.P,D11,2*%
%TO.N,Net-(D10-Pad2)*%
X285100000Y-120130000D03*
D15*
%TO.P,D11,1*%
%TO.N,Net-(D11-Pad1)*%
X282560000Y-120130000D03*
%TD*%
%TO.P,D12,1*%
%TO.N,Net-(D12-Pad1)*%
X282560000Y-131690000D03*
D16*
%TO.P,D12,2*%
%TO.N,Net-(D10-Pad2)*%
X285100000Y-131690000D03*
%TD*%
%TO.P,D13,2*%
%TO.N,Net-(D10-Pad2)*%
X285100000Y-143620000D03*
D15*
%TO.P,D13,1*%
%TO.N,Net-(D13-Pad1)*%
X282560000Y-143620000D03*
%TD*%
D16*
%TO.P,D16,2*%
%TO.N,Net-(D10-Pad2)*%
X265960000Y-142200000D03*
D15*
%TO.P,D16,1*%
%TO.N,Net-(D16-Pad1)*%
X268500000Y-142200000D03*
%TD*%
%TO.P,D7,1*%
%TO.N,Net-(D15-Pad1)*%
X254280000Y-104770000D03*
D16*
%TO.P,D7,2*%
%TO.N,Net-(D1-Pad2)*%
X251740000Y-104770000D03*
%TD*%
%TO.P,D6,2*%
%TO.N,Net-(D1-Pad2)*%
X244440000Y-109280000D03*
D15*
%TO.P,D6,1*%
%TO.N,Net-(D14-Pad1)*%
X246980000Y-109280000D03*
%TD*%
D16*
%TO.P,D1,2*%
%TO.N,Net-(D1-Pad2)*%
X227660000Y-156130000D03*
D15*
%TO.P,D1,1*%
%TO.N,Net-(D1-Pad1)*%
X230200000Y-156130000D03*
%TD*%
%TO.P,D3,1*%
%TO.N,Net-(D11-Pad1)*%
X230150000Y-131370000D03*
D16*
%TO.P,D3,2*%
%TO.N,Net-(D1-Pad2)*%
X227610000Y-131370000D03*
%TD*%
%TO.P,D4,2*%
%TO.N,Net-(D1-Pad2)*%
X227630000Y-119960000D03*
D15*
%TO.P,D4,1*%
%TO.N,Net-(D12-Pad1)*%
X230170000Y-119960000D03*
%TD*%
%TO.P,D2,1*%
%TO.N,Net-(D10-Pad1)*%
X230210000Y-143610000D03*
D16*
%TO.P,D2,2*%
%TO.N,Net-(D1-Pad2)*%
X227670000Y-143610000D03*
%TD*%
D15*
%TO.P,D5,1*%
%TO.N,Net-(D13-Pad1)*%
X238970000Y-114430000D03*
D16*
%TO.P,D5,2*%
%TO.N,Net-(D1-Pad2)*%
X236430000Y-114430000D03*
%TD*%
D15*
%TO.P,D14,1*%
%TO.N,Net-(D14-Pad1)*%
X282640000Y-156310000D03*
D16*
%TO.P,D14,2*%
%TO.N,Net-(D10-Pad2)*%
X285180000Y-156310000D03*
%TD*%
D17*
%TO.N,VCC*%
%TO.C,C1*%
G36*
X274159505Y-150156204D02*
G01*
X274183773Y-150159804D01*
X274207572Y-150165765D01*
X274230671Y-150174030D01*
X274252850Y-150184520D01*
X274273893Y-150197132D01*
X274293599Y-150211747D01*
X274311777Y-150228223D01*
X274328253Y-150246401D01*
X274342868Y-150266107D01*
X274355480Y-150287150D01*
X274365970Y-150309329D01*
X274374235Y-150332428D01*
X274380196Y-150356227D01*
X274383796Y-150380495D01*
X274385000Y-150404999D01*
X274385000Y-152155001D01*
X274383796Y-152179505D01*
X274380196Y-152203773D01*
X274374235Y-152227572D01*
X274365970Y-152250671D01*
X274355480Y-152272850D01*
X274342868Y-152293893D01*
X274328253Y-152313599D01*
X274311777Y-152331777D01*
X274293599Y-152348253D01*
X274273893Y-152362868D01*
X274252850Y-152375480D01*
X274230671Y-152385970D01*
X274207572Y-152394235D01*
X274183773Y-152400196D01*
X274159505Y-152403796D01*
X274135001Y-152405000D01*
X272284999Y-152405000D01*
X272260495Y-152403796D01*
X272236227Y-152400196D01*
X272212428Y-152394235D01*
X272189329Y-152385970D01*
X272167150Y-152375480D01*
X272146107Y-152362868D01*
X272126401Y-152348253D01*
X272108223Y-152331777D01*
X272091747Y-152313599D01*
X272077132Y-152293893D01*
X272064520Y-152272850D01*
X272054030Y-152250671D01*
X272045765Y-152227572D01*
X272039804Y-152203773D01*
X272036204Y-152179505D01*
X272035000Y-152155001D01*
X272035000Y-150404999D01*
X272036204Y-150380495D01*
X272039804Y-150356227D01*
X272045765Y-150332428D01*
X272054030Y-150309329D01*
X272064520Y-150287150D01*
X272077132Y-150266107D01*
X272091747Y-150246401D01*
X272108223Y-150228223D01*
X272126401Y-150211747D01*
X272146107Y-150197132D01*
X272167150Y-150184520D01*
X272189329Y-150174030D01*
X272212428Y-150165765D01*
X272236227Y-150159804D01*
X272260495Y-150156204D01*
X272284999Y-150155000D01*
X274135001Y-150155000D01*
X274159505Y-150156204D01*
X274159505Y-150156204D01*
G37*
D18*
%TD*%
%TO.P,C1,1*%
%TO.N,VCC*%
X273210000Y-151280000D03*
D17*
%TO.N,GND*%
%TO.C,C1*%
G36*
X274159505Y-155256204D02*
G01*
X274183773Y-155259804D01*
X274207572Y-155265765D01*
X274230671Y-155274030D01*
X274252850Y-155284520D01*
X274273893Y-155297132D01*
X274293599Y-155311747D01*
X274311777Y-155328223D01*
X274328253Y-155346401D01*
X274342868Y-155366107D01*
X274355480Y-155387150D01*
X274365970Y-155409329D01*
X274374235Y-155432428D01*
X274380196Y-155456227D01*
X274383796Y-155480495D01*
X274385000Y-155504999D01*
X274385000Y-157255001D01*
X274383796Y-157279505D01*
X274380196Y-157303773D01*
X274374235Y-157327572D01*
X274365970Y-157350671D01*
X274355480Y-157372850D01*
X274342868Y-157393893D01*
X274328253Y-157413599D01*
X274311777Y-157431777D01*
X274293599Y-157448253D01*
X274273893Y-157462868D01*
X274252850Y-157475480D01*
X274230671Y-157485970D01*
X274207572Y-157494235D01*
X274183773Y-157500196D01*
X274159505Y-157503796D01*
X274135001Y-157505000D01*
X272284999Y-157505000D01*
X272260495Y-157503796D01*
X272236227Y-157500196D01*
X272212428Y-157494235D01*
X272189329Y-157485970D01*
X272167150Y-157475480D01*
X272146107Y-157462868D01*
X272126401Y-157448253D01*
X272108223Y-157431777D01*
X272091747Y-157413599D01*
X272077132Y-157393893D01*
X272064520Y-157372850D01*
X272054030Y-157350671D01*
X272045765Y-157327572D01*
X272039804Y-157303773D01*
X272036204Y-157279505D01*
X272035000Y-157255001D01*
X272035000Y-155504999D01*
X272036204Y-155480495D01*
X272039804Y-155456227D01*
X272045765Y-155432428D01*
X272054030Y-155409329D01*
X272064520Y-155387150D01*
X272077132Y-155366107D01*
X272091747Y-155346401D01*
X272108223Y-155328223D01*
X272126401Y-155311747D01*
X272146107Y-155297132D01*
X272167150Y-155284520D01*
X272189329Y-155274030D01*
X272212428Y-155265765D01*
X272236227Y-155259804D01*
X272260495Y-155256204D01*
X272284999Y-155255000D01*
X274135001Y-155255000D01*
X274159505Y-155256204D01*
X274159505Y-155256204D01*
G37*
D18*
%TD*%
%TO.P,C1,2*%
%TO.N,GND*%
X273210000Y-156380000D03*
D17*
%TO.N,Net-(IC1-Pad20)*%
%TO.C,R1*%
G36*
X239644504Y-151096204D02*
G01*
X239668773Y-151099804D01*
X239692571Y-151105765D01*
X239715671Y-151114030D01*
X239737849Y-151124520D01*
X239758893Y-151137133D01*
X239778598Y-151151747D01*
X239796777Y-151168223D01*
X239813253Y-151186402D01*
X239827867Y-151206107D01*
X239840480Y-151227151D01*
X239850970Y-151249329D01*
X239859235Y-151272429D01*
X239865196Y-151296227D01*
X239868796Y-151320496D01*
X239870000Y-151345000D01*
X239870000Y-153495000D01*
X239868796Y-153519504D01*
X239865196Y-153543773D01*
X239859235Y-153567571D01*
X239850970Y-153590671D01*
X239840480Y-153612849D01*
X239827867Y-153633893D01*
X239813253Y-153653598D01*
X239796777Y-153671777D01*
X239778598Y-153688253D01*
X239758893Y-153702867D01*
X239737849Y-153715480D01*
X239715671Y-153725970D01*
X239692571Y-153734235D01*
X239668773Y-153740196D01*
X239644504Y-153743796D01*
X239620000Y-153745000D01*
X238820000Y-153745000D01*
X238795496Y-153743796D01*
X238771227Y-153740196D01*
X238747429Y-153734235D01*
X238724329Y-153725970D01*
X238702151Y-153715480D01*
X238681107Y-153702867D01*
X238661402Y-153688253D01*
X238643223Y-153671777D01*
X238626747Y-153653598D01*
X238612133Y-153633893D01*
X238599520Y-153612849D01*
X238589030Y-153590671D01*
X238580765Y-153567571D01*
X238574804Y-153543773D01*
X238571204Y-153519504D01*
X238570000Y-153495000D01*
X238570000Y-151345000D01*
X238571204Y-151320496D01*
X238574804Y-151296227D01*
X238580765Y-151272429D01*
X238589030Y-151249329D01*
X238599520Y-151227151D01*
X238612133Y-151206107D01*
X238626747Y-151186402D01*
X238643223Y-151168223D01*
X238661402Y-151151747D01*
X238681107Y-151137133D01*
X238702151Y-151124520D01*
X238724329Y-151114030D01*
X238747429Y-151105765D01*
X238771227Y-151099804D01*
X238795496Y-151096204D01*
X238820000Y-151095000D01*
X239620000Y-151095000D01*
X239644504Y-151096204D01*
X239644504Y-151096204D01*
G37*
D19*
%TD*%
%TO.P,R1,1*%
%TO.N,Net-(IC1-Pad20)*%
X239220000Y-152420000D03*
D17*
%TO.N,Net-(D1-Pad2)*%
%TO.C,R1*%
G36*
X236544504Y-151096204D02*
G01*
X236568773Y-151099804D01*
X236592571Y-151105765D01*
X236615671Y-151114030D01*
X236637849Y-151124520D01*
X236658893Y-151137133D01*
X236678598Y-151151747D01*
X236696777Y-151168223D01*
X236713253Y-151186402D01*
X236727867Y-151206107D01*
X236740480Y-151227151D01*
X236750970Y-151249329D01*
X236759235Y-151272429D01*
X236765196Y-151296227D01*
X236768796Y-151320496D01*
X236770000Y-151345000D01*
X236770000Y-153495000D01*
X236768796Y-153519504D01*
X236765196Y-153543773D01*
X236759235Y-153567571D01*
X236750970Y-153590671D01*
X236740480Y-153612849D01*
X236727867Y-153633893D01*
X236713253Y-153653598D01*
X236696777Y-153671777D01*
X236678598Y-153688253D01*
X236658893Y-153702867D01*
X236637849Y-153715480D01*
X236615671Y-153725970D01*
X236592571Y-153734235D01*
X236568773Y-153740196D01*
X236544504Y-153743796D01*
X236520000Y-153745000D01*
X235720000Y-153745000D01*
X235695496Y-153743796D01*
X235671227Y-153740196D01*
X235647429Y-153734235D01*
X235624329Y-153725970D01*
X235602151Y-153715480D01*
X235581107Y-153702867D01*
X235561402Y-153688253D01*
X235543223Y-153671777D01*
X235526747Y-153653598D01*
X235512133Y-153633893D01*
X235499520Y-153612849D01*
X235489030Y-153590671D01*
X235480765Y-153567571D01*
X235474804Y-153543773D01*
X235471204Y-153519504D01*
X235470000Y-153495000D01*
X235470000Y-151345000D01*
X235471204Y-151320496D01*
X235474804Y-151296227D01*
X235480765Y-151272429D01*
X235489030Y-151249329D01*
X235499520Y-151227151D01*
X235512133Y-151206107D01*
X235526747Y-151186402D01*
X235543223Y-151168223D01*
X235561402Y-151151747D01*
X235581107Y-151137133D01*
X235602151Y-151124520D01*
X235624329Y-151114030D01*
X235647429Y-151105765D01*
X235671227Y-151099804D01*
X235695496Y-151096204D01*
X235720000Y-151095000D01*
X236520000Y-151095000D01*
X236544504Y-151096204D01*
X236544504Y-151096204D01*
G37*
D19*
%TD*%
%TO.P,R1,2*%
%TO.N,Net-(D1-Pad2)*%
X236120000Y-152420000D03*
D17*
%TO.N,Net-(D10-Pad2)*%
%TO.C,R2*%
G36*
X274487817Y-144734237D02*
G01*
X274512086Y-144737837D01*
X274535884Y-144743798D01*
X274558984Y-144752063D01*
X274581162Y-144762553D01*
X274602206Y-144775166D01*
X274621911Y-144789780D01*
X274640090Y-144806256D01*
X275205776Y-145371942D01*
X275222252Y-145390121D01*
X275236866Y-145409826D01*
X275249479Y-145430870D01*
X275259969Y-145453048D01*
X275268234Y-145476148D01*
X275274195Y-145499946D01*
X275277795Y-145524215D01*
X275278999Y-145548719D01*
X275277795Y-145573223D01*
X275274195Y-145597492D01*
X275268234Y-145621290D01*
X275259969Y-145644390D01*
X275249479Y-145666568D01*
X275236866Y-145687612D01*
X275222252Y-145707317D01*
X275205776Y-145725496D01*
X273685496Y-147245776D01*
X273667317Y-147262252D01*
X273647612Y-147276866D01*
X273626568Y-147289479D01*
X273604390Y-147299969D01*
X273581290Y-147308234D01*
X273557492Y-147314195D01*
X273533223Y-147317795D01*
X273508719Y-147318999D01*
X273484215Y-147317795D01*
X273459946Y-147314195D01*
X273436148Y-147308234D01*
X273413048Y-147299969D01*
X273390870Y-147289479D01*
X273369826Y-147276866D01*
X273350121Y-147262252D01*
X273331942Y-147245776D01*
X272766256Y-146680090D01*
X272749780Y-146661911D01*
X272735166Y-146642206D01*
X272722553Y-146621162D01*
X272712063Y-146598984D01*
X272703798Y-146575884D01*
X272697837Y-146552086D01*
X272694237Y-146527817D01*
X272693033Y-146503313D01*
X272694237Y-146478809D01*
X272697837Y-146454540D01*
X272703798Y-146430742D01*
X272712063Y-146407642D01*
X272722553Y-146385464D01*
X272735166Y-146364420D01*
X272749780Y-146344715D01*
X272766256Y-146326536D01*
X274286536Y-144806256D01*
X274304715Y-144789780D01*
X274324420Y-144775166D01*
X274345464Y-144762553D01*
X274367642Y-144752063D01*
X274390742Y-144743798D01*
X274414540Y-144737837D01*
X274438809Y-144734237D01*
X274463313Y-144733033D01*
X274487817Y-144734237D01*
X274487817Y-144734237D01*
G37*
D19*
%TD*%
%TO.P,R2,2*%
%TO.N,Net-(D10-Pad2)*%
X273986016Y-146026016D03*
D17*
%TO.N,Net-(IC1-Pad19)*%
%TO.C,R2*%
G36*
X272295785Y-142542205D02*
G01*
X272320054Y-142545805D01*
X272343852Y-142551766D01*
X272366952Y-142560031D01*
X272389130Y-142570521D01*
X272410174Y-142583134D01*
X272429879Y-142597748D01*
X272448058Y-142614224D01*
X273013744Y-143179910D01*
X273030220Y-143198089D01*
X273044834Y-143217794D01*
X273057447Y-143238838D01*
X273067937Y-143261016D01*
X273076202Y-143284116D01*
X273082163Y-143307914D01*
X273085763Y-143332183D01*
X273086967Y-143356687D01*
X273085763Y-143381191D01*
X273082163Y-143405460D01*
X273076202Y-143429258D01*
X273067937Y-143452358D01*
X273057447Y-143474536D01*
X273044834Y-143495580D01*
X273030220Y-143515285D01*
X273013744Y-143533464D01*
X271493464Y-145053744D01*
X271475285Y-145070220D01*
X271455580Y-145084834D01*
X271434536Y-145097447D01*
X271412358Y-145107937D01*
X271389258Y-145116202D01*
X271365460Y-145122163D01*
X271341191Y-145125763D01*
X271316687Y-145126967D01*
X271292183Y-145125763D01*
X271267914Y-145122163D01*
X271244116Y-145116202D01*
X271221016Y-145107937D01*
X271198838Y-145097447D01*
X271177794Y-145084834D01*
X271158089Y-145070220D01*
X271139910Y-145053744D01*
X270574224Y-144488058D01*
X270557748Y-144469879D01*
X270543134Y-144450174D01*
X270530521Y-144429130D01*
X270520031Y-144406952D01*
X270511766Y-144383852D01*
X270505805Y-144360054D01*
X270502205Y-144335785D01*
X270501001Y-144311281D01*
X270502205Y-144286777D01*
X270505805Y-144262508D01*
X270511766Y-144238710D01*
X270520031Y-144215610D01*
X270530521Y-144193432D01*
X270543134Y-144172388D01*
X270557748Y-144152683D01*
X270574224Y-144134504D01*
X272094504Y-142614224D01*
X272112683Y-142597748D01*
X272132388Y-142583134D01*
X272153432Y-142570521D01*
X272175610Y-142560031D01*
X272198710Y-142551766D01*
X272222508Y-142545805D01*
X272246777Y-142542205D01*
X272271281Y-142541001D01*
X272295785Y-142542205D01*
X272295785Y-142542205D01*
G37*
D19*
%TD*%
%TO.P,R2,1*%
%TO.N,Net-(IC1-Pad19)*%
X271793984Y-143833984D03*
D17*
%TO.N,Net-(IC1-Pad18)*%
%TO.C,R3*%
G36*
X268439504Y-136921204D02*
G01*
X268463773Y-136924804D01*
X268487571Y-136930765D01*
X268510671Y-136939030D01*
X268532849Y-136949520D01*
X268553893Y-136962133D01*
X268573598Y-136976747D01*
X268591777Y-136993223D01*
X268608253Y-137011402D01*
X268622867Y-137031107D01*
X268635480Y-137052151D01*
X268645970Y-137074329D01*
X268654235Y-137097429D01*
X268660196Y-137121227D01*
X268663796Y-137145496D01*
X268665000Y-137170000D01*
X268665000Y-137970000D01*
X268663796Y-137994504D01*
X268660196Y-138018773D01*
X268654235Y-138042571D01*
X268645970Y-138065671D01*
X268635480Y-138087849D01*
X268622867Y-138108893D01*
X268608253Y-138128598D01*
X268591777Y-138146777D01*
X268573598Y-138163253D01*
X268553893Y-138177867D01*
X268532849Y-138190480D01*
X268510671Y-138200970D01*
X268487571Y-138209235D01*
X268463773Y-138215196D01*
X268439504Y-138218796D01*
X268415000Y-138220000D01*
X266265000Y-138220000D01*
X266240496Y-138218796D01*
X266216227Y-138215196D01*
X266192429Y-138209235D01*
X266169329Y-138200970D01*
X266147151Y-138190480D01*
X266126107Y-138177867D01*
X266106402Y-138163253D01*
X266088223Y-138146777D01*
X266071747Y-138128598D01*
X266057133Y-138108893D01*
X266044520Y-138087849D01*
X266034030Y-138065671D01*
X266025765Y-138042571D01*
X266019804Y-138018773D01*
X266016204Y-137994504D01*
X266015000Y-137970000D01*
X266015000Y-137170000D01*
X266016204Y-137145496D01*
X266019804Y-137121227D01*
X266025765Y-137097429D01*
X266034030Y-137074329D01*
X266044520Y-137052151D01*
X266057133Y-137031107D01*
X266071747Y-137011402D01*
X266088223Y-136993223D01*
X266106402Y-136976747D01*
X266126107Y-136962133D01*
X266147151Y-136949520D01*
X266169329Y-136939030D01*
X266192429Y-136930765D01*
X266216227Y-136924804D01*
X266240496Y-136921204D01*
X266265000Y-136920000D01*
X268415000Y-136920000D01*
X268439504Y-136921204D01*
X268439504Y-136921204D01*
G37*
D19*
%TD*%
%TO.P,R3,1*%
%TO.N,Net-(IC1-Pad18)*%
X267340000Y-137570000D03*
D17*
%TO.N,Net-(D17-Pad2)*%
%TO.C,R3*%
G36*
X268439504Y-133821204D02*
G01*
X268463773Y-133824804D01*
X268487571Y-133830765D01*
X268510671Y-133839030D01*
X268532849Y-133849520D01*
X268553893Y-133862133D01*
X268573598Y-133876747D01*
X268591777Y-133893223D01*
X268608253Y-133911402D01*
X268622867Y-133931107D01*
X268635480Y-133952151D01*
X268645970Y-133974329D01*
X268654235Y-133997429D01*
X268660196Y-134021227D01*
X268663796Y-134045496D01*
X268665000Y-134070000D01*
X268665000Y-134870000D01*
X268663796Y-134894504D01*
X268660196Y-134918773D01*
X268654235Y-134942571D01*
X268645970Y-134965671D01*
X268635480Y-134987849D01*
X268622867Y-135008893D01*
X268608253Y-135028598D01*
X268591777Y-135046777D01*
X268573598Y-135063253D01*
X268553893Y-135077867D01*
X268532849Y-135090480D01*
X268510671Y-135100970D01*
X268487571Y-135109235D01*
X268463773Y-135115196D01*
X268439504Y-135118796D01*
X268415000Y-135120000D01*
X266265000Y-135120000D01*
X266240496Y-135118796D01*
X266216227Y-135115196D01*
X266192429Y-135109235D01*
X266169329Y-135100970D01*
X266147151Y-135090480D01*
X266126107Y-135077867D01*
X266106402Y-135063253D01*
X266088223Y-135046777D01*
X266071747Y-135028598D01*
X266057133Y-135008893D01*
X266044520Y-134987849D01*
X266034030Y-134965671D01*
X266025765Y-134942571D01*
X266019804Y-134918773D01*
X266016204Y-134894504D01*
X266015000Y-134870000D01*
X266015000Y-134070000D01*
X266016204Y-134045496D01*
X266019804Y-134021227D01*
X266025765Y-133997429D01*
X266034030Y-133974329D01*
X266044520Y-133952151D01*
X266057133Y-133931107D01*
X266071747Y-133911402D01*
X266088223Y-133893223D01*
X266106402Y-133876747D01*
X266126107Y-133862133D01*
X266147151Y-133849520D01*
X266169329Y-133839030D01*
X266192429Y-133830765D01*
X266216227Y-133824804D01*
X266240496Y-133821204D01*
X266265000Y-133820000D01*
X268415000Y-133820000D01*
X268439504Y-133821204D01*
X268439504Y-133821204D01*
G37*
D19*
%TD*%
%TO.P,R3,2*%
%TO.N,Net-(D17-Pad2)*%
X267340000Y-134470000D03*
D17*
%TO.N,Net-(D25-Pad2)*%
%TO.C,R4*%
G36*
X257709504Y-126401204D02*
G01*
X257733773Y-126404804D01*
X257757571Y-126410765D01*
X257780671Y-126419030D01*
X257802849Y-126429520D01*
X257823893Y-126442133D01*
X257843598Y-126456747D01*
X257861777Y-126473223D01*
X257878253Y-126491402D01*
X257892867Y-126511107D01*
X257905480Y-126532151D01*
X257915970Y-126554329D01*
X257924235Y-126577429D01*
X257930196Y-126601227D01*
X257933796Y-126625496D01*
X257935000Y-126650000D01*
X257935000Y-127450000D01*
X257933796Y-127474504D01*
X257930196Y-127498773D01*
X257924235Y-127522571D01*
X257915970Y-127545671D01*
X257905480Y-127567849D01*
X257892867Y-127588893D01*
X257878253Y-127608598D01*
X257861777Y-127626777D01*
X257843598Y-127643253D01*
X257823893Y-127657867D01*
X257802849Y-127670480D01*
X257780671Y-127680970D01*
X257757571Y-127689235D01*
X257733773Y-127695196D01*
X257709504Y-127698796D01*
X257685000Y-127700000D01*
X255535000Y-127700000D01*
X255510496Y-127698796D01*
X255486227Y-127695196D01*
X255462429Y-127689235D01*
X255439329Y-127680970D01*
X255417151Y-127670480D01*
X255396107Y-127657867D01*
X255376402Y-127643253D01*
X255358223Y-127626777D01*
X255341747Y-127608598D01*
X255327133Y-127588893D01*
X255314520Y-127567849D01*
X255304030Y-127545671D01*
X255295765Y-127522571D01*
X255289804Y-127498773D01*
X255286204Y-127474504D01*
X255285000Y-127450000D01*
X255285000Y-126650000D01*
X255286204Y-126625496D01*
X255289804Y-126601227D01*
X255295765Y-126577429D01*
X255304030Y-126554329D01*
X255314520Y-126532151D01*
X255327133Y-126511107D01*
X255341747Y-126491402D01*
X255358223Y-126473223D01*
X255376402Y-126456747D01*
X255396107Y-126442133D01*
X255417151Y-126429520D01*
X255439329Y-126419030D01*
X255462429Y-126410765D01*
X255486227Y-126404804D01*
X255510496Y-126401204D01*
X255535000Y-126400000D01*
X257685000Y-126400000D01*
X257709504Y-126401204D01*
X257709504Y-126401204D01*
G37*
D19*
%TD*%
%TO.P,R4,2*%
%TO.N,Net-(D25-Pad2)*%
X256610000Y-127050000D03*
D17*
%TO.N,Net-(IC1-Pad17)*%
%TO.C,R4*%
G36*
X257709504Y-129501204D02*
G01*
X257733773Y-129504804D01*
X257757571Y-129510765D01*
X257780671Y-129519030D01*
X257802849Y-129529520D01*
X257823893Y-129542133D01*
X257843598Y-129556747D01*
X257861777Y-129573223D01*
X257878253Y-129591402D01*
X257892867Y-129611107D01*
X257905480Y-129632151D01*
X257915970Y-129654329D01*
X257924235Y-129677429D01*
X257930196Y-129701227D01*
X257933796Y-129725496D01*
X257935000Y-129750000D01*
X257935000Y-130550000D01*
X257933796Y-130574504D01*
X257930196Y-130598773D01*
X257924235Y-130622571D01*
X257915970Y-130645671D01*
X257905480Y-130667849D01*
X257892867Y-130688893D01*
X257878253Y-130708598D01*
X257861777Y-130726777D01*
X257843598Y-130743253D01*
X257823893Y-130757867D01*
X257802849Y-130770480D01*
X257780671Y-130780970D01*
X257757571Y-130789235D01*
X257733773Y-130795196D01*
X257709504Y-130798796D01*
X257685000Y-130800000D01*
X255535000Y-130800000D01*
X255510496Y-130798796D01*
X255486227Y-130795196D01*
X255462429Y-130789235D01*
X255439329Y-130780970D01*
X255417151Y-130770480D01*
X255396107Y-130757867D01*
X255376402Y-130743253D01*
X255358223Y-130726777D01*
X255341747Y-130708598D01*
X255327133Y-130688893D01*
X255314520Y-130667849D01*
X255304030Y-130645671D01*
X255295765Y-130622571D01*
X255289804Y-130598773D01*
X255286204Y-130574504D01*
X255285000Y-130550000D01*
X255285000Y-129750000D01*
X255286204Y-129725496D01*
X255289804Y-129701227D01*
X255295765Y-129677429D01*
X255304030Y-129654329D01*
X255314520Y-129632151D01*
X255327133Y-129611107D01*
X255341747Y-129591402D01*
X255358223Y-129573223D01*
X255376402Y-129556747D01*
X255396107Y-129542133D01*
X255417151Y-129529520D01*
X255439329Y-129519030D01*
X255462429Y-129510765D01*
X255486227Y-129504804D01*
X255510496Y-129501204D01*
X255535000Y-129500000D01*
X257685000Y-129500000D01*
X257709504Y-129501204D01*
X257709504Y-129501204D01*
G37*
D19*
%TD*%
%TO.P,R4,1*%
%TO.N,Net-(IC1-Pad17)*%
X256610000Y-130150000D03*
D15*
%TO.P,D15,1*%
%TO.N,Net-(D15-Pad1)*%
X268430000Y-156250000D03*
D16*
%TO.P,D15,2*%
%TO.N,Net-(D10-Pad2)*%
X265890000Y-156250000D03*
%TD*%
%TO.P,D17,2*%
%TO.N,Net-(D17-Pad2)*%
X275100000Y-141930000D03*
D15*
%TO.P,D17,1*%
%TO.N,Net-(D1-Pad1)*%
X277640000Y-141930000D03*
%TD*%
%TO.P,D18,1*%
%TO.N,Net-(D10-Pad1)*%
X277850000Y-132480000D03*
D16*
%TO.P,D18,2*%
%TO.N,Net-(D17-Pad2)*%
X275310000Y-132480000D03*
%TD*%
D15*
%TO.P,D19,1*%
%TO.N,Net-(D11-Pad1)*%
X277780000Y-123290000D03*
D16*
%TO.P,D19,2*%
%TO.N,Net-(D17-Pad2)*%
X275240000Y-123290000D03*
%TD*%
D15*
%TO.P,D20,1*%
%TO.N,Net-(D12-Pad1)*%
X269440000Y-123320000D03*
D16*
%TO.P,D20,2*%
%TO.N,Net-(D17-Pad2)*%
X266900000Y-123320000D03*
%TD*%
%TO.P,D21,2*%
%TO.N,Net-(D17-Pad2)*%
X266560000Y-131430000D03*
D15*
%TO.P,D21,1*%
%TO.N,Net-(D13-Pad1)*%
X269100000Y-131430000D03*
%TD*%
D16*
%TO.P,D22,2*%
%TO.N,Net-(D17-Pad2)*%
X259160000Y-131390000D03*
D15*
%TO.P,D22,1*%
%TO.N,Net-(D14-Pad1)*%
X261700000Y-131390000D03*
%TD*%
%TO.P,D23,1*%
%TO.N,Net-(D15-Pad1)*%
X261300000Y-123460000D03*
D16*
%TO.P,D23,2*%
%TO.N,Net-(D17-Pad2)*%
X258760000Y-123460000D03*
%TD*%
%TO.P,D24,2*%
%TO.N,Net-(D17-Pad2)*%
X251400000Y-123460000D03*
D15*
%TO.P,D24,1*%
%TO.N,Net-(D16-Pad1)*%
X253940000Y-123460000D03*
%TD*%
D16*
%TO.P,D25,2*%
%TO.N,Net-(D25-Pad2)*%
X250990000Y-131360000D03*
D15*
%TO.P,D25,1*%
%TO.N,Net-(D1-Pad1)*%
X253530000Y-131360000D03*
%TD*%
%TO.P,D26,1*%
%TO.N,Net-(D10-Pad1)*%
X245890000Y-131360000D03*
D16*
%TO.P,D26,2*%
%TO.N,Net-(D25-Pad2)*%
X243350000Y-131360000D03*
%TD*%
D15*
%TO.P,D27,1*%
%TO.N,Net-(D11-Pad1)*%
X245630000Y-123290000D03*
D16*
%TO.P,D27,2*%
%TO.N,Net-(D25-Pad2)*%
X243090000Y-123290000D03*
%TD*%
%TO.P,D30,2*%
%TO.N,Net-(D25-Pad2)*%
X234750000Y-141890000D03*
D15*
%TO.P,D30,1*%
%TO.N,Net-(D14-Pad1)*%
X237290000Y-141890000D03*
%TD*%
%TO.P,D31,1*%
%TO.N,Net-(D15-Pad1)*%
X246500000Y-142030000D03*
D16*
%TO.P,D31,2*%
%TO.N,Net-(D25-Pad2)*%
X243960000Y-142030000D03*
%TD*%
%TO.P,D8,2*%
%TO.N,Net-(D1-Pad2)*%
X261040000Y-104810000D03*
D15*
%TO.P,D8,1*%
%TO.N,Net-(D16-Pad1)*%
X258500000Y-104810000D03*
%TD*%
%TO.P,D10,1*%
%TO.N,Net-(D10-Pad1)*%
X274190000Y-114880000D03*
D16*
%TO.P,D10,2*%
%TO.N,Net-(D10-Pad2)*%
X276730000Y-114880000D03*
%TD*%
D15*
%TO.P,D28,1*%
%TO.N,Net-(D12-Pad1)*%
X237390000Y-123290000D03*
D16*
%TO.P,D28,2*%
%TO.N,Net-(D25-Pad2)*%
X234850000Y-123290000D03*
%TD*%
D15*
%TO.P,D32,1*%
%TO.N,Net-(D16-Pad1)*%
X246710000Y-156020000D03*
D16*
%TO.P,D32,2*%
%TO.N,Net-(D25-Pad2)*%
X244170000Y-156020000D03*
%TD*%
D20*
%TO.N,Net-(D1-Pad1)*%
X245490000Y-117830000D03*
X235230000Y-117990000D03*
X251030000Y-125710000D03*
X266600000Y-147110000D03*
%TO.N,Net-(D10-Pad1)*%
X263556481Y-153715356D03*
X276740000Y-139329999D03*
%TO.N,Net-(D11-Pad1)*%
X257432613Y-145939671D03*
X244120000Y-146980000D03*
%TO.N,Net-(D12-Pad1)*%
X265140000Y-119040000D03*
X245370000Y-121070000D03*
X239660000Y-120160000D03*
X262630000Y-152290000D03*
X270479756Y-152383624D03*
X271780000Y-148590000D03*
X276814981Y-145740000D03*
%TO.N,Net-(D13-Pad1)*%
X247960000Y-135840000D03*
X239570000Y-127380000D03*
%TO.N,Net-(D14-Pad1)*%
X245540000Y-139110000D03*
X249120000Y-146140000D03*
X278810000Y-148860000D03*
X251220000Y-134170000D03*
%TO.N,Net-(D15-Pad1)*%
X260300000Y-115490000D03*
X253880000Y-149720000D03*
X242640000Y-114610000D03*
%TO.N,Net-(D16-Pad1)*%
X262380000Y-113340000D03*
X249080000Y-139580000D03*
X256540000Y-153670000D03*
%TO.N,Net-(D10-Pad2)*%
X269510000Y-148590000D03*
%TO.N,Net-(IC1-Pad17)*%
X264040000Y-137920000D03*
X263740000Y-141550000D03*
%TO.N,Net-(IC1-Pad18)*%
X260580000Y-137040000D03*
X258620000Y-139960000D03*
%TO.N,Net-(IC1-Pad1)*%
X255650000Y-139820000D03*
X260650000Y-153780000D03*
%TO.N,Net-(IC1-Pad2)*%
X258960000Y-152410000D03*
X255410000Y-141810000D03*
%TD*%
D21*
%TO.N,Net-(D1-Pad1)*%
X245330000Y-117990000D02*
X245490000Y-117830000D01*
X235230000Y-117990000D02*
X245330000Y-117990000D01*
X277640000Y-140630000D02*
X279250001Y-139019999D01*
X277640000Y-141930000D02*
X277640000Y-140630000D01*
X279250001Y-139019999D02*
X279250001Y-131179999D01*
X273269982Y-125199980D02*
X251540020Y-125199980D01*
X279250001Y-131179999D02*
X273269982Y-125199980D01*
X251540020Y-125199980D02*
X251030000Y-125710000D01*
X265915000Y-146425000D02*
X266600000Y-147110000D01*
X261415000Y-146425000D02*
X265915000Y-146425000D01*
%TO.N,Net-(D1-Pad2)*%
X231370000Y-152420000D02*
X227660000Y-156130000D01*
X236120000Y-152420000D02*
X231370000Y-152420000D01*
%TO.N,Net-(D10-Pad1)*%
X245789999Y-129959999D02*
X245890000Y-130060000D01*
X233798036Y-129959999D02*
X245789999Y-129959999D01*
X245890000Y-130060000D02*
X245890000Y-131360000D01*
X232629989Y-131128046D02*
X233798036Y-129959999D01*
X232629989Y-139890011D02*
X232629989Y-131128046D01*
X230210000Y-142310000D02*
X232629989Y-139890011D01*
X230210000Y-143610000D02*
X230210000Y-142310000D01*
X277850000Y-131180000D02*
X277850000Y-132480000D01*
X245890000Y-131360000D02*
X247190000Y-131360000D01*
X247190000Y-131360000D02*
X252650010Y-125899990D01*
X252650010Y-125899990D02*
X264130010Y-125899990D01*
X264130010Y-125899990D02*
X267230010Y-128999990D01*
X267230010Y-128999990D02*
X275669990Y-128999990D01*
X275669990Y-128999990D02*
X277850000Y-131180000D01*
X264638503Y-152633334D02*
X263556481Y-153715356D01*
X264638503Y-149643503D02*
X264638503Y-152633334D01*
X261415000Y-147695000D02*
X262690000Y-147695000D01*
X262690000Y-147695000D02*
X264638503Y-149643503D01*
X277620000Y-132710000D02*
X277850000Y-132480000D01*
X277620000Y-137350000D02*
X277620000Y-132710000D01*
X276740000Y-138230000D02*
X277620000Y-137350000D01*
X276740000Y-139329999D02*
X276740000Y-138230000D01*
%TO.N,Net-(D11-Pad1)*%
X282560000Y-121430000D02*
X282560000Y-120130000D01*
X280700000Y-123290000D02*
X282560000Y-121430000D01*
X277780000Y-123290000D02*
X280700000Y-123290000D01*
X246930000Y-123290000D02*
X245630000Y-123290000D01*
X230150000Y-131370000D02*
X230150000Y-130070000D01*
X230150000Y-130070000D02*
X231180000Y-129040000D01*
X231180000Y-129040000D02*
X241490000Y-129040000D01*
X245630000Y-124900000D02*
X245630000Y-123290000D01*
X241490000Y-129040000D02*
X245630000Y-124900000D01*
X277780000Y-121990000D02*
X276660000Y-120870000D01*
X277780000Y-123290000D02*
X277780000Y-121990000D01*
X264159998Y-120870000D02*
X263139999Y-121889999D01*
X276660000Y-120870000D02*
X264159998Y-120870000D01*
X246930000Y-123290000D02*
X249700000Y-120520000D01*
X259750002Y-120520000D02*
X261120001Y-121889999D01*
X249700000Y-120520000D02*
X259750002Y-120520000D01*
X263139999Y-121889999D02*
X261120001Y-121889999D01*
X257432613Y-146257613D02*
X257432613Y-145939671D01*
X261415000Y-148965000D02*
X260140000Y-148965000D01*
X260140000Y-148965000D02*
X257432613Y-146257613D01*
X244120000Y-147969949D02*
X244120000Y-146980000D01*
X244120000Y-150055678D02*
X244120000Y-147969949D01*
X239930668Y-154245010D02*
X244120000Y-150055678D01*
X238509332Y-154245010D02*
X239930668Y-154245010D01*
X237630648Y-153366326D02*
X238509332Y-154245010D01*
X230150000Y-131370000D02*
X230150000Y-139057998D01*
X230150000Y-139057998D02*
X226269999Y-142937999D01*
X226269999Y-142937999D02*
X226269999Y-144282001D01*
X226269999Y-144282001D02*
X232582988Y-150594990D01*
X232582988Y-150594990D02*
X237630648Y-150594990D01*
X237630648Y-150594990D02*
X237630648Y-153366326D01*
%TO.N,Net-(D12-Pad1)*%
X231470000Y-119960000D02*
X230170000Y-119960000D01*
X235360000Y-119960000D02*
X231470000Y-119960000D01*
X237390000Y-121990000D02*
X235360000Y-119960000D01*
X270740000Y-123320000D02*
X269440000Y-123320000D01*
X272890000Y-123320000D02*
X270740000Y-123320000D01*
X281260000Y-131690000D02*
X272890000Y-123320000D01*
X282560000Y-131690000D02*
X281260000Y-131690000D01*
X264440001Y-119739999D02*
X247140001Y-119739999D01*
X265140000Y-119040000D02*
X264440001Y-119739999D01*
X247140001Y-119739999D02*
X245810000Y-121070000D01*
X245810000Y-121070000D02*
X245370000Y-121070000D01*
X237390000Y-121990000D02*
X237390000Y-123290000D01*
X237390000Y-121440051D02*
X237390000Y-121990000D01*
X238670051Y-120160000D02*
X237390000Y-121440051D01*
X239660000Y-120160000D02*
X238670051Y-120160000D01*
X261415000Y-151075000D02*
X262630000Y-152290000D01*
X261415000Y-150235000D02*
X261415000Y-151075000D01*
X282560000Y-139710002D02*
X282560000Y-131690000D01*
X279110000Y-144140000D02*
X280255001Y-142994999D01*
X280255001Y-142994999D02*
X280255001Y-142015001D01*
X280255001Y-142015001D02*
X282560000Y-139710002D01*
X278209999Y-145040001D02*
X279110000Y-144140000D01*
X277514980Y-145040001D02*
X278209999Y-145040001D01*
X276814981Y-145740000D02*
X277514980Y-145040001D01*
X270479756Y-149890244D02*
X270479756Y-152383624D01*
X271780000Y-148590000D02*
X270479756Y-149890244D01*
%TO.N,Net-(D13-Pad1)*%
X252940000Y-142615000D02*
X251665000Y-142615000D01*
X253335001Y-143010001D02*
X252940000Y-142615000D01*
X255986001Y-143010001D02*
X253335001Y-143010001D01*
X256850001Y-142146001D02*
X255986001Y-143010001D01*
X256850001Y-139243999D02*
X256850001Y-142146001D01*
X255611001Y-138004999D02*
X256850001Y-139243999D01*
X246211001Y-138004999D02*
X255611001Y-138004999D01*
X240296002Y-132090000D02*
X246211001Y-138004999D01*
X237270000Y-132090000D02*
X240296002Y-132090000D01*
X268505678Y-135840000D02*
X247960000Y-135840000D01*
X269165010Y-135180668D02*
X268505678Y-135840000D01*
X269165010Y-132795010D02*
X269165010Y-135180668D01*
X269100000Y-131430000D02*
X269100000Y-132730000D01*
X269100000Y-132730000D02*
X269165010Y-132795010D01*
X244913999Y-119030001D02*
X239570000Y-124374000D01*
X246066001Y-119030001D02*
X244913999Y-119030001D01*
X240270000Y-114430000D02*
X241848989Y-116008989D01*
X238970000Y-114430000D02*
X240270000Y-114430000D01*
X239570000Y-124374000D02*
X239570000Y-127380000D01*
X241848989Y-116008989D02*
X245444991Y-116008989D01*
X245444991Y-116008989D02*
X246690001Y-117253999D01*
X246690001Y-117253999D02*
X246690001Y-118406001D01*
X246690001Y-118406001D02*
X246066001Y-119030001D01*
%TO.N,Net-(D14-Pad1)*%
X241370000Y-139110000D02*
X245540000Y-139110000D01*
X237290000Y-141890000D02*
X238590000Y-141890000D01*
X238590000Y-141890000D02*
X241370000Y-139110000D01*
X249405000Y-146425000D02*
X249120000Y-146140000D01*
X251665000Y-146425000D02*
X249405000Y-146425000D01*
X282640000Y-156310000D02*
X282640000Y-152690000D01*
X282640000Y-152690000D02*
X278810000Y-148860000D01*
X261700000Y-132690000D02*
X261700000Y-131390000D01*
X260220000Y-134170000D02*
X261700000Y-132690000D01*
X251220000Y-134170000D02*
X260220000Y-134170000D01*
%TO.N,Net-(D15-Pad1)*%
X254280000Y-109470000D02*
X254280000Y-104770000D01*
X260300000Y-115490000D02*
X254280000Y-109470000D01*
X250390000Y-147695000D02*
X251665000Y-147695000D01*
X249339990Y-148745010D02*
X250390000Y-147695000D01*
X242769999Y-156692001D02*
X243497999Y-157420001D01*
X243497999Y-157420001D02*
X248010001Y-157420001D01*
X248390001Y-151299979D02*
X249339990Y-150349990D01*
X248390001Y-157040001D02*
X248390001Y-151299979D01*
X249339990Y-150349990D02*
X249339990Y-148745010D01*
X248010001Y-157420001D02*
X248390001Y-157040001D01*
X252940000Y-147695000D02*
X251665000Y-147695000D01*
X253880000Y-148635000D02*
X252940000Y-147695000D01*
X253880000Y-149720000D02*
X253880000Y-148635000D01*
X249140000Y-114610000D02*
X254280000Y-109470000D01*
X242640000Y-114610000D02*
X249140000Y-114610000D01*
X246500000Y-143330000D02*
X246500000Y-142030000D01*
X245560000Y-144270000D02*
X246500000Y-143330000D01*
X245560000Y-151100000D02*
X245560000Y-144270000D01*
X242769999Y-153890001D02*
X245560000Y-151100000D01*
X242769999Y-155330001D02*
X242769999Y-153890001D01*
X242769999Y-155330001D02*
X242769999Y-156692001D01*
%TO.N,Net-(D16-Pad1)*%
X246710000Y-154720000D02*
X246710000Y-156020000D01*
X246710000Y-145494998D02*
X246710000Y-154720000D01*
X250859998Y-141345000D02*
X246710000Y-145494998D01*
X251665000Y-141345000D02*
X250859998Y-141345000D01*
X262380000Y-108690000D02*
X258500000Y-104810000D01*
X262380000Y-113340000D02*
X262380000Y-108690000D01*
X251665000Y-141345000D02*
X250845000Y-141345000D01*
X250845000Y-141345000D02*
X249080000Y-139580000D01*
X257660000Y-156360000D02*
X257660000Y-154790000D01*
X257660000Y-154790000D02*
X256540000Y-153670000D01*
%TO.N,Net-(D10-Pad2)*%
X265890000Y-156250000D02*
X265890000Y-154977208D01*
X265890000Y-154977208D02*
X269159999Y-151707209D01*
X274900000Y-146940000D02*
X273986016Y-146026016D01*
X285100000Y-143620000D02*
X281780000Y-146940000D01*
X281780000Y-146940000D02*
X274900000Y-146940000D01*
X269159999Y-148940001D02*
X269510000Y-148590000D01*
X269159999Y-149779999D02*
X269159999Y-148940001D01*
X269159999Y-151707209D02*
X269159999Y-149779999D01*
%TO.N,Net-(D17-Pad2)*%
X266560000Y-133690000D02*
X267340000Y-134470000D01*
X266560000Y-131430000D02*
X266560000Y-133690000D01*
X274340001Y-122390001D02*
X275240000Y-123290000D01*
X273869999Y-121919999D02*
X274340001Y-122390001D01*
X268300001Y-121919999D02*
X273869999Y-121919999D01*
X266900000Y-123320000D02*
X268300001Y-121919999D01*
X257860001Y-122560001D02*
X258760000Y-123460000D01*
X257359999Y-122059999D02*
X257860001Y-122560001D01*
X252800001Y-122059999D02*
X257359999Y-122059999D01*
X251400000Y-123460000D02*
X252800001Y-122059999D01*
X265660001Y-130530001D02*
X266560000Y-131430000D01*
X265119999Y-129989999D02*
X265660001Y-130530001D01*
X260560001Y-129989999D02*
X265119999Y-129989999D01*
X259160000Y-131390000D02*
X260560001Y-129989999D01*
X275100000Y-132690000D02*
X275310000Y-132480000D01*
X275100000Y-141930000D02*
X275100000Y-132690000D01*
%TO.N,Net-(D25-Pad2)*%
X255185000Y-127050000D02*
X256610000Y-127050000D01*
X254027208Y-127050000D02*
X255185000Y-127050000D01*
X250990000Y-130087208D02*
X254027208Y-127050000D01*
X250990000Y-131360000D02*
X250990000Y-130087208D01*
X250090001Y-132259999D02*
X250990000Y-131360000D01*
X249589999Y-132760001D02*
X250090001Y-132259999D01*
X244750001Y-132760001D02*
X249589999Y-132760001D01*
X243350000Y-131360000D02*
X244750001Y-132760001D01*
X234750000Y-132110000D02*
X234730000Y-132090000D01*
X234750000Y-141890000D02*
X234750000Y-132110000D01*
X243060001Y-142929999D02*
X243960000Y-142030000D01*
X242699999Y-143290001D02*
X243060001Y-142929999D01*
X236150001Y-143290001D02*
X242699999Y-143290001D01*
X234750000Y-141890000D02*
X236150001Y-143290001D01*
%TO.N,Net-(IC1-Pad17)*%
X264840010Y-138720010D02*
X264040000Y-137920000D01*
X270500001Y-136945677D02*
X268725668Y-138720010D01*
X257470011Y-129289989D02*
X265409952Y-129289989D01*
X268725668Y-138720010D02*
X264840010Y-138720010D01*
X256610000Y-130150000D02*
X257470011Y-129289989D01*
X265409952Y-129289989D02*
X266149962Y-130029999D01*
X266149962Y-130029999D02*
X270400001Y-130029999D01*
X270400001Y-130029999D02*
X270500001Y-130129999D01*
X270500001Y-130129999D02*
X270500001Y-136945677D01*
X262675000Y-142615000D02*
X261415000Y-142615000D01*
X263740000Y-141550000D02*
X262675000Y-142615000D01*
%TO.N,Net-(IC1-Pad18)*%
X260900001Y-136719999D02*
X260580000Y-137040000D01*
X267340000Y-137570000D02*
X266489999Y-136719999D01*
X266489999Y-136719999D02*
X260900001Y-136719999D01*
X260005000Y-141345000D02*
X261415000Y-141345000D01*
X258620000Y-139960000D02*
X260005000Y-141345000D01*
%TO.N,Net-(IC1-Pad19)*%
X271793984Y-142814744D02*
X271793984Y-143833984D01*
X271793984Y-142793982D02*
X271793984Y-142814744D01*
X269075002Y-140075000D02*
X271793984Y-142793982D01*
X261415000Y-140075000D02*
X269075002Y-140075000D01*
%TO.N,Net-(IC1-Pad20)*%
X260140000Y-138805000D02*
X261415000Y-138805000D01*
X258639989Y-137304989D02*
X260140000Y-138805000D01*
X246654989Y-137304989D02*
X258639989Y-137304989D01*
X240039999Y-130689999D02*
X246654989Y-137304989D01*
X234057999Y-130689999D02*
X240039999Y-130689999D01*
X233329999Y-131417999D02*
X234057999Y-130689999D01*
X239220000Y-152420000D02*
X239220000Y-147960000D01*
X239220000Y-147960000D02*
X236240000Y-144980000D01*
X234580000Y-144980000D02*
X233329999Y-143729999D01*
X236240000Y-144980000D02*
X234580000Y-144980000D01*
X233329999Y-143729999D02*
X233329999Y-131417999D01*
%TO.N,Net-(IC1-Pad1)*%
X252940000Y-138805000D02*
X251665000Y-138805000D01*
X253645051Y-138805000D02*
X252940000Y-138805000D01*
X254660051Y-139820000D02*
X253645051Y-138805000D01*
X255650000Y-139820000D02*
X254660051Y-139820000D01*
X260650000Y-154270000D02*
X262740000Y-156360000D01*
X260650000Y-153780000D02*
X260650000Y-154270000D01*
%TO.N,Net-(IC1-Pad2)*%
X255410000Y-141810000D02*
X253675000Y-140075000D01*
X253675000Y-140075000D02*
X251665000Y-140075000D01*
X258960000Y-153399949D02*
X258960000Y-152410000D01*
X258960000Y-153958000D02*
X258960000Y-153399949D01*
X260200000Y-155198000D02*
X258960000Y-153958000D01*
X260200000Y-156360000D02*
X260200000Y-155198000D01*
%TO.N,Net-(IC1-Pad10)*%
X251090000Y-150235000D02*
X251665000Y-150235000D01*
X250040000Y-151285000D02*
X251090000Y-150235000D01*
X250040000Y-156360000D02*
X250040000Y-151285000D01*
%TO.N,VCC*%
X261415000Y-145155000D02*
X258345000Y-145155000D01*
X258345000Y-145155000D02*
X257075000Y-143885000D01*
X274410000Y-151280000D02*
X273210000Y-151280000D01*
X279370000Y-156240000D02*
X274410000Y-151280000D01*
X266465000Y-145155000D02*
X261415000Y-145155000D01*
X268310000Y-147000000D02*
X266465000Y-145155000D01*
X268310000Y-150750000D02*
X268310000Y-147000000D01*
X264489999Y-154570001D02*
X268310000Y-150750000D01*
X273210000Y-151280000D02*
X271534990Y-152955010D01*
X271534990Y-155845012D02*
X269519001Y-157861001D01*
X271534990Y-152955010D02*
X271534990Y-155845012D01*
X269519001Y-157861001D02*
X265428999Y-157861001D01*
X265428999Y-157861001D02*
X264489999Y-156922001D01*
X264489999Y-156922001D02*
X264489999Y-154570001D01*
X257075000Y-143885000D02*
X254865000Y-143885000D01*
X254865000Y-143885000D02*
X254425000Y-143885000D01*
X253515000Y-143885000D02*
X251665000Y-143885000D01*
X254425000Y-143885000D02*
X253515000Y-143885000D01*
X255475000Y-145845000D02*
X253515000Y-143885000D01*
X256110000Y-146480000D02*
X255475000Y-145845000D01*
X256110000Y-151560000D02*
X256110000Y-146480000D01*
X255120000Y-152550000D02*
X256110000Y-151560000D01*
X255120000Y-156360000D02*
X255120000Y-152550000D01*
%TD*%
D22*
%TO.N,GND*%
G36*
X276564248Y-131075116D02*
G01*
X276498815Y-131128815D01*
X276419463Y-131225506D01*
X276360498Y-131335820D01*
X276354944Y-131354127D01*
X276288505Y-131287688D01*
X276037095Y-131119701D01*
X275757743Y-131003989D01*
X275461184Y-130945000D01*
X275158816Y-130945000D01*
X274862257Y-131003989D01*
X274582905Y-131119701D01*
X274331495Y-131287688D01*
X274117688Y-131501495D01*
X273949701Y-131752905D01*
X273833989Y-132032257D01*
X273775000Y-132328816D01*
X273775000Y-132631184D01*
X273833989Y-132927743D01*
X273949701Y-133207095D01*
X274117688Y-133458505D01*
X274265001Y-133605818D01*
X274265000Y-140641801D01*
X274121495Y-140737688D01*
X273907688Y-140951495D01*
X273739701Y-141202905D01*
X273623989Y-141482257D01*
X273565000Y-141778816D01*
X273565000Y-142081184D01*
X273623989Y-142377743D01*
X273739701Y-142657095D01*
X273907688Y-142908505D01*
X274121495Y-143122312D01*
X274372905Y-143290299D01*
X274652257Y-143406011D01*
X274948816Y-143465000D01*
X275251184Y-143465000D01*
X275547743Y-143406011D01*
X275827095Y-143290299D01*
X276078505Y-143122312D01*
X276144944Y-143055873D01*
X276150498Y-143074180D01*
X276209463Y-143184494D01*
X276288815Y-143281185D01*
X276385506Y-143360537D01*
X276495820Y-143419502D01*
X276615518Y-143455812D01*
X276740000Y-143468072D01*
X278540000Y-143468072D01*
X278607732Y-143461401D01*
X278548581Y-143520552D01*
X278548570Y-143520561D01*
X277864131Y-144205001D01*
X277555998Y-144205001D01*
X277514979Y-144200961D01*
X277352865Y-144216928D01*
X277351291Y-144217083D01*
X277193893Y-144264829D01*
X277048834Y-144342365D01*
X276967432Y-144409170D01*
X276946467Y-144405000D01*
X276683495Y-144405000D01*
X276425576Y-144456304D01*
X276182622Y-144556939D01*
X275963968Y-144703038D01*
X275778019Y-144888987D01*
X275711989Y-144987809D01*
X275656961Y-144920757D01*
X275091275Y-144355071D01*
X274956699Y-144244628D01*
X274803163Y-144162561D01*
X274636567Y-144112025D01*
X274463313Y-144094961D01*
X274290059Y-144112025D01*
X274123463Y-144162561D01*
X273969927Y-144244628D01*
X273835351Y-144355071D01*
X272315071Y-145875351D01*
X272204628Y-146009927D01*
X272122561Y-146163463D01*
X272072025Y-146330059D01*
X272054961Y-146503313D01*
X272072025Y-146676567D01*
X272122561Y-146843163D01*
X272204628Y-146996699D01*
X272315071Y-147131275D01*
X272880757Y-147696961D01*
X273015333Y-147807404D01*
X273168869Y-147889471D01*
X273335465Y-147940007D01*
X273508719Y-147957071D01*
X273681973Y-147940007D01*
X273848569Y-147889471D01*
X274002105Y-147807404D01*
X274136681Y-147696961D01*
X274303843Y-147529799D01*
X274306709Y-147533291D01*
X274338568Y-147559437D01*
X274338570Y-147559439D01*
X274370023Y-147585251D01*
X274433854Y-147637636D01*
X274578913Y-147715172D01*
X274736311Y-147762918D01*
X274858981Y-147775000D01*
X274858982Y-147775000D01*
X274900000Y-147779040D01*
X274941018Y-147775000D01*
X278030881Y-147775000D01*
X277958987Y-147823038D01*
X277773038Y-148008987D01*
X277626939Y-148227641D01*
X277526304Y-148470595D01*
X277475000Y-148728514D01*
X277475000Y-148991486D01*
X277526304Y-149249405D01*
X277626939Y-149492359D01*
X277773038Y-149711013D01*
X277958987Y-149896962D01*
X278177641Y-150043061D01*
X278420595Y-150143696D01*
X278678514Y-150195000D01*
X278941486Y-150195000D01*
X278960375Y-150191243D01*
X281805001Y-153035870D01*
X281805000Y-154771928D01*
X281740000Y-154771928D01*
X281615518Y-154784188D01*
X281495820Y-154820498D01*
X281385506Y-154879463D01*
X281288815Y-154958815D01*
X281209463Y-155055506D01*
X281150498Y-155165820D01*
X281114188Y-155285518D01*
X281101928Y-155410000D01*
X281101928Y-157210000D01*
X281114188Y-157334482D01*
X281150498Y-157454180D01*
X281209463Y-157564494D01*
X281288815Y-157661185D01*
X281385506Y-157740537D01*
X281495820Y-157799502D01*
X281615518Y-157835812D01*
X281740000Y-157848072D01*
X283540000Y-157848072D01*
X283664482Y-157835812D01*
X283784180Y-157799502D01*
X283894494Y-157740537D01*
X283991185Y-157661185D01*
X284070537Y-157564494D01*
X284129502Y-157454180D01*
X284135056Y-157435873D01*
X284201495Y-157502312D01*
X284452905Y-157670299D01*
X284732257Y-157786011D01*
X285028816Y-157845000D01*
X285331184Y-157845000D01*
X285627743Y-157786011D01*
X285907095Y-157670299D01*
X286158505Y-157502312D01*
X286372312Y-157288505D01*
X286386313Y-157267552D01*
X286385327Y-159335000D01*
X226314511Y-159335000D01*
X226312757Y-156876634D01*
X226467688Y-157108505D01*
X226681495Y-157322312D01*
X226932905Y-157490299D01*
X227212257Y-157606011D01*
X227508816Y-157665000D01*
X227811184Y-157665000D01*
X228107743Y-157606011D01*
X228387095Y-157490299D01*
X228638505Y-157322312D01*
X228704944Y-157255873D01*
X228710498Y-157274180D01*
X228769463Y-157384494D01*
X228848815Y-157481185D01*
X228945506Y-157560537D01*
X229055820Y-157619502D01*
X229175518Y-157655812D01*
X229300000Y-157668072D01*
X231100000Y-157668072D01*
X231224482Y-157655812D01*
X231344180Y-157619502D01*
X231454494Y-157560537D01*
X231551185Y-157481185D01*
X231630537Y-157384494D01*
X231689502Y-157274180D01*
X231725812Y-157154482D01*
X231738072Y-157030000D01*
X231738072Y-155230000D01*
X231725812Y-155105518D01*
X231689502Y-154985820D01*
X231630537Y-154875506D01*
X231551185Y-154778815D01*
X231454494Y-154699463D01*
X231344180Y-154640498D01*
X231224482Y-154604188D01*
X231100000Y-154591928D01*
X230378940Y-154591928D01*
X231715868Y-153255000D01*
X234831928Y-153255000D01*
X234831928Y-153495000D01*
X234848992Y-153668254D01*
X234899528Y-153834850D01*
X234981595Y-153988386D01*
X235092038Y-154122962D01*
X235226614Y-154233405D01*
X235380150Y-154315472D01*
X235546746Y-154366008D01*
X235720000Y-154383072D01*
X236520000Y-154383072D01*
X236693254Y-154366008D01*
X236859850Y-154315472D01*
X237013386Y-154233405D01*
X237147962Y-154122962D01*
X237174311Y-154090856D01*
X237889895Y-154806442D01*
X237916041Y-154838301D01*
X237947900Y-154864447D01*
X237947902Y-154864449D01*
X238043186Y-154942646D01*
X238188245Y-155020182D01*
X238345643Y-155067928D01*
X238509332Y-155084050D01*
X238550350Y-155080010D01*
X239889650Y-155080010D01*
X239930668Y-155084050D01*
X239971686Y-155080010D01*
X239971687Y-155080010D01*
X240094357Y-155067928D01*
X240251755Y-155020182D01*
X240396814Y-154942646D01*
X240523959Y-154838301D01*
X240550114Y-154806431D01*
X244681428Y-150675118D01*
X244713291Y-150648969D01*
X244725000Y-150634701D01*
X244725000Y-150754132D01*
X242208573Y-153270560D01*
X242176709Y-153296710D01*
X242120903Y-153364710D01*
X242072363Y-153423856D01*
X241994827Y-153568915D01*
X241947081Y-153726313D01*
X241930959Y-153890001D01*
X241935000Y-153931029D01*
X241934999Y-155288982D01*
X241934999Y-155288983D01*
X241935000Y-156650973D01*
X241930959Y-156692001D01*
X241947081Y-156855689D01*
X241994827Y-157013087D01*
X242067496Y-157149040D01*
X242072364Y-157158147D01*
X242176709Y-157285292D01*
X242208573Y-157311442D01*
X242878557Y-157981427D01*
X242904708Y-158013292D01*
X243031853Y-158117637D01*
X243176912Y-158195173D01*
X243334310Y-158242919D01*
X243456980Y-158255001D01*
X243456990Y-158255001D01*
X243497998Y-158259040D01*
X243539006Y-158255001D01*
X247968983Y-158255001D01*
X248010001Y-158259041D01*
X248051019Y-158255001D01*
X248051020Y-158255001D01*
X248173690Y-158242919D01*
X248331088Y-158195173D01*
X248476147Y-158117637D01*
X248603292Y-158013292D01*
X248629447Y-157981422D01*
X248946201Y-157664668D01*
X249033820Y-157711502D01*
X249153518Y-157747812D01*
X249278000Y-157760072D01*
X250802000Y-157760072D01*
X250926482Y-157747812D01*
X251046180Y-157711502D01*
X251156494Y-157652537D01*
X251253185Y-157573185D01*
X251310000Y-157503956D01*
X251366815Y-157573185D01*
X251463506Y-157652537D01*
X251573820Y-157711502D01*
X251693518Y-157747812D01*
X251818000Y-157760072D01*
X252294250Y-157757000D01*
X252453000Y-157598250D01*
X252453000Y-156487000D01*
X252433000Y-156487000D01*
X252433000Y-156233000D01*
X252453000Y-156233000D01*
X252453000Y-155121750D01*
X252294250Y-154963000D01*
X251818000Y-154959928D01*
X251693518Y-154972188D01*
X251573820Y-155008498D01*
X251463506Y-155067463D01*
X251366815Y-155146815D01*
X251310000Y-155216044D01*
X251253185Y-155146815D01*
X251156494Y-155067463D01*
X251046180Y-155008498D01*
X250926482Y-154972188D01*
X250875000Y-154967118D01*
X250875000Y-151630867D01*
X251332796Y-151173072D01*
X252540000Y-151173072D01*
X252664482Y-151160812D01*
X252784180Y-151124502D01*
X252894494Y-151065537D01*
X252991185Y-150986185D01*
X253070537Y-150889494D01*
X253111801Y-150812296D01*
X253247641Y-150903061D01*
X253490595Y-151003696D01*
X253748514Y-151055000D01*
X254011486Y-151055000D01*
X254269405Y-151003696D01*
X254512359Y-150903061D01*
X254731013Y-150756962D01*
X254916962Y-150571013D01*
X255063061Y-150352359D01*
X255163696Y-150109405D01*
X255215000Y-149851486D01*
X255215000Y-149588514D01*
X255163696Y-149330595D01*
X255063061Y-149087641D01*
X254916962Y-148868987D01*
X254731013Y-148683038D01*
X254715340Y-148672566D01*
X254719040Y-148635000D01*
X254703169Y-148473856D01*
X254702918Y-148471311D01*
X254655172Y-148313913D01*
X254577636Y-148168854D01*
X254548734Y-148133637D01*
X254499439Y-148073570D01*
X254499437Y-148073568D01*
X254473291Y-148041709D01*
X254441432Y-148015563D01*
X253559445Y-147133578D01*
X253533291Y-147101709D01*
X253406146Y-146997364D01*
X253261087Y-146919828D01*
X253154299Y-146887434D01*
X253165812Y-146849482D01*
X253178072Y-146725000D01*
X253178072Y-146125000D01*
X253165812Y-146000518D01*
X253129502Y-145880820D01*
X253080957Y-145790000D01*
X253129502Y-145699180D01*
X253165812Y-145579482D01*
X253178072Y-145455000D01*
X253175000Y-145440750D01*
X253016250Y-145282000D01*
X251792000Y-145282000D01*
X251792000Y-145302000D01*
X251538000Y-145302000D01*
X251538000Y-145282000D01*
X250313750Y-145282000D01*
X250216964Y-145378786D01*
X250156962Y-145288987D01*
X249971013Y-145103038D01*
X249752359Y-144956939D01*
X249509405Y-144856304D01*
X249251486Y-144805000D01*
X248988514Y-144805000D01*
X248730595Y-144856304D01*
X248487641Y-144956939D01*
X248310696Y-145075169D01*
X250209620Y-143176246D01*
X250249043Y-143250000D01*
X250200498Y-143340820D01*
X250164188Y-143460518D01*
X250151928Y-143585000D01*
X250151928Y-144185000D01*
X250164188Y-144309482D01*
X250200498Y-144429180D01*
X250249043Y-144520000D01*
X250200498Y-144610820D01*
X250164188Y-144730518D01*
X250151928Y-144855000D01*
X250155000Y-144869250D01*
X250313750Y-145028000D01*
X251538000Y-145028000D01*
X251538000Y-145008000D01*
X251792000Y-145008000D01*
X251792000Y-145028000D01*
X253016250Y-145028000D01*
X253175000Y-144869250D01*
X253178072Y-144855000D01*
X253165812Y-144730518D01*
X253162621Y-144720000D01*
X253169133Y-144720000D01*
X254913570Y-146464439D01*
X254913580Y-146464447D01*
X255275001Y-146825869D01*
X255275000Y-151214132D01*
X254558574Y-151930559D01*
X254526710Y-151956709D01*
X254469725Y-152026146D01*
X254422364Y-152083855D01*
X254344828Y-152228914D01*
X254297082Y-152386312D01*
X254280960Y-152550000D01*
X254285001Y-152591028D01*
X254285000Y-154967118D01*
X254233518Y-154972188D01*
X254113820Y-155008498D01*
X254003506Y-155067463D01*
X253906815Y-155146815D01*
X253850000Y-155216044D01*
X253793185Y-155146815D01*
X253696494Y-155067463D01*
X253586180Y-155008498D01*
X253466482Y-154972188D01*
X253342000Y-154959928D01*
X252865750Y-154963000D01*
X252707000Y-155121750D01*
X252707000Y-156233000D01*
X252727000Y-156233000D01*
X252727000Y-156487000D01*
X252707000Y-156487000D01*
X252707000Y-157598250D01*
X252865750Y-157757000D01*
X253342000Y-157760072D01*
X253466482Y-157747812D01*
X253586180Y-157711502D01*
X253696494Y-157652537D01*
X253793185Y-157573185D01*
X253850000Y-157503956D01*
X253906815Y-157573185D01*
X254003506Y-157652537D01*
X254113820Y-157711502D01*
X254233518Y-157747812D01*
X254358000Y-157760072D01*
X255882000Y-157760072D01*
X256006482Y-157747812D01*
X256126180Y-157711502D01*
X256236494Y-157652537D01*
X256333185Y-157573185D01*
X256390000Y-157503956D01*
X256446815Y-157573185D01*
X256543506Y-157652537D01*
X256653820Y-157711502D01*
X256773518Y-157747812D01*
X256898000Y-157760072D01*
X258422000Y-157760072D01*
X258546482Y-157747812D01*
X258666180Y-157711502D01*
X258776494Y-157652537D01*
X258873185Y-157573185D01*
X258930000Y-157503956D01*
X258986815Y-157573185D01*
X259083506Y-157652537D01*
X259193820Y-157711502D01*
X259313518Y-157747812D01*
X259438000Y-157760072D01*
X260962000Y-157760072D01*
X261086482Y-157747812D01*
X261206180Y-157711502D01*
X261316494Y-157652537D01*
X261413185Y-157573185D01*
X261470000Y-157503956D01*
X261526815Y-157573185D01*
X261623506Y-157652537D01*
X261733820Y-157711502D01*
X261853518Y-157747812D01*
X261978000Y-157760072D01*
X263502000Y-157760072D01*
X263626482Y-157747812D01*
X263746180Y-157711502D01*
X263856494Y-157652537D01*
X263953185Y-157573185D01*
X263956399Y-157569268D01*
X264809562Y-158422433D01*
X264835708Y-158454292D01*
X264962853Y-158558637D01*
X265107912Y-158636173D01*
X265265310Y-158683919D01*
X265387980Y-158696001D01*
X265387981Y-158696001D01*
X265428999Y-158700041D01*
X265470017Y-158696001D01*
X269477983Y-158696001D01*
X269519001Y-158700041D01*
X269560019Y-158696001D01*
X269560020Y-158696001D01*
X269682690Y-158683919D01*
X269840088Y-158636173D01*
X269985147Y-158558637D01*
X270112292Y-158454292D01*
X270138447Y-158422422D01*
X271398181Y-157162689D01*
X271396928Y-157505000D01*
X271409188Y-157629482D01*
X271445498Y-157749180D01*
X271504463Y-157859494D01*
X271583815Y-157956185D01*
X271680506Y-158035537D01*
X271790820Y-158094502D01*
X271910518Y-158130812D01*
X272035000Y-158143072D01*
X272924250Y-158140000D01*
X273083000Y-157981250D01*
X273083000Y-156507000D01*
X273337000Y-156507000D01*
X273337000Y-157981250D01*
X273495750Y-158140000D01*
X274385000Y-158143072D01*
X274509482Y-158130812D01*
X274629180Y-158094502D01*
X274739494Y-158035537D01*
X274836185Y-157956185D01*
X274915537Y-157859494D01*
X274974502Y-157749180D01*
X275010812Y-157629482D01*
X275023072Y-157505000D01*
X275021553Y-157090000D01*
X275341928Y-157090000D01*
X275354188Y-157214482D01*
X275390498Y-157334180D01*
X275449463Y-157444494D01*
X275528815Y-157541185D01*
X275625506Y-157620537D01*
X275735820Y-157679502D01*
X275855518Y-157715812D01*
X275980000Y-157728072D01*
X276544250Y-157725000D01*
X276703000Y-157566250D01*
X276703000Y-156367000D01*
X275503750Y-156367000D01*
X275345000Y-156525750D01*
X275341928Y-157090000D01*
X275021553Y-157090000D01*
X275020000Y-156665750D01*
X274861250Y-156507000D01*
X273337000Y-156507000D01*
X273083000Y-156507000D01*
X273063000Y-156507000D01*
X273063000Y-156253000D01*
X273083000Y-156253000D01*
X273083000Y-154778750D01*
X273337000Y-154778750D01*
X273337000Y-156253000D01*
X274861250Y-156253000D01*
X275020000Y-156094250D01*
X275023072Y-155255000D01*
X275010812Y-155130518D01*
X274974502Y-155010820D01*
X274915537Y-154900506D01*
X274836185Y-154803815D01*
X274739494Y-154724463D01*
X274629180Y-154665498D01*
X274509482Y-154629188D01*
X274385000Y-154616928D01*
X273495750Y-154620000D01*
X273337000Y-154778750D01*
X273083000Y-154778750D01*
X272924250Y-154620000D01*
X272369990Y-154618085D01*
X272369990Y-153300877D01*
X272627796Y-153043072D01*
X274135001Y-153043072D01*
X274308255Y-153026008D01*
X274474851Y-152975472D01*
X274628387Y-152893405D01*
X274746008Y-152796876D01*
X276704132Y-154755000D01*
X276702998Y-154755000D01*
X276702998Y-154913748D01*
X276544250Y-154755000D01*
X275980000Y-154751928D01*
X275855518Y-154764188D01*
X275735820Y-154800498D01*
X275625506Y-154859463D01*
X275528815Y-154938815D01*
X275449463Y-155035506D01*
X275390498Y-155145820D01*
X275354188Y-155265518D01*
X275341928Y-155390000D01*
X275345000Y-155954250D01*
X275503750Y-156113000D01*
X276703000Y-156113000D01*
X276703000Y-156093000D01*
X276957000Y-156093000D01*
X276957000Y-156113000D01*
X276977000Y-156113000D01*
X276977000Y-156367000D01*
X276957000Y-156367000D01*
X276957000Y-157566250D01*
X277115750Y-157725000D01*
X277680000Y-157728072D01*
X277804482Y-157715812D01*
X277924180Y-157679502D01*
X278034494Y-157620537D01*
X278131185Y-157541185D01*
X278210537Y-157444494D01*
X278269502Y-157334180D01*
X278290393Y-157265313D01*
X278314866Y-157295134D01*
X278540986Y-157480706D01*
X278798966Y-157618599D01*
X279078889Y-157703513D01*
X279297050Y-157725000D01*
X279442950Y-157725000D01*
X279661111Y-157703513D01*
X279941034Y-157618599D01*
X280199014Y-157480706D01*
X280425134Y-157295134D01*
X280610706Y-157069014D01*
X280748599Y-156811034D01*
X280833513Y-156531111D01*
X280862185Y-156240000D01*
X280833513Y-155948889D01*
X280748599Y-155668966D01*
X280610706Y-155410986D01*
X280425134Y-155184866D01*
X280199014Y-154999294D01*
X279941034Y-154861401D01*
X279661111Y-154776487D01*
X279442950Y-154755000D01*
X279297050Y-154755000D01*
X279086596Y-154775728D01*
X275029446Y-150718579D01*
X275023072Y-150710812D01*
X275023072Y-150404999D01*
X275006008Y-150231745D01*
X274955472Y-150065149D01*
X274873405Y-149911613D01*
X274762962Y-149777038D01*
X274628387Y-149666595D01*
X274474851Y-149584528D01*
X274308255Y-149533992D01*
X274135001Y-149516928D01*
X272741047Y-149516928D01*
X272816962Y-149441013D01*
X272963061Y-149222359D01*
X273063696Y-148979405D01*
X273115000Y-148721486D01*
X273115000Y-148458514D01*
X273063696Y-148200595D01*
X272963061Y-147957641D01*
X272816962Y-147738987D01*
X272631013Y-147553038D01*
X272412359Y-147406939D01*
X272169405Y-147306304D01*
X271911486Y-147255000D01*
X271648514Y-147255000D01*
X271390595Y-147306304D01*
X271147641Y-147406939D01*
X270928987Y-147553038D01*
X270743038Y-147738987D01*
X270645000Y-147885712D01*
X270546962Y-147738987D01*
X270361013Y-147553038D01*
X270142359Y-147406939D01*
X269899405Y-147306304D01*
X269641486Y-147255000D01*
X269378514Y-147255000D01*
X269145000Y-147301449D01*
X269145000Y-147041018D01*
X269149040Y-146999999D01*
X269132918Y-146836311D01*
X269085172Y-146678913D01*
X269007636Y-146533854D01*
X268982572Y-146503313D01*
X268903291Y-146406709D01*
X268871427Y-146380559D01*
X267084446Y-144593579D01*
X267058291Y-144561709D01*
X266931146Y-144457364D01*
X266786087Y-144379828D01*
X266628689Y-144332082D01*
X266506019Y-144320000D01*
X266506018Y-144320000D01*
X266465000Y-144315960D01*
X266423982Y-144320000D01*
X262912621Y-144320000D01*
X262915812Y-144309482D01*
X262928072Y-144185000D01*
X262925000Y-144170750D01*
X262766250Y-144012000D01*
X261542000Y-144012000D01*
X261542000Y-144032000D01*
X261288000Y-144032000D01*
X261288000Y-144012000D01*
X260063750Y-144012000D01*
X259905000Y-144170750D01*
X259901928Y-144185000D01*
X259914188Y-144309482D01*
X259917379Y-144320000D01*
X258690868Y-144320000D01*
X257694446Y-143323579D01*
X257668291Y-143291709D01*
X257541146Y-143187364D01*
X257396087Y-143109828D01*
X257238689Y-143062082D01*
X257125897Y-143050973D01*
X257411433Y-142765438D01*
X257443292Y-142739292D01*
X257547637Y-142612147D01*
X257625173Y-142467088D01*
X257672919Y-142309690D01*
X257685001Y-142187020D01*
X257685001Y-142187019D01*
X257689041Y-142146001D01*
X257685001Y-142104983D01*
X257685001Y-140912976D01*
X257768987Y-140996962D01*
X257987641Y-141143061D01*
X258230595Y-141243696D01*
X258488514Y-141295000D01*
X258751486Y-141295000D01*
X258770375Y-141291243D01*
X259385561Y-141906430D01*
X259411709Y-141938291D01*
X259443568Y-141964437D01*
X259443570Y-141964439D01*
X259523457Y-142030000D01*
X259538854Y-142042636D01*
X259683913Y-142120172D01*
X259841311Y-142167918D01*
X259918731Y-142175543D01*
X259914188Y-142190518D01*
X259901928Y-142315000D01*
X259901928Y-142915000D01*
X259914188Y-143039482D01*
X259950498Y-143159180D01*
X259999043Y-143250000D01*
X259950498Y-143340820D01*
X259914188Y-143460518D01*
X259901928Y-143585000D01*
X259905000Y-143599250D01*
X260063750Y-143758000D01*
X261288000Y-143758000D01*
X261288000Y-143738000D01*
X261542000Y-143738000D01*
X261542000Y-143758000D01*
X262766250Y-143758000D01*
X262925000Y-143599250D01*
X262928072Y-143585000D01*
X262915812Y-143460518D01*
X262903035Y-143418399D01*
X262996087Y-143390172D01*
X263141146Y-143312636D01*
X263268291Y-143208291D01*
X263294446Y-143176421D01*
X263589625Y-142881243D01*
X263608514Y-142885000D01*
X263871486Y-142885000D01*
X264129405Y-142833696D01*
X264372359Y-142733061D01*
X264487470Y-142656147D01*
X264599701Y-142927095D01*
X264767688Y-143178505D01*
X264981495Y-143392312D01*
X265232905Y-143560299D01*
X265512257Y-143676011D01*
X265808816Y-143735000D01*
X266111184Y-143735000D01*
X266407743Y-143676011D01*
X266687095Y-143560299D01*
X266938505Y-143392312D01*
X267004944Y-143325873D01*
X267010498Y-143344180D01*
X267069463Y-143454494D01*
X267148815Y-143551185D01*
X267245506Y-143630537D01*
X267355820Y-143689502D01*
X267475518Y-143725812D01*
X267600000Y-143738072D01*
X269400000Y-143738072D01*
X269524482Y-143725812D01*
X269644180Y-143689502D01*
X269754494Y-143630537D01*
X269851185Y-143551185D01*
X269930537Y-143454494D01*
X269989502Y-143344180D01*
X270025812Y-143224482D01*
X270038072Y-143100000D01*
X270038072Y-142218938D01*
X270812746Y-142993612D01*
X270123039Y-143683319D01*
X270012596Y-143817895D01*
X269930529Y-143971431D01*
X269879993Y-144138027D01*
X269862929Y-144311281D01*
X269879993Y-144484535D01*
X269930529Y-144651131D01*
X270012596Y-144804667D01*
X270123039Y-144939243D01*
X270688725Y-145504929D01*
X270823301Y-145615372D01*
X270976837Y-145697439D01*
X271143433Y-145747975D01*
X271316687Y-145765039D01*
X271489941Y-145747975D01*
X271656537Y-145697439D01*
X271810073Y-145615372D01*
X271944649Y-145504929D01*
X273464929Y-143984649D01*
X273575372Y-143850073D01*
X273657439Y-143696537D01*
X273707975Y-143529941D01*
X273725039Y-143356687D01*
X273707975Y-143183433D01*
X273657439Y-143016837D01*
X273575372Y-142863301D01*
X273464929Y-142728725D01*
X272899243Y-142163039D01*
X272764667Y-142052596D01*
X272611131Y-141970529D01*
X272444535Y-141919993D01*
X272271281Y-141902929D01*
X272100609Y-141919739D01*
X269694448Y-139513579D01*
X269668293Y-139481709D01*
X269541148Y-139377364D01*
X269396089Y-139299828D01*
X269343186Y-139283780D01*
X269345114Y-139281431D01*
X271061433Y-137565114D01*
X271093292Y-137538968D01*
X271129236Y-137495171D01*
X271197637Y-137411823D01*
X271275173Y-137266764D01*
X271322919Y-137109366D01*
X271339041Y-136945677D01*
X271335001Y-136904659D01*
X271335001Y-130171006D01*
X271339040Y-130129998D01*
X271335001Y-130088990D01*
X271335001Y-130088980D01*
X271322919Y-129966310D01*
X271283084Y-129834990D01*
X275324123Y-129834990D01*
X276564248Y-131075116D01*
X276564248Y-131075116D01*
G37*
X276564248Y-131075116D02*
X276498815Y-131128815D01*
X276419463Y-131225506D01*
X276360498Y-131335820D01*
X276354944Y-131354127D01*
X276288505Y-131287688D01*
X276037095Y-131119701D01*
X275757743Y-131003989D01*
X275461184Y-130945000D01*
X275158816Y-130945000D01*
X274862257Y-131003989D01*
X274582905Y-131119701D01*
X274331495Y-131287688D01*
X274117688Y-131501495D01*
X273949701Y-131752905D01*
X273833989Y-132032257D01*
X273775000Y-132328816D01*
X273775000Y-132631184D01*
X273833989Y-132927743D01*
X273949701Y-133207095D01*
X274117688Y-133458505D01*
X274265001Y-133605818D01*
X274265000Y-140641801D01*
X274121495Y-140737688D01*
X273907688Y-140951495D01*
X273739701Y-141202905D01*
X273623989Y-141482257D01*
X273565000Y-141778816D01*
X273565000Y-142081184D01*
X273623989Y-142377743D01*
X273739701Y-142657095D01*
X273907688Y-142908505D01*
X274121495Y-143122312D01*
X274372905Y-143290299D01*
X274652257Y-143406011D01*
X274948816Y-143465000D01*
X275251184Y-143465000D01*
X275547743Y-143406011D01*
X275827095Y-143290299D01*
X276078505Y-143122312D01*
X276144944Y-143055873D01*
X276150498Y-143074180D01*
X276209463Y-143184494D01*
X276288815Y-143281185D01*
X276385506Y-143360537D01*
X276495820Y-143419502D01*
X276615518Y-143455812D01*
X276740000Y-143468072D01*
X278540000Y-143468072D01*
X278607732Y-143461401D01*
X278548581Y-143520552D01*
X278548570Y-143520561D01*
X277864131Y-144205001D01*
X277555998Y-144205001D01*
X277514979Y-144200961D01*
X277352865Y-144216928D01*
X277351291Y-144217083D01*
X277193893Y-144264829D01*
X277048834Y-144342365D01*
X276967432Y-144409170D01*
X276946467Y-144405000D01*
X276683495Y-144405000D01*
X276425576Y-144456304D01*
X276182622Y-144556939D01*
X275963968Y-144703038D01*
X275778019Y-144888987D01*
X275711989Y-144987809D01*
X275656961Y-144920757D01*
X275091275Y-144355071D01*
X274956699Y-144244628D01*
X274803163Y-144162561D01*
X274636567Y-144112025D01*
X274463313Y-144094961D01*
X274290059Y-144112025D01*
X274123463Y-144162561D01*
X273969927Y-144244628D01*
X273835351Y-144355071D01*
X272315071Y-145875351D01*
X272204628Y-146009927D01*
X272122561Y-146163463D01*
X272072025Y-146330059D01*
X272054961Y-146503313D01*
X272072025Y-146676567D01*
X272122561Y-146843163D01*
X272204628Y-146996699D01*
X272315071Y-147131275D01*
X272880757Y-147696961D01*
X273015333Y-147807404D01*
X273168869Y-147889471D01*
X273335465Y-147940007D01*
X273508719Y-147957071D01*
X273681973Y-147940007D01*
X273848569Y-147889471D01*
X274002105Y-147807404D01*
X274136681Y-147696961D01*
X274303843Y-147529799D01*
X274306709Y-147533291D01*
X274338568Y-147559437D01*
X274338570Y-147559439D01*
X274370023Y-147585251D01*
X274433854Y-147637636D01*
X274578913Y-147715172D01*
X274736311Y-147762918D01*
X274858981Y-147775000D01*
X274858982Y-147775000D01*
X274900000Y-147779040D01*
X274941018Y-147775000D01*
X278030881Y-147775000D01*
X277958987Y-147823038D01*
X277773038Y-148008987D01*
X277626939Y-148227641D01*
X277526304Y-148470595D01*
X277475000Y-148728514D01*
X277475000Y-148991486D01*
X277526304Y-149249405D01*
X277626939Y-149492359D01*
X277773038Y-149711013D01*
X277958987Y-149896962D01*
X278177641Y-150043061D01*
X278420595Y-150143696D01*
X278678514Y-150195000D01*
X278941486Y-150195000D01*
X278960375Y-150191243D01*
X281805001Y-153035870D01*
X281805000Y-154771928D01*
X281740000Y-154771928D01*
X281615518Y-154784188D01*
X281495820Y-154820498D01*
X281385506Y-154879463D01*
X281288815Y-154958815D01*
X281209463Y-155055506D01*
X281150498Y-155165820D01*
X281114188Y-155285518D01*
X281101928Y-155410000D01*
X281101928Y-157210000D01*
X281114188Y-157334482D01*
X281150498Y-157454180D01*
X281209463Y-157564494D01*
X281288815Y-157661185D01*
X281385506Y-157740537D01*
X281495820Y-157799502D01*
X281615518Y-157835812D01*
X281740000Y-157848072D01*
X283540000Y-157848072D01*
X283664482Y-157835812D01*
X283784180Y-157799502D01*
X283894494Y-157740537D01*
X283991185Y-157661185D01*
X284070537Y-157564494D01*
X284129502Y-157454180D01*
X284135056Y-157435873D01*
X284201495Y-157502312D01*
X284452905Y-157670299D01*
X284732257Y-157786011D01*
X285028816Y-157845000D01*
X285331184Y-157845000D01*
X285627743Y-157786011D01*
X285907095Y-157670299D01*
X286158505Y-157502312D01*
X286372312Y-157288505D01*
X286386313Y-157267552D01*
X286385327Y-159335000D01*
X226314511Y-159335000D01*
X226312757Y-156876634D01*
X226467688Y-157108505D01*
X226681495Y-157322312D01*
X226932905Y-157490299D01*
X227212257Y-157606011D01*
X227508816Y-157665000D01*
X227811184Y-157665000D01*
X228107743Y-157606011D01*
X228387095Y-157490299D01*
X228638505Y-157322312D01*
X228704944Y-157255873D01*
X228710498Y-157274180D01*
X228769463Y-157384494D01*
X228848815Y-157481185D01*
X228945506Y-157560537D01*
X229055820Y-157619502D01*
X229175518Y-157655812D01*
X229300000Y-157668072D01*
X231100000Y-157668072D01*
X231224482Y-157655812D01*
X231344180Y-157619502D01*
X231454494Y-157560537D01*
X231551185Y-157481185D01*
X231630537Y-157384494D01*
X231689502Y-157274180D01*
X231725812Y-157154482D01*
X231738072Y-157030000D01*
X231738072Y-155230000D01*
X231725812Y-155105518D01*
X231689502Y-154985820D01*
X231630537Y-154875506D01*
X231551185Y-154778815D01*
X231454494Y-154699463D01*
X231344180Y-154640498D01*
X231224482Y-154604188D01*
X231100000Y-154591928D01*
X230378940Y-154591928D01*
X231715868Y-153255000D01*
X234831928Y-153255000D01*
X234831928Y-153495000D01*
X234848992Y-153668254D01*
X234899528Y-153834850D01*
X234981595Y-153988386D01*
X235092038Y-154122962D01*
X235226614Y-154233405D01*
X235380150Y-154315472D01*
X235546746Y-154366008D01*
X235720000Y-154383072D01*
X236520000Y-154383072D01*
X236693254Y-154366008D01*
X236859850Y-154315472D01*
X237013386Y-154233405D01*
X237147962Y-154122962D01*
X237174311Y-154090856D01*
X237889895Y-154806442D01*
X237916041Y-154838301D01*
X237947900Y-154864447D01*
X237947902Y-154864449D01*
X238043186Y-154942646D01*
X238188245Y-155020182D01*
X238345643Y-155067928D01*
X238509332Y-155084050D01*
X238550350Y-155080010D01*
X239889650Y-155080010D01*
X239930668Y-155084050D01*
X239971686Y-155080010D01*
X239971687Y-155080010D01*
X240094357Y-155067928D01*
X240251755Y-155020182D01*
X240396814Y-154942646D01*
X240523959Y-154838301D01*
X240550114Y-154806431D01*
X244681428Y-150675118D01*
X244713291Y-150648969D01*
X244725000Y-150634701D01*
X244725000Y-150754132D01*
X242208573Y-153270560D01*
X242176709Y-153296710D01*
X242120903Y-153364710D01*
X242072363Y-153423856D01*
X241994827Y-153568915D01*
X241947081Y-153726313D01*
X241930959Y-153890001D01*
X241935000Y-153931029D01*
X241934999Y-155288982D01*
X241934999Y-155288983D01*
X241935000Y-156650973D01*
X241930959Y-156692001D01*
X241947081Y-156855689D01*
X241994827Y-157013087D01*
X242067496Y-157149040D01*
X242072364Y-157158147D01*
X242176709Y-157285292D01*
X242208573Y-157311442D01*
X242878557Y-157981427D01*
X242904708Y-158013292D01*
X243031853Y-158117637D01*
X243176912Y-158195173D01*
X243334310Y-158242919D01*
X243456980Y-158255001D01*
X243456990Y-158255001D01*
X243497998Y-158259040D01*
X243539006Y-158255001D01*
X247968983Y-158255001D01*
X248010001Y-158259041D01*
X248051019Y-158255001D01*
X248051020Y-158255001D01*
X248173690Y-158242919D01*
X248331088Y-158195173D01*
X248476147Y-158117637D01*
X248603292Y-158013292D01*
X248629447Y-157981422D01*
X248946201Y-157664668D01*
X249033820Y-157711502D01*
X249153518Y-157747812D01*
X249278000Y-157760072D01*
X250802000Y-157760072D01*
X250926482Y-157747812D01*
X251046180Y-157711502D01*
X251156494Y-157652537D01*
X251253185Y-157573185D01*
X251310000Y-157503956D01*
X251366815Y-157573185D01*
X251463506Y-157652537D01*
X251573820Y-157711502D01*
X251693518Y-157747812D01*
X251818000Y-157760072D01*
X252294250Y-157757000D01*
X252453000Y-157598250D01*
X252453000Y-156487000D01*
X252433000Y-156487000D01*
X252433000Y-156233000D01*
X252453000Y-156233000D01*
X252453000Y-155121750D01*
X252294250Y-154963000D01*
X251818000Y-154959928D01*
X251693518Y-154972188D01*
X251573820Y-155008498D01*
X251463506Y-155067463D01*
X251366815Y-155146815D01*
X251310000Y-155216044D01*
X251253185Y-155146815D01*
X251156494Y-155067463D01*
X251046180Y-155008498D01*
X250926482Y-154972188D01*
X250875000Y-154967118D01*
X250875000Y-151630867D01*
X251332796Y-151173072D01*
X252540000Y-151173072D01*
X252664482Y-151160812D01*
X252784180Y-151124502D01*
X252894494Y-151065537D01*
X252991185Y-150986185D01*
X253070537Y-150889494D01*
X253111801Y-150812296D01*
X253247641Y-150903061D01*
X253490595Y-151003696D01*
X253748514Y-151055000D01*
X254011486Y-151055000D01*
X254269405Y-151003696D01*
X254512359Y-150903061D01*
X254731013Y-150756962D01*
X254916962Y-150571013D01*
X255063061Y-150352359D01*
X255163696Y-150109405D01*
X255215000Y-149851486D01*
X255215000Y-149588514D01*
X255163696Y-149330595D01*
X255063061Y-149087641D01*
X254916962Y-148868987D01*
X254731013Y-148683038D01*
X254715340Y-148672566D01*
X254719040Y-148635000D01*
X254703169Y-148473856D01*
X254702918Y-148471311D01*
X254655172Y-148313913D01*
X254577636Y-148168854D01*
X254548734Y-148133637D01*
X254499439Y-148073570D01*
X254499437Y-148073568D01*
X254473291Y-148041709D01*
X254441432Y-148015563D01*
X253559445Y-147133578D01*
X253533291Y-147101709D01*
X253406146Y-146997364D01*
X253261087Y-146919828D01*
X253154299Y-146887434D01*
X253165812Y-146849482D01*
X253178072Y-146725000D01*
X253178072Y-146125000D01*
X253165812Y-146000518D01*
X253129502Y-145880820D01*
X253080957Y-145790000D01*
X253129502Y-145699180D01*
X253165812Y-145579482D01*
X253178072Y-145455000D01*
X253175000Y-145440750D01*
X253016250Y-145282000D01*
X251792000Y-145282000D01*
X251792000Y-145302000D01*
X251538000Y-145302000D01*
X251538000Y-145282000D01*
X250313750Y-145282000D01*
X250216964Y-145378786D01*
X250156962Y-145288987D01*
X249971013Y-145103038D01*
X249752359Y-144956939D01*
X249509405Y-144856304D01*
X249251486Y-144805000D01*
X248988514Y-144805000D01*
X248730595Y-144856304D01*
X248487641Y-144956939D01*
X248310696Y-145075169D01*
X250209620Y-143176246D01*
X250249043Y-143250000D01*
X250200498Y-143340820D01*
X250164188Y-143460518D01*
X250151928Y-143585000D01*
X250151928Y-144185000D01*
X250164188Y-144309482D01*
X250200498Y-144429180D01*
X250249043Y-144520000D01*
X250200498Y-144610820D01*
X250164188Y-144730518D01*
X250151928Y-144855000D01*
X250155000Y-144869250D01*
X250313750Y-145028000D01*
X251538000Y-145028000D01*
X251538000Y-145008000D01*
X251792000Y-145008000D01*
X251792000Y-145028000D01*
X253016250Y-145028000D01*
X253175000Y-144869250D01*
X253178072Y-144855000D01*
X253165812Y-144730518D01*
X253162621Y-144720000D01*
X253169133Y-144720000D01*
X254913570Y-146464439D01*
X254913580Y-146464447D01*
X255275001Y-146825869D01*
X255275000Y-151214132D01*
X254558574Y-151930559D01*
X254526710Y-151956709D01*
X254469725Y-152026146D01*
X254422364Y-152083855D01*
X254344828Y-152228914D01*
X254297082Y-152386312D01*
X254280960Y-152550000D01*
X254285001Y-152591028D01*
X254285000Y-154967118D01*
X254233518Y-154972188D01*
X254113820Y-155008498D01*
X254003506Y-155067463D01*
X253906815Y-155146815D01*
X253850000Y-155216044D01*
X253793185Y-155146815D01*
X253696494Y-155067463D01*
X253586180Y-155008498D01*
X253466482Y-154972188D01*
X253342000Y-154959928D01*
X252865750Y-154963000D01*
X252707000Y-155121750D01*
X252707000Y-156233000D01*
X252727000Y-156233000D01*
X252727000Y-156487000D01*
X252707000Y-156487000D01*
X252707000Y-157598250D01*
X252865750Y-157757000D01*
X253342000Y-157760072D01*
X253466482Y-157747812D01*
X253586180Y-157711502D01*
X253696494Y-157652537D01*
X253793185Y-157573185D01*
X253850000Y-157503956D01*
X253906815Y-157573185D01*
X254003506Y-157652537D01*
X254113820Y-157711502D01*
X254233518Y-157747812D01*
X254358000Y-157760072D01*
X255882000Y-157760072D01*
X256006482Y-157747812D01*
X256126180Y-157711502D01*
X256236494Y-157652537D01*
X256333185Y-157573185D01*
X256390000Y-157503956D01*
X256446815Y-157573185D01*
X256543506Y-157652537D01*
X256653820Y-157711502D01*
X256773518Y-157747812D01*
X256898000Y-157760072D01*
X258422000Y-157760072D01*
X258546482Y-157747812D01*
X258666180Y-157711502D01*
X258776494Y-157652537D01*
X258873185Y-157573185D01*
X258930000Y-157503956D01*
X258986815Y-157573185D01*
X259083506Y-157652537D01*
X259193820Y-157711502D01*
X259313518Y-157747812D01*
X259438000Y-157760072D01*
X260962000Y-157760072D01*
X261086482Y-157747812D01*
X261206180Y-157711502D01*
X261316494Y-157652537D01*
X261413185Y-157573185D01*
X261470000Y-157503956D01*
X261526815Y-157573185D01*
X261623506Y-157652537D01*
X261733820Y-157711502D01*
X261853518Y-157747812D01*
X261978000Y-157760072D01*
X263502000Y-157760072D01*
X263626482Y-157747812D01*
X263746180Y-157711502D01*
X263856494Y-157652537D01*
X263953185Y-157573185D01*
X263956399Y-157569268D01*
X264809562Y-158422433D01*
X264835708Y-158454292D01*
X264962853Y-158558637D01*
X265107912Y-158636173D01*
X265265310Y-158683919D01*
X265387980Y-158696001D01*
X265387981Y-158696001D01*
X265428999Y-158700041D01*
X265470017Y-158696001D01*
X269477983Y-158696001D01*
X269519001Y-158700041D01*
X269560019Y-158696001D01*
X269560020Y-158696001D01*
X269682690Y-158683919D01*
X269840088Y-158636173D01*
X269985147Y-158558637D01*
X270112292Y-158454292D01*
X270138447Y-158422422D01*
X271398181Y-157162689D01*
X271396928Y-157505000D01*
X271409188Y-157629482D01*
X271445498Y-157749180D01*
X271504463Y-157859494D01*
X271583815Y-157956185D01*
X271680506Y-158035537D01*
X271790820Y-158094502D01*
X271910518Y-158130812D01*
X272035000Y-158143072D01*
X272924250Y-158140000D01*
X273083000Y-157981250D01*
X273083000Y-156507000D01*
X273337000Y-156507000D01*
X273337000Y-157981250D01*
X273495750Y-158140000D01*
X274385000Y-158143072D01*
X274509482Y-158130812D01*
X274629180Y-158094502D01*
X274739494Y-158035537D01*
X274836185Y-157956185D01*
X274915537Y-157859494D01*
X274974502Y-157749180D01*
X275010812Y-157629482D01*
X275023072Y-157505000D01*
X275021553Y-157090000D01*
X275341928Y-157090000D01*
X275354188Y-157214482D01*
X275390498Y-157334180D01*
X275449463Y-157444494D01*
X275528815Y-157541185D01*
X275625506Y-157620537D01*
X275735820Y-157679502D01*
X275855518Y-157715812D01*
X275980000Y-157728072D01*
X276544250Y-157725000D01*
X276703000Y-157566250D01*
X276703000Y-156367000D01*
X275503750Y-156367000D01*
X275345000Y-156525750D01*
X275341928Y-157090000D01*
X275021553Y-157090000D01*
X275020000Y-156665750D01*
X274861250Y-156507000D01*
X273337000Y-156507000D01*
X273083000Y-156507000D01*
X273063000Y-156507000D01*
X273063000Y-156253000D01*
X273083000Y-156253000D01*
X273083000Y-154778750D01*
X273337000Y-154778750D01*
X273337000Y-156253000D01*
X274861250Y-156253000D01*
X275020000Y-156094250D01*
X275023072Y-155255000D01*
X275010812Y-155130518D01*
X274974502Y-155010820D01*
X274915537Y-154900506D01*
X274836185Y-154803815D01*
X274739494Y-154724463D01*
X274629180Y-154665498D01*
X274509482Y-154629188D01*
X274385000Y-154616928D01*
X273495750Y-154620000D01*
X273337000Y-154778750D01*
X273083000Y-154778750D01*
X272924250Y-154620000D01*
X272369990Y-154618085D01*
X272369990Y-153300877D01*
X272627796Y-153043072D01*
X274135001Y-153043072D01*
X274308255Y-153026008D01*
X274474851Y-152975472D01*
X274628387Y-152893405D01*
X274746008Y-152796876D01*
X276704132Y-154755000D01*
X276702998Y-154755000D01*
X276702998Y-154913748D01*
X276544250Y-154755000D01*
X275980000Y-154751928D01*
X275855518Y-154764188D01*
X275735820Y-154800498D01*
X275625506Y-154859463D01*
X275528815Y-154938815D01*
X275449463Y-155035506D01*
X275390498Y-155145820D01*
X275354188Y-155265518D01*
X275341928Y-155390000D01*
X275345000Y-155954250D01*
X275503750Y-156113000D01*
X276703000Y-156113000D01*
X276703000Y-156093000D01*
X276957000Y-156093000D01*
X276957000Y-156113000D01*
X276977000Y-156113000D01*
X276977000Y-156367000D01*
X276957000Y-156367000D01*
X276957000Y-157566250D01*
X277115750Y-157725000D01*
X277680000Y-157728072D01*
X277804482Y-157715812D01*
X277924180Y-157679502D01*
X278034494Y-157620537D01*
X278131185Y-157541185D01*
X278210537Y-157444494D01*
X278269502Y-157334180D01*
X278290393Y-157265313D01*
X278314866Y-157295134D01*
X278540986Y-157480706D01*
X278798966Y-157618599D01*
X279078889Y-157703513D01*
X279297050Y-157725000D01*
X279442950Y-157725000D01*
X279661111Y-157703513D01*
X279941034Y-157618599D01*
X280199014Y-157480706D01*
X280425134Y-157295134D01*
X280610706Y-157069014D01*
X280748599Y-156811034D01*
X280833513Y-156531111D01*
X280862185Y-156240000D01*
X280833513Y-155948889D01*
X280748599Y-155668966D01*
X280610706Y-155410986D01*
X280425134Y-155184866D01*
X280199014Y-154999294D01*
X279941034Y-154861401D01*
X279661111Y-154776487D01*
X279442950Y-154755000D01*
X279297050Y-154755000D01*
X279086596Y-154775728D01*
X275029446Y-150718579D01*
X275023072Y-150710812D01*
X275023072Y-150404999D01*
X275006008Y-150231745D01*
X274955472Y-150065149D01*
X274873405Y-149911613D01*
X274762962Y-149777038D01*
X274628387Y-149666595D01*
X274474851Y-149584528D01*
X274308255Y-149533992D01*
X274135001Y-149516928D01*
X272741047Y-149516928D01*
X272816962Y-149441013D01*
X272963061Y-149222359D01*
X273063696Y-148979405D01*
X273115000Y-148721486D01*
X273115000Y-148458514D01*
X273063696Y-148200595D01*
X272963061Y-147957641D01*
X272816962Y-147738987D01*
X272631013Y-147553038D01*
X272412359Y-147406939D01*
X272169405Y-147306304D01*
X271911486Y-147255000D01*
X271648514Y-147255000D01*
X271390595Y-147306304D01*
X271147641Y-147406939D01*
X270928987Y-147553038D01*
X270743038Y-147738987D01*
X270645000Y-147885712D01*
X270546962Y-147738987D01*
X270361013Y-147553038D01*
X270142359Y-147406939D01*
X269899405Y-147306304D01*
X269641486Y-147255000D01*
X269378514Y-147255000D01*
X269145000Y-147301449D01*
X269145000Y-147041018D01*
X269149040Y-146999999D01*
X269132918Y-146836311D01*
X269085172Y-146678913D01*
X269007636Y-146533854D01*
X268982572Y-146503313D01*
X268903291Y-146406709D01*
X268871427Y-146380559D01*
X267084446Y-144593579D01*
X267058291Y-144561709D01*
X266931146Y-144457364D01*
X266786087Y-144379828D01*
X266628689Y-144332082D01*
X266506019Y-144320000D01*
X266506018Y-144320000D01*
X266465000Y-144315960D01*
X266423982Y-144320000D01*
X262912621Y-144320000D01*
X262915812Y-144309482D01*
X262928072Y-144185000D01*
X262925000Y-144170750D01*
X262766250Y-144012000D01*
X261542000Y-144012000D01*
X261542000Y-144032000D01*
X261288000Y-144032000D01*
X261288000Y-144012000D01*
X260063750Y-144012000D01*
X259905000Y-144170750D01*
X259901928Y-144185000D01*
X259914188Y-144309482D01*
X259917379Y-144320000D01*
X258690868Y-144320000D01*
X257694446Y-143323579D01*
X257668291Y-143291709D01*
X257541146Y-143187364D01*
X257396087Y-143109828D01*
X257238689Y-143062082D01*
X257125897Y-143050973D01*
X257411433Y-142765438D01*
X257443292Y-142739292D01*
X257547637Y-142612147D01*
X257625173Y-142467088D01*
X257672919Y-142309690D01*
X257685001Y-142187020D01*
X257685001Y-142187019D01*
X257689041Y-142146001D01*
X257685001Y-142104983D01*
X257685001Y-140912976D01*
X257768987Y-140996962D01*
X257987641Y-141143061D01*
X258230595Y-141243696D01*
X258488514Y-141295000D01*
X258751486Y-141295000D01*
X258770375Y-141291243D01*
X259385561Y-141906430D01*
X259411709Y-141938291D01*
X259443568Y-141964437D01*
X259443570Y-141964439D01*
X259523457Y-142030000D01*
X259538854Y-142042636D01*
X259683913Y-142120172D01*
X259841311Y-142167918D01*
X259918731Y-142175543D01*
X259914188Y-142190518D01*
X259901928Y-142315000D01*
X259901928Y-142915000D01*
X259914188Y-143039482D01*
X259950498Y-143159180D01*
X259999043Y-143250000D01*
X259950498Y-143340820D01*
X259914188Y-143460518D01*
X259901928Y-143585000D01*
X259905000Y-143599250D01*
X260063750Y-143758000D01*
X261288000Y-143758000D01*
X261288000Y-143738000D01*
X261542000Y-143738000D01*
X261542000Y-143758000D01*
X262766250Y-143758000D01*
X262925000Y-143599250D01*
X262928072Y-143585000D01*
X262915812Y-143460518D01*
X262903035Y-143418399D01*
X262996087Y-143390172D01*
X263141146Y-143312636D01*
X263268291Y-143208291D01*
X263294446Y-143176421D01*
X263589625Y-142881243D01*
X263608514Y-142885000D01*
X263871486Y-142885000D01*
X264129405Y-142833696D01*
X264372359Y-142733061D01*
X264487470Y-142656147D01*
X264599701Y-142927095D01*
X264767688Y-143178505D01*
X264981495Y-143392312D01*
X265232905Y-143560299D01*
X265512257Y-143676011D01*
X265808816Y-143735000D01*
X266111184Y-143735000D01*
X266407743Y-143676011D01*
X266687095Y-143560299D01*
X266938505Y-143392312D01*
X267004944Y-143325873D01*
X267010498Y-143344180D01*
X267069463Y-143454494D01*
X267148815Y-143551185D01*
X267245506Y-143630537D01*
X267355820Y-143689502D01*
X267475518Y-143725812D01*
X267600000Y-143738072D01*
X269400000Y-143738072D01*
X269524482Y-143725812D01*
X269644180Y-143689502D01*
X269754494Y-143630537D01*
X269851185Y-143551185D01*
X269930537Y-143454494D01*
X269989502Y-143344180D01*
X270025812Y-143224482D01*
X270038072Y-143100000D01*
X270038072Y-142218938D01*
X270812746Y-142993612D01*
X270123039Y-143683319D01*
X270012596Y-143817895D01*
X269930529Y-143971431D01*
X269879993Y-144138027D01*
X269862929Y-144311281D01*
X269879993Y-144484535D01*
X269930529Y-144651131D01*
X270012596Y-144804667D01*
X270123039Y-144939243D01*
X270688725Y-145504929D01*
X270823301Y-145615372D01*
X270976837Y-145697439D01*
X271143433Y-145747975D01*
X271316687Y-145765039D01*
X271489941Y-145747975D01*
X271656537Y-145697439D01*
X271810073Y-145615372D01*
X271944649Y-145504929D01*
X273464929Y-143984649D01*
X273575372Y-143850073D01*
X273657439Y-143696537D01*
X273707975Y-143529941D01*
X273725039Y-143356687D01*
X273707975Y-143183433D01*
X273657439Y-143016837D01*
X273575372Y-142863301D01*
X273464929Y-142728725D01*
X272899243Y-142163039D01*
X272764667Y-142052596D01*
X272611131Y-141970529D01*
X272444535Y-141919993D01*
X272271281Y-141902929D01*
X272100609Y-141919739D01*
X269694448Y-139513579D01*
X269668293Y-139481709D01*
X269541148Y-139377364D01*
X269396089Y-139299828D01*
X269343186Y-139283780D01*
X269345114Y-139281431D01*
X271061433Y-137565114D01*
X271093292Y-137538968D01*
X271129236Y-137495171D01*
X271197637Y-137411823D01*
X271275173Y-137266764D01*
X271322919Y-137109366D01*
X271339041Y-136945677D01*
X271335001Y-136904659D01*
X271335001Y-130171006D01*
X271339040Y-130129998D01*
X271335001Y-130088990D01*
X271335001Y-130088980D01*
X271322919Y-129966310D01*
X271283084Y-129834990D01*
X275324123Y-129834990D01*
X276564248Y-131075116D01*
%TD*%
M02*
