%TF.GenerationSoftware,KiCad,Pcbnew,(5.1.4)-1*%
%TF.CreationDate,2021-08-29T09:46:42+03:00*%
%TF.ProjectId,ark,61726b2e-6b69-4636-9164-5f7063625858,rev?*%
%TF.SameCoordinates,Original*%
%TF.FileFunction,Soldermask,Bot*%
%TF.FilePolarity,Negative*%
%FSLAX46Y46*%
G04 Gerber Fmt 4.6, Leading zero omitted, Abs format (unit mm)*
G04 Created by KiCad (PCBNEW (5.1.4)-1) date 2021-08-29 09:46:42*
%MOMM*%
%LPD*%
G04 APERTURE LIST*
%ADD10R,1.700000X1.700000*%
%ADD11O,1.700000X1.700000*%
%ADD12R,1.800000X1.800000*%
%ADD13C,1.800000*%
G04 APERTURE END LIST*
D10*
%TO.C,P3*%
X276830000Y-156240000D03*
D11*
X279370000Y-156240000D03*
%TD*%
D12*
%TO.C,D29*%
X237270000Y-132090000D03*
D13*
X234730000Y-132090000D03*
%TD*%
D12*
%TO.C,D9*%
X265580000Y-109280000D03*
D13*
X268120000Y-109280000D03*
%TD*%
%TO.C,D11*%
X285100000Y-120130000D03*
D12*
X282560000Y-120130000D03*
%TD*%
%TO.C,D12*%
X282560000Y-131690000D03*
D13*
X285100000Y-131690000D03*
%TD*%
%TO.C,D13*%
X285100000Y-143620000D03*
D12*
X282560000Y-143620000D03*
%TD*%
D13*
%TO.C,D16*%
X265960000Y-142200000D03*
D12*
X268500000Y-142200000D03*
%TD*%
%TO.C,D7*%
X254280000Y-104770000D03*
D13*
X251740000Y-104770000D03*
%TD*%
%TO.C,D6*%
X244440000Y-109280000D03*
D12*
X246980000Y-109280000D03*
%TD*%
D13*
%TO.C,D1*%
X227660000Y-156130000D03*
D12*
X230200000Y-156130000D03*
%TD*%
%TO.C,D3*%
X230150000Y-131370000D03*
D13*
X227610000Y-131370000D03*
%TD*%
%TO.C,D4*%
X227630000Y-119960000D03*
D12*
X230170000Y-119960000D03*
%TD*%
%TO.C,D2*%
X230210000Y-143610000D03*
D13*
X227670000Y-143610000D03*
%TD*%
D12*
%TO.C,D5*%
X238970000Y-114430000D03*
D13*
X236430000Y-114430000D03*
%TD*%
D12*
%TO.C,D14*%
X282640000Y-156310000D03*
D13*
X285180000Y-156310000D03*
%TD*%
D12*
%TO.C,D15*%
X268430000Y-156250000D03*
D13*
X265890000Y-156250000D03*
%TD*%
%TO.C,D17*%
X275100000Y-141930000D03*
D12*
X277640000Y-141930000D03*
%TD*%
%TO.C,D18*%
X277850000Y-132480000D03*
D13*
X275310000Y-132480000D03*
%TD*%
D12*
%TO.C,D19*%
X277780000Y-123290000D03*
D13*
X275240000Y-123290000D03*
%TD*%
D12*
%TO.C,D20*%
X269440000Y-123320000D03*
D13*
X266900000Y-123320000D03*
%TD*%
%TO.C,D21*%
X266560000Y-131430000D03*
D12*
X269100000Y-131430000D03*
%TD*%
D13*
%TO.C,D22*%
X259160000Y-131390000D03*
D12*
X261700000Y-131390000D03*
%TD*%
%TO.C,D23*%
X261300000Y-123460000D03*
D13*
X258760000Y-123460000D03*
%TD*%
%TO.C,D24*%
X251400000Y-123460000D03*
D12*
X253940000Y-123460000D03*
%TD*%
D13*
%TO.C,D25*%
X250990000Y-131360000D03*
D12*
X253530000Y-131360000D03*
%TD*%
%TO.C,D26*%
X245890000Y-131360000D03*
D13*
X243350000Y-131360000D03*
%TD*%
D12*
%TO.C,D27*%
X245630000Y-123290000D03*
D13*
X243090000Y-123290000D03*
%TD*%
%TO.C,D30*%
X234750000Y-141890000D03*
D12*
X237290000Y-141890000D03*
%TD*%
%TO.C,D31*%
X246500000Y-142030000D03*
D13*
X243960000Y-142030000D03*
%TD*%
%TO.C,D8*%
X261040000Y-104810000D03*
D12*
X258500000Y-104810000D03*
%TD*%
%TO.C,D10*%
X274190000Y-114880000D03*
D13*
X276730000Y-114880000D03*
%TD*%
D12*
%TO.C,D28*%
X237390000Y-123290000D03*
D13*
X234850000Y-123290000D03*
%TD*%
D12*
%TO.C,D32*%
X246710000Y-156020000D03*
D13*
X244170000Y-156020000D03*
%TD*%
M02*
