%TF.GenerationSoftware,KiCad,Pcbnew,(5.1.4)-1*%
%TF.CreationDate,2021-08-29T10:14:45+03:00*%
%TF.ProjectId,optiem,6f707469-656d-42e6-9b69-6361645f7063,rev?*%
%TF.SameCoordinates,Original*%
%TF.FileFunction,Soldermask,Bot*%
%TF.FilePolarity,Negative*%
%FSLAX46Y46*%
G04 Gerber Fmt 4.6, Leading zero omitted, Abs format (unit mm)*
G04 Created by KiCad (PCBNEW (5.1.4)-1) date 2021-08-29 10:14:45*
%MOMM*%
%LPD*%
G04 APERTURE LIST*
%ADD10C,1.800000*%
%ADD11R,1.800000X1.800000*%
%ADD12O,1.700000X1.700000*%
%ADD13R,1.700000X1.700000*%
G04 APERTURE END LIST*
D10*
%TO.C,D17*%
X116332000Y-96012000D03*
D11*
X118872000Y-96012000D03*
%TD*%
D12*
%TO.C,P3*%
X155194000Y-118618000D03*
D13*
X155194000Y-121158000D03*
%TD*%
D11*
%TO.C,D29*%
X146304000Y-87376000D03*
D10*
X146304000Y-89916000D03*
%TD*%
D11*
%TO.C,D9*%
X166370000Y-95758000D03*
D10*
X163830000Y-95758000D03*
%TD*%
%TO.C,D11*%
X153162000Y-103124000D03*
D11*
X155702000Y-103124000D03*
%TD*%
%TO.C,D12*%
X149098000Y-105156000D03*
D10*
X146558000Y-105156000D03*
%TD*%
%TO.C,D13*%
X142240000Y-105410000D03*
D11*
X139700000Y-105410000D03*
%TD*%
D10*
%TO.C,D16*%
X120650000Y-100076000D03*
D11*
X123190000Y-100076000D03*
%TD*%
%TO.C,D7*%
X166116000Y-83820000D03*
D10*
X163576000Y-83820000D03*
%TD*%
%TO.C,D6*%
X159258000Y-79248000D03*
D11*
X161798000Y-79248000D03*
%TD*%
D10*
%TO.C,D1*%
X126492000Y-76200000D03*
D11*
X129032000Y-76200000D03*
%TD*%
%TO.C,D3*%
X142240000Y-73914000D03*
D10*
X139700000Y-73914000D03*
%TD*%
%TO.C,D4*%
X146558000Y-74422000D03*
D11*
X149098000Y-74422000D03*
%TD*%
%TO.C,D2*%
X135128000Y-74422000D03*
D10*
X132588000Y-74422000D03*
%TD*%
D11*
%TO.C,D5*%
X155448000Y-76200000D03*
D10*
X152908000Y-76200000D03*
%TD*%
D11*
%TO.C,D14*%
X135636000Y-104902000D03*
D10*
X133096000Y-104902000D03*
%TD*%
D13*
%TO.C,P2*%
X155194000Y-115570000D03*
D12*
X155194000Y-113030000D03*
%TD*%
D11*
%TO.C,D15*%
X129032000Y-103124000D03*
D10*
X126492000Y-103124000D03*
%TD*%
D11*
%TO.C,D18*%
X116840000Y-90424000D03*
D10*
X114300000Y-90424000D03*
%TD*%
D11*
%TO.C,D19*%
X117856000Y-84328000D03*
D10*
X115316000Y-84328000D03*
%TD*%
D11*
%TO.C,D20*%
X122428000Y-79756000D03*
D10*
X119888000Y-79756000D03*
%TD*%
%TO.C,D21*%
X123444000Y-82804000D03*
D11*
X125984000Y-82804000D03*
%TD*%
D10*
%TO.C,D22*%
X127254000Y-85598000D03*
D11*
X129794000Y-85598000D03*
%TD*%
%TO.C,D23*%
X133604000Y-88392000D03*
D10*
X131064000Y-88392000D03*
%TD*%
%TO.C,D24*%
X134874000Y-91186000D03*
D11*
X137414000Y-91186000D03*
%TD*%
D10*
%TO.C,D25*%
X143002000Y-90170000D03*
D11*
X143002000Y-92710000D03*
%TD*%
%TO.C,D26*%
X149352000Y-92710000D03*
D10*
X149352000Y-90170000D03*
%TD*%
D11*
%TO.C,D27*%
X156972000Y-92710000D03*
D10*
X156972000Y-90170000D03*
%TD*%
%TO.C,D30*%
X138938000Y-87630000D03*
D11*
X141478000Y-87630000D03*
%TD*%
%TO.C,D31*%
X137414000Y-83566000D03*
D10*
X134874000Y-83566000D03*
%TD*%
%TO.C,D8*%
X165354000Y-89916000D03*
D11*
X167894000Y-89916000D03*
%TD*%
%TO.C,D10*%
X161798000Y-100076000D03*
D10*
X159258000Y-100076000D03*
%TD*%
D11*
%TO.C,D28*%
X152908000Y-88646000D03*
D10*
X152908000Y-91186000D03*
%TD*%
D11*
%TO.C,D32*%
X130302000Y-79502000D03*
D10*
X132842000Y-79502000D03*
%TD*%
M02*
