M48
; DRILL file {KiCad (5.1.4)-1} date 29.8.2021 10.14.47
; FORMAT={-:-/ absolute / inch / decimal}
; #@! TF.CreationDate,2021-08-29T10:14:47+03:00
; #@! TF.GenerationSoftware,Kicad,Pcbnew,(5.1.4)-1
; #@! TF.FileFunction,Plated,1,2,PTH
FMAT,2
INCH
T1C0.0276
T2C0.0354
T3C0.0394
%
G90
G05
T1
X4.91Y-4.71
X4.9278Y-4.42
X4.93Y-4.78
X4.98Y-4.68
X5.02Y-3.13
X5.04Y-3.81
X5.07Y-4.79
X5.31Y-4.78
X5.5Y-4.73
X5.56Y-3.9
X5.66Y-3.29
X5.8Y-3.76
X6.08Y-3.37
X6.3Y-3.55
T2
X5.16Y-3.48
X5.26Y-3.48
X5.76Y-3.44
X5.76Y-3.54
X5.88Y-3.55
X5.88Y-3.65
X6.02Y-3.49
X6.02Y-3.59
X5.63Y-3.55
X5.63Y-3.65
X4.5Y-3.56
X4.6Y-3.56
X4.75Y-3.94
X4.85Y-3.94
X6.44Y-3.3
X6.54Y-3.3
X5.77Y-2.93
X5.87Y-2.93
X5.5Y-4.15
X5.6Y-4.15
X5.5Y-2.91
X5.6Y-2.91
X4.54Y-3.32
X4.64Y-3.32
X6.18Y-3.55
X6.18Y-3.65
X4.58Y-3.78
X4.68Y-3.78
X6.51Y-3.54
X6.61Y-3.54
X4.86Y-3.26
X4.96Y-3.26
X5.22Y-2.93
X5.32Y-2.93
X6.45Y-3.77
X6.55Y-3.77
X5.24Y-4.13
X5.34Y-4.13
X6.03Y-4.06
X6.13Y-4.06
X4.98Y-4.06
X5.08Y-4.06
X6.02Y-3.0
X6.12Y-3.0
X5.31Y-3.59
X5.41Y-3.59
X5.13Y-3.13
X5.23Y-3.13
X5.47Y-3.45
X5.57Y-3.45
X6.27Y-3.94
X6.37Y-3.94
X5.31Y-3.29
X5.41Y-3.29
X5.01Y-3.37
X5.11Y-3.37
X4.98Y-3.0
X5.08Y-3.0
X5.77Y-4.14
X5.87Y-4.14
X4.72Y-3.14
X4.82Y-3.14
X6.27Y-3.12
X6.37Y-3.12
T3
X6.11Y-4.45
X6.11Y-4.55
X6.11Y-4.67
X6.11Y-4.77
T0
M30
