%TF.GenerationSoftware,KiCad,Pcbnew,(5.1.4)-1*%
%TF.CreationDate,2021-08-29T10:14:45+03:00*%
%TF.ProjectId,optiem,6f707469-656d-42e6-9b69-6361645f7063,rev?*%
%TF.SameCoordinates,Original*%
%TF.FileFunction,Copper,L2,Bot*%
%TF.FilePolarity,Positive*%
%FSLAX46Y46*%
G04 Gerber Fmt 4.6, Leading zero omitted, Abs format (unit mm)*
G04 Created by KiCad (PCBNEW (5.1.4)-1) date 2021-08-29 10:14:45*
%MOMM*%
%LPD*%
G04 APERTURE LIST*
%TA.AperFunction,ComponentPad*%
%ADD10C,1.800000*%
%TD*%
%TA.AperFunction,ComponentPad*%
%ADD11R,1.800000X1.800000*%
%TD*%
%TA.AperFunction,ComponentPad*%
%ADD12O,1.700000X1.700000*%
%TD*%
%TA.AperFunction,ComponentPad*%
%ADD13R,1.700000X1.700000*%
%TD*%
%TA.AperFunction,ViaPad*%
%ADD14C,1.400000*%
%TD*%
%TA.AperFunction,Conductor*%
%ADD15C,0.400000*%
%TD*%
%TA.AperFunction,Conductor*%
%ADD16C,0.254000*%
%TD*%
G04 APERTURE END LIST*
D10*
%TO.P,D17,2*%
%TO.N,Net-(D17-Pad2)*%
X116332000Y-96012000D03*
D11*
%TO.P,D17,1*%
%TO.N,Net-(D1-Pad1)*%
X118872000Y-96012000D03*
%TD*%
D12*
%TO.P,P3,2*%
%TO.N,VCC*%
X155194000Y-118618000D03*
D13*
%TO.P,P3,1*%
%TO.N,GND*%
X155194000Y-121158000D03*
%TD*%
D11*
%TO.P,D29,1*%
%TO.N,Net-(D13-Pad1)*%
X146304000Y-87376000D03*
D10*
%TO.P,D29,2*%
%TO.N,Net-(D25-Pad2)*%
X146304000Y-89916000D03*
%TD*%
D11*
%TO.P,D9,1*%
%TO.N,Net-(D1-Pad1)*%
X166370000Y-95758000D03*
D10*
%TO.P,D9,2*%
%TO.N,Net-(D10-Pad2)*%
X163830000Y-95758000D03*
%TD*%
%TO.P,D11,2*%
%TO.N,Net-(D10-Pad2)*%
X153162000Y-103124000D03*
D11*
%TO.P,D11,1*%
%TO.N,Net-(D11-Pad1)*%
X155702000Y-103124000D03*
%TD*%
%TO.P,D12,1*%
%TO.N,Net-(D12-Pad1)*%
X149098000Y-105156000D03*
D10*
%TO.P,D12,2*%
%TO.N,Net-(D10-Pad2)*%
X146558000Y-105156000D03*
%TD*%
%TO.P,D13,2*%
%TO.N,Net-(D10-Pad2)*%
X142240000Y-105410000D03*
D11*
%TO.P,D13,1*%
%TO.N,Net-(D13-Pad1)*%
X139700000Y-105410000D03*
%TD*%
D10*
%TO.P,D16,2*%
%TO.N,Net-(D10-Pad2)*%
X120650000Y-100076000D03*
D11*
%TO.P,D16,1*%
%TO.N,Net-(D16-Pad1)*%
X123190000Y-100076000D03*
%TD*%
%TO.P,D7,1*%
%TO.N,Net-(D15-Pad1)*%
X166116000Y-83820000D03*
D10*
%TO.P,D7,2*%
%TO.N,Net-(D1-Pad2)*%
X163576000Y-83820000D03*
%TD*%
%TO.P,D6,2*%
%TO.N,Net-(D1-Pad2)*%
X159258000Y-79248000D03*
D11*
%TO.P,D6,1*%
%TO.N,Net-(D14-Pad1)*%
X161798000Y-79248000D03*
%TD*%
D10*
%TO.P,D1,2*%
%TO.N,Net-(D1-Pad2)*%
X126492000Y-76200000D03*
D11*
%TO.P,D1,1*%
%TO.N,Net-(D1-Pad1)*%
X129032000Y-76200000D03*
%TD*%
%TO.P,D3,1*%
%TO.N,Net-(D11-Pad1)*%
X142240000Y-73914000D03*
D10*
%TO.P,D3,2*%
%TO.N,Net-(D1-Pad2)*%
X139700000Y-73914000D03*
%TD*%
%TO.P,D4,2*%
%TO.N,Net-(D1-Pad2)*%
X146558000Y-74422000D03*
D11*
%TO.P,D4,1*%
%TO.N,Net-(D12-Pad1)*%
X149098000Y-74422000D03*
%TD*%
%TO.P,D2,1*%
%TO.N,Net-(D10-Pad1)*%
X135128000Y-74422000D03*
D10*
%TO.P,D2,2*%
%TO.N,Net-(D1-Pad2)*%
X132588000Y-74422000D03*
%TD*%
D11*
%TO.P,D5,1*%
%TO.N,Net-(D13-Pad1)*%
X155448000Y-76200000D03*
D10*
%TO.P,D5,2*%
%TO.N,Net-(D1-Pad2)*%
X152908000Y-76200000D03*
%TD*%
D11*
%TO.P,D14,1*%
%TO.N,Net-(D14-Pad1)*%
X135636000Y-104902000D03*
D10*
%TO.P,D14,2*%
%TO.N,Net-(D10-Pad2)*%
X133096000Y-104902000D03*
%TD*%
D13*
%TO.P,P2,1*%
%TO.N,GND*%
X155194000Y-115570000D03*
D12*
%TO.P,P2,2*%
%TO.N,Net-(F1-Pad2)*%
X155194000Y-113030000D03*
%TD*%
D11*
%TO.P,D15,1*%
%TO.N,Net-(D15-Pad1)*%
X129032000Y-103124000D03*
D10*
%TO.P,D15,2*%
%TO.N,Net-(D10-Pad2)*%
X126492000Y-103124000D03*
%TD*%
D11*
%TO.P,D18,1*%
%TO.N,Net-(D10-Pad1)*%
X116840000Y-90424000D03*
D10*
%TO.P,D18,2*%
%TO.N,Net-(D17-Pad2)*%
X114300000Y-90424000D03*
%TD*%
D11*
%TO.P,D19,1*%
%TO.N,Net-(D11-Pad1)*%
X117856000Y-84328000D03*
D10*
%TO.P,D19,2*%
%TO.N,Net-(D17-Pad2)*%
X115316000Y-84328000D03*
%TD*%
D11*
%TO.P,D20,1*%
%TO.N,Net-(D12-Pad1)*%
X122428000Y-79756000D03*
D10*
%TO.P,D20,2*%
%TO.N,Net-(D17-Pad2)*%
X119888000Y-79756000D03*
%TD*%
%TO.P,D21,2*%
%TO.N,Net-(D17-Pad2)*%
X123444000Y-82804000D03*
D11*
%TO.P,D21,1*%
%TO.N,Net-(D13-Pad1)*%
X125984000Y-82804000D03*
%TD*%
D10*
%TO.P,D22,2*%
%TO.N,Net-(D17-Pad2)*%
X127254000Y-85598000D03*
D11*
%TO.P,D22,1*%
%TO.N,Net-(D14-Pad1)*%
X129794000Y-85598000D03*
%TD*%
%TO.P,D23,1*%
%TO.N,Net-(D15-Pad1)*%
X133604000Y-88392000D03*
D10*
%TO.P,D23,2*%
%TO.N,Net-(D17-Pad2)*%
X131064000Y-88392000D03*
%TD*%
%TO.P,D24,2*%
%TO.N,Net-(D17-Pad2)*%
X134874000Y-91186000D03*
D11*
%TO.P,D24,1*%
%TO.N,Net-(D16-Pad1)*%
X137414000Y-91186000D03*
%TD*%
D10*
%TO.P,D25,2*%
%TO.N,Net-(D25-Pad2)*%
X143002000Y-90170000D03*
D11*
%TO.P,D25,1*%
%TO.N,Net-(D1-Pad1)*%
X143002000Y-92710000D03*
%TD*%
%TO.P,D26,1*%
%TO.N,Net-(D10-Pad1)*%
X149352000Y-92710000D03*
D10*
%TO.P,D26,2*%
%TO.N,Net-(D25-Pad2)*%
X149352000Y-90170000D03*
%TD*%
D11*
%TO.P,D27,1*%
%TO.N,Net-(D11-Pad1)*%
X156972000Y-92710000D03*
D10*
%TO.P,D27,2*%
%TO.N,Net-(D25-Pad2)*%
X156972000Y-90170000D03*
%TD*%
%TO.P,D30,2*%
%TO.N,Net-(D25-Pad2)*%
X138938000Y-87630000D03*
D11*
%TO.P,D30,1*%
%TO.N,Net-(D14-Pad1)*%
X141478000Y-87630000D03*
%TD*%
%TO.P,D31,1*%
%TO.N,Net-(D15-Pad1)*%
X137414000Y-83566000D03*
D10*
%TO.P,D31,2*%
%TO.N,Net-(D25-Pad2)*%
X134874000Y-83566000D03*
%TD*%
%TO.P,D8,2*%
%TO.N,Net-(D1-Pad2)*%
X165354000Y-89916000D03*
D11*
%TO.P,D8,1*%
%TO.N,Net-(D16-Pad1)*%
X167894000Y-89916000D03*
%TD*%
%TO.P,D10,1*%
%TO.N,Net-(D10-Pad1)*%
X161798000Y-100076000D03*
D10*
%TO.P,D10,2*%
%TO.N,Net-(D10-Pad2)*%
X159258000Y-100076000D03*
%TD*%
D11*
%TO.P,D28,1*%
%TO.N,Net-(D12-Pad1)*%
X152908000Y-88646000D03*
D10*
%TO.P,D28,2*%
%TO.N,Net-(D25-Pad2)*%
X152908000Y-91186000D03*
%TD*%
D11*
%TO.P,D32,1*%
%TO.N,Net-(D16-Pad1)*%
X130302000Y-79502000D03*
D10*
%TO.P,D32,2*%
%TO.N,Net-(D25-Pad2)*%
X132842000Y-79502000D03*
%TD*%
D14*
%TO.N,Net-(D1-Pad1)*%
X147320000Y-95504000D03*
X125222000Y-121412000D03*
%TO.N,Net-(D10-Pad1)*%
X139700000Y-120142000D03*
X128016000Y-96774000D03*
%TO.N,Net-(D11-Pad1)*%
X134874000Y-121412000D03*
%TO.N,Net-(D12-Pad1)*%
X128778000Y-121666000D03*
%TO.N,Net-(D13-Pad1)*%
X154432000Y-85598000D03*
X127508000Y-79502000D03*
X125167000Y-112268000D03*
%TO.N,Net-(D14-Pad1)*%
X126492000Y-118872000D03*
X141224000Y-99060000D03*
%TO.N,Net-(D15-Pad1)*%
X143764000Y-83566000D03*
X124714000Y-119634000D03*
%TO.N,Net-(D25-Pad2)*%
X160020000Y-90170000D03*
%TD*%
D15*
%TO.N,Net-(D1-Pad1)*%
X166370000Y-94458000D02*
X166370000Y-95758000D01*
X148309949Y-95504000D02*
X149455950Y-94357999D01*
X147320000Y-95504000D02*
X148309949Y-95504000D01*
X124968000Y-121158000D02*
X125222000Y-121412000D01*
X123952000Y-121158000D02*
X124968000Y-121158000D01*
X122682000Y-119888000D02*
X123952000Y-121158000D01*
X122682000Y-105664000D02*
X122682000Y-119888000D01*
X118872000Y-101854000D02*
X122682000Y-105664000D01*
X118872000Y-96012000D02*
X118872000Y-101854000D01*
X166370000Y-94458000D02*
X165384000Y-93472000D01*
X160521998Y-93472000D02*
X159635999Y-94357999D01*
X165384000Y-93472000D02*
X160521998Y-93472000D01*
X149455950Y-94357999D02*
X159635999Y-94357999D01*
%TO.N,Net-(D1-Pad2)*%
X163576000Y-88138000D02*
X163576000Y-83820000D01*
X165354000Y-89916000D02*
X163576000Y-88138000D01*
X155956000Y-79248000D02*
X152908000Y-76200000D01*
X159258000Y-79248000D02*
X155956000Y-79248000D01*
X147457999Y-75321999D02*
X146558000Y-74422000D01*
X149235999Y-77099999D02*
X147457999Y-75321999D01*
X152008001Y-77099999D02*
X149235999Y-77099999D01*
X152908000Y-76200000D02*
X152008001Y-77099999D01*
X133487999Y-75321999D02*
X132588000Y-74422000D01*
X134620000Y-76454000D02*
X133487999Y-75321999D01*
X137160000Y-76454000D02*
X134620000Y-76454000D01*
X139700000Y-73914000D02*
X137160000Y-76454000D01*
X127391999Y-75300001D02*
X126492000Y-76200000D01*
X129169999Y-73522001D02*
X127391999Y-75300001D01*
X131688001Y-73522001D02*
X129169999Y-73522001D01*
X132588000Y-74422000D02*
X131688001Y-73522001D01*
%TO.N,Net-(D10-Pad1)*%
X146304000Y-92710000D02*
X149352000Y-92710000D01*
X144018000Y-94996000D02*
X146304000Y-92710000D01*
X144018000Y-97282000D02*
X144018000Y-94996000D01*
X144780000Y-98044000D02*
X144018000Y-97282000D01*
X161798000Y-100076000D02*
X159766000Y-98044000D01*
X159766000Y-98044000D02*
X144780000Y-98044000D01*
X161798000Y-101376000D02*
X161798000Y-100076000D01*
X153700000Y-109474000D02*
X161798000Y-101376000D01*
X150368000Y-109474000D02*
X153700000Y-109474000D01*
X139700000Y-120142000D02*
X150368000Y-109474000D01*
X118140000Y-90424000D02*
X116840000Y-90424000D01*
X122655949Y-90424000D02*
X118140000Y-90424000D01*
X128016000Y-95784051D02*
X122655949Y-90424000D01*
X128016000Y-96774000D02*
X128016000Y-95784051D01*
%TO.N,Net-(D11-Pad1)*%
X149083000Y-107203000D02*
X150383000Y-107203000D01*
X134874000Y-121412000D02*
X149083000Y-107203000D01*
X150383000Y-107203000D02*
X150891000Y-107203000D01*
X152923000Y-107203000D02*
X150891000Y-107203000D01*
X155702000Y-104424000D02*
X152923000Y-107203000D01*
X155702000Y-103124000D02*
X155702000Y-104424000D01*
%TO.N,Net-(D12-Pad1)*%
X149098000Y-105156000D02*
X132588000Y-121666000D01*
X132588000Y-121666000D02*
X128778000Y-121666000D01*
%TO.N,Net-(D13-Pad1)*%
X146304000Y-86076000D02*
X146304000Y-87376000D01*
X146782000Y-85598000D02*
X146304000Y-86076000D01*
X154432000Y-85598000D02*
X146782000Y-85598000D01*
X128908001Y-78101999D02*
X127508000Y-79502000D01*
X135729999Y-78101999D02*
X128908001Y-78101999D01*
X146304000Y-87376000D02*
X145004000Y-87376000D01*
X145004000Y-87376000D02*
X135729999Y-78101999D01*
X139700000Y-104110000D02*
X139700000Y-105410000D01*
X137937000Y-102347000D02*
X139700000Y-104110000D01*
X127173990Y-105744010D02*
X129459990Y-105744010D01*
X131613037Y-102347000D02*
X137937000Y-102347000D01*
X129459990Y-105744010D02*
X130535999Y-104668001D01*
X125167000Y-107751000D02*
X127173990Y-105744010D01*
X130535999Y-104668001D02*
X130535999Y-103424038D01*
X125167000Y-112268000D02*
X125167000Y-107751000D01*
X130535999Y-103424038D02*
X131613037Y-102347000D01*
X125984000Y-84104000D02*
X125984000Y-82804000D01*
X125853999Y-84234001D02*
X125984000Y-84104000D01*
X125853999Y-86483999D02*
X125853999Y-84234001D01*
X139700000Y-100330000D02*
X130175000Y-90805000D01*
X139700000Y-105410000D02*
X139700000Y-100330000D01*
X130175000Y-90805000D02*
X125853999Y-86483999D01*
%TO.N,Net-(D14-Pad1)*%
X129794000Y-83913998D02*
X129794000Y-84298000D01*
X125091999Y-79211997D02*
X129794000Y-83913998D01*
X125091999Y-75527999D02*
X125091999Y-79211997D01*
X128105999Y-72513999D02*
X125091999Y-75527999D01*
X155063999Y-72513999D02*
X128105999Y-72513999D01*
X161798000Y-79248000D02*
X155063999Y-72513999D01*
X129794000Y-84298000D02*
X129794000Y-85598000D01*
X132626011Y-81465989D02*
X129794000Y-84298000D01*
X138013991Y-81465989D02*
X132626011Y-81465989D01*
X141478000Y-84929998D02*
X138013991Y-81465989D01*
X141478000Y-87630000D02*
X141478000Y-84929998D01*
X135535999Y-103501999D02*
X131448001Y-103501999D01*
X135636000Y-104902000D02*
X135636000Y-103602000D01*
X135636000Y-103602000D02*
X135535999Y-103501999D01*
X126492000Y-118872000D02*
X126492000Y-108458000D01*
X126492000Y-108458000D02*
X127889000Y-107061000D01*
X141224000Y-87884000D02*
X141478000Y-87630000D01*
X141224000Y-99060000D02*
X141224000Y-87884000D01*
X131448001Y-105787999D02*
X131448001Y-103501999D01*
X130175000Y-107061000D02*
X131448001Y-105787999D01*
X127889000Y-107061000D02*
X130175000Y-107061000D01*
%TO.N,Net-(D15-Pad1)*%
X137414000Y-82266000D02*
X137414000Y-83566000D01*
X137313999Y-82165999D02*
X137414000Y-82266000D01*
X134201999Y-82165999D02*
X137313999Y-82165999D01*
X133473999Y-86961999D02*
X133473999Y-82893999D01*
X133473999Y-82893999D02*
X134201999Y-82165999D01*
X133604000Y-87092000D02*
X133473999Y-86961999D01*
X133604000Y-88392000D02*
X133604000Y-87092000D01*
X147413998Y-83566000D02*
X143764000Y-83566000D01*
X151768001Y-82419999D02*
X150622000Y-83566000D01*
X164248001Y-82419999D02*
X151768001Y-82419999D01*
X165648002Y-83820000D02*
X164248001Y-82419999D01*
X166116000Y-83820000D02*
X165648002Y-83820000D01*
X150622000Y-83566000D02*
X147413998Y-83566000D01*
X129032000Y-104424000D02*
X129032000Y-103124000D01*
X128412000Y-105044000D02*
X129032000Y-104424000D01*
X125842000Y-105044000D02*
X128412000Y-105044000D01*
X123967000Y-106919000D02*
X125842000Y-105044000D01*
X123967000Y-118887000D02*
X123967000Y-106919000D01*
X124714000Y-119634000D02*
X123967000Y-118887000D01*
%TO.N,Net-(D10-Pad2)*%
X125219208Y-103124000D02*
X126492000Y-103124000D01*
X122425208Y-103124000D02*
X125219208Y-103124000D01*
X120650000Y-101348792D02*
X122425208Y-103124000D01*
X120650000Y-100076000D02*
X120650000Y-101348792D01*
X142240000Y-106682792D02*
X142240000Y-105410000D01*
X142112791Y-106810001D02*
X142240000Y-106682792D01*
X134843999Y-106810001D02*
X142112791Y-106810001D01*
X133995999Y-105962001D02*
X134843999Y-106810001D01*
X133995999Y-105801999D02*
X133995999Y-105962001D01*
X133096000Y-104902000D02*
X133995999Y-105801999D01*
X145658001Y-106055999D02*
X146558000Y-105156000D01*
X145404001Y-106309999D02*
X145658001Y-106055999D01*
X143139999Y-106309999D02*
X145404001Y-106309999D01*
X142240000Y-105410000D02*
X143139999Y-106309999D01*
X151889208Y-103124000D02*
X153162000Y-103124000D01*
X147317208Y-103124000D02*
X151889208Y-103124000D01*
X146558000Y-103883208D02*
X147317208Y-103124000D01*
X146558000Y-105156000D02*
X146558000Y-103883208D01*
X157985208Y-100076000D02*
X159258000Y-100076000D01*
X154937208Y-100076000D02*
X157985208Y-100076000D01*
X153162000Y-101851208D02*
X154937208Y-100076000D01*
X153162000Y-103124000D02*
X153162000Y-101851208D01*
%TO.N,Net-(D17-Pad2)*%
X120787999Y-80655999D02*
X119888000Y-79756000D01*
X122036001Y-81904001D02*
X120787999Y-80655999D01*
X122544001Y-81904001D02*
X122036001Y-81904001D01*
X123444000Y-82804000D02*
X122544001Y-81904001D01*
X119888000Y-79756000D02*
X115316000Y-84328000D01*
X114300000Y-93980000D02*
X116332000Y-96012000D01*
X114300000Y-90424000D02*
X114300000Y-93980000D01*
X133858000Y-91186000D02*
X134874000Y-91186000D01*
X131064000Y-88392000D02*
X133858000Y-91186000D01*
%TO.N,Net-(D25-Pad2)*%
X155196792Y-90170000D02*
X156972000Y-90170000D01*
X152908000Y-91186000D02*
X154180792Y-91186000D01*
X154180792Y-91186000D02*
X155196792Y-90170000D01*
X146558000Y-90170000D02*
X146304000Y-89916000D01*
X149352000Y-90170000D02*
X146558000Y-90170000D01*
X143256000Y-89916000D02*
X143002000Y-90170000D01*
X146304000Y-89916000D02*
X143256000Y-89916000D01*
X138038001Y-86730001D02*
X134874000Y-83566000D01*
X138938000Y-87630000D02*
X138038001Y-86730001D01*
X160020000Y-90170000D02*
X156972000Y-90170000D01*
%TD*%
D16*
%TO.N,GND*%
G36*
X171527000Y-84872802D02*
G01*
X171527001Y-102499673D01*
X157892285Y-111424214D01*
X157859593Y-111441688D01*
X157809942Y-111482437D01*
X157759928Y-111522695D01*
X157757824Y-111525209D01*
X157755289Y-111527290D01*
X157714537Y-111576945D01*
X157673341Y-111626183D01*
X157671769Y-111629059D01*
X157669688Y-111631594D01*
X157639413Y-111688235D01*
X157608608Y-111744575D01*
X157607626Y-111747704D01*
X157606081Y-111750595D01*
X157587430Y-111812080D01*
X157568217Y-111873320D01*
X157567865Y-111876576D01*
X157566912Y-111879718D01*
X157560613Y-111943669D01*
X157553717Y-112007472D01*
X157557000Y-112044390D01*
X157557001Y-123775000D01*
X119354333Y-123775000D01*
X112699000Y-118783500D01*
X112699000Y-90272816D01*
X112765000Y-90272816D01*
X112765000Y-90575184D01*
X112823989Y-90871743D01*
X112939701Y-91151095D01*
X113107688Y-91402505D01*
X113321495Y-91616312D01*
X113465000Y-91712199D01*
X113465001Y-93938972D01*
X113460960Y-93980000D01*
X113477082Y-94143688D01*
X113524828Y-94301086D01*
X113586776Y-94416982D01*
X113602365Y-94446146D01*
X113706710Y-94573291D01*
X113738574Y-94599441D01*
X114830671Y-95691539D01*
X114797000Y-95860816D01*
X114797000Y-96163184D01*
X114855989Y-96459743D01*
X114971701Y-96739095D01*
X115139688Y-96990505D01*
X115353495Y-97204312D01*
X115604905Y-97372299D01*
X115884257Y-97488011D01*
X116180816Y-97547000D01*
X116483184Y-97547000D01*
X116779743Y-97488011D01*
X117059095Y-97372299D01*
X117310505Y-97204312D01*
X117376944Y-97137873D01*
X117382498Y-97156180D01*
X117441463Y-97266494D01*
X117520815Y-97363185D01*
X117617506Y-97442537D01*
X117727820Y-97501502D01*
X117847518Y-97537812D01*
X117972000Y-97550072D01*
X118037000Y-97550072D01*
X118037001Y-101812972D01*
X118032960Y-101854000D01*
X118049082Y-102017688D01*
X118096828Y-102175086D01*
X118164313Y-102301341D01*
X118174365Y-102320146D01*
X118278710Y-102447291D01*
X118310574Y-102473441D01*
X121847000Y-106009869D01*
X121847001Y-119846971D01*
X121842960Y-119888000D01*
X121859082Y-120051688D01*
X121906828Y-120209086D01*
X121967717Y-120323000D01*
X121984365Y-120354146D01*
X122088710Y-120481291D01*
X122120574Y-120507441D01*
X123332558Y-121719426D01*
X123358709Y-121751291D01*
X123485854Y-121855636D01*
X123630913Y-121933172D01*
X123788311Y-121980918D01*
X123910981Y-121993000D01*
X123910983Y-121993000D01*
X123951999Y-121997040D01*
X123993015Y-121993000D01*
X124017665Y-121993000D01*
X124038939Y-122044359D01*
X124185038Y-122263013D01*
X124370987Y-122448962D01*
X124589641Y-122595061D01*
X124832595Y-122695696D01*
X125090514Y-122747000D01*
X125353486Y-122747000D01*
X125611405Y-122695696D01*
X125854359Y-122595061D01*
X126073013Y-122448962D01*
X126258962Y-122263013D01*
X126405061Y-122044359D01*
X126505696Y-121801405D01*
X126557000Y-121543486D01*
X126557000Y-121280514D01*
X126505696Y-121022595D01*
X126405061Y-120779641D01*
X126258962Y-120560987D01*
X126073013Y-120375038D01*
X125899944Y-120259398D01*
X125966286Y-120099235D01*
X126102595Y-120155696D01*
X126360514Y-120207000D01*
X126623486Y-120207000D01*
X126881405Y-120155696D01*
X127124359Y-120055061D01*
X127343013Y-119908962D01*
X127528962Y-119723013D01*
X127675061Y-119504359D01*
X127775696Y-119261405D01*
X127827000Y-119003486D01*
X127827000Y-118740514D01*
X127775696Y-118482595D01*
X127675061Y-118239641D01*
X127528962Y-118020987D01*
X127343013Y-117835038D01*
X127327000Y-117824339D01*
X127327000Y-108803867D01*
X128234868Y-107896000D01*
X130133982Y-107896000D01*
X130175000Y-107900040D01*
X130216018Y-107896000D01*
X130216019Y-107896000D01*
X130338689Y-107883918D01*
X130496087Y-107836172D01*
X130641146Y-107758636D01*
X130768291Y-107654291D01*
X130794446Y-107622421D01*
X132009429Y-106407439D01*
X132041292Y-106381290D01*
X132145637Y-106254145D01*
X132201181Y-106150229D01*
X132368905Y-106262299D01*
X132648257Y-106378011D01*
X132944816Y-106437000D01*
X133247184Y-106437000D01*
X133297722Y-106426947D01*
X133298363Y-106428147D01*
X133402708Y-106555292D01*
X133434576Y-106581445D01*
X134224557Y-107371427D01*
X134250708Y-107403292D01*
X134375505Y-107505710D01*
X134377853Y-107507637D01*
X134522912Y-107585173D01*
X134680310Y-107632919D01*
X134843998Y-107649041D01*
X134885017Y-107645001D01*
X142071773Y-107645001D01*
X142112791Y-107649041D01*
X142153809Y-107645001D01*
X142153810Y-107645001D01*
X142276480Y-107632919D01*
X142433878Y-107585173D01*
X142578937Y-107507637D01*
X142706082Y-107403292D01*
X142732235Y-107371424D01*
X142801426Y-107302234D01*
X142833291Y-107276083D01*
X142937636Y-107148938D01*
X142950400Y-107125057D01*
X142976310Y-107132917D01*
X143139999Y-107149039D01*
X143181017Y-107144999D01*
X145362983Y-107144999D01*
X145404001Y-107149039D01*
X145445019Y-107144999D01*
X145445020Y-107144999D01*
X145567690Y-107132917D01*
X145725088Y-107085171D01*
X145870147Y-107007635D01*
X145997292Y-106903290D01*
X146023447Y-106871420D01*
X146237538Y-106657329D01*
X146386227Y-106686905D01*
X132242133Y-120831000D01*
X129825661Y-120831000D01*
X129814962Y-120814987D01*
X129629013Y-120629038D01*
X129410359Y-120482939D01*
X129167405Y-120382304D01*
X128909486Y-120331000D01*
X128646514Y-120331000D01*
X128388595Y-120382304D01*
X128145641Y-120482939D01*
X127926987Y-120629038D01*
X127741038Y-120814987D01*
X127594939Y-121033641D01*
X127494304Y-121276595D01*
X127443000Y-121534514D01*
X127443000Y-121797486D01*
X127494304Y-122055405D01*
X127594939Y-122298359D01*
X127741038Y-122517013D01*
X127926987Y-122702962D01*
X128145641Y-122849061D01*
X128388595Y-122949696D01*
X128646514Y-123001000D01*
X128909486Y-123001000D01*
X129167405Y-122949696D01*
X129410359Y-122849061D01*
X129629013Y-122702962D01*
X129814962Y-122517013D01*
X129825661Y-122501000D01*
X132546982Y-122501000D01*
X132588000Y-122505040D01*
X132629018Y-122501000D01*
X132629019Y-122501000D01*
X132751689Y-122488918D01*
X132909087Y-122441172D01*
X133054146Y-122363636D01*
X133181291Y-122259291D01*
X133207446Y-122227421D01*
X133602945Y-121831922D01*
X133690939Y-122044359D01*
X133837038Y-122263013D01*
X134022987Y-122448962D01*
X134241641Y-122595061D01*
X134484595Y-122695696D01*
X134742514Y-122747000D01*
X135005486Y-122747000D01*
X135263405Y-122695696D01*
X135506359Y-122595061D01*
X135725013Y-122448962D01*
X135910962Y-122263013D01*
X136057061Y-122044359D01*
X136072121Y-122008000D01*
X153705928Y-122008000D01*
X153718188Y-122132482D01*
X153754498Y-122252180D01*
X153813463Y-122362494D01*
X153892815Y-122459185D01*
X153989506Y-122538537D01*
X154099820Y-122597502D01*
X154219518Y-122633812D01*
X154344000Y-122646072D01*
X154908250Y-122643000D01*
X155067000Y-122484250D01*
X155067000Y-121285000D01*
X155321000Y-121285000D01*
X155321000Y-122484250D01*
X155479750Y-122643000D01*
X156044000Y-122646072D01*
X156168482Y-122633812D01*
X156288180Y-122597502D01*
X156398494Y-122538537D01*
X156495185Y-122459185D01*
X156574537Y-122362494D01*
X156633502Y-122252180D01*
X156669812Y-122132482D01*
X156682072Y-122008000D01*
X156679000Y-121443750D01*
X156520250Y-121285000D01*
X155321000Y-121285000D01*
X155067000Y-121285000D01*
X153867750Y-121285000D01*
X153709000Y-121443750D01*
X153705928Y-122008000D01*
X136072121Y-122008000D01*
X136157696Y-121801405D01*
X136209000Y-121543486D01*
X136209000Y-121280514D01*
X136205243Y-121261625D01*
X149428869Y-108038000D01*
X152881982Y-108038000D01*
X152923000Y-108042040D01*
X152964018Y-108038000D01*
X152964019Y-108038000D01*
X153086689Y-108025918D01*
X153244087Y-107978172D01*
X153389146Y-107900636D01*
X153516291Y-107796291D01*
X153542446Y-107764421D01*
X156263427Y-105043441D01*
X156295291Y-105017291D01*
X156399636Y-104890146D01*
X156477172Y-104745087D01*
X156502354Y-104662072D01*
X156602000Y-104662072D01*
X156726482Y-104649812D01*
X156846180Y-104613502D01*
X156956494Y-104554537D01*
X157053185Y-104475185D01*
X157132537Y-104378494D01*
X157191502Y-104268180D01*
X157227812Y-104148482D01*
X157240072Y-104024000D01*
X157240072Y-102224000D01*
X157227812Y-102099518D01*
X157191502Y-101979820D01*
X157132537Y-101869506D01*
X157053185Y-101772815D01*
X156956494Y-101693463D01*
X156846180Y-101634498D01*
X156726482Y-101598188D01*
X156602000Y-101585928D01*
X154802000Y-101585928D01*
X154677518Y-101598188D01*
X154560343Y-101633733D01*
X155283076Y-100911000D01*
X157969801Y-100911000D01*
X158065688Y-101054505D01*
X158279495Y-101268312D01*
X158530905Y-101436299D01*
X158810257Y-101552011D01*
X159106816Y-101611000D01*
X159409184Y-101611000D01*
X159705743Y-101552011D01*
X159985095Y-101436299D01*
X160236505Y-101268312D01*
X160302944Y-101201873D01*
X160308498Y-101220180D01*
X160367463Y-101330494D01*
X160446815Y-101427185D01*
X160512248Y-101480884D01*
X153354133Y-108639000D01*
X150409007Y-108639000D01*
X150367999Y-108634961D01*
X150326991Y-108639000D01*
X150326981Y-108639000D01*
X150204311Y-108651082D01*
X150046913Y-108698828D01*
X149901854Y-108776364D01*
X149774709Y-108880709D01*
X149748561Y-108912571D01*
X139850376Y-118810757D01*
X139831486Y-118807000D01*
X139568514Y-118807000D01*
X139310595Y-118858304D01*
X139067641Y-118958939D01*
X138848987Y-119105038D01*
X138663038Y-119290987D01*
X138516939Y-119509641D01*
X138416304Y-119752595D01*
X138365000Y-120010514D01*
X138365000Y-120273486D01*
X138416304Y-120531405D01*
X138516939Y-120774359D01*
X138663038Y-120993013D01*
X138848987Y-121178962D01*
X139067641Y-121325061D01*
X139310595Y-121425696D01*
X139568514Y-121477000D01*
X139831486Y-121477000D01*
X140089405Y-121425696D01*
X140332359Y-121325061D01*
X140551013Y-121178962D01*
X140736962Y-120993013D01*
X140883061Y-120774359D01*
X140983696Y-120531405D01*
X141035000Y-120273486D01*
X141035000Y-120010514D01*
X141031243Y-119991624D01*
X142404867Y-118618000D01*
X153701815Y-118618000D01*
X153730487Y-118909111D01*
X153815401Y-119189034D01*
X153953294Y-119447014D01*
X154138866Y-119673134D01*
X154168687Y-119697607D01*
X154099820Y-119718498D01*
X153989506Y-119777463D01*
X153892815Y-119856815D01*
X153813463Y-119953506D01*
X153754498Y-120063820D01*
X153718188Y-120183518D01*
X153705928Y-120308000D01*
X153709000Y-120872250D01*
X153867750Y-121031000D01*
X155067000Y-121031000D01*
X155067000Y-121011000D01*
X155321000Y-121011000D01*
X155321000Y-121031000D01*
X156520250Y-121031000D01*
X156679000Y-120872250D01*
X156682072Y-120308000D01*
X156669812Y-120183518D01*
X156633502Y-120063820D01*
X156574537Y-119953506D01*
X156495185Y-119856815D01*
X156398494Y-119777463D01*
X156288180Y-119718498D01*
X156219313Y-119697607D01*
X156249134Y-119673134D01*
X156434706Y-119447014D01*
X156572599Y-119189034D01*
X156657513Y-118909111D01*
X156686185Y-118618000D01*
X156657513Y-118326889D01*
X156572599Y-118046966D01*
X156434706Y-117788986D01*
X156249134Y-117562866D01*
X156023014Y-117377294D01*
X155765034Y-117239401D01*
X155485111Y-117154487D01*
X155266950Y-117133000D01*
X155121050Y-117133000D01*
X154902889Y-117154487D01*
X154622966Y-117239401D01*
X154364986Y-117377294D01*
X154138866Y-117562866D01*
X153953294Y-117788986D01*
X153815401Y-118046966D01*
X153730487Y-118326889D01*
X153701815Y-118618000D01*
X142404867Y-118618000D01*
X144602867Y-116420000D01*
X153705928Y-116420000D01*
X153718188Y-116544482D01*
X153754498Y-116664180D01*
X153813463Y-116774494D01*
X153892815Y-116871185D01*
X153989506Y-116950537D01*
X154099820Y-117009502D01*
X154219518Y-117045812D01*
X154344000Y-117058072D01*
X154908250Y-117055000D01*
X155067000Y-116896250D01*
X155067000Y-115697000D01*
X155321000Y-115697000D01*
X155321000Y-116896250D01*
X155479750Y-117055000D01*
X156044000Y-117058072D01*
X156168482Y-117045812D01*
X156288180Y-117009502D01*
X156398494Y-116950537D01*
X156495185Y-116871185D01*
X156574537Y-116774494D01*
X156633502Y-116664180D01*
X156669812Y-116544482D01*
X156682072Y-116420000D01*
X156679000Y-115855750D01*
X156520250Y-115697000D01*
X155321000Y-115697000D01*
X155067000Y-115697000D01*
X153867750Y-115697000D01*
X153709000Y-115855750D01*
X153705928Y-116420000D01*
X144602867Y-116420000D01*
X147992867Y-113030000D01*
X153701815Y-113030000D01*
X153730487Y-113321111D01*
X153815401Y-113601034D01*
X153953294Y-113859014D01*
X154138866Y-114085134D01*
X154168687Y-114109607D01*
X154099820Y-114130498D01*
X153989506Y-114189463D01*
X153892815Y-114268815D01*
X153813463Y-114365506D01*
X153754498Y-114475820D01*
X153718188Y-114595518D01*
X153705928Y-114720000D01*
X153709000Y-115284250D01*
X153867750Y-115443000D01*
X155067000Y-115443000D01*
X155067000Y-115423000D01*
X155321000Y-115423000D01*
X155321000Y-115443000D01*
X156520250Y-115443000D01*
X156679000Y-115284250D01*
X156682072Y-114720000D01*
X156669812Y-114595518D01*
X156633502Y-114475820D01*
X156574537Y-114365506D01*
X156495185Y-114268815D01*
X156398494Y-114189463D01*
X156288180Y-114130498D01*
X156219313Y-114109607D01*
X156249134Y-114085134D01*
X156434706Y-113859014D01*
X156572599Y-113601034D01*
X156657513Y-113321111D01*
X156686185Y-113030000D01*
X156657513Y-112738889D01*
X156572599Y-112458966D01*
X156434706Y-112200986D01*
X156249134Y-111974866D01*
X156023014Y-111789294D01*
X155765034Y-111651401D01*
X155485111Y-111566487D01*
X155266950Y-111545000D01*
X155121050Y-111545000D01*
X154902889Y-111566487D01*
X154622966Y-111651401D01*
X154364986Y-111789294D01*
X154138866Y-111974866D01*
X153953294Y-112200986D01*
X153815401Y-112458966D01*
X153730487Y-112738889D01*
X153701815Y-113030000D01*
X147992867Y-113030000D01*
X150713868Y-110309000D01*
X153658982Y-110309000D01*
X153700000Y-110313040D01*
X153741018Y-110309000D01*
X153741019Y-110309000D01*
X153863689Y-110296918D01*
X154021087Y-110249172D01*
X154166146Y-110171636D01*
X154293291Y-110067291D01*
X154319446Y-110035421D01*
X162359428Y-101995440D01*
X162391291Y-101969291D01*
X162495636Y-101842146D01*
X162573172Y-101697087D01*
X162598354Y-101614072D01*
X162698000Y-101614072D01*
X162822482Y-101601812D01*
X162942180Y-101565502D01*
X163052494Y-101506537D01*
X163149185Y-101427185D01*
X163228537Y-101330494D01*
X163287502Y-101220180D01*
X163323812Y-101100482D01*
X163336072Y-100976000D01*
X163336072Y-99176000D01*
X163323812Y-99051518D01*
X163287502Y-98931820D01*
X163228537Y-98821506D01*
X163149185Y-98724815D01*
X163052494Y-98645463D01*
X162942180Y-98586498D01*
X162822482Y-98550188D01*
X162698000Y-98537928D01*
X161440796Y-98537928D01*
X160385446Y-97482579D01*
X160359291Y-97450709D01*
X160232146Y-97346364D01*
X160087087Y-97268828D01*
X159929689Y-97221082D01*
X159807019Y-97209000D01*
X159807018Y-97209000D01*
X159766000Y-97204960D01*
X159724982Y-97209000D01*
X145125868Y-97209000D01*
X144853000Y-96936132D01*
X144853000Y-95341867D01*
X146649868Y-93545000D01*
X147813928Y-93545000D01*
X147813928Y-93610000D01*
X147826188Y-93734482D01*
X147862498Y-93854180D01*
X147921463Y-93964494D01*
X148000815Y-94061185D01*
X148097506Y-94140537D01*
X148207820Y-94199502D01*
X148327518Y-94235812D01*
X148391016Y-94242066D01*
X148168034Y-94465048D01*
X147952359Y-94320939D01*
X147709405Y-94220304D01*
X147451486Y-94169000D01*
X147188514Y-94169000D01*
X146930595Y-94220304D01*
X146687641Y-94320939D01*
X146468987Y-94467038D01*
X146283038Y-94652987D01*
X146136939Y-94871641D01*
X146036304Y-95114595D01*
X145985000Y-95372514D01*
X145985000Y-95635486D01*
X146036304Y-95893405D01*
X146136939Y-96136359D01*
X146283038Y-96355013D01*
X146468987Y-96540962D01*
X146687641Y-96687061D01*
X146930595Y-96787696D01*
X147188514Y-96839000D01*
X147451486Y-96839000D01*
X147709405Y-96787696D01*
X147952359Y-96687061D01*
X148171013Y-96540962D01*
X148356962Y-96355013D01*
X148368837Y-96337240D01*
X148473638Y-96326918D01*
X148631036Y-96279172D01*
X148776095Y-96201636D01*
X148903240Y-96097291D01*
X148929395Y-96065421D01*
X149801818Y-95192999D01*
X159594981Y-95192999D01*
X159635999Y-95197039D01*
X159677017Y-95192999D01*
X159677018Y-95192999D01*
X159799688Y-95180917D01*
X159957086Y-95133171D01*
X160102145Y-95055635D01*
X160229290Y-94951290D01*
X160255444Y-94919421D01*
X160867866Y-94307000D01*
X163321875Y-94307000D01*
X163102905Y-94397701D01*
X162851495Y-94565688D01*
X162637688Y-94779495D01*
X162469701Y-95030905D01*
X162353989Y-95310257D01*
X162295000Y-95606816D01*
X162295000Y-95909184D01*
X162353989Y-96205743D01*
X162469701Y-96485095D01*
X162637688Y-96736505D01*
X162851495Y-96950312D01*
X163102905Y-97118299D01*
X163382257Y-97234011D01*
X163678816Y-97293000D01*
X163981184Y-97293000D01*
X164277743Y-97234011D01*
X164557095Y-97118299D01*
X164808505Y-96950312D01*
X164874944Y-96883873D01*
X164880498Y-96902180D01*
X164939463Y-97012494D01*
X165018815Y-97109185D01*
X165115506Y-97188537D01*
X165225820Y-97247502D01*
X165345518Y-97283812D01*
X165470000Y-97296072D01*
X167270000Y-97296072D01*
X167394482Y-97283812D01*
X167514180Y-97247502D01*
X167624494Y-97188537D01*
X167721185Y-97109185D01*
X167800537Y-97012494D01*
X167859502Y-96902180D01*
X167895812Y-96782482D01*
X167908072Y-96658000D01*
X167908072Y-94858000D01*
X167895812Y-94733518D01*
X167859502Y-94613820D01*
X167800537Y-94503506D01*
X167721185Y-94406815D01*
X167624494Y-94327463D01*
X167514180Y-94268498D01*
X167394482Y-94232188D01*
X167270000Y-94219928D01*
X167170354Y-94219928D01*
X167145172Y-94136913D01*
X167067636Y-93991854D01*
X166963291Y-93864709D01*
X166931433Y-93838564D01*
X166003445Y-92910578D01*
X165977291Y-92878709D01*
X165850146Y-92774364D01*
X165705087Y-92696828D01*
X165547689Y-92649082D01*
X165425019Y-92637000D01*
X165425018Y-92637000D01*
X165384000Y-92632960D01*
X165342982Y-92637000D01*
X160563016Y-92637000D01*
X160521998Y-92632960D01*
X160480979Y-92637000D01*
X160358309Y-92649082D01*
X160200911Y-92696828D01*
X160055852Y-92774364D01*
X159928707Y-92878709D01*
X159902561Y-92910568D01*
X159290131Y-93522999D01*
X158510072Y-93522999D01*
X158510072Y-91810000D01*
X158497812Y-91685518D01*
X158461502Y-91565820D01*
X158402537Y-91455506D01*
X158323185Y-91358815D01*
X158226494Y-91279463D01*
X158116180Y-91220498D01*
X158097873Y-91214944D01*
X158164312Y-91148505D01*
X158260199Y-91005000D01*
X158972339Y-91005000D01*
X158983038Y-91021013D01*
X159168987Y-91206962D01*
X159387641Y-91353061D01*
X159630595Y-91453696D01*
X159888514Y-91505000D01*
X160151486Y-91505000D01*
X160409405Y-91453696D01*
X160652359Y-91353061D01*
X160871013Y-91206962D01*
X161056962Y-91021013D01*
X161203061Y-90802359D01*
X161303696Y-90559405D01*
X161355000Y-90301486D01*
X161355000Y-90038514D01*
X161303696Y-89780595D01*
X161203061Y-89537641D01*
X161056962Y-89318987D01*
X160871013Y-89133038D01*
X160652359Y-88986939D01*
X160409405Y-88886304D01*
X160151486Y-88835000D01*
X159888514Y-88835000D01*
X159630595Y-88886304D01*
X159387641Y-88986939D01*
X159168987Y-89133038D01*
X158983038Y-89318987D01*
X158972339Y-89335000D01*
X158260199Y-89335000D01*
X158164312Y-89191495D01*
X157950505Y-88977688D01*
X157699095Y-88809701D01*
X157419743Y-88693989D01*
X157123184Y-88635000D01*
X156820816Y-88635000D01*
X156524257Y-88693989D01*
X156244905Y-88809701D01*
X155993495Y-88977688D01*
X155779688Y-89191495D01*
X155683801Y-89335000D01*
X155237810Y-89335000D01*
X155196792Y-89330960D01*
X155155773Y-89335000D01*
X155033103Y-89347082D01*
X154875705Y-89394828D01*
X154730646Y-89472364D01*
X154603501Y-89576709D01*
X154577353Y-89608571D01*
X154398267Y-89787657D01*
X154433812Y-89670482D01*
X154446072Y-89546000D01*
X154446072Y-87746000D01*
X154433812Y-87621518D01*
X154397502Y-87501820D01*
X154338537Y-87391506D01*
X154259185Y-87294815D01*
X154162494Y-87215463D01*
X154052180Y-87156498D01*
X153932482Y-87120188D01*
X153808000Y-87107928D01*
X152008000Y-87107928D01*
X151883518Y-87120188D01*
X151763820Y-87156498D01*
X151653506Y-87215463D01*
X151556815Y-87294815D01*
X151477463Y-87391506D01*
X151418498Y-87501820D01*
X151382188Y-87621518D01*
X151369928Y-87746000D01*
X151369928Y-89546000D01*
X151382188Y-89670482D01*
X151418498Y-89790180D01*
X151477463Y-89900494D01*
X151556815Y-89997185D01*
X151653506Y-90076537D01*
X151763820Y-90135502D01*
X151782127Y-90141056D01*
X151715688Y-90207495D01*
X151547701Y-90458905D01*
X151431989Y-90738257D01*
X151373000Y-91034816D01*
X151373000Y-91337184D01*
X151431989Y-91633743D01*
X151547701Y-91913095D01*
X151715688Y-92164505D01*
X151929495Y-92378312D01*
X152180905Y-92546299D01*
X152460257Y-92662011D01*
X152756816Y-92721000D01*
X153059184Y-92721000D01*
X153355743Y-92662011D01*
X153635095Y-92546299D01*
X153886505Y-92378312D01*
X154100312Y-92164505D01*
X154194395Y-92023700D01*
X154221810Y-92021000D01*
X154221811Y-92021000D01*
X154344481Y-92008918D01*
X154501879Y-91961172D01*
X154646938Y-91883636D01*
X154774083Y-91779291D01*
X154800238Y-91747421D01*
X155542660Y-91005000D01*
X155683801Y-91005000D01*
X155779688Y-91148505D01*
X155846127Y-91214944D01*
X155827820Y-91220498D01*
X155717506Y-91279463D01*
X155620815Y-91358815D01*
X155541463Y-91455506D01*
X155482498Y-91565820D01*
X155446188Y-91685518D01*
X155433928Y-91810000D01*
X155433928Y-93522999D01*
X150890072Y-93522999D01*
X150890072Y-91810000D01*
X150877812Y-91685518D01*
X150841502Y-91565820D01*
X150782537Y-91455506D01*
X150703185Y-91358815D01*
X150606494Y-91279463D01*
X150496180Y-91220498D01*
X150477873Y-91214944D01*
X150544312Y-91148505D01*
X150712299Y-90897095D01*
X150828011Y-90617743D01*
X150887000Y-90321184D01*
X150887000Y-90018816D01*
X150828011Y-89722257D01*
X150712299Y-89442905D01*
X150544312Y-89191495D01*
X150330505Y-88977688D01*
X150079095Y-88809701D01*
X149799743Y-88693989D01*
X149503184Y-88635000D01*
X149200816Y-88635000D01*
X148904257Y-88693989D01*
X148624905Y-88809701D01*
X148373495Y-88977688D01*
X148159688Y-89191495D01*
X148063801Y-89335000D01*
X147724814Y-89335000D01*
X147664299Y-89188905D01*
X147496312Y-88937495D01*
X147429873Y-88871056D01*
X147448180Y-88865502D01*
X147558494Y-88806537D01*
X147655185Y-88727185D01*
X147734537Y-88630494D01*
X147793502Y-88520180D01*
X147829812Y-88400482D01*
X147842072Y-88276000D01*
X147842072Y-86476000D01*
X147837837Y-86433000D01*
X153384339Y-86433000D01*
X153395038Y-86449013D01*
X153580987Y-86634962D01*
X153799641Y-86781061D01*
X154042595Y-86881696D01*
X154300514Y-86933000D01*
X154563486Y-86933000D01*
X154821405Y-86881696D01*
X155064359Y-86781061D01*
X155283013Y-86634962D01*
X155468962Y-86449013D01*
X155615061Y-86230359D01*
X155715696Y-85987405D01*
X155767000Y-85729486D01*
X155767000Y-85466514D01*
X155715696Y-85208595D01*
X155615061Y-84965641D01*
X155468962Y-84746987D01*
X155283013Y-84561038D01*
X155064359Y-84414939D01*
X154821405Y-84314304D01*
X154563486Y-84263000D01*
X154300514Y-84263000D01*
X154042595Y-84314304D01*
X153799641Y-84414939D01*
X153580987Y-84561038D01*
X153395038Y-84746987D01*
X153384339Y-84763000D01*
X146823018Y-84763000D01*
X146781999Y-84758960D01*
X146707384Y-84766309D01*
X146618311Y-84775082D01*
X146460913Y-84822828D01*
X146315854Y-84900364D01*
X146188709Y-85004709D01*
X146162554Y-85036579D01*
X145742579Y-85456554D01*
X145710709Y-85482709D01*
X145616093Y-85598000D01*
X145606364Y-85609855D01*
X145528828Y-85754914D01*
X145503646Y-85837928D01*
X145404000Y-85837928D01*
X145279518Y-85850188D01*
X145159820Y-85886498D01*
X145049506Y-85945463D01*
X144952815Y-86024815D01*
X144899116Y-86090248D01*
X143709868Y-84901000D01*
X143895486Y-84901000D01*
X144153405Y-84849696D01*
X144396359Y-84749061D01*
X144615013Y-84602962D01*
X144800962Y-84417013D01*
X144811661Y-84401000D01*
X150580982Y-84401000D01*
X150622000Y-84405040D01*
X150663018Y-84401000D01*
X150663019Y-84401000D01*
X150785689Y-84388918D01*
X150943087Y-84341172D01*
X151088146Y-84263636D01*
X151215291Y-84159291D01*
X151241446Y-84127421D01*
X152113869Y-83254999D01*
X162148559Y-83254999D01*
X162099989Y-83372257D01*
X162041000Y-83668816D01*
X162041000Y-83971184D01*
X162099989Y-84267743D01*
X162215701Y-84547095D01*
X162383688Y-84798505D01*
X162597495Y-85012312D01*
X162741001Y-85108200D01*
X162741000Y-88096981D01*
X162736960Y-88138000D01*
X162741000Y-88179018D01*
X162753082Y-88301688D01*
X162800828Y-88459086D01*
X162878364Y-88604145D01*
X162982709Y-88731291D01*
X163014579Y-88757446D01*
X163852671Y-89595539D01*
X163819000Y-89764816D01*
X163819000Y-90067184D01*
X163877989Y-90363743D01*
X163993701Y-90643095D01*
X164161688Y-90894505D01*
X164375495Y-91108312D01*
X164626905Y-91276299D01*
X164906257Y-91392011D01*
X165202816Y-91451000D01*
X165505184Y-91451000D01*
X165801743Y-91392011D01*
X166081095Y-91276299D01*
X166332505Y-91108312D01*
X166398944Y-91041873D01*
X166404498Y-91060180D01*
X166463463Y-91170494D01*
X166542815Y-91267185D01*
X166639506Y-91346537D01*
X166749820Y-91405502D01*
X166869518Y-91441812D01*
X166994000Y-91454072D01*
X168794000Y-91454072D01*
X168918482Y-91441812D01*
X169038180Y-91405502D01*
X169148494Y-91346537D01*
X169245185Y-91267185D01*
X169324537Y-91170494D01*
X169383502Y-91060180D01*
X169419812Y-90940482D01*
X169432072Y-90816000D01*
X169432072Y-89016000D01*
X169419812Y-88891518D01*
X169383502Y-88771820D01*
X169324537Y-88661506D01*
X169245185Y-88564815D01*
X169148494Y-88485463D01*
X169038180Y-88426498D01*
X168918482Y-88390188D01*
X168794000Y-88377928D01*
X166994000Y-88377928D01*
X166869518Y-88390188D01*
X166749820Y-88426498D01*
X166639506Y-88485463D01*
X166542815Y-88564815D01*
X166463463Y-88661506D01*
X166404498Y-88771820D01*
X166398944Y-88790127D01*
X166332505Y-88723688D01*
X166081095Y-88555701D01*
X165801743Y-88439989D01*
X165505184Y-88381000D01*
X165202816Y-88381000D01*
X165033539Y-88414671D01*
X164411000Y-87792133D01*
X164411000Y-85108199D01*
X164554505Y-85012312D01*
X164620944Y-84945873D01*
X164626498Y-84964180D01*
X164685463Y-85074494D01*
X164764815Y-85171185D01*
X164861506Y-85250537D01*
X164971820Y-85309502D01*
X165091518Y-85345812D01*
X165216000Y-85358072D01*
X167016000Y-85358072D01*
X167140482Y-85345812D01*
X167260180Y-85309502D01*
X167370494Y-85250537D01*
X167467185Y-85171185D01*
X167546537Y-85074494D01*
X167605502Y-84964180D01*
X167641812Y-84844482D01*
X167654072Y-84720000D01*
X167654072Y-82920000D01*
X167641812Y-82795518D01*
X167605502Y-82675820D01*
X167546537Y-82565506D01*
X167467185Y-82468815D01*
X167370494Y-82389463D01*
X167260180Y-82330498D01*
X167140482Y-82294188D01*
X167016000Y-82281928D01*
X165290797Y-82281928D01*
X164867447Y-81858578D01*
X164841292Y-81826708D01*
X164714147Y-81722363D01*
X164569088Y-81644827D01*
X164411690Y-81597081D01*
X164289020Y-81584999D01*
X164289019Y-81584999D01*
X164248001Y-81580959D01*
X164206983Y-81584999D01*
X151809019Y-81584999D01*
X151768000Y-81580959D01*
X151726982Y-81584999D01*
X151604312Y-81597081D01*
X151446914Y-81644827D01*
X151301855Y-81722363D01*
X151174710Y-81826708D01*
X151148559Y-81858573D01*
X150276133Y-82731000D01*
X144811661Y-82731000D01*
X144800962Y-82714987D01*
X144615013Y-82529038D01*
X144396359Y-82382939D01*
X144153405Y-82282304D01*
X143895486Y-82231000D01*
X143632514Y-82231000D01*
X143374595Y-82282304D01*
X143131641Y-82382939D01*
X142912987Y-82529038D01*
X142727038Y-82714987D01*
X142580939Y-82933641D01*
X142480304Y-83176595D01*
X142429000Y-83434514D01*
X142429000Y-83620132D01*
X136349445Y-77540578D01*
X136323290Y-77508708D01*
X136196145Y-77404363D01*
X136051086Y-77326827D01*
X135926387Y-77289000D01*
X137118982Y-77289000D01*
X137160000Y-77293040D01*
X137201018Y-77289000D01*
X137201019Y-77289000D01*
X137323689Y-77276918D01*
X137481087Y-77229172D01*
X137626146Y-77151636D01*
X137753291Y-77047291D01*
X137779446Y-77015421D01*
X139379539Y-75415329D01*
X139548816Y-75449000D01*
X139851184Y-75449000D01*
X140147743Y-75390011D01*
X140427095Y-75274299D01*
X140678505Y-75106312D01*
X140744944Y-75039873D01*
X140750498Y-75058180D01*
X140809463Y-75168494D01*
X140888815Y-75265185D01*
X140985506Y-75344537D01*
X141095820Y-75403502D01*
X141215518Y-75439812D01*
X141340000Y-75452072D01*
X143140000Y-75452072D01*
X143264482Y-75439812D01*
X143384180Y-75403502D01*
X143494494Y-75344537D01*
X143591185Y-75265185D01*
X143670537Y-75168494D01*
X143729502Y-75058180D01*
X143765812Y-74938482D01*
X143778072Y-74814000D01*
X143778072Y-73348999D01*
X145460184Y-73348999D01*
X145365688Y-73443495D01*
X145197701Y-73694905D01*
X145081989Y-73974257D01*
X145023000Y-74270816D01*
X145023000Y-74573184D01*
X145081989Y-74869743D01*
X145197701Y-75149095D01*
X145365688Y-75400505D01*
X145579495Y-75614312D01*
X145830905Y-75782299D01*
X146110257Y-75898011D01*
X146406816Y-75957000D01*
X146709184Y-75957000D01*
X146878460Y-75923329D01*
X146896569Y-75941438D01*
X146896580Y-75941447D01*
X148616562Y-77661431D01*
X148642708Y-77693290D01*
X148674567Y-77719436D01*
X148674569Y-77719438D01*
X148697275Y-77738072D01*
X148769853Y-77797635D01*
X148914912Y-77875171D01*
X149072310Y-77922917D01*
X149194980Y-77934999D01*
X149194981Y-77934999D01*
X149235999Y-77939039D01*
X149277017Y-77934999D01*
X151966983Y-77934999D01*
X152008001Y-77939039D01*
X152049019Y-77934999D01*
X152049020Y-77934999D01*
X152171690Y-77922917D01*
X152329088Y-77875171D01*
X152474147Y-77797635D01*
X152590725Y-77701962D01*
X152756816Y-77735000D01*
X153059184Y-77735000D01*
X153228461Y-77701329D01*
X155336563Y-79809432D01*
X155362709Y-79841291D01*
X155394568Y-79867437D01*
X155394570Y-79867439D01*
X155423773Y-79891405D01*
X155489854Y-79945636D01*
X155634913Y-80023172D01*
X155792311Y-80070918D01*
X155854936Y-80077086D01*
X155956000Y-80087040D01*
X155997018Y-80083000D01*
X157969801Y-80083000D01*
X158065688Y-80226505D01*
X158279495Y-80440312D01*
X158530905Y-80608299D01*
X158810257Y-80724011D01*
X159106816Y-80783000D01*
X159409184Y-80783000D01*
X159705743Y-80724011D01*
X159985095Y-80608299D01*
X160236505Y-80440312D01*
X160302944Y-80373873D01*
X160308498Y-80392180D01*
X160367463Y-80502494D01*
X160446815Y-80599185D01*
X160543506Y-80678537D01*
X160653820Y-80737502D01*
X160773518Y-80773812D01*
X160898000Y-80786072D01*
X162698000Y-80786072D01*
X162822482Y-80773812D01*
X162942180Y-80737502D01*
X163052494Y-80678537D01*
X163149185Y-80599185D01*
X163228537Y-80502494D01*
X163287502Y-80392180D01*
X163323812Y-80272482D01*
X163336072Y-80148000D01*
X163336072Y-78348000D01*
X163323812Y-78223518D01*
X163287502Y-78103820D01*
X163228537Y-77993506D01*
X163149185Y-77896815D01*
X163052494Y-77817463D01*
X162942180Y-77758498D01*
X162822482Y-77722188D01*
X162698000Y-77709928D01*
X161440797Y-77709928D01*
X155683445Y-71952578D01*
X155657290Y-71920708D01*
X155530145Y-71816363D01*
X155385086Y-71738827D01*
X155227688Y-71691081D01*
X155105018Y-71678999D01*
X155105017Y-71678999D01*
X155063999Y-71674959D01*
X155022981Y-71678999D01*
X128147017Y-71678999D01*
X128105999Y-71674959D01*
X128064981Y-71678999D01*
X128064980Y-71678999D01*
X127942310Y-71691081D01*
X127784912Y-71738827D01*
X127639853Y-71816363D01*
X127512708Y-71920708D01*
X127486562Y-71952567D01*
X124530578Y-74908553D01*
X124498708Y-74934708D01*
X124432576Y-75015291D01*
X124394363Y-75061854D01*
X124316827Y-75206913D01*
X124269081Y-75364311D01*
X124252959Y-75527999D01*
X124256999Y-75569018D01*
X124257000Y-79170969D01*
X124252959Y-79211997D01*
X124269081Y-79375685D01*
X124316827Y-79533083D01*
X124394363Y-79678142D01*
X124394364Y-79678143D01*
X124498709Y-79805288D01*
X124530573Y-79831438D01*
X125965062Y-81265928D01*
X125084000Y-81265928D01*
X124959518Y-81278188D01*
X124839820Y-81314498D01*
X124729506Y-81373463D01*
X124632815Y-81452815D01*
X124553463Y-81549506D01*
X124494498Y-81659820D01*
X124488944Y-81678127D01*
X124422505Y-81611688D01*
X124171095Y-81443701D01*
X123891743Y-81327989D01*
X123595184Y-81269000D01*
X123494717Y-81269000D01*
X123572180Y-81245502D01*
X123682494Y-81186537D01*
X123779185Y-81107185D01*
X123858537Y-81010494D01*
X123917502Y-80900180D01*
X123953812Y-80780482D01*
X123966072Y-80656000D01*
X123966072Y-78856000D01*
X123953812Y-78731518D01*
X123917502Y-78611820D01*
X123858537Y-78501506D01*
X123779185Y-78404815D01*
X123682494Y-78325463D01*
X123572180Y-78266498D01*
X123452482Y-78230188D01*
X123328000Y-78217928D01*
X121528000Y-78217928D01*
X121403518Y-78230188D01*
X121283820Y-78266498D01*
X121173506Y-78325463D01*
X121076815Y-78404815D01*
X120997463Y-78501506D01*
X120938498Y-78611820D01*
X120932944Y-78630127D01*
X120866505Y-78563688D01*
X120615095Y-78395701D01*
X120335743Y-78279989D01*
X120039184Y-78221000D01*
X119736816Y-78221000D01*
X119440257Y-78279989D01*
X119160905Y-78395701D01*
X118909495Y-78563688D01*
X118695688Y-78777495D01*
X118527701Y-79028905D01*
X118411989Y-79308257D01*
X118353000Y-79604816D01*
X118353000Y-79907184D01*
X118386671Y-80076461D01*
X115636462Y-82826671D01*
X115467184Y-82793000D01*
X115164816Y-82793000D01*
X114868257Y-82851989D01*
X114588905Y-82967701D01*
X114337495Y-83135688D01*
X114123688Y-83349495D01*
X113955701Y-83600905D01*
X113839989Y-83880257D01*
X113781000Y-84176816D01*
X113781000Y-84479184D01*
X113839989Y-84775743D01*
X113955701Y-85055095D01*
X114123688Y-85306505D01*
X114337495Y-85520312D01*
X114588905Y-85688299D01*
X114868257Y-85804011D01*
X115164816Y-85863000D01*
X115467184Y-85863000D01*
X115763743Y-85804011D01*
X116043095Y-85688299D01*
X116294505Y-85520312D01*
X116360944Y-85453873D01*
X116366498Y-85472180D01*
X116425463Y-85582494D01*
X116504815Y-85679185D01*
X116601506Y-85758537D01*
X116711820Y-85817502D01*
X116831518Y-85853812D01*
X116956000Y-85866072D01*
X118756000Y-85866072D01*
X118880482Y-85853812D01*
X119000180Y-85817502D01*
X119110494Y-85758537D01*
X119207185Y-85679185D01*
X119286537Y-85582494D01*
X119345502Y-85472180D01*
X119381812Y-85352482D01*
X119394072Y-85228000D01*
X119394072Y-83428000D01*
X119381812Y-83303518D01*
X119345502Y-83183820D01*
X119286537Y-83073506D01*
X119207185Y-82976815D01*
X119110494Y-82897463D01*
X119000180Y-82838498D01*
X118880482Y-82802188D01*
X118756000Y-82789928D01*
X118034939Y-82789928D01*
X119567539Y-81257329D01*
X119736816Y-81291000D01*
X120039184Y-81291000D01*
X120208460Y-81257329D01*
X120226569Y-81275438D01*
X120226580Y-81275447D01*
X121416559Y-82465427D01*
X121442710Y-82497292D01*
X121569855Y-82601637D01*
X121714914Y-82679173D01*
X121872312Y-82726919D01*
X121909000Y-82730532D01*
X121909000Y-82955184D01*
X121967989Y-83251743D01*
X122083701Y-83531095D01*
X122251688Y-83782505D01*
X122465495Y-83996312D01*
X122716905Y-84164299D01*
X122996257Y-84280011D01*
X123292816Y-84339000D01*
X123595184Y-84339000D01*
X123891743Y-84280011D01*
X124171095Y-84164299D01*
X124422505Y-83996312D01*
X124488944Y-83929873D01*
X124494498Y-83948180D01*
X124553463Y-84058494D01*
X124632815Y-84155185D01*
X124729506Y-84234537D01*
X124839820Y-84293502D01*
X124959518Y-84329812D01*
X125019000Y-84335670D01*
X125018999Y-86442980D01*
X125014959Y-86483999D01*
X125018999Y-86525017D01*
X125031081Y-86647687D01*
X125078827Y-86805085D01*
X125156363Y-86950144D01*
X125260708Y-87077290D01*
X125292578Y-87103445D01*
X129613570Y-91424438D01*
X129613576Y-91424443D01*
X138865001Y-100675869D01*
X138865001Y-102094133D01*
X138556446Y-101785579D01*
X138530291Y-101753709D01*
X138403146Y-101649364D01*
X138258087Y-101571828D01*
X138100689Y-101524082D01*
X137978019Y-101512000D01*
X137978018Y-101512000D01*
X137937000Y-101507960D01*
X137895982Y-101512000D01*
X131654055Y-101512000D01*
X131613037Y-101507960D01*
X131572019Y-101512000D01*
X131572018Y-101512000D01*
X131449348Y-101524082D01*
X131312804Y-101565502D01*
X131291950Y-101571828D01*
X131146891Y-101649364D01*
X131096996Y-101690312D01*
X131019746Y-101753709D01*
X130993600Y-101785568D01*
X130568736Y-102210433D01*
X130557812Y-102099518D01*
X130521502Y-101979820D01*
X130462537Y-101869506D01*
X130383185Y-101772815D01*
X130286494Y-101693463D01*
X130176180Y-101634498D01*
X130056482Y-101598188D01*
X129932000Y-101585928D01*
X128132000Y-101585928D01*
X128007518Y-101598188D01*
X127887820Y-101634498D01*
X127777506Y-101693463D01*
X127680815Y-101772815D01*
X127601463Y-101869506D01*
X127542498Y-101979820D01*
X127536944Y-101998127D01*
X127470505Y-101931688D01*
X127219095Y-101763701D01*
X126939743Y-101647989D01*
X126643184Y-101589000D01*
X126340816Y-101589000D01*
X126044257Y-101647989D01*
X125764905Y-101763701D01*
X125513495Y-101931688D01*
X125299688Y-102145495D01*
X125203801Y-102289000D01*
X122771076Y-102289000D01*
X122048343Y-101566267D01*
X122165518Y-101601812D01*
X122290000Y-101614072D01*
X124090000Y-101614072D01*
X124214482Y-101601812D01*
X124334180Y-101565502D01*
X124444494Y-101506537D01*
X124541185Y-101427185D01*
X124620537Y-101330494D01*
X124679502Y-101220180D01*
X124715812Y-101100482D01*
X124728072Y-100976000D01*
X124728072Y-99176000D01*
X124715812Y-99051518D01*
X124679502Y-98931820D01*
X124620537Y-98821506D01*
X124541185Y-98724815D01*
X124444494Y-98645463D01*
X124334180Y-98586498D01*
X124214482Y-98550188D01*
X124090000Y-98537928D01*
X122290000Y-98537928D01*
X122165518Y-98550188D01*
X122045820Y-98586498D01*
X121935506Y-98645463D01*
X121838815Y-98724815D01*
X121759463Y-98821506D01*
X121700498Y-98931820D01*
X121694944Y-98950127D01*
X121628505Y-98883688D01*
X121377095Y-98715701D01*
X121097743Y-98599989D01*
X120801184Y-98541000D01*
X120498816Y-98541000D01*
X120202257Y-98599989D01*
X119922905Y-98715701D01*
X119707000Y-98859964D01*
X119707000Y-97550072D01*
X119772000Y-97550072D01*
X119896482Y-97537812D01*
X120016180Y-97501502D01*
X120126494Y-97442537D01*
X120223185Y-97363185D01*
X120302537Y-97266494D01*
X120361502Y-97156180D01*
X120397812Y-97036482D01*
X120410072Y-96912000D01*
X120410072Y-95112000D01*
X120397812Y-94987518D01*
X120361502Y-94867820D01*
X120302537Y-94757506D01*
X120223185Y-94660815D01*
X120126494Y-94581463D01*
X120016180Y-94522498D01*
X119896482Y-94486188D01*
X119772000Y-94473928D01*
X117972000Y-94473928D01*
X117847518Y-94486188D01*
X117727820Y-94522498D01*
X117617506Y-94581463D01*
X117520815Y-94660815D01*
X117441463Y-94757506D01*
X117382498Y-94867820D01*
X117376944Y-94886127D01*
X117310505Y-94819688D01*
X117059095Y-94651701D01*
X116779743Y-94535989D01*
X116483184Y-94477000D01*
X116180816Y-94477000D01*
X116011539Y-94510671D01*
X115135000Y-93634133D01*
X115135000Y-91712199D01*
X115278505Y-91616312D01*
X115344944Y-91549873D01*
X115350498Y-91568180D01*
X115409463Y-91678494D01*
X115488815Y-91775185D01*
X115585506Y-91854537D01*
X115695820Y-91913502D01*
X115815518Y-91949812D01*
X115940000Y-91962072D01*
X117740000Y-91962072D01*
X117864482Y-91949812D01*
X117984180Y-91913502D01*
X118094494Y-91854537D01*
X118191185Y-91775185D01*
X118270537Y-91678494D01*
X118329502Y-91568180D01*
X118365812Y-91448482D01*
X118378072Y-91324000D01*
X118378072Y-91259000D01*
X122310082Y-91259000D01*
X126977047Y-95925967D01*
X126832939Y-96141641D01*
X126732304Y-96384595D01*
X126681000Y-96642514D01*
X126681000Y-96905486D01*
X126732304Y-97163405D01*
X126832939Y-97406359D01*
X126979038Y-97625013D01*
X127164987Y-97810962D01*
X127383641Y-97957061D01*
X127626595Y-98057696D01*
X127884514Y-98109000D01*
X128147486Y-98109000D01*
X128405405Y-98057696D01*
X128648359Y-97957061D01*
X128867013Y-97810962D01*
X129052962Y-97625013D01*
X129199061Y-97406359D01*
X129299696Y-97163405D01*
X129351000Y-96905486D01*
X129351000Y-96642514D01*
X129299696Y-96384595D01*
X129199061Y-96141641D01*
X129052962Y-95922987D01*
X128867013Y-95737038D01*
X128849240Y-95725163D01*
X128838918Y-95620362D01*
X128791172Y-95462964D01*
X128713636Y-95317905D01*
X128635439Y-95222621D01*
X128635437Y-95222619D01*
X128609291Y-95190760D01*
X128577432Y-95164614D01*
X123275395Y-89862579D01*
X123249240Y-89830709D01*
X123122095Y-89726364D01*
X122977036Y-89648828D01*
X122819638Y-89601082D01*
X122696968Y-89589000D01*
X122696967Y-89589000D01*
X122655949Y-89584960D01*
X122614931Y-89589000D01*
X118378072Y-89589000D01*
X118378072Y-89524000D01*
X118365812Y-89399518D01*
X118329502Y-89279820D01*
X118270537Y-89169506D01*
X118191185Y-89072815D01*
X118094494Y-88993463D01*
X117984180Y-88934498D01*
X117864482Y-88898188D01*
X117740000Y-88885928D01*
X115940000Y-88885928D01*
X115815518Y-88898188D01*
X115695820Y-88934498D01*
X115585506Y-88993463D01*
X115488815Y-89072815D01*
X115409463Y-89169506D01*
X115350498Y-89279820D01*
X115344944Y-89298127D01*
X115278505Y-89231688D01*
X115027095Y-89063701D01*
X114747743Y-88947989D01*
X114451184Y-88889000D01*
X114148816Y-88889000D01*
X113852257Y-88947989D01*
X113572905Y-89063701D01*
X113321495Y-89231688D01*
X113107688Y-89445495D01*
X112939701Y-89696905D01*
X112823989Y-89976257D01*
X112765000Y-90272816D01*
X112699000Y-90272816D01*
X112699000Y-77028835D01*
X119882004Y-71043000D01*
X157203279Y-71043000D01*
X171527000Y-84872802D01*
X171527000Y-84872802D01*
G37*
X171527000Y-84872802D02*
X171527001Y-102499673D01*
X157892285Y-111424214D01*
X157859593Y-111441688D01*
X157809942Y-111482437D01*
X157759928Y-111522695D01*
X157757824Y-111525209D01*
X157755289Y-111527290D01*
X157714537Y-111576945D01*
X157673341Y-111626183D01*
X157671769Y-111629059D01*
X157669688Y-111631594D01*
X157639413Y-111688235D01*
X157608608Y-111744575D01*
X157607626Y-111747704D01*
X157606081Y-111750595D01*
X157587430Y-111812080D01*
X157568217Y-111873320D01*
X157567865Y-111876576D01*
X157566912Y-111879718D01*
X157560613Y-111943669D01*
X157553717Y-112007472D01*
X157557000Y-112044390D01*
X157557001Y-123775000D01*
X119354333Y-123775000D01*
X112699000Y-118783500D01*
X112699000Y-90272816D01*
X112765000Y-90272816D01*
X112765000Y-90575184D01*
X112823989Y-90871743D01*
X112939701Y-91151095D01*
X113107688Y-91402505D01*
X113321495Y-91616312D01*
X113465000Y-91712199D01*
X113465001Y-93938972D01*
X113460960Y-93980000D01*
X113477082Y-94143688D01*
X113524828Y-94301086D01*
X113586776Y-94416982D01*
X113602365Y-94446146D01*
X113706710Y-94573291D01*
X113738574Y-94599441D01*
X114830671Y-95691539D01*
X114797000Y-95860816D01*
X114797000Y-96163184D01*
X114855989Y-96459743D01*
X114971701Y-96739095D01*
X115139688Y-96990505D01*
X115353495Y-97204312D01*
X115604905Y-97372299D01*
X115884257Y-97488011D01*
X116180816Y-97547000D01*
X116483184Y-97547000D01*
X116779743Y-97488011D01*
X117059095Y-97372299D01*
X117310505Y-97204312D01*
X117376944Y-97137873D01*
X117382498Y-97156180D01*
X117441463Y-97266494D01*
X117520815Y-97363185D01*
X117617506Y-97442537D01*
X117727820Y-97501502D01*
X117847518Y-97537812D01*
X117972000Y-97550072D01*
X118037000Y-97550072D01*
X118037001Y-101812972D01*
X118032960Y-101854000D01*
X118049082Y-102017688D01*
X118096828Y-102175086D01*
X118164313Y-102301341D01*
X118174365Y-102320146D01*
X118278710Y-102447291D01*
X118310574Y-102473441D01*
X121847000Y-106009869D01*
X121847001Y-119846971D01*
X121842960Y-119888000D01*
X121859082Y-120051688D01*
X121906828Y-120209086D01*
X121967717Y-120323000D01*
X121984365Y-120354146D01*
X122088710Y-120481291D01*
X122120574Y-120507441D01*
X123332558Y-121719426D01*
X123358709Y-121751291D01*
X123485854Y-121855636D01*
X123630913Y-121933172D01*
X123788311Y-121980918D01*
X123910981Y-121993000D01*
X123910983Y-121993000D01*
X123951999Y-121997040D01*
X123993015Y-121993000D01*
X124017665Y-121993000D01*
X124038939Y-122044359D01*
X124185038Y-122263013D01*
X124370987Y-122448962D01*
X124589641Y-122595061D01*
X124832595Y-122695696D01*
X125090514Y-122747000D01*
X125353486Y-122747000D01*
X125611405Y-122695696D01*
X125854359Y-122595061D01*
X126073013Y-122448962D01*
X126258962Y-122263013D01*
X126405061Y-122044359D01*
X126505696Y-121801405D01*
X126557000Y-121543486D01*
X126557000Y-121280514D01*
X126505696Y-121022595D01*
X126405061Y-120779641D01*
X126258962Y-120560987D01*
X126073013Y-120375038D01*
X125899944Y-120259398D01*
X125966286Y-120099235D01*
X126102595Y-120155696D01*
X126360514Y-120207000D01*
X126623486Y-120207000D01*
X126881405Y-120155696D01*
X127124359Y-120055061D01*
X127343013Y-119908962D01*
X127528962Y-119723013D01*
X127675061Y-119504359D01*
X127775696Y-119261405D01*
X127827000Y-119003486D01*
X127827000Y-118740514D01*
X127775696Y-118482595D01*
X127675061Y-118239641D01*
X127528962Y-118020987D01*
X127343013Y-117835038D01*
X127327000Y-117824339D01*
X127327000Y-108803867D01*
X128234868Y-107896000D01*
X130133982Y-107896000D01*
X130175000Y-107900040D01*
X130216018Y-107896000D01*
X130216019Y-107896000D01*
X130338689Y-107883918D01*
X130496087Y-107836172D01*
X130641146Y-107758636D01*
X130768291Y-107654291D01*
X130794446Y-107622421D01*
X132009429Y-106407439D01*
X132041292Y-106381290D01*
X132145637Y-106254145D01*
X132201181Y-106150229D01*
X132368905Y-106262299D01*
X132648257Y-106378011D01*
X132944816Y-106437000D01*
X133247184Y-106437000D01*
X133297722Y-106426947D01*
X133298363Y-106428147D01*
X133402708Y-106555292D01*
X133434576Y-106581445D01*
X134224557Y-107371427D01*
X134250708Y-107403292D01*
X134375505Y-107505710D01*
X134377853Y-107507637D01*
X134522912Y-107585173D01*
X134680310Y-107632919D01*
X134843998Y-107649041D01*
X134885017Y-107645001D01*
X142071773Y-107645001D01*
X142112791Y-107649041D01*
X142153809Y-107645001D01*
X142153810Y-107645001D01*
X142276480Y-107632919D01*
X142433878Y-107585173D01*
X142578937Y-107507637D01*
X142706082Y-107403292D01*
X142732235Y-107371424D01*
X142801426Y-107302234D01*
X142833291Y-107276083D01*
X142937636Y-107148938D01*
X142950400Y-107125057D01*
X142976310Y-107132917D01*
X143139999Y-107149039D01*
X143181017Y-107144999D01*
X145362983Y-107144999D01*
X145404001Y-107149039D01*
X145445019Y-107144999D01*
X145445020Y-107144999D01*
X145567690Y-107132917D01*
X145725088Y-107085171D01*
X145870147Y-107007635D01*
X145997292Y-106903290D01*
X146023447Y-106871420D01*
X146237538Y-106657329D01*
X146386227Y-106686905D01*
X132242133Y-120831000D01*
X129825661Y-120831000D01*
X129814962Y-120814987D01*
X129629013Y-120629038D01*
X129410359Y-120482939D01*
X129167405Y-120382304D01*
X128909486Y-120331000D01*
X128646514Y-120331000D01*
X128388595Y-120382304D01*
X128145641Y-120482939D01*
X127926987Y-120629038D01*
X127741038Y-120814987D01*
X127594939Y-121033641D01*
X127494304Y-121276595D01*
X127443000Y-121534514D01*
X127443000Y-121797486D01*
X127494304Y-122055405D01*
X127594939Y-122298359D01*
X127741038Y-122517013D01*
X127926987Y-122702962D01*
X128145641Y-122849061D01*
X128388595Y-122949696D01*
X128646514Y-123001000D01*
X128909486Y-123001000D01*
X129167405Y-122949696D01*
X129410359Y-122849061D01*
X129629013Y-122702962D01*
X129814962Y-122517013D01*
X129825661Y-122501000D01*
X132546982Y-122501000D01*
X132588000Y-122505040D01*
X132629018Y-122501000D01*
X132629019Y-122501000D01*
X132751689Y-122488918D01*
X132909087Y-122441172D01*
X133054146Y-122363636D01*
X133181291Y-122259291D01*
X133207446Y-122227421D01*
X133602945Y-121831922D01*
X133690939Y-122044359D01*
X133837038Y-122263013D01*
X134022987Y-122448962D01*
X134241641Y-122595061D01*
X134484595Y-122695696D01*
X134742514Y-122747000D01*
X135005486Y-122747000D01*
X135263405Y-122695696D01*
X135506359Y-122595061D01*
X135725013Y-122448962D01*
X135910962Y-122263013D01*
X136057061Y-122044359D01*
X136072121Y-122008000D01*
X153705928Y-122008000D01*
X153718188Y-122132482D01*
X153754498Y-122252180D01*
X153813463Y-122362494D01*
X153892815Y-122459185D01*
X153989506Y-122538537D01*
X154099820Y-122597502D01*
X154219518Y-122633812D01*
X154344000Y-122646072D01*
X154908250Y-122643000D01*
X155067000Y-122484250D01*
X155067000Y-121285000D01*
X155321000Y-121285000D01*
X155321000Y-122484250D01*
X155479750Y-122643000D01*
X156044000Y-122646072D01*
X156168482Y-122633812D01*
X156288180Y-122597502D01*
X156398494Y-122538537D01*
X156495185Y-122459185D01*
X156574537Y-122362494D01*
X156633502Y-122252180D01*
X156669812Y-122132482D01*
X156682072Y-122008000D01*
X156679000Y-121443750D01*
X156520250Y-121285000D01*
X155321000Y-121285000D01*
X155067000Y-121285000D01*
X153867750Y-121285000D01*
X153709000Y-121443750D01*
X153705928Y-122008000D01*
X136072121Y-122008000D01*
X136157696Y-121801405D01*
X136209000Y-121543486D01*
X136209000Y-121280514D01*
X136205243Y-121261625D01*
X149428869Y-108038000D01*
X152881982Y-108038000D01*
X152923000Y-108042040D01*
X152964018Y-108038000D01*
X152964019Y-108038000D01*
X153086689Y-108025918D01*
X153244087Y-107978172D01*
X153389146Y-107900636D01*
X153516291Y-107796291D01*
X153542446Y-107764421D01*
X156263427Y-105043441D01*
X156295291Y-105017291D01*
X156399636Y-104890146D01*
X156477172Y-104745087D01*
X156502354Y-104662072D01*
X156602000Y-104662072D01*
X156726482Y-104649812D01*
X156846180Y-104613502D01*
X156956494Y-104554537D01*
X157053185Y-104475185D01*
X157132537Y-104378494D01*
X157191502Y-104268180D01*
X157227812Y-104148482D01*
X157240072Y-104024000D01*
X157240072Y-102224000D01*
X157227812Y-102099518D01*
X157191502Y-101979820D01*
X157132537Y-101869506D01*
X157053185Y-101772815D01*
X156956494Y-101693463D01*
X156846180Y-101634498D01*
X156726482Y-101598188D01*
X156602000Y-101585928D01*
X154802000Y-101585928D01*
X154677518Y-101598188D01*
X154560343Y-101633733D01*
X155283076Y-100911000D01*
X157969801Y-100911000D01*
X158065688Y-101054505D01*
X158279495Y-101268312D01*
X158530905Y-101436299D01*
X158810257Y-101552011D01*
X159106816Y-101611000D01*
X159409184Y-101611000D01*
X159705743Y-101552011D01*
X159985095Y-101436299D01*
X160236505Y-101268312D01*
X160302944Y-101201873D01*
X160308498Y-101220180D01*
X160367463Y-101330494D01*
X160446815Y-101427185D01*
X160512248Y-101480884D01*
X153354133Y-108639000D01*
X150409007Y-108639000D01*
X150367999Y-108634961D01*
X150326991Y-108639000D01*
X150326981Y-108639000D01*
X150204311Y-108651082D01*
X150046913Y-108698828D01*
X149901854Y-108776364D01*
X149774709Y-108880709D01*
X149748561Y-108912571D01*
X139850376Y-118810757D01*
X139831486Y-118807000D01*
X139568514Y-118807000D01*
X139310595Y-118858304D01*
X139067641Y-118958939D01*
X138848987Y-119105038D01*
X138663038Y-119290987D01*
X138516939Y-119509641D01*
X138416304Y-119752595D01*
X138365000Y-120010514D01*
X138365000Y-120273486D01*
X138416304Y-120531405D01*
X138516939Y-120774359D01*
X138663038Y-120993013D01*
X138848987Y-121178962D01*
X139067641Y-121325061D01*
X139310595Y-121425696D01*
X139568514Y-121477000D01*
X139831486Y-121477000D01*
X140089405Y-121425696D01*
X140332359Y-121325061D01*
X140551013Y-121178962D01*
X140736962Y-120993013D01*
X140883061Y-120774359D01*
X140983696Y-120531405D01*
X141035000Y-120273486D01*
X141035000Y-120010514D01*
X141031243Y-119991624D01*
X142404867Y-118618000D01*
X153701815Y-118618000D01*
X153730487Y-118909111D01*
X153815401Y-119189034D01*
X153953294Y-119447014D01*
X154138866Y-119673134D01*
X154168687Y-119697607D01*
X154099820Y-119718498D01*
X153989506Y-119777463D01*
X153892815Y-119856815D01*
X153813463Y-119953506D01*
X153754498Y-120063820D01*
X153718188Y-120183518D01*
X153705928Y-120308000D01*
X153709000Y-120872250D01*
X153867750Y-121031000D01*
X155067000Y-121031000D01*
X155067000Y-121011000D01*
X155321000Y-121011000D01*
X155321000Y-121031000D01*
X156520250Y-121031000D01*
X156679000Y-120872250D01*
X156682072Y-120308000D01*
X156669812Y-120183518D01*
X156633502Y-120063820D01*
X156574537Y-119953506D01*
X156495185Y-119856815D01*
X156398494Y-119777463D01*
X156288180Y-119718498D01*
X156219313Y-119697607D01*
X156249134Y-119673134D01*
X156434706Y-119447014D01*
X156572599Y-119189034D01*
X156657513Y-118909111D01*
X156686185Y-118618000D01*
X156657513Y-118326889D01*
X156572599Y-118046966D01*
X156434706Y-117788986D01*
X156249134Y-117562866D01*
X156023014Y-117377294D01*
X155765034Y-117239401D01*
X155485111Y-117154487D01*
X155266950Y-117133000D01*
X155121050Y-117133000D01*
X154902889Y-117154487D01*
X154622966Y-117239401D01*
X154364986Y-117377294D01*
X154138866Y-117562866D01*
X153953294Y-117788986D01*
X153815401Y-118046966D01*
X153730487Y-118326889D01*
X153701815Y-118618000D01*
X142404867Y-118618000D01*
X144602867Y-116420000D01*
X153705928Y-116420000D01*
X153718188Y-116544482D01*
X153754498Y-116664180D01*
X153813463Y-116774494D01*
X153892815Y-116871185D01*
X153989506Y-116950537D01*
X154099820Y-117009502D01*
X154219518Y-117045812D01*
X154344000Y-117058072D01*
X154908250Y-117055000D01*
X155067000Y-116896250D01*
X155067000Y-115697000D01*
X155321000Y-115697000D01*
X155321000Y-116896250D01*
X155479750Y-117055000D01*
X156044000Y-117058072D01*
X156168482Y-117045812D01*
X156288180Y-117009502D01*
X156398494Y-116950537D01*
X156495185Y-116871185D01*
X156574537Y-116774494D01*
X156633502Y-116664180D01*
X156669812Y-116544482D01*
X156682072Y-116420000D01*
X156679000Y-115855750D01*
X156520250Y-115697000D01*
X155321000Y-115697000D01*
X155067000Y-115697000D01*
X153867750Y-115697000D01*
X153709000Y-115855750D01*
X153705928Y-116420000D01*
X144602867Y-116420000D01*
X147992867Y-113030000D01*
X153701815Y-113030000D01*
X153730487Y-113321111D01*
X153815401Y-113601034D01*
X153953294Y-113859014D01*
X154138866Y-114085134D01*
X154168687Y-114109607D01*
X154099820Y-114130498D01*
X153989506Y-114189463D01*
X153892815Y-114268815D01*
X153813463Y-114365506D01*
X153754498Y-114475820D01*
X153718188Y-114595518D01*
X153705928Y-114720000D01*
X153709000Y-115284250D01*
X153867750Y-115443000D01*
X155067000Y-115443000D01*
X155067000Y-115423000D01*
X155321000Y-115423000D01*
X155321000Y-115443000D01*
X156520250Y-115443000D01*
X156679000Y-115284250D01*
X156682072Y-114720000D01*
X156669812Y-114595518D01*
X156633502Y-114475820D01*
X156574537Y-114365506D01*
X156495185Y-114268815D01*
X156398494Y-114189463D01*
X156288180Y-114130498D01*
X156219313Y-114109607D01*
X156249134Y-114085134D01*
X156434706Y-113859014D01*
X156572599Y-113601034D01*
X156657513Y-113321111D01*
X156686185Y-113030000D01*
X156657513Y-112738889D01*
X156572599Y-112458966D01*
X156434706Y-112200986D01*
X156249134Y-111974866D01*
X156023014Y-111789294D01*
X155765034Y-111651401D01*
X155485111Y-111566487D01*
X155266950Y-111545000D01*
X155121050Y-111545000D01*
X154902889Y-111566487D01*
X154622966Y-111651401D01*
X154364986Y-111789294D01*
X154138866Y-111974866D01*
X153953294Y-112200986D01*
X153815401Y-112458966D01*
X153730487Y-112738889D01*
X153701815Y-113030000D01*
X147992867Y-113030000D01*
X150713868Y-110309000D01*
X153658982Y-110309000D01*
X153700000Y-110313040D01*
X153741018Y-110309000D01*
X153741019Y-110309000D01*
X153863689Y-110296918D01*
X154021087Y-110249172D01*
X154166146Y-110171636D01*
X154293291Y-110067291D01*
X154319446Y-110035421D01*
X162359428Y-101995440D01*
X162391291Y-101969291D01*
X162495636Y-101842146D01*
X162573172Y-101697087D01*
X162598354Y-101614072D01*
X162698000Y-101614072D01*
X162822482Y-101601812D01*
X162942180Y-101565502D01*
X163052494Y-101506537D01*
X163149185Y-101427185D01*
X163228537Y-101330494D01*
X163287502Y-101220180D01*
X163323812Y-101100482D01*
X163336072Y-100976000D01*
X163336072Y-99176000D01*
X163323812Y-99051518D01*
X163287502Y-98931820D01*
X163228537Y-98821506D01*
X163149185Y-98724815D01*
X163052494Y-98645463D01*
X162942180Y-98586498D01*
X162822482Y-98550188D01*
X162698000Y-98537928D01*
X161440796Y-98537928D01*
X160385446Y-97482579D01*
X160359291Y-97450709D01*
X160232146Y-97346364D01*
X160087087Y-97268828D01*
X159929689Y-97221082D01*
X159807019Y-97209000D01*
X159807018Y-97209000D01*
X159766000Y-97204960D01*
X159724982Y-97209000D01*
X145125868Y-97209000D01*
X144853000Y-96936132D01*
X144853000Y-95341867D01*
X146649868Y-93545000D01*
X147813928Y-93545000D01*
X147813928Y-93610000D01*
X147826188Y-93734482D01*
X147862498Y-93854180D01*
X147921463Y-93964494D01*
X148000815Y-94061185D01*
X148097506Y-94140537D01*
X148207820Y-94199502D01*
X148327518Y-94235812D01*
X148391016Y-94242066D01*
X148168034Y-94465048D01*
X147952359Y-94320939D01*
X147709405Y-94220304D01*
X147451486Y-94169000D01*
X147188514Y-94169000D01*
X146930595Y-94220304D01*
X146687641Y-94320939D01*
X146468987Y-94467038D01*
X146283038Y-94652987D01*
X146136939Y-94871641D01*
X146036304Y-95114595D01*
X145985000Y-95372514D01*
X145985000Y-95635486D01*
X146036304Y-95893405D01*
X146136939Y-96136359D01*
X146283038Y-96355013D01*
X146468987Y-96540962D01*
X146687641Y-96687061D01*
X146930595Y-96787696D01*
X147188514Y-96839000D01*
X147451486Y-96839000D01*
X147709405Y-96787696D01*
X147952359Y-96687061D01*
X148171013Y-96540962D01*
X148356962Y-96355013D01*
X148368837Y-96337240D01*
X148473638Y-96326918D01*
X148631036Y-96279172D01*
X148776095Y-96201636D01*
X148903240Y-96097291D01*
X148929395Y-96065421D01*
X149801818Y-95192999D01*
X159594981Y-95192999D01*
X159635999Y-95197039D01*
X159677017Y-95192999D01*
X159677018Y-95192999D01*
X159799688Y-95180917D01*
X159957086Y-95133171D01*
X160102145Y-95055635D01*
X160229290Y-94951290D01*
X160255444Y-94919421D01*
X160867866Y-94307000D01*
X163321875Y-94307000D01*
X163102905Y-94397701D01*
X162851495Y-94565688D01*
X162637688Y-94779495D01*
X162469701Y-95030905D01*
X162353989Y-95310257D01*
X162295000Y-95606816D01*
X162295000Y-95909184D01*
X162353989Y-96205743D01*
X162469701Y-96485095D01*
X162637688Y-96736505D01*
X162851495Y-96950312D01*
X163102905Y-97118299D01*
X163382257Y-97234011D01*
X163678816Y-97293000D01*
X163981184Y-97293000D01*
X164277743Y-97234011D01*
X164557095Y-97118299D01*
X164808505Y-96950312D01*
X164874944Y-96883873D01*
X164880498Y-96902180D01*
X164939463Y-97012494D01*
X165018815Y-97109185D01*
X165115506Y-97188537D01*
X165225820Y-97247502D01*
X165345518Y-97283812D01*
X165470000Y-97296072D01*
X167270000Y-97296072D01*
X167394482Y-97283812D01*
X167514180Y-97247502D01*
X167624494Y-97188537D01*
X167721185Y-97109185D01*
X167800537Y-97012494D01*
X167859502Y-96902180D01*
X167895812Y-96782482D01*
X167908072Y-96658000D01*
X167908072Y-94858000D01*
X167895812Y-94733518D01*
X167859502Y-94613820D01*
X167800537Y-94503506D01*
X167721185Y-94406815D01*
X167624494Y-94327463D01*
X167514180Y-94268498D01*
X167394482Y-94232188D01*
X167270000Y-94219928D01*
X167170354Y-94219928D01*
X167145172Y-94136913D01*
X167067636Y-93991854D01*
X166963291Y-93864709D01*
X166931433Y-93838564D01*
X166003445Y-92910578D01*
X165977291Y-92878709D01*
X165850146Y-92774364D01*
X165705087Y-92696828D01*
X165547689Y-92649082D01*
X165425019Y-92637000D01*
X165425018Y-92637000D01*
X165384000Y-92632960D01*
X165342982Y-92637000D01*
X160563016Y-92637000D01*
X160521998Y-92632960D01*
X160480979Y-92637000D01*
X160358309Y-92649082D01*
X160200911Y-92696828D01*
X160055852Y-92774364D01*
X159928707Y-92878709D01*
X159902561Y-92910568D01*
X159290131Y-93522999D01*
X158510072Y-93522999D01*
X158510072Y-91810000D01*
X158497812Y-91685518D01*
X158461502Y-91565820D01*
X158402537Y-91455506D01*
X158323185Y-91358815D01*
X158226494Y-91279463D01*
X158116180Y-91220498D01*
X158097873Y-91214944D01*
X158164312Y-91148505D01*
X158260199Y-91005000D01*
X158972339Y-91005000D01*
X158983038Y-91021013D01*
X159168987Y-91206962D01*
X159387641Y-91353061D01*
X159630595Y-91453696D01*
X159888514Y-91505000D01*
X160151486Y-91505000D01*
X160409405Y-91453696D01*
X160652359Y-91353061D01*
X160871013Y-91206962D01*
X161056962Y-91021013D01*
X161203061Y-90802359D01*
X161303696Y-90559405D01*
X161355000Y-90301486D01*
X161355000Y-90038514D01*
X161303696Y-89780595D01*
X161203061Y-89537641D01*
X161056962Y-89318987D01*
X160871013Y-89133038D01*
X160652359Y-88986939D01*
X160409405Y-88886304D01*
X160151486Y-88835000D01*
X159888514Y-88835000D01*
X159630595Y-88886304D01*
X159387641Y-88986939D01*
X159168987Y-89133038D01*
X158983038Y-89318987D01*
X158972339Y-89335000D01*
X158260199Y-89335000D01*
X158164312Y-89191495D01*
X157950505Y-88977688D01*
X157699095Y-88809701D01*
X157419743Y-88693989D01*
X157123184Y-88635000D01*
X156820816Y-88635000D01*
X156524257Y-88693989D01*
X156244905Y-88809701D01*
X155993495Y-88977688D01*
X155779688Y-89191495D01*
X155683801Y-89335000D01*
X155237810Y-89335000D01*
X155196792Y-89330960D01*
X155155773Y-89335000D01*
X155033103Y-89347082D01*
X154875705Y-89394828D01*
X154730646Y-89472364D01*
X154603501Y-89576709D01*
X154577353Y-89608571D01*
X154398267Y-89787657D01*
X154433812Y-89670482D01*
X154446072Y-89546000D01*
X154446072Y-87746000D01*
X154433812Y-87621518D01*
X154397502Y-87501820D01*
X154338537Y-87391506D01*
X154259185Y-87294815D01*
X154162494Y-87215463D01*
X154052180Y-87156498D01*
X153932482Y-87120188D01*
X153808000Y-87107928D01*
X152008000Y-87107928D01*
X151883518Y-87120188D01*
X151763820Y-87156498D01*
X151653506Y-87215463D01*
X151556815Y-87294815D01*
X151477463Y-87391506D01*
X151418498Y-87501820D01*
X151382188Y-87621518D01*
X151369928Y-87746000D01*
X151369928Y-89546000D01*
X151382188Y-89670482D01*
X151418498Y-89790180D01*
X151477463Y-89900494D01*
X151556815Y-89997185D01*
X151653506Y-90076537D01*
X151763820Y-90135502D01*
X151782127Y-90141056D01*
X151715688Y-90207495D01*
X151547701Y-90458905D01*
X151431989Y-90738257D01*
X151373000Y-91034816D01*
X151373000Y-91337184D01*
X151431989Y-91633743D01*
X151547701Y-91913095D01*
X151715688Y-92164505D01*
X151929495Y-92378312D01*
X152180905Y-92546299D01*
X152460257Y-92662011D01*
X152756816Y-92721000D01*
X153059184Y-92721000D01*
X153355743Y-92662011D01*
X153635095Y-92546299D01*
X153886505Y-92378312D01*
X154100312Y-92164505D01*
X154194395Y-92023700D01*
X154221810Y-92021000D01*
X154221811Y-92021000D01*
X154344481Y-92008918D01*
X154501879Y-91961172D01*
X154646938Y-91883636D01*
X154774083Y-91779291D01*
X154800238Y-91747421D01*
X155542660Y-91005000D01*
X155683801Y-91005000D01*
X155779688Y-91148505D01*
X155846127Y-91214944D01*
X155827820Y-91220498D01*
X155717506Y-91279463D01*
X155620815Y-91358815D01*
X155541463Y-91455506D01*
X155482498Y-91565820D01*
X155446188Y-91685518D01*
X155433928Y-91810000D01*
X155433928Y-93522999D01*
X150890072Y-93522999D01*
X150890072Y-91810000D01*
X150877812Y-91685518D01*
X150841502Y-91565820D01*
X150782537Y-91455506D01*
X150703185Y-91358815D01*
X150606494Y-91279463D01*
X150496180Y-91220498D01*
X150477873Y-91214944D01*
X150544312Y-91148505D01*
X150712299Y-90897095D01*
X150828011Y-90617743D01*
X150887000Y-90321184D01*
X150887000Y-90018816D01*
X150828011Y-89722257D01*
X150712299Y-89442905D01*
X150544312Y-89191495D01*
X150330505Y-88977688D01*
X150079095Y-88809701D01*
X149799743Y-88693989D01*
X149503184Y-88635000D01*
X149200816Y-88635000D01*
X148904257Y-88693989D01*
X148624905Y-88809701D01*
X148373495Y-88977688D01*
X148159688Y-89191495D01*
X148063801Y-89335000D01*
X147724814Y-89335000D01*
X147664299Y-89188905D01*
X147496312Y-88937495D01*
X147429873Y-88871056D01*
X147448180Y-88865502D01*
X147558494Y-88806537D01*
X147655185Y-88727185D01*
X147734537Y-88630494D01*
X147793502Y-88520180D01*
X147829812Y-88400482D01*
X147842072Y-88276000D01*
X147842072Y-86476000D01*
X147837837Y-86433000D01*
X153384339Y-86433000D01*
X153395038Y-86449013D01*
X153580987Y-86634962D01*
X153799641Y-86781061D01*
X154042595Y-86881696D01*
X154300514Y-86933000D01*
X154563486Y-86933000D01*
X154821405Y-86881696D01*
X155064359Y-86781061D01*
X155283013Y-86634962D01*
X155468962Y-86449013D01*
X155615061Y-86230359D01*
X155715696Y-85987405D01*
X155767000Y-85729486D01*
X155767000Y-85466514D01*
X155715696Y-85208595D01*
X155615061Y-84965641D01*
X155468962Y-84746987D01*
X155283013Y-84561038D01*
X155064359Y-84414939D01*
X154821405Y-84314304D01*
X154563486Y-84263000D01*
X154300514Y-84263000D01*
X154042595Y-84314304D01*
X153799641Y-84414939D01*
X153580987Y-84561038D01*
X153395038Y-84746987D01*
X153384339Y-84763000D01*
X146823018Y-84763000D01*
X146781999Y-84758960D01*
X146707384Y-84766309D01*
X146618311Y-84775082D01*
X146460913Y-84822828D01*
X146315854Y-84900364D01*
X146188709Y-85004709D01*
X146162554Y-85036579D01*
X145742579Y-85456554D01*
X145710709Y-85482709D01*
X145616093Y-85598000D01*
X145606364Y-85609855D01*
X145528828Y-85754914D01*
X145503646Y-85837928D01*
X145404000Y-85837928D01*
X145279518Y-85850188D01*
X145159820Y-85886498D01*
X145049506Y-85945463D01*
X144952815Y-86024815D01*
X144899116Y-86090248D01*
X143709868Y-84901000D01*
X143895486Y-84901000D01*
X144153405Y-84849696D01*
X144396359Y-84749061D01*
X144615013Y-84602962D01*
X144800962Y-84417013D01*
X144811661Y-84401000D01*
X150580982Y-84401000D01*
X150622000Y-84405040D01*
X150663018Y-84401000D01*
X150663019Y-84401000D01*
X150785689Y-84388918D01*
X150943087Y-84341172D01*
X151088146Y-84263636D01*
X151215291Y-84159291D01*
X151241446Y-84127421D01*
X152113869Y-83254999D01*
X162148559Y-83254999D01*
X162099989Y-83372257D01*
X162041000Y-83668816D01*
X162041000Y-83971184D01*
X162099989Y-84267743D01*
X162215701Y-84547095D01*
X162383688Y-84798505D01*
X162597495Y-85012312D01*
X162741001Y-85108200D01*
X162741000Y-88096981D01*
X162736960Y-88138000D01*
X162741000Y-88179018D01*
X162753082Y-88301688D01*
X162800828Y-88459086D01*
X162878364Y-88604145D01*
X162982709Y-88731291D01*
X163014579Y-88757446D01*
X163852671Y-89595539D01*
X163819000Y-89764816D01*
X163819000Y-90067184D01*
X163877989Y-90363743D01*
X163993701Y-90643095D01*
X164161688Y-90894505D01*
X164375495Y-91108312D01*
X164626905Y-91276299D01*
X164906257Y-91392011D01*
X165202816Y-91451000D01*
X165505184Y-91451000D01*
X165801743Y-91392011D01*
X166081095Y-91276299D01*
X166332505Y-91108312D01*
X166398944Y-91041873D01*
X166404498Y-91060180D01*
X166463463Y-91170494D01*
X166542815Y-91267185D01*
X166639506Y-91346537D01*
X166749820Y-91405502D01*
X166869518Y-91441812D01*
X166994000Y-91454072D01*
X168794000Y-91454072D01*
X168918482Y-91441812D01*
X169038180Y-91405502D01*
X169148494Y-91346537D01*
X169245185Y-91267185D01*
X169324537Y-91170494D01*
X169383502Y-91060180D01*
X169419812Y-90940482D01*
X169432072Y-90816000D01*
X169432072Y-89016000D01*
X169419812Y-88891518D01*
X169383502Y-88771820D01*
X169324537Y-88661506D01*
X169245185Y-88564815D01*
X169148494Y-88485463D01*
X169038180Y-88426498D01*
X168918482Y-88390188D01*
X168794000Y-88377928D01*
X166994000Y-88377928D01*
X166869518Y-88390188D01*
X166749820Y-88426498D01*
X166639506Y-88485463D01*
X166542815Y-88564815D01*
X166463463Y-88661506D01*
X166404498Y-88771820D01*
X166398944Y-88790127D01*
X166332505Y-88723688D01*
X166081095Y-88555701D01*
X165801743Y-88439989D01*
X165505184Y-88381000D01*
X165202816Y-88381000D01*
X165033539Y-88414671D01*
X164411000Y-87792133D01*
X164411000Y-85108199D01*
X164554505Y-85012312D01*
X164620944Y-84945873D01*
X164626498Y-84964180D01*
X164685463Y-85074494D01*
X164764815Y-85171185D01*
X164861506Y-85250537D01*
X164971820Y-85309502D01*
X165091518Y-85345812D01*
X165216000Y-85358072D01*
X167016000Y-85358072D01*
X167140482Y-85345812D01*
X167260180Y-85309502D01*
X167370494Y-85250537D01*
X167467185Y-85171185D01*
X167546537Y-85074494D01*
X167605502Y-84964180D01*
X167641812Y-84844482D01*
X167654072Y-84720000D01*
X167654072Y-82920000D01*
X167641812Y-82795518D01*
X167605502Y-82675820D01*
X167546537Y-82565506D01*
X167467185Y-82468815D01*
X167370494Y-82389463D01*
X167260180Y-82330498D01*
X167140482Y-82294188D01*
X167016000Y-82281928D01*
X165290797Y-82281928D01*
X164867447Y-81858578D01*
X164841292Y-81826708D01*
X164714147Y-81722363D01*
X164569088Y-81644827D01*
X164411690Y-81597081D01*
X164289020Y-81584999D01*
X164289019Y-81584999D01*
X164248001Y-81580959D01*
X164206983Y-81584999D01*
X151809019Y-81584999D01*
X151768000Y-81580959D01*
X151726982Y-81584999D01*
X151604312Y-81597081D01*
X151446914Y-81644827D01*
X151301855Y-81722363D01*
X151174710Y-81826708D01*
X151148559Y-81858573D01*
X150276133Y-82731000D01*
X144811661Y-82731000D01*
X144800962Y-82714987D01*
X144615013Y-82529038D01*
X144396359Y-82382939D01*
X144153405Y-82282304D01*
X143895486Y-82231000D01*
X143632514Y-82231000D01*
X143374595Y-82282304D01*
X143131641Y-82382939D01*
X142912987Y-82529038D01*
X142727038Y-82714987D01*
X142580939Y-82933641D01*
X142480304Y-83176595D01*
X142429000Y-83434514D01*
X142429000Y-83620132D01*
X136349445Y-77540578D01*
X136323290Y-77508708D01*
X136196145Y-77404363D01*
X136051086Y-77326827D01*
X135926387Y-77289000D01*
X137118982Y-77289000D01*
X137160000Y-77293040D01*
X137201018Y-77289000D01*
X137201019Y-77289000D01*
X137323689Y-77276918D01*
X137481087Y-77229172D01*
X137626146Y-77151636D01*
X137753291Y-77047291D01*
X137779446Y-77015421D01*
X139379539Y-75415329D01*
X139548816Y-75449000D01*
X139851184Y-75449000D01*
X140147743Y-75390011D01*
X140427095Y-75274299D01*
X140678505Y-75106312D01*
X140744944Y-75039873D01*
X140750498Y-75058180D01*
X140809463Y-75168494D01*
X140888815Y-75265185D01*
X140985506Y-75344537D01*
X141095820Y-75403502D01*
X141215518Y-75439812D01*
X141340000Y-75452072D01*
X143140000Y-75452072D01*
X143264482Y-75439812D01*
X143384180Y-75403502D01*
X143494494Y-75344537D01*
X143591185Y-75265185D01*
X143670537Y-75168494D01*
X143729502Y-75058180D01*
X143765812Y-74938482D01*
X143778072Y-74814000D01*
X143778072Y-73348999D01*
X145460184Y-73348999D01*
X145365688Y-73443495D01*
X145197701Y-73694905D01*
X145081989Y-73974257D01*
X145023000Y-74270816D01*
X145023000Y-74573184D01*
X145081989Y-74869743D01*
X145197701Y-75149095D01*
X145365688Y-75400505D01*
X145579495Y-75614312D01*
X145830905Y-75782299D01*
X146110257Y-75898011D01*
X146406816Y-75957000D01*
X146709184Y-75957000D01*
X146878460Y-75923329D01*
X146896569Y-75941438D01*
X146896580Y-75941447D01*
X148616562Y-77661431D01*
X148642708Y-77693290D01*
X148674567Y-77719436D01*
X148674569Y-77719438D01*
X148697275Y-77738072D01*
X148769853Y-77797635D01*
X148914912Y-77875171D01*
X149072310Y-77922917D01*
X149194980Y-77934999D01*
X149194981Y-77934999D01*
X149235999Y-77939039D01*
X149277017Y-77934999D01*
X151966983Y-77934999D01*
X152008001Y-77939039D01*
X152049019Y-77934999D01*
X152049020Y-77934999D01*
X152171690Y-77922917D01*
X152329088Y-77875171D01*
X152474147Y-77797635D01*
X152590725Y-77701962D01*
X152756816Y-77735000D01*
X153059184Y-77735000D01*
X153228461Y-77701329D01*
X155336563Y-79809432D01*
X155362709Y-79841291D01*
X155394568Y-79867437D01*
X155394570Y-79867439D01*
X155423773Y-79891405D01*
X155489854Y-79945636D01*
X155634913Y-80023172D01*
X155792311Y-80070918D01*
X155854936Y-80077086D01*
X155956000Y-80087040D01*
X155997018Y-80083000D01*
X157969801Y-80083000D01*
X158065688Y-80226505D01*
X158279495Y-80440312D01*
X158530905Y-80608299D01*
X158810257Y-80724011D01*
X159106816Y-80783000D01*
X159409184Y-80783000D01*
X159705743Y-80724011D01*
X159985095Y-80608299D01*
X160236505Y-80440312D01*
X160302944Y-80373873D01*
X160308498Y-80392180D01*
X160367463Y-80502494D01*
X160446815Y-80599185D01*
X160543506Y-80678537D01*
X160653820Y-80737502D01*
X160773518Y-80773812D01*
X160898000Y-80786072D01*
X162698000Y-80786072D01*
X162822482Y-80773812D01*
X162942180Y-80737502D01*
X163052494Y-80678537D01*
X163149185Y-80599185D01*
X163228537Y-80502494D01*
X163287502Y-80392180D01*
X163323812Y-80272482D01*
X163336072Y-80148000D01*
X163336072Y-78348000D01*
X163323812Y-78223518D01*
X163287502Y-78103820D01*
X163228537Y-77993506D01*
X163149185Y-77896815D01*
X163052494Y-77817463D01*
X162942180Y-77758498D01*
X162822482Y-77722188D01*
X162698000Y-77709928D01*
X161440797Y-77709928D01*
X155683445Y-71952578D01*
X155657290Y-71920708D01*
X155530145Y-71816363D01*
X155385086Y-71738827D01*
X155227688Y-71691081D01*
X155105018Y-71678999D01*
X155105017Y-71678999D01*
X155063999Y-71674959D01*
X155022981Y-71678999D01*
X128147017Y-71678999D01*
X128105999Y-71674959D01*
X128064981Y-71678999D01*
X128064980Y-71678999D01*
X127942310Y-71691081D01*
X127784912Y-71738827D01*
X127639853Y-71816363D01*
X127512708Y-71920708D01*
X127486562Y-71952567D01*
X124530578Y-74908553D01*
X124498708Y-74934708D01*
X124432576Y-75015291D01*
X124394363Y-75061854D01*
X124316827Y-75206913D01*
X124269081Y-75364311D01*
X124252959Y-75527999D01*
X124256999Y-75569018D01*
X124257000Y-79170969D01*
X124252959Y-79211997D01*
X124269081Y-79375685D01*
X124316827Y-79533083D01*
X124394363Y-79678142D01*
X124394364Y-79678143D01*
X124498709Y-79805288D01*
X124530573Y-79831438D01*
X125965062Y-81265928D01*
X125084000Y-81265928D01*
X124959518Y-81278188D01*
X124839820Y-81314498D01*
X124729506Y-81373463D01*
X124632815Y-81452815D01*
X124553463Y-81549506D01*
X124494498Y-81659820D01*
X124488944Y-81678127D01*
X124422505Y-81611688D01*
X124171095Y-81443701D01*
X123891743Y-81327989D01*
X123595184Y-81269000D01*
X123494717Y-81269000D01*
X123572180Y-81245502D01*
X123682494Y-81186537D01*
X123779185Y-81107185D01*
X123858537Y-81010494D01*
X123917502Y-80900180D01*
X123953812Y-80780482D01*
X123966072Y-80656000D01*
X123966072Y-78856000D01*
X123953812Y-78731518D01*
X123917502Y-78611820D01*
X123858537Y-78501506D01*
X123779185Y-78404815D01*
X123682494Y-78325463D01*
X123572180Y-78266498D01*
X123452482Y-78230188D01*
X123328000Y-78217928D01*
X121528000Y-78217928D01*
X121403518Y-78230188D01*
X121283820Y-78266498D01*
X121173506Y-78325463D01*
X121076815Y-78404815D01*
X120997463Y-78501506D01*
X120938498Y-78611820D01*
X120932944Y-78630127D01*
X120866505Y-78563688D01*
X120615095Y-78395701D01*
X120335743Y-78279989D01*
X120039184Y-78221000D01*
X119736816Y-78221000D01*
X119440257Y-78279989D01*
X119160905Y-78395701D01*
X118909495Y-78563688D01*
X118695688Y-78777495D01*
X118527701Y-79028905D01*
X118411989Y-79308257D01*
X118353000Y-79604816D01*
X118353000Y-79907184D01*
X118386671Y-80076461D01*
X115636462Y-82826671D01*
X115467184Y-82793000D01*
X115164816Y-82793000D01*
X114868257Y-82851989D01*
X114588905Y-82967701D01*
X114337495Y-83135688D01*
X114123688Y-83349495D01*
X113955701Y-83600905D01*
X113839989Y-83880257D01*
X113781000Y-84176816D01*
X113781000Y-84479184D01*
X113839989Y-84775743D01*
X113955701Y-85055095D01*
X114123688Y-85306505D01*
X114337495Y-85520312D01*
X114588905Y-85688299D01*
X114868257Y-85804011D01*
X115164816Y-85863000D01*
X115467184Y-85863000D01*
X115763743Y-85804011D01*
X116043095Y-85688299D01*
X116294505Y-85520312D01*
X116360944Y-85453873D01*
X116366498Y-85472180D01*
X116425463Y-85582494D01*
X116504815Y-85679185D01*
X116601506Y-85758537D01*
X116711820Y-85817502D01*
X116831518Y-85853812D01*
X116956000Y-85866072D01*
X118756000Y-85866072D01*
X118880482Y-85853812D01*
X119000180Y-85817502D01*
X119110494Y-85758537D01*
X119207185Y-85679185D01*
X119286537Y-85582494D01*
X119345502Y-85472180D01*
X119381812Y-85352482D01*
X119394072Y-85228000D01*
X119394072Y-83428000D01*
X119381812Y-83303518D01*
X119345502Y-83183820D01*
X119286537Y-83073506D01*
X119207185Y-82976815D01*
X119110494Y-82897463D01*
X119000180Y-82838498D01*
X118880482Y-82802188D01*
X118756000Y-82789928D01*
X118034939Y-82789928D01*
X119567539Y-81257329D01*
X119736816Y-81291000D01*
X120039184Y-81291000D01*
X120208460Y-81257329D01*
X120226569Y-81275438D01*
X120226580Y-81275447D01*
X121416559Y-82465427D01*
X121442710Y-82497292D01*
X121569855Y-82601637D01*
X121714914Y-82679173D01*
X121872312Y-82726919D01*
X121909000Y-82730532D01*
X121909000Y-82955184D01*
X121967989Y-83251743D01*
X122083701Y-83531095D01*
X122251688Y-83782505D01*
X122465495Y-83996312D01*
X122716905Y-84164299D01*
X122996257Y-84280011D01*
X123292816Y-84339000D01*
X123595184Y-84339000D01*
X123891743Y-84280011D01*
X124171095Y-84164299D01*
X124422505Y-83996312D01*
X124488944Y-83929873D01*
X124494498Y-83948180D01*
X124553463Y-84058494D01*
X124632815Y-84155185D01*
X124729506Y-84234537D01*
X124839820Y-84293502D01*
X124959518Y-84329812D01*
X125019000Y-84335670D01*
X125018999Y-86442980D01*
X125014959Y-86483999D01*
X125018999Y-86525017D01*
X125031081Y-86647687D01*
X125078827Y-86805085D01*
X125156363Y-86950144D01*
X125260708Y-87077290D01*
X125292578Y-87103445D01*
X129613570Y-91424438D01*
X129613576Y-91424443D01*
X138865001Y-100675869D01*
X138865001Y-102094133D01*
X138556446Y-101785579D01*
X138530291Y-101753709D01*
X138403146Y-101649364D01*
X138258087Y-101571828D01*
X138100689Y-101524082D01*
X137978019Y-101512000D01*
X137978018Y-101512000D01*
X137937000Y-101507960D01*
X137895982Y-101512000D01*
X131654055Y-101512000D01*
X131613037Y-101507960D01*
X131572019Y-101512000D01*
X131572018Y-101512000D01*
X131449348Y-101524082D01*
X131312804Y-101565502D01*
X131291950Y-101571828D01*
X131146891Y-101649364D01*
X131096996Y-101690312D01*
X131019746Y-101753709D01*
X130993600Y-101785568D01*
X130568736Y-102210433D01*
X130557812Y-102099518D01*
X130521502Y-101979820D01*
X130462537Y-101869506D01*
X130383185Y-101772815D01*
X130286494Y-101693463D01*
X130176180Y-101634498D01*
X130056482Y-101598188D01*
X129932000Y-101585928D01*
X128132000Y-101585928D01*
X128007518Y-101598188D01*
X127887820Y-101634498D01*
X127777506Y-101693463D01*
X127680815Y-101772815D01*
X127601463Y-101869506D01*
X127542498Y-101979820D01*
X127536944Y-101998127D01*
X127470505Y-101931688D01*
X127219095Y-101763701D01*
X126939743Y-101647989D01*
X126643184Y-101589000D01*
X126340816Y-101589000D01*
X126044257Y-101647989D01*
X125764905Y-101763701D01*
X125513495Y-101931688D01*
X125299688Y-102145495D01*
X125203801Y-102289000D01*
X122771076Y-102289000D01*
X122048343Y-101566267D01*
X122165518Y-101601812D01*
X122290000Y-101614072D01*
X124090000Y-101614072D01*
X124214482Y-101601812D01*
X124334180Y-101565502D01*
X124444494Y-101506537D01*
X124541185Y-101427185D01*
X124620537Y-101330494D01*
X124679502Y-101220180D01*
X124715812Y-101100482D01*
X124728072Y-100976000D01*
X124728072Y-99176000D01*
X124715812Y-99051518D01*
X124679502Y-98931820D01*
X124620537Y-98821506D01*
X124541185Y-98724815D01*
X124444494Y-98645463D01*
X124334180Y-98586498D01*
X124214482Y-98550188D01*
X124090000Y-98537928D01*
X122290000Y-98537928D01*
X122165518Y-98550188D01*
X122045820Y-98586498D01*
X121935506Y-98645463D01*
X121838815Y-98724815D01*
X121759463Y-98821506D01*
X121700498Y-98931820D01*
X121694944Y-98950127D01*
X121628505Y-98883688D01*
X121377095Y-98715701D01*
X121097743Y-98599989D01*
X120801184Y-98541000D01*
X120498816Y-98541000D01*
X120202257Y-98599989D01*
X119922905Y-98715701D01*
X119707000Y-98859964D01*
X119707000Y-97550072D01*
X119772000Y-97550072D01*
X119896482Y-97537812D01*
X120016180Y-97501502D01*
X120126494Y-97442537D01*
X120223185Y-97363185D01*
X120302537Y-97266494D01*
X120361502Y-97156180D01*
X120397812Y-97036482D01*
X120410072Y-96912000D01*
X120410072Y-95112000D01*
X120397812Y-94987518D01*
X120361502Y-94867820D01*
X120302537Y-94757506D01*
X120223185Y-94660815D01*
X120126494Y-94581463D01*
X120016180Y-94522498D01*
X119896482Y-94486188D01*
X119772000Y-94473928D01*
X117972000Y-94473928D01*
X117847518Y-94486188D01*
X117727820Y-94522498D01*
X117617506Y-94581463D01*
X117520815Y-94660815D01*
X117441463Y-94757506D01*
X117382498Y-94867820D01*
X117376944Y-94886127D01*
X117310505Y-94819688D01*
X117059095Y-94651701D01*
X116779743Y-94535989D01*
X116483184Y-94477000D01*
X116180816Y-94477000D01*
X116011539Y-94510671D01*
X115135000Y-93634133D01*
X115135000Y-91712199D01*
X115278505Y-91616312D01*
X115344944Y-91549873D01*
X115350498Y-91568180D01*
X115409463Y-91678494D01*
X115488815Y-91775185D01*
X115585506Y-91854537D01*
X115695820Y-91913502D01*
X115815518Y-91949812D01*
X115940000Y-91962072D01*
X117740000Y-91962072D01*
X117864482Y-91949812D01*
X117984180Y-91913502D01*
X118094494Y-91854537D01*
X118191185Y-91775185D01*
X118270537Y-91678494D01*
X118329502Y-91568180D01*
X118365812Y-91448482D01*
X118378072Y-91324000D01*
X118378072Y-91259000D01*
X122310082Y-91259000D01*
X126977047Y-95925967D01*
X126832939Y-96141641D01*
X126732304Y-96384595D01*
X126681000Y-96642514D01*
X126681000Y-96905486D01*
X126732304Y-97163405D01*
X126832939Y-97406359D01*
X126979038Y-97625013D01*
X127164987Y-97810962D01*
X127383641Y-97957061D01*
X127626595Y-98057696D01*
X127884514Y-98109000D01*
X128147486Y-98109000D01*
X128405405Y-98057696D01*
X128648359Y-97957061D01*
X128867013Y-97810962D01*
X129052962Y-97625013D01*
X129199061Y-97406359D01*
X129299696Y-97163405D01*
X129351000Y-96905486D01*
X129351000Y-96642514D01*
X129299696Y-96384595D01*
X129199061Y-96141641D01*
X129052962Y-95922987D01*
X128867013Y-95737038D01*
X128849240Y-95725163D01*
X128838918Y-95620362D01*
X128791172Y-95462964D01*
X128713636Y-95317905D01*
X128635439Y-95222621D01*
X128635437Y-95222619D01*
X128609291Y-95190760D01*
X128577432Y-95164614D01*
X123275395Y-89862579D01*
X123249240Y-89830709D01*
X123122095Y-89726364D01*
X122977036Y-89648828D01*
X122819638Y-89601082D01*
X122696968Y-89589000D01*
X122696967Y-89589000D01*
X122655949Y-89584960D01*
X122614931Y-89589000D01*
X118378072Y-89589000D01*
X118378072Y-89524000D01*
X118365812Y-89399518D01*
X118329502Y-89279820D01*
X118270537Y-89169506D01*
X118191185Y-89072815D01*
X118094494Y-88993463D01*
X117984180Y-88934498D01*
X117864482Y-88898188D01*
X117740000Y-88885928D01*
X115940000Y-88885928D01*
X115815518Y-88898188D01*
X115695820Y-88934498D01*
X115585506Y-88993463D01*
X115488815Y-89072815D01*
X115409463Y-89169506D01*
X115350498Y-89279820D01*
X115344944Y-89298127D01*
X115278505Y-89231688D01*
X115027095Y-89063701D01*
X114747743Y-88947989D01*
X114451184Y-88889000D01*
X114148816Y-88889000D01*
X113852257Y-88947989D01*
X113572905Y-89063701D01*
X113321495Y-89231688D01*
X113107688Y-89445495D01*
X112939701Y-89696905D01*
X112823989Y-89976257D01*
X112765000Y-90272816D01*
X112699000Y-90272816D01*
X112699000Y-77028835D01*
X119882004Y-71043000D01*
X157203279Y-71043000D01*
X171527000Y-84872802D01*
%TD*%
M02*
