M48
; DRILL file {KiCad (5.1.4)-1} date 17.11.2020 11.02.12
; FORMAT={-:-/ absolute / inch / decimal}
; #@! TF.CreationDate,2020-11-17T11:02:12+02:00
; #@! TF.GenerationSoftware,Kicad,Pcbnew,(5.1.4)-1
; #@! TF.FileFunction,Plated,1,2,PTH
FMAT,2
INCH
T1C0.0276
T2C0.0354
T3C0.0394
%
G90
G05
T1
X3.7323Y-3.4331
X3.7756Y-1.7047
X4.0394Y-1.7992
X4.0472Y-2.8976
X4.1102Y-3.1496
X4.2637Y-2.5225
X4.3287Y-2.8523
X4.4685Y-3.5512
X4.545Y-2.94
X4.5695Y-2.572
X4.5827Y-3.5354
X4.7756Y-2.7402
T2
X3.89Y-2.0866
X3.99Y-2.0866
X4.39Y-2.11
X4.49Y-2.11
X3.66Y-2.3228
X3.76Y-2.3228
X4.115Y-2.4
X4.215Y-2.4
X3.89Y-2.6339
X3.99Y-2.6339
X3.38Y-2.6142
X3.48Y-2.6142
X3.895Y-3.53
X3.995Y-3.53
X3.89Y-2.815
X3.99Y-2.815
X4.085Y-1.555
X4.185Y-1.555
X3.89Y-1.5433
X3.99Y-1.5433
X3.89Y-2.27
X3.99Y-2.27
X3.19Y-2.2402
X3.29Y-2.2402
X4.19Y-1.74
X4.29Y-1.74
X4.35Y-2.4449
X4.45Y-2.4449
X3.485Y-2.7992
X3.585Y-2.7992
X3.89Y-2.9961
X3.99Y-2.9961
X4.29Y-1.925
X4.39Y-1.925
X3.89Y-2.445
X3.99Y-2.445
X3.285Y-2.425
X3.385Y-2.425
X3.895Y-3.3622
X3.995Y-3.3622
X3.685Y-3.1732
X3.785Y-3.1732
X4.05Y-1.315
X4.05Y-1.415
X3.885Y-1.1811
X3.985Y-1.1811
X3.93Y-1.315
X3.93Y-1.415
X3.89Y-1.7244
X3.99Y-1.7244
X4.5Y-2.2992
X4.6Y-2.2992
X3.89Y-1.9055
X3.99Y-1.9055
X4.585Y-2.4843
X4.685Y-2.4843
X3.89Y-3.1811
X3.99Y-3.1811
X3.42Y-2.2795
X3.52Y-2.2795
X3.81Y-3.315
X3.81Y-3.415
X3.59Y-2.9843
X3.69Y-2.9843
T3
X3.48Y-1.355
X3.58Y-1.355
X3.095Y-1.725
X3.195Y-1.725
T0
M30
