M48
; DRILL file {KiCad (5.1.4)-1} date 29.8.2021 9.46.46
; FORMAT={-:-/ absolute / inch / decimal}
; #@! TF.CreationDate,2021-08-29T09:46:46+03:00
; #@! TF.GenerationSoftware,Kicad,Pcbnew,(5.1.4)-1
; #@! TF.FileFunction,Plated,1,2,PTH
FMAT,2
INCH
T1C0.0276
T2C0.0354
T3C0.0394
%
G90
G05
T1
X9.261Y-4.6453
X9.4319Y-5.015
X9.4354Y-4.7307
X9.5528Y-4.5122
X9.611Y-5.7866
X9.6602Y-4.7665
X9.665Y-4.639
X9.6669Y-5.4768
X9.7622Y-5.348
X9.8063Y-5.4953
X9.8079Y-5.7535
X9.8831Y-4.9492
X9.8906Y-5.2823
X9.9953Y-5.8945
X10.0555Y-5.5831
X10.065Y-5.5047
X10.1Y-6.05
X10.1351Y-5.7457
X10.1819Y-5.5102
X10.1953Y-6.0004
X10.248Y-4.5469
X10.2591Y-5.3953
X10.2618Y-6.0543
X10.3299Y-4.4622
X10.3398Y-5.9957
X10.3762Y-6.0518
X10.3835Y-5.5728
X10.3953Y-5.4299
X10.4386Y-4.6866
X10.4961Y-5.7917
X10.6106Y-5.85
X10.6488Y-5.9994
X10.7Y-5.85
X10.8953Y-5.4854
X10.8982Y-5.7378
X10.9768Y-5.8606
T2
X11.1276Y-6.1539
X11.2276Y-6.1539
X9.3083Y-4.5051
X9.4083Y-4.5051
X9.2461Y-4.8539
X9.3461Y-4.8539
X9.5807Y-5.1717
X9.6807Y-5.1717
X11.1244Y-5.6543
X11.2244Y-5.6543
X10.1772Y-4.1264
X10.2772Y-4.1264
X10.4945Y-5.1744
X10.5945Y-5.1744
X9.5705Y-4.8539
X9.6705Y-4.8539
X10.5079Y-4.8551
X10.6079Y-4.8551
X8.9634Y-5.6539
X9.0634Y-5.6539
X10.2031Y-5.1728
X10.3031Y-5.1728
X10.4559Y-4.3024
X10.5559Y-4.3024
X8.963Y-6.1469
X9.063Y-6.1469
X11.1244Y-4.7295
X11.2244Y-4.7295
X9.911Y-4.1248
X10.011Y-4.1248
X9.613Y-6.1425
X9.713Y-6.1425
X10.4681Y-6.1516
X10.5681Y-6.1516
X10.8307Y-5.5878
X10.9307Y-5.5878
X10.839Y-5.2157
X10.939Y-5.2157
X9.6047Y-5.5917
X9.7047Y-5.5917
X9.2413Y-5.2004
X9.3413Y-5.2004
X9.8976Y-4.8606
X9.9976Y-4.8606
X10.4709Y-5.5984
X10.5709Y-5.5984
X8.961Y-5.172
X9.061Y-5.172
X9.8815Y-5.1717
X9.9815Y-5.1717
X11.1244Y-5.1846
X11.2244Y-5.1846
X9.2421Y-5.5862
X9.3421Y-5.5862
X9.6236Y-4.3024
X9.7236Y-4.3024
X10.1874Y-4.8606
X10.2874Y-4.8606
X10.8362Y-4.8539
X10.9362Y-4.8539
X8.9618Y-4.7228
X9.0618Y-4.7228
X10.7949Y-4.5228
X10.8949Y-4.5228
T3
X10.8988Y-6.1512
X10.9988Y-6.1512
T0
M30
