%TF.GenerationSoftware,KiCad,Pcbnew,(5.1.7)-1*%
%TF.CreationDate,2020-11-20T15:05:24+02:00*%
%TF.ProjectId,ymp2,796d7032-2e6b-4696-9361-645f70636258,rev?*%
%TF.SameCoordinates,Original*%
%TF.FileFunction,Soldermask,Top*%
%TF.FilePolarity,Negative*%
%FSLAX46Y46*%
G04 Gerber Fmt 4.6, Leading zero omitted, Abs format (unit mm)*
G04 Created by KiCad (PCBNEW (5.1.7)-1) date 2020-11-20 15:05:24*
%MOMM*%
%LPD*%
G01*
G04 APERTURE LIST*
%ADD10R,1.524000X1.524000*%
%ADD11R,1.750000X0.600000*%
%ADD12R,1.800000X1.800000*%
%ADD13C,1.800000*%
%ADD14R,1.700000X1.700000*%
%ADD15O,1.700000X1.700000*%
G04 APERTURE END LIST*
D10*
%TO.C,P1*%
X120050000Y-123280000D03*
X120050000Y-125820000D03*
X120050000Y-128360000D03*
X120050000Y-130900000D03*
X120050000Y-133440000D03*
X120050000Y-135980000D03*
%TD*%
D11*
%TO.C,IC1*%
X106377000Y-134874000D03*
X106377000Y-133604000D03*
X106377000Y-132334000D03*
X106377000Y-131064000D03*
X106377000Y-129794000D03*
X106377000Y-128524000D03*
X106377000Y-127254000D03*
X106377000Y-125984000D03*
X106377000Y-124714000D03*
X106377000Y-123444000D03*
X116127000Y-123444000D03*
X116127000Y-124714000D03*
X116127000Y-125984000D03*
X116127000Y-127254000D03*
X116127000Y-134874000D03*
X116127000Y-133604000D03*
X116127000Y-132334000D03*
X116127000Y-131064000D03*
X116127000Y-129794000D03*
X116127000Y-128524000D03*
%TD*%
D12*
%TO.C,D9*%
X63630000Y-135640000D03*
D13*
X66170000Y-135640000D03*
%TD*%
%TO.C,D11*%
X66300000Y-138560000D03*
D12*
X63760000Y-138560000D03*
%TD*%
%TO.C,D12*%
X69280000Y-138550000D03*
D13*
X71820000Y-138550000D03*
%TD*%
%TO.C,D13*%
X77210000Y-138550000D03*
D12*
X74670000Y-138550000D03*
%TD*%
D13*
%TO.C,D16*%
X88560000Y-137320000D03*
D12*
X88560000Y-139860000D03*
%TD*%
%TO.C,D7*%
X73280000Y-130040000D03*
D13*
X75820000Y-130040000D03*
%TD*%
%TO.C,D6*%
X80770000Y-127000000D03*
D12*
X78230000Y-127000000D03*
%TD*%
D13*
%TO.C,D1*%
X83820000Y-138560000D03*
D12*
X81280000Y-138560000D03*
%TD*%
%TO.C,D3*%
X89920000Y-133220000D03*
D13*
X92460000Y-133220000D03*
%TD*%
%TO.C,D4*%
X89020000Y-128530000D03*
D12*
X86480000Y-128530000D03*
%TD*%
%TO.C,D2*%
X93340000Y-138550000D03*
D13*
X95880000Y-138550000D03*
%TD*%
D12*
%TO.C,D5*%
X83190000Y-124080000D03*
D13*
X85730000Y-124080000D03*
%TD*%
D12*
%TO.C,D29*%
X103750000Y-144280000D03*
D13*
X106290000Y-144280000D03*
%TD*%
D12*
%TO.C,D14*%
X78230000Y-134510000D03*
D13*
X80770000Y-134510000D03*
%TD*%
D14*
%TO.C,P2*%
X114590000Y-153400000D03*
D15*
X117130000Y-153400000D03*
%TD*%
%TO.C,C1*%
G36*
G01*
X113834999Y-139475000D02*
X115685001Y-139475000D01*
G75*
G02*
X115935000Y-139724999I0J-249999D01*
G01*
X115935000Y-141475001D01*
G75*
G02*
X115685001Y-141725000I-249999J0D01*
G01*
X113834999Y-141725000D01*
G75*
G02*
X113585000Y-141475001I0J249999D01*
G01*
X113585000Y-139724999D01*
G75*
G02*
X113834999Y-139475000I249999J0D01*
G01*
G37*
G36*
G01*
X113834999Y-144575000D02*
X115685001Y-144575000D01*
G75*
G02*
X115935000Y-144824999I0J-249999D01*
G01*
X115935000Y-146575001D01*
G75*
G02*
X115685001Y-146825000I-249999J0D01*
G01*
X113834999Y-146825000D01*
G75*
G02*
X113585000Y-146575001I0J249999D01*
G01*
X113585000Y-144824999D01*
G75*
G02*
X113834999Y-144575000I249999J0D01*
G01*
G37*
%TD*%
%TO.C,F1*%
G36*
G01*
X117270000Y-148709999D02*
X117270000Y-149610001D01*
G75*
G02*
X117020001Y-149860000I-249999J0D01*
G01*
X116319999Y-149860000D01*
G75*
G02*
X116070000Y-149610001I0J249999D01*
G01*
X116070000Y-148709999D01*
G75*
G02*
X116319999Y-148460000I249999J0D01*
G01*
X117020001Y-148460000D01*
G75*
G02*
X117270000Y-148709999I0J-249999D01*
G01*
G37*
G36*
G01*
X115270000Y-148709999D02*
X115270000Y-149610001D01*
G75*
G02*
X115020001Y-149860000I-249999J0D01*
G01*
X114319999Y-149860000D01*
G75*
G02*
X114070000Y-149610001I0J249999D01*
G01*
X114070000Y-148709999D01*
G75*
G02*
X114319999Y-148460000I249999J0D01*
G01*
X115020001Y-148460000D01*
G75*
G02*
X115270000Y-148709999I0J-249999D01*
G01*
G37*
%TD*%
%TO.C,R1*%
G36*
G01*
X96440000Y-126695000D02*
X96440000Y-128845000D01*
G75*
G02*
X96190000Y-129095000I-250000J0D01*
G01*
X95390000Y-129095000D01*
G75*
G02*
X95140000Y-128845000I0J250000D01*
G01*
X95140000Y-126695000D01*
G75*
G02*
X95390000Y-126445000I250000J0D01*
G01*
X96190000Y-126445000D01*
G75*
G02*
X96440000Y-126695000I0J-250000D01*
G01*
G37*
G36*
G01*
X93340000Y-126695000D02*
X93340000Y-128845000D01*
G75*
G02*
X93090000Y-129095000I-250000J0D01*
G01*
X92290000Y-129095000D01*
G75*
G02*
X92040000Y-128845000I0J250000D01*
G01*
X92040000Y-126695000D01*
G75*
G02*
X92290000Y-126445000I250000J0D01*
G01*
X93090000Y-126445000D01*
G75*
G02*
X93340000Y-126695000I0J-250000D01*
G01*
G37*
%TD*%
%TO.C,R2*%
G36*
G01*
X69650000Y-122735000D02*
X69650000Y-124885000D01*
G75*
G02*
X69400000Y-125135000I-250000J0D01*
G01*
X68600000Y-125135000D01*
G75*
G02*
X68350000Y-124885000I0J250000D01*
G01*
X68350000Y-122735000D01*
G75*
G02*
X68600000Y-122485000I250000J0D01*
G01*
X69400000Y-122485000D01*
G75*
G02*
X69650000Y-122735000I0J-250000D01*
G01*
G37*
G36*
G01*
X72750000Y-122735000D02*
X72750000Y-124885000D01*
G75*
G02*
X72500000Y-125135000I-250000J0D01*
G01*
X71700000Y-125135000D01*
G75*
G02*
X71450000Y-124885000I0J250000D01*
G01*
X71450000Y-122735000D01*
G75*
G02*
X71700000Y-122485000I250000J0D01*
G01*
X72500000Y-122485000D01*
G75*
G02*
X72750000Y-122735000I0J-250000D01*
G01*
G37*
%TD*%
%TO.C,R3*%
G36*
G01*
X62455000Y-151200000D02*
X60305000Y-151200000D01*
G75*
G02*
X60055000Y-150950000I0J250000D01*
G01*
X60055000Y-150150000D01*
G75*
G02*
X60305000Y-149900000I250000J0D01*
G01*
X62455000Y-149900000D01*
G75*
G02*
X62705000Y-150150000I0J-250000D01*
G01*
X62705000Y-150950000D01*
G75*
G02*
X62455000Y-151200000I-250000J0D01*
G01*
G37*
G36*
G01*
X62455000Y-148100000D02*
X60305000Y-148100000D01*
G75*
G02*
X60055000Y-147850000I0J250000D01*
G01*
X60055000Y-147050000D01*
G75*
G02*
X60305000Y-146800000I250000J0D01*
G01*
X62455000Y-146800000D01*
G75*
G02*
X62705000Y-147050000I0J-250000D01*
G01*
X62705000Y-147850000D01*
G75*
G02*
X62455000Y-148100000I-250000J0D01*
G01*
G37*
%TD*%
%TO.C,R4*%
G36*
G01*
X101780000Y-151085000D02*
X101780000Y-153235000D01*
G75*
G02*
X101530000Y-153485000I-250000J0D01*
G01*
X100730000Y-153485000D01*
G75*
G02*
X100480000Y-153235000I0J250000D01*
G01*
X100480000Y-151085000D01*
G75*
G02*
X100730000Y-150835000I250000J0D01*
G01*
X101530000Y-150835000D01*
G75*
G02*
X101780000Y-151085000I0J-250000D01*
G01*
G37*
G36*
G01*
X104880000Y-151085000D02*
X104880000Y-153235000D01*
G75*
G02*
X104630000Y-153485000I-250000J0D01*
G01*
X103830000Y-153485000D01*
G75*
G02*
X103580000Y-153235000I0J250000D01*
G01*
X103580000Y-151085000D01*
G75*
G02*
X103830000Y-150835000I250000J0D01*
G01*
X104630000Y-150835000D01*
G75*
G02*
X104880000Y-151085000I0J-250000D01*
G01*
G37*
%TD*%
D14*
%TO.C,P3*%
X119980000Y-145680000D03*
D15*
X119980000Y-143140000D03*
%TD*%
D12*
%TO.C,D15*%
X84310000Y-134600000D03*
D13*
X86850000Y-134600000D03*
%TD*%
%TO.C,D17*%
X88650000Y-143060000D03*
D12*
X88650000Y-145600000D03*
%TD*%
%TO.C,D18*%
X84310000Y-148340000D03*
D13*
X86850000Y-148340000D03*
%TD*%
D12*
%TO.C,D19*%
X78100000Y-148350000D03*
D13*
X80640000Y-148350000D03*
%TD*%
D12*
%TO.C,D20*%
X74930000Y-144280000D03*
D13*
X77470000Y-144280000D03*
%TD*%
%TO.C,D21*%
X71750000Y-144270000D03*
D12*
X69210000Y-144270000D03*
%TD*%
D13*
%TO.C,D22*%
X75180000Y-149580000D03*
D12*
X72640000Y-149580000D03*
%TD*%
%TO.C,D23*%
X76080000Y-154310000D03*
D13*
X78620000Y-154310000D03*
%TD*%
%TO.C,D24*%
X81910000Y-158760000D03*
D12*
X79370000Y-158760000D03*
%TD*%
D13*
%TO.C,D25*%
X86870000Y-155830000D03*
D12*
X84330000Y-155830000D03*
%TD*%
%TO.C,D26*%
X89280000Y-152780000D03*
D13*
X91820000Y-152780000D03*
%TD*%
D12*
%TO.C,D27*%
X94250000Y-149990000D03*
D13*
X96790000Y-149990000D03*
%TD*%
%TO.C,D30*%
X101350000Y-144280000D03*
D12*
X98810000Y-144280000D03*
%TD*%
D13*
%TO.C,D32*%
X83820000Y-144280000D03*
D12*
X81280000Y-144280000D03*
%TD*%
%TO.C,D31*%
X94560000Y-145550000D03*
D13*
X94560000Y-143010000D03*
%TD*%
%TO.C,D8*%
X70870000Y-132850000D03*
D12*
X68330000Y-132850000D03*
%TD*%
%TO.C,D10*%
X58800000Y-138560000D03*
D13*
X61340000Y-138560000D03*
%TD*%
D12*
%TO.C,D28*%
X98980000Y-147360000D03*
D13*
X101520000Y-147360000D03*
%TD*%
M02*
