<?xml version="1.0" standalone="no"?>
 <!DOCTYPE svg PUBLIC "-//W3C//DTD SVG 1.1//EN" 
 "http://www.w3.org/Graphics/SVG/1.1/DTD/svg11.dtd"> 
<svg xmlns="http://www.w3.org/2000/svg" version="1.1" 
    width="4.8895cm" height="7.6581cm" viewBox="0 0 19250 30150 ">
<title>SVG Picture created as otit-B_SilkS.svg date 2020/01/31 17:36:37 </title>
  <desc>Picture generated by PCBNEW </desc>
<g style="fill:#000000; fill-opacity:1;stroke:#000000; stroke-opacity:1;
stroke-linecap:round; stroke-linejoin:round; "
 transform="translate(0 0) scale(1 1)">
</g>
<g style="fill:#000000; fill-opacity:0.0; 
stroke:#000000; stroke-width:-0.000393701; stroke-opacity:1; 
stroke-linecap:round; stroke-linejoin:round;">
</g>
<g style="fill:#840084; fill-opacity:0.0; 
stroke:#840084; stroke-width:-0.000393701; stroke-opacity:1; 
stroke-linecap:round; stroke-linejoin:round;">
</g>
<g style="fill:#840084; fill-opacity:0.0; 
stroke:#840084; stroke-width:50; stroke-opacity:1; 
stroke-linecap:round; stroke-linejoin:round;">
<path d="M4440 11546
L7340 11546
" />
<path d="M7340 6546
L4440 6546
" />
<path d="M4440 11546
L4440 6546
" />
<path d="M7340 6546
L7340 11546
" />
<path d="M6140 6546
L6140 7046
" />
<path d="M6140 7046
L5640 7046
" />
<path d="M5640 7046
L5640 6546
" />
<path d="M2425 19822
L2425 20722
" />
<path d="M2425 20722
L3075 20722
" />
<path d="M3775 19822
L4425 19822
" />
<path d="M4425 19822
L4425 20722
" />
<path d="M4425 20722
L3775 20722
" />
<path d="M3075 19822
L2425 19822
" />
<path d="M2601 21120
L2601 22020
" />
<path d="M2601 22020
L3251 22020
" />
<path d="M3951 21120
L4601 21120
" />
<path d="M4601 21120
L4601 22020
" />
<path d="M4601 22020
L3951 22020
" />
<path d="M3251 21120
L2601 21120
" />
<path d="M4121 2993
L4121 3893
" />
<path d="M4121 3893
L4771 3893
" />
<path d="M5471 2993
L6121 2993
" />
<path d="M6121 2993
L6121 3893
" />
<path d="M6121 3893
L5471 3893
" />
<path d="M4771 2993
L4121 2993
" />
<path d="M2677 799
L2677 1699
" />
<path d="M2677 1699
L3327 1699
" />
<path d="M4027 799
L4677 799
" />
<path d="M4677 799
L4677 1699
" />
<path d="M4677 1699
L4027 1699
" />
<path d="M3327 799
L2677 799
" />
</g>
<g style="fill:#840084; fill-opacity:0.0; 
stroke:#840084; stroke-width:40; stroke-opacity:1; 
stroke-linecap:round; stroke-linejoin:round;">
<circle cx="16246.4" cy="10255" r="670.82" /> 
<path d="M17346 9055
L15046 9055
" />
<path d="M15046 9055
L15046 11455
" />
<path d="M15046 11455
L17346 11455
" />
<path d="M17346 11455
L17346 9055
" />
</g>
<g style="fill:#840084; fill-opacity:0.0; 
stroke:#840084; stroke-width:100; stroke-opacity:1; 
stroke-linecap:round; stroke-linejoin:round;">
<path d="M8904 18614
L8904 19614
" />
</g>
<g style="fill:#840084; fill-opacity:0.0; 
stroke:#840084; stroke-width:60; stroke-opacity:1; 
stroke-linecap:round; stroke-linejoin:round;">
<path d="M9984.99 19498.2 A600 600 0.0 0 0 10124 19114.2 " />
<path d="M10123.3 19114 A599.256 599.256 0.0 0 0 9972.02 18716.2 " />
<path d="M8924.74 19114.2 A599.27 599.27 0.0 0 0 9069.02 19504.2 " />
<path d="M9063.05 18730.1 A600 600 0.0 0 0 8924.02 19114.2 " />
<path d="M9036.15 19463.4 A600 600 0.0 0 0 9524.02 19714.2 " />
<path d="M9524.33 19714.2 A600 600 0.0 0 0 10004 19474.2 " />
<path d="M9523.84 18514.9 A599.294 599.294 0.0 0 0 9051.02 18746.2 " />
<path d="M9997.47 18745.6 A600 600 0.0 0 0 9524.02 18514.2 " />
<path d="M9524.02 19364.2 A250 250 0.0 0 0 9774.02 19114.2 " />
<path d="M9524.02 19514.2 A400 400 0.0 0 0 9924.02 19114.2 " />
<path d="M9524.02 18864.2 A250 250 0.0 0 0 9274.02 19114.2 " />
<path d="M9524.02 18714.2 A400 400 0.0 0 0 9124.02 19114.2 " />
</g>
<g style="fill:#840084; fill-opacity:0.0; 
stroke:#840084; stroke-width:100; stroke-opacity:1; 
stroke-linecap:round; stroke-linejoin:round;">
<path d="M8910.28 19627.3 A800 800 0.0 0 0 9524.02 19914.2 " />
<path d="M9524.4 19913.2 A799 799 0.0 0 0 10229 19490.2 " />
<path d="M9523.01 18315.2 A798.972 798.972 0.0 0 0 8914.02 18598.2 " />
<path d="M10218.2 18716.6 A800 800 0.0 0 0 9524.02 18314.2 " />
<path d="M10228.4 19493.4 A800 800 0.0 0 0 10324 19114.2 " />
<path d="M10323.6 19114.1 A799.576 799.576 0.0 0 0 10205 18695.2 " />
<path d="M6226 1606
L6226 2606
" />
</g>
<g style="fill:#840084; fill-opacity:0.0; 
stroke:#840084; stroke-width:60; stroke-opacity:1; 
stroke-linecap:round; stroke-linejoin:round;">
<path d="M7307.82 2490.37 A600 600 0.0 0 0 7446.85 2106.3 " />
<path d="M7446.11 2106.11 A599.256 599.256 0.0 0 0 7294.85 1708.3 " />
<path d="M6247.58 2106.31 A599.27 599.27 0.0 0 0 6391.85 2496.3 " />
<path d="M6385.88 1722.23 A600 600 0.0 0 0 6246.85 2106.3 " />
<path d="M6358.99 2455.57 A600 600 0.0 0 0 6846.85 2706.3 " />
<path d="M6847.17 2706.3 A600 600 0.0 0 0 7326.85 2466.3 " />
<path d="M6846.68 1507.01 A599.294 599.294 0.0 0 0 6373.85 1738.3 " />
<path d="M7320.3 1737.73 A600 600 0.0 0 0 6846.85 1506.3 " />
<path d="M6846.85 2356.3 A250 250 0.0 0 0 7096.85 2106.3 " />
<path d="M6846.85 2506.3 A400 400 0.0 0 0 7246.85 2106.3 " />
<path d="M6846.85 1856.3 A250 250 0.0 0 0 6596.85 2106.3 " />
<path d="M6846.85 1706.3 A400 400 0.0 0 0 6446.85 2106.3 " />
</g>
<g style="fill:#840084; fill-opacity:0.0; 
stroke:#840084; stroke-width:100; stroke-opacity:1; 
stroke-linecap:round; stroke-linejoin:round;">
<path d="M6233.12 2619.46 A800 800 0.0 0 0 6846.85 2906.3 " />
<path d="M6847.23 2905.3 A799 799 0.0 0 0 7551.85 2482.3 " />
<path d="M6845.85 1307.33 A798.972 798.972 0.0 0 0 6236.85 1590.3 " />
<path d="M7541.06 1708.72 A800 800 0.0 0 0 6846.85 1306.3 " />
<path d="M7551.23 2485.57 A800 800 0.0 0 0 7646.85 2106.3 " />
<path d="M7646.43 2106.26 A799.576 799.576 0.0 0 0 7527.85 1687.3 " />
<path d="M2053 15953
L1053 15953
" />
</g>
<g style="fill:#840084; fill-opacity:0.0; 
stroke:#840084; stroke-width:60; stroke-opacity:1; 
stroke-linecap:round; stroke-linejoin:round;">
<path d="M1169.08 17034.2 A600 600 0.0 0 0 1553.15 17173.2 " />
<path d="M1553.33 17172.5 A599.256 599.256 0.0 0 0 1951.15 17021.2 " />
<path d="M1553.14 15974 A599.27 599.27 0.0 0 0 1163.15 16118.2 " />
<path d="M1937.22 16112.3 A600 600 0.0 0 0 1553.15 15973.2 " />
<path d="M1203.88 16085.4 A600 600 0.0 0 0 953.149 16573.2 " />
<path d="M953.149 16573.5 A600 600 0.0 0 0 1193.15 17053.2 " />
<path d="M2152.44 16573.1 A599.294 599.294 0.0 0 0 1921.15 16100.2 " />
<path d="M1921.72 17046.7 A600 600 0.0 0 0 2153.15 16573.2 " />
<path d="M1303.15 16573.2 A250 250 0.0 0 0 1553.15 16823.2 " />
<path d="M1153.15 16573.2 A400 400 0.0 0 0 1553.15 16973.2 " />
<path d="M1803.15 16573.2 A250 250 0.0 0 0 1553.15 16323.2 " />
<path d="M1953.15 16573.2 A400 400 0.0 0 0 1553.15 16173.2 " />
</g>
<g style="fill:#840084; fill-opacity:0.0; 
stroke:#840084; stroke-width:100; stroke-opacity:1; 
stroke-linecap:round; stroke-linejoin:round;">
<path d="M1039.99 15959.5 A800 800 0.0 0 0 753.149 16573.2 " />
<path d="M754.149 16573.6 A799 799 0.0 0 0 1177.15 17278.2 " />
<path d="M2352.12 16572.2 A798.972 798.972 0.0 0 0 2069.15 15963.2 " />
<path d="M1950.73 17267.4 A800 800 0.0 0 0 2353.15 16573.2 " />
<path d="M1173.88 17277.6 A800 800 0.0 0 0 1553.15 17373.2 " />
<path d="M1553.19 17372.8 A799.576 799.576 0.0 0 0 1972.15 17254.2 " />
<path d="M4769 15953
L3769 15953
" />
</g>
<g style="fill:#840084; fill-opacity:0.0; 
stroke:#840084; stroke-width:60; stroke-opacity:1; 
stroke-linecap:round; stroke-linejoin:round;">
<path d="M3885.62 17034.2 A600 600 0.0 0 0 4269.68 17173.2 " />
<path d="M4269.87 17172.5 A599.256 599.256 0.0 0 0 4667.68 17021.2 " />
<path d="M4269.67 15974 A599.27 599.27 0.0 0 0 3879.68 16118.2 " />
<path d="M4653.75 16112.3 A600 600 0.0 0 0 4269.68 15973.2 " />
<path d="M3920.41 16085.4 A600 600 0.0 0 0 3669.68 16573.2 " />
<path d="M3669.68 16573.5 A600 600 0.0 0 0 3909.68 17053.2 " />
<path d="M4868.98 16573.1 A599.294 599.294 0.0 0 0 4637.68 16100.2 " />
<path d="M4638.26 17046.7 A600 600 0.0 0 0 4869.68 16573.2 " />
<path d="M4019.68 16573.2 A250 250 0.0 0 0 4269.68 16823.2 " />
<path d="M3869.68 16573.2 A400 400 0.0 0 0 4269.68 16973.2 " />
<path d="M4519.68 16573.2 A250 250 0.0 0 0 4269.68 16323.2 " />
<path d="M4669.68 16573.2 A400 400 0.0 0 0 4269.68 16173.2 " />
</g>
<g style="fill:#840084; fill-opacity:0.0; 
stroke:#840084; stroke-width:100; stroke-opacity:1; 
stroke-linecap:round; stroke-linejoin:round;">
<path d="M3756.52 15959.5 A800 800 0.0 0 0 3469.68 16573.2 " />
<path d="M3470.68 16573.6 A799 799 0.0 0 0 3893.68 17278.2 " />
<path d="M5068.66 16572.2 A798.972 798.972 0.0 0 0 4785.68 15963.2 " />
<path d="M4667.26 17267.4 A800 800 0.0 0 0 5069.68 16573.2 " />
<path d="M3890.41 17277.6 A800 800 0.0 0 0 4269.68 17373.2 " />
<path d="M4269.72 17372.8 A799.576 799.576 0.0 0 0 4688.68 17254.2 " />
<path d="M15517 15953
L14517 15953
" />
</g>
<g style="fill:#840084; fill-opacity:0.0; 
stroke:#840084; stroke-width:60; stroke-opacity:1; 
stroke-linecap:round; stroke-linejoin:round;">
<path d="M14633.7 17034.2 A600 600 0.0 0 0 15017.7 17173.2 " />
<path d="M15017.9 17172.5 A599.256 599.256 0.0 0 0 15415.7 17021.2 " />
<path d="M15017.7 15974 A599.27 599.27 0.0 0 0 14627.7 16118.2 " />
<path d="M15401.8 16112.3 A600 600 0.0 0 0 15017.7 15973.2 " />
<path d="M14668.4 16085.4 A600 600 0.0 0 0 14417.7 16573.2 " />
<path d="M14417.7 16573.5 A600 600 0.0 0 0 14657.7 17053.2 " />
<path d="M15617 16573.1 A599.294 599.294 0.0 0 0 15385.7 16100.2 " />
<path d="M15386.3 17046.7 A600 600 0.0 0 0 15617.7 16573.2 " />
<path d="M14767.7 16573.2 A250 250 0.0 0 0 15017.7 16823.2 " />
<path d="M14617.7 16573.2 A400 400 0.0 0 0 15017.7 16973.2 " />
<path d="M15267.7 16573.2 A250 250 0.0 0 0 15017.7 16323.2 " />
<path d="M15417.7 16573.2 A400 400 0.0 0 0 15017.7 16173.2 " />
</g>
<g style="fill:#840084; fill-opacity:0.0; 
stroke:#840084; stroke-width:100; stroke-opacity:1; 
stroke-linecap:round; stroke-linejoin:round;">
<path d="M14504.6 15959.5 A800 800 0.0 0 0 14217.7 16573.2 " />
<path d="M14218.7 16573.6 A799 799 0.0 0 0 14641.7 17278.2 " />
<path d="M15816.7 16572.2 A798.972 798.972 0.0 0 0 15533.7 15963.2 " />
<path d="M15415.3 17267.4 A800 800 0.0 0 0 15817.7 16573.2 " />
<path d="M14638.4 17277.6 A800 800 0.0 0 0 15017.7 17373.2 " />
<path d="M15017.8 17372.8 A799.576 799.576 0.0 0 0 15436.7 17254.2 " />
<path d="M18194 15953
L17194 15953
" />
</g>
<g style="fill:#840084; fill-opacity:0.0; 
stroke:#840084; stroke-width:60; stroke-opacity:1; 
stroke-linecap:round; stroke-linejoin:round;">
<path d="M17310.8 17034.2 A600 600 0.0 0 0 17694.9 17173.2 " />
<path d="M17695.1 17172.5 A599.256 599.256 0.0 0 0 18092.9 17021.2 " />
<path d="M17694.9 15974 A599.27 599.27 0.0 0 0 17304.9 16118.2 " />
<path d="M18078.9 16112.3 A600 600 0.0 0 0 17694.9 15973.2 " />
<path d="M17345.6 16085.4 A600 600 0.0 0 0 17094.9 16573.2 " />
<path d="M17094.9 16573.5 A600 600 0.0 0 0 17334.9 17053.2 " />
<path d="M18294.2 16573.1 A599.294 599.294 0.0 0 0 18062.9 16100.2 " />
<path d="M18063.5 17046.7 A600 600 0.0 0 0 18294.9 16573.2 " />
<path d="M17444.9 16573.2 A250 250 0.0 0 0 17694.9 16823.2 " />
<path d="M17294.9 16573.2 A400 400 0.0 0 0 17694.9 16973.2 " />
<path d="M17944.9 16573.2 A250 250 0.0 0 0 17694.9 16323.2 " />
<path d="M18094.9 16573.2 A400 400 0.0 0 0 17694.9 16173.2 " />
</g>
<g style="fill:#840084; fill-opacity:0.0; 
stroke:#840084; stroke-width:100; stroke-opacity:1; 
stroke-linecap:round; stroke-linejoin:round;">
<path d="M17181.7 15959.5 A800 800 0.0 0 0 16894.9 16573.2 " />
<path d="M16895.9 16573.6 A799 799 0.0 0 0 17318.9 17278.2 " />
<path d="M18493.9 16572.2 A798.972 798.972 0.0 0 0 18210.9 15963.2 " />
<path d="M18092.5 17267.4 A800 800 0.0 0 0 18494.9 16573.2 " />
<path d="M17315.6 17277.6 A800 800 0.0 0 0 17694.9 17373.2 " />
<path d="M17694.9 17372.8 A799.576 799.576 0.0 0 0 18113.9 17254.2 " />
<path d="M8431 23630
L7431 23630
" />
</g>
<g style="fill:#840084; fill-opacity:0.0; 
stroke:#840084; stroke-width:60; stroke-opacity:1; 
stroke-linecap:round; stroke-linejoin:round;">
<path d="M7547.04 24711.4 A600 600 0.0 0 0 7931.1 24850.4 " />
<path d="M7931.29 24849.7 A599.256 599.256 0.0 0 0 8329.1 24698.4 " />
<path d="M7931.09 23651.1 A599.27 599.27 0.0 0 0 7541.1 23795.4 " />
<path d="M8315.17 23789.4 A600 600 0.0 0 0 7931.1 23650.4 " />
<path d="M7581.83 23762.5 A600 600 0.0 0 0 7331.1 24250.4 " />
<path d="M7331.1 24250.7 A600 600 0.0 0 0 7571.1 24730.4 " />
<path d="M8530.4 24250.2 A599.294 599.294 0.0 0 0 8299.1 23777.4 " />
<path d="M8299.67 24723.8 A600 600 0.0 0 0 8531.1 24250.4 " />
<path d="M7681.1 24250.4 A250 250 0.0 0 0 7931.1 24500.4 " />
<path d="M7531.1 24250.4 A400 400 0.0 0 0 7931.1 24650.4 " />
<path d="M8181.1 24250.4 A250 250 0.0 0 0 7931.1 24000.4 " />
<path d="M8331.1 24250.4 A400 400 0.0 0 0 7931.1 23850.4 " />
</g>
<g style="fill:#840084; fill-opacity:0.0; 
stroke:#840084; stroke-width:100; stroke-opacity:1; 
stroke-linecap:round; stroke-linejoin:round;">
<path d="M7417.94 23636.7 A800 800 0.0 0 0 7131.1 24250.4 " />
<path d="M7132.1 24250.8 A799 799 0.0 0 0 7555.1 24955.4 " />
<path d="M8730.07 24249.4 A798.972 798.972 0.0 0 0 8447.1 23640.4 " />
<path d="M8328.68 24944.6 A800 800 0.0 0 0 8731.1 24250.4 " />
<path d="M7551.83 24954.8 A800 800 0.0 0 0 7931.1 25050.4 " />
<path d="M7931.14 25050 A799.576 799.576 0.0 0 0 8350.1 24931.4 " />
<path d="M8904 28299
L8904 29299
" />
</g>
<g style="fill:#840084; fill-opacity:0.0; 
stroke:#840084; stroke-width:60; stroke-opacity:1; 
stroke-linecap:round; stroke-linejoin:round;">
<path d="M9984.99 29183.3 A600 600 0.0 0 0 10124 28799.2 " />
<path d="M10123.3 28799 A599.256 599.256 0.0 0 0 9972.02 28401.2 " />
<path d="M8924.74 28799.2 A599.27 599.27 0.0 0 0 9069.02 29189.2 " />
<path d="M9063.05 28415.1 A600 600 0.0 0 0 8924.02 28799.2 " />
<path d="M9036.15 29148.5 A600 600 0.0 0 0 9524.02 29399.2 " />
<path d="M9524.33 29399.2 A600 600 0.0 0 0 10004 29159.2 " />
<path d="M9523.84 28199.9 A599.294 599.294 0.0 0 0 9051.02 28431.2 " />
<path d="M9997.47 28430.6 A600 600 0.0 0 0 9524.02 28199.2 " />
<path d="M9524.02 29049.2 A250 250 0.0 0 0 9774.02 28799.2 " />
<path d="M9524.02 29199.2 A400 400 0.0 0 0 9924.02 28799.2 " />
<path d="M9524.02 28549.2 A250 250 0.0 0 0 9274.02 28799.2 " />
<path d="M9524.02 28399.2 A400 400 0.0 0 0 9124.02 28799.2 " />
</g>
<g style="fill:#840084; fill-opacity:0.0; 
stroke:#840084; stroke-width:100; stroke-opacity:1; 
stroke-linecap:round; stroke-linejoin:round;">
<path d="M8910.28 29312.4 A800 800 0.0 0 0 9524.02 29599.2 " />
<path d="M9524.4 29598.2 A799 799 0.0 0 0 10229 29175.2 " />
<path d="M9523.01 28000.2 A798.972 798.972 0.0 0 0 8914.02 28283.2 " />
<path d="M10218.2 28401.6 A800 800 0.0 0 0 9524.02 27999.2 " />
<path d="M10228.4 29178.5 A800 800 0.0 0 0 10324 28799.2 " />
<path d="M10323.6 28799.2 A799.576 799.576 0.0 0 0 10205 28380.2 " />
<path d="M8904 25897
L8904 26897
" />
</g>
<g style="fill:#840084; fill-opacity:0.0; 
stroke:#840084; stroke-width:60; stroke-opacity:1; 
stroke-linecap:round; stroke-linejoin:round;">
<path d="M9984.99 26781.7 A600 600 0.0 0 0 10124 26397.6 " />
<path d="M10123.3 26397.5 A599.256 599.256 0.0 0 0 9972.02 25999.6 " />
<path d="M8924.74 26397.7 A599.27 599.27 0.0 0 0 9069.02 26787.6 " />
<path d="M9063.05 26013.6 A600 600 0.0 0 0 8924.02 26397.6 " />
<path d="M9036.15 26746.9 A600 600 0.0 0 0 9524.02 26997.6 " />
<path d="M9524.33 26997.6 A600 600 0.0 0 0 10004 26757.6 " />
<path d="M9523.84 25798.3 A599.294 599.294 0.0 0 0 9051.02 26029.6 " />
<path d="M9997.47 26029.1 A600 600 0.0 0 0 9524.02 25797.6 " />
<path d="M9524.02 26647.6 A250 250 0.0 0 0 9774.02 26397.6 " />
<path d="M9524.02 26797.6 A400 400 0.0 0 0 9924.02 26397.6 " />
<path d="M9524.02 26147.6 A250 250 0.0 0 0 9274.02 26397.6 " />
<path d="M9524.02 25997.6 A400 400 0.0 0 0 9124.02 26397.6 " />
</g>
<g style="fill:#840084; fill-opacity:0.0; 
stroke:#840084; stroke-width:100; stroke-opacity:1; 
stroke-linecap:round; stroke-linejoin:round;">
<path d="M8910.28 26910.8 A800 800 0.0 0 0 9524.02 27197.6 " />
<path d="M9524.4 27196.6 A799 799 0.0 0 0 10229 26773.6 " />
<path d="M9523.01 25598.7 A798.972 798.972 0.0 0 0 8914.02 25881.6 " />
<path d="M10218.2 26000.1 A800 800 0.0 0 0 9524.02 25597.6 " />
<path d="M10228.4 26776.9 A800 800 0.0 0 0 10324 26397.6 " />
<path d="M10323.6 26397.6 A799.576 799.576 0.0 0 0 10205 25978.6 " />
<path d="M4139 17685
L3139 17685
" />
</g>
<g style="fill:#840084; fill-opacity:0.0; 
stroke:#840084; stroke-width:60; stroke-opacity:1; 
stroke-linecap:round; stroke-linejoin:round;">
<path d="M3255.7 18766.5 A600 600 0.0 0 0 3639.76 18905.5 " />
<path d="M3639.95 18904.8 A599.256 599.256 0.0 0 0 4037.76 18753.5 " />
<path d="M3639.75 17706.2 A599.27 599.27 0.0 0 0 3249.76 17850.5 " />
<path d="M4023.83 17844.5 A600 600 0.0 0 0 3639.76 17705.5 " />
<path d="M3290.49 17817.7 A600 600 0.0 0 0 3039.76 18305.5 " />
<path d="M3039.76 18305.8 A600 600 0.0 0 0 3279.76 18785.5 " />
<path d="M4239.06 18305.3 A599.294 599.294 0.0 0 0 4007.76 17832.5 " />
<path d="M4008.33 18779 A600 600 0.0 0 0 4239.76 18305.5 " />
<path d="M3389.76 18305.5 A250 250 0.0 0 0 3639.76 18555.5 " />
<path d="M3239.76 18305.5 A400 400 0.0 0 0 3639.76 18705.5 " />
<path d="M3889.76 18305.5 A250 250 0.0 0 0 3639.76 18055.5 " />
<path d="M4039.76 18305.5 A400 400 0.0 0 0 3639.76 17905.5 " />
</g>
<g style="fill:#840084; fill-opacity:0.0; 
stroke:#840084; stroke-width:100; stroke-opacity:1; 
stroke-linecap:round; stroke-linejoin:round;">
<path d="M3126.6 17691.8 A800 800 0.0 0 0 2839.76 18305.5 " />
<path d="M2840.76 18305.9 A799 799 0.0 0 0 3263.76 19010.5 " />
<path d="M4438.73 18304.5 A798.972 798.972 0.0 0 0 4155.76 17695.5 " />
<path d="M4037.34 18999.7 A800 800 0.0 0 0 4439.76 18305.5 " />
<path d="M3260.49 19009.9 A800 800 0.0 0 0 3639.76 19105.5 " />
<path d="M3639.8 19105.1 A799.576 799.576 0.0 0 0 4058.76 18986.5 " />
<path d="M6265 18984
L5265 18984
" />
</g>
<g style="fill:#840084; fill-opacity:0.0; 
stroke:#840084; stroke-width:60; stroke-opacity:1; 
stroke-linecap:round; stroke-linejoin:round;">
<path d="M5381.68 20065.7 A600 600 0.0 0 0 5765.75 20204.7 " />
<path d="M5765.93 20204 A599.256 599.256 0.0 0 0 6163.75 20052.7 " />
<path d="M5765.73 19005.5 A599.27 599.27 0.0 0 0 5375.75 19149.7 " />
<path d="M6149.81 19143.8 A600 600 0.0 0 0 5765.75 19004.7 " />
<path d="M5416.47 19116.9 A600 600 0.0 0 0 5165.75 19604.7 " />
<path d="M5165.75 19605 A600 600 0.0 0 0 5405.75 20084.7 " />
<path d="M6365.04 19604.6 A599.294 599.294 0.0 0 0 6133.75 19131.7 " />
<path d="M6134.32 20078.2 A600 600 0.0 0 0 6365.75 19604.7 " />
<path d="M5515.75 19604.7 A250 250 0.0 0 0 5765.75 19854.7 " />
<path d="M5365.75 19604.7 A400 400 0.0 0 0 5765.75 20004.7 " />
<path d="M6015.75 19604.7 A250 250 0.0 0 0 5765.75 19354.7 " />
<path d="M6165.75 19604.7 A400 400 0.0 0 0 5765.75 19204.7 " />
</g>
<g style="fill:#840084; fill-opacity:0.0; 
stroke:#840084; stroke-width:100; stroke-opacity:1; 
stroke-linecap:round; stroke-linejoin:round;">
<path d="M5252.59 18991 A800 800 0.0 0 0 4965.75 19604.7 " />
<path d="M4966.75 19605.1 A799 799 0.0 0 0 5389.75 20309.7 " />
<path d="M6564.72 19603.7 A798.972 798.972 0.0 0 0 6281.75 18994.7 " />
<path d="M6163.33 20298.9 A800 800 0.0 0 0 6565.75 19604.7 " />
<path d="M5386.48 20309.1 A800 800 0.0 0 0 5765.75 20404.7 " />
<path d="M5765.79 20404.3 A799.576 799.576 0.0 0 0 6184.75 20285.7 " />
<path d="M7761 20992
L6761 20992
" />
</g>
<g style="fill:#840084; fill-opacity:0.0; 
stroke:#840084; stroke-width:60; stroke-opacity:1; 
stroke-linecap:round; stroke-linejoin:round;">
<path d="M6877.74 22073.6 A600 600 0.0 0 0 7261.81 22212.6 " />
<path d="M7262 22211.9 A599.256 599.256 0.0 0 0 7659.81 22060.6 " />
<path d="M7261.8 21013.3 A599.27 599.27 0.0 0 0 6871.81 21157.6 " />
<path d="M7645.88 21151.6 A600 600 0.0 0 0 7261.81 21012.6 " />
<path d="M6912.54 21124.7 A600 600 0.0 0 0 6661.81 21612.6 " />
<path d="M6661.81 21612.9 A600 600 0.0 0 0 6901.81 22092.6 " />
<path d="M7861.1 21612.4 A599.294 599.294 0.0 0 0 7629.81 21139.6 " />
<path d="M7630.38 22086 A600 600 0.0 0 0 7861.81 21612.6 " />
<path d="M7011.81 21612.6 A250 250 0.0 0 0 7261.81 21862.6 " />
<path d="M6861.81 21612.6 A400 400 0.0 0 0 7261.81 22012.6 " />
<path d="M7511.81 21612.6 A250 250 0.0 0 0 7261.81 21362.6 " />
<path d="M7661.81 21612.6 A400 400 0.0 0 0 7261.81 21212.6 " />
</g>
<g style="fill:#840084; fill-opacity:0.0; 
stroke:#840084; stroke-width:100; stroke-opacity:1; 
stroke-linecap:round; stroke-linejoin:round;">
<path d="M6748.65 20998.9 A800 800 0.0 0 0 6461.81 21612.6 " />
<path d="M6462.81 21613 A799 799 0.0 0 0 6885.81 22317.6 " />
<path d="M8060.78 21611.6 A798.972 798.972 0.0 0 0 7777.81 21002.6 " />
<path d="M7659.39 22306.8 A800 800 0.0 0 0 8061.81 21612.6 " />
<path d="M6882.54 22317 A800 800 0.0 0 0 7261.81 22412.6 " />
<path d="M7261.85 22412.2 A799.576 799.576 0.0 0 0 7680.81 22293.6 " />
<path d="M8904 23456
L8904 24456
" />
</g>
<g style="fill:#840084; fill-opacity:0.0; 
stroke:#840084; stroke-width:60; stroke-opacity:1; 
stroke-linecap:round; stroke-linejoin:round;">
<path d="M9984.99 24340.8 A600 600 0.0 0 0 10124 23956.7 " />
<path d="M10123.3 23956.5 A599.256 599.256 0.0 0 0 9972.02 23558.7 " />
<path d="M8924.74 23956.7 A599.27 599.27 0.0 0 0 9069.02 24346.7 " />
<path d="M9063.05 23572.6 A600 600 0.0 0 0 8924.02 23956.7 " />
<path d="M9036.15 24306 A600 600 0.0 0 0 9524.02 24556.7 " />
<path d="M9524.33 24556.7 A600 600 0.0 0 0 10004 24316.7 " />
<path d="M9523.84 23357.4 A599.294 599.294 0.0 0 0 9051.02 23588.7 " />
<path d="M9997.47 23588.1 A600 600 0.0 0 0 9524.02 23356.7 " />
<path d="M9524.02 24206.7 A250 250 0.0 0 0 9774.02 23956.7 " />
<path d="M9524.02 24356.7 A400 400 0.0 0 0 9924.02 23956.7 " />
<path d="M9524.02 23706.7 A250 250 0.0 0 0 9274.02 23956.7 " />
<path d="M9524.02 23556.7 A400 400 0.0 0 0 9124.02 23956.7 " />
</g>
<g style="fill:#840084; fill-opacity:0.0; 
stroke:#840084; stroke-width:100; stroke-opacity:1; 
stroke-linecap:round; stroke-linejoin:round;">
<path d="M8910.28 24469.9 A800 800 0.0 0 0 9524.02 24756.7 " />
<path d="M9524.4 24755.7 A799 799 0.0 0 0 10229 24332.7 " />
<path d="M9523.01 23157.7 A798.972 798.972 0.0 0 0 8914.02 23440.7 " />
<path d="M10218.2 23559.1 A800 800 0.0 0 0 9524.02 23156.7 " />
<path d="M10228.4 24336 A800 800 0.0 0 0 10324 23956.7 " />
<path d="M10323.6 23956.7 A799.576 799.576 0.0 0 0 10205 23537.7 " />
<path d="M8904 21015
L8904 22015
" />
</g>
<g style="fill:#840084; fill-opacity:0.0; 
stroke:#840084; stroke-width:60; stroke-opacity:1; 
stroke-linecap:round; stroke-linejoin:round;">
<path d="M9984.99 21899.8 A600 600 0.0 0 0 10124 21515.7 " />
<path d="M10123.3 21515.6 A599.256 599.256 0.0 0 0 9972.02 21117.7 " />
<path d="M8924.74 21515.8 A599.27 599.27 0.0 0 0 9069.02 21905.7 " />
<path d="M9063.05 21131.7 A600 600 0.0 0 0 8924.02 21515.7 " />
<path d="M9036.15 21865 A600 600 0.0 0 0 9524.02 22115.7 " />
<path d="M9524.33 22115.7 A600 600 0.0 0 0 10004 21875.7 " />
<path d="M9523.84 20916.5 A599.294 599.294 0.0 0 0 9051.02 21147.7 " />
<path d="M9997.47 21147.2 A600 600 0.0 0 0 9524.02 20915.7 " />
<path d="M9524.02 21765.7 A250 250 0.0 0 0 9774.02 21515.7 " />
<path d="M9524.02 21915.7 A400 400 0.0 0 0 9924.02 21515.7 " />
<path d="M9524.02 21265.7 A250 250 0.0 0 0 9274.02 21515.7 " />
<path d="M9524.02 21115.7 A400 400 0.0 0 0 9124.02 21515.7 " />
</g>
<g style="fill:#840084; fill-opacity:0.0; 
stroke:#840084; stroke-width:100; stroke-opacity:1; 
stroke-linecap:round; stroke-linejoin:round;">
<path d="M8910.28 22028.9 A800 800 0.0 0 0 9524.02 22315.7 " />
<path d="M9524.4 22314.7 A799 799 0.0 0 0 10229 21891.7 " />
<path d="M9523.01 20716.8 A798.972 798.972 0.0 0 0 8914.02 20999.7 " />
<path d="M10218.2 21118.2 A800 800 0.0 0 0 9524.02 20715.7 " />
<path d="M10228.4 21895 A800 800 0.0 0 0 10324 21515.7 " />
<path d="M10323.6 21515.7 A799.576 799.576 0.0 0 0 10205 21096.7 " />
<path d="M8904 16173
L8904 17173
" />
</g>
<g style="fill:#840084; fill-opacity:0.0; 
stroke:#840084; stroke-width:60; stroke-opacity:1; 
stroke-linecap:round; stroke-linejoin:round;">
<path d="M9984.99 17057.3 A600 600 0.0 0 0 10124 16673.2 " />
<path d="M10123.3 16673 A599.256 599.256 0.0 0 0 9972.02 16275.2 " />
<path d="M8924.74 16673.2 A599.27 599.27 0.0 0 0 9069.02 17063.2 " />
<path d="M9063.05 16289.2 A600 600 0.0 0 0 8924.02 16673.2 " />
<path d="M9036.15 17022.5 A600 600 0.0 0 0 9524.02 17273.2 " />
<path d="M9524.33 17273.2 A600 600 0.0 0 0 10004 17033.2 " />
<path d="M9523.84 16073.9 A599.294 599.294 0.0 0 0 9051.02 16305.2 " />
<path d="M9997.47 16304.7 A600 600 0.0 0 0 9524.02 16073.2 " />
<path d="M9524.02 16923.2 A250 250 0.0 0 0 9774.02 16673.2 " />
<path d="M9524.02 17073.2 A400 400 0.0 0 0 9924.02 16673.2 " />
<path d="M9524.02 16423.2 A250 250 0.0 0 0 9274.02 16673.2 " />
<path d="M9524.02 16273.2 A400 400 0.0 0 0 9124.02 16673.2 " />
</g>
<g style="fill:#840084; fill-opacity:0.0; 
stroke:#840084; stroke-width:100; stroke-opacity:1; 
stroke-linecap:round; stroke-linejoin:round;">
<path d="M8910.28 17186.4 A800 800 0.0 0 0 9524.02 17473.2 " />
<path d="M9524.4 17472.2 A799 799 0.0 0 0 10229 17049.2 " />
<path d="M9523.01 15874.3 A798.972 798.972 0.0 0 0 8914.02 16157.2 " />
<path d="M10218.2 16275.6 A800 800 0.0 0 0 9524.02 15873.2 " />
<path d="M10228.4 17052.5 A800 800 0.0 0 0 10324 16673.2 " />
<path d="M10323.6 16673.2 A799.576 799.576 0.0 0 0 10205 16254.2 " />
<path d="M8904 1606
L8904 2606
" />
</g>
<g style="fill:#840084; fill-opacity:0.0; 
stroke:#840084; stroke-width:60; stroke-opacity:1; 
stroke-linecap:round; stroke-linejoin:round;">
<path d="M9984.99 2490.37 A600 600 0.0 0 0 10124 2106.3 " />
<path d="M10123.3 2106.11 A599.256 599.256 0.0 0 0 9972.02 1708.3 " />
<path d="M8924.74 2106.31 A599.27 599.27 0.0 0 0 9069.02 2496.3 " />
<path d="M9063.05 1722.23 A600 600 0.0 0 0 8924.02 2106.3 " />
<path d="M9036.15 2455.57 A600 600 0.0 0 0 9524.02 2706.3 " />
<path d="M9524.33 2706.3 A600 600 0.0 0 0 10004 2466.3 " />
<path d="M9523.84 1507.01 A599.294 599.294 0.0 0 0 9051.02 1738.3 " />
<path d="M9997.47 1737.73 A600 600 0.0 0 0 9524.02 1506.3 " />
<path d="M9524.02 2356.3 A250 250 0.0 0 0 9774.02 2106.3 " />
<path d="M9524.02 2506.3 A400 400 0.0 0 0 9924.02 2106.3 " />
<path d="M9524.02 1856.3 A250 250 0.0 0 0 9274.02 2106.3 " />
<path d="M9524.02 1706.3 A400 400 0.0 0 0 9124.02 2106.3 " />
</g>
<g style="fill:#840084; fill-opacity:0.0; 
stroke:#840084; stroke-width:100; stroke-opacity:1; 
stroke-linecap:round; stroke-linejoin:round;">
<path d="M8910.28 2619.46 A800 800 0.0 0 0 9524.02 2906.3 " />
<path d="M9524.4 2905.3 A799 799 0.0 0 0 10229 2482.3 " />
<path d="M9523.01 1307.33 A798.972 798.972 0.0 0 0 8914.02 1590.3 " />
<path d="M10218.2 1708.72 A800 800 0.0 0 0 9524.02 1306.3 " />
<path d="M10228.4 2485.57 A800 800 0.0 0 0 10324 2106.3 " />
<path d="M10323.6 2106.26 A799.576 799.576 0.0 0 0 10205 1687.3 " />
<path d="M11620 1606
L11620 2606
" />
</g>
<g style="fill:#840084; fill-opacity:0.0; 
stroke:#840084; stroke-width:60; stroke-opacity:1; 
stroke-linecap:round; stroke-linejoin:round;">
<path d="M12701.5 2490.37 A600 600 0.0 0 0 12840.6 2106.3 " />
<path d="M12839.8 2106.11 A599.256 599.256 0.0 0 0 12688.6 1708.3 " />
<path d="M11641.3 2106.31 A599.27 599.27 0.0 0 0 11785.6 2496.3 " />
<path d="M11779.6 1722.23 A600 600 0.0 0 0 11640.6 2106.3 " />
<path d="M11752.7 2455.57 A600 600 0.0 0 0 12240.6 2706.3 " />
<path d="M12240.9 2706.3 A600 600 0.0 0 0 12720.6 2466.3 " />
<path d="M12240.4 1507.01 A599.294 599.294 0.0 0 0 11767.6 1738.3 " />
<path d="M12714 1737.73 A600 600 0.0 0 0 12240.6 1506.3 " />
<path d="M12240.6 2356.3 A250 250 0.0 0 0 12490.6 2106.3 " />
<path d="M12240.6 2506.3 A400 400 0.0 0 0 12640.6 2106.3 " />
<path d="M12240.6 1856.3 A250 250 0.0 0 0 11990.6 2106.3 " />
<path d="M12240.6 1706.3 A400 400 0.0 0 0 11840.6 2106.3 " />
</g>
<g style="fill:#840084; fill-opacity:0.0; 
stroke:#840084; stroke-width:100; stroke-opacity:1; 
stroke-linecap:round; stroke-linejoin:round;">
<path d="M11626.8 2619.46 A800 800 0.0 0 0 12240.6 2906.3 " />
<path d="M12240.9 2905.3 A799 799 0.0 0 0 12945.6 2482.3 " />
<path d="M12239.5 1307.33 A798.972 798.972 0.0 0 0 11630.6 1590.3 " />
<path d="M12934.8 1708.72 A800 800 0.0 0 0 12240.6 1306.3 " />
<path d="M12944.9 2485.57 A800 800 0.0 0 0 13040.6 2106.3 " />
<path d="M13040.1 2106.26 A799.576 799.576 0.0 0 0 12921.6 1687.3 " />
<path d="M8904 4047
L8904 5047
" />
</g>
<g style="fill:#840084; fill-opacity:0.0; 
stroke:#840084; stroke-width:60; stroke-opacity:1; 
stroke-linecap:round; stroke-linejoin:round;">
<path d="M9984.99 4931.31 A600 600 0.0 0 0 10124 4547.24 " />
<path d="M10123.3 4547.06 A599.256 599.256 0.0 0 0 9972.02 4149.24 " />
<path d="M8924.74 4547.26 A599.27 599.27 0.0 0 0 9069.02 4937.24 " />
<path d="M9063.05 4163.18 A600 600 0.0 0 0 8924.02 4547.24 " />
<path d="M9036.15 4896.52 A600 600 0.0 0 0 9524.02 5147.24 " />
<path d="M9524.33 5147.24 A600 600 0.0 0 0 10004 4907.24 " />
<path d="M9523.84 3947.95 A599.294 599.294 0.0 0 0 9051.02 4179.24 " />
<path d="M9997.47 4178.67 A600 600 0.0 0 0 9524.02 3947.24 " />
<path d="M9524.02 4797.24 A250 250 0.0 0 0 9774.02 4547.24 " />
<path d="M9524.02 4947.24 A400 400 0.0 0 0 9924.02 4547.24 " />
<path d="M9524.02 4297.24 A250 250 0.0 0 0 9274.02 4547.24 " />
<path d="M9524.02 4147.24 A400 400 0.0 0 0 9124.02 4547.24 " />
</g>
<g style="fill:#840084; fill-opacity:0.0; 
stroke:#840084; stroke-width:100; stroke-opacity:1; 
stroke-linecap:round; stroke-linejoin:round;">
<path d="M8910.28 5060.4 A800 800 0.0 0 0 9524.02 5347.24 " />
<path d="M9524.4 5346.24 A799 799 0.0 0 0 10229 4923.24 " />
<path d="M9523.01 3748.27 A798.972 798.972 0.0 0 0 8914.02 4031.24 " />
<path d="M10218.2 4149.67 A800 800 0.0 0 0 9524.02 3747.24 " />
<path d="M10228.4 4926.52 A800 800 0.0 0 0 10324 4547.24 " />
<path d="M10323.6 4547.21 A799.576 799.576 0.0 0 0 10205 4128.24 " />
<path d="M833 1606
L833 2606
" />
</g>
<g style="fill:#840084; fill-opacity:0.0; 
stroke:#840084; stroke-width:60; stroke-opacity:1; 
stroke-linecap:round; stroke-linejoin:round;">
<path d="M1914.12 2490.37 A600 600 0.0 0 0 2053.15 2106.3 " />
<path d="M2052.41 2106.11 A599.256 599.256 0.0 0 0 1901.15 1708.3 " />
<path d="M853.879 2106.31 A599.27 599.27 0.0 0 0 998.149 2496.3 " />
<path d="M992.179 1722.23 A600 600 0.0 0 0 853.149 2106.3 " />
<path d="M965.289 2455.57 A600 600 0.0 0 0 1453.15 2706.3 " />
<path d="M1453.46 2706.3 A600 600 0.0 0 0 1933.15 2466.3 " />
<path d="M1452.98 1507.01 A599.294 599.294 0.0 0 0 980.149 1738.3 " />
<path d="M1926.6 1737.73 A600 600 0.0 0 0 1453.15 1506.3 " />
<path d="M1453.15 2356.3 A250 250 0.0 0 0 1703.15 2106.3 " />
<path d="M1453.15 2506.3 A400 400 0.0 0 0 1853.15 2106.3 " />
<path d="M1453.15 1856.3 A250 250 0.0 0 0 1203.15 2106.3 " />
<path d="M1453.15 1706.3 A400 400 0.0 0 0 1053.15 2106.3 " />
</g>
<g style="fill:#840084; fill-opacity:0.0; 
stroke:#840084; stroke-width:100; stroke-opacity:1; 
stroke-linecap:round; stroke-linejoin:round;">
<path d="M839.417 2619.46 A800 800 0.0 0 0 1453.15 2906.3 " />
<path d="M1453.53 2905.3 A799 799 0.0 0 0 2158.15 2482.3 " />
<path d="M1452.14 1307.33 A798.972 798.972 0.0 0 0 843.149 1590.3 " />
<path d="M2147.36 1708.72 A800 800 0.0 0 0 1453.15 1306.3 " />
<path d="M2157.53 2485.57 A800 800 0.0 0 0 2253.15 2106.3 " />
<path d="M2252.73 2106.26 A799.576 799.576 0.0 0 0 2134.15 1687.3 " />
<path d="M3549 1606
L3549 2606
" />
</g>
<g style="fill:#840084; fill-opacity:0.0; 
stroke:#840084; stroke-width:60; stroke-opacity:1; 
stroke-linecap:round; stroke-linejoin:round;">
<path d="M4630.65 2490.37 A600 600 0.0 0 0 4769.68 2106.3 " />
<path d="M4768.94 2106.11 A599.256 599.256 0.0 0 0 4617.68 1708.3 " />
<path d="M3570.41 2106.31 A599.27 599.27 0.0 0 0 3714.68 2496.3 " />
<path d="M3708.71 1722.23 A600 600 0.0 0 0 3569.68 2106.3 " />
<path d="M3681.82 2455.57 A600 600 0.0 0 0 4169.68 2706.3 " />
<path d="M4170 2706.3 A600 600 0.0 0 0 4649.68 2466.3 " />
<path d="M4169.51 1507.01 A599.294 599.294 0.0 0 0 3696.68 1738.3 " />
<path d="M4643.14 1737.73 A600 600 0.0 0 0 4169.68 1506.3 " />
<path d="M4169.68 2356.3 A250 250 0.0 0 0 4419.68 2106.3 " />
<path d="M4169.68 2506.3 A400 400 0.0 0 0 4569.68 2106.3 " />
<path d="M4169.68 1856.3 A250 250 0.0 0 0 3919.68 2106.3 " />
<path d="M4169.68 1706.3 A400 400 0.0 0 0 3769.68 2106.3 " />
</g>
<g style="fill:#840084; fill-opacity:0.0; 
stroke:#840084; stroke-width:100; stroke-opacity:1; 
stroke-linecap:round; stroke-linejoin:round;">
<path d="M3555.95 2619.46 A800 800 0.0 0 0 4169.68 2906.3 " />
<path d="M4170.07 2905.3 A799 799 0.0 0 0 4874.68 2482.3 " />
<path d="M4168.68 1307.33 A798.972 798.972 0.0 0 0 3559.68 1590.3 " />
<path d="M4863.9 1708.72 A800 800 0.0 0 0 4169.68 1306.3 " />
<path d="M4874.07 2485.57 A800 800 0.0 0 0 4969.68 2106.3 " />
<path d="M4969.26 2106.26 A799.576 799.576 0.0 0 0 4850.68 1687.3 " />
<path d="M14297 1606
L14297 2606
" />
</g>
<g style="fill:#840084; fill-opacity:0.0; 
stroke:#840084; stroke-width:60; stroke-opacity:1; 
stroke-linecap:round; stroke-linejoin:round;">
<path d="M15378.7 2490.37 A600 600 0.0 0 0 15517.7 2106.3 " />
<path d="M15517 2106.11 A599.256 599.256 0.0 0 0 15365.7 1708.3 " />
<path d="M14318.4 2106.31 A599.27 599.27 0.0 0 0 14462.7 2496.3 " />
<path d="M14456.7 1722.23 A600 600 0.0 0 0 14317.7 2106.3 " />
<path d="M14429.9 2455.57 A600 600 0.0 0 0 14917.7 2706.3 " />
<path d="M14918 2706.3 A600 600 0.0 0 0 15397.7 2466.3 " />
<path d="M14917.5 1507.01 A599.294 599.294 0.0 0 0 14444.7 1738.3 " />
<path d="M15391.2 1737.73 A600 600 0.0 0 0 14917.7 1506.3 " />
<path d="M14917.7 2356.3 A250 250 0.0 0 0 15167.7 2106.3 " />
<path d="M14917.7 2506.3 A400 400 0.0 0 0 15317.7 2106.3 " />
<path d="M14917.7 1856.3 A250 250 0.0 0 0 14667.7 2106.3 " />
<path d="M14917.7 1706.3 A400 400 0.0 0 0 14517.7 2106.3 " />
</g>
<g style="fill:#840084; fill-opacity:0.0; 
stroke:#840084; stroke-width:100; stroke-opacity:1; 
stroke-linecap:round; stroke-linejoin:round;">
<path d="M14304 2619.46 A800 800 0.0 0 0 14917.7 2906.3 " />
<path d="M14918.1 2905.3 A799 799 0.0 0 0 15622.7 2482.3 " />
<path d="M14916.7 1307.33 A798.972 798.972 0.0 0 0 14307.7 1590.3 " />
<path d="M15611.9 1708.72 A800 800 0.0 0 0 14917.7 1306.3 " />
<path d="M15622.1 2485.57 A800 800 0.0 0 0 15717.7 2106.3 " />
<path d="M15717.3 2106.26 A799.576 799.576 0.0 0 0 15598.7 1687.3 " />
<path d="M16974 1606
L16974 2606
" />
</g>
<g style="fill:#840084; fill-opacity:0.0; 
stroke:#840084; stroke-width:60; stroke-opacity:1; 
stroke-linecap:round; stroke-linejoin:round;">
<path d="M18055.9 2490.37 A600 600 0.0 0 0 18194.9 2106.3 " />
<path d="M18194.1 2106.11 A599.256 599.256 0.0 0 0 18042.9 1708.3 " />
<path d="M16995.6 2106.31 A599.27 599.27 0.0 0 0 17139.9 2496.3 " />
<path d="M17133.9 1722.23 A600 600 0.0 0 0 16994.9 2106.3 " />
<path d="M17107 2455.57 A600 600 0.0 0 0 17594.9 2706.3 " />
<path d="M17595.2 2706.3 A600 600 0.0 0 0 18074.9 2466.3 " />
<path d="M17594.7 1507.01 A599.294 599.294 0.0 0 0 17121.9 1738.3 " />
<path d="M18068.3 1737.73 A600 600 0.0 0 0 17594.9 1506.3 " />
<path d="M17594.9 2356.3 A250 250 0.0 0 0 17844.9 2106.3 " />
<path d="M17594.9 2506.3 A400 400 0.0 0 0 17994.9 2106.3 " />
<path d="M17594.9 1856.3 A250 250 0.0 0 0 17344.9 2106.3 " />
<path d="M17594.9 1706.3 A400 400 0.0 0 0 17194.9 2106.3 " />
</g>
<g style="fill:#840084; fill-opacity:0.0; 
stroke:#840084; stroke-width:100; stroke-opacity:1; 
stroke-linecap:round; stroke-linejoin:round;">
<path d="M16981.1 2619.46 A800 800 0.0 0 0 17594.9 2906.3 " />
<path d="M17595.3 2905.3 A799 799 0.0 0 0 18299.9 2482.3 " />
<path d="M17593.9 1307.33 A798.972 798.972 0.0 0 0 16984.9 1590.3 " />
<path d="M18289.1 1708.72 A800 800 0.0 0 0 17594.9 1306.3 " />
<path d="M18299.3 2485.57 A800 800 0.0 0 0 18394.9 2106.3 " />
<path d="M18394.5 2106.26 A799.576 799.576 0.0 0 0 18275.9 1687.3 " />
<path d="M11816 8669
L10816 8669
" />
</g>
<g style="fill:#840084; fill-opacity:0.0; 
stroke:#840084; stroke-width:60; stroke-opacity:1; 
stroke-linecap:round; stroke-linejoin:round;">
<path d="M10932.9 9750.73 A600 600 0.0 0 0 11316.9 9889.76 " />
<path d="M11317.1 9889.02 A599.256 599.256 0.0 0 0 11714.9 9737.76 " />
<path d="M11316.9 8690.49 A599.27 599.27 0.0 0 0 10926.9 8834.76 " />
<path d="M11701 8828.79 A600 600 0.0 0 0 11316.9 8689.76 " />
<path d="M10967.7 8801.9 A600 600 0.0 0 0 10716.9 9289.76 " />
<path d="M10716.9 9290.08 A600 600 0.0 0 0 10956.9 9769.76 " />
<path d="M11916.2 9289.59 A599.294 599.294 0.0 0 0 11684.9 8816.76 " />
<path d="M11685.5 9763.21 A600 600 0.0 0 0 11916.9 9289.76 " />
<path d="M11066.9 9289.76 A250 250 0.0 0 0 11316.9 9539.76 " />
<path d="M10916.9 9289.76 A400 400 0.0 0 0 11316.9 9689.76 " />
<path d="M11566.9 9289.76 A250 250 0.0 0 0 11316.9 9039.76 " />
<path d="M11716.9 9289.76 A400 400 0.0 0 0 11316.9 8889.76 " />
</g>
<g style="fill:#840084; fill-opacity:0.0; 
stroke:#840084; stroke-width:100; stroke-opacity:1; 
stroke-linecap:round; stroke-linejoin:round;">
<path d="M10803.8 8676.03 A800 800 0.0 0 0 10516.9 9289.76 " />
<path d="M10517.9 9290.15 A799 799 0.0 0 0 10940.9 9994.76 " />
<path d="M12115.9 9288.76 A798.972 798.972 0.0 0 0 11832.9 8679.76 " />
<path d="M11714.5 9983.98 A800 800 0.0 0 0 12116.9 9289.76 " />
<path d="M10937.7 9994.15 A800 800 0.0 0 0 11316.9 10089.8 " />
<path d="M11317 10089.3 A799.576 799.576 0.0 0 0 11735.9 9970.76 " />
<path d="M8904 13732
L8904 14732
" />
</g>
<g style="fill:#840084; fill-opacity:0.0; 
stroke:#840084; stroke-width:60; stroke-opacity:1; 
stroke-linecap:round; stroke-linejoin:round;">
<path d="M9984.99 14616.3 A600 600 0.0 0 0 10124 14232.3 " />
<path d="M10123.3 14232.1 A599.256 599.256 0.0 0 0 9972.02 13834.3 " />
<path d="M8924.74 14232.3 A599.27 599.27 0.0 0 0 9069.02 14622.3 " />
<path d="M9063.05 13848.2 A600 600 0.0 0 0 8924.02 14232.3 " />
<path d="M9036.15 14581.6 A600 600 0.0 0 0 9524.02 14832.3 " />
<path d="M9524.33 14832.3 A600 600 0.0 0 0 10004 14592.3 " />
<path d="M9523.84 13633 A599.294 599.294 0.0 0 0 9051.02 13864.3 " />
<path d="M9997.47 13863.7 A600 600 0.0 0 0 9524.02 13632.3 " />
<path d="M9524.02 14482.3 A250 250 0.0 0 0 9774.02 14232.3 " />
<path d="M9524.02 14632.3 A400 400 0.0 0 0 9924.02 14232.3 " />
<path d="M9524.02 13982.3 A250 250 0.0 0 0 9274.02 14232.3 " />
<path d="M9524.02 13832.3 A400 400 0.0 0 0 9124.02 14232.3 " />
</g>
<g style="fill:#840084; fill-opacity:0.0; 
stroke:#840084; stroke-width:100; stroke-opacity:1; 
stroke-linecap:round; stroke-linejoin:round;">
<path d="M8910.28 14745.4 A800 800 0.0 0 0 9524.02 15032.3 " />
<path d="M9524.4 15031.3 A799 799 0.0 0 0 10229 14608.3 " />
<path d="M9523.01 13433.3 A798.972 798.972 0.0 0 0 8914.02 13716.3 " />
<path d="M10218.2 13834.7 A800 800 0.0 0 0 9524.02 13432.3 " />
<path d="M10228.4 14611.6 A800 800 0.0 0 0 10324 14232.3 " />
<path d="M10323.6 14232.2 A799.576 799.576 0.0 0 0 10205 13813.3 " />
<path d="M8904 11330
L8904 12330
" />
</g>
<g style="fill:#840084; fill-opacity:0.0; 
stroke:#840084; stroke-width:60; stroke-opacity:1; 
stroke-linecap:round; stroke-linejoin:round;">
<path d="M9984.99 12214.8 A600 600 0.0 0 0 10124 11830.7 " />
<path d="M10123.3 11830.5 A599.256 599.256 0.0 0 0 9972.02 11432.7 " />
<path d="M8924.74 11830.7 A599.27 599.27 0.0 0 0 9069.02 12220.7 " />
<path d="M9063.05 11446.6 A600 600 0.0 0 0 8924.02 11830.7 " />
<path d="M9036.15 12180 A600 600 0.0 0 0 9524.02 12430.7 " />
<path d="M9524.33 12430.7 A600 600 0.0 0 0 10004 12190.7 " />
<path d="M9523.84 11231.4 A599.294 599.294 0.0 0 0 9051.02 11462.7 " />
<path d="M9997.47 11462.1 A600 600 0.0 0 0 9524.02 11230.7 " />
<path d="M9524.02 12080.7 A250 250 0.0 0 0 9774.02 11830.7 " />
<path d="M9524.02 12230.7 A400 400 0.0 0 0 9924.02 11830.7 " />
<path d="M9524.02 11580.7 A250 250 0.0 0 0 9274.02 11830.7 " />
<path d="M9524.02 11430.7 A400 400 0.0 0 0 9124.02 11830.7 " />
</g>
<g style="fill:#840084; fill-opacity:0.0; 
stroke:#840084; stroke-width:100; stroke-opacity:1; 
stroke-linecap:round; stroke-linejoin:round;">
<path d="M8910.28 12343.9 A800 800 0.0 0 0 9524.02 12630.7 " />
<path d="M9524.4 12629.7 A799 799 0.0 0 0 10229 12206.7 " />
<path d="M9523.01 11031.7 A798.972 798.972 0.0 0 0 8914.02 11314.7 " />
<path d="M10218.2 11433.1 A800 800 0.0 0 0 9524.02 11030.7 " />
<path d="M10228.4 12210 A800 800 0.0 0 0 10324 11830.7 " />
<path d="M10323.6 11830.7 A799.576 799.576 0.0 0 0 10205 11411.7 " />
<path d="M14888 3338
L14888 4338
" />
</g>
<g style="fill:#840084; fill-opacity:0.0; 
stroke:#840084; stroke-width:60; stroke-opacity:1; 
stroke-linecap:round; stroke-linejoin:round;">
<path d="M15969.2 4222.65 A600 600 0.0 0 0 16108.3 3838.58 " />
<path d="M16107.5 3838.4 A599.256 599.256 0.0 0 0 15956.3 3440.58 " />
<path d="M14909 3838.6 A599.27 599.27 0.0 0 0 15053.3 4228.58 " />
<path d="M15047.3 3454.52 A600 600 0.0 0 0 14908.3 3838.58 " />
<path d="M15020.4 4187.86 A600 600 0.0 0 0 15508.3 4438.58 " />
<path d="M15508.6 4438.58 A600 600 0.0 0 0 15988.3 4198.58 " />
<path d="M15508.1 3239.29 A599.294 599.294 0.0 0 0 15035.3 3470.58 " />
<path d="M15981.7 3470.01 A600 600 0.0 0 0 15508.3 3238.58 " />
<path d="M15508.3 4088.58 A250 250 0.0 0 0 15758.3 3838.58 " />
<path d="M15508.3 4238.58 A400 400 0.0 0 0 15908.3 3838.58 " />
<path d="M15508.3 3588.58 A250 250 0.0 0 0 15258.3 3838.58 " />
<path d="M15508.3 3438.58 A400 400 0.0 0 0 15108.3 3838.58 " />
</g>
<g style="fill:#840084; fill-opacity:0.0; 
stroke:#840084; stroke-width:100; stroke-opacity:1; 
stroke-linecap:round; stroke-linejoin:round;">
<path d="M14894.5 4351.74 A800 800 0.0 0 0 15508.3 4638.58 " />
<path d="M15508.7 4637.58 A799 799 0.0 0 0 16213.3 4214.58 " />
<path d="M15507.3 3039.61 A798.972 798.972 0.0 0 0 14898.3 3322.58 " />
<path d="M16202.5 3441 A800 800 0.0 0 0 15508.3 3038.58 " />
<path d="M16212.6 4217.85 A800 800 0.0 0 0 16308.3 3838.58 " />
<path d="M16307.8 3838.54 A799.576 799.576 0.0 0 0 16189.3 3419.58 " />
<path d="M12762 4637
L12762 5637
" />
</g>
<g style="fill:#840084; fill-opacity:0.0; 
stroke:#840084; stroke-width:60; stroke-opacity:1; 
stroke-linecap:round; stroke-linejoin:round;">
<path d="M13843.3 5521.86 A600 600 0.0 0 0 13982.3 5137.8 " />
<path d="M13981.5 5137.61 A599.256 599.256 0.0 0 0 13830.3 4739.8 " />
<path d="M12783 5137.81 A599.27 599.27 0.0 0 0 12927.3 5527.8 " />
<path d="M12921.3 4753.73 A600 600 0.0 0 0 12782.3 5137.8 " />
<path d="M12894.4 5487.07 A600 600 0.0 0 0 13382.3 5737.8 " />
<path d="M13382.6 5737.8 A600 600 0.0 0 0 13862.3 5497.8 " />
<path d="M13382.1 4538.5 A599.294 599.294 0.0 0 0 12909.3 4769.8 " />
<path d="M13855.7 4769.22 A600 600 0.0 0 0 13382.3 4537.8 " />
<path d="M13382.3 5387.8 A250 250 0.0 0 0 13632.3 5137.8 " />
<path d="M13382.3 5537.8 A400 400 0.0 0 0 13782.3 5137.8 " />
<path d="M13382.3 4887.8 A250 250 0.0 0 0 13132.3 5137.8 " />
<path d="M13382.3 4737.8 A400 400 0.0 0 0 12982.3 5137.8 " />
</g>
<g style="fill:#840084; fill-opacity:0.0; 
stroke:#840084; stroke-width:100; stroke-opacity:1; 
stroke-linecap:round; stroke-linejoin:round;">
<path d="M12768.6 5650.96 A800 800 0.0 0 0 13382.3 5937.8 " />
<path d="M13382.7 5936.8 A799 799 0.0 0 0 14087.3 5513.8 " />
<path d="M13381.3 4338.82 A798.972 798.972 0.0 0 0 12772.3 4621.8 " />
<path d="M14076.5 4740.22 A800 800 0.0 0 0 13382.3 4337.8 " />
<path d="M14086.7 5517.07 A800 800 0.0 0 0 14182.3 5137.8 " />
<path d="M14181.9 5137.76 A799.576 799.576 0.0 0 0 14063.3 4718.8 " />
<path d="M11266 6645
L11266 7645
" />
</g>
<g style="fill:#840084; fill-opacity:0.0; 
stroke:#840084; stroke-width:60; stroke-opacity:1; 
stroke-linecap:round; stroke-linejoin:round;">
<path d="M12347.2 7529.74 A600 600 0.0 0 0 12486.2 7145.67 " />
<path d="M12485.5 7145.48 A599.256 599.256 0.0 0 0 12334.2 6747.67 " />
<path d="M11286.9 7145.68 A599.27 599.27 0.0 0 0 11431.2 7535.67 " />
<path d="M11425.2 6761.6 A600 600 0.0 0 0 11286.2 7145.67 " />
<path d="M11398.4 7494.94 A600 600 0.0 0 0 11886.2 7745.67 " />
<path d="M11886.5 7745.67 A600 600 0.0 0 0 12366.2 7505.67 " />
<path d="M11886 6546.38 A599.294 599.294 0.0 0 0 11413.2 6777.67 " />
<path d="M12359.7 6777.1 A600 600 0.0 0 0 11886.2 6545.67 " />
<path d="M11886.2 7395.67 A250 250 0.0 0 0 12136.2 7145.67 " />
<path d="M11886.2 7545.67 A400 400 0.0 0 0 12286.2 7145.67 " />
<path d="M11886.2 6895.67 A250 250 0.0 0 0 11636.2 7145.67 " />
<path d="M11886.2 6745.67 A400 400 0.0 0 0 11486.2 7145.67 " />
</g>
<g style="fill:#840084; fill-opacity:0.0; 
stroke:#840084; stroke-width:100; stroke-opacity:1; 
stroke-linecap:round; stroke-linejoin:round;">
<path d="M11272.5 7658.83 A800 800 0.0 0 0 11886.2 7945.67 " />
<path d="M11886.6 7944.67 A799 799 0.0 0 0 12591.2 7521.67 " />
<path d="M11885.2 6346.7 A798.972 798.972 0.0 0 0 11276.2 6629.67 " />
<path d="M12580.4 6748.09 A800 800 0.0 0 0 11886.2 6345.67 " />
<path d="M12590.6 7524.94 A800 800 0.0 0 0 12686.2 7145.67 " />
<path d="M12685.8 7145.63 A799.576 799.576 0.0 0 0 12567.2 6726.67 " />
<path d="M8904 8889
L8904 9889
" />
</g>
<g style="fill:#840084; fill-opacity:0.0; 
stroke:#840084; stroke-width:60; stroke-opacity:1; 
stroke-linecap:round; stroke-linejoin:round;">
<path d="M9984.99 9773.83 A600 600 0.0 0 0 10124 9389.76 " />
<path d="M10123.3 9389.58 A599.256 599.256 0.0 0 0 9972.02 8991.76 " />
<path d="M8924.74 9389.78 A599.27 599.27 0.0 0 0 9069.02 9779.76 " />
<path d="M9063.05 9005.7 A600 600 0.0 0 0 8924.02 9389.76 " />
<path d="M9036.15 9739.04 A600 600 0.0 0 0 9524.02 9989.76 " />
<path d="M9524.33 9989.76 A600 600 0.0 0 0 10004 9749.76 " />
<path d="M9523.84 8790.47 A599.294 599.294 0.0 0 0 9051.02 9021.76 " />
<path d="M9997.47 9021.19 A600 600 0.0 0 0 9524.02 8789.76 " />
<path d="M9524.02 9639.76 A250 250 0.0 0 0 9774.02 9389.76 " />
<path d="M9524.02 9789.76 A400 400 0.0 0 0 9924.02 9389.76 " />
<path d="M9524.02 9139.76 A250 250 0.0 0 0 9274.02 9389.76 " />
<path d="M9524.02 8989.76 A400 400 0.0 0 0 9124.02 9389.76 " />
</g>
<g style="fill:#840084; fill-opacity:0.0; 
stroke:#840084; stroke-width:100; stroke-opacity:1; 
stroke-linecap:round; stroke-linejoin:round;">
<path d="M8910.28 9902.92 A800 800 0.0 0 0 9524.02 10189.8 " />
<path d="M9524.4 10188.8 A799 799 0.0 0 0 10229 9765.76 " />
<path d="M9523.01 8590.79 A798.972 798.972 0.0 0 0 8914.02 8873.76 " />
<path d="M10218.2 8992.19 A800 800 0.0 0 0 9524.02 8589.76 " />
<path d="M10228.4 9769.03 A800 800 0.0 0 0 10324 9389.76 " />
<path d="M10323.6 9389.72 A799.576 799.576 0.0 0 0 10205 8970.76 " />
<path d="M8904 6448
L8904 7448
" />
</g>
<g style="fill:#840084; fill-opacity:0.0; 
stroke:#840084; stroke-width:60; stroke-opacity:1; 
stroke-linecap:round; stroke-linejoin:round;">
<path d="M9984.99 7332.89 A600 600 0.0 0 0 10124 6948.82 " />
<path d="M10123.3 6948.63 A599.256 599.256 0.0 0 0 9972.02 6550.82 " />
<path d="M8924.74 6948.83 A599.27 599.27 0.0 0 0 9069.02 7338.82 " />
<path d="M9063.05 6564.75 A600 600 0.0 0 0 8924.02 6948.82 " />
<path d="M9036.15 7298.09 A600 600 0.0 0 0 9524.02 7548.82 " />
<path d="M9524.33 7548.82 A600 600 0.0 0 0 10004 7308.82 " />
<path d="M9523.84 6349.53 A599.294 599.294 0.0 0 0 9051.02 6580.82 " />
<path d="M9997.47 6580.25 A600 600 0.0 0 0 9524.02 6348.82 " />
<path d="M9524.02 7198.82 A250 250 0.0 0 0 9774.02 6948.82 " />
<path d="M9524.02 7348.82 A400 400 0.0 0 0 9924.02 6948.82 " />
<path d="M9524.02 6698.82 A250 250 0.0 0 0 9274.02 6948.82 " />
<path d="M9524.02 6548.82 A400 400 0.0 0 0 9124.02 6948.82 " />
</g>
<g style="fill:#840084; fill-opacity:0.0; 
stroke:#840084; stroke-width:100; stroke-opacity:1; 
stroke-linecap:round; stroke-linejoin:round;">
<path d="M8910.28 7461.98 A800 800 0.0 0 0 9524.02 7748.82 " />
<path d="M9524.4 7747.82 A799 799 0.0 0 0 10229 7324.82 " />
<path d="M9523.01 6149.85 A798.972 798.972 0.0 0 0 8914.02 6432.82 " />
<path d="M10218.2 6551.24 A800 800 0.0 0 0 9524.02 6148.82 " />
<path d="M10228.4 7328.09 A800 800 0.0 0 0 10324 6948.82 " />
<path d="M10323.6 6948.78 A799.576 799.576 0.0 0 0 10205 6529.82 " />
<path d="M7446 15953
L6446 15953
" />
</g>
<g style="fill:#840084; fill-opacity:0.0; 
stroke:#840084; stroke-width:60; stroke-opacity:1; 
stroke-linecap:round; stroke-linejoin:round;">
<path d="M6562.78 17034.2 A600 600 0.0 0 0 6946.85 17173.2 " />
<path d="M6947.03 17172.5 A599.256 599.256 0.0 0 0 7344.85 17021.2 " />
<path d="M6946.84 15974 A599.27 599.27 0.0 0 0 6556.85 16118.2 " />
<path d="M7330.92 16112.3 A600 600 0.0 0 0 6946.85 15973.2 " />
<path d="M6597.58 16085.4 A600 600 0.0 0 0 6346.85 16573.2 " />
<path d="M6346.85 16573.5 A600 600 0.0 0 0 6586.85 17053.2 " />
<path d="M7546.14 16573.1 A599.294 599.294 0.0 0 0 7314.85 16100.2 " />
<path d="M7315.42 17046.7 A600 600 0.0 0 0 7546.85 16573.2 " />
<path d="M6696.85 16573.2 A250 250 0.0 0 0 6946.85 16823.2 " />
<path d="M6546.85 16573.2 A400 400 0.0 0 0 6946.85 16973.2 " />
<path d="M7196.85 16573.2 A250 250 0.0 0 0 6946.85 16323.2 " />
<path d="M7346.85 16573.2 A400 400 0.0 0 0 6946.85 16173.2 " />
</g>
<g style="fill:#840084; fill-opacity:0.0; 
stroke:#840084; stroke-width:100; stroke-opacity:1; 
stroke-linecap:round; stroke-linejoin:round;">
<path d="M6433.69 15959.5 A800 800 0.0 0 0 6146.85 16573.2 " />
<path d="M6147.85 16573.6 A799 799 0.0 0 0 6570.85 17278.2 " />
<path d="M7745.82 16572.2 A798.972 798.972 0.0 0 0 7462.85 15963.2 " />
<path d="M7344.43 17267.4 A800 800 0.0 0 0 7746.85 16573.2 " />
<path d="M6567.58 17277.6 A800 800 0.0 0 0 6946.85 17373.2 " />
<path d="M6946.89 17372.8 A799.576 799.576 0.0 0 0 7365.85 17254.2 " />
<path d="M12840 15953
L11840 15953
" />
</g>
<g style="fill:#840084; fill-opacity:0.0; 
stroke:#840084; stroke-width:60; stroke-opacity:1; 
stroke-linecap:round; stroke-linejoin:round;">
<path d="M11956.5 17034.2 A600 600 0.0 0 0 12340.6 17173.2 " />
<path d="M12340.7 17172.5 A599.256 599.256 0.0 0 0 12738.6 17021.2 " />
<path d="M12340.5 15974 A599.27 599.27 0.0 0 0 11950.6 16118.2 " />
<path d="M12724.6 16112.3 A600 600 0.0 0 0 12340.6 15973.2 " />
<path d="M11991.3 16085.4 A600 600 0.0 0 0 11740.6 16573.2 " />
<path d="M11740.6 16573.5 A600 600 0.0 0 0 11980.6 17053.2 " />
<path d="M12939.8 16573.1 A599.294 599.294 0.0 0 0 12708.6 16100.2 " />
<path d="M12709.1 17046.7 A600 600 0.0 0 0 12940.6 16573.2 " />
<path d="M12090.6 16573.2 A250 250 0.0 0 0 12340.6 16823.2 " />
<path d="M11940.6 16573.2 A400 400 0.0 0 0 12340.6 16973.2 " />
<path d="M12590.6 16573.2 A250 250 0.0 0 0 12340.6 16323.2 " />
<path d="M12740.6 16573.2 A400 400 0.0 0 0 12340.6 16173.2 " />
</g>
<g style="fill:#840084; fill-opacity:0.0; 
stroke:#840084; stroke-width:100; stroke-opacity:1; 
stroke-linecap:round; stroke-linejoin:round;">
<path d="M11827.4 15959.5 A800 800 0.0 0 0 11540.6 16573.2 " />
<path d="M11541.6 16573.6 A799 799 0.0 0 0 11964.6 17278.2 " />
<path d="M13139.5 16572.2 A798.972 798.972 0.0 0 0 12856.6 15963.2 " />
<path d="M12738.1 17267.4 A800 800 0.0 0 0 13140.6 16573.2 " />
<path d="M11961.3 17277.6 A800 800 0.0 0 0 12340.6 17373.2 " />
<path d="M12340.6 17372.8 A799.576 799.576 0.0 0 0 12759.6 17254.2 " />
</g>
<g style="fill:#840084; fill-opacity:0.0; 
stroke:#840084; stroke-width:60; stroke-opacity:1; 
stroke-linecap:round; stroke-linejoin:round;">
<path d="M15671 20244
L15671 19244
" />
<path d="M15671 19244
L17671 19244
" />
<path d="M17671 19244
L17671 20244
" />
<path d="M17671 20244
L15671 20244
" />
</g>
<g style="fill:#840084; fill-opacity:0.0; 
stroke:#840084; stroke-width:120; stroke-opacity:1; 
stroke-linecap:round; stroke-linejoin:round;">
<path d="M1108 5694
L2108 5694
" />
<path d="M2108 5694
L2108 11694
" />
<path d="M2108 11694
L1108 11694
" />
<path d="M1108 11694
L1108 5694
" />
<path d="M1108 6694
L2108 6694
" />
</g>
<g style="fill:#840084; fill-opacity:0.0; 
stroke:#840084; stroke-width:50; stroke-opacity:1; 
stroke-linecap:round; stroke-linejoin:round;">
<path d="M12567 21857
L12567 20607
" />
<path d="M14592 21857
L14592 20607
" />
<path d="M14592 20607
L12192 20607
" />
<path d="M12192 20607
L12192 21857
" />
<path d="M12192 21857
L14592 21857
" />
<path d="M12101 25091
L12101 23841
" />
<path d="M14126 25091
L14126 23841
" />
<path d="M14126 23841
L11726 23841
" />
<path d="M11726 23841
L11726 25091
" />
<path d="M11726 25091
L14126 25091
" />
<path d="M13558 22305
L13558 23605
" />
<path d="M12258 22305
L12258 23605
" />
<path d="M12008 22305
L12008 23605
" />
<path d="M12008 23605
L13808 23605
" />
<path d="M13808 23605
L13808 22305
" />
<path d="M13808 22305
L12008 22305
" />
<path d="M12883 20504
L12883 19204
" />
<path d="M14183 20504
L14183 19204
" />
<path d="M14433 20504
L14433 19204
" />
<path d="M14433 19204
L12633 19204
" />
<path d="M12633 19204
L12633 20504
" />
<path d="M12633 20504
L14433 20504
" />
<path d="M6119 8460
L6719 8460
" />
<path d="M6176 9089
L6148 9060
L6119 8975
L6119 8918
L6148 8832
L6205 8775
L6262 8746
L6376 8718
L6462 8718
L6576 8746
L6633 8775
L6690 8832
L6719 8918
L6719 8975
L6690 9060
L6662 9089
" />
<path d="M6119 9660
L6119 9318
" />
<path d="M6119 9489
L6719 9489
L6633 9432
L6576 9375
L6548 9318
" />
<path d="M5290 6689
L5290 6927
" />
<path d="M5119 6641
L5719 6808
L5119 6975
" />
<path d="M5719 7070
L5719 7356
" />
<path d="M5119 7213
L5719 7213
" />
<path d="M5719 7451
L5719 7737
" />
<path d="M5119 7594
L5719 7594
" />
<path d="M5119 7903
L5719 7903
" />
<path d="M5119 8141
L5719 8141
L5119 8427
L5719 8427
" />
<path d="M5405 8760
L5119 8760
" />
<path d="M5719 8594
L5405 8760
L5719 8927
" />
<path d="M5462 9165
L5490 9118
L5519 9094
L5576 9070
L5605 9070
L5662 9094
L5690 9118
L5719 9165
L5719 9260
L5690 9308
L5662 9332
L5605 9356
L5576 9356
L5519 9332
L5490 9308
L5462 9260
L5462 9165
L5433 9118
L5405 9094
L5348 9070
L5233 9070
L5176 9094
L5148 9118
L5119 9165
L5119 9260
L5148 9308
L5176 9332
L5233 9356
L5348 9356
L5405 9332
L5433 9308
L5462 9260
" />
<path d="M5719 9784
L5719 9689
L5690 9641
L5662 9618
L5576 9570
L5462 9546
L5233 9546
L5176 9570
L5148 9594
L5119 9641
L5119 9737
L5148 9784
L5176 9808
L5233 9832
L5376 9832
L5433 9808
L5462 9784
L5490 9737
L5490 9641
L5462 9594
L5433 9570
L5376 9546
" />
<path d="M5119 10308
L5119 10022
" />
<path d="M5119 10165
L5719 10165
L5633 10118
L5576 10070
L5548 10022
" />
<path d="M5348 10522
L5348 10903
" />
<path d="M5148 11118
L5119 11189
L5119 11308
L5148 11356
L5176 11379
L5233 11403
L5290 11403
L5348 11379
L5376 11356
L5405 11308
L5433 11213
L5462 11165
L5490 11141
L5548 11118
L5605 11118
L5662 11141
L5690 11165
L5719 11213
L5719 11332
L5690 11403
" />
<path d="M3375 20407
L3275 20265
" />
<path d="M3203 20407
L3203 20107
L3318 20107
L3346 20122
L3360 20136
L3375 20165
L3375 20207
L3360 20236
L3346 20250
L3318 20265
L3203 20265
" />
<path d="M3632 20207
L3632 20407
" />
<path d="M3560 20093
L3489 20307
L3675 20307
" />
<path d="M3551 21706
L3451 21563
" />
<path d="M3379 21706
L3379 21406
L3493 21406
L3522 21420
L3536 21435
L3551 21463
L3551 21506
L3536 21535
L3522 21549
L3493 21563
L3379 21563
" />
<path d="M3651 21406
L3836 21406
L3736 21520
L3779 21520
L3808 21535
L3822 21549
L3836 21577
L3836 21649
L3822 21677
L3808 21692
L3779 21706
L3693 21706
L3665 21692
L3651 21677
" />
<path d="M5071 3579
L4971 3436
" />
<path d="M4900 3579
L4900 3279
L5014 3279
L5043 3293
L5057 3308
L5071 3336
L5071 3379
L5057 3408
L5043 3422
L5014 3436
L4900 3436
" />
<path d="M5185 3308
L5200 3293
L5228 3279
L5300 3279
L5328 3293
L5343 3308
L5357 3336
L5357 3365
L5343 3408
L5171 3579
L5357 3579
" />
<path d="M3627 1385
L3527 1242
" />
<path d="M3456 1385
L3456 1085
L3570 1085
L3599 1099
L3613 1113
L3627 1142
L3627 1185
L3613 1213
L3599 1228
L3570 1242
L3456 1242
" />
<path d="M3913 1385
L3742 1385
" />
<path d="M3827 1385
L3827 1085
L3799 1128
L3770 1156
L3742 1170
" />
</g>
<g style="fill:#840084; fill-opacity:0.0; 
stroke:#840084; stroke-width:80; stroke-opacity:1; 
stroke-linecap:round; stroke-linejoin:round;">
<path d="M13444 9588
L13420 9659
L13420 9778
L13444 9826
L13467 9850
L13515 9874
L13563 9874
L13610 9850
L13634 9826
L13658 9778
L13682 9683
L13705 9635
L13729 9612
L13777 9588
L13824 9588
L13872 9612
L13896 9635
L13920 9683
L13920 9802
L13896 9874
" />
<path d="M13920 10040
L13420 10159
L13777 10255
L13420 10350
L13920 10469
" />
<path d="M13420 10921
L13420 10635
" />
<path d="M13420 10778
L13920 10778
L13848 10731
L13801 10683
L13777 10635
" />
<path d="M18144 8524
L18120 8595
L18120 8714
L18144 8762
L18167 8785
L18215 8809
L18263 8809
L18310 8785
L18334 8762
L18358 8714
L18382 8619
L18405 8571
L18429 8547
L18477 8524
L18524 8524
L18572 8547
L18596 8571
L18620 8619
L18620 8738
L18596 8809
" />
<path d="M18620 8976
L18120 9095
L18477 9190
L18120 9285
L18620 9405
" />
<path d="M18072 9476
L18072 9857
" />
<path d="M18120 9976
L18620 9976
L18620 10166
L18596 10214
L18572 10238
L18524 10262
L18453 10262
L18405 10238
L18382 10214
L18358 10166
L18358 9976
" />
<path d="M18620 10476
L18215 10476
L18167 10500
L18144 10524
L18120 10571
L18120 10666
L18144 10714
L18167 10738
L18215 10762
L18620 10762
" />
<path d="M18144 10976
L18120 11047
L18120 11166
L18144 11214
L18167 11238
L18215 11262
L18263 11262
L18310 11238
L18334 11214
L18358 11166
L18382 11071
L18405 11024
L18429 11000
L18477 10976
L18524 10976
L18572 11000
L18596 11024
L18620 11071
L18620 11190
L18596 11262
" />
<path d="M18120 11476
L18620 11476
" />
<path d="M18382 11476
L18382 11762
" />
<path d="M18120 11762
L18620 11762
" />
</g>
<g style="fill:#840084; fill-opacity:0.0; 
stroke:#840084; stroke-width:35; stroke-opacity:1; 
stroke-linecap:round; stroke-linejoin:round;">
<path d="M8559 20349
L8559 20049
L8631 20049
L8674 20064
L8702 20092
L8716 20121
L8731 20178
L8731 20221
L8716 20278
L8702 20307
L8674 20335
L8631 20349
L8559 20349
" />
<path d="M8845 20078
L8859 20064
L8888 20049
L8959 20049
L8988 20064
L9002 20078
L9016 20107
L9016 20135
L9002 20178
L8831 20349
L9016 20349
" />
<path d="M9274 20149
L9274 20349
" />
<path d="M9202 20035
L9131 20249
L9316 20249
" />
<path d="M9431 18249
L9288 18249
L9288 17949
" />
<path d="M9531 18092
L9631 18092
" />
<path d="M9674 18249
L9531 18249
L9531 17949
L9674 17949
" />
<path d="M9802 18249
L9802 17949
L9874 17949
L9916 17964
L9945 17992
L9959 18021
L9974 18078
L9974 18121
L9959 18178
L9945 18207
L9916 18235
L9874 18249
L9802 18249
" />
<path d="M6025 3342
L6025 3042
L6096 3042
L6139 3056
L6168 3084
L6182 3113
L6196 3170
L6196 3213
L6182 3270
L6168 3299
L6139 3327
L6096 3342
L6025 3342
" />
<path d="M6468 3042
L6325 3042
L6311 3184
L6325 3170
L6353 3156
L6425 3156
L6453 3170
L6468 3184
L6482 3213
L6482 3284
L6468 3313
L6453 3327
L6425 3342
L6353 3342
L6325 3327
L6311 3313
" />
<path d="M6753 1242
L6611 1242
L6611 942
" />
<path d="M6853 1084
L6953 1084
" />
<path d="M6996 1242
L6853 1242
L6853 942
L6996 942
" />
<path d="M7125 1242
L7125 942
L7196 942
L7239 956
L7268 984
L7282 1013
L7296 1070
L7296 1113
L7282 1170
L7268 1199
L7239 1227
L7196 1242
L7125 1242
" />
<path d="M317 15608
L617 15608
L617 15680
L603 15723
L574 15751
L546 15766
L488 15780
L446 15780
L388 15766
L360 15751
L331 15723
L317 15680
L317 15608
" />
<path d="M588 15894
L603 15908
L617 15937
L617 16008
L603 16037
L588 16051
L560 16066
L531 16066
L488 16051
L317 15880
L317 16066
" />
<path d="M617 16166
L617 16351
L503 16251
L503 16294
L488 16323
L474 16337
L446 16351
L374 16351
L346 16337
L331 16323
L317 16294
L317 16208
L331 16180
L346 16166
" />
<path d="M2417 16480
L2417 16337
L2717 16337
" />
<path d="M2574 16580
L2574 16680
" />
<path d="M2417 16723
L2417 16580
L2717 16580
L2717 16723
" />
<path d="M2417 16851
L2717 16851
L2717 16923
L2703 16966
L2674 16994
L2646 17008
L2588 17023
L2546 17023
L2488 17008
L2460 16994
L2431 16966
L2417 16923
L2417 16851
" />
<path d="M3033 15608
L3333 15608
L3333 15680
L3319 15723
L3291 15751
L3262 15766
L3205 15780
L3162 15780
L3105 15766
L3076 15751
L3048 15723
L3033 15680
L3033 15608
" />
<path d="M3305 15894
L3319 15908
L3333 15937
L3333 16008
L3319 16037
L3305 16051
L3276 16066
L3248 16066
L3205 16051
L3033 15880
L3033 16066
" />
<path d="M3305 16180
L3319 16194
L3333 16223
L3333 16294
L3319 16323
L3305 16337
L3276 16351
L3248 16351
L3205 16337
L3033 16166
L3033 16351
" />
<path d="M5133 16480
L5133 16337
L5433 16337
" />
<path d="M5291 16580
L5291 16680
" />
<path d="M5133 16723
L5133 16580
L5433 16580
L5433 16723
" />
<path d="M5133 16851
L5433 16851
L5433 16923
L5419 16966
L5391 16994
L5362 17008
L5305 17023
L5262 17023
L5205 17008
L5176 16994
L5148 16966
L5133 16923
L5133 16851
" />
<path d="M13782 15608
L14082 15608
L14082 15680
L14067 15723
L14039 15751
L14010 15766
L13953 15780
L13910 15780
L13853 15766
L13824 15751
L13796 15723
L13782 15680
L13782 15608
" />
<path d="M13782 16066
L13782 15894
" />
<path d="M13782 15980
L14082 15980
L14039 15951
L14010 15923
L13996 15894
" />
<path d="M13953 16237
L13967 16208
L13982 16194
L14010 16180
L14024 16180
L14053 16194
L14067 16208
L14082 16237
L14082 16294
L14067 16323
L14053 16337
L14024 16351
L14010 16351
L13982 16337
L13967 16323
L13953 16294
L13953 16237
L13939 16208
L13924 16194
L13896 16180
L13839 16180
L13810 16194
L13796 16208
L13782 16237
L13782 16294
L13796 16323
L13810 16337
L13839 16351
L13896 16351
L13924 16337
L13939 16323
L13953 16294
" />
<path d="M15882 16480
L15882 16337
L16182 16337
" />
<path d="M16039 16580
L16039 16680
" />
<path d="M15882 16723
L15882 16580
L16182 16580
L16182 16723
" />
<path d="M15882 16851
L16182 16851
L16182 16923
L16167 16966
L16139 16994
L16110 17008
L16053 17023
L16010 17023
L15953 17008
L15924 16994
L15896 16966
L15882 16923
L15882 16851
" />
<path d="M16459 15608
L16759 15608
L16759 15680
L16744 15723
L16716 15751
L16687 15766
L16630 15780
L16587 15780
L16530 15766
L16502 15751
L16473 15723
L16459 15680
L16459 15608
" />
<path d="M16459 16066
L16459 15894
" />
<path d="M16459 15980
L16759 15980
L16716 15951
L16687 15923
L16673 15894
" />
<path d="M16759 16166
L16759 16366
L16459 16237
" />
<path d="M18559 16480
L18559 16337
L18859 16337
" />
<path d="M18716 16580
L18716 16680
" />
<path d="M18559 16723
L18559 16580
L18859 16580
L18859 16723
" />
<path d="M18559 16851
L18859 16851
L18859 16923
L18844 16966
L18816 16994
L18787 17008
L18730 17023
L18687 17023
L18630 17008
L18602 16994
L18573 16966
L18559 16923
L18559 16851
" />
<path d="M6695 23286
L6995 23286
L6995 23357
L6981 23400
L6952 23428
L6923 23443
L6866 23457
L6823 23457
L6766 23443
L6738 23428
L6709 23400
L6695 23357
L6695 23286
" />
<path d="M6966 23571
L6981 23586
L6995 23614
L6995 23686
L6981 23714
L6966 23728
L6938 23743
L6909 23743
L6866 23728
L6695 23557
L6695 23743
" />
<path d="M6695 23886
L6695 23943
L6709 23971
L6723 23986
L6766 24014
L6823 24028
L6938 24028
L6966 24014
L6981 24000
L6995 23971
L6995 23914
L6981 23886
L6966 23871
L6938 23857
L6866 23857
L6838 23871
L6823 23886
L6809 23914
L6809 23971
L6823 24000
L6838 24014
L6866 24028
" />
<path d="M8795 24157
L8795 24014
L9095 24014
" />
<path d="M8952 24257
L8952 24357
" />
<path d="M8795 24400
L8795 24257
L9095 24257
L9095 24400
" />
<path d="M8795 24528
L9095 24528
L9095 24600
L9081 24643
L9052 24671
L9023 24686
L8966 24700
L8923 24700
L8866 24686
L8838 24671
L8809 24643
L8795 24600
L8795 24528
" />
<path d="M8559 30034
L8559 29734
L8631 29734
L8674 29749
L8702 29777
L8716 29806
L8731 29863
L8731 29906
L8716 29963
L8702 29992
L8674 30020
L8631 30034
L8559 30034
" />
<path d="M8845 29763
L8859 29749
L8888 29734
L8959 29734
L8988 29749
L9002 29763
L9016 29792
L9016 29820
L9002 29863
L8831 30034
L9016 30034
" />
<path d="M9188 29863
L9159 29849
L9145 29834
L9131 29806
L9131 29792
L9145 29763
L9159 29749
L9188 29734
L9245 29734
L9274 29749
L9288 29763
L9302 29792
L9302 29806
L9288 29834
L9274 29849
L9245 29863
L9188 29863
L9159 29877
L9145 29892
L9131 29920
L9131 29977
L9145 30006
L9159 30020
L9188 30034
L9245 30034
L9274 30020
L9288 30006
L9302 29977
L9302 29920
L9288 29892
L9274 29877
L9245 29863
" />
<path d="M9431 27934
L9288 27934
L9288 27634
" />
<path d="M9531 27777
L9631 27777
" />
<path d="M9674 27934
L9531 27934
L9531 27634
L9674 27634
" />
<path d="M9802 27934
L9802 27634
L9874 27634
L9916 27649
L9945 27677
L9959 27706
L9974 27763
L9974 27806
L9959 27863
L9945 27892
L9916 27920
L9874 27934
L9802 27934
" />
<path d="M8559 27633
L8559 27333
L8631 27333
L8674 27347
L8702 27376
L8716 27404
L8731 27461
L8731 27504
L8716 27561
L8702 27590
L8674 27619
L8631 27633
L8559 27633
" />
<path d="M8845 27361
L8859 27347
L8888 27333
L8959 27333
L8988 27347
L9002 27361
L9016 27390
L9016 27419
L9002 27461
L8831 27633
L9016 27633
" />
<path d="M9116 27333
L9316 27333
L9188 27633
" />
<path d="M9431 25533
L9288 25533
L9288 25233
" />
<path d="M9531 25376
L9631 25376
" />
<path d="M9674 25533
L9531 25533
L9531 25233
L9674 25233
" />
<path d="M9802 25533
L9802 25233
L9874 25233
L9916 25247
L9945 25276
L9959 25304
L9974 25361
L9974 25404
L9959 25461
L9945 25490
L9916 25519
L9874 25533
L9802 25533
" />
<path d="M2404 17341
L2704 17341
L2704 17412
L2689 17455
L2661 17484
L2632 17498
L2575 17512
L2532 17512
L2475 17498
L2446 17484
L2418 17455
L2404 17412
L2404 17341
" />
<path d="M2704 17612
L2704 17798
L2589 17698
L2589 17741
L2575 17769
L2561 17784
L2532 17798
L2461 17798
L2432 17784
L2418 17769
L2404 17741
L2404 17655
L2418 17626
L2432 17612
" />
<path d="M2675 17912
L2689 17926
L2704 17955
L2704 18026
L2689 18055
L2675 18069
L2646 18084
L2618 18084
L2575 18069
L2404 17898
L2404 18084
" />
<path d="M4504 18212
L4504 18069
L4804 18069
" />
<path d="M4661 18312
L4661 18412
" />
<path d="M4504 18455
L4504 18312
L4804 18312
L4804 18455
" />
<path d="M4504 18584
L4804 18584
L4804 18655
L4789 18698
L4761 18726
L4732 18741
L4675 18755
L4632 18755
L4575 18741
L4546 18726
L4518 18698
L4504 18655
L4504 18584
" />
<path d="M4530 18640
L4830 18640
L4830 18711
L4815 18754
L4787 18783
L4758 18797
L4701 18811
L4658 18811
L4601 18797
L4572 18783
L4544 18754
L4530 18711
L4530 18640
" />
<path d="M4830 18911
L4830 19097
L4715 18997
L4715 19040
L4701 19069
L4687 19083
L4658 19097
L4587 19097
L4558 19083
L4544 19069
L4530 19040
L4530 18954
L4544 18926
L4558 18911
" />
<path d="M4530 19383
L4530 19211
" />
<path d="M4530 19297
L4830 19297
L4787 19269
L4758 19240
L4744 19211
" />
<path d="M6630 19511
L6630 19369
L6930 19369
" />
<path d="M6787 19611
L6787 19711
" />
<path d="M6630 19754
L6630 19611
L6930 19611
L6930 19754
" />
<path d="M6630 19883
L6930 19883
L6930 19954
L6915 19997
L6887 20026
L6858 20040
L6801 20054
L6758 20054
L6701 20040
L6672 20026
L6644 19997
L6630 19954
L6630 19883
" />
<path d="M6026 20648
L6326 20648
L6326 20719
L6311 20762
L6283 20791
L6254 20805
L6197 20819
L6154 20819
L6097 20805
L6068 20791
L6040 20762
L6026 20719
L6026 20648
" />
<path d="M6326 20919
L6326 21105
L6211 21005
L6211 21048
L6197 21076
L6183 21091
L6154 21105
L6083 21105
L6054 21091
L6040 21076
L6026 21048
L6026 20962
L6040 20934
L6054 20919
" />
<path d="M6326 21291
L6326 21319
L6311 21348
L6297 21362
L6268 21376
L6211 21391
L6140 21391
L6083 21376
L6054 21362
L6040 21348
L6026 21319
L6026 21291
L6040 21262
L6054 21248
L6083 21234
L6140 21219
L6211 21219
L6268 21234
L6297 21248
L6311 21262
L6326 21291
" />
<path d="M8126 21519
L8126 21376
L8426 21376
" />
<path d="M8283 21619
L8283 21719
" />
<path d="M8126 21762
L8126 21619
L8426 21619
L8426 21762
" />
<path d="M8126 21891
L8426 21891
L8426 21962
L8411 22005
L8383 22034
L8354 22048
L8297 22062
L8254 22062
L8197 22048
L8168 22034
L8140 22005
L8126 21962
L8126 21891
" />
<path d="M8559 25192
L8559 24892
L8631 24892
L8674 24906
L8702 24935
L8716 24963
L8731 25020
L8731 25063
L8716 25120
L8702 25149
L8674 25178
L8631 25192
L8559 25192
" />
<path d="M8845 24920
L8859 24906
L8888 24892
L8959 24892
L8988 24906
L9002 24920
L9016 24949
L9016 24978
L9002 25020
L8831 25192
L9016 25192
" />
<path d="M9274 24892
L9216 24892
L9188 24906
L9174 24920
L9145 24963
L9131 25020
L9131 25135
L9145 25163
L9159 25178
L9188 25192
L9245 25192
L9274 25178
L9288 25163
L9302 25135
L9302 25063
L9288 25035
L9274 25020
L9245 25006
L9188 25006
L9159 25020
L9145 25035
L9131 25063
" />
<path d="M9431 23092
L9288 23092
L9288 22792
" />
<path d="M9531 22935
L9631 22935
" />
<path d="M9674 23092
L9531 23092
L9531 22792
L9674 22792
" />
<path d="M9802 23092
L9802 22792
L9874 22792
L9916 22806
L9945 22835
L9959 22863
L9974 22920
L9974 22963
L9959 23020
L9945 23049
L9916 23078
L9874 23092
L9802 23092
" />
<path d="M8559 22751
L8559 22451
L8631 22451
L8674 22465
L8702 22494
L8716 22522
L8731 22580
L8731 22622
L8716 22680
L8702 22708
L8674 22737
L8631 22751
L8559 22751
" />
<path d="M8845 22480
L8859 22465
L8888 22451
L8959 22451
L8988 22465
L9002 22480
L9016 22508
L9016 22537
L9002 22580
L8831 22751
L9016 22751
" />
<path d="M9288 22451
L9145 22451
L9131 22594
L9145 22580
L9174 22565
L9245 22565
L9274 22580
L9288 22594
L9302 22622
L9302 22694
L9288 22722
L9274 22737
L9245 22751
L9174 22751
L9145 22737
L9131 22722
" />
<path d="M9431 20651
L9288 20651
L9288 20351
" />
<path d="M9531 20494
L9631 20494
" />
<path d="M9674 20651
L9531 20651
L9531 20351
L9674 20351
" />
<path d="M9802 20651
L9802 20351
L9874 20351
L9916 20365
L9945 20394
L9959 20422
L9974 20480
L9974 20522
L9959 20580
L9945 20608
L9916 20637
L9874 20651
L9802 20651
" />
<path d="M8559 17908
L8559 17608
L8631 17608
L8674 17623
L8702 17651
L8716 17680
L8731 17737
L8731 17780
L8716 17837
L8702 17866
L8674 17894
L8631 17908
L8559 17908
" />
<path d="M8845 17637
L8859 17623
L8888 17608
L8959 17608
L8988 17623
L9002 17637
L9016 17666
L9016 17694
L9002 17737
L8831 17908
L9016 17908
" />
<path d="M9202 17608
L9231 17608
L9259 17623
L9274 17637
L9288 17666
L9302 17723
L9302 17794
L9288 17851
L9274 17880
L9259 17894
L9231 17908
L9202 17908
L9174 17894
L9159 17880
L9145 17851
L9131 17794
L9131 17723
L9145 17666
L9159 17637
L9174 17623
L9202 17608
" />
<path d="M9431 15808
L9288 15808
L9288 15508
" />
<path d="M9531 15651
L9631 15651
" />
<path d="M9674 15808
L9531 15808
L9531 15508
L9674 15508
" />
<path d="M9802 15808
L9802 15508
L9874 15508
L9916 15523
L9945 15551
L9959 15580
L9974 15637
L9974 15680
L9959 15737
L9945 15766
L9916 15794
L9874 15808
L9802 15808
" />
<path d="M8702 3342
L8702 3042
L8774 3042
L8816 3056
L8845 3084
L8859 3113
L8874 3170
L8874 3213
L8859 3270
L8845 3299
L8816 3327
L8774 3342
L8702 3342
" />
<path d="M9131 3142
L9131 3342
" />
<path d="M9059 3027
L8988 3242
L9174 3242
" />
<path d="M9431 1242
L9288 1242
L9288 942
" />
<path d="M9531 1084
L9631 1084
" />
<path d="M9674 1242
L9531 1242
L9531 942
L9674 942
" />
<path d="M9802 1242
L9802 942
L9874 942
L9916 956
L9945 984
L9959 1013
L9974 1070
L9974 1113
L9959 1170
L9945 1199
L9916 1227
L9874 1242
L9802 1242
" />
<path d="M11419 3342
L11419 3042
L11490 3042
L11533 3056
L11561 3084
L11576 3113
L11590 3170
L11590 3213
L11576 3270
L11561 3299
L11533 3327
L11490 3342
L11419 3342
" />
<path d="M11690 3042
L11876 3042
L11776 3156
L11819 3156
L11847 3170
L11861 3184
L11876 3213
L11876 3284
L11861 3313
L11847 3327
L11819 3342
L11733 3342
L11704 3327
L11690 3313
" />
<path d="M12147 1242
L12004 1242
L12004 942
" />
<path d="M12247 1084
L12347 1084
" />
<path d="M12390 1242
L12247 1242
L12247 942
L12390 942
" />
<path d="M12519 1242
L12519 942
L12590 942
L12633 956
L12661 984
L12676 1013
L12690 1070
L12690 1113
L12676 1170
L12661 1199
L12633 1227
L12590 1242
L12519 1242
" />
<path d="M8702 5782
L8702 5482
L8774 5482
L8816 5497
L8845 5525
L8859 5554
L8874 5611
L8874 5654
L8859 5711
L8845 5740
L8816 5768
L8774 5782
L8702 5782
" />
<path d="M9045 5611
L9016 5597
L9002 5582
L8988 5554
L8988 5540
L9002 5511
L9016 5497
L9045 5482
L9102 5482
L9131 5497
L9145 5511
L9159 5540
L9159 5554
L9145 5582
L9131 5597
L9102 5611
L9045 5611
L9016 5625
L9002 5640
L8988 5668
L8988 5725
L9002 5754
L9016 5768
L9045 5782
L9102 5782
L9131 5768
L9145 5754
L9159 5725
L9159 5668
L9145 5640
L9131 5625
L9102 5611
" />
<path d="M9431 3682
L9288 3682
L9288 3382
" />
<path d="M9531 3525
L9631 3525
" />
<path d="M9674 3682
L9531 3682
L9531 3382
L9674 3382
" />
<path d="M9802 3682
L9802 3382
L9874 3382
L9916 3397
L9945 3425
L9959 3454
L9974 3511
L9974 3554
L9959 3611
L9945 3640
L9916 3668
L9874 3682
L9802 3682
" />
<path d="M631 3342
L631 3042
L703 3042
L746 3056
L774 3084
L788 3113
L803 3170
L803 3213
L788 3270
L774 3299
L746 3327
L703 3342
L631 3342
" />
<path d="M903 3042
L1103 3042
L974 3342
" />
<path d="M1360 1242
L1217 1242
L1217 942
" />
<path d="M1460 1084
L1560 1084
" />
<path d="M1603 1242
L1460 1242
L1460 942
L1603 942
" />
<path d="M1731 1242
L1731 942
L1803 942
L1846 956
L1874 984
L1888 1013
L1903 1070
L1903 1113
L1888 1170
L1874 1199
L1846 1227
L1803 1242
L1731 1242
" />
<path d="M3348 3342
L3348 3042
L3419 3042
L3462 3056
L3491 3084
L3505 3113
L3519 3170
L3519 3213
L3505 3270
L3491 3299
L3462 3327
L3419 3342
L3348 3342
" />
<path d="M3776 3042
L3719 3042
L3691 3056
L3676 3070
L3648 3113
L3633 3170
L3633 3284
L3648 3313
L3662 3327
L3691 3342
L3748 3342
L3776 3327
L3791 3313
L3805 3284
L3805 3213
L3791 3184
L3776 3170
L3748 3156
L3691 3156
L3662 3170
L3648 3184
L3633 3213
" />
<path d="M4076 1242
L3933 1242
L3933 942
" />
<path d="M4176 1084
L4276 1084
" />
<path d="M4319 1242
L4176 1242
L4176 942
L4319 942
" />
<path d="M4448 1242
L4448 942
L4519 942
L4562 956
L4591 984
L4605 1013
L4619 1070
L4619 1113
L4605 1170
L4591 1199
L4562 1227
L4519 1242
L4448 1242
" />
<path d="M14096 3342
L14096 3042
L14167 3042
L14210 3056
L14239 3084
L14253 3113
L14267 3170
L14267 3213
L14253 3270
L14239 3299
L14210 3327
L14167 3342
L14096 3342
" />
<path d="M14382 3070
L14396 3056
L14424 3042
L14496 3042
L14524 3056
L14539 3070
L14553 3099
L14553 3127
L14539 3170
L14367 3342
L14553 3342
" />
<path d="M14824 1242
L14682 1242
L14682 942
" />
<path d="M14924 1084
L15024 1084
" />
<path d="M15067 1242
L14924 1242
L14924 942
L15067 942
" />
<path d="M15196 1242
L15196 942
L15267 942
L15310 956
L15339 984
L15353 1013
L15367 1070
L15367 1113
L15353 1170
L15339 1199
L15310 1227
L15267 1242
L15196 1242
" />
<path d="M16773 3342
L16773 3042
L16844 3042
L16887 3056
L16916 3084
L16930 3113
L16944 3170
L16944 3213
L16930 3270
L16916 3299
L16887 3327
L16844 3342
L16773 3342
" />
<path d="M17230 3342
L17059 3342
" />
<path d="M17144 3342
L17144 3042
L17116 3084
L17087 3113
L17059 3127
" />
<path d="M17502 1242
L17359 1242
L17359 942
" />
<path d="M17602 1084
L17702 1084
" />
<path d="M17744 1242
L17602 1242
L17602 942
L17744 942
" />
<path d="M17873 1242
L17873 942
L17944 942
L17987 956
L18016 984
L18030 1013
L18044 1070
L18044 1113
L18030 1170
L18016 1199
L17987 1227
L17944 1242
L17873 1242
" />
<path d="M10081 8325
L10381 8325
L10381 8396
L10366 8439
L10338 8468
L10309 8482
L10252 8496
L10209 8496
L10152 8482
L10124 8468
L10095 8439
L10081 8396
L10081 8325
" />
<path d="M10081 8782
L10081 8611
" />
<path d="M10081 8696
L10381 8696
L10338 8668
L10309 8639
L10295 8611
" />
<path d="M10381 8882
L10381 9068
L10266 8968
L10266 9011
L10252 9039
L10238 9054
L10209 9068
L10138 9068
L10109 9054
L10095 9039
L10081 9011
L10081 8925
L10095 8896
L10109 8882
" />
<path d="M12181 9196
L12181 9054
L12481 9054
" />
<path d="M12338 9296
L12338 9396
" />
<path d="M12181 9439
L12181 9296
L12481 9296
L12481 9439
" />
<path d="M12181 9568
L12481 9568
L12481 9639
L12466 9682
L12438 9711
L12409 9725
L12352 9739
L12309 9739
L12252 9725
L12224 9711
L12195 9682
L12181 9639
L12181 9568
" />
<path d="M8559 15467
L8559 15167
L8631 15167
L8674 15182
L8702 15210
L8716 15239
L8731 15296
L8731 15339
L8716 15396
L8702 15425
L8674 15453
L8631 15467
L8559 15467
" />
<path d="M9016 15467
L8845 15467
" />
<path d="M8931 15467
L8931 15167
L8902 15210
L8874 15239
L8845 15253
" />
<path d="M9131 15196
L9145 15182
L9174 15167
L9245 15167
L9274 15182
L9288 15196
L9302 15225
L9302 15253
L9288 15296
L9116 15467
L9302 15467
" />
<path d="M9431 13367
L9288 13367
L9288 13067
" />
<path d="M9531 13210
L9631 13210
" />
<path d="M9674 13367
L9531 13367
L9531 13067
L9674 13067
" />
<path d="M9802 13367
L9802 13067
L9874 13067
L9916 13082
L9945 13110
L9959 13139
L9974 13196
L9974 13239
L9959 13296
L9945 13325
L9916 13353
L9874 13367
L9802 13367
" />
<path d="M8559 13066
L8559 12766
L8631 12766
L8674 12780
L8702 12809
L8716 12837
L8731 12894
L8731 12937
L8716 12994
L8702 13023
L8674 13052
L8631 13066
L8559 13066
" />
<path d="M9016 13066
L8845 13066
" />
<path d="M8931 13066
L8931 12766
L8902 12809
L8874 12837
L8845 12852
" />
<path d="M9302 13066
L9131 13066
" />
<path d="M9216 13066
L9216 12766
L9188 12809
L9159 12837
L9131 12852
" />
<path d="M9431 10966
L9288 10966
L9288 10666
" />
<path d="M9531 10809
L9631 10809
" />
<path d="M9674 10966
L9531 10966
L9531 10666
L9674 10666
" />
<path d="M9802 10966
L9802 10666
L9874 10666
L9916 10680
L9945 10709
L9959 10737
L9974 10794
L9974 10837
L9959 10894
L9945 10923
L9916 10952
L9874 10966
L9802 10966
" />
<path d="M14543 5074
L14543 4774
L14615 4774
L14658 4788
L14686 4817
L14701 4845
L14715 4902
L14715 4945
L14701 5002
L14686 5031
L14658 5060
L14615 5074
L14543 5074
" />
<path d="M15001 5074
L14829 5074
" />
<path d="M14915 5074
L14915 4774
L14886 4817
L14858 4845
L14829 4860
" />
<path d="M15258 4774
L15201 4774
L15172 4788
L15158 4802
L15129 4845
L15115 4902
L15115 5017
L15129 5045
L15143 5060
L15172 5074
L15229 5074
L15258 5060
L15272 5045
L15286 5017
L15286 4945
L15272 4917
L15258 4902
L15229 4888
L15172 4888
L15143 4902
L15129 4917
L15115 4945
" />
<path d="M15415 2974
L15272 2974
L15272 2674
" />
<path d="M15515 2817
L15615 2817
" />
<path d="M15658 2974
L15515 2974
L15515 2674
L15658 2674
" />
<path d="M15786 2974
L15786 2674
L15858 2674
L15901 2688
L15929 2717
L15943 2745
L15958 2802
L15958 2845
L15943 2902
L15929 2931
L15901 2960
L15858 2974
L15786 2974
" />
<path d="M12417 6373
L12417 6073
L12489 6073
L12532 6087
L12560 6116
L12575 6144
L12589 6202
L12589 6244
L12575 6302
L12560 6330
L12532 6359
L12489 6373
L12417 6373
" />
<path d="M12875 6373
L12703 6373
" />
<path d="M12789 6373
L12789 6073
L12760 6116
L12732 6144
L12703 6159
" />
<path d="M13146 6073
L13003 6073
L12989 6216
L13003 6202
L13032 6187
L13103 6187
L13132 6202
L13146 6216
L13160 6244
L13160 6316
L13146 6344
L13132 6359
L13103 6373
L13032 6373
L13003 6359
L12989 6344
" />
<path d="M13289 4273
L13146 4273
L13146 3973
" />
<path d="M13389 4116
L13489 4116
" />
<path d="M13532 4273
L13389 4273
L13389 3973
L13532 3973
" />
<path d="M13660 4273
L13660 3973
L13732 3973
L13775 3987
L13803 4016
L13817 4044
L13832 4102
L13832 4144
L13817 4202
L13803 4230
L13775 4259
L13732 4273
L13660 4273
" />
<path d="M10921 8381
L10921 8081
L10993 8081
L11036 8095
L11064 8124
L11079 8152
L11093 8209
L11093 8252
L11079 8309
L11064 8338
L11036 8367
L10993 8381
L10921 8381
" />
<path d="M11379 8381
L11207 8381
" />
<path d="M11293 8381
L11293 8081
L11264 8124
L11236 8152
L11207 8167
" />
<path d="M11636 8181
L11636 8381
" />
<path d="M11564 8067
L11493 8281
L11679 8281
" />
<path d="M11793 6281
L11650 6281
L11650 5981
" />
<path d="M11893 6124
L11993 6124
" />
<path d="M12036 6281
L11893 6281
L11893 5981
L12036 5981
" />
<path d="M12164 6281
L12164 5981
L12236 5981
L12279 5995
L12307 6024
L12321 6052
L12336 6109
L12336 6152
L12321 6209
L12307 6238
L12279 6267
L12236 6281
L12164 6281
" />
<path d="M8559 10625
L8559 10325
L8631 10325
L8674 10339
L8702 10368
L8716 10396
L8731 10454
L8731 10496
L8716 10554
L8702 10582
L8674 10611
L8631 10625
L8559 10625
" />
<path d="M9016 10625
L8845 10625
" />
<path d="M8931 10625
L8931 10325
L8902 10368
L8874 10396
L8845 10411
" />
<path d="M9202 10325
L9231 10325
L9259 10339
L9274 10354
L9288 10382
L9302 10439
L9302 10511
L9288 10568
L9274 10596
L9259 10611
L9231 10625
L9202 10625
L9174 10611
L9159 10596
L9145 10568
L9131 10511
L9131 10439
L9145 10382
L9159 10354
L9174 10339
L9202 10325
" />
<path d="M9431 8525
L9288 8525
L9288 8225
" />
<path d="M9531 8368
L9631 8368
" />
<path d="M9674 8525
L9531 8525
L9531 8225
L9674 8225
" />
<path d="M9802 8525
L9802 8225
L9874 8225
L9916 8239
L9945 8268
L9959 8296
L9974 8354
L9974 8396
L9959 8454
L9945 8482
L9916 8511
L9874 8525
L9802 8525
" />
<path d="M8702 8184
L8702 7884
L8774 7884
L8816 7898
L8845 7927
L8859 7955
L8874 8013
L8874 8055
L8859 8113
L8845 8141
L8816 8170
L8774 8184
L8702 8184
" />
<path d="M9016 8184
L9074 8184
L9102 8170
L9116 8155
L9145 8113
L9159 8055
L9159 7941
L9145 7913
L9131 7898
L9102 7884
L9045 7884
L9016 7898
L9002 7913
L8988 7941
L8988 8013
L9002 8041
L9016 8055
L9045 8070
L9102 8070
L9131 8055
L9145 8041
L9159 8013
" />
<path d="M9431 6084
L9288 6084
L9288 5784
" />
<path d="M9531 5927
L9631 5927
" />
<path d="M9674 6084
L9531 6084
L9531 5784
L9674 5784
" />
<path d="M9802 6084
L9802 5784
L9874 5784
L9916 5798
L9945 5827
L9959 5855
L9974 5913
L9974 5955
L9959 6013
L9945 6041
L9916 6070
L9874 6084
L9802 6084
" />
<path d="M5711 15608
L6011 15608
L6011 15680
L5996 15723
L5968 15751
L5939 15766
L5882 15780
L5839 15780
L5782 15766
L5753 15751
L5725 15723
L5711 15680
L5711 15608
" />
<path d="M5982 15894
L5996 15908
L6011 15937
L6011 16008
L5996 16037
L5982 16051
L5953 16066
L5925 16066
L5882 16051
L5711 15880
L5711 16066
" />
<path d="M5711 16351
L5711 16180
" />
<path d="M5711 16266
L6011 16266
L5968 16237
L5939 16208
L5925 16180
" />
<path d="M7811 16480
L7811 16337
L8111 16337
" />
<path d="M7968 16580
L7968 16680
" />
<path d="M7811 16723
L7811 16580
L8111 16580
L8111 16723
" />
<path d="M7811 16851
L8111 16851
L8111 16923
L8096 16966
L8068 16994
L8039 17008
L7982 17023
L7939 17023
L7882 17008
L7853 16994
L7825 16966
L7811 16923
L7811 16851
" />
<path d="M11104 15608
L11404 15608
L11404 15680
L11390 15723
L11361 15751
L11333 15766
L11276 15780
L11233 15780
L11176 15766
L11147 15751
L11119 15723
L11104 15680
L11104 15608
" />
<path d="M11104 16066
L11104 15894
" />
<path d="M11104 15980
L11404 15980
L11361 15951
L11333 15923
L11319 15894
" />
<path d="M11104 16208
L11104 16266
L11119 16294
L11133 16308
L11176 16337
L11233 16351
L11347 16351
L11376 16337
L11390 16323
L11404 16294
L11404 16237
L11390 16208
L11376 16194
L11347 16180
L11276 16180
L11247 16194
L11233 16208
L11219 16237
L11219 16294
L11233 16323
L11247 16337
L11276 16351
" />
<path d="M13204 16480
L13204 16337
L13504 16337
" />
<path d="M13361 16580
L13361 16680
" />
<path d="M13204 16723
L13204 16580
L13504 16580
L13504 16723
" />
<path d="M13204 16851
L13504 16851
L13504 16923
L13490 16966
L13461 16994
L13433 17008
L13376 17023
L13333 17023
L13276 17008
L13247 16994
L13219 16966
L13204 16923
L13204 16851
" />
</g>
<g style="fill:#840084; fill-opacity:0.0; 
stroke:#840084; stroke-width:60; stroke-opacity:1; 
stroke-linecap:round; stroke-linejoin:round;">
<path d="M16449 19129
L16449 18829
L16564 18829
L16592 18844
L16606 18858
L16621 18886
L16621 18929
L16606 18958
L16592 18972
L16564 18986
L16449 18986
" />
<path d="M16735 18858
L16749 18844
L16778 18829
L16849 18829
L16878 18844
L16892 18858
L16906 18886
L16906 18915
L16892 18958
L16721 19129
L16906 19129
" />
</g>
<g style="fill:#840084; fill-opacity:0.0; 
stroke:#840084; stroke-width:80; stroke-opacity:1; 
stroke-linecap:round; stroke-linejoin:round;">
<path d="M2277 8399
L2677 8399
L2677 8551
L2658 8589
L2639 8609
L2601 8628
L2544 8628
L2505 8609
L2486 8589
L2467 8551
L2467 8399
" />
<path d="M2277 9009
L2277 8780
" />
<path d="M2277 8894
L2677 8894
L2620 8856
L2582 8818
L2563 8780
" />
</g>
<g style="fill:#840084; fill-opacity:0.0; 
stroke:#840084; stroke-width:59.0551; stroke-opacity:1; 
stroke-linecap:round; stroke-linejoin:round;">
<path d="M15851 19471
L16038 19340
" />
<path d="M15851 19246
L16245 19246
L16245 19396
L16226 19433
L16207 19452
L16170 19471
L16113 19471
L16076 19452
L16057 19433
L16038 19396
L16038 19246
" />
<path d="M16057 19640
L16057 19771
" />
<path d="M15851 19827
L15851 19640
L16245 19640
L16245 19827
" />
<path d="M16226 20202
L16245 20164
L16245 20108
L16226 20052
L16188 20014
L16151 19996
L16076 19977
L16020 19977
L15945 19996
L15907 20014
L15870 20052
L15851 20108
L15851 20146
L15870 20202
L15888 20221
L16020 20221
L16020 20146
" />
<path d="M16245 20389
L15926 20389
L15888 20408
L15870 20427
L15851 20464
L15851 20539
L15870 20577
L15888 20596
L15926 20614
L16245 20614
" />
<path d="M15851 21008
L15851 20783
" />
<path d="M15851 20896
L16245 20896
L16188 20858
L16151 20821
L16132 20783
" />
<path d="M15351 19805
L15351 19618
L15745 19618
" />
<path d="M15351 19937
L15745 19937
L15745 20086
L15726 20124
L15707 20143
L15670 20161
L15613 20161
L15576 20143
L15557 20124
L15538 20086
L15538 19937
" />
<path d="M15707 20311
L15726 20330
L15745 20368
L15745 20461
L15726 20499
L15707 20518
L15670 20536
L15632 20536
L15576 20518
L15351 20293
L15351 20536
" />
<path d="M15351 20724
L15351 20799
L15370 20836
L15388 20855
L15445 20893
L15520 20911
L15670 20911
L15707 20893
L15726 20874
L15745 20836
L15745 20761
L15726 20724
L15707 20705
L15670 20686
L15576 20686
L15538 20705
L15520 20724
L15501 20761
L15501 20836
L15520 20874
L15538 20893
L15576 20911
" />
<path d="M15576 21136
L15595 21099
L15613 21080
L15651 21061
L15670 21061
L15707 21080
L15726 21099
L15745 21136
L15745 21211
L15726 21249
L15707 21268
L15670 21286
L15651 21286
L15613 21268
L15595 21249
L15576 21211
L15576 21136
L15557 21099
L15538 21080
L15501 21061
L15426 21061
L15388 21080
L15370 21099
L15351 21136
L15351 21211
L15370 21249
L15388 21268
L15426 21286
L15501 21286
L15538 21268
L15557 21249
L15576 21211
" />
<path d="M15351 21661
L15351 21436
" />
<path d="M15351 21549
L15745 21549
L15688 21511
L15651 21474
L15632 21436
" />
<path d="M15463 21811
L15463 21999
" />
<path d="M15351 21774
L15745 21905
L15351 22036
" />
<path d="M15351 22167
L15745 22167
" />
<path d="M15351 22355
L15745 22355
L15463 22486
L15745 22617
L15351 22617
" />
</g>
<g style="fill:#840084; fill-opacity:0.0; 
stroke:#840084; stroke-width:47; stroke-opacity:1; 
stroke-linecap:round; stroke-linejoin:round;">
<path d="M13359 22152
L13350 22161
L13322 22171
L13303 22171
L13275 22161
L13256 22143
L13247 22124
L13237 22086
L13237 22058
L13247 22021
L13256 22002
L13275 21983
L13303 21974
L13322 21974
L13350 21983
L13359 21992
" />
<path d="M13547 22171
L13434 22171
" />
<path d="M13491 22171
L13491 21974
L13472 22002
L13453 22021
L13434 22030
" />
<path d="M12893 25386
L12884 25396
L12855 25405
L12837 25405
L12809 25396
L12790 25377
L12780 25358
L12771 25321
L12771 25293
L12780 25255
L12790 25236
L12809 25217
L12837 25208
L12855 25208
L12884 25217
L12893 25227
" />
<path d="M12968 25227
L12977 25217
L12996 25208
L13043 25208
L13062 25217
L13071 25227
L13081 25246
L13081 25264
L13071 25293
L12959 25405
L13081 25405
" />
<path d="M12875 22125
L12866 22135
L12838 22144
L12819 22144
L12791 22135
L12772 22116
L12763 22097
L12753 22060
L12753 22032
L12763 21994
L12772 21975
L12791 21957
L12819 21947
L12838 21947
L12866 21957
L12875 21966
" />
<path d="M13044 22013
L13044 22144
" />
<path d="M12997 21938
L12950 22078
L13072 22078
" />
<path d="M13500 20825
L13490 20834
L13462 20843
L13443 20843
L13415 20834
L13397 20815
L13387 20796
L13378 20759
L13378 20731
L13387 20693
L13397 20674
L13415 20656
L13443 20646
L13462 20646
L13490 20656
L13500 20665
" />
<path d="M13565 20646
L13687 20646
L13622 20721
L13650 20721
L13669 20731
L13678 20740
L13687 20759
L13687 20806
L13678 20825
L13669 20834
L13650 20843
L13594 20843
L13575 20834
L13565 20825
" />
<g >
</g>
</g>
<g style="fill:#000000; fill-opacity:0.0; 
stroke:#000000; stroke-width:47; stroke-opacity:1; 
stroke-linecap:round; stroke-linejoin:round;">
</g>
<g style="fill:#C2C200; fill-opacity:0.0; 
stroke:#C2C200; stroke-width:47; stroke-opacity:1; 
stroke-linecap:round; stroke-linejoin:round;">
</g>
<g style="fill:#C2C200; fill-opacity:0.0; 
stroke:#C2C200; stroke-width:39.3701; stroke-opacity:1; 
stroke-linecap:round; stroke-linejoin:round;">
<path d="M1710 19
L1907 19
" />
<path d="M17 1712
L1710 19
" />
<path d="M17 21122
L17 1712
" />
<path d="M8482 29586
L17 21122
" />
<path d="M10726 29586
L8482 29586
" />
<path d="M19230 21082
L10726 29586
" />
<path d="M19230 19980
L19230 21082
" />
<path d="M19230 1397
L19230 19980
" />
<path d="M17852 19
L19230 1397
" />
<path d="M1907 19
L17852 19
" />
<g >
</g>
<g >
</g>
<g >
</g>
<g >
</g>
<g >
</g>
<g >
</g>
<g >
</g>
<g >
</g>
<g >
</g>
<g >
</g>
<g >
</g>
<g >
</g>
<g >
</g>
<g >
</g>
<g >
</g>
<g >
</g>
<g >
</g>
<g >
</g>
<g >
</g>
<g >
</g>
<g >
</g>
<g >
</g>
<g >
</g>
<g >
</g>
<g >
</g>
<g >
</g>
<g >
</g>
<g >
</g>
<g >
</g>
<g >
</g>
<g >
</g>
<g >
</g>
<g >
</g>
<g >
</g>
<g >
</g>
<g >
</g>
<g >
</g>
<g >
</g>
<g >
</g>
<g >
</g>
<g >
</g>
<g >
</g>
<g >
</g>
<g >
</g>
<g >
</g>
<g >
</g>
</g> 
</svg>
