<?xml version="1.0" standalone="no"?>
 <!DOCTYPE svg PUBLIC "-//W3C//DTD SVG 1.1//EN" 
 "http://www.w3.org/Graphics/SVG/1.1/DTD/svg11.dtd"> 
<svg xmlns="http://www.w3.org/2000/svg" version="1.1" 
    width="4.8895cm" height="7.5184cm" viewBox="0 0 19250 29600 ">
<title>SVG Picture created as otit-B_SilkS.svg date 2020/01/31 17:29:41 </title>
  <desc>Picture generated by PCBNEW </desc>
<g style="fill:#000000; fill-opacity:1;stroke:#000000; stroke-opacity:1;
stroke-linecap:round; stroke-linejoin:round; "
 transform="translate(0 0) scale(1 1)">
</g>
<g style="fill:#000000; fill-opacity:0.0; 
stroke:#000000; stroke-width:-0.000393701; stroke-opacity:1; 
stroke-linecap:round; stroke-linejoin:round;">
</g>
<g style="fill:#840084; fill-opacity:0.0; 
stroke:#840084; stroke-width:-0.000393701; stroke-opacity:1; 
stroke-linecap:round; stroke-linejoin:round;">
</g>
<g style="fill:#840084; fill-opacity:0.0; 
stroke:#840084; stroke-width:50; stroke-opacity:1; 
stroke-linecap:round; stroke-linejoin:round;">
<path d="M14809 11546
L11909 11546
" />
<path d="M11909 6546
L14809 6546
" />
<path d="M14809 11546
L14809 6546
" />
<path d="M11909 6546
L11909 11546
" />
<path d="M13109 6546
L13109 7046
" />
<path d="M13109 7046
L13609 7046
" />
<path d="M13609 7046
L13609 6546
" />
<path d="M16824 19822
L16824 20722
" />
<path d="M16824 20722
L16174 20722
" />
<path d="M15474 19822
L14824 19822
" />
<path d="M14824 19822
L14824 20722
" />
<path d="M14824 20722
L15474 20722
" />
<path d="M16174 19822
L16824 19822
" />
<path d="M16648 21120
L16648 22020
" />
<path d="M16648 22020
L15998 22020
" />
<path d="M15298 21120
L14648 21120
" />
<path d="M14648 21120
L14648 22020
" />
<path d="M14648 22020
L15298 22020
" />
<path d="M15998 21120
L16648 21120
" />
<path d="M15128 2993
L15128 3893
" />
<path d="M15128 3893
L14478 3893
" />
<path d="M13778 2993
L13128 2993
" />
<path d="M13128 2993
L13128 3893
" />
<path d="M13128 3893
L13778 3893
" />
<path d="M14478 2993
L15128 2993
" />
<path d="M16572 799
L16572 1699
" />
<path d="M16572 1699
L15922 1699
" />
<path d="M15222 799
L14572 799
" />
<path d="M14572 799
L14572 1699
" />
<path d="M14572 1699
L15222 1699
" />
<path d="M15922 799
L16572 799
" />
</g>
<g style="fill:#840084; fill-opacity:0.0; 
stroke:#840084; stroke-width:40; stroke-opacity:1; 
stroke-linecap:round; stroke-linejoin:round;">
<circle cx="3003.58" cy="10255" r="670.82" /> 
<path d="M1903 9055
L4203 9055
" />
<path d="M4203 9055
L4203 11455
" />
<path d="M4203 11455
L1903 11455
" />
<path d="M1903 11455
L1903 9055
" />
</g>
<g style="fill:#840084; fill-opacity:0.0; 
stroke:#840084; stroke-width:100; stroke-opacity:1; 
stroke-linecap:round; stroke-linejoin:round;">
<path d="M10345 18614
L10345 19614
" />
</g>
<g style="fill:#840084; fill-opacity:0.0; 
stroke:#840084; stroke-width:60; stroke-opacity:1; 
stroke-linecap:round; stroke-linejoin:round;">
<path d="M9125.98 19114.2 A600 600 0.0 0 0 9265.01 19498.2 " />
<path d="M9277.98 18716.2 A599.256 599.256 0.0 0 0 9126.73 19114 " />
<path d="M10181 19504.2 A599.27 599.27 0.0 0 0 10325.3 19114.2 " />
<path d="M10326 19114.2 A600 600 0.0 0 0 10187 18730.1 " />
<path d="M9725.98 19714.2 A600 600 0.0 0 0 10213.8 19463.4 " />
<path d="M9245.98 19474.2 A600 600 0.0 0 0 9725.67 19714.2 " />
<path d="M10199 18746.2 A599.294 599.294 0.0 0 0 9726.16 18514.9 " />
<path d="M9725.98 18514.2 A600 600 0.0 0 0 9252.53 18745.6 " />
<path d="M9475.98 19114.2 A250 250 0.0 0 0 9725.98 19364.2 " />
<path d="M9325.98 19114.2 A400 400 0.0 0 0 9725.98 19514.2 " />
<path d="M9975.98 19114.2 A250 250 0.0 0 0 9725.98 18864.2 " />
<path d="M10126 19114.2 A400 400 0.0 0 0 9725.98 18714.2 " />
</g>
<g style="fill:#840084; fill-opacity:0.0; 
stroke:#840084; stroke-width:100; stroke-opacity:1; 
stroke-linecap:round; stroke-linejoin:round;">
<path d="M9725.98 19914.2 A800 800 0.0 0 0 10339.7 19627.3 " />
<path d="M9020.98 19490.2 A799 799 0.0 0 0 9725.6 19913.2 " />
<path d="M10336 18598.2 A798.972 798.972 0.0 0 0 9726.99 18315.2 " />
<path d="M9725.98 18314.2 A800 800 0.0 0 0 9031.77 18716.6 " />
<path d="M8925.98 19114.2 A800 800 0.0 0 0 9021.6 19493.4 " />
<path d="M9044.98 18695.2 A799.576 799.576 0.0 0 0 8926.41 19114.1 " />
<path d="M13023 1606
L13023 2606
" />
</g>
<g style="fill:#840084; fill-opacity:0.0; 
stroke:#840084; stroke-width:60; stroke-opacity:1; 
stroke-linecap:round; stroke-linejoin:round;">
<path d="M11803.1 2106.3 A600 600 0.0 0 0 11942.2 2490.37 " />
<path d="M11955.1 1708.3 A599.256 599.256 0.0 0 0 11803.9 2106.11 " />
<path d="M12858.2 2496.3 A599.27 599.27 0.0 0 0 13002.4 2106.31 " />
<path d="M13003.1 2106.3 A600 600 0.0 0 0 12864.1 1722.23 " />
<path d="M12403.1 2706.3 A600 600 0.0 0 0 12891 2455.57 " />
<path d="M11923.1 2466.3 A600 600 0.0 0 0 12402.8 2706.3 " />
<path d="M12876.1 1738.3 A599.294 599.294 0.0 0 0 12403.3 1507.01 " />
<path d="M12403.1 1506.3 A600 600 0.0 0 0 11929.7 1737.73 " />
<path d="M12153.1 2106.3 A250 250 0.0 0 0 12403.1 2356.3 " />
<path d="M12003.1 2106.3 A400 400 0.0 0 0 12403.1 2506.3 " />
<path d="M12653.1 2106.3 A250 250 0.0 0 0 12403.1 1856.3 " />
<path d="M12803.1 2106.3 A400 400 0.0 0 0 12403.1 1706.3 " />
</g>
<g style="fill:#840084; fill-opacity:0.0; 
stroke:#840084; stroke-width:100; stroke-opacity:1; 
stroke-linecap:round; stroke-linejoin:round;">
<path d="M12403.1 2906.3 A800 800 0.0 0 0 13016.9 2619.46 " />
<path d="M11698.1 2482.3 A799 799 0.0 0 0 12402.8 2905.3 " />
<path d="M13013.1 1590.3 A798.972 798.972 0.0 0 0 12404.2 1307.33 " />
<path d="M12403.1 1306.3 A800 800 0.0 0 0 11708.9 1708.72 " />
<path d="M11603.1 2106.3 A800 800 0.0 0 0 11698.8 2485.57 " />
<path d="M11722.2 1687.3 A799.576 799.576 0.0 0 0 11603.6 2106.26 " />
<path d="M17196 15953
L18196 15953
" />
</g>
<g style="fill:#840084; fill-opacity:0.0; 
stroke:#840084; stroke-width:60; stroke-opacity:1; 
stroke-linecap:round; stroke-linejoin:round;">
<path d="M17696.9 17173.2 A600 600 0.0 0 0 18080.9 17034.2 " />
<path d="M17298.9 17021.2 A599.256 599.256 0.0 0 0 17696.7 17172.5 " />
<path d="M18086.9 16118.2 A599.27 599.27 0.0 0 0 17696.9 15974 " />
<path d="M17696.9 15973.2 A600 600 0.0 0 0 17312.8 16112.3 " />
<path d="M18296.9 16573.2 A600 600 0.0 0 0 18046.1 16085.4 " />
<path d="M18056.9 17053.2 A600 600 0.0 0 0 18296.9 16573.5 " />
<path d="M17328.9 16100.2 A599.294 599.294 0.0 0 0 17097.6 16573.1 " />
<path d="M17096.9 16573.2 A600 600 0.0 0 0 17328.3 17046.7 " />
<path d="M17696.9 16823.2 A250 250 0.0 0 0 17946.9 16573.2 " />
<path d="M17696.9 16973.2 A400 400 0.0 0 0 18096.9 16573.2 " />
<path d="M17696.9 16323.2 A250 250 0.0 0 0 17446.9 16573.2 " />
<path d="M17696.9 16173.2 A400 400 0.0 0 0 17296.9 16573.2 " />
</g>
<g style="fill:#840084; fill-opacity:0.0; 
stroke:#840084; stroke-width:100; stroke-opacity:1; 
stroke-linecap:round; stroke-linejoin:round;">
<path d="M18496.9 16573.2 A800 800 0.0 0 0 18210 15959.5 " />
<path d="M18072.9 17278.2 A799 799 0.0 0 0 18495.9 16573.6 " />
<path d="M17180.9 15963.2 A798.972 798.972 0.0 0 0 16897.9 16572.2 " />
<path d="M16896.9 16573.2 A800 800 0.0 0 0 17299.3 17267.4 " />
<path d="M17696.9 17373.2 A800 800 0.0 0 0 18076.1 17277.6 " />
<path d="M17277.9 17254.2 A799.576 799.576 0.0 0 0 17696.8 17372.8 " />
<path d="M14480 15953
L15480 15953
" />
</g>
<g style="fill:#840084; fill-opacity:0.0; 
stroke:#840084; stroke-width:60; stroke-opacity:1; 
stroke-linecap:round; stroke-linejoin:round;">
<path d="M14980.3 17173.2 A600 600 0.0 0 0 15364.4 17034.2 " />
<path d="M14582.3 17021.2 A599.256 599.256 0.0 0 0 14980.1 17172.5 " />
<path d="M15370.3 16118.2 A599.27 599.27 0.0 0 0 14980.3 15974 " />
<path d="M14980.3 15973.2 A600 600 0.0 0 0 14596.2 16112.3 " />
<path d="M15580.3 16573.2 A600 600 0.0 0 0 15329.6 16085.4 " />
<path d="M15340.3 17053.2 A600 600 0.0 0 0 15580.3 16573.5 " />
<path d="M14612.3 16100.2 A599.294 599.294 0.0 0 0 14381 16573.1 " />
<path d="M14380.3 16573.2 A600 600 0.0 0 0 14611.7 17046.7 " />
<path d="M14980.3 16823.2 A250 250 0.0 0 0 15230.3 16573.2 " />
<path d="M14980.3 16973.2 A400 400 0.0 0 0 15380.3 16573.2 " />
<path d="M14980.3 16323.2 A250 250 0.0 0 0 14730.3 16573.2 " />
<path d="M14980.3 16173.2 A400 400 0.0 0 0 14580.3 16573.2 " />
</g>
<g style="fill:#840084; fill-opacity:0.0; 
stroke:#840084; stroke-width:100; stroke-opacity:1; 
stroke-linecap:round; stroke-linejoin:round;">
<path d="M15780.3 16573.2 A800 800 0.0 0 0 15493.5 15959.5 " />
<path d="M15356.3 17278.2 A799 799 0.0 0 0 15779.3 16573.6 " />
<path d="M14464.3 15963.2 A798.972 798.972 0.0 0 0 14181.3 16572.2 " />
<path d="M14180.3 16573.2 A800 800 0.0 0 0 14582.7 17267.4 " />
<path d="M14980.3 17373.2 A800 800 0.0 0 0 15359.6 17277.6 " />
<path d="M14561.3 17254.2 A799.576 799.576 0.0 0 0 14980.3 17372.8 " />
<path d="M3732 15953
L4732 15953
" />
</g>
<g style="fill:#840084; fill-opacity:0.0; 
stroke:#840084; stroke-width:60; stroke-opacity:1; 
stroke-linecap:round; stroke-linejoin:round;">
<path d="M4232.28 17173.2 A600 600 0.0 0 0 4616.35 17034.2 " />
<path d="M3834.28 17021.2 A599.256 599.256 0.0 0 0 4232.1 17172.5 " />
<path d="M4622.28 16118.2 A599.27 599.27 0.0 0 0 4232.3 15974 " />
<path d="M4232.28 15973.2 A600 600 0.0 0 0 3848.22 16112.3 " />
<path d="M4832.28 16573.2 A600 600 0.0 0 0 4581.56 16085.4 " />
<path d="M4592.28 17053.2 A600 600 0.0 0 0 4832.28 16573.5 " />
<path d="M3864.28 16100.2 A599.294 599.294 0.0 0 0 3632.99 16573.1 " />
<path d="M3632.28 16573.2 A600 600 0.0 0 0 3863.71 17046.7 " />
<path d="M4232.28 16823.2 A250 250 0.0 0 0 4482.28 16573.2 " />
<path d="M4232.28 16973.2 A400 400 0.0 0 0 4632.28 16573.2 " />
<path d="M4232.28 16323.2 A250 250 0.0 0 0 3982.28 16573.2 " />
<path d="M4232.28 16173.2 A400 400 0.0 0 0 3832.28 16573.2 " />
</g>
<g style="fill:#840084; fill-opacity:0.0; 
stroke:#840084; stroke-width:100; stroke-opacity:1; 
stroke-linecap:round; stroke-linejoin:round;">
<path d="M5032.28 16573.2 A800 800 0.0 0 0 4745.44 15959.5 " />
<path d="M4608.28 17278.2 A799 799 0.0 0 0 5031.28 16573.6 " />
<path d="M3716.28 15963.2 A798.972 798.972 0.0 0 0 3433.31 16572.2 " />
<path d="M3432.28 16573.2 A800 800 0.0 0 0 3834.7 17267.4 " />
<path d="M4232.28 17373.2 A800 800 0.0 0 0 4611.55 17277.6 " />
<path d="M3813.28 17254.2 A799.576 799.576 0.0 0 0 4232.24 17372.8 " />
<path d="M1055 15953
L2055 15953
" />
</g>
<g style="fill:#840084; fill-opacity:0.0; 
stroke:#840084; stroke-width:60; stroke-opacity:1; 
stroke-linecap:round; stroke-linejoin:round;">
<path d="M1555.12 17173.2 A600 600 0.0 0 0 1939.18 17034.2 " />
<path d="M1157.12 17021.2 A599.256 599.256 0.0 0 0 1554.93 17172.5 " />
<path d="M1945.12 16118.2 A599.27 599.27 0.0 0 0 1555.13 15974 " />
<path d="M1555.12 15973.2 A600 600 0.0 0 0 1171.05 16112.3 " />
<path d="M2155.12 16573.2 A600 600 0.0 0 0 1904.39 16085.4 " />
<path d="M1915.12 17053.2 A600 600 0.0 0 0 2155.12 16573.5 " />
<path d="M1187.12 16100.2 A599.294 599.294 0.0 0 0 955.825 16573.1 " />
<path d="M955.119 16573.2 A600 600 0.0 0 0 1186.55 17046.7 " />
<path d="M1555.12 16823.2 A250 250 0.0 0 0 1805.12 16573.2 " />
<path d="M1555.12 16973.2 A400 400 0.0 0 0 1955.12 16573.2 " />
<path d="M1555.12 16323.2 A250 250 0.0 0 0 1305.12 16573.2 " />
<path d="M1555.12 16173.2 A400 400 0.0 0 0 1155.12 16573.2 " />
</g>
<g style="fill:#840084; fill-opacity:0.0; 
stroke:#840084; stroke-width:100; stroke-opacity:1; 
stroke-linecap:round; stroke-linejoin:round;">
<path d="M2355.12 16573.2 A800 800 0.0 0 0 2068.28 15959.5 " />
<path d="M1931.12 17278.2 A799 799 0.0 0 0 2354.12 16573.6 " />
<path d="M1039.12 15963.2 A798.972 798.972 0.0 0 0 756.147 16572.2 " />
<path d="M755.119 16573.2 A800 800 0.0 0 0 1157.54 17267.4 " />
<path d="M1555.12 17373.2 A800 800 0.0 0 0 1934.39 17277.6 " />
<path d="M1136.12 17254.2 A799.576 799.576 0.0 0 0 1555.08 17372.8 " />
<path d="M10818 23630
L11818 23630
" />
</g>
<g style="fill:#840084; fill-opacity:0.0; 
stroke:#840084; stroke-width:60; stroke-opacity:1; 
stroke-linecap:round; stroke-linejoin:round;">
<path d="M11318.9 24850.4 A600 600 0.0 0 0 11703 24711.4 " />
<path d="M10920.9 24698.4 A599.256 599.256 0.0 0 0 11318.7 24849.7 " />
<path d="M11708.9 23795.4 A599.27 599.27 0.0 0 0 11318.9 23651.1 " />
<path d="M11318.9 23650.4 A600 600 0.0 0 0 10934.8 23789.4 " />
<path d="M11918.9 24250.4 A600 600 0.0 0 0 11668.2 23762.5 " />
<path d="M11678.9 24730.4 A600 600 0.0 0 0 11918.9 24250.7 " />
<path d="M10950.9 23777.4 A599.294 599.294 0.0 0 0 10719.6 24250.2 " />
<path d="M10718.9 24250.4 A600 600 0.0 0 0 10950.3 24723.8 " />
<path d="M11318.9 24500.4 A250 250 0.0 0 0 11568.9 24250.4 " />
<path d="M11318.9 24650.4 A400 400 0.0 0 0 11718.9 24250.4 " />
<path d="M11318.9 24000.4 A250 250 0.0 0 0 11068.9 24250.4 " />
<path d="M11318.9 23850.4 A400 400 0.0 0 0 10918.9 24250.4 " />
</g>
<g style="fill:#840084; fill-opacity:0.0; 
stroke:#840084; stroke-width:100; stroke-opacity:1; 
stroke-linecap:round; stroke-linejoin:round;">
<path d="M12118.9 24250.4 A800 800 0.0 0 0 11832.1 23636.7 " />
<path d="M11694.9 24955.4 A799 799 0.0 0 0 12117.9 24250.8 " />
<path d="M10802.9 23640.4 A798.972 798.972 0.0 0 0 10519.9 24249.4 " />
<path d="M10518.9 24250.4 A800 800 0.0 0 0 10921.3 24944.6 " />
<path d="M11318.9 25050.4 A800 800 0.0 0 0 11698.2 24954.8 " />
<path d="M10899.9 24931.4 A799.576 799.576 0.0 0 0 11318.9 25050 " />
<path d="M10345 28299
L10345 29299
" />
</g>
<g style="fill:#840084; fill-opacity:0.0; 
stroke:#840084; stroke-width:60; stroke-opacity:1; 
stroke-linecap:round; stroke-linejoin:round;">
<path d="M9125.98 28799.2 A600 600 0.0 0 0 9265.01 29183.3 " />
<path d="M9277.98 28401.2 A599.256 599.256 0.0 0 0 9126.73 28799 " />
<path d="M10181 29189.2 A599.27 599.27 0.0 0 0 10325.3 28799.2 " />
<path d="M10326 28799.2 A600 600 0.0 0 0 10187 28415.1 " />
<path d="M9725.98 29399.2 A600 600 0.0 0 0 10213.8 29148.5 " />
<path d="M9245.98 29159.2 A600 600 0.0 0 0 9725.67 29399.2 " />
<path d="M10199 28431.2 A599.294 599.294 0.0 0 0 9726.16 28199.9 " />
<path d="M9725.98 28199.2 A600 600 0.0 0 0 9252.53 28430.6 " />
<path d="M9475.98 28799.2 A250 250 0.0 0 0 9725.98 29049.2 " />
<path d="M9325.98 28799.2 A400 400 0.0 0 0 9725.98 29199.2 " />
<path d="M9975.98 28799.2 A250 250 0.0 0 0 9725.98 28549.2 " />
<path d="M10126 28799.2 A400 400 0.0 0 0 9725.98 28399.2 " />
</g>
<g style="fill:#840084; fill-opacity:0.0; 
stroke:#840084; stroke-width:100; stroke-opacity:1; 
stroke-linecap:round; stroke-linejoin:round;">
<path d="M9725.98 29599.2 A800 800 0.0 0 0 10339.7 29312.4 " />
<path d="M9020.98 29175.2 A799 799 0.0 0 0 9725.6 29598.2 " />
<path d="M10336 28283.2 A798.972 798.972 0.0 0 0 9726.99 28000.2 " />
<path d="M9725.98 27999.2 A800 800 0.0 0 0 9031.77 28401.6 " />
<path d="M8925.98 28799.2 A800 800 0.0 0 0 9021.6 29178.5 " />
<path d="M9044.98 28380.2 A799.576 799.576 0.0 0 0 8926.41 28799.2 " />
<path d="M10345 25897
L10345 26897
" />
</g>
<g style="fill:#840084; fill-opacity:0.0; 
stroke:#840084; stroke-width:60; stroke-opacity:1; 
stroke-linecap:round; stroke-linejoin:round;">
<path d="M9125.98 26397.6 A600 600 0.0 0 0 9265.01 26781.7 " />
<path d="M9277.98 25999.6 A599.256 599.256 0.0 0 0 9126.73 26397.5 " />
<path d="M10181 26787.6 A599.27 599.27 0.0 0 0 10325.3 26397.7 " />
<path d="M10326 26397.6 A600 600 0.0 0 0 10187 26013.6 " />
<path d="M9725.98 26997.6 A600 600 0.0 0 0 10213.8 26746.9 " />
<path d="M9245.98 26757.6 A600 600 0.0 0 0 9725.67 26997.6 " />
<path d="M10199 26029.6 A599.294 599.294 0.0 0 0 9726.16 25798.3 " />
<path d="M9725.98 25797.6 A600 600 0.0 0 0 9252.53 26029.1 " />
<path d="M9475.98 26397.6 A250 250 0.0 0 0 9725.98 26647.6 " />
<path d="M9325.98 26397.6 A400 400 0.0 0 0 9725.98 26797.6 " />
<path d="M9975.98 26397.6 A250 250 0.0 0 0 9725.98 26147.6 " />
<path d="M10126 26397.6 A400 400 0.0 0 0 9725.98 25997.6 " />
</g>
<g style="fill:#840084; fill-opacity:0.0; 
stroke:#840084; stroke-width:100; stroke-opacity:1; 
stroke-linecap:round; stroke-linejoin:round;">
<path d="M9725.98 27197.6 A800 800 0.0 0 0 10339.7 26910.8 " />
<path d="M9020.98 26773.6 A799 799 0.0 0 0 9725.6 27196.6 " />
<path d="M10336 25881.6 A798.972 798.972 0.0 0 0 9726.99 25598.7 " />
<path d="M9725.98 25597.6 A800 800 0.0 0 0 9031.77 26000.1 " />
<path d="M8925.98 26397.6 A800 800 0.0 0 0 9021.6 26776.9 " />
<path d="M9044.98 25978.6 A799.576 799.576 0.0 0 0 8926.41 26397.6 " />
<path d="M15110 17685
L16110 17685
" />
</g>
<g style="fill:#840084; fill-opacity:0.0; 
stroke:#840084; stroke-width:60; stroke-opacity:1; 
stroke-linecap:round; stroke-linejoin:round;">
<path d="M15610.2 18905.5 A600 600 0.0 0 0 15994.3 18766.5 " />
<path d="M15212.2 18753.5 A599.256 599.256 0.0 0 0 15610.1 18904.8 " />
<path d="M16000.2 17850.5 A599.27 599.27 0.0 0 0 15610.3 17706.2 " />
<path d="M15610.2 17705.5 A600 600 0.0 0 0 15226.2 17844.5 " />
<path d="M16210.2 18305.5 A600 600 0.0 0 0 15959.5 17817.7 " />
<path d="M15970.2 18785.5 A600 600 0.0 0 0 16210.2 18305.8 " />
<path d="M15242.2 17832.5 A599.294 599.294 0.0 0 0 15010.9 18305.3 " />
<path d="M15010.2 18305.5 A600 600 0.0 0 0 15241.7 18779 " />
<path d="M15610.2 18555.5 A250 250 0.0 0 0 15860.2 18305.5 " />
<path d="M15610.2 18705.5 A400 400 0.0 0 0 16010.2 18305.5 " />
<path d="M15610.2 18055.5 A250 250 0.0 0 0 15360.2 18305.5 " />
<path d="M15610.2 17905.5 A400 400 0.0 0 0 15210.2 18305.5 " />
</g>
<g style="fill:#840084; fill-opacity:0.0; 
stroke:#840084; stroke-width:100; stroke-opacity:1; 
stroke-linecap:round; stroke-linejoin:round;">
<path d="M16410.2 18305.5 A800 800 0.0 0 0 16123.4 17691.8 " />
<path d="M15986.2 19010.5 A799 799 0.0 0 0 16409.2 18305.9 " />
<path d="M15094.2 17695.5 A798.972 798.972 0.0 0 0 14811.3 18304.5 " />
<path d="M14810.2 18305.5 A800 800 0.0 0 0 15212.7 18999.7 " />
<path d="M15610.2 19105.5 A800 800 0.0 0 0 15989.5 19009.9 " />
<path d="M15191.2 18986.5 A799.576 799.576 0.0 0 0 15610.2 19105.1 " />
<path d="M12984 18984
L13984 18984
" />
</g>
<g style="fill:#840084; fill-opacity:0.0; 
stroke:#840084; stroke-width:60; stroke-opacity:1; 
stroke-linecap:round; stroke-linejoin:round;">
<path d="M13484.3 20204.7 A600 600 0.0 0 0 13868.3 20065.7 " />
<path d="M13086.3 20052.7 A599.256 599.256 0.0 0 0 13484.1 20204 " />
<path d="M13874.3 19149.7 A599.27 599.27 0.0 0 0 13484.3 19005.5 " />
<path d="M13484.3 19004.7 A600 600 0.0 0 0 13100.2 19143.8 " />
<path d="M14084.3 19604.7 A600 600 0.0 0 0 13833.5 19116.9 " />
<path d="M13844.3 20084.7 A600 600 0.0 0 0 14084.3 19605 " />
<path d="M13116.3 19131.7 A599.294 599.294 0.0 0 0 12885 19604.6 " />
<path d="M12884.3 19604.7 A600 600 0.0 0 0 13115.7 20078.2 " />
<path d="M13484.3 19854.7 A250 250 0.0 0 0 13734.3 19604.7 " />
<path d="M13484.3 20004.7 A400 400 0.0 0 0 13884.3 19604.7 " />
<path d="M13484.3 19354.7 A250 250 0.0 0 0 13234.3 19604.7 " />
<path d="M13484.3 19204.7 A400 400 0.0 0 0 13084.3 19604.7 " />
</g>
<g style="fill:#840084; fill-opacity:0.0; 
stroke:#840084; stroke-width:100; stroke-opacity:1; 
stroke-linecap:round; stroke-linejoin:round;">
<path d="M14284.3 19604.7 A800 800 0.0 0 0 13997.4 18991 " />
<path d="M13860.3 20309.7 A799 799 0.0 0 0 14283.3 19605.1 " />
<path d="M12968.3 18994.7 A798.972 798.972 0.0 0 0 12685.3 19603.7 " />
<path d="M12684.3 19604.7 A800 800 0.0 0 0 13086.7 20298.9 " />
<path d="M13484.3 20404.7 A800 800 0.0 0 0 13863.5 20309.1 " />
<path d="M13065.3 20285.7 A799.576 799.576 0.0 0 0 13484.2 20404.3 " />
<path d="M11488 20992
L12488 20992
" />
</g>
<g style="fill:#840084; fill-opacity:0.0; 
stroke:#840084; stroke-width:60; stroke-opacity:1; 
stroke-linecap:round; stroke-linejoin:round;">
<path d="M11988.2 22212.6 A600 600 0.0 0 0 12372.3 22073.6 " />
<path d="M11590.2 22060.6 A599.256 599.256 0.0 0 0 11988 22211.9 " />
<path d="M12378.2 21157.6 A599.27 599.27 0.0 0 0 11988.2 21013.3 " />
<path d="M11988.2 21012.6 A600 600 0.0 0 0 11604.1 21151.6 " />
<path d="M12588.2 21612.6 A600 600 0.0 0 0 12337.5 21124.7 " />
<path d="M12348.2 22092.6 A600 600 0.0 0 0 12588.2 21612.9 " />
<path d="M11620.2 21139.6 A599.294 599.294 0.0 0 0 11388.9 21612.4 " />
<path d="M11388.2 21612.6 A600 600 0.0 0 0 11619.6 22086 " />
<path d="M11988.2 21862.6 A250 250 0.0 0 0 12238.2 21612.6 " />
<path d="M11988.2 22012.6 A400 400 0.0 0 0 12388.2 21612.6 " />
<path d="M11988.2 21362.6 A250 250 0.0 0 0 11738.2 21612.6 " />
<path d="M11988.2 21212.6 A400 400 0.0 0 0 11588.2 21612.6 " />
</g>
<g style="fill:#840084; fill-opacity:0.0; 
stroke:#840084; stroke-width:100; stroke-opacity:1; 
stroke-linecap:round; stroke-linejoin:round;">
<path d="M12788.2 21612.6 A800 800 0.0 0 0 12501.3 20998.9 " />
<path d="M12364.2 22317.6 A799 799 0.0 0 0 12787.2 21613 " />
<path d="M11472.2 21002.6 A798.972 798.972 0.0 0 0 11189.2 21611.6 " />
<path d="M11188.2 21612.6 A800 800 0.0 0 0 11590.6 22306.8 " />
<path d="M11988.2 22412.6 A800 800 0.0 0 0 12367.5 22317 " />
<path d="M11569.2 22293.6 A799.576 799.576 0.0 0 0 11988.2 22412.2 " />
<path d="M10345 23456
L10345 24456
" />
</g>
<g style="fill:#840084; fill-opacity:0.0; 
stroke:#840084; stroke-width:60; stroke-opacity:1; 
stroke-linecap:round; stroke-linejoin:round;">
<path d="M9125.98 23956.7 A600 600 0.0 0 0 9265.01 24340.8 " />
<path d="M9277.98 23558.7 A599.256 599.256 0.0 0 0 9126.73 23956.5 " />
<path d="M10181 24346.7 A599.27 599.27 0.0 0 0 10325.3 23956.7 " />
<path d="M10326 23956.7 A600 600 0.0 0 0 10187 23572.6 " />
<path d="M9725.98 24556.7 A600 600 0.0 0 0 10213.8 24306 " />
<path d="M9245.98 24316.7 A600 600 0.0 0 0 9725.67 24556.7 " />
<path d="M10199 23588.7 A599.294 599.294 0.0 0 0 9726.16 23357.4 " />
<path d="M9725.98 23356.7 A600 600 0.0 0 0 9252.53 23588.1 " />
<path d="M9475.98 23956.7 A250 250 0.0 0 0 9725.98 24206.7 " />
<path d="M9325.98 23956.7 A400 400 0.0 0 0 9725.98 24356.7 " />
<path d="M9975.98 23956.7 A250 250 0.0 0 0 9725.98 23706.7 " />
<path d="M10126 23956.7 A400 400 0.0 0 0 9725.98 23556.7 " />
</g>
<g style="fill:#840084; fill-opacity:0.0; 
stroke:#840084; stroke-width:100; stroke-opacity:1; 
stroke-linecap:round; stroke-linejoin:round;">
<path d="M9725.98 24756.7 A800 800 0.0 0 0 10339.7 24469.9 " />
<path d="M9020.98 24332.7 A799 799 0.0 0 0 9725.6 24755.7 " />
<path d="M10336 23440.7 A798.972 798.972 0.0 0 0 9726.99 23157.7 " />
<path d="M9725.98 23156.7 A800 800 0.0 0 0 9031.77 23559.1 " />
<path d="M8925.98 23956.7 A800 800 0.0 0 0 9021.6 24336 " />
<path d="M9044.98 23537.7 A799.576 799.576 0.0 0 0 8926.41 23956.7 " />
<path d="M10345 21015
L10345 22015
" />
</g>
<g style="fill:#840084; fill-opacity:0.0; 
stroke:#840084; stroke-width:60; stroke-opacity:1; 
stroke-linecap:round; stroke-linejoin:round;">
<path d="M9125.98 21515.7 A600 600 0.0 0 0 9265.01 21899.8 " />
<path d="M9277.98 21117.7 A599.256 599.256 0.0 0 0 9126.73 21515.6 " />
<path d="M10181 21905.7 A599.27 599.27 0.0 0 0 10325.3 21515.8 " />
<path d="M10326 21515.7 A600 600 0.0 0 0 10187 21131.7 " />
<path d="M9725.98 22115.7 A600 600 0.0 0 0 10213.8 21865 " />
<path d="M9245.98 21875.7 A600 600 0.0 0 0 9725.67 22115.7 " />
<path d="M10199 21147.7 A599.294 599.294 0.0 0 0 9726.16 20916.5 " />
<path d="M9725.98 20915.7 A600 600 0.0 0 0 9252.53 21147.2 " />
<path d="M9475.98 21515.7 A250 250 0.0 0 0 9725.98 21765.7 " />
<path d="M9325.98 21515.7 A400 400 0.0 0 0 9725.98 21915.7 " />
<path d="M9975.98 21515.7 A250 250 0.0 0 0 9725.98 21265.7 " />
<path d="M10126 21515.7 A400 400 0.0 0 0 9725.98 21115.7 " />
</g>
<g style="fill:#840084; fill-opacity:0.0; 
stroke:#840084; stroke-width:100; stroke-opacity:1; 
stroke-linecap:round; stroke-linejoin:round;">
<path d="M9725.98 22315.7 A800 800 0.0 0 0 10339.7 22028.9 " />
<path d="M9020.98 21891.7 A799 799 0.0 0 0 9725.6 22314.7 " />
<path d="M10336 20999.7 A798.972 798.972 0.0 0 0 9726.99 20716.8 " />
<path d="M9725.98 20715.7 A800 800 0.0 0 0 9031.77 21118.2 " />
<path d="M8925.98 21515.7 A800 800 0.0 0 0 9021.6 21895 " />
<path d="M9044.98 21096.7 A799.576 799.576 0.0 0 0 8926.41 21515.7 " />
<path d="M10345 16173
L10345 17173
" />
</g>
<g style="fill:#840084; fill-opacity:0.0; 
stroke:#840084; stroke-width:60; stroke-opacity:1; 
stroke-linecap:round; stroke-linejoin:round;">
<path d="M9125.98 16673.2 A600 600 0.0 0 0 9265.01 17057.3 " />
<path d="M9277.98 16275.2 A599.256 599.256 0.0 0 0 9126.73 16673 " />
<path d="M10181 17063.2 A599.27 599.27 0.0 0 0 10325.3 16673.2 " />
<path d="M10326 16673.2 A600 600 0.0 0 0 10187 16289.2 " />
<path d="M9725.98 17273.2 A600 600 0.0 0 0 10213.8 17022.5 " />
<path d="M9245.98 17033.2 A600 600 0.0 0 0 9725.67 17273.2 " />
<path d="M10199 16305.2 A599.294 599.294 0.0 0 0 9726.16 16073.9 " />
<path d="M9725.98 16073.2 A600 600 0.0 0 0 9252.53 16304.7 " />
<path d="M9475.98 16673.2 A250 250 0.0 0 0 9725.98 16923.2 " />
<path d="M9325.98 16673.2 A400 400 0.0 0 0 9725.98 17073.2 " />
<path d="M9975.98 16673.2 A250 250 0.0 0 0 9725.98 16423.2 " />
<path d="M10126 16673.2 A400 400 0.0 0 0 9725.98 16273.2 " />
</g>
<g style="fill:#840084; fill-opacity:0.0; 
stroke:#840084; stroke-width:100; stroke-opacity:1; 
stroke-linecap:round; stroke-linejoin:round;">
<path d="M9725.98 17473.2 A800 800 0.0 0 0 10339.7 17186.4 " />
<path d="M9020.98 17049.2 A799 799 0.0 0 0 9725.6 17472.2 " />
<path d="M10336 16157.2 A798.972 798.972 0.0 0 0 9726.99 15874.3 " />
<path d="M9725.98 15873.2 A800 800 0.0 0 0 9031.77 16275.6 " />
<path d="M8925.98 16673.2 A800 800 0.0 0 0 9021.6 17052.5 " />
<path d="M9044.98 16254.2 A799.576 799.576 0.0 0 0 8926.41 16673.2 " />
<path d="M10345 1606
L10345 2606
" />
</g>
<g style="fill:#840084; fill-opacity:0.0; 
stroke:#840084; stroke-width:60; stroke-opacity:1; 
stroke-linecap:round; stroke-linejoin:round;">
<path d="M9125.98 2106.3 A600 600 0.0 0 0 9265.01 2490.37 " />
<path d="M9277.98 1708.3 A599.256 599.256 0.0 0 0 9126.73 2106.11 " />
<path d="M10181 2496.3 A599.27 599.27 0.0 0 0 10325.3 2106.31 " />
<path d="M10326 2106.3 A600 600 0.0 0 0 10187 1722.23 " />
<path d="M9725.98 2706.3 A600 600 0.0 0 0 10213.8 2455.57 " />
<path d="M9245.98 2466.3 A600 600 0.0 0 0 9725.67 2706.3 " />
<path d="M10199 1738.3 A599.294 599.294 0.0 0 0 9726.16 1507.01 " />
<path d="M9725.98 1506.3 A600 600 0.0 0 0 9252.53 1737.73 " />
<path d="M9475.98 2106.3 A250 250 0.0 0 0 9725.98 2356.3 " />
<path d="M9325.98 2106.3 A400 400 0.0 0 0 9725.98 2506.3 " />
<path d="M9975.98 2106.3 A250 250 0.0 0 0 9725.98 1856.3 " />
<path d="M10126 2106.3 A400 400 0.0 0 0 9725.98 1706.3 " />
</g>
<g style="fill:#840084; fill-opacity:0.0; 
stroke:#840084; stroke-width:100; stroke-opacity:1; 
stroke-linecap:round; stroke-linejoin:round;">
<path d="M9725.98 2906.3 A800 800 0.0 0 0 10339.7 2619.46 " />
<path d="M9020.98 2482.3 A799 799 0.0 0 0 9725.6 2905.3 " />
<path d="M10336 1590.3 A798.972 798.972 0.0 0 0 9726.99 1307.33 " />
<path d="M9725.98 1306.3 A800 800 0.0 0 0 9031.77 1708.72 " />
<path d="M8925.98 2106.3 A800 800 0.0 0 0 9021.6 2485.57 " />
<path d="M9044.98 1687.3 A799.576 799.576 0.0 0 0 8926.41 2106.26 " />
<path d="M7629 1606
L7629 2606
" />
</g>
<g style="fill:#840084; fill-opacity:0.0; 
stroke:#840084; stroke-width:60; stroke-opacity:1; 
stroke-linecap:round; stroke-linejoin:round;">
<path d="M6409.45 2106.3 A600 600 0.0 0 0 6548.48 2490.37 " />
<path d="M6561.45 1708.3 A599.256 599.256 0.0 0 0 6410.19 2106.11 " />
<path d="M7464.45 2496.3 A599.27 599.27 0.0 0 0 7608.72 2106.31 " />
<path d="M7609.45 2106.3 A600 600 0.0 0 0 7470.42 1722.23 " />
<path d="M7009.45 2706.3 A600 600 0.0 0 0 7497.31 2455.57 " />
<path d="M6529.45 2466.3 A600 600 0.0 0 0 7009.13 2706.3 " />
<path d="M7482.45 1738.3 A599.294 599.294 0.0 0 0 7009.62 1507.01 " />
<path d="M7009.45 1506.3 A600 600 0.0 0 0 6536 1737.73 " />
<path d="M6759.45 2106.3 A250 250 0.0 0 0 7009.45 2356.3 " />
<path d="M6609.45 2106.3 A400 400 0.0 0 0 7009.45 2506.3 " />
<path d="M7259.45 2106.3 A250 250 0.0 0 0 7009.45 1856.3 " />
<path d="M7409.45 2106.3 A400 400 0.0 0 0 7009.45 1706.3 " />
</g>
<g style="fill:#840084; fill-opacity:0.0; 
stroke:#840084; stroke-width:100; stroke-opacity:1; 
stroke-linecap:round; stroke-linejoin:round;">
<path d="M7009.45 2906.3 A800 800 0.0 0 0 7623.18 2619.46 " />
<path d="M6304.45 2482.3 A799 799 0.0 0 0 7009.07 2905.3 " />
<path d="M7619.45 1590.3 A798.972 798.972 0.0 0 0 7010.45 1307.33 " />
<path d="M7009.45 1306.3 A800 800 0.0 0 0 6315.24 1708.72 " />
<path d="M6209.45 2106.3 A800 800 0.0 0 0 6305.07 2485.57 " />
<path d="M6328.45 1687.3 A799.576 799.576 0.0 0 0 6209.87 2106.26 " />
<path d="M10345 4047
L10345 5047
" />
</g>
<g style="fill:#840084; fill-opacity:0.0; 
stroke:#840084; stroke-width:60; stroke-opacity:1; 
stroke-linecap:round; stroke-linejoin:round;">
<path d="M9125.98 4547.24 A600 600 0.0 0 0 9265.01 4931.31 " />
<path d="M9277.98 4149.24 A599.256 599.256 0.0 0 0 9126.73 4547.06 " />
<path d="M10181 4937.24 A599.27 599.27 0.0 0 0 10325.3 4547.26 " />
<path d="M10326 4547.24 A600 600 0.0 0 0 10187 4163.18 " />
<path d="M9725.98 5147.24 A600 600 0.0 0 0 10213.8 4896.52 " />
<path d="M9245.98 4907.24 A600 600 0.0 0 0 9725.67 5147.24 " />
<path d="M10199 4179.24 A599.294 599.294 0.0 0 0 9726.16 3947.95 " />
<path d="M9725.98 3947.24 A600 600 0.0 0 0 9252.53 4178.67 " />
<path d="M9475.98 4547.24 A250 250 0.0 0 0 9725.98 4797.24 " />
<path d="M9325.98 4547.24 A400 400 0.0 0 0 9725.98 4947.24 " />
<path d="M9975.98 4547.24 A250 250 0.0 0 0 9725.98 4297.24 " />
<path d="M10126 4547.24 A400 400 0.0 0 0 9725.98 4147.24 " />
</g>
<g style="fill:#840084; fill-opacity:0.0; 
stroke:#840084; stroke-width:100; stroke-opacity:1; 
stroke-linecap:round; stroke-linejoin:round;">
<path d="M9725.98 5347.24 A800 800 0.0 0 0 10339.7 5060.4 " />
<path d="M9020.98 4923.24 A799 799 0.0 0 0 9725.6 5346.24 " />
<path d="M10336 4031.24 A798.972 798.972 0.0 0 0 9726.99 3748.27 " />
<path d="M9725.98 3747.24 A800 800 0.0 0 0 9031.77 4149.67 " />
<path d="M8925.98 4547.24 A800 800 0.0 0 0 9021.6 4926.52 " />
<path d="M9044.98 4128.24 A799.576 799.576 0.0 0 0 8926.41 4547.21 " />
<path d="M18416 1606
L18416 2606
" />
</g>
<g style="fill:#840084; fill-opacity:0.0; 
stroke:#840084; stroke-width:60; stroke-opacity:1; 
stroke-linecap:round; stroke-linejoin:round;">
<path d="M17196.9 2106.3 A600 600 0.0 0 0 17335.9 2490.37 " />
<path d="M17348.9 1708.3 A599.256 599.256 0.0 0 0 17197.6 2106.11 " />
<path d="M18251.9 2496.3 A599.27 599.27 0.0 0 0 18396.1 2106.31 " />
<path d="M18396.9 2106.3 A600 600 0.0 0 0 18257.8 1722.23 " />
<path d="M17796.9 2706.3 A600 600 0.0 0 0 18284.7 2455.57 " />
<path d="M17316.9 2466.3 A600 600 0.0 0 0 17796.5 2706.3 " />
<path d="M18269.9 1738.3 A599.294 599.294 0.0 0 0 17797 1507.01 " />
<path d="M17796.9 1506.3 A600 600 0.0 0 0 17323.4 1737.73 " />
<path d="M17546.9 2106.3 A250 250 0.0 0 0 17796.9 2356.3 " />
<path d="M17396.9 2106.3 A400 400 0.0 0 0 17796.9 2506.3 " />
<path d="M18046.9 2106.3 A250 250 0.0 0 0 17796.9 1856.3 " />
<path d="M18196.9 2106.3 A400 400 0.0 0 0 17796.9 1706.3 " />
</g>
<g style="fill:#840084; fill-opacity:0.0; 
stroke:#840084; stroke-width:100; stroke-opacity:1; 
stroke-linecap:round; stroke-linejoin:round;">
<path d="M17796.9 2906.3 A800 800 0.0 0 0 18410.6 2619.46 " />
<path d="M17091.9 2482.3 A799 799 0.0 0 0 17796.5 2905.3 " />
<path d="M18406.9 1590.3 A798.972 798.972 0.0 0 0 17797.9 1307.33 " />
<path d="M17796.9 1306.3 A800 800 0.0 0 0 17102.6 1708.72 " />
<path d="M16996.9 2106.3 A800 800 0.0 0 0 17092.5 2485.57 " />
<path d="M17115.9 1687.3 A799.576 799.576 0.0 0 0 16997.3 2106.26 " />
<path d="M15700 1606
L15700 2606
" />
</g>
<g style="fill:#840084; fill-opacity:0.0; 
stroke:#840084; stroke-width:60; stroke-opacity:1; 
stroke-linecap:round; stroke-linejoin:round;">
<path d="M14480.3 2106.3 A600 600 0.0 0 0 14619.3 2490.37 " />
<path d="M14632.3 1708.3 A599.256 599.256 0.0 0 0 14481.1 2106.11 " />
<path d="M15535.3 2496.3 A599.27 599.27 0.0 0 0 15679.6 2106.31 " />
<path d="M15680.3 2106.3 A600 600 0.0 0 0 15541.3 1722.23 " />
<path d="M15080.3 2706.3 A600 600 0.0 0 0 15568.2 2455.57 " />
<path d="M14600.3 2466.3 A600 600 0.0 0 0 15080 2706.3 " />
<path d="M15553.3 1738.3 A599.294 599.294 0.0 0 0 15080.5 1507.01 " />
<path d="M15080.3 1506.3 A600 600 0.0 0 0 14606.9 1737.73 " />
<path d="M14830.3 2106.3 A250 250 0.0 0 0 15080.3 2356.3 " />
<path d="M14680.3 2106.3 A400 400 0.0 0 0 15080.3 2506.3 " />
<path d="M15330.3 2106.3 A250 250 0.0 0 0 15080.3 1856.3 " />
<path d="M15480.3 2106.3 A400 400 0.0 0 0 15080.3 1706.3 " />
</g>
<g style="fill:#840084; fill-opacity:0.0; 
stroke:#840084; stroke-width:100; stroke-opacity:1; 
stroke-linecap:round; stroke-linejoin:round;">
<path d="M15080.3 2906.3 A800 800 0.0 0 0 15694 2619.46 " />
<path d="M14375.3 2482.3 A799 799 0.0 0 0 15079.9 2905.3 " />
<path d="M15690.3 1590.3 A798.972 798.972 0.0 0 0 15081.3 1307.33 " />
<path d="M15080.3 1306.3 A800 800 0.0 0 0 14386.1 1708.72 " />
<path d="M14280.3 2106.3 A800 800 0.0 0 0 14375.9 2485.57 " />
<path d="M14399.3 1687.3 A799.576 799.576 0.0 0 0 14280.7 2106.26 " />
<path d="M4952 1606
L4952 2606
" />
</g>
<g style="fill:#840084; fill-opacity:0.0; 
stroke:#840084; stroke-width:60; stroke-opacity:1; 
stroke-linecap:round; stroke-linejoin:round;">
<path d="M3732.28 2106.3 A600 600 0.0 0 0 3871.31 2490.37 " />
<path d="M3884.28 1708.3 A599.256 599.256 0.0 0 0 3733.03 2106.11 " />
<path d="M4787.28 2496.3 A599.27 599.27 0.0 0 0 4931.55 2106.31 " />
<path d="M4932.28 2106.3 A600 600 0.0 0 0 4793.25 1722.23 " />
<path d="M4332.28 2706.3 A600 600 0.0 0 0 4820.14 2455.57 " />
<path d="M3852.28 2466.3 A600 600 0.0 0 0 4331.97 2706.3 " />
<path d="M4805.28 1738.3 A599.294 599.294 0.0 0 0 4332.46 1507.01 " />
<path d="M4332.28 1506.3 A600 600 0.0 0 0 3858.83 1737.73 " />
<path d="M4082.28 2106.3 A250 250 0.0 0 0 4332.28 2356.3 " />
<path d="M3932.28 2106.3 A400 400 0.0 0 0 4332.28 2506.3 " />
<path d="M4582.28 2106.3 A250 250 0.0 0 0 4332.28 1856.3 " />
<path d="M4732.28 2106.3 A400 400 0.0 0 0 4332.28 1706.3 " />
</g>
<g style="fill:#840084; fill-opacity:0.0; 
stroke:#840084; stroke-width:100; stroke-opacity:1; 
stroke-linecap:round; stroke-linejoin:round;">
<path d="M4332.28 2906.3 A800 800 0.0 0 0 4946.02 2619.46 " />
<path d="M3627.28 2482.3 A799 799 0.0 0 0 4331.9 2905.3 " />
<path d="M4942.28 1590.3 A798.972 798.972 0.0 0 0 4333.29 1307.33 " />
<path d="M4332.28 1306.3 A800 800 0.0 0 0 3638.07 1708.72 " />
<path d="M3532.28 2106.3 A800 800 0.0 0 0 3627.9 2485.57 " />
<path d="M3651.28 1687.3 A799.576 799.576 0.0 0 0 3532.71 2106.26 " />
<path d="M2275 1606
L2275 2606
" />
</g>
<g style="fill:#840084; fill-opacity:0.0; 
stroke:#840084; stroke-width:60; stroke-opacity:1; 
stroke-linecap:round; stroke-linejoin:round;">
<path d="M1055.12 2106.3 A600 600 0.0 0 0 1194.15 2490.37 " />
<path d="M1207.12 1708.3 A599.256 599.256 0.0 0 0 1055.86 2106.11 " />
<path d="M2110.12 2496.3 A599.27 599.27 0.0 0 0 2254.39 2106.31 " />
<path d="M2255.12 2106.3 A600 600 0.0 0 0 2116.09 1722.23 " />
<path d="M1655.12 2706.3 A600 600 0.0 0 0 2142.98 2455.57 " />
<path d="M1175.12 2466.3 A600 600 0.0 0 0 1654.8 2706.3 " />
<path d="M2128.12 1738.3 A599.294 599.294 0.0 0 0 1655.29 1507.01 " />
<path d="M1655.12 1506.3 A600 600 0.0 0 0 1181.67 1737.73 " />
<path d="M1405.12 2106.3 A250 250 0.0 0 0 1655.12 2356.3 " />
<path d="M1255.12 2106.3 A400 400 0.0 0 0 1655.12 2506.3 " />
<path d="M1905.12 2106.3 A250 250 0.0 0 0 1655.12 1856.3 " />
<path d="M2055.12 2106.3 A400 400 0.0 0 0 1655.12 1706.3 " />
</g>
<g style="fill:#840084; fill-opacity:0.0; 
stroke:#840084; stroke-width:100; stroke-opacity:1; 
stroke-linecap:round; stroke-linejoin:round;">
<path d="M1655.12 2906.3 A800 800 0.0 0 0 2268.85 2619.46 " />
<path d="M950.119 2482.3 A799 799 0.0 0 0 1654.73 2905.3 " />
<path d="M2265.12 1590.3 A798.972 798.972 0.0 0 0 1656.12 1307.33 " />
<path d="M1655.12 1306.3 A800 800 0.0 0 0 960.906 1708.72 " />
<path d="M855.119 2106.3 A800 800 0.0 0 0 950.737 2485.57 " />
<path d="M974.119 1687.3 A799.576 799.576 0.0 0 0 855.543 2106.26 " />
<path d="M7433 8669
L8433 8669
" />
</g>
<g style="fill:#840084; fill-opacity:0.0; 
stroke:#840084; stroke-width:60; stroke-opacity:1; 
stroke-linecap:round; stroke-linejoin:round;">
<path d="M7933.07 9889.76 A600 600 0.0 0 0 8317.14 9750.73 " />
<path d="M7535.07 9737.76 A599.256 599.256 0.0 0 0 7932.89 9889.02 " />
<path d="M8323.07 8834.76 A599.27 599.27 0.0 0 0 7933.08 8690.49 " />
<path d="M7933.07 8689.76 A600 600 0.0 0 0 7549.01 8828.79 " />
<path d="M8533.07 9289.76 A600 600 0.0 0 0 8282.35 8801.9 " />
<path d="M8293.07 9769.76 A600 600 0.0 0 0 8533.07 9290.08 " />
<path d="M7565.07 8816.76 A599.294 599.294 0.0 0 0 7333.78 9289.59 " />
<path d="M7333.07 9289.76 A600 600 0.0 0 0 7564.5 9763.21 " />
<path d="M7933.07 9539.76 A250 250 0.0 0 0 8183.07 9289.76 " />
<path d="M7933.07 9689.76 A400 400 0.0 0 0 8333.07 9289.76 " />
<path d="M7933.07 9039.76 A250 250 0.0 0 0 7683.07 9289.76 " />
<path d="M7933.07 8889.76 A400 400 0.0 0 0 7533.07 9289.76 " />
</g>
<g style="fill:#840084; fill-opacity:0.0; 
stroke:#840084; stroke-width:100; stroke-opacity:1; 
stroke-linecap:round; stroke-linejoin:round;">
<path d="M8733.07 9289.76 A800 800 0.0 0 0 8446.23 8676.03 " />
<path d="M8309.07 9994.76 A799 799 0.0 0 0 8732.07 9290.15 " />
<path d="M7417.07 8679.76 A798.972 798.972 0.0 0 0 7134.1 9288.76 " />
<path d="M7133.07 9289.76 A800 800 0.0 0 0 7535.49 9983.98 " />
<path d="M7933.07 10089.8 A800 800 0.0 0 0 8312.34 9994.15 " />
<path d="M7514.07 9970.76 A799.576 799.576 0.0 0 0 7933.03 10089.3 " />
<path d="M10345 13732
L10345 14732
" />
</g>
<g style="fill:#840084; fill-opacity:0.0; 
stroke:#840084; stroke-width:60; stroke-opacity:1; 
stroke-linecap:round; stroke-linejoin:round;">
<path d="M9125.98 14232.3 A600 600 0.0 0 0 9265.01 14616.3 " />
<path d="M9277.98 13834.3 A599.256 599.256 0.0 0 0 9126.73 14232.1 " />
<path d="M10181 14622.3 A599.27 599.27 0.0 0 0 10325.3 14232.3 " />
<path d="M10326 14232.3 A600 600 0.0 0 0 10187 13848.2 " />
<path d="M9725.98 14832.3 A600 600 0.0 0 0 10213.8 14581.6 " />
<path d="M9245.98 14592.3 A600 600 0.0 0 0 9725.67 14832.3 " />
<path d="M10199 13864.3 A599.294 599.294 0.0 0 0 9726.16 13633 " />
<path d="M9725.98 13632.3 A600 600 0.0 0 0 9252.53 13863.7 " />
<path d="M9475.98 14232.3 A250 250 0.0 0 0 9725.98 14482.3 " />
<path d="M9325.98 14232.3 A400 400 0.0 0 0 9725.98 14632.3 " />
<path d="M9975.98 14232.3 A250 250 0.0 0 0 9725.98 13982.3 " />
<path d="M10126 14232.3 A400 400 0.0 0 0 9725.98 13832.3 " />
</g>
<g style="fill:#840084; fill-opacity:0.0; 
stroke:#840084; stroke-width:100; stroke-opacity:1; 
stroke-linecap:round; stroke-linejoin:round;">
<path d="M9725.98 15032.3 A800 800 0.0 0 0 10339.7 14745.4 " />
<path d="M9020.98 14608.3 A799 799 0.0 0 0 9725.6 15031.3 " />
<path d="M10336 13716.3 A798.972 798.972 0.0 0 0 9726.99 13433.3 " />
<path d="M9725.98 13432.3 A800 800 0.0 0 0 9031.77 13834.7 " />
<path d="M8925.98 14232.3 A800 800 0.0 0 0 9021.6 14611.6 " />
<path d="M9044.98 13813.3 A799.576 799.576 0.0 0 0 8926.41 14232.2 " />
<path d="M10345 11330
L10345 12330
" />
</g>
<g style="fill:#840084; fill-opacity:0.0; 
stroke:#840084; stroke-width:60; stroke-opacity:1; 
stroke-linecap:round; stroke-linejoin:round;">
<path d="M9125.98 11830.7 A600 600 0.0 0 0 9265.01 12214.8 " />
<path d="M9277.98 11432.7 A599.256 599.256 0.0 0 0 9126.73 11830.5 " />
<path d="M10181 12220.7 A599.27 599.27 0.0 0 0 10325.3 11830.7 " />
<path d="M10326 11830.7 A600 600 0.0 0 0 10187 11446.6 " />
<path d="M9725.98 12430.7 A600 600 0.0 0 0 10213.8 12180 " />
<path d="M9245.98 12190.7 A600 600 0.0 0 0 9725.67 12430.7 " />
<path d="M10199 11462.7 A599.294 599.294 0.0 0 0 9726.16 11231.4 " />
<path d="M9725.98 11230.7 A600 600 0.0 0 0 9252.53 11462.1 " />
<path d="M9475.98 11830.7 A250 250 0.0 0 0 9725.98 12080.7 " />
<path d="M9325.98 11830.7 A400 400 0.0 0 0 9725.98 12230.7 " />
<path d="M9975.98 11830.7 A250 250 0.0 0 0 9725.98 11580.7 " />
<path d="M10126 11830.7 A400 400 0.0 0 0 9725.98 11430.7 " />
</g>
<g style="fill:#840084; fill-opacity:0.0; 
stroke:#840084; stroke-width:100; stroke-opacity:1; 
stroke-linecap:round; stroke-linejoin:round;">
<path d="M9725.98 12630.7 A800 800 0.0 0 0 10339.7 12343.9 " />
<path d="M9020.98 12206.7 A799 799 0.0 0 0 9725.6 12629.7 " />
<path d="M10336 11314.7 A798.972 798.972 0.0 0 0 9726.99 11031.7 " />
<path d="M9725.98 11030.7 A800 800 0.0 0 0 9031.77 11433.1 " />
<path d="M8925.98 11830.7 A800 800 0.0 0 0 9021.6 12210 " />
<path d="M9044.98 11411.7 A799.576 799.576 0.0 0 0 8926.41 11830.7 " />
<path d="M4361 3338
L4361 4338
" />
</g>
<g style="fill:#840084; fill-opacity:0.0; 
stroke:#840084; stroke-width:60; stroke-opacity:1; 
stroke-linecap:round; stroke-linejoin:round;">
<path d="M3141.73 3838.58 A600 600 0.0 0 0 3280.76 4222.65 " />
<path d="M3293.73 3440.58 A599.256 599.256 0.0 0 0 3142.48 3838.4 " />
<path d="M4196.73 4228.58 A599.27 599.27 0.0 0 0 4341 3838.6 " />
<path d="M4341.73 3838.58 A600 600 0.0 0 0 4202.7 3454.52 " />
<path d="M3741.73 4438.58 A600 600 0.0 0 0 4229.59 4187.86 " />
<path d="M3261.73 4198.58 A600 600 0.0 0 0 3741.42 4438.58 " />
<path d="M4214.73 3470.58 A599.294 599.294 0.0 0 0 3741.91 3239.29 " />
<path d="M3741.73 3238.58 A600 600 0.0 0 0 3268.28 3470.01 " />
<path d="M3491.73 3838.58 A250 250 0.0 0 0 3741.73 4088.58 " />
<path d="M3341.73 3838.58 A400 400 0.0 0 0 3741.73 4238.58 " />
<path d="M3991.73 3838.58 A250 250 0.0 0 0 3741.73 3588.58 " />
<path d="M4141.73 3838.58 A400 400 0.0 0 0 3741.73 3438.58 " />
</g>
<g style="fill:#840084; fill-opacity:0.0; 
stroke:#840084; stroke-width:100; stroke-opacity:1; 
stroke-linecap:round; stroke-linejoin:round;">
<path d="M3741.73 4638.58 A800 800 0.0 0 0 4355.46 4351.74 " />
<path d="M3036.73 4214.58 A799 799 0.0 0 0 3741.35 4637.58 " />
<path d="M4351.73 3322.58 A798.972 798.972 0.0 0 0 3742.74 3039.61 " />
<path d="M3741.73 3038.58 A800 800 0.0 0 0 3047.52 3441 " />
<path d="M2941.73 3838.58 A800 800 0.0 0 0 3037.35 4217.85 " />
<path d="M3060.73 3419.58 A799.576 799.576 0.0 0 0 2942.16 3838.54 " />
<path d="M6487 4637
L6487 5637
" />
</g>
<g style="fill:#840084; fill-opacity:0.0; 
stroke:#840084; stroke-width:60; stroke-opacity:1; 
stroke-linecap:round; stroke-linejoin:round;">
<path d="M5267.72 5137.8 A600 600 0.0 0 0 5406.75 5521.86 " />
<path d="M5419.72 4739.8 A599.256 599.256 0.0 0 0 5268.46 5137.61 " />
<path d="M6322.72 5527.8 A599.27 599.27 0.0 0 0 6466.99 5137.81 " />
<path d="M6467.72 5137.8 A600 600 0.0 0 0 6328.69 4753.73 " />
<path d="M5867.72 5737.8 A600 600 0.0 0 0 6355.58 5487.07 " />
<path d="M5387.72 5497.8 A600 600 0.0 0 0 5867.4 5737.8 " />
<path d="M6340.72 4769.8 A599.294 599.294 0.0 0 0 5867.89 4538.5 " />
<path d="M5867.72 4537.8 A600 600 0.0 0 0 5394.27 4769.22 " />
<path d="M5617.72 5137.8 A250 250 0.0 0 0 5867.72 5387.8 " />
<path d="M5467.72 5137.8 A400 400 0.0 0 0 5867.72 5537.8 " />
<path d="M6117.72 5137.8 A250 250 0.0 0 0 5867.72 4887.8 " />
<path d="M6267.72 5137.8 A400 400 0.0 0 0 5867.72 4737.8 " />
</g>
<g style="fill:#840084; fill-opacity:0.0; 
stroke:#840084; stroke-width:100; stroke-opacity:1; 
stroke-linecap:round; stroke-linejoin:round;">
<path d="M5867.72 5937.8 A800 800 0.0 0 0 6481.45 5650.96 " />
<path d="M5162.72 5513.8 A799 799 0.0 0 0 5867.33 5936.8 " />
<path d="M6477.72 4621.8 A798.972 798.972 0.0 0 0 5868.72 4338.82 " />
<path d="M5867.72 4337.8 A800 800 0.0 0 0 5173.5 4740.22 " />
<path d="M5067.72 5137.8 A800 800 0.0 0 0 5163.34 5517.07 " />
<path d="M5186.72 4718.8 A799.576 799.576 0.0 0 0 5068.14 5137.76 " />
<path d="M7983 6645
L7983 7645
" />
</g>
<g style="fill:#840084; fill-opacity:0.0; 
stroke:#840084; stroke-width:60; stroke-opacity:1; 
stroke-linecap:round; stroke-linejoin:round;">
<path d="M6763.78 7145.67 A600 600 0.0 0 0 6902.81 7529.74 " />
<path d="M6915.78 6747.67 A599.256 599.256 0.0 0 0 6764.52 7145.48 " />
<path d="M7818.78 7535.67 A599.27 599.27 0.0 0 0 7963.05 7145.68 " />
<path d="M7963.78 7145.67 A600 600 0.0 0 0 7824.75 6761.6 " />
<path d="M7363.78 7745.67 A600 600 0.0 0 0 7851.64 7494.94 " />
<path d="M6883.78 7505.67 A600 600 0.0 0 0 7363.46 7745.67 " />
<path d="M7836.78 6777.67 A599.294 599.294 0.0 0 0 7363.95 6546.38 " />
<path d="M7363.78 6545.67 A600 600 0.0 0 0 6890.33 6777.1 " />
<path d="M7113.78 7145.67 A250 250 0.0 0 0 7363.78 7395.67 " />
<path d="M6963.78 7145.67 A400 400 0.0 0 0 7363.78 7545.67 " />
<path d="M7613.78 7145.67 A250 250 0.0 0 0 7363.78 6895.67 " />
<path d="M7763.78 7145.67 A400 400 0.0 0 0 7363.78 6745.67 " />
</g>
<g style="fill:#840084; fill-opacity:0.0; 
stroke:#840084; stroke-width:100; stroke-opacity:1; 
stroke-linecap:round; stroke-linejoin:round;">
<path d="M7363.78 7945.67 A800 800 0.0 0 0 7977.51 7658.83 " />
<path d="M6658.78 7521.67 A799 799 0.0 0 0 7363.4 7944.67 " />
<path d="M7973.78 6629.67 A798.972 798.972 0.0 0 0 7364.78 6346.7 " />
<path d="M7363.78 6345.67 A800 800 0.0 0 0 6669.57 6748.09 " />
<path d="M6563.78 7145.67 A800 800 0.0 0 0 6659.4 7524.94 " />
<path d="M6682.78 6726.67 A799.576 799.576 0.0 0 0 6564.2 7145.63 " />
<path d="M10345 8889
L10345 9889
" />
</g>
<g style="fill:#840084; fill-opacity:0.0; 
stroke:#840084; stroke-width:60; stroke-opacity:1; 
stroke-linecap:round; stroke-linejoin:round;">
<path d="M9125.98 9389.76 A600 600 0.0 0 0 9265.01 9773.83 " />
<path d="M9277.98 8991.76 A599.256 599.256 0.0 0 0 9126.73 9389.58 " />
<path d="M10181 9779.76 A599.27 599.27 0.0 0 0 10325.3 9389.78 " />
<path d="M10326 9389.76 A600 600 0.0 0 0 10187 9005.7 " />
<path d="M9725.98 9989.76 A600 600 0.0 0 0 10213.8 9739.04 " />
<path d="M9245.98 9749.76 A600 600 0.0 0 0 9725.67 9989.76 " />
<path d="M10199 9021.76 A599.294 599.294 0.0 0 0 9726.16 8790.47 " />
<path d="M9725.98 8789.76 A600 600 0.0 0 0 9252.53 9021.19 " />
<path d="M9475.98 9389.76 A250 250 0.0 0 0 9725.98 9639.76 " />
<path d="M9325.98 9389.76 A400 400 0.0 0 0 9725.98 9789.76 " />
<path d="M9975.98 9389.76 A250 250 0.0 0 0 9725.98 9139.76 " />
<path d="M10126 9389.76 A400 400 0.0 0 0 9725.98 8989.76 " />
</g>
<g style="fill:#840084; fill-opacity:0.0; 
stroke:#840084; stroke-width:100; stroke-opacity:1; 
stroke-linecap:round; stroke-linejoin:round;">
<path d="M9725.98 10189.8 A800 800 0.0 0 0 10339.7 9902.92 " />
<path d="M9020.98 9765.76 A799 799 0.0 0 0 9725.6 10188.8 " />
<path d="M10336 8873.76 A798.972 798.972 0.0 0 0 9726.99 8590.79 " />
<path d="M9725.98 8589.76 A800 800 0.0 0 0 9031.77 8992.19 " />
<path d="M8925.98 9389.76 A800 800 0.0 0 0 9021.6 9769.03 " />
<path d="M9044.98 8970.76 A799.576 799.576 0.0 0 0 8926.41 9389.72 " />
<path d="M10345 6448
L10345 7448
" />
</g>
<g style="fill:#840084; fill-opacity:0.0; 
stroke:#840084; stroke-width:60; stroke-opacity:1; 
stroke-linecap:round; stroke-linejoin:round;">
<path d="M9125.98 6948.82 A600 600 0.0 0 0 9265.01 7332.89 " />
<path d="M9277.98 6550.82 A599.256 599.256 0.0 0 0 9126.73 6948.63 " />
<path d="M10181 7338.82 A599.27 599.27 0.0 0 0 10325.3 6948.83 " />
<path d="M10326 6948.82 A600 600 0.0 0 0 10187 6564.75 " />
<path d="M9725.98 7548.82 A600 600 0.0 0 0 10213.8 7298.09 " />
<path d="M9245.98 7308.82 A600 600 0.0 0 0 9725.67 7548.82 " />
<path d="M10199 6580.82 A599.294 599.294 0.0 0 0 9726.16 6349.53 " />
<path d="M9725.98 6348.82 A600 600 0.0 0 0 9252.53 6580.25 " />
<path d="M9475.98 6948.82 A250 250 0.0 0 0 9725.98 7198.82 " />
<path d="M9325.98 6948.82 A400 400 0.0 0 0 9725.98 7348.82 " />
<path d="M9975.98 6948.82 A250 250 0.0 0 0 9725.98 6698.82 " />
<path d="M10126 6948.82 A400 400 0.0 0 0 9725.98 6548.82 " />
</g>
<g style="fill:#840084; fill-opacity:0.0; 
stroke:#840084; stroke-width:100; stroke-opacity:1; 
stroke-linecap:round; stroke-linejoin:round;">
<path d="M9725.98 7748.82 A800 800 0.0 0 0 10339.7 7461.98 " />
<path d="M9020.98 7324.82 A799 799 0.0 0 0 9725.6 7747.82 " />
<path d="M10336 6432.82 A798.972 798.972 0.0 0 0 9726.99 6149.85 " />
<path d="M9725.98 6148.82 A800 800 0.0 0 0 9031.77 6551.24 " />
<path d="M8925.98 6948.82 A800 800 0.0 0 0 9021.6 7328.09 " />
<path d="M9044.98 6529.82 A799.576 799.576 0.0 0 0 8926.41 6948.78 " />
<path d="M11803 15953
L12803 15953
" />
</g>
<g style="fill:#840084; fill-opacity:0.0; 
stroke:#840084; stroke-width:60; stroke-opacity:1; 
stroke-linecap:round; stroke-linejoin:round;">
<path d="M12303.1 17173.2 A600 600 0.0 0 0 12687.2 17034.2 " />
<path d="M11905.1 17021.2 A599.256 599.256 0.0 0 0 12303 17172.5 " />
<path d="M12693.2 16118.2 A599.27 599.27 0.0 0 0 12303.2 15974 " />
<path d="M12303.1 15973.2 A600 600 0.0 0 0 11919.1 16112.3 " />
<path d="M12903.1 16573.2 A600 600 0.0 0 0 12652.4 16085.4 " />
<path d="M12663.1 17053.2 A600 600 0.0 0 0 12903.1 16573.5 " />
<path d="M11935.2 16100.2 A599.294 599.294 0.0 0 0 11703.9 16573.1 " />
<path d="M11703.1 16573.2 A600 600 0.0 0 0 11934.6 17046.7 " />
<path d="M12303.1 16823.2 A250 250 0.0 0 0 12553.1 16573.2 " />
<path d="M12303.1 16973.2 A400 400 0.0 0 0 12703.1 16573.2 " />
<path d="M12303.1 16323.2 A250 250 0.0 0 0 12053.1 16573.2 " />
<path d="M12303.1 16173.2 A400 400 0.0 0 0 11903.1 16573.2 " />
</g>
<g style="fill:#840084; fill-opacity:0.0; 
stroke:#840084; stroke-width:100; stroke-opacity:1; 
stroke-linecap:round; stroke-linejoin:round;">
<path d="M13103.1 16573.2 A800 800 0.0 0 0 12816.3 15959.5 " />
<path d="M12679.1 17278.2 A799 799 0.0 0 0 13102.1 16573.6 " />
<path d="M11787.2 15963.2 A798.972 798.972 0.0 0 0 11504.2 16572.2 " />
<path d="M11503.1 16573.2 A800 800 0.0 0 0 11905.6 17267.4 " />
<path d="M12303.1 17373.2 A800 800 0.0 0 0 12682.4 17277.6 " />
<path d="M11884.2 17254.2 A799.576 799.576 0.0 0 0 12303.1 17372.8 " />
<path d="M6409 15953
L7409 15953
" />
</g>
<g style="fill:#840084; fill-opacity:0.0; 
stroke:#840084; stroke-width:60; stroke-opacity:1; 
stroke-linecap:round; stroke-linejoin:round;">
<path d="M6909.45 17173.2 A600 600 0.0 0 0 7293.52 17034.2 " />
<path d="M6511.45 17021.2 A599.256 599.256 0.0 0 0 6909.26 17172.5 " />
<path d="M7299.45 16118.2 A599.27 599.27 0.0 0 0 6909.46 15974 " />
<path d="M6909.45 15973.2 A600 600 0.0 0 0 6525.38 16112.3 " />
<path d="M7509.45 16573.2 A600 600 0.0 0 0 7258.72 16085.4 " />
<path d="M7269.45 17053.2 A600 600 0.0 0 0 7509.45 16573.5 " />
<path d="M6541.45 16100.2 A599.294 599.294 0.0 0 0 6310.16 16573.1 " />
<path d="M6309.45 16573.2 A600 600 0.0 0 0 6540.88 17046.7 " />
<path d="M6909.45 16823.2 A250 250 0.0 0 0 7159.45 16573.2 " />
<path d="M6909.45 16973.2 A400 400 0.0 0 0 7309.45 16573.2 " />
<path d="M6909.45 16323.2 A250 250 0.0 0 0 6659.45 16573.2 " />
<path d="M6909.45 16173.2 A400 400 0.0 0 0 6509.45 16573.2 " />
</g>
<g style="fill:#840084; fill-opacity:0.0; 
stroke:#840084; stroke-width:100; stroke-opacity:1; 
stroke-linecap:round; stroke-linejoin:round;">
<path d="M7709.45 16573.2 A800 800 0.0 0 0 7422.61 15959.5 " />
<path d="M7285.45 17278.2 A799 799 0.0 0 0 7708.45 16573.6 " />
<path d="M6393.45 15963.2 A798.972 798.972 0.0 0 0 6110.48 16572.2 " />
<path d="M6109.45 16573.2 A800 800 0.0 0 0 6511.87 17267.4 " />
<path d="M6909.45 17373.2 A800 800 0.0 0 0 7288.72 17277.6 " />
<path d="M6490.45 17254.2 A799.576 799.576 0.0 0 0 6909.41 17372.8 " />
</g>
<g style="fill:#840084; fill-opacity:0.0; 
stroke:#840084; stroke-width:60; stroke-opacity:1; 
stroke-linecap:round; stroke-linejoin:round;">
<path d="M3578 20244
L3578 19244
" />
<path d="M3578 19244
L1578 19244
" />
<path d="M1578 19244
L1578 20244
" />
<path d="M1578 20244
L3578 20244
" />
</g>
<g style="fill:#840084; fill-opacity:0.0; 
stroke:#840084; stroke-width:120; stroke-opacity:1; 
stroke-linecap:round; stroke-linejoin:round;">
<path d="M18141 5694
L17141 5694
" />
<path d="M17141 5694
L17141 11694
" />
<path d="M17141 11694
L18141 11694
" />
<path d="M18141 11694
L18141 5694
" />
<path d="M18141 6694
L17141 6694
" />
</g>
<g style="fill:#840084; fill-opacity:0.0; 
stroke:#840084; stroke-width:50; stroke-opacity:1; 
stroke-linecap:round; stroke-linejoin:round;">
<path d="M6682 21857
L6682 20607
" />
<path d="M4657 21857
L4657 20607
" />
<path d="M4657 20607
L7057 20607
" />
<path d="M7057 20607
L7057 21857
" />
<path d="M7057 21857
L4657 21857
" />
<path d="M7148 25091
L7148 23841
" />
<path d="M5123 25091
L5123 23841
" />
<path d="M5123 23841
L7523 23841
" />
<path d="M7523 23841
L7523 25091
" />
<path d="M7523 25091
L5123 25091
" />
<path d="M5691 22305
L5691 23605
" />
<path d="M6991 22305
L6991 23605
" />
<path d="M7241 22305
L7241 23605
" />
<path d="M7241 23605
L5441 23605
" />
<path d="M5441 23605
L5441 22305
" />
<path d="M5441 22305
L7241 22305
" />
<path d="M6366 20504
L6366 19204
" />
<path d="M5066 20504
L5066 19204
" />
<path d="M4816 20504
L4816 19204
" />
<path d="M4816 19204
L6616 19204
" />
<path d="M6616 19204
L6616 20504
" />
<path d="M6616 20504
L4816 20504
" />
<path d="M13130 8460
L12530 8460
" />
<path d="M13073 9089
L13101 9060
L13130 8975
L13130 8918
L13101 8832
L13044 8775
L12987 8746
L12873 8718
L12787 8718
L12673 8746
L12616 8775
L12559 8832
L12530 8918
L12530 8975
L12559 9060
L12587 9089
" />
<path d="M13130 9660
L13130 9318
" />
<path d="M13130 9489
L12530 9489
L12616 9432
L12673 9375
L12701 9318
" />
<path d="M13959 6689
L13959 6927
" />
<path d="M14130 6641
L13530 6808
L14130 6975
" />
<path d="M13530 7070
L13530 7356
" />
<path d="M14130 7213
L13530 7213
" />
<path d="M13530 7451
L13530 7737
" />
<path d="M14130 7594
L13530 7594
" />
<path d="M14130 7903
L13530 7903
" />
<path d="M14130 8141
L13530 8141
L14130 8427
L13530 8427
" />
<path d="M13844 8760
L14130 8760
" />
<path d="M13530 8594
L13844 8760
L13530 8927
" />
<path d="M13787 9165
L13759 9118
L13730 9094
L13673 9070
L13644 9070
L13587 9094
L13559 9118
L13530 9165
L13530 9260
L13559 9308
L13587 9332
L13644 9356
L13673 9356
L13730 9332
L13759 9308
L13787 9260
L13787 9165
L13816 9118
L13844 9094
L13901 9070
L14016 9070
L14073 9094
L14101 9118
L14130 9165
L14130 9260
L14101 9308
L14073 9332
L14016 9356
L13901 9356
L13844 9332
L13816 9308
L13787 9260
" />
<path d="M13530 9784
L13530 9689
L13559 9641
L13587 9618
L13673 9570
L13787 9546
L14016 9546
L14073 9570
L14101 9594
L14130 9641
L14130 9737
L14101 9784
L14073 9808
L14016 9832
L13873 9832
L13816 9808
L13787 9784
L13759 9737
L13759 9641
L13787 9594
L13816 9570
L13873 9546
" />
<path d="M14130 10308
L14130 10022
" />
<path d="M14130 10165
L13530 10165
L13616 10118
L13673 10070
L13701 10022
" />
<path d="M13901 10522
L13901 10903
" />
<path d="M14101 11118
L14130 11189
L14130 11308
L14101 11356
L14073 11379
L14016 11403
L13959 11403
L13901 11379
L13873 11356
L13844 11308
L13816 11213
L13787 11165
L13759 11141
L13701 11118
L13644 11118
L13587 11141
L13559 11165
L13530 11213
L13530 11332
L13559 11403
" />
<path d="M15874 20407
L15974 20265
" />
<path d="M16046 20407
L16046 20107
L15931 20107
L15903 20122
L15889 20136
L15874 20165
L15874 20207
L15889 20236
L15903 20250
L15931 20265
L16046 20265
" />
<path d="M15617 20207
L15617 20407
" />
<path d="M15689 20093
L15760 20307
L15574 20307
" />
<path d="M15698 21706
L15798 21563
" />
<path d="M15870 21706
L15870 21406
L15756 21406
L15727 21420
L15713 21435
L15698 21463
L15698 21506
L15713 21535
L15727 21549
L15756 21563
L15870 21563
" />
<path d="M15598 21406
L15413 21406
L15513 21520
L15470 21520
L15441 21535
L15427 21549
L15413 21577
L15413 21649
L15427 21677
L15441 21692
L15470 21706
L15556 21706
L15584 21692
L15598 21677
" />
<path d="M14178 3579
L14278 3436
" />
<path d="M14349 3579
L14349 3279
L14235 3279
L14206 3293
L14192 3308
L14178 3336
L14178 3379
L14192 3408
L14206 3422
L14235 3436
L14349 3436
" />
<path d="M14064 3308
L14049 3293
L14021 3279
L13949 3279
L13921 3293
L13906 3308
L13892 3336
L13892 3365
L13906 3408
L14078 3579
L13892 3579
" />
<path d="M15622 1385
L15722 1242
" />
<path d="M15793 1385
L15793 1085
L15679 1085
L15650 1099
L15636 1113
L15622 1142
L15622 1185
L15636 1213
L15650 1228
L15679 1242
L15793 1242
" />
<path d="M15336 1385
L15507 1385
" />
<path d="M15422 1385
L15422 1085
L15450 1128
L15479 1156
L15507 1170
" />
</g>
<g style="fill:#840084; fill-opacity:0.0; 
stroke:#840084; stroke-width:80; stroke-opacity:1; 
stroke-linecap:round; stroke-linejoin:round;">
<path d="M5805 9588
L5829 9659
L5829 9778
L5805 9826
L5782 9850
L5734 9874
L5686 9874
L5639 9850
L5615 9826
L5591 9778
L5567 9683
L5544 9635
L5520 9612
L5472 9588
L5425 9588
L5377 9612
L5353 9635
L5329 9683
L5329 9802
L5353 9874
" />
<path d="M5329 10040
L5829 10159
L5472 10255
L5829 10350
L5329 10469
" />
<path d="M5829 10921
L5829 10635
" />
<path d="M5829 10778
L5329 10778
L5401 10731
L5448 10683
L5472 10635
" />
<path d="M1105 8524
L1129 8595
L1129 8714
L1105 8762
L1082 8785
L1034 8809
L986 8809
L939 8785
L915 8762
L891 8714
L867 8619
L844 8571
L820 8547
L772 8524
L725 8524
L677 8547
L653 8571
L629 8619
L629 8738
L653 8809
" />
<path d="M629 8976
L1129 9095
L772 9190
L1129 9285
L629 9405
" />
<path d="M1177 9476
L1177 9857
" />
<path d="M1129 9976
L629 9976
L629 10166
L653 10214
L677 10238
L725 10262
L796 10262
L844 10238
L867 10214
L891 10166
L891 9976
" />
<path d="M629 10476
L1034 10476
L1082 10500
L1105 10524
L1129 10571
L1129 10666
L1105 10714
L1082 10738
L1034 10762
L629 10762
" />
<path d="M1105 10976
L1129 11047
L1129 11166
L1105 11214
L1082 11238
L1034 11262
L986 11262
L939 11238
L915 11214
L891 11166
L867 11071
L844 11024
L820 11000
L772 10976
L725 10976
L677 11000
L653 11024
L629 11071
L629 11190
L653 11262
" />
<path d="M1129 11476
L629 11476
" />
<path d="M867 11476
L867 11762
" />
<path d="M1129 11762
L629 11762
" />
</g>
<g style="fill:#840084; fill-opacity:0.0; 
stroke:#840084; stroke-width:35; stroke-opacity:1; 
stroke-linecap:round; stroke-linejoin:round;">
<path d="M10690 20349
L10690 20049
L10618 20049
L10575 20064
L10547 20092
L10533 20121
L10518 20178
L10518 20221
L10533 20278
L10547 20307
L10575 20335
L10618 20349
L10690 20349
" />
<path d="M10404 20078
L10390 20064
L10361 20049
L10290 20049
L10261 20064
L10247 20078
L10233 20107
L10233 20135
L10247 20178
L10418 20349
L10233 20349
" />
<path d="M9975 20149
L9975 20349
" />
<path d="M10047 20035
L10118 20249
L9933 20249
" />
<path d="M9818 18249
L9961 18249
L9961 17949
" />
<path d="M9718 18092
L9618 18092
" />
<path d="M9575 18249
L9718 18249
L9718 17949
L9575 17949
" />
<path d="M9447 18249
L9447 17949
L9375 17949
L9333 17964
L9304 17992
L9290 18021
L9275 18078
L9275 18121
L9290 18178
L9304 18207
L9333 18235
L9375 18249
L9447 18249
" />
<path d="M13224 3342
L13224 3042
L13153 3042
L13110 3056
L13081 3084
L13067 3113
L13053 3170
L13053 3213
L13067 3270
L13081 3299
L13110 3327
L13153 3342
L13224 3342
" />
<path d="M12781 3042
L12924 3042
L12938 3184
L12924 3170
L12896 3156
L12824 3156
L12796 3170
L12781 3184
L12767 3213
L12767 3284
L12781 3313
L12796 3327
L12824 3342
L12896 3342
L12924 3327
L12938 3313
" />
<path d="M12496 1242
L12638 1242
L12638 942
" />
<path d="M12396 1084
L12296 1084
" />
<path d="M12253 1242
L12396 1242
L12396 942
L12253 942
" />
<path d="M12124 1242
L12124 942
L12053 942
L12010 956
L11981 984
L11967 1013
L11953 1070
L11953 1113
L11967 1170
L11981 1199
L12010 1227
L12053 1242
L12124 1242
" />
<path d="M18932 15608
L18632 15608
L18632 15680
L18646 15723
L18675 15751
L18703 15766
L18761 15780
L18803 15780
L18861 15766
L18889 15751
L18918 15723
L18932 15680
L18932 15608
" />
<path d="M18661 15894
L18646 15908
L18632 15937
L18632 16008
L18646 16037
L18661 16051
L18689 16066
L18718 16066
L18761 16051
L18932 15880
L18932 16066
" />
<path d="M18632 16166
L18632 16351
L18746 16251
L18746 16294
L18761 16323
L18775 16337
L18803 16351
L18875 16351
L18903 16337
L18918 16323
L18932 16294
L18932 16208
L18918 16180
L18903 16166
" />
<path d="M16832 16480
L16832 16337
L16532 16337
" />
<path d="M16675 16580
L16675 16680
" />
<path d="M16832 16723
L16832 16580
L16532 16580
L16532 16723
" />
<path d="M16832 16851
L16532 16851
L16532 16923
L16546 16966
L16575 16994
L16603 17008
L16661 17023
L16703 17023
L16761 17008
L16789 16994
L16818 16966
L16832 16923
L16832 16851
" />
<path d="M16216 15608
L15916 15608
L15916 15680
L15930 15723
L15958 15751
L15987 15766
L16044 15780
L16087 15780
L16144 15766
L16173 15751
L16201 15723
L16216 15680
L16216 15608
" />
<path d="M15944 15894
L15930 15908
L15916 15937
L15916 16008
L15930 16037
L15944 16051
L15973 16066
L16001 16066
L16044 16051
L16216 15880
L16216 16066
" />
<path d="M15944 16180
L15930 16194
L15916 16223
L15916 16294
L15930 16323
L15944 16337
L15973 16351
L16001 16351
L16044 16337
L16216 16166
L16216 16351
" />
<path d="M14116 16480
L14116 16337
L13816 16337
" />
<path d="M13958 16580
L13958 16680
" />
<path d="M14116 16723
L14116 16580
L13816 16580
L13816 16723
" />
<path d="M14116 16851
L13816 16851
L13816 16923
L13830 16966
L13858 16994
L13887 17008
L13944 17023
L13987 17023
L14044 17008
L14073 16994
L14101 16966
L14116 16923
L14116 16851
" />
<path d="M5467 15608
L5167 15608
L5167 15680
L5182 15723
L5210 15751
L5239 15766
L5296 15780
L5339 15780
L5396 15766
L5425 15751
L5453 15723
L5467 15680
L5467 15608
" />
<path d="M5467 16066
L5467 15894
" />
<path d="M5467 15980
L5167 15980
L5210 15951
L5239 15923
L5253 15894
" />
<path d="M5296 16237
L5282 16208
L5267 16194
L5239 16180
L5225 16180
L5196 16194
L5182 16208
L5167 16237
L5167 16294
L5182 16323
L5196 16337
L5225 16351
L5239 16351
L5267 16337
L5282 16323
L5296 16294
L5296 16237
L5310 16208
L5325 16194
L5353 16180
L5410 16180
L5439 16194
L5453 16208
L5467 16237
L5467 16294
L5453 16323
L5439 16337
L5410 16351
L5353 16351
L5325 16337
L5310 16323
L5296 16294
" />
<path d="M3367 16480
L3367 16337
L3067 16337
" />
<path d="M3210 16580
L3210 16680
" />
<path d="M3367 16723
L3367 16580
L3067 16580
L3067 16723
" />
<path d="M3367 16851
L3067 16851
L3067 16923
L3082 16966
L3110 16994
L3139 17008
L3196 17023
L3239 17023
L3296 17008
L3325 16994
L3353 16966
L3367 16923
L3367 16851
" />
<path d="M2790 15608
L2490 15608
L2490 15680
L2505 15723
L2533 15751
L2562 15766
L2619 15780
L2662 15780
L2719 15766
L2747 15751
L2776 15723
L2790 15680
L2790 15608
" />
<path d="M2790 16066
L2790 15894
" />
<path d="M2790 15980
L2490 15980
L2533 15951
L2562 15923
L2576 15894
" />
<path d="M2490 16166
L2490 16366
L2790 16237
" />
<path d="M690 16480
L690 16337
L390 16337
" />
<path d="M533 16580
L533 16680
" />
<path d="M690 16723
L690 16580
L390 16580
L390 16723
" />
<path d="M690 16851
L390 16851
L390 16923
L405 16966
L433 16994
L462 17008
L519 17023
L562 17023
L619 17008
L647 16994
L676 16966
L690 16923
L690 16851
" />
<path d="M12554 23286
L12254 23286
L12254 23357
L12268 23400
L12297 23428
L12326 23443
L12383 23457
L12426 23457
L12483 23443
L12511 23428
L12540 23400
L12554 23357
L12554 23286
" />
<path d="M12283 23571
L12268 23586
L12254 23614
L12254 23686
L12268 23714
L12283 23728
L12311 23743
L12340 23743
L12383 23728
L12554 23557
L12554 23743
" />
<path d="M12554 23886
L12554 23943
L12540 23971
L12526 23986
L12483 24014
L12426 24028
L12311 24028
L12283 24014
L12268 24000
L12254 23971
L12254 23914
L12268 23886
L12283 23871
L12311 23857
L12383 23857
L12411 23871
L12426 23886
L12440 23914
L12440 23971
L12426 24000
L12411 24014
L12383 24028
" />
<path d="M10454 24157
L10454 24014
L10154 24014
" />
<path d="M10297 24257
L10297 24357
" />
<path d="M10454 24400
L10454 24257
L10154 24257
L10154 24400
" />
<path d="M10454 24528
L10154 24528
L10154 24600
L10168 24643
L10197 24671
L10226 24686
L10283 24700
L10326 24700
L10383 24686
L10411 24671
L10440 24643
L10454 24600
L10454 24528
" />
<path d="M10690 30034
L10690 29734
L10618 29734
L10575 29749
L10547 29777
L10533 29806
L10518 29863
L10518 29906
L10533 29963
L10547 29992
L10575 30020
L10618 30034
L10690 30034
" />
<path d="M10404 29763
L10390 29749
L10361 29734
L10290 29734
L10261 29749
L10247 29763
L10233 29792
L10233 29820
L10247 29863
L10418 30034
L10233 30034
" />
<path d="M10061 29863
L10090 29849
L10104 29834
L10118 29806
L10118 29792
L10104 29763
L10090 29749
L10061 29734
L10004 29734
L9975 29749
L9961 29763
L9947 29792
L9947 29806
L9961 29834
L9975 29849
L10004 29863
L10061 29863
L10090 29877
L10104 29892
L10118 29920
L10118 29977
L10104 30006
L10090 30020
L10061 30034
L10004 30034
L9975 30020
L9961 30006
L9947 29977
L9947 29920
L9961 29892
L9975 29877
L10004 29863
" />
<path d="M9818 27934
L9961 27934
L9961 27634
" />
<path d="M9718 27777
L9618 27777
" />
<path d="M9575 27934
L9718 27934
L9718 27634
L9575 27634
" />
<path d="M9447 27934
L9447 27634
L9375 27634
L9333 27649
L9304 27677
L9290 27706
L9275 27763
L9275 27806
L9290 27863
L9304 27892
L9333 27920
L9375 27934
L9447 27934
" />
<path d="M10690 27633
L10690 27333
L10618 27333
L10575 27347
L10547 27376
L10533 27404
L10518 27461
L10518 27504
L10533 27561
L10547 27590
L10575 27619
L10618 27633
L10690 27633
" />
<path d="M10404 27361
L10390 27347
L10361 27333
L10290 27333
L10261 27347
L10247 27361
L10233 27390
L10233 27419
L10247 27461
L10418 27633
L10233 27633
" />
<path d="M10133 27333
L9933 27333
L10061 27633
" />
<path d="M9818 25533
L9961 25533
L9961 25233
" />
<path d="M9718 25376
L9618 25376
" />
<path d="M9575 25533
L9718 25533
L9718 25233
L9575 25233
" />
<path d="M9447 25533
L9447 25233
L9375 25233
L9333 25247
L9304 25276
L9290 25304
L9275 25361
L9275 25404
L9290 25461
L9304 25490
L9333 25519
L9375 25533
L9447 25533
" />
<path d="M16845 17341
L16545 17341
L16545 17412
L16560 17455
L16588 17484
L16617 17498
L16674 17512
L16717 17512
L16774 17498
L16803 17484
L16831 17455
L16845 17412
L16845 17341
" />
<path d="M16545 17612
L16545 17798
L16660 17698
L16660 17741
L16674 17769
L16688 17784
L16717 17798
L16788 17798
L16817 17784
L16831 17769
L16845 17741
L16845 17655
L16831 17626
L16817 17612
" />
<path d="M16574 17912
L16560 17926
L16545 17955
L16545 18026
L16560 18055
L16574 18069
L16603 18084
L16631 18084
L16674 18069
L16845 17898
L16845 18084
" />
<path d="M14745 18212
L14745 18069
L14445 18069
" />
<path d="M14588 18312
L14588 18412
" />
<path d="M14745 18455
L14745 18312
L14445 18312
L14445 18455
" />
<path d="M14745 18584
L14445 18584
L14445 18655
L14460 18698
L14488 18726
L14517 18741
L14574 18755
L14617 18755
L14674 18741
L14703 18726
L14731 18698
L14745 18655
L14745 18584
" />
<path d="M14719 18640
L14419 18640
L14419 18711
L14434 18754
L14462 18783
L14491 18797
L14548 18811
L14591 18811
L14648 18797
L14677 18783
L14705 18754
L14719 18711
L14719 18640
" />
<path d="M14419 18911
L14419 19097
L14534 18997
L14534 19040
L14548 19069
L14562 19083
L14591 19097
L14662 19097
L14691 19083
L14705 19069
L14719 19040
L14719 18954
L14705 18926
L14691 18911
" />
<path d="M14719 19383
L14719 19211
" />
<path d="M14719 19297
L14419 19297
L14462 19269
L14491 19240
L14505 19211
" />
<path d="M12619 19511
L12619 19369
L12319 19369
" />
<path d="M12462 19611
L12462 19711
" />
<path d="M12619 19754
L12619 19611
L12319 19611
L12319 19754
" />
<path d="M12619 19883
L12319 19883
L12319 19954
L12334 19997
L12362 20026
L12391 20040
L12448 20054
L12491 20054
L12548 20040
L12577 20026
L12605 19997
L12619 19954
L12619 19883
" />
<path d="M13223 20648
L12923 20648
L12923 20719
L12938 20762
L12966 20791
L12995 20805
L13052 20819
L13095 20819
L13152 20805
L13181 20791
L13209 20762
L13223 20719
L13223 20648
" />
<path d="M12923 20919
L12923 21105
L13038 21005
L13038 21048
L13052 21076
L13066 21091
L13095 21105
L13166 21105
L13195 21091
L13209 21076
L13223 21048
L13223 20962
L13209 20934
L13195 20919
" />
<path d="M12923 21291
L12923 21319
L12938 21348
L12952 21362
L12981 21376
L13038 21391
L13109 21391
L13166 21376
L13195 21362
L13209 21348
L13223 21319
L13223 21291
L13209 21262
L13195 21248
L13166 21234
L13109 21219
L13038 21219
L12981 21234
L12952 21248
L12938 21262
L12923 21291
" />
<path d="M11123 21519
L11123 21376
L10823 21376
" />
<path d="M10966 21619
L10966 21719
" />
<path d="M11123 21762
L11123 21619
L10823 21619
L10823 21762
" />
<path d="M11123 21891
L10823 21891
L10823 21962
L10838 22005
L10866 22034
L10895 22048
L10952 22062
L10995 22062
L11052 22048
L11081 22034
L11109 22005
L11123 21962
L11123 21891
" />
<path d="M10690 25192
L10690 24892
L10618 24892
L10575 24906
L10547 24935
L10533 24963
L10518 25020
L10518 25063
L10533 25120
L10547 25149
L10575 25178
L10618 25192
L10690 25192
" />
<path d="M10404 24920
L10390 24906
L10361 24892
L10290 24892
L10261 24906
L10247 24920
L10233 24949
L10233 24978
L10247 25020
L10418 25192
L10233 25192
" />
<path d="M9975 24892
L10033 24892
L10061 24906
L10075 24920
L10104 24963
L10118 25020
L10118 25135
L10104 25163
L10090 25178
L10061 25192
L10004 25192
L9975 25178
L9961 25163
L9947 25135
L9947 25063
L9961 25035
L9975 25020
L10004 25006
L10061 25006
L10090 25020
L10104 25035
L10118 25063
" />
<path d="M9818 23092
L9961 23092
L9961 22792
" />
<path d="M9718 22935
L9618 22935
" />
<path d="M9575 23092
L9718 23092
L9718 22792
L9575 22792
" />
<path d="M9447 23092
L9447 22792
L9375 22792
L9333 22806
L9304 22835
L9290 22863
L9275 22920
L9275 22963
L9290 23020
L9304 23049
L9333 23078
L9375 23092
L9447 23092
" />
<path d="M10690 22751
L10690 22451
L10618 22451
L10575 22465
L10547 22494
L10533 22522
L10518 22580
L10518 22622
L10533 22680
L10547 22708
L10575 22737
L10618 22751
L10690 22751
" />
<path d="M10404 22480
L10390 22465
L10361 22451
L10290 22451
L10261 22465
L10247 22480
L10233 22508
L10233 22537
L10247 22580
L10418 22751
L10233 22751
" />
<path d="M9961 22451
L10104 22451
L10118 22594
L10104 22580
L10075 22565
L10004 22565
L9975 22580
L9961 22594
L9947 22622
L9947 22694
L9961 22722
L9975 22737
L10004 22751
L10075 22751
L10104 22737
L10118 22722
" />
<path d="M9818 20651
L9961 20651
L9961 20351
" />
<path d="M9718 20494
L9618 20494
" />
<path d="M9575 20651
L9718 20651
L9718 20351
L9575 20351
" />
<path d="M9447 20651
L9447 20351
L9375 20351
L9333 20365
L9304 20394
L9290 20422
L9275 20480
L9275 20522
L9290 20580
L9304 20608
L9333 20637
L9375 20651
L9447 20651
" />
<path d="M10690 17908
L10690 17608
L10618 17608
L10575 17623
L10547 17651
L10533 17680
L10518 17737
L10518 17780
L10533 17837
L10547 17866
L10575 17894
L10618 17908
L10690 17908
" />
<path d="M10404 17637
L10390 17623
L10361 17608
L10290 17608
L10261 17623
L10247 17637
L10233 17666
L10233 17694
L10247 17737
L10418 17908
L10233 17908
" />
<path d="M10047 17608
L10018 17608
L9990 17623
L9975 17637
L9961 17666
L9947 17723
L9947 17794
L9961 17851
L9975 17880
L9990 17894
L10018 17908
L10047 17908
L10075 17894
L10090 17880
L10104 17851
L10118 17794
L10118 17723
L10104 17666
L10090 17637
L10075 17623
L10047 17608
" />
<path d="M9818 15808
L9961 15808
L9961 15508
" />
<path d="M9718 15651
L9618 15651
" />
<path d="M9575 15808
L9718 15808
L9718 15508
L9575 15508
" />
<path d="M9447 15808
L9447 15508
L9375 15508
L9333 15523
L9304 15551
L9290 15580
L9275 15637
L9275 15680
L9290 15737
L9304 15766
L9333 15794
L9375 15808
L9447 15808
" />
<path d="M10547 3342
L10547 3042
L10475 3042
L10433 3056
L10404 3084
L10390 3113
L10375 3170
L10375 3213
L10390 3270
L10404 3299
L10433 3327
L10475 3342
L10547 3342
" />
<path d="M10118 3142
L10118 3342
" />
<path d="M10190 3027
L10261 3242
L10075 3242
" />
<path d="M9818 1242
L9961 1242
L9961 942
" />
<path d="M9718 1084
L9618 1084
" />
<path d="M9575 1242
L9718 1242
L9718 942
L9575 942
" />
<path d="M9447 1242
L9447 942
L9375 942
L9333 956
L9304 984
L9290 1013
L9275 1070
L9275 1113
L9290 1170
L9304 1199
L9333 1227
L9375 1242
L9447 1242
" />
<path d="M7830 3342
L7830 3042
L7759 3042
L7716 3056
L7688 3084
L7673 3113
L7659 3170
L7659 3213
L7673 3270
L7688 3299
L7716 3327
L7759 3342
L7830 3342
" />
<path d="M7559 3042
L7373 3042
L7473 3156
L7430 3156
L7402 3170
L7388 3184
L7373 3213
L7373 3284
L7388 3313
L7402 3327
L7430 3342
L7516 3342
L7545 3327
L7559 3313
" />
<path d="M7102 1242
L7245 1242
L7245 942
" />
<path d="M7002 1084
L6902 1084
" />
<path d="M6859 1242
L7002 1242
L7002 942
L6859 942
" />
<path d="M6730 1242
L6730 942
L6659 942
L6616 956
L6588 984
L6573 1013
L6559 1070
L6559 1113
L6573 1170
L6588 1199
L6616 1227
L6659 1242
L6730 1242
" />
<path d="M10547 5782
L10547 5482
L10475 5482
L10433 5497
L10404 5525
L10390 5554
L10375 5611
L10375 5654
L10390 5711
L10404 5740
L10433 5768
L10475 5782
L10547 5782
" />
<path d="M10204 5611
L10233 5597
L10247 5582
L10261 5554
L10261 5540
L10247 5511
L10233 5497
L10204 5482
L10147 5482
L10118 5497
L10104 5511
L10090 5540
L10090 5554
L10104 5582
L10118 5597
L10147 5611
L10204 5611
L10233 5625
L10247 5640
L10261 5668
L10261 5725
L10247 5754
L10233 5768
L10204 5782
L10147 5782
L10118 5768
L10104 5754
L10090 5725
L10090 5668
L10104 5640
L10118 5625
L10147 5611
" />
<path d="M9818 3682
L9961 3682
L9961 3382
" />
<path d="M9718 3525
L9618 3525
" />
<path d="M9575 3682
L9718 3682
L9718 3382
L9575 3382
" />
<path d="M9447 3682
L9447 3382
L9375 3382
L9333 3397
L9304 3425
L9290 3454
L9275 3511
L9275 3554
L9290 3611
L9304 3640
L9333 3668
L9375 3682
L9447 3682
" />
<path d="M18618 3342
L18618 3042
L18546 3042
L18503 3056
L18475 3084
L18461 3113
L18446 3170
L18446 3213
L18461 3270
L18475 3299
L18503 3327
L18546 3342
L18618 3342
" />
<path d="M18346 3042
L18146 3042
L18275 3342
" />
<path d="M17889 1242
L18032 1242
L18032 942
" />
<path d="M17789 1084
L17689 1084
" />
<path d="M17646 1242
L17789 1242
L17789 942
L17646 942
" />
<path d="M17518 1242
L17518 942
L17446 942
L17403 956
L17375 984
L17361 1013
L17346 1070
L17346 1113
L17361 1170
L17375 1199
L17403 1227
L17446 1242
L17518 1242
" />
<path d="M15901 3342
L15901 3042
L15830 3042
L15787 3056
L15758 3084
L15744 3113
L15730 3170
L15730 3213
L15744 3270
L15758 3299
L15787 3327
L15830 3342
L15901 3342
" />
<path d="M15473 3042
L15530 3042
L15558 3056
L15573 3070
L15601 3113
L15616 3170
L15616 3284
L15601 3313
L15587 3327
L15558 3342
L15501 3342
L15473 3327
L15458 3313
L15444 3284
L15444 3213
L15458 3184
L15473 3170
L15501 3156
L15558 3156
L15587 3170
L15601 3184
L15616 3213
" />
<path d="M15173 1242
L15316 1242
L15316 942
" />
<path d="M15073 1084
L14973 1084
" />
<path d="M14930 1242
L15073 1242
L15073 942
L14930 942
" />
<path d="M14801 1242
L14801 942
L14730 942
L14687 956
L14658 984
L14644 1013
L14630 1070
L14630 1113
L14644 1170
L14658 1199
L14687 1227
L14730 1242
L14801 1242
" />
<path d="M5153 3342
L5153 3042
L5082 3042
L5039 3056
L5010 3084
L4996 3113
L4982 3170
L4982 3213
L4996 3270
L5010 3299
L5039 3327
L5082 3342
L5153 3342
" />
<path d="M4867 3070
L4853 3056
L4825 3042
L4753 3042
L4725 3056
L4710 3070
L4696 3099
L4696 3127
L4710 3170
L4882 3342
L4696 3342
" />
<path d="M4425 1242
L4567 1242
L4567 942
" />
<path d="M4325 1084
L4225 1084
" />
<path d="M4182 1242
L4325 1242
L4325 942
L4182 942
" />
<path d="M4053 1242
L4053 942
L3982 942
L3939 956
L3910 984
L3896 1013
L3882 1070
L3882 1113
L3896 1170
L3910 1199
L3939 1227
L3982 1242
L4053 1242
" />
<path d="M2476 3342
L2476 3042
L2405 3042
L2362 3056
L2333 3084
L2319 3113
L2305 3170
L2305 3213
L2319 3270
L2333 3299
L2362 3327
L2405 3342
L2476 3342
" />
<path d="M2019 3342
L2190 3342
" />
<path d="M2105 3342
L2105 3042
L2133 3084
L2162 3113
L2190 3127
" />
<path d="M1747 1242
L1890 1242
L1890 942
" />
<path d="M1647 1084
L1547 1084
" />
<path d="M1505 1242
L1647 1242
L1647 942
L1505 942
" />
<path d="M1376 1242
L1376 942
L1305 942
L1262 956
L1233 984
L1219 1013
L1205 1070
L1205 1113
L1219 1170
L1233 1199
L1262 1227
L1305 1242
L1376 1242
" />
<path d="M9168 8325
L8868 8325
L8868 8396
L8883 8439
L8911 8468
L8940 8482
L8997 8496
L9040 8496
L9097 8482
L9125 8468
L9154 8439
L9168 8396
L9168 8325
" />
<path d="M9168 8782
L9168 8611
" />
<path d="M9168 8696
L8868 8696
L8911 8668
L8940 8639
L8954 8611
" />
<path d="M8868 8882
L8868 9068
L8983 8968
L8983 9011
L8997 9039
L9011 9054
L9040 9068
L9111 9068
L9140 9054
L9154 9039
L9168 9011
L9168 8925
L9154 8896
L9140 8882
" />
<path d="M7068 9196
L7068 9054
L6768 9054
" />
<path d="M6911 9296
L6911 9396
" />
<path d="M7068 9439
L7068 9296
L6768 9296
L6768 9439
" />
<path d="M7068 9568
L6768 9568
L6768 9639
L6783 9682
L6811 9711
L6840 9725
L6897 9739
L6940 9739
L6997 9725
L7025 9711
L7054 9682
L7068 9639
L7068 9568
" />
<path d="M10690 15467
L10690 15167
L10618 15167
L10575 15182
L10547 15210
L10533 15239
L10518 15296
L10518 15339
L10533 15396
L10547 15425
L10575 15453
L10618 15467
L10690 15467
" />
<path d="M10233 15467
L10404 15467
" />
<path d="M10318 15467
L10318 15167
L10347 15210
L10375 15239
L10404 15253
" />
<path d="M10118 15196
L10104 15182
L10075 15167
L10004 15167
L9975 15182
L9961 15196
L9947 15225
L9947 15253
L9961 15296
L10133 15467
L9947 15467
" />
<path d="M9818 13367
L9961 13367
L9961 13067
" />
<path d="M9718 13210
L9618 13210
" />
<path d="M9575 13367
L9718 13367
L9718 13067
L9575 13067
" />
<path d="M9447 13367
L9447 13067
L9375 13067
L9333 13082
L9304 13110
L9290 13139
L9275 13196
L9275 13239
L9290 13296
L9304 13325
L9333 13353
L9375 13367
L9447 13367
" />
<path d="M10690 13066
L10690 12766
L10618 12766
L10575 12780
L10547 12809
L10533 12837
L10518 12894
L10518 12937
L10533 12994
L10547 13023
L10575 13052
L10618 13066
L10690 13066
" />
<path d="M10233 13066
L10404 13066
" />
<path d="M10318 13066
L10318 12766
L10347 12809
L10375 12837
L10404 12852
" />
<path d="M9947 13066
L10118 13066
" />
<path d="M10033 13066
L10033 12766
L10061 12809
L10090 12837
L10118 12852
" />
<path d="M9818 10966
L9961 10966
L9961 10666
" />
<path d="M9718 10809
L9618 10809
" />
<path d="M9575 10966
L9718 10966
L9718 10666
L9575 10666
" />
<path d="M9447 10966
L9447 10666
L9375 10666
L9333 10680
L9304 10709
L9290 10737
L9275 10794
L9275 10837
L9290 10894
L9304 10923
L9333 10952
L9375 10966
L9447 10966
" />
<path d="M4706 5074
L4706 4774
L4634 4774
L4591 4788
L4563 4817
L4548 4845
L4534 4902
L4534 4945
L4548 5002
L4563 5031
L4591 5060
L4634 5074
L4706 5074
" />
<path d="M4248 5074
L4420 5074
" />
<path d="M4334 5074
L4334 4774
L4363 4817
L4391 4845
L4420 4860
" />
<path d="M3991 4774
L4048 4774
L4077 4788
L4091 4802
L4120 4845
L4134 4902
L4134 5017
L4120 5045
L4106 5060
L4077 5074
L4020 5074
L3991 5060
L3977 5045
L3963 5017
L3963 4945
L3977 4917
L3991 4902
L4020 4888
L4077 4888
L4106 4902
L4120 4917
L4134 4945
" />
<path d="M3834 2974
L3977 2974
L3977 2674
" />
<path d="M3734 2817
L3634 2817
" />
<path d="M3591 2974
L3734 2974
L3734 2674
L3591 2674
" />
<path d="M3463 2974
L3463 2674
L3391 2674
L3348 2688
L3320 2717
L3306 2745
L3291 2802
L3291 2845
L3306 2902
L3320 2931
L3348 2960
L3391 2974
L3463 2974
" />
<path d="M6832 6373
L6832 6073
L6760 6073
L6717 6087
L6689 6116
L6674 6144
L6660 6202
L6660 6244
L6674 6302
L6689 6330
L6717 6359
L6760 6373
L6832 6373
" />
<path d="M6374 6373
L6546 6373
" />
<path d="M6460 6373
L6460 6073
L6489 6116
L6517 6144
L6546 6159
" />
<path d="M6103 6073
L6246 6073
L6260 6216
L6246 6202
L6217 6187
L6146 6187
L6117 6202
L6103 6216
L6089 6244
L6089 6316
L6103 6344
L6117 6359
L6146 6373
L6217 6373
L6246 6359
L6260 6344
" />
<path d="M5960 4273
L6103 4273
L6103 3973
" />
<path d="M5860 4116
L5760 4116
" />
<path d="M5717 4273
L5860 4273
L5860 3973
L5717 3973
" />
<path d="M5589 4273
L5589 3973
L5517 3973
L5474 3987
L5446 4016
L5432 4044
L5417 4102
L5417 4144
L5432 4202
L5446 4230
L5474 4259
L5517 4273
L5589 4273
" />
<path d="M8328 8381
L8328 8081
L8256 8081
L8213 8095
L8185 8124
L8170 8152
L8156 8209
L8156 8252
L8170 8309
L8185 8338
L8213 8367
L8256 8381
L8328 8381
" />
<path d="M7870 8381
L8042 8381
" />
<path d="M7956 8381
L7956 8081
L7985 8124
L8013 8152
L8042 8167
" />
<path d="M7613 8181
L7613 8381
" />
<path d="M7685 8067
L7756 8281
L7570 8281
" />
<path d="M7456 6281
L7599 6281
L7599 5981
" />
<path d="M7356 6124
L7256 6124
" />
<path d="M7213 6281
L7356 6281
L7356 5981
L7213 5981
" />
<path d="M7085 6281
L7085 5981
L7013 5981
L6970 5995
L6942 6024
L6928 6052
L6913 6109
L6913 6152
L6928 6209
L6942 6238
L6970 6267
L7013 6281
L7085 6281
" />
<path d="M10690 10625
L10690 10325
L10618 10325
L10575 10339
L10547 10368
L10533 10396
L10518 10454
L10518 10496
L10533 10554
L10547 10582
L10575 10611
L10618 10625
L10690 10625
" />
<path d="M10233 10625
L10404 10625
" />
<path d="M10318 10625
L10318 10325
L10347 10368
L10375 10396
L10404 10411
" />
<path d="M10047 10325
L10018 10325
L9990 10339
L9975 10354
L9961 10382
L9947 10439
L9947 10511
L9961 10568
L9975 10596
L9990 10611
L10018 10625
L10047 10625
L10075 10611
L10090 10596
L10104 10568
L10118 10511
L10118 10439
L10104 10382
L10090 10354
L10075 10339
L10047 10325
" />
<path d="M9818 8525
L9961 8525
L9961 8225
" />
<path d="M9718 8368
L9618 8368
" />
<path d="M9575 8525
L9718 8525
L9718 8225
L9575 8225
" />
<path d="M9447 8525
L9447 8225
L9375 8225
L9333 8239
L9304 8268
L9290 8296
L9275 8354
L9275 8396
L9290 8454
L9304 8482
L9333 8511
L9375 8525
L9447 8525
" />
<path d="M10547 8184
L10547 7884
L10475 7884
L10433 7898
L10404 7927
L10390 7955
L10375 8013
L10375 8055
L10390 8113
L10404 8141
L10433 8170
L10475 8184
L10547 8184
" />
<path d="M10233 8184
L10175 8184
L10147 8170
L10133 8155
L10104 8113
L10090 8055
L10090 7941
L10104 7913
L10118 7898
L10147 7884
L10204 7884
L10233 7898
L10247 7913
L10261 7941
L10261 8013
L10247 8041
L10233 8055
L10204 8070
L10147 8070
L10118 8055
L10104 8041
L10090 8013
" />
<path d="M9818 6084
L9961 6084
L9961 5784
" />
<path d="M9718 5927
L9618 5927
" />
<path d="M9575 6084
L9718 6084
L9718 5784
L9575 5784
" />
<path d="M9447 6084
L9447 5784
L9375 5784
L9333 5798
L9304 5827
L9290 5855
L9275 5913
L9275 5955
L9290 6013
L9304 6041
L9333 6070
L9375 6084
L9447 6084
" />
<path d="M13538 15608
L13238 15608
L13238 15680
L13253 15723
L13281 15751
L13310 15766
L13367 15780
L13410 15780
L13467 15766
L13496 15751
L13524 15723
L13538 15680
L13538 15608
" />
<path d="M13267 15894
L13253 15908
L13238 15937
L13238 16008
L13253 16037
L13267 16051
L13296 16066
L13324 16066
L13367 16051
L13538 15880
L13538 16066
" />
<path d="M13538 16351
L13538 16180
" />
<path d="M13538 16266
L13238 16266
L13281 16237
L13310 16208
L13324 16180
" />
<path d="M11438 16480
L11438 16337
L11138 16337
" />
<path d="M11281 16580
L11281 16680
" />
<path d="M11438 16723
L11438 16580
L11138 16580
L11138 16723
" />
<path d="M11438 16851
L11138 16851
L11138 16923
L11153 16966
L11181 16994
L11210 17008
L11267 17023
L11310 17023
L11367 17008
L11396 16994
L11424 16966
L11438 16923
L11438 16851
" />
<path d="M8145 15608
L7845 15608
L7845 15680
L7859 15723
L7888 15751
L7916 15766
L7973 15780
L8016 15780
L8073 15766
L8102 15751
L8130 15723
L8145 15680
L8145 15608
" />
<path d="M8145 16066
L8145 15894
" />
<path d="M8145 15980
L7845 15980
L7888 15951
L7916 15923
L7930 15894
" />
<path d="M8145 16208
L8145 16266
L8130 16294
L8116 16308
L8073 16337
L8016 16351
L7902 16351
L7873 16337
L7859 16323
L7845 16294
L7845 16237
L7859 16208
L7873 16194
L7902 16180
L7973 16180
L8002 16194
L8016 16208
L8030 16237
L8030 16294
L8016 16323
L8002 16337
L7973 16351
" />
<path d="M6045 16480
L6045 16337
L5745 16337
" />
<path d="M5888 16580
L5888 16680
" />
<path d="M6045 16723
L6045 16580
L5745 16580
L5745 16723
" />
<path d="M6045 16851
L5745 16851
L5745 16923
L5759 16966
L5788 16994
L5816 17008
L5873 17023
L5916 17023
L5973 17008
L6002 16994
L6030 16966
L6045 16923
L6045 16851
" />
</g>
<g style="fill:#840084; fill-opacity:0.0; 
stroke:#840084; stroke-width:60; stroke-opacity:1; 
stroke-linecap:round; stroke-linejoin:round;">
<path d="M2800 19129
L2800 18829
L2685 18829
L2657 18844
L2643 18858
L2628 18886
L2628 18929
L2643 18958
L2657 18972
L2685 18986
L2800 18986
" />
<path d="M2514 18858
L2500 18844
L2471 18829
L2400 18829
L2371 18844
L2357 18858
L2343 18886
L2343 18915
L2357 18958
L2528 19129
L2343 19129
" />
</g>
<g style="fill:#840084; fill-opacity:0.0; 
stroke:#840084; stroke-width:80; stroke-opacity:1; 
stroke-linecap:round; stroke-linejoin:round;">
<path d="M16972 8399
L16572 8399
L16572 8551
L16591 8589
L16610 8609
L16648 8628
L16705 8628
L16744 8609
L16763 8589
L16782 8551
L16782 8399
" />
<path d="M16972 9009
L16972 8780
" />
<path d="M16972 8894
L16572 8894
L16629 8856
L16667 8818
L16686 8780
" />
</g>
<g style="fill:#840084; fill-opacity:0.0; 
stroke:#840084; stroke-width:59.0551; stroke-opacity:1; 
stroke-linecap:round; stroke-linejoin:round;">
<path d="M3398 19471
L3211 19340
" />
<path d="M3398 19246
L3004 19246
L3004 19396
L3023 19433
L3042 19452
L3079 19471
L3136 19471
L3173 19452
L3192 19433
L3211 19396
L3211 19246
" />
<path d="M3192 19640
L3192 19771
" />
<path d="M3398 19827
L3398 19640
L3004 19640
L3004 19827
" />
<path d="M3023 20202
L3004 20164
L3004 20108
L3023 20052
L3061 20014
L3098 19996
L3173 19977
L3229 19977
L3304 19996
L3342 20014
L3379 20052
L3398 20108
L3398 20146
L3379 20202
L3361 20221
L3229 20221
L3229 20146
" />
<path d="M3004 20389
L3323 20389
L3361 20408
L3379 20427
L3398 20464
L3398 20539
L3379 20577
L3361 20596
L3323 20614
L3004 20614
" />
<path d="M3398 21008
L3398 20783
" />
<path d="M3398 20896
L3004 20896
L3061 20858
L3098 20821
L3117 20783
" />
<path d="M3898 19805
L3898 19618
L3504 19618
" />
<path d="M3898 19937
L3504 19937
L3504 20086
L3523 20124
L3542 20143
L3579 20161
L3636 20161
L3673 20143
L3692 20124
L3711 20086
L3711 19937
" />
<path d="M3542 20311
L3523 20330
L3504 20368
L3504 20461
L3523 20499
L3542 20518
L3579 20536
L3617 20536
L3673 20518
L3898 20293
L3898 20536
" />
<path d="M3898 20724
L3898 20799
L3879 20836
L3861 20855
L3804 20893
L3729 20911
L3579 20911
L3542 20893
L3523 20874
L3504 20836
L3504 20761
L3523 20724
L3542 20705
L3579 20686
L3673 20686
L3711 20705
L3729 20724
L3748 20761
L3748 20836
L3729 20874
L3711 20893
L3673 20911
" />
<path d="M3673 21136
L3654 21099
L3636 21080
L3598 21061
L3579 21061
L3542 21080
L3523 21099
L3504 21136
L3504 21211
L3523 21249
L3542 21268
L3579 21286
L3598 21286
L3636 21268
L3654 21249
L3673 21211
L3673 21136
L3692 21099
L3711 21080
L3748 21061
L3823 21061
L3861 21080
L3879 21099
L3898 21136
L3898 21211
L3879 21249
L3861 21268
L3823 21286
L3748 21286
L3711 21268
L3692 21249
L3673 21211
" />
<path d="M3898 21661
L3898 21436
" />
<path d="M3898 21549
L3504 21549
L3561 21511
L3598 21474
L3617 21436
" />
<path d="M3786 21811
L3786 21999
" />
<path d="M3898 21774
L3504 21905
L3898 22036
" />
<path d="M3898 22167
L3504 22167
" />
<path d="M3898 22355
L3504 22355
L3786 22486
L3504 22617
L3898 22617
" />
</g>
<g style="fill:#840084; fill-opacity:0.0; 
stroke:#840084; stroke-width:47; stroke-opacity:1; 
stroke-linecap:round; stroke-linejoin:round;">
<path d="M5890 22152
L5899 22161
L5927 22171
L5946 22171
L5974 22161
L5993 22143
L6002 22124
L6012 22086
L6012 22058
L6002 22021
L5993 22002
L5974 21983
L5946 21974
L5927 21974
L5899 21983
L5890 21992
" />
<path d="M5702 22171
L5815 22171
" />
<path d="M5758 22171
L5758 21974
L5777 22002
L5796 22021
L5815 22030
" />
<path d="M6356 25386
L6365 25396
L6394 25405
L6412 25405
L6440 25396
L6459 25377
L6469 25358
L6478 25321
L6478 25293
L6469 25255
L6459 25236
L6440 25217
L6412 25208
L6394 25208
L6365 25217
L6356 25227
" />
<path d="M6281 25227
L6272 25217
L6253 25208
L6206 25208
L6187 25217
L6178 25227
L6168 25246
L6168 25264
L6178 25293
L6290 25405
L6168 25405
" />
<path d="M6374 22125
L6383 22135
L6411 22144
L6430 22144
L6458 22135
L6477 22116
L6486 22097
L6496 22060
L6496 22032
L6486 21994
L6477 21975
L6458 21957
L6430 21947
L6411 21947
L6383 21957
L6374 21966
" />
<path d="M6205 22013
L6205 22144
" />
<path d="M6252 21938
L6299 22078
L6177 22078
" />
<path d="M5749 20825
L5759 20834
L5787 20843
L5806 20843
L5834 20834
L5852 20815
L5862 20796
L5871 20759
L5871 20731
L5862 20693
L5852 20674
L5834 20656
L5806 20646
L5787 20646
L5759 20656
L5749 20665
" />
<path d="M5684 20646
L5562 20646
L5627 20721
L5599 20721
L5580 20731
L5571 20740
L5562 20759
L5562 20806
L5571 20825
L5580 20834
L5599 20843
L5655 20843
L5674 20834
L5684 20825
" />
<g >
</g>
</g>
<g style="fill:#000000; fill-opacity:0.0; 
stroke:#000000; stroke-width:47; stroke-opacity:1; 
stroke-linecap:round; stroke-linejoin:round;">
</g>
<g style="fill:#C2C200; fill-opacity:0.0; 
stroke:#C2C200; stroke-width:47; stroke-opacity:1; 
stroke-linecap:round; stroke-linejoin:round;">
</g>
<g style="fill:#C2C200; fill-opacity:0.0; 
stroke:#C2C200; stroke-width:39.3701; stroke-opacity:1; 
stroke-linecap:round; stroke-linejoin:round;">
<path d="M17539 19
L17342 19
" />
<path d="M19232 1712
L17539 19
" />
<path d="M19232 21122
L19232 1712
" />
<path d="M10767 29586
L19232 21122
" />
<path d="M8523 29586
L10767 29586
" />
<path d="M19 21082
L8523 29586
" />
<path d="M19 19980
L19 21082
" />
<path d="M19 1397
L19 19980
" />
<path d="M1397 19
L19 1397
" />
<path d="M17342 19
L1397 19
" />
<g >
</g>
<g >
</g>
<g >
</g>
<g >
</g>
<g >
</g>
<g >
</g>
<g >
</g>
<g >
</g>
<g >
</g>
<g >
</g>
<g >
</g>
<g >
</g>
<g >
</g>
<g >
</g>
<g >
</g>
<g >
</g>
<g >
</g>
<g >
</g>
<g >
</g>
<g >
</g>
<g >
</g>
<g >
</g>
<g >
</g>
<g >
</g>
<g >
</g>
<g >
</g>
<g >
</g>
<g >
</g>
<g >
</g>
<g >
</g>
<g >
</g>
<g >
</g>
<g >
</g>
<g >
</g>
<g >
</g>
<g >
</g>
<g >
</g>
<g >
</g>
<g >
</g>
<g >
</g>
<g >
</g>
<g >
</g>
<g >
</g>
<g >
</g>
<g >
</g>
<g >
</g>
</g> 
</svg>
